<svg width="1370" height="449" viewBox="0 0 1370 449" fill="none" xmlns="http://www.w3.org/2000/svg">
<g opacity="0.15" clip-path="url(#clip0_1_130673)">
<path d="M372.455 99.3441C372.455 99.2891 372.455 99.2391 372.455 99.1841C374.675 97.8743 378.954 96.2595 382.679 95.0046L382.644 94.9497C386.108 92.205 388.233 92.295 390.343 92.9749V86.1508C383.189 83.9561 377.949 75.7722 379.504 67.1534C371.36 67.3234 373.61 51.8654 381.354 57.1547C381.354 57.0447 381.354 56.9048 381.479 56.8598C380.579 53.195 380.45 49.3835 381.099 45.6663C377.799 42.2117 376.664 36.3125 381.034 32.473C386.658 27.5287 392.507 31.3782 397.567 33.2929C404.066 35.7576 420.404 31.0732 413.245 56.7898C413.328 56.818 413.399 56.8743 413.445 56.949C413.492 57.0238 413.511 57.1124 413.499 57.1997C421.288 51.8204 423.538 67.4283 415.334 67.1984C416.834 75.8322 411.235 84.486 403.751 86.4108V92.745C404.851 92.655 409.37 92.45 411.455 95.0796C413.749 95.8495 415.954 96.6944 418.154 97.6443C419.319 98.1442 420.484 98.6741 421.613 99.2291C421.613 99.684 421.613 100.169 421.613 100.664C421.613 99.744 421.613 99.2241 421.613 99.2241C464.238 120.881 471.172 169.715 436.451 179.633C442.116 246.669 447.005 318.045 429.687 384.976H429.722C429.152 388.82 426.583 393.09 428.622 396.839C429.797 396.839 430.922 396.909 432.007 396.989C433.567 396.264 434.732 396.239 434.317 397.214C436.022 397.42 437.713 397.727 439.381 398.134C440.526 397.519 441.451 397.494 441.411 398.694C442.987 399.175 444.519 399.791 445.99 400.534C447.355 400.159 448.375 400.409 447.91 401.629C452.379 404.313 456.549 410.472 450.584 411.727H411.355C409.355 407.928 409.635 400.939 412.285 397.804C412.23 394.17 411.785 391.01 411.015 385.471C404.241 333.863 397.407 281.07 397.277 229.152C391.947 279.435 386.123 334.453 379.119 385.361C378.872 387.127 378.629 388.844 378.389 390.51L378.264 390.595C378.086 393.606 378.186 396.627 378.564 399.619C380.469 401.464 381.784 404.148 382.004 407.733C382.036 408.244 381.963 408.757 381.79 409.24C381.616 409.722 381.346 410.164 380.996 410.539C380.646 410.913 380.223 411.212 379.753 411.417C379.284 411.623 378.777 411.73 378.264 411.732H359.072C357.922 406.233 359.542 402.158 362.376 399.614C362.76 396.614 362.856 393.583 362.661 390.565L362.551 390.515C362.551 390.515 362.051 388.515 361.222 384.761H361.261C348.133 322.769 343.724 256.498 354.812 193.661C354.537 189.322 354.517 183.888 354.582 179.238C319.857 166.165 341.479 110.083 372.455 99.3441Z" fill="#132242"/>
<path d="M309.089 141.573C296.365 114.946 261.27 95.964 239.683 94.2442C239.713 92.9394 239.563 90.3197 235.893 88.4799V85.9803C243.757 83.9306 249.847 75.8717 248.127 65.848C254.526 64.0382 252.551 52.0598 245.792 55.0144C246.547 50.71 246.922 46.2456 246.367 43.516C249.817 39.9664 251.031 33.8273 246.497 29.8378C240.693 24.7385 234.664 28.713 229.444 30.6877C222.71 33.2374 205.797 28.0981 213.446 54.9944C206.882 52.2348 204.843 63.6683 210.947 65.798C209.747 76.5365 215.376 83.1707 222.605 85.7053V88.47C222.605 88.47 218.421 90.2697 219.241 94.2042C170.117 97.7037 106.461 170.934 168.582 204.244C170.11 205.081 171.682 205.832 173.292 206.494C176.427 210.446 180.283 213.767 184.655 216.283C181.386 265.411 185.96 350.685 189.31 381.041H189.265C189.635 384.935 189.86 387.04 189.86 387.04C191.083 387.898 192.432 388.561 193.859 389.005C193.798 390.648 193.247 392.235 192.279 393.564C191.109 393.564 189.955 393.639 188.825 393.749C187.78 393.029 187.045 392.974 187.175 393.939C185.262 394.204 183.371 394.607 181.516 395.144C180.291 394.434 179.466 394.484 179.866 395.644C178.49 396.106 177.144 396.653 175.837 397.284C174.762 396.324 173.472 397.084 174.107 398.193C168.323 401.238 164.008 407.337 170.217 409.117H211.212C213.746 405.027 212.077 395.619 210.387 394.884C210.387 393.009 210.482 391.014 210.617 388.955C212.461 388.56 214.28 388.059 216.066 387.455C218.781 342.616 224.68 262.087 227.795 216.928C231.609 265.776 243.757 345.78 249.422 380.991C250.082 385.14 250.461 387.46 250.461 387.46C252.247 388.314 254.152 388.891 256.111 389.17C258.11 398.933 251.311 397.668 252.171 405.667C252.238 406.602 252.657 407.477 253.344 408.116C254.03 408.754 254.933 409.108 255.871 409.107H272.564C278.858 408.207 276.458 399.953 272.604 396.404C272.266 393.876 272.152 391.323 272.264 388.775C275.363 388.275 277.443 387.775 277.443 387.775C278.688 338.431 277.168 271.425 274.753 216.013C277.298 214.458 281.022 212.203 285.752 206.434C287.36 205.768 288.932 205.017 290.461 204.184C301.995 198.015 329.241 178.628 309.089 141.573ZM179.911 197.11C167.313 175.933 170.662 158.566 189.655 147.117C184.735 168.244 184.385 188.642 185.475 197.11C184.225 197.03 181.791 196.785 179.911 197.11ZM281.147 193.291C279.988 195.666 279.113 197.11 279.113 197.11C277.333 196.8 275.048 197.01 273.748 197.11C274.913 190.521 274.718 167.019 269.364 147.117C288.121 158.291 290.811 175.123 281.147 193.286V193.291Z" fill="#132242"/>
<path d="M146.4 58.2284C132.402 37.1062 97.272 32.5468 89.0131 33.1617C87.6033 31.6619 82.9089 27.2925 80.5143 25.6627C82.794 23.1331 83.8238 19.1636 81.5691 12.8444C78.523 13.5222 75.7059 14.9815 73.3952 17.0789C72.8766 14.5334 71.8698 12.1125 70.4306 9.94985C68.799 12.8242 66.9152 15.5479 64.8014 18.0887C63.5465 13.1594 60.207 8.95496 60.207 8.95496C60.5919 9.23492 55.7376 17.9538 50.9982 21.3833C46.7338 22.5632 37.77 26.4926 43.3542 38.0711C42.1644 41.3606 43.3542 45.4951 44.6241 48.4847C41.8444 52.0342 45.329 59.5482 49.9034 58.0434C51.2032 61.8929 53.3779 65.9223 56.4525 68.397C56.8865 68.7535 57.3387 69.0872 57.8073 69.3969C58.2901 69.7154 58.7909 70.0058 59.3071 70.2667C59.3871 72.7164 59.3771 76.4159 58.9871 78.1657C-7.56393 86.4546 -13.6481 175.073 20.0374 208.318C17.9177 258.312 18.5376 342.72 20.3973 386.404C22.4102 387.228 24.4912 387.873 26.6165 388.334C26.7215 395.808 27.6913 394.833 26.7115 399.768C23.052 402.892 20.2673 412.006 26.5065 412.636H42.8443C49.0485 411.841 46.3438 403.222 42.7143 399.933C41.9994 394.863 42.4244 396.123 43.5542 388.719C46.2739 388.329 48.9516 387.688 51.5531 386.804C55.0777 356.638 66.0812 262.681 69.4807 233.605C75.175 282.848 78.1496 353.949 79.1544 386.404C81.5108 386.948 83.8936 387.371 86.2935 387.669C86.5984 391.454 86.7934 394.883 86.9234 397.913C84.5137 401.412 84.4787 408.246 86.5485 412.636H126.693C135.662 409.851 122.614 397.008 105.046 397.363C103.161 394.418 103.436 392.124 104.046 387.629C106.146 387.373 108.225 386.963 110.265 386.404C115.37 345.63 121.054 248.223 114.895 190.656C113.125 165.109 111.86 133.278 102.576 108.167C124.103 109.097 165.068 84.1199 146.4 58.2284ZM100.557 74.6262C90.7779 74.4012 78.6745 74.8012 73.6802 77.6258C73.9133 75.6682 74.0218 73.6978 74.0051 71.7265C85.6036 68.442 94.5524 55.2688 85.1636 45.2751C83.0739 43.3704 81.8191 40.8107 80.7042 38.231C82.604 41.1956 85.7036 40.9757 87.9833 42.6905C87.9923 42.858 88.0106 43.0249 88.0382 43.1904C123.628 60.863 117.444 75.5261 100.557 74.6262Z" fill="#132242"/>
<path d="M254.106 133.167C261.34 131.772 281.992 120.669 280.077 117.549C278.078 116.185 271.774 121.834 268.714 122.244V122.189C270.429 121.109 285.852 109.061 278.633 109.91C275.232 113.031 271.487 115.753 267.469 118.024V117.994C268.759 116.455 282.967 103.496 275.913 104.996C272.583 108.505 269.013 111.779 265.229 114.795L265.179 114.75C265.929 113.005 275.853 98.8319 269.594 101.702C267.061 105.558 264.346 109.281 261.45 112.87C259.486 114.467 257.346 115.834 255.071 116.944C254.816 114.745 258.165 110.7 256.121 109.385C253.121 109.585 252.121 115.815 251.216 118.329C250.641 119.414 248.972 122.374 248.377 124.788C246.78 125.668 245.234 126.477 243.737 127.213C243.737 127.278 243.737 127.343 243.737 127.408C205.428 147.27 188.075 106.661 156.074 102.746C156.204 101.617 156.289 100.422 156.339 99.1819C156.339 98.182 156.374 97.2421 156.374 96.2522C169.282 92.7227 178.821 75.685 166.653 66.5212C164.318 64.8162 162.382 62.6243 160.978 60.0971C160.978 60.0471 161.053 54.8228 157.979 50.5984C160.086 48.4345 161.468 45.6688 161.933 42.6844C158.414 41.8568 154.729 42.0722 151.33 43.3044C150.661 41.109 149.28 39.1988 147.405 37.8751C146.497 40.3676 145.306 42.7478 143.856 44.9691C143.356 40.2998 140.486 36.5103 140.486 36.5103C139.716 40.9847 133.532 44.2042 130.613 49.0486L130.458 48.8286C130.458 48.8286 114.115 54.7078 125.893 69.1959C126.105 71.2337 126.527 73.2442 127.153 75.1951C123.109 78.6146 128.333 87.7534 133.102 84.9688C135.102 88.7933 137.777 92.2478 141.341 94.4175C141.466 97.827 141.441 101.072 141.111 102.916C139.011 101.916 135.527 104.251 135.527 104.251V104.296C101.246 112.52 61.2518 163.538 107.711 217.861C102.961 282.467 101.811 396.527 103.021 423.688C103.021 423.688 105.101 424.188 108.201 424.688C108.312 427.236 108.198 429.789 107.861 432.317C104.001 435.867 101.611 444.126 107.901 445.021H124.603C125.541 445.022 126.444 444.667 127.13 444.029C127.817 443.391 128.236 442.516 128.303 441.581C129.168 433.582 122.344 434.847 124.368 425.083C126.326 424.804 128.229 424.228 130.013 423.373C130.013 423.373 130.393 421.054 131.057 416.904C136.487 382.729 148.365 306.304 152.685 252.841C155.564 294.641 161.808 380.089 164.413 423.368C166.2 423.97 168.019 424.471 169.862 424.868C169.997 426.928 170.077 428.923 170.097 430.797C168.407 431.537 166.728 440.956 169.272 445.031H210.267C216.481 443.251 212.157 437.157 206.377 434.107C207.012 432.992 205.722 432.237 204.648 433.197C203.34 432.567 201.994 432.019 200.618 431.557C201.018 430.377 200.193 430.327 198.968 431.057C197.114 430.52 195.222 430.119 193.309 429.858C193.439 428.888 192.709 428.943 191.659 429.663C190.529 429.553 189.38 429.488 188.205 429.478C187.236 428.149 186.686 426.561 186.625 424.918C188.054 424.479 189.404 423.816 190.624 422.953C190.624 422.953 190.849 420.839 191.219 416.954H191.174C194.259 382.959 200.788 301.575 193.894 224.095C200.893 212.812 197.739 187.52 191.319 161.229C206.772 165.693 223.285 163.383 236.313 153.455C242.712 148.77 249.177 141.241 253.666 133.362L253.611 133.267C253.78 133.26 253.947 133.226 254.106 133.167Z" fill="#245084"/>
<path d="M382.214 441.446C381.524 437.947 378.944 435.447 375.545 433.447C375.905 432.448 374.84 431.818 373.895 432.593C372.599 431.999 371.262 431.498 369.895 431.093C370.005 429.958 368.896 429.713 367.996 430.563C366.216 430.122 364.413 429.779 362.596 429.533C362.516 428.363 361.457 428.348 360.597 429.288C359.257 429.143 357.852 429.028 356.347 428.948C355.347 427.188 355.492 424.889 355.847 422.909C372.575 375.82 375.31 329.526 371.115 284.362C381.664 277.418 375.565 266.18 378.014 256.671L377.784 256.721C383.969 216.337 382.834 151.105 358.752 135.067C358.222 132.603 355.997 130.438 351.178 128.843C348.753 123.579 340.874 121.024 336.575 123.959C334.846 123.175 333.046 122.555 331.201 122.109V115.745C346.804 108.996 339.305 94.6529 338.965 80.7997C341.142 80.2557 343.198 79.3059 345.024 78.0001C345.024 78.0001 340.199 75.8004 336.305 69.5462C327.551 54.6182 309.649 62.2972 307.939 73.5057C306.839 74.2006 302.804 78.1351 306.489 88.8236C298.415 84.3542 297.455 99.6322 305.434 99.0023C305.319 104.971 306.714 110.426 312.673 114.315C313.205 114.677 313.756 115.011 314.323 115.315V122.369C312.345 122.858 310.415 123.528 308.559 124.369C305.219 121.979 298.06 125.869 294.206 129.338C283.327 132.798 280.078 136.597 281.022 140.382C272.694 148.656 266.264 161.684 268.654 173.877C265.654 179.786 262.155 234.109 268.284 256.706H268.054C270.454 266.995 264.295 277.048 275.943 284.617C273.343 326.742 279.208 380.31 286.442 416.225H286.392C287.307 420.724 287.891 423.224 287.946 423.584L288.266 423.739C288.405 426.495 288.29 429.258 287.921 431.993C284.982 434.627 283.297 438.857 284.512 444.491C285.672 444.266 306.509 445.111 306.709 443.826C310.208 440.731 307.279 434.587 304.709 431.963C304.363 429.296 304.248 426.605 304.364 423.919H304.424C305.241 421.372 306.022 418.811 306.769 416.235L306.694 416.275C321.692 363.627 323.742 311.589 323.512 275.369C324.632 324.292 333.475 382.884 339.51 429.008C338.795 429.168 335.605 441.271 338.6 444.506H379.299C379.695 444.507 380.086 444.428 380.45 444.273C380.814 444.117 381.142 443.89 381.415 443.603C381.688 443.317 381.899 442.978 382.036 442.607C382.174 442.236 382.234 441.841 382.214 441.446Z" fill="#245084"/>
<path d="M529.594 176.923C528.261 173.494 526.71 170.154 524.95 166.924H525.025C523.249 163.575 521.245 160.353 519.026 157.28L518.851 157.31C516.334 153.872 513.542 150.643 510.502 147.657H510.662C501.543 138.963 490.344 132.399 478.036 130.819C478.024 130.803 478.014 130.787 478.006 130.769C478.831 126.805 474.612 124.99 474.612 124.99V122.21C481.896 119.661 487.565 112.981 486.355 102.168C492.499 100.023 490.424 88.5097 483.825 91.2943C491.504 64.2179 474.482 69.3922 467.702 66.8276C462.448 64.8278 456.374 60.8284 450.535 65.9727C445.965 69.9722 447.19 76.1613 450.665 79.7408C450.105 82.5055 450.49 86.9999 451.245 91.3343C444.431 88.3597 442.461 100.418 448.89 102.243C447.165 112.336 453.294 120.44 461.208 122.505V125.035C456.934 127.034 457.394 130.834 457.394 130.834C449.105 131.359 441.051 134.524 433.762 139.523H433.702C429.642 142.221 425.914 145.388 422.593 148.957L422.823 148.982C419.921 152.086 417.274 155.419 414.91 158.95H414.825C408.925 168.049 404.426 178.513 402.646 189.121C401.041 195.8 400.841 203.194 401.426 210.453C401.775 214.221 402.344 217.966 403.131 221.667L402.966 221.637C403.746 225.427 404.764 229.164 406.016 232.825H406.146C408.94 241.324 412.62 248.958 416.459 254.512C412.245 288.073 419.019 375.346 435.202 432.434C433.747 432.514 432.387 432.624 431.092 432.764C430.252 431.859 429.228 431.859 429.148 432.998C427.392 433.24 425.649 433.574 423.928 433.998C423.033 433.183 421.984 433.408 422.094 434.498C420.779 434.892 419.495 435.378 418.249 435.953C417.334 435.203 416.304 435.803 416.654 436.778C412.85 438.953 411.155 441.542 410.375 443.662C410.223 444.085 410.175 444.538 410.234 444.984C410.294 445.429 410.459 445.854 410.717 446.222C410.975 446.591 411.317 446.892 411.715 447.1C412.113 447.309 412.555 447.419 413.005 447.422H452.42C455.474 443.717 451.95 432.329 451.54 432.424C451.575 429.389 452.04 425.814 452.989 420.07C459.294 379.116 465.518 328.732 466.988 283.838C466.948 285.508 466.988 284.368 466.988 283.878C466.768 318.979 468.732 369.167 483.25 420.105L483.175 420.065C483.899 422.558 484.655 425.036 485.445 427.499H485.505C485.642 430.341 485.487 433.189 485.04 435.998C481.336 439.628 479.541 446.607 485.275 447.392H501.333C507.167 446.582 505.247 439.393 501.483 435.803C501.045 432.993 500.904 430.144 501.063 427.304L501.368 427.154C507.632 396.583 521.655 326.003 519.076 254.512C522.44 249.818 527.209 240.514 530.624 230.546L530.799 230.511C536.778 212.608 536.388 194.49 529.594 176.923Z" fill="#245084"/>
<path d="M1115.41 96.6424C1108.18 95.2426 1087.52 84.1441 1089.41 81.0245C1091.41 79.6547 1097.72 85.309 1100.78 85.7139V85.6589C1099.06 84.579 1083.64 72.5357 1090.86 73.3856C1094.26 76.5045 1098.01 79.2267 1102.02 81.4995V81.4645C1100.73 79.9247 1086.52 66.9664 1093.58 68.4412C1096.9 71.9542 1100.46 75.2317 1104.24 78.2499L1104.29 78.1999C1103.54 76.4551 1093.61 62.2871 1099.87 65.1517C1102.41 69.0062 1105.11 72.7406 1108.02 76.3202C1109.98 77.9176 1112.12 79.2846 1114.4 80.3946C1114.65 78.1949 1111.3 74.1505 1113.35 72.8356C1116.35 73.0356 1117.35 79.2648 1118.25 81.7844C1118.83 82.8693 1120.49 85.8289 1121.09 88.2436C1122.69 89.1235 1124.23 89.9317 1125.73 90.6682C1125.73 90.7332 1125.73 90.7982 1125.73 90.8582C1164.04 110.721 1181.39 70.116 1213.39 66.1965C1213.26 65.0717 1213.18 63.8718 1213.13 62.632C1213.13 61.6321 1213.09 60.6923 1213.09 59.7074C1200.18 56.1729 1190.65 39.1352 1202.81 29.9714C1205.15 28.2695 1207.09 26.0789 1208.49 23.5522C1208.49 23.4972 1208.41 18.2779 1211.49 14.0535C1209.38 11.8904 1208 9.1243 1207.53 6.13956C1211.07 5.32083 1214.78 5.55367 1218.19 6.80948C1218.86 4.61563 1220.24 2.70715 1222.11 1.38522C1223.02 3.87726 1224.21 6.25735 1225.66 8.47927C1226.16 3.8049 1229.03 0.0153809 1229.03 0.0153809C1229.8 4.51478 1235.98 7.71436 1238.9 12.5587L1239.06 12.3337C1239.06 12.3337 1255.4 18.2179 1243.62 32.701C1243.41 34.7387 1242.99 36.7491 1242.36 38.7002C1246.41 42.1147 1241.18 51.2585 1236.41 48.4739C1234.41 52.2934 1231.74 55.7529 1228.18 57.9176C1228.05 61.3322 1228.08 64.5767 1228.41 66.4165C1230.51 65.4416 1233.99 67.7563 1233.99 67.7563V67.7963C1268.27 76.0252 1308.26 127.043 1261.81 181.361C1266.56 245.972 1267.71 360.027 1266.5 387.194C1266.5 387.194 1264.42 387.693 1261.32 388.193C1261.22 390.721 1261.34 393.252 1261.68 395.757C1265.54 399.307 1267.93 407.566 1261.64 408.461H1244.94C1244 408.463 1243.1 408.11 1242.41 407.472C1241.72 406.835 1241.31 405.961 1241.24 405.026C1240.37 397.027 1247.2 398.287 1245.17 388.528C1243.22 388.248 1241.31 387.67 1239.53 386.814C1239.53 386.814 1239.15 384.494 1238.48 380.349C1233.05 346.179 1221.18 269.754 1216.86 216.291C1213.98 258.086 1207.73 343.534 1205.13 386.814C1203.34 387.415 1201.52 387.916 1199.68 388.313C1199.54 390.373 1199.46 392.368 1199.44 394.243C1201.13 394.977 1202.81 404.396 1200.27 408.471H1159.27C1153.06 406.696 1157.38 400.597 1163.16 397.547C1162.53 396.437 1163.82 395.682 1164.89 396.642C1166.2 396.012 1167.55 395.463 1168.92 394.997C1168.52 393.818 1169.35 393.768 1170.57 394.498C1172.43 393.961 1174.32 393.558 1176.23 393.293C1176.1 392.328 1176.83 392.383 1177.88 393.098C1179.01 392.988 1180.16 392.928 1181.34 392.918C1182.31 391.587 1182.86 389.998 1182.92 388.353C1181.49 387.914 1180.14 387.252 1178.92 386.394C1178.92 386.394 1178.69 384.279 1178.32 380.394H1178.37C1175.28 346.399 1168.75 265.015 1175.65 187.53C1168.65 176.247 1171.8 150.955 1178.23 124.669C1162.77 129.133 1146.23 126.818 1133.23 116.895V116.87C1126.83 112.19 1120.37 104.656 1115.88 96.7824L1115.94 96.6875C1115.76 96.7011 1115.58 96.6859 1115.41 96.6424Z" fill="#132242"/>
<path d="M1101.25 220.121C1106.75 200.073 1104.75 148.325 1100.88 137.292C1103.51 124.443 1095.64 110.64 1088.51 103.796C1089.45 100.012 1086.2 96.2171 1075.33 92.7526C1068.46 87.1683 1064.06 86.1235 1060.97 87.7882C1059.12 86.9487 1057.19 86.2794 1055.21 85.7885V78.7994C1055.78 78.4955 1056.33 78.1618 1056.86 77.7996C1062.82 73.9101 1064.21 68.4608 1064.1 62.4866C1072.1 63.1265 1071.1 47.8386 1063.04 52.313C1066.73 41.6344 1062.7 37.685 1061.59 36.9901C1059.88 25.7816 1041.98 18.1026 1033.23 33.0306C1029.31 39.2748 1024.49 41.4695 1024.49 41.4695C1026.31 42.7753 1028.37 43.7251 1030.55 44.2691C1030.23 58.1272 1022.73 72.5053 1038.32 79.2294V85.5735C1036.47 86.0197 1034.67 86.6391 1032.94 87.4233C1028.15 84.5737 1021.25 86.8034 1018.34 92.3076C1013.52 93.9024 1011.29 96.0671 1010.76 98.5368C1001.49 104.891 992.462 120.074 992.862 137.187C989.767 141.981 985.863 200.103 991.732 220.176L991.502 220.121C994.002 229.064 987.748 240.778 998.401 247.817C994.717 290.226 995.901 330.711 1011.3 379.629C1012.49 383.709 1015.3 388.213 1013.15 392.402C1011.65 392.477 1010.24 392.597 1008.9 392.737C1008.03 391.802 1006.97 391.807 1006.9 392.982C1005.08 393.23 1003.28 393.574 1001.5 394.012C1000.58 393.167 999.501 393.407 999.601 394.542C998.234 394.947 996.897 395.448 995.601 396.042C994.657 395.262 993.602 395.887 993.952 396.897C989.992 399.211 984.653 404.596 988.817 407.56C989.237 407.781 989.703 407.898 990.177 407.9H1030.94C1034.1 404.051 1030.44 392.302 1030.03 392.402C1030 391.403 1030.19 389.368 1030.47 386.278C1037.44 342.344 1044.47 286.037 1046.01 238.758C1046.04 285.147 1048.45 327.471 1062.83 379.664L1062.76 379.629C1063.51 382.209 1064.29 384.772 1065.1 387.318H1065.16C1065.28 390.004 1065.16 392.696 1064.82 395.362C1062.56 397.437 1059.04 404.476 1062.99 407.36C1063.57 407.723 1064.24 407.916 1064.93 407.915H1085C1086.16 403.376 1084.8 398.017 1081.59 395.417C1081.23 392.68 1081.11 389.916 1081.25 387.158C1081.35 387.108 1081.46 387.063 1081.57 387.008C1081.64 386.648 1082.21 384.134 1083.12 379.654H1083.07C1089.83 347.538 1096.37 287.906 1093.57 248.047C1105.24 240.463 1099.07 230.339 1101.46 220.13L1101.25 220.121Z" fill="#132242"/>
<path d="M839.922 140.398C841.255 136.969 842.807 133.629 844.567 130.399H844.492C846.266 127.049 848.271 123.827 850.491 120.755H850.666C853.184 117.317 855.976 114.089 859.015 111.102H858.855C867.974 102.413 879.172 95.8486 891.48 94.2688C891.492 94.2515 891.502 94.2331 891.511 94.2138C890.686 90.2543 894.905 88.4396 894.905 88.4396V85.5999C887.621 83.0453 881.952 76.3712 883.162 65.5576C877.017 63.4079 879.092 51.8994 885.691 54.6791C878.012 27.6027 895.035 32.782 901.814 30.2124C907.068 28.2126 913.143 24.2131 918.982 29.3575C923.551 33.3569 922.326 39.5511 918.852 43.1256C919.412 45.8953 919.027 50.3897 918.272 54.7191C925.086 51.7195 927.056 63.8078 920.627 65.6326C922.351 75.7262 916.222 83.8302 908.308 85.8949V88.4246C912.583 90.4243 912.123 94.2238 912.123 94.2238C920.412 94.7237 928.466 97.9083 935.755 102.913H935.815C939.877 105.608 943.605 108.775 946.923 112.346H946.693C949.598 115.448 952.245 118.782 954.607 122.315H954.692C960.591 131.414 965.091 141.877 966.87 152.486C968.475 159.16 968.675 166.554 968.09 173.818H968.065C967.717 177.588 967.148 181.334 966.36 185.037L966.525 185.007C965.746 188.797 964.727 192.534 963.476 196.195H963.346C960.551 204.694 956.847 212.323 953.032 217.882C954.677 249.958 955.397 333.402 933.785 389.964C933.46 391.864 933.325 394.109 934.285 395.803C935.74 395.878 937.099 395.993 938.394 396.128C939.234 395.228 940.259 395.228 940.339 396.368C942.096 396.605 943.838 396.939 945.558 397.368C946.453 396.548 947.503 396.778 947.393 397.868C948.707 398.264 949.992 398.751 951.237 399.328C952.152 398.578 953.182 399.178 952.832 400.153C956.637 402.322 958.332 404.912 959.111 407.037C959.263 407.46 959.312 407.913 959.252 408.359C959.193 408.804 959.027 409.229 958.77 409.597C958.512 409.965 958.17 410.267 957.772 410.475C957.374 410.684 956.931 410.794 956.482 410.796H917.067C914.012 407.087 917.537 395.698 917.947 395.798C917.912 392.764 917.447 389.184 916.497 383.445C910.193 342.49 903.969 292.102 902.499 247.208C902.539 248.883 902.499 247.738 902.499 247.253C902.719 282.349 900.754 332.537 886.236 383.475L886.311 383.44C885.588 385.93 884.831 388.406 884.041 390.869H883.981C883.844 393.71 884 396.558 884.446 399.368C888.151 402.997 889.946 409.976 884.211 410.761H868.154C862.319 409.951 864.239 402.762 868.004 399.173C868.442 396.363 868.582 393.514 868.424 390.674L868.119 390.529C861.854 359.958 847.831 289.378 850.411 217.882C847.046 213.193 842.277 203.884 838.863 193.915L838.688 193.885C832.738 176.083 833.128 157.965 839.922 140.398Z" fill="#132242"/>
<path d="M997.061 134.933C997.061 134.878 997.061 134.828 997.061 134.773C994.842 133.463 990.562 131.848 986.838 130.598L986.873 130.538C983.408 127.794 981.283 127.884 979.174 128.539V121.74C986.328 119.545 991.567 111.361 990.012 102.742C998.156 102.912 995.906 87.4542 988.163 92.7435C988.163 92.6385 988.163 92.4935 988.038 92.4485C988.937 88.7838 989.066 84.9723 988.417 81.255C991.717 77.8005 992.852 71.9013 988.483 68.0618C982.858 63.1175 977.009 66.9669 971.95 68.8817C965.451 71.3463 949.113 66.662 956.272 92.3785C956.188 92.4067 956.117 92.463 956.071 92.5378C956.024 92.6126 956.005 92.7012 956.017 92.7885C948.228 87.4092 945.978 103.017 954.182 102.787C952.682 111.421 958.282 120.075 965.766 122.005V128.294C964.666 128.204 960.146 127.999 958.062 130.628C955.767 131.398 953.562 132.243 951.363 133.193C950.198 133.693 949.033 134.228 947.903 134.778C947.903 135.233 947.903 135.718 947.903 136.213C947.903 135.293 947.903 134.773 947.903 134.773C905.279 156.43 898.345 205.263 933.065 215.182C927.401 282.218 922.511 353.593 939.829 420.525H939.794C940.364 424.369 942.934 428.638 940.894 432.388C939.721 432.408 938.594 432.458 937.514 432.538C935.95 431.813 934.785 431.788 935.2 432.763C933.495 432.969 931.804 433.276 930.135 433.683C928.99 433.068 928.066 433.043 928.106 434.243C926.529 434.724 924.997 435.339 923.526 436.082C922.161 435.707 921.142 435.957 921.606 437.177C917.137 439.862 912.968 446.021 918.932 447.276H958.167C960.166 443.481 959.886 436.487 957.237 433.353C957.292 429.723 957.737 426.559 958.507 421.024C965.236 369.706 972.045 317.188 972.235 265.545C972.235 265.26 972.235 264.97 972.235 264.685C977.564 314.969 983.388 369.986 990.392 420.894C990.639 422.658 990.882 424.374 991.122 426.044L991.247 426.129C991.424 429.131 991.323 432.144 990.947 435.128C989.042 436.972 987.728 439.662 987.508 443.241C987.476 443.753 987.549 444.266 987.722 444.748C987.895 445.231 988.165 445.673 988.515 446.048C988.865 446.422 989.288 446.721 989.758 446.926C990.228 447.131 990.735 447.238 991.247 447.241H1010.47C1011.62 441.742 1010 437.667 1007.17 435.123C1006.79 432.122 1006.69 429.092 1006.89 426.074L1007 426.024C1007 426.024 1007.49 424.024 1008.32 420.27H1008.28C1021.41 358.278 1025.82 292.007 1014.73 229.17C1015.01 224.831 1015.03 219.397 1014.96 214.747C1049.66 201.754 1028.04 145.671 997.061 134.933Z" fill="#245084"/>
<path d="M1219.58 177.162C1204.68 148.136 1172.34 132.518 1150.44 129.863L1150.31 129.763C1150.89 126.514 1148.58 124.874 1146.94 124.029V121.264C1154.17 118.735 1159.8 112.096 1158.6 101.357C1164.26 99.8222 1163.1 87.7488 1156.1 90.5534C1163.73 63.657 1146.82 68.7964 1140.1 66.2517C1134.88 64.252 1128.85 60.2975 1123.05 65.4018C1118.52 69.4013 1119.73 75.5254 1123.18 79.075C1122.6 81.7846 1123.04 86.539 1123.75 90.5734C1116.99 87.6188 1115.03 99.6022 1121.42 101.412C1119.66 111.031 1125.68 119.55 1133.65 121.539V124.039C1129.4 126.039 1129.86 129.803 1129.86 129.803C1078.63 133.383 1018.03 208.108 1079.08 239.788C1080.6 240.625 1082.17 241.376 1083.78 242.038C1087.62 246.658 1090.5 249.037 1094.78 251.617C1092.31 298.916 1090.84 398.597 1092.09 423.379C1092.09 423.379 1094.17 423.879 1097.27 424.379C1097.38 426.927 1097.27 429.48 1096.93 432.008C1093.07 435.562 1090.68 443.811 1096.97 444.711H1113.68C1114.61 444.712 1115.52 444.358 1116.2 443.719C1116.89 443.081 1117.31 442.206 1117.38 441.271C1118.24 433.272 1111.42 434.537 1113.44 424.774C1115.4 424.495 1117.3 423.918 1119.09 423.064C1119.09 423.064 1119.47 420.744 1120.13 416.595C1125.55 382.449 1137.45 305.85 1141.75 252.532C1145.32 304.245 1150.46 373.69 1153.48 423.059C1155.27 423.655 1157.09 424.147 1158.93 424.534C1159.06 426.593 1159.14 428.588 1159.16 430.463C1157.48 431.203 1155.8 440.616 1158.33 444.696H1199.33C1205.54 442.916 1201.22 436.827 1195.44 433.772C1196.07 432.663 1194.79 431.903 1193.71 432.862C1192.4 432.232 1191.06 431.684 1189.68 431.223C1190.08 430.043 1189.26 429.993 1188.03 430.723C1186.18 430.185 1184.28 429.784 1182.37 429.523C1182.5 428.553 1181.77 428.608 1180.72 429.328C1179.59 429.218 1178.44 429.158 1177.27 429.143C1176.3 427.814 1175.75 426.227 1175.69 424.584C1177.12 424.143 1178.47 423.48 1179.69 422.619C1179.69 422.619 1179.91 420.504 1180.28 416.62H1180.24C1184.65 366.571 1187.74 313.634 1184.89 251.862C1187.44 250.297 1191.31 248.117 1196.28 242.048C1197.89 241.378 1199.46 240.627 1200.99 239.798C1224.23 228.055 1234.82 202.898 1219.58 177.162ZM1090.4 232.699C1086.61 225.895 1081.46 214.777 1083.1 203.948C1083.67 194.19 1100.19 182.046 1100.15 182.686C1093.27 213.182 1095.21 222.581 1095.77 232.679C1094.47 232.599 1092.2 232.394 1090.4 232.699ZM1191.64 228.885C1190.48 231.255 1189.61 232.699 1189.61 232.699C1187.73 232.374 1185.29 232.619 1184.04 232.699C1185.13 224.2 1184.78 203.818 1179.86 182.706C1180.12 182.306 1196.26 194.165 1196.91 203.963C1198.47 213.017 1194.31 223.416 1191.64 228.885Z" fill="#245084"/>
<path d="M1350.09 265.986C1349.9 258.097 1349.72 251.213 1349.48 243.909C1349.82 243.494 1350.17 243.079 1350.5 242.654C1383.94 209.339 1374.56 120.211 1310.56 113.756C1310.17 112.002 1310.16 108.302 1310.24 105.857C1310.76 105.597 1311.26 105.306 1311.74 104.988C1312.21 104.678 1312.66 104.344 1313.09 103.988C1316.17 101.488 1318.34 97.4886 1319.64 93.6341C1324.22 95.1339 1327.7 87.6349 1324.92 84.0754C1326.19 81.0758 1327.38 76.9513 1326.19 73.6617C1331.78 62.0833 1322.81 58.1639 1318.55 56.974C1313.92 53.7094 1308.82 44.6106 1309.34 44.5457C1309.34 44.5457 1306 48.7501 1304.74 53.6844C1302.63 51.141 1300.75 48.4157 1299.12 45.5405C1297.68 47.7047 1296.67 50.1274 1296.15 52.6746C1293.84 50.5746 1291.02 49.1134 1287.98 48.4351C1285.72 54.7343 1286.75 58.7237 1289.03 61.2584C1285.12 63.993 1280.53 68.7274 1280.53 68.7274C1253.23 66.4627 1190.27 96.0288 1232.49 130.869C1242.71 138.903 1256.49 144.082 1266.95 143.727C1257.8 168.109 1256.29 201.59 1254.63 226.216C1248.26 291.737 1254.48 381.031 1259.26 421.965C1261.3 422.524 1263.38 422.933 1265.48 423.19C1266.08 427.689 1266.36 429.984 1264.48 432.924C1246.93 432.579 1233.86 445.422 1242.83 448.197H1282.98C1285.05 443.802 1285.01 436.993 1282.6 433.473C1282.71 430.444 1282.93 427.014 1283.23 423.23C1285.63 422.931 1288.02 422.509 1290.37 421.965C1291.5 388.889 1293.87 324.348 1300.05 269.166L1316.87 413.256L1317.93 422.38C1320.53 423.264 1323.21 423.905 1325.93 424.295C1327.06 431.699 1327.48 430.439 1326.77 435.513C1323.9 437.963 1323.14 441.642 1323.01 444.452C1322.99 444.945 1323.07 445.439 1323.24 445.901C1323.41 446.364 1323.68 446.786 1324.02 447.142C1324.37 447.497 1324.78 447.779 1325.23 447.97C1325.69 448.161 1326.18 448.257 1326.67 448.251H1343.03C1349.28 447.617 1346.47 438.513 1342.82 435.383C1341.83 430.464 1342.82 431.424 1342.92 423.955C1345.04 423.49 1347.13 422.843 1349.14 422.02C1350.6 385.175 1351.67 310.795 1350.09 265.986ZM1266.07 88.0098C1270.92 84.4718 1276.07 81.3812 1281.48 78.7761C1281.51 78.6106 1281.52 78.4437 1281.53 78.2761C1283.8 76.5664 1286.92 76.7764 1288.81 73.8168C1287.7 76.3964 1286.44 78.956 1284.35 80.8608C1274.96 90.8594 1283.91 104.028 1295.51 107.312C1295.49 109.284 1295.6 111.254 1295.84 113.211C1290.71 110.212 1276.28 109.982 1268.96 110.212C1255.13 110.952 1248.48 101.253 1266.07 87.9998V88.0098Z" fill="#245084"/>
</g>
<defs>
<clipPath id="clip0_1_130673">
<rect width="1369.44" height="448.225" fill="white"/>
</clipPath>
</defs>
</svg>
