<svg width="186" height="574" viewBox="0 0 186 574" fill="none" xmlns="http://www.w3.org/2000/svg">
<g opacity="0.6">
<path d="M70.4685 568.605L69.7601 568.94C69.7601 569.588 68.1127 572.641 67.4593 572.641L36.2134 573.86C36.017 569.594 37.0093 565.356 39.0798 561.62C45.7793 552.773 37.6521 512.049 37.9102 501.676H68.5081C68.8321 512.006 61.1826 552.845 67.5911 561.598C69.3867 564.778 70.4795 564.514 70.4685 568.605Z" fill="#F99370"/>
<path d="M173.662 573.86H114.833C113.828 570.741 116.722 556.535 116.157 551.307C116.371 548.067 111.698 506.025 111.352 501.676H145.085L139.643 545.058C139.329 547.541 139.886 550.056 141.221 552.173C142.555 554.29 144.583 555.879 146.958 556.667C157.836 560.851 170.412 558.765 177.276 567.485C177.66 568.124 177.868 568.853 177.878 569.599C177.888 570.345 177.699 571.079 177.331 571.728C176.964 572.377 176.43 572.916 175.785 573.291C175.141 573.665 174.408 573.862 173.662 573.86Z" fill="#F99370"/>
<path d="M20.3489 356.83C20.5026 418.152 27.8556 483.187 41.4522 541.966C55.8561 549.358 65.3177 541.966 65.3177 541.966C76.3389 463.269 85.4161 377.5 93.7026 299.341C93.9442 380.613 105.114 464.664 115.767 544.712C132.098 548.034 139.649 545.091 139.649 545.091C163.871 449.283 167.056 343.294 152.411 246.679C103.999 257.634 29.8545 246.679 29.8545 246.679C23.0452 282.938 20.3489 320.038 20.3489 356.83Z" fill="#1D3F70"/>
<path d="M113.016 567.853C113.12 570.681 114.466 573.932 117.766 573.861H173.833C174.541 573.863 175.239 573.694 175.868 573.369C176.497 573.043 177.038 572.57 177.444 571.99C177.851 571.41 178.112 570.741 178.204 570.039C178.296 569.337 178.217 568.622 177.973 567.957C176.287 561.917 165.31 551.686 140.143 551.483C138.111 551.972 127.326 553.317 116.195 551.796C116.195 551.774 112.675 558.271 113.016 567.853Z" fill="#EB5648"/>
<path d="M36.2133 573.86H65.1254C65.8887 573.863 66.6445 573.709 67.3466 573.41C68.0488 573.111 68.6826 572.671 69.2094 572.119C69.7361 571.567 70.1448 570.913 70.4103 570.197C70.6759 569.481 70.7929 568.719 70.7541 567.957C69.3153 542.318 30.5682 546.958 36.2133 573.86Z" fill="#EB5648"/>
<path d="M94.1529 288.606C93.7363 288.602 93.3379 288.435 93.0433 288.14C92.7486 287.845 92.5812 287.447 92.5769 287.03V265.065C92.5769 264.647 92.7429 264.246 93.0385 263.951C93.3341 263.655 93.7349 263.489 94.1529 263.489C94.5709 263.489 94.9718 263.655 95.2674 263.951C95.5629 264.246 95.7289 264.647 95.7289 265.065V284.664C101.478 278.837 98.244 260.331 97.0633 253.517C97.0216 253.314 97.0202 253.106 97.0592 252.903C97.0982 252.7 97.1768 252.507 97.2906 252.335C97.4043 252.162 97.551 252.014 97.7221 251.898C97.8933 251.783 98.0856 251.702 98.2879 251.661C101.528 249.365 107.008 287.64 94.1529 288.606Z" fill="#103663"/>
<path d="M45.9333 539.339C24.6817 441.851 25.9722 363.923 26.4884 323.094C29.4537 274.984 32.139 254.82 36.3015 253.651C24.0832 327.043 28.8551 412.428 45.9333 539.339Z" fill="#103663"/>
<path d="M39.448 533.305C40.6836 538.917 41.4469 541.954 41.4469 541.954C55.8507 549.345 65.3123 541.954 65.3123 541.954C65.6803 539.445 66.0427 536.864 66.4106 534.211C66.4161 534.2 54.9446 538.209 39.448 533.305Z" fill="#103663"/>
<path d="M122.214 535.58C109.397 485.724 105.63 334.415 93.6587 300.55C93.6587 300.292 93.6587 303.405 93.6257 304.762C94.4879 380.861 104.389 459.217 114.323 534.383H114.29C115.201 540.973 115.734 544.702 115.734 544.702C132.065 548.024 139.616 545.08 139.616 545.08C140.597 541.255 141.534 537.438 142.428 533.631C142.428 533.631 134.569 536.673 122.214 535.58Z" fill="#103663"/>
<path d="M177.951 567.852H113.016C113.195 569.96 113.816 572.007 114.839 573.859H173.833C174.552 573.865 175.261 573.694 175.899 573.361C176.536 573.028 177.082 572.544 177.489 571.95C177.896 571.357 178.151 570.673 178.231 569.959C178.312 569.244 178.216 568.521 177.951 567.852Z" fill="#CE3932"/>
<path d="M36.2137 573.859H65.1257C65.8977 573.861 66.6617 573.704 67.3702 573.398C68.0788 573.091 68.7167 572.642 69.2442 572.079C69.7717 571.515 70.1776 570.849 70.4365 570.122C70.6953 569.395 70.8017 568.622 70.7489 567.852H35.9281C35.8104 569.859 35.9062 571.873 36.2137 573.859Z" fill="#CE3932"/>
<path d="M63.4125 559.187C62.792 559.291 52.8855 552.839 43.9456 558.973C43.6849 559.155 43.3626 559.226 43.0495 559.17C42.7364 559.115 42.4583 558.937 42.2763 558.676C42.0942 558.416 42.0232 558.093 42.0788 557.78C42.1344 557.467 42.3121 557.189 42.5728 557.007C51.8642 549.94 69.0687 557.106 63.4125 559.187Z" fill="#E8C0A6"/>
<path d="M159.907 565.623C159.712 565.62 159.521 565.57 159.35 565.477C159.179 565.384 159.033 565.25 158.925 565.088C158.817 564.926 158.75 564.74 158.729 564.546C158.709 564.353 158.736 564.157 158.808 563.976C159.592 561.927 160.961 560.153 162.745 558.875C164.528 557.597 166.648 556.871 168.841 556.788C170.395 556.788 170.401 559.204 168.841 559.188C167.127 559.275 165.476 559.858 164.089 560.867C162.701 561.877 161.637 563.268 161.027 564.871C160.937 565.095 160.783 565.286 160.583 565.42C160.383 565.554 160.147 565.625 159.907 565.623Z" fill="#E8C0A6"/>
<path d="M149.616 563.783C149.422 563.778 149.231 563.727 149.061 563.633C148.891 563.54 148.745 563.407 148.638 563.245C148.53 563.083 148.463 562.898 148.442 562.705C148.421 562.511 148.447 562.316 148.518 562.135C149.431 559.954 150.8 557.993 152.532 556.383C154.264 554.773 156.319 553.552 158.561 552.8C160.049 552.355 160.725 554.7 159.226 555.106C159.182 555.106 153.185 556.979 150.714 563.085C150.616 563.294 150.461 563.47 150.266 563.593C150.072 563.717 149.846 563.782 149.616 563.783Z" fill="#E8C0A6"/>
<path d="M138.683 562.404C138.5 562.402 138.32 562.36 138.156 562.279C137.992 562.198 137.849 562.081 137.737 561.937C137.625 561.792 137.547 561.624 137.509 561.446C137.471 561.267 137.474 561.082 137.519 560.904C139.078 552.936 152.927 547.725 148.71 553.096C148.644 553.096 141.286 555.649 139.825 561.563C139.749 561.807 139.597 562.02 139.392 562.171C139.186 562.322 138.938 562.403 138.683 562.404Z" fill="#E8C0A6"/>
<path d="M128.529 48.9418C126.173 59.8257 112.884 57.0196 115.135 46.1083C117.491 35.2244 130.78 38.036 128.529 48.9418Z" fill="#F99370"/>
<path d="M125.41 51.1089C125.327 51.106 125.246 51.0844 125.173 51.0458C125.1 51.0073 125.036 50.9527 124.987 50.8862C124.938 50.8197 124.905 50.7429 124.889 50.6617C124.874 50.5804 124.877 50.4968 124.899 50.417C126.777 45.0739 124.828 42.3392 120.605 43.9591C120.481 43.9786 120.354 43.9552 120.246 43.8928C120.137 43.8304 120.053 43.7329 120.008 43.6162C119.962 43.4996 119.958 43.3709 119.996 43.2515C120.033 43.1321 120.111 43.0291 120.215 42.9597C124.679 41.1365 128.342 43.9646 125.92 50.73C125.885 50.8383 125.817 50.933 125.725 51.0009C125.634 51.0687 125.524 51.1065 125.41 51.1089Z" fill="#C16256"/>
<path d="M120.407 50.3621C118.76 50.1314 121.868 45.1563 125.981 44.8213C126.06 44.7986 126.143 44.7938 126.223 44.8073C126.304 44.8208 126.381 44.8523 126.448 44.8994C126.516 44.9465 126.571 45.008 126.612 45.0795C126.652 45.151 126.675 45.2306 126.681 45.3124C126.686 45.3942 126.673 45.4763 126.643 45.5525C126.613 45.6286 126.566 45.697 126.505 45.7526C126.445 45.8082 126.373 45.8496 126.295 45.8737C126.216 45.8979 126.133 45.9042 126.052 45.8921C121.895 46.3204 121.39 50.2248 120.407 50.3621Z" fill="#C16256"/>
<path d="M59.3376 48.9418C61.6934 59.8257 74.9826 57.0196 72.7311 46.1083C70.3533 35.2244 57.0642 38.036 59.3376 48.9418Z" fill="#F99370"/>
<path d="M62.4346 51.1091C62.3197 51.1078 62.2081 51.0706 62.1155 51.0026C62.0229 50.9346 61.954 50.8394 61.9184 50.7302C59.4967 43.9593 63.1759 41.1312 67.6294 42.9599C67.7336 43.0293 67.8109 43.1322 67.8486 43.2517C67.8863 43.3711 67.882 43.4998 67.8365 43.6164C67.791 43.7331 67.707 43.8306 67.5984 43.893C67.4899 43.9554 67.3632 43.9788 67.2395 43.9593C63.3956 42.3888 60.9244 44.7665 62.9452 50.4172C62.9668 50.497 62.9701 50.5806 62.9548 50.6619C62.9395 50.7431 62.9061 50.8199 62.857 50.8864C62.8079 50.9529 62.7443 51.0075 62.6712 51.046C62.5981 51.0846 62.5172 51.1061 62.4346 51.1091Z" fill="#C16256"/>
<path d="M67.4374 50.3635C66.4654 50.2372 65.9272 46.3109 61.7922 45.8936C61.6718 45.8588 61.5668 45.7839 61.4948 45.6813C61.4228 45.5787 61.3881 45.4545 61.3965 45.3294C61.4048 45.2043 61.4557 45.0858 61.5407 44.9937C61.6257 44.9015 61.7396 44.8412 61.8636 44.8228C65.9273 45.0973 69.0958 50.2262 67.4374 50.3635Z" fill="#C16256"/>
<path d="M103.406 77.2649H83.2471V101.07H103.406V77.2649Z" fill="#F99370"/>
<path d="M83.2471 77.2649V87.9511C94.6087 91.9158 103.406 87.9511 103.406 87.9511V77.2649H83.2471Z" fill="#E57D61"/>
<path d="M159.725 260.274C159.725 260.274 92.9832 279.044 23.5393 262.196C23.8029 260.818 27.6743 231.846 29.4754 224.306C33.9399 176.646 59.8482 182.291 56.3832 103.962C61.1716 100.959 80.5452 94.6711 83.225 94.6271C91.2149 102.315 97.9089 98.4711 103.444 94.045C112.711 96.4458 121.712 99.7778 130.308 103.99C130.182 123.797 133.455 155.027 141.692 174.389C147.875 189.37 151.686 206.239 153.86 222.774C154.629 231.401 159.456 258.967 159.725 260.274Z" fill="#3A72AA"/>
<path d="M111.22 189.518C111.22 189.518 126.14 182.313 135.657 189.518C135.657 189.518 129.792 201.599 119.468 201.736L111.22 189.518Z" fill="#F99370"/>
<path d="M119.441 203.797C119.441 203.797 111.27 215.516 88.9527 222.83C77.97 226.537 52.4955 231.309 36.5595 229.255C33.9597 228.656 31.4054 227.874 28.9155 226.916C29.2505 225.268 29.4647 224.296 29.4647 224.296C28.4158 202.831 49.898 192.611 54.7854 194.758C66.8664 200.068 111.226 192.348 111.226 192.348C120.385 194.758 119.441 203.797 119.441 203.797Z" fill="#23659B"/>
<path d="M154.338 227.163C138.622 232.199 116.909 231.738 88.936 222.831L119.43 203.803C132.098 200.459 152.306 209.206 154.338 227.163Z" fill="#23659B"/>
<path d="M119.441 200.975C103.675 220.381 65.6858 228.58 36.5596 226.433C-28.7877 211.99 -0.0569113 117.747 71.6659 97.5831C67.9702 111.861 56.4274 150.954 49.4149 168.202C46.7186 175.242 49.931 189.745 54.7799 191.93C65.6254 196.411 97.4589 191.744 111.215 189.509C120.391 191.93 119.441 200.975 119.441 200.975Z" fill="#3A72AA"/>
<path d="M153.822 222.742C137.952 228.535 116.245 228.7 88.9414 219.996L119.435 200.968C132.065 197.635 145.563 186.142 136.123 158.191C132.741 147.922 117.293 104.238 114.987 97.7306C189.637 119.262 209.422 203.428 153.822 222.742Z" fill="#3A72AA"/>
<path d="M66.6192 61.2521C67.6132 93.8544 118.331 94.7495 120.984 62.4822C121.533 50.6373 117.727 46.8538 116.179 32.0985C113.356 5.31705 75.2956 3.88927 71.8744 31.9008C70.5565 42.9439 66.5204 51.1315 66.6192 61.2521Z" fill="#F99370"/>
<path d="M136.266 189.617C136.048 189.616 135.833 189.554 135.648 189.439C135.462 189.323 135.312 189.158 135.215 188.962C135.117 188.766 135.076 188.547 135.096 188.329C135.116 188.111 135.196 187.903 135.327 187.728C144.844 175.175 130.797 146.142 130.654 145.851C130.517 145.571 130.496 145.247 130.597 144.952C130.698 144.656 130.912 144.413 131.192 144.275C131.473 144.137 131.796 144.117 132.092 144.218C132.387 144.319 132.631 144.533 132.768 144.813C133.378 146.054 147.595 175.455 137.205 189.151C137.096 189.296 136.954 189.414 136.791 189.495C136.628 189.576 136.448 189.618 136.266 189.617Z" fill="#23659B"/>
<path d="M100.188 64.3701L86.5032 60.96C87.1127 68.6424 95.9538 71.5912 100.188 64.3701Z" fill="#F9F8F3"/>
<path d="M86.6076 44.8467C87.4862 43.1993 84.8503 41.843 84.0266 43.5343C83.2029 45.2256 85.7839 46.5326 86.6076 44.8467Z" fill="#07041B"/>
<path d="M103.988 44.8823C104.867 43.2348 102.231 41.8785 101.402 43.5698C100.573 45.2612 103.165 46.5681 103.988 44.8823Z" fill="#07041B"/>
<path d="M100.188 64.9209C99.8693 64.5859 85.1853 61.8841 85.9706 60.8298C85.5642 59.4899 100.089 64.0697 100.32 63.8391C100.449 63.8716 100.563 63.9505 100.639 64.0608C100.714 64.1711 100.747 64.3053 100.731 64.4382C100.715 64.571 100.651 64.6934 100.551 64.7823C100.451 64.8712 100.322 64.9205 100.188 64.9209Z" fill="#C16256"/>
<path d="M95.2127 57.4558C94.5263 57.3844 93.093 57.5162 93.2468 56.5333C93.292 56.395 93.3903 56.2803 93.52 56.2144C93.6498 56.1485 93.8004 56.1368 93.9387 56.1818C95.7838 56.8353 100.259 55.5503 98.1121 54.2378C95.004 52.5575 92.9173 46.6707 92.8294 46.4181C92.7953 46.285 92.8124 46.144 92.8772 46.0228C92.942 45.9016 93.0498 45.8092 93.1795 45.7637C93.3091 45.7181 93.4512 45.7229 93.5775 45.777C93.7038 45.831 93.8053 45.9305 93.8618 46.0557C93.8618 46.1161 95.8992 51.7942 98.6339 53.2769C101.995 55.6381 97.865 57.4174 95.2127 57.4558Z" fill="#C16256"/>
<path d="M112.933 42.9937C112.869 42.6322 112.772 42.2774 112.642 41.9338C111.681 39.276 108.963 37.085 104.493 37.063C104.136 37.063 103.79 37.063 103.455 37.1069C98.8975 37.4968 96.4155 40.2864 96.0091 43.2957C95.9432 43.7281 95.9266 44.1665 95.9596 44.6026C96.1683 48.0128 99.0128 51.2911 104.493 51.3241C107.503 51.3241 109.716 50.3082 111.138 48.8475C111.885 48.0875 112.438 47.1588 112.751 46.1399C113.063 45.121 113.126 44.0419 112.933 42.9937ZM110.517 47.9029C109.293 49.2593 107.283 50.2093 104.477 50.2258C94.6307 50.1709 94.5099 38.4907 104.131 38.1448H104.477C111.67 38.1942 113.702 44.4049 110.517 47.9029Z" fill="#81453E" stroke="#81453E"/>
<path d="M92.094 43.2715C91.6492 40.0536 88.7991 37.0828 83.6153 37.0553C79.0355 37.0553 76.2953 39.3781 75.3782 42.1238C75.2662 42.462 75.1835 42.8093 75.1311 43.1617C74.5271 47.0057 77.3277 51.278 83.5988 51.3164C89.0353 51.2835 91.8798 48.049 92.1214 44.6663C92.1645 44.2018 92.1553 43.734 92.094 43.2715ZM83.6153 50.2181C73.6484 50.1632 73.6484 38.203 83.6153 38.1371C93.5766 38.2085 93.5766 50.1687 83.6153 50.2236V50.2181Z" fill="#81453E" stroke="#81453E"/>
<path d="M96.3278 44.7396C95.7787 44.7396 94.296 42.9274 92.2532 44.5968C92.1998 44.6455 92.1375 44.6832 92.0695 44.7077C92.0016 44.7323 91.9295 44.7432 91.8573 44.7399C91.7116 44.7332 91.5745 44.6689 91.4762 44.5611C91.3779 44.4533 91.3264 44.3109 91.3331 44.1652C91.3398 44.0195 91.4041 43.8824 91.5119 43.7841C93.0495 41.7248 98.4969 43.5425 96.3278 44.7396Z" fill="#81453E" stroke="#81453E"/>
<path d="M112.192 25.7377C100.292 17.4403 95.3172 36.1713 75.6416 31.0149V24.601L96.3276 17.6325L110.567 15.8093L113.779 22.8877L112.192 25.7377Z" fill="#E57D61"/>
<path d="M117.546 40.7079C117.546 40.7079 112.867 31.5428 112.197 25.7384C111.527 19.9341 103.73 18.9236 97.3268 23.465C90.9239 28.0064 82.9394 30.0547 74.5431 26.9795C66.1468 23.9043 60.7104 11.1534 69.2549 3.64117C77.7117 -3.79414 86.5033 1.99377 94.1143 4.88223C103.922 8.59989 128.677 1.47208 117.546 40.7079Z" fill="#163260"/>
<path d="M70.0128 40.7097C70.0128 40.7097 77.2888 32.1432 77.7007 21.8194L70.3478 18.9254C70.3478 18.9254 66.9431 29.7599 70.0128 40.7097Z" fill="#163260"/>
<path d="M88.9526 222.838C87.6402 222.876 87.6512 220.383 88.9526 220.01C105.855 214.579 118.458 200.977 119.446 200.977C122.318 200.966 105.652 218.016 88.9526 222.838Z" fill="#23659B"/>
<path d="M112.417 43.1458C112.29 43.1436 112.168 43.0975 112.071 43.0152C111.974 42.933 111.909 42.8197 111.886 42.6948C111.864 42.5698 111.885 42.4408 111.947 42.3298C112.009 42.2188 112.107 42.1326 112.225 42.086L117.349 40.1915C117.481 40.1545 117.623 40.1689 117.746 40.2317C117.869 40.2945 117.963 40.4011 118.011 40.5304C118.059 40.6597 118.056 40.8023 118.003 40.9297C117.951 41.0571 117.852 41.1602 117.728 41.2183C117.431 41.2842 112.752 43.1348 112.417 43.1458Z" fill="#81453E" stroke="#81453E"/>
<path d="M75.6411 43.321C75.3721 43.321 70.3146 41.2672 70.0674 41.2178C69.9392 41.1619 69.8371 41.0592 69.782 40.9306C69.7268 40.802 69.7229 40.6573 69.7709 40.5259C69.9247 39.4002 75.383 42.3271 75.8498 42.2721C75.9626 42.3234 76.0548 42.4112 76.1114 42.5214C76.1679 42.6317 76.1856 42.7578 76.1614 42.8793C76.1373 43.0008 76.0727 43.1106 75.9782 43.1908C75.8838 43.271 75.765 43.3169 75.6411 43.321Z" fill="#81453E" stroke="#81453E"/>
<path d="M124.136 123.597C123.968 126.238 123.601 128.863 123.038 131.449L111.209 143.448L117.601 156.473C117.601 156.473 105.405 178.027 95.1415 186.319C95.1415 186.319 76.9595 171.421 72.7092 156.435L78.0798 144.689L66.5479 134.42C66.5479 134.42 65.4496 129.983 64.2031 123.706C62.9565 117.43 61.4574 109.226 60.6941 101.823C60.6941 101.768 60.6941 101.708 60.6941 101.659C64.2049 100.154 67.8549 98.7957 71.6439 97.5839L71.578 97.8365C78.0578 95.7113 83.7359 94.1902 83.1648 94.5966C91.1548 102.285 97.8487 98.4406 103.384 94.0145C109.159 95.4936 114.829 97.3538 120.358 99.5828C121.275 99.9122 122.192 100.258 123.104 100.61C123.106 100.644 123.106 100.679 123.104 100.714C123.488 108.424 124.597 115.793 124.136 123.597Z" fill="#23659B"/>
<path d="M114.987 97.7292C112.725 121.342 106.042 144.021 100.825 158.947C97.0357 169.781 94.0209 176.519 94.0209 176.519C91.8683 171.336 89.853 165.872 87.9804 160.336C77.7061 130.018 71.6765 97.5754 71.6765 97.5754C92.6151 101.101 114.987 97.7292 114.987 97.7292Z" fill="#F4D4BE"/>
<path d="M88.9414 107.202C88.9414 107.202 89.4905 111.073 93.3345 111.793C97.1785 112.512 99.0949 107.202 99.0949 107.202C99.0949 107.202 93.329 89.1626 88.9414 107.202Z" fill="#1D3F70"/>
<path d="M103.406 94.0118C103.406 94.0118 111.407 93.2046 114.987 97.7295C111.835 101.222 104.718 108.904 99.7267 109.388L93.8399 102.408L88.9417 109.871C83.95 110.667 76.0259 105 71.6658 97.5812C76.8441 93.4847 80.2982 92.9795 83.1977 94.5939C89.8587 98.3171 95.8718 99.1847 103.406 94.0118Z" fill="#EABFAC"/>
<path d="M100.825 158.948C97.036 169.782 94.3397 177.377 94.3397 177.377C92.1871 172.193 89.8533 165.845 87.9752 160.353C85.927 139.047 90.1718 109.953 90.1718 109.953H97.4863C99.5291 125.824 100.825 158.948 100.825 158.948Z" fill="#1D3F70"/>
<path d="M48.6403 179.212C48.3483 179.211 48.0669 179.102 47.8501 178.906C47.6333 178.711 47.4962 178.442 47.4651 178.152C46.0813 164.55 56.0537 145.577 56.4765 144.781C56.5405 144.63 56.6349 144.495 56.7539 144.383C56.8728 144.272 57.0137 144.186 57.1676 144.131C57.3214 144.076 57.4849 144.054 57.6478 144.066C57.8106 144.078 57.9692 144.123 58.1136 144.199C58.258 144.276 58.385 144.381 58.4866 144.509C58.5883 144.637 58.6622 144.784 58.704 144.942C58.7457 145.1 58.7543 145.264 58.7291 145.426C58.7039 145.587 58.6455 145.741 58.5577 145.879C58.4588 146.066 48.503 165.022 49.81 177.91C49.8407 178.22 49.7477 178.53 49.5513 178.771C49.3548 179.013 49.0708 179.167 48.7611 179.201L48.6403 179.212Z" fill="#23659B"/>
<path d="M35.4941 186.014C38.086 181.325 45.126 175.581 55.0049 179.101C69.5845 184.982 72.8464 193.735 72.8464 193.735C67.7339 193.807 61.3639 195.174 57.0697 194.081C54.8731 194.839 53.1269 196.772 51.9792 201.357C50.8809 206.179 46.5483 203.724 47.2731 199.424C45.5653 203.96 41.2326 201.434 42.8415 196.678C36.6637 200.127 39.9531 188.903 42.0618 186.173C41.1306 186.911 40.3224 187.791 39.6676 188.782C36.4387 193.57 32.979 190.528 35.4941 186.014Z" fill="#F99370"/>
<path d="M47.2567 199.973C45.7795 199.94 48.2232 192.055 52.1989 189.161C53.3796 188.348 56.8611 187.129 57.5146 188.842C57.0643 189.776 54.2582 188.595 52.8195 190.072C48.4428 193.065 48.4373 199.776 47.2567 199.973Z" fill="#E57D61"/>
<path d="M42.8635 197.207C40.667 197.932 47.1468 180.184 52.6931 184.297C52.6752 184.441 52.6011 184.572 52.4869 184.662C52.3727 184.751 52.2277 184.792 52.0835 184.775C45.6092 184.209 43.9124 197.388 42.8635 197.207Z" fill="#E57D61"/>
<path d="M42.0562 186.701C40.266 186.597 44.2912 179.442 50.2932 180.364C50.4389 180.386 50.5698 180.465 50.6574 180.583C50.7449 180.702 50.7818 180.85 50.76 180.996C50.7382 181.141 50.6594 181.272 50.5409 181.36C50.4225 181.447 50.2741 181.484 50.1285 181.462C44.1868 180.738 43.0666 186.635 42.0562 186.701Z" fill="#E57D61"/>
<path d="M73.2363 196.311C72.9403 196.301 72.6589 196.18 72.448 195.972C72.237 195.764 72.1119 195.485 72.0974 195.189C72.0829 194.893 72.18 194.603 72.3696 194.375C72.5592 194.148 72.8274 194 73.121 193.961C73.3736 193.961 98.3813 191.413 109.468 189.848C109.777 189.804 110.091 189.885 110.34 190.072C110.589 190.26 110.754 190.539 110.797 190.847C110.841 191.156 110.76 191.47 110.573 191.719C110.385 191.968 110.107 192.133 109.798 192.176C98.6614 193.752 73.6097 196.284 73.3571 196.306L73.2363 196.311Z" fill="#23659B"/>
<path d="M119.44 200.973C118.122 202.697 116.629 204.282 114.987 205.701C113.718 193.071 103.861 190.677 103.861 190.677H103.894C108.364 190.018 111.214 189.524 111.214 189.524C120.39 191.929 119.44 200.973 119.44 200.973Z" fill="#23659B"/>
<path d="M95.7948 239.276C97.2263 239.276 98.3867 238.116 98.3867 236.684C98.3867 235.253 97.2263 234.092 95.7948 234.092C94.3633 234.092 93.2029 235.253 93.2029 236.684C93.2029 238.116 94.3633 239.276 95.7948 239.276Z" fill="#23659B"/>
<path d="M98.3924 251.561C98.3924 252.075 98.24 252.577 97.9546 253.004C97.6692 253.431 97.2635 253.764 96.7889 253.961C96.3143 254.157 95.792 254.209 95.2882 254.109C94.7843 254.008 94.3216 253.761 93.9583 253.398C93.5951 253.034 93.3476 252.572 93.2474 252.068C93.1472 251.564 93.1986 251.042 93.3952 250.567C93.5918 250.092 93.9248 249.687 94.3519 249.401C94.7791 249.116 95.2812 248.964 95.795 248.964C96.1363 248.963 96.4743 249.03 96.7898 249.16C97.1053 249.29 97.3919 249.481 97.6332 249.723C97.8745 249.964 98.0659 250.251 98.1962 250.566C98.3264 250.882 98.3931 251.22 98.3924 251.561Z" fill="#23659B"/>
</g>
</svg>
