<svg width="653" height="1024" viewBox="0 0 653 1024" fill="none" xmlns="http://www.w3.org/2000/svg">
<g opacity="0.6">
<path opacity="0.33" d="M193.185 266L63 314.264L146.89 984.609H147.09C149.485 1012.04 259.717 1035 396.796 1035C535.389 1035 653 1013.37 653 985.544C653 985.473 653 985.408 653 985.336L193.185 266Z" fill="white"/>
<path d="M101.594 184.983C101.594 176.978 113.429 164.325 113.429 164.325C114.936 145.937 123.758 113.568 122.768 108.855L193.818 95.5783C177.06 143.694 127.556 168.79 123.344 186.845C119.315 204.285 102.541 206.088 101.594 184.983Z" fill="#F99370"/>
<path d="M91.2103 268.738L147.631 249.41L63.7877 4.66453L7.36736 23.9925L91.2103 268.738Z" fill="#103663"/>
<path d="M54.7961 313.224L203.673 262.224L133.549 208.309L77.1326 227.638L54.7961 313.224Z" fill="#18436D"/>
<path d="M64.3667 318.016L199.052 271.875C199.984 271.557 200.845 271.058 201.584 270.407C202.323 269.756 202.927 268.966 203.36 268.082C203.793 267.197 204.048 266.236 204.109 265.253C204.17 264.27 204.037 263.284 203.716 262.353L203.63 262.095C203.311 261.163 202.812 260.303 202.16 259.564C201.508 258.825 200.718 258.222 199.833 257.789C198.948 257.356 197.987 257.101 197.004 257.04C196.02 256.978 195.035 257.111 194.103 257.431L59.4389 303.572C57.558 304.217 56.0101 305.582 55.1354 307.367C54.2608 309.153 54.131 311.213 54.7747 313.094L54.8662 313.352C55.5086 315.23 56.87 316.776 58.6513 317.65C60.4327 318.525 62.4883 318.656 64.3667 318.016Z" fill="#103663"/>
<path d="M196.33 77.3241C196.33 77.3241 166.71 130.734 149.952 148.174C149.952 148.174 103.558 175.53 88.7903 141.03C74.0231 106.53 58.6265 58.1187 58.6265 58.1187C58.6265 58.1187 117.857 28.2507 152.034 26.4916L196.33 77.3241Z" fill="#F99370"/>
<path d="M317.394 -14.668C262.85 35.2877 213.696 69.6692 168.442 123.59C155.805 136.603 144.459 146.862 131.93 155.868C111.444 170.42 92.54 179.189 67.3255 189.62C49.2767 154.292 34.2727 112.997 16.041 77.6688C23.2982 73.4942 31.1041 69.1958 38.13 65.5538C96.8007 31.6295 123.01 49.3502 172.057 -14.668H317.394Z" fill="#F99370"/>
<path d="M55.7001 114.224C55.5118 114.315 55.3343 114.412 55.1621 114.509C55.324 114.384 55.5059 114.288 55.7001 114.224Z" fill="#FFBD54"/>
<path d="M52.0041 97.736C44.3004 102.545 23.7124 107.344 18.365 110.523C15.9764 111.868 12.9853 111.696 10.1287 110.486C-19.9061 94.3468 25.3263 69.7617 36.6505 66.0874C58.0132 57.1463 67.5729 86.557 52.0041 97.736Z" fill="#F99370"/>
<path d="M49.5509 96.0733L42.7887 101.835C34.036 104.966 22.3459 108.291 18.3649 110.523C15.9764 111.868 12.9853 111.696 10.1287 110.485C26.9402 96.3638 49.5509 96.0733 49.5509 96.0733Z" fill="#E2866D"/>
<path d="M52.3754 124.362C45.5378 129.774 38.1838 134.912 30.4048 138.737C27.537 139.925 24.3758 140.214 21.3401 139.565C9.69844 137.005 3.3719 120.516 14.8844 111.806C24.0285 106.699 33.4224 102.052 43.0309 97.8837C51.7029 94.1717 56.7706 96.2967 60.5041 101.38C67.4062 111.311 60.3911 118.418 52.3754 124.362Z" fill="#F99370"/>
<path d="M51.4985 124.186L49.2659 126.768C43.3483 131.271 37.0164 135.494 30.4371 138.733C27.5693 139.921 24.408 140.21 21.3723 139.561C31.6314 128.915 51.4985 124.186 51.4985 124.186Z" fill="#E2866D"/>
<path d="M58.1156 158.434C49.2123 163.851 41.9443 170.495 32.7181 168.719C21.0119 166.239 15.7291 149.934 26.3217 139.793C28.4036 137.932 48.1578 125.677 54.9738 122.347C82.6146 127.457 80.1669 143.968 58.1156 158.434Z" fill="#F99370"/>
<path d="M58.1155 158.433C53.0048 161.946 47.8403 164.851 44.3704 166.858C40.099 169.01 36.1341 169.44 32.718 168.719C44.7362 160.365 58.7073 157.142 58.7073 157.142L58.1155 158.433Z" fill="#E2866D"/>
<path d="M42.8964 167.53C44.9138 165.593 71.8391 143.859 84.4706 157.308C96.8439 172.151 80.0754 184.702 67.331 189.587C40.8414 199.749 27.8818 181.625 42.8964 167.53Z" fill="#F99370"/>
<path opacity="0.3" d="M582.7 1009.37C582.7 1026.93 517.923 1040.57 441.58 1040.57C365.237 1040.57 304 1025.76 304 1008.2C304 990.643 365.231 977 441.58 977C517.928 977 582.7 991.81 582.7 1009.37Z" fill="#245084"/>
</g>
</svg>
