<svg width="842" height="795" viewBox="0 0 842 795" fill="none" xmlns="http://www.w3.org/2000/svg">
<g clip-path="url(#clip0_1_119465)">
<path d="M779.734 285.763H55.4207V753.754H779.734V285.763Z" fill="#540494"/>
<g opacity="0.2">
<path d="M779.733 285.763H55.4194V753.754H779.733V285.763Z" fill="black"/>
</g>
<g opacity="0.2">
<path d="M779.611 287.182H55.2971V320.66H779.611V287.182Z" fill="black"/>
</g>
<g opacity="0.3">
<path d="M198.279 287.182H90.7771V310.15H108.442V718.184H90.8731H90.7771V741.152H198.279V718.184H197.703H180.59V310.15H198.279V295.311H198.519V289.419H198.279V287.182Z" fill="black"/>
<path d="M346.272 287.182H238.793V310.15H256.458V718.184H238.889H238.793V741.152H346.272V718.184H345.72H328.607V310.15H346.272V295.311H346.512V289.419H346.272V287.182Z" fill="black"/>
<path d="M603.761 287.182H496.259V310.15H513.948V718.184H496.379H496.259V741.152H603.761V718.184H603.185H586.096V310.15H603.761V295.311H604.001V289.419H603.761V287.182Z" fill="black"/>
<path d="M752.109 289.419H751.893V287.182H644.391V310.15H662.056V718.184H644.487H644.391V741.152H751.893V718.184H751.317H734.204V310.15H751.893V295.311H752.109V289.419Z" fill="black"/>
</g>
<path d="M180.584 285.763H73.0815V308.731H180.584V285.763Z" fill="#F5F5F5"/>
<path d="M180.584 716.765H73.0815V739.733H180.584V716.765Z" fill="#F5F5F5"/>
<path d="M162.923 308.731H90.7751V719.579H162.923V308.731Z" fill="#F5F5F5"/>
<g opacity="0.3">
<path d="M180.823 288H73.3203V293.892H180.823V288Z" fill="black"/>
</g>
<path d="M180.011 308.491C180.011 308.827 156.01 309.116 126.608 309.116C97.2065 309.116 73.2051 308.827 73.2051 308.491C73.2051 308.154 97.2065 307.865 126.608 307.865C156.01 307.865 180.011 308.082 180.011 308.491Z" fill="#263238"/>
<path d="M180.011 716.765C180.011 717.102 156.01 717.39 126.608 717.39C97.2065 717.39 73.2051 717.102 73.2051 716.765C73.2051 716.428 97.2065 716.14 126.608 716.14C156.01 716.14 180.011 716.404 180.011 716.765Z" fill="#263238"/>
<path d="M105.195 707.313C105.848 707.279 106.486 707.107 107.067 706.808C107.897 706.344 108.56 705.63 108.961 704.766C109.362 703.902 109.48 702.933 109.299 701.998C109.299 696.876 109.299 689.396 109.299 679.752C109.299 660.392 109.299 632.47 109.107 597.982C108.915 563.494 109.107 522.296 109.107 476.625C109.107 453.801 109.107 429.823 109.107 404.98V335.403C109.168 334.661 109.07 333.915 108.819 333.214C108.539 332.566 108.077 332.014 107.489 331.625C106.9 331.237 106.212 331.028 105.507 331.026C104.804 331.02 104.114 331.222 103.525 331.607C102.936 331.992 102.473 332.543 102.195 333.19C101.914 333.875 101.806 334.618 101.883 335.355V367.005C101.883 379.831 101.883 392.466 101.883 404.907C101.883 429.775 101.883 453.753 101.883 476.577C101.883 522.272 101.883 563.398 101.739 597.958C101.595 632.518 101.595 660.488 101.547 679.728C101.547 689.348 101.547 696.852 101.547 701.974C101.373 702.909 101.495 703.875 101.895 704.737C102.295 705.599 102.954 706.315 103.779 706.784C104.362 707.078 104.999 707.25 105.651 707.289C104.987 707.361 104.317 707.227 103.731 706.905C102.977 706.546 102.35 705.968 101.931 705.245C101.396 704.235 101.179 703.086 101.307 701.95C101.307 696.828 101.307 689.348 101.187 679.704C101.187 660.464 101.067 632.421 100.995 597.934C100.923 563.446 100.995 522.248 100.851 476.553C100.851 453.729 100.851 429.751 100.851 404.883V335.355C100.78 334.445 100.92 333.532 101.259 332.685C101.617 331.795 102.232 331.033 103.025 330.497C103.818 329.96 104.754 329.673 105.711 329.673C106.668 329.673 107.604 329.96 108.397 330.497C109.19 331.033 109.805 331.795 110.163 332.685C110.504 333.531 110.643 334.445 110.571 335.355V366.98C110.571 379.807 110.571 392.441 110.571 404.883C110.571 429.727 110.571 453.705 110.571 476.529C110.571 522.224 110.571 563.325 110.427 597.885C110.283 632.445 110.283 660.416 110.235 679.656C110.235 689.276 110.235 696.779 110.235 701.902C110.367 703.041 110.14 704.193 109.587 705.197C109.168 705.92 108.541 706.498 107.787 706.856C107.41 707.109 106.985 707.28 106.539 707.358C106.093 707.437 105.635 707.422 105.195 707.313Z" fill="#263238"/>
<path d="M126.849 707.313C127.494 707.275 128.123 707.103 128.697 706.808C129.53 706.345 130.195 705.632 130.6 704.768C131.005 703.905 131.129 702.936 130.954 701.998C130.954 696.876 130.954 689.396 130.834 679.752C130.834 660.392 130.834 632.47 130.642 597.982C130.45 563.494 130.642 522.296 130.498 476.625C130.498 453.801 130.498 429.823 130.498 404.98V335.403C130.572 334.661 130.474 333.911 130.21 333.214C129.933 332.563 129.471 332.009 128.883 331.619C128.294 331.228 127.603 331.021 126.897 331.021C126.191 331.021 125.501 331.228 124.912 331.619C124.323 332.009 123.862 332.563 123.585 333.214C123.317 333.902 123.21 334.643 123.273 335.379V404.932C123.273 429.799 123.273 453.777 123.273 476.601C123.273 522.296 123.273 563.422 123.273 597.982C123.273 632.542 123.105 660.512 123.057 679.752C123.057 689.372 123.057 696.876 123.057 701.998C122.876 702.934 122.994 703.902 123.395 704.766C123.796 705.63 124.459 706.344 125.289 706.808C125.871 707.107 126.509 707.279 127.161 707.313C126.489 707.385 125.811 707.251 125.217 706.929C124.476 706.562 123.858 705.985 123.441 705.269C122.888 704.265 122.662 703.113 122.793 701.974C122.793 696.852 122.793 689.372 122.673 679.728C122.673 660.488 122.673 632.446 122.481 597.958C122.289 563.47 122.481 522.272 122.337 476.577C122.337 453.753 122.337 429.775 122.337 404.908C122.337 392.498 122.337 379.863 122.337 367.005V335.355C122.279 334.446 122.418 333.535 122.745 332.685C123.121 331.809 123.748 331.064 124.548 330.546C125.347 330.028 126.282 329.76 127.233 329.775C128.182 329.773 129.111 330.053 129.901 330.58C130.691 331.106 131.308 331.856 131.674 332.733C131.995 333.584 132.127 334.495 132.058 335.403V367.029C132.058 379.855 132.058 392.49 132.058 404.932C132.058 429.775 132.058 453.753 132.058 476.577C132.058 522.272 132.058 563.374 131.914 597.934C131.77 632.494 131.77 660.464 131.722 679.704C131.722 689.324 131.722 696.828 131.602 701.95C131.73 703.086 131.512 704.235 130.978 705.245C130.545 705.957 129.921 706.532 129.178 706.905C128.48 707.327 127.649 707.473 126.849 707.313Z" fill="#263238"/>
<path d="M148.473 707.313C149.125 707.274 149.762 707.103 150.346 706.808C151.176 706.344 151.839 705.63 152.24 704.766C152.64 703.902 152.759 702.933 152.578 701.998C152.578 696.876 152.578 689.396 152.458 679.752C152.458 660.392 152.458 632.47 152.266 597.982C152.074 563.494 152.266 522.296 152.122 476.625C152.122 453.801 152.122 429.823 152.122 404.98C152.122 392.538 152.122 379.903 152.122 367.077V335.403C152.196 334.661 152.098 333.911 151.834 333.214C151.56 332.566 151.103 332.013 150.518 331.624C149.934 331.235 149.247 331.027 148.545 331.026C147.839 331.021 147.148 331.224 146.555 331.609C145.962 331.993 145.494 332.543 145.209 333.19C144.949 333.88 144.85 334.62 144.921 335.355V367.005C144.921 379.831 144.921 392.466 144.921 404.907C144.921 429.775 144.921 453.753 144.921 476.577C144.921 522.272 144.921 563.398 144.777 597.958C144.633 632.518 144.633 660.488 144.585 679.728C144.585 689.348 144.585 696.852 144.585 701.974C144.404 702.909 144.523 703.878 144.923 704.742C145.324 705.606 145.987 706.32 146.817 706.784C147.401 707.078 148.038 707.25 148.689 707.289C148.025 707.361 147.355 707.227 146.769 706.905C146.016 706.546 145.388 705.968 144.969 705.245C144.416 704.241 144.19 703.089 144.321 701.95C144.321 696.828 144.321 689.348 144.321 679.704C144.321 660.464 144.201 632.421 144.105 597.934C144.009 563.446 144.105 522.248 144.105 476.553C144.105 453.729 144.105 429.751 144.105 404.883V335.355C144.035 334.445 144.174 333.532 144.513 332.685C144.871 331.795 145.486 331.033 146.279 330.497C147.073 329.96 148.008 329.673 148.965 329.673C149.923 329.673 150.858 329.96 151.651 330.497C152.445 331.033 153.06 331.795 153.418 332.685C153.74 333.536 153.871 334.447 153.802 335.355V404.883C153.802 429.727 153.802 453.705 153.802 476.529C153.802 522.224 153.802 563.325 153.682 597.885C153.562 632.445 153.514 660.416 153.466 679.656C153.466 689.276 153.466 696.779 153.466 701.902C153.586 703.041 153.36 704.189 152.818 705.197C152.399 705.92 151.771 706.498 151.018 706.856C150.647 707.102 150.23 707.269 149.793 707.348C149.355 707.427 148.906 707.415 148.473 707.313Z" fill="#263238"/>
<path d="M328.6 285.763H221.098V308.731H328.6V285.763Z" fill="#F5F5F5"/>
<path d="M328.6 716.765H221.098V739.733H328.6V716.765Z" fill="#F5F5F5"/>
<path d="M310.94 308.731H238.792V719.579H310.94V308.731Z" fill="#F5F5F5"/>
<g opacity="0.3">
<path d="M328.84 288H221.337V293.892H328.84V288Z" fill="black"/>
</g>
<path d="M328.027 308.491C328.027 308.827 304.026 309.116 274.624 309.116C245.222 309.116 221.197 308.827 221.197 308.491C221.197 308.154 245.198 307.865 274.624 307.865C304.05 307.865 328.027 308.082 328.027 308.491Z" fill="#263238"/>
<path d="M328.027 716.765C328.027 717.102 304.026 717.39 274.624 717.39C245.222 717.39 221.197 717.102 221.197 716.765C221.197 716.428 245.198 716.14 274.624 716.14C304.05 716.14 328.027 716.404 328.027 716.765Z" fill="#263238"/>
<path d="M253.212 707.313C253.864 707.274 254.501 707.102 255.084 706.808C255.915 706.344 256.578 705.629 256.978 704.766C257.379 703.902 257.498 702.933 257.317 701.998C257.317 696.876 257.317 689.396 257.317 679.752C257.317 660.392 257.197 632.469 257.125 597.982C257.053 563.494 257.125 522.296 256.981 476.625C256.981 453.801 256.981 429.823 256.981 404.98C256.981 392.538 256.981 379.903 256.981 367.077V335.403C257.055 334.661 256.957 333.911 256.693 333.214C256.419 332.566 255.962 332.013 255.377 331.624C254.792 331.235 254.106 331.027 253.404 331.025C252.698 331.021 252.006 331.224 251.414 331.609C250.821 331.993 250.353 332.543 250.068 333.19C249.808 333.88 249.709 334.62 249.78 335.355V367.004C249.78 379.831 249.78 392.465 249.78 404.907C249.78 429.775 249.78 453.753 249.78 476.577C249.78 522.272 249.78 563.398 249.636 597.958C249.492 632.518 249.492 660.488 249.444 679.728C249.444 689.348 249.444 696.852 249.444 701.974C249.263 702.909 249.381 703.878 249.782 704.742C250.183 705.605 250.846 706.32 251.676 706.784C252.259 707.078 252.897 707.25 253.548 707.289C252.884 707.361 252.214 707.227 251.628 706.904C250.875 706.546 250.247 705.968 249.828 705.245C249.275 704.241 249.049 703.089 249.18 701.95C249.18 696.827 249.18 689.348 249.06 679.704C249.06 660.464 249.06 632.421 248.868 597.933C248.676 563.446 248.868 522.248 248.748 476.553C248.748 453.729 248.748 429.751 248.748 404.883V335.355C248.669 334.447 248.801 333.533 249.132 332.685C249.523 331.82 250.154 331.086 250.95 330.57C251.746 330.054 252.673 329.778 253.62 329.775C254.569 329.773 255.498 330.053 256.288 330.579C257.078 331.106 257.695 331.855 258.061 332.733C258.382 333.584 258.513 334.495 258.445 335.403V404.931C258.445 429.775 258.445 453.753 258.445 476.577C258.445 522.272 258.445 563.373 258.325 597.933C258.205 632.493 258.157 660.464 258.109 679.704C258.109 689.324 258.109 696.827 258.109 701.95C258.229 703.089 258.003 704.237 257.461 705.245C257.042 705.968 256.414 706.546 255.66 706.904C254.93 707.358 254.05 707.505 253.212 707.313Z" fill="#263238"/>
<path d="M274.844 707.313C275.496 707.279 276.134 707.107 276.716 706.808C277.546 706.344 278.209 705.63 278.61 704.766C279.011 703.902 279.129 702.933 278.948 701.998C278.948 696.876 278.948 689.396 278.828 679.752C278.828 660.392 278.828 632.47 278.636 597.982C278.444 563.494 278.636 522.296 278.636 476.625C278.636 453.801 278.636 429.823 278.636 404.98V335.403C278.697 334.661 278.599 333.915 278.348 333.214C278.068 332.566 277.605 332.014 277.017 331.625C276.429 331.237 275.74 331.028 275.036 331.026C274.332 331.02 273.643 331.222 273.054 331.607C272.465 331.992 272.002 332.543 271.723 333.19C271.442 333.875 271.335 334.618 271.411 335.355V367.005C271.411 379.831 271.411 392.466 271.411 404.907C271.411 429.775 271.411 453.753 271.411 476.577C271.411 522.272 271.411 563.398 271.267 597.958C271.123 632.518 271.123 660.488 271.075 679.728C271.075 689.348 271.075 696.852 270.955 701.974C270.78 702.912 270.904 703.881 271.309 704.744C271.714 705.607 272.379 706.321 273.212 706.784C273.786 707.079 274.415 707.251 275.06 707.289C274.395 707.361 273.725 707.227 273.14 706.904C272.396 706.532 271.772 705.957 271.339 705.245C270.805 704.235 270.588 703.086 270.715 701.95C270.715 696.828 270.715 689.348 270.595 679.704C270.595 660.464 270.595 632.421 270.403 597.934C270.211 563.446 270.403 522.248 270.259 476.553C270.259 453.729 270.259 429.751 270.259 404.883V335.355C270.189 334.445 270.329 333.532 270.667 332.685C271.042 331.813 271.665 331.071 272.46 330.553C273.254 330.035 274.184 329.764 275.132 329.775C276.081 329.773 277.009 330.053 277.799 330.579C278.59 331.106 279.207 331.855 279.572 332.733C279.912 333.579 280.052 334.493 279.98 335.403V367.029C279.98 379.855 279.98 392.49 279.98 404.932C279.98 429.775 279.98 453.753 279.98 476.577C279.98 522.272 279.98 563.374 279.836 597.934C279.692 632.494 279.692 660.464 279.644 679.704C279.644 689.324 279.644 696.828 279.524 701.95C279.656 703.089 279.429 704.241 278.876 705.245C278.457 705.968 277.829 706.546 277.076 706.904C276.405 707.304 275.613 707.449 274.844 707.313Z" fill="#263238"/>
<path d="M296.489 707.313C297.133 707.275 297.762 707.103 298.337 706.808C299.169 706.345 299.834 705.632 300.239 704.768C300.644 703.905 300.768 702.936 300.593 701.998C300.593 696.876 300.593 689.396 300.473 679.752C300.473 660.392 300.353 632.47 300.281 597.982C300.209 563.494 300.281 522.296 300.137 476.625C300.137 453.801 300.137 429.823 300.137 404.98V335.403C300.211 334.661 300.113 333.911 299.849 333.214C299.572 332.563 299.111 332.009 298.522 331.619C297.933 331.228 297.242 331.021 296.537 331.021C295.831 331.021 295.14 331.228 294.551 331.619C293.962 332.009 293.501 332.563 293.224 333.214C292.956 333.902 292.849 334.643 292.912 335.379V404.932C292.912 429.799 292.912 453.777 292.912 476.601C292.912 522.296 292.912 563.422 292.792 597.982C292.672 632.542 292.624 660.512 292.576 679.752C292.576 689.372 292.576 696.876 292.576 701.998C292.395 702.934 292.514 703.902 292.914 704.766C293.315 705.63 293.978 706.344 294.808 706.808C295.39 707.107 296.028 707.279 296.681 707.313C296.009 707.385 295.331 707.251 294.736 706.929C293.995 706.562 293.377 705.985 292.96 705.269C292.407 704.265 292.181 703.113 292.312 701.974C292.312 696.852 292.312 689.372 292.312 679.728C292.312 660.488 292.192 632.446 292.12 597.958C292.048 563.47 292.12 522.272 291.976 476.577C291.976 453.753 291.976 429.775 291.976 404.908C291.976 392.498 291.976 379.863 291.976 367.005V335.355C291.918 334.446 292.057 333.535 292.384 332.685C292.76 331.809 293.388 331.064 294.187 330.546C294.986 330.028 295.921 329.76 296.873 329.775C297.822 329.773 298.75 330.053 299.54 330.58C300.331 331.106 300.947 331.856 301.313 332.733C301.635 333.584 301.766 334.495 301.697 335.403V404.932C301.697 429.775 301.697 453.753 301.697 476.577C301.697 522.272 301.697 563.374 301.553 597.934C301.409 632.494 301.409 660.464 301.361 679.704C301.361 689.324 301.361 696.828 301.241 701.95C301.369 703.086 301.151 704.235 300.617 705.245C300.185 705.957 299.561 706.532 298.817 706.905C298.119 707.327 297.288 707.473 296.489 707.313Z" fill="#263238"/>
<path d="M621.659 285.763H514.157V308.731H621.659V285.763Z" fill="#F5F5F5"/>
<path d="M621.659 716.765H514.157V739.733H621.659V716.765Z" fill="#F5F5F5"/>
<path d="M603.999 308.731H531.851V719.579H603.999V308.731Z" fill="#F5F5F5"/>
<g opacity="0.3">
<path d="M621.899 288H514.397V293.892H621.899V288Z" fill="black"/>
</g>
<path d="M621.087 308.491C621.087 308.827 597.085 309.116 567.684 309.116C538.282 309.116 514.281 308.827 514.281 308.491C514.281 308.154 538.282 307.865 567.684 307.865C597.085 307.865 621.087 308.082 621.087 308.491Z" fill="#263238"/>
<path d="M621.087 716.765C621.087 717.102 597.085 717.39 567.684 717.39C538.282 717.39 514.281 717.102 514.281 716.765C514.281 716.428 538.282 716.14 567.684 716.14C597.085 716.14 621.087 716.404 621.087 716.765Z" fill="#263238"/>
<path d="M546.271 707.313C546.923 707.279 547.561 707.107 548.143 706.808C548.973 706.345 549.636 705.63 550.037 704.766C550.438 703.902 550.556 702.934 550.375 701.998C550.375 696.876 550.375 689.396 550.375 679.752C550.375 660.392 550.375 632.47 550.159 597.982C549.943 563.494 550.159 522.296 550.039 476.625C550.039 453.801 550.039 429.823 550.039 404.98V335.403C550.1 334.661 550.002 333.915 549.751 333.214C549.471 332.566 549.009 332.014 548.42 331.625C547.832 331.237 547.143 331.028 546.439 331.026C545.735 331.02 545.046 331.222 544.457 331.607C543.868 331.992 543.405 332.543 543.127 333.19C542.845 333.875 542.738 334.618 542.815 335.355V404.908C542.815 429.775 542.815 453.753 542.815 476.577C542.815 522.272 542.815 563.398 542.671 597.958C542.527 632.518 542.527 660.488 542.479 679.728C542.479 689.348 542.479 696.852 542.359 701.974C542.183 702.912 542.307 703.881 542.712 704.744C543.117 705.607 543.783 706.321 544.615 706.784C545.189 707.079 545.818 707.251 546.463 707.289C545.799 707.361 545.128 707.227 544.543 706.905C543.799 706.532 543.175 705.957 542.743 705.245C542.208 704.235 541.991 703.086 542.119 701.95C542.119 696.828 542.119 689.348 541.999 679.704C541.999 660.464 541.879 632.421 541.807 597.934C541.734 563.446 541.807 522.248 541.662 476.553C541.662 453.729 541.662 429.751 541.662 404.884C541.662 392.474 541.662 379.839 541.662 366.981V335.355C541.592 334.445 541.732 333.532 542.071 332.685C542.424 331.788 543.039 331.018 543.835 330.476C544.632 329.933 545.572 329.643 546.535 329.643C547.498 329.643 548.438 329.933 549.234 330.476C550.03 331.018 550.645 331.788 550.999 332.685C551.321 333.536 551.452 334.447 551.383 335.355V366.981C551.383 379.807 551.383 392.442 551.383 404.884C551.383 429.727 551.383 453.705 551.383 476.529C551.383 522.224 551.383 563.326 551.239 597.886C551.095 632.446 551.095 660.416 551.047 679.656C551.047 689.276 551.047 696.78 550.927 701.902C551.059 703.041 550.832 704.193 550.279 705.197C549.862 705.912 549.244 706.489 548.503 706.857C547.835 707.267 547.045 707.428 546.271 707.313Z" fill="#263238"/>
<path d="M567.917 707.313C568.569 707.274 569.206 707.103 569.789 706.808C570.614 706.339 571.273 705.623 571.673 704.761C572.073 703.899 572.195 702.933 572.021 701.998C572.021 696.876 572.021 689.396 571.901 679.752C571.901 660.392 571.901 632.47 571.709 597.982C571.517 563.494 571.709 522.296 571.565 476.625C571.565 453.801 571.565 429.823 571.565 404.98C571.565 392.538 571.565 379.903 571.565 367.077V335.403C571.64 334.661 571.541 333.911 571.277 333.214C571.001 332.563 570.539 332.009 569.95 331.619C569.361 331.228 568.671 331.021 567.965 331.021C567.259 331.021 566.569 331.228 565.98 331.619C565.391 332.009 564.93 332.563 564.653 333.214C564.395 333.905 564.289 334.643 564.341 335.379V404.932C564.341 429.799 564.341 453.777 564.341 476.601C564.341 522.296 564.341 563.422 564.341 597.982C564.341 632.542 564.173 660.512 564.149 679.752C564.149 689.372 564.149 696.876 564.149 701.998C563.968 702.934 564.086 703.902 564.487 704.766C564.888 705.63 565.551 706.344 566.381 706.808C566.963 707.107 567.601 707.279 568.253 707.313C567.589 707.385 566.919 707.251 566.333 706.929C565.579 706.57 564.952 705.992 564.533 705.269C563.98 704.265 563.753 703.113 563.885 701.974C563.885 696.852 563.885 689.372 563.765 679.728C563.765 660.488 563.645 632.446 563.573 597.958C563.501 563.47 563.573 522.272 563.429 476.577C563.429 453.753 563.429 429.775 563.429 404.908C563.429 392.498 563.429 379.863 563.429 367.005V335.355C563.371 334.446 563.51 333.535 563.837 332.685C564.213 331.809 564.84 331.064 565.639 330.546C566.438 330.028 567.373 329.76 568.325 329.775C569.274 329.773 570.203 330.053 570.993 330.58C571.783 331.106 572.4 331.856 572.765 332.733C573.087 333.584 573.218 334.495 573.149 335.403V404.932C573.149 429.775 573.149 453.753 573.149 476.577C573.149 522.272 573.149 563.374 573.005 597.934C572.861 632.494 572.861 660.464 572.813 679.704C572.813 689.324 572.813 696.828 572.693 701.95C572.821 703.086 572.604 704.235 572.069 705.245C571.65 705.968 571.023 706.546 570.269 706.905C569.565 707.334 568.725 707.48 567.917 707.313Z" fill="#263238"/>
<path d="M589.545 707.313C590.197 707.274 590.834 707.103 591.417 706.808C592.247 706.344 592.91 705.63 593.311 704.766C593.712 703.902 593.83 702.933 593.649 701.998C593.649 696.876 593.649 689.396 593.649 679.752C593.649 660.392 593.529 632.469 593.457 597.982C593.385 563.494 593.457 522.296 593.313 476.625C593.313 453.801 593.313 429.823 593.313 404.98C593.313 392.538 593.313 379.903 593.313 367.077V335.403C593.388 334.661 593.289 333.911 593.025 333.214C592.755 332.564 592.298 332.01 591.712 331.62C591.127 331.23 590.44 331.024 589.737 331.026C589.031 331.021 588.339 331.224 587.746 331.609C587.154 331.993 586.686 332.543 586.401 333.19C586.141 333.88 586.042 334.62 586.113 335.355V367.005C586.113 379.831 586.113 392.466 586.113 404.907C586.113 429.775 586.113 453.753 586.113 476.577C586.113 522.272 586.113 563.398 585.969 597.958C585.825 632.518 585.825 660.488 585.777 679.728C585.777 689.348 585.777 696.852 585.657 701.974C585.476 702.909 585.594 703.878 585.995 704.742C586.396 705.606 587.059 706.32 587.889 706.784C588.472 707.078 589.109 707.25 589.761 707.289C589.097 707.361 588.427 707.227 587.841 706.904C587.087 706.546 586.46 705.968 586.041 705.245C585.498 704.237 585.272 703.089 585.393 701.95C585.393 696.827 585.393 689.348 585.393 679.704C585.393 660.464 585.393 632.421 585.177 597.933C584.961 563.446 585.177 522.248 585.057 476.553C585.057 453.729 585.057 429.751 585.057 404.883V335.355C584.986 334.445 585.126 333.532 585.465 332.685C585.823 331.795 586.438 331.033 587.231 330.497C588.024 329.96 588.96 329.673 589.917 329.673C590.874 329.673 591.81 329.96 592.603 330.497C593.396 331.033 594.012 331.795 594.369 332.685C594.702 333.533 594.834 334.447 594.753 335.355V404.883C594.753 429.727 594.753 453.705 594.753 476.529C594.753 522.224 594.753 563.325 594.633 597.885C594.513 632.445 594.489 660.416 594.441 679.656C594.441 689.276 594.441 696.779 594.321 701.902C594.453 703.041 594.226 704.193 593.673 705.197C593.254 705.92 592.627 706.498 591.873 706.856C591.182 707.296 590.351 707.459 589.545 707.313Z" fill="#263238"/>
<path d="M769.799 285.763H662.297V308.731H769.799V285.763Z" fill="#F5F5F5"/>
<path d="M769.799 716.765H662.297V739.733H769.799V716.765Z" fill="#F5F5F5"/>
<path d="M752.131 308.731H679.982V719.579H752.131V308.731Z" fill="#F5F5F5"/>
<g opacity="0.3">
<path d="M770.038 288H662.536V293.892H770.038V288Z" fill="black"/>
</g>
<path d="M769.218 308.491C769.218 308.827 745.216 309.116 715.814 309.116C686.413 309.116 662.387 308.827 662.387 308.491C662.387 308.154 686.389 307.865 715.814 307.865C745.24 307.865 769.218 308.082 769.218 308.491Z" fill="#263238"/>
<path d="M769.218 716.765C769.218 717.102 745.216 717.39 715.814 717.39C686.413 717.39 662.387 717.102 662.387 716.765C662.387 716.428 686.389 716.14 715.814 716.14C745.24 716.14 769.218 716.404 769.218 716.765Z" fill="#263238"/>
<path d="M694.408 707.313C695.06 707.274 695.697 707.102 696.28 706.808C697.11 706.344 697.773 705.629 698.174 704.766C698.575 703.902 698.693 702.933 698.512 701.998C698.512 696.876 698.512 689.396 698.512 679.752C698.512 660.392 698.392 632.469 698.32 597.982C698.248 563.494 698.32 522.296 698.176 476.625C698.176 453.801 698.176 429.823 698.176 404.98C698.176 392.538 698.176 379.903 698.176 367.077V335.403C698.251 334.661 698.152 333.911 697.888 333.214C697.615 332.566 697.157 332.013 696.572 331.624C695.988 331.235 695.302 331.027 694.6 331.025C693.894 331.021 693.202 331.224 692.609 331.609C692.016 331.993 691.549 332.543 691.264 333.19C691.003 333.88 690.905 334.62 690.976 335.355V347.62C690.976 354.033 690.976 360.495 690.976 367.004V404.907C690.976 429.775 690.976 453.753 690.976 476.577C690.976 522.272 690.976 563.398 690.832 597.958C690.688 632.518 690.688 660.488 690.64 679.728C690.64 689.348 690.64 696.852 690.52 701.974C690.339 702.909 690.457 703.878 690.858 704.742C691.259 705.605 691.921 706.32 692.752 706.784C693.335 707.078 693.972 707.25 694.624 707.289C693.96 707.361 693.289 707.227 692.704 706.904C691.95 706.546 691.322 705.968 690.904 705.245C690.35 704.241 690.124 703.089 690.256 701.95C690.256 696.827 690.256 689.348 690.136 679.704C690.136 660.464 690.135 632.421 689.943 597.933C689.751 563.446 689.944 522.248 689.824 476.553C689.824 453.729 689.824 429.751 689.824 404.883V335.355C689.745 334.447 689.876 333.533 690.208 332.685C690.599 331.82 691.23 331.086 692.025 330.57C692.821 330.054 693.748 329.778 694.696 329.775C695.645 329.773 696.573 330.053 697.363 330.579C698.154 331.106 698.771 331.855 699.136 332.733C699.458 333.584 699.589 334.495 699.52 335.403V404.931C699.52 429.775 699.52 453.753 699.52 476.577C699.52 522.272 699.52 563.373 699.4 597.933C699.28 632.493 699.232 660.464 699.184 679.704C699.184 689.324 699.184 696.827 699.064 701.95C699.203 703.087 698.985 704.238 698.44 705.245C698.021 705.968 697.393 706.546 696.64 706.904C695.969 707.304 695.177 707.449 694.408 707.313Z" fill="#263238"/>
<path d="M716.034 707.313C716.687 707.279 717.325 707.107 717.906 706.808C718.737 706.344 719.4 705.63 719.8 704.766C720.201 703.902 720.32 702.933 720.139 701.998C720.139 696.876 720.139 689.396 720.019 679.752C720.019 660.392 720.019 632.47 719.827 597.982C719.635 563.494 719.827 522.296 719.707 476.625C719.707 453.801 719.707 429.823 719.707 404.98V335.403C719.756 334.661 719.658 333.917 719.419 333.214C719.139 332.566 718.676 332.014 718.088 331.625C717.5 331.237 716.811 331.028 716.106 331.026C715.403 331.02 714.714 331.222 714.125 331.607C713.535 331.992 713.073 332.543 712.794 333.19C712.513 333.875 712.406 334.618 712.482 335.355V367.005C712.482 379.831 712.482 392.466 712.482 404.907C712.482 429.775 712.482 453.753 712.482 476.577C712.482 522.272 712.482 563.398 712.338 597.958C712.194 632.518 712.194 660.488 712.146 679.728C712.146 689.348 712.146 696.852 712.026 701.974C711.852 702.909 711.974 703.875 712.374 704.737C712.774 705.599 713.433 706.315 714.258 706.784C714.841 707.078 715.479 707.25 716.13 707.289C715.466 707.361 714.796 707.227 714.21 706.905C713.457 706.546 712.829 705.968 712.41 705.245C711.876 704.235 711.658 703.086 711.786 701.95C711.786 696.828 711.786 689.348 711.786 679.704C711.786 660.464 711.666 632.421 711.594 597.934C711.522 563.446 711.594 522.248 711.45 476.553C711.45 453.729 711.45 429.751 711.45 404.883V335.355C711.38 334.445 711.519 333.532 711.858 332.685C712.216 331.795 712.831 331.033 713.624 330.497C714.418 329.96 715.353 329.673 716.31 329.673C717.268 329.673 718.203 329.96 718.996 330.497C719.79 331.033 720.405 331.795 720.763 332.685C721.103 333.531 721.243 334.445 721.171 335.355V366.98C721.171 379.807 721.171 392.441 721.171 404.883C721.171 429.727 721.171 453.705 721.171 476.529C721.171 522.224 721.171 563.325 721.027 597.885C720.883 632.445 720.883 660.416 720.835 679.656C720.835 689.276 720.835 696.779 720.715 701.902C720.846 703.041 720.62 704.193 720.067 705.197C719.648 705.92 719.02 706.498 718.266 706.856C717.601 707.272 716.809 707.435 716.034 707.313Z" fill="#263238"/>
<path d="M737.679 707.313C738.324 707.275 738.953 707.103 739.528 706.808C740.36 706.345 741.025 705.632 741.43 704.768C741.835 703.905 741.959 702.936 741.784 701.998C741.784 696.876 741.784 689.396 741.664 679.752C741.664 660.392 741.544 632.47 741.472 597.982C741.4 563.494 741.472 522.296 741.328 476.625C741.328 453.801 741.328 429.823 741.328 404.98V335.403C741.402 334.661 741.304 333.911 741.04 333.214C740.763 332.563 740.302 332.009 739.713 331.619C739.124 331.229 738.433 331.021 737.727 331.021C737.022 331.021 736.331 331.229 735.742 331.619C735.153 332.009 734.692 332.563 734.415 333.214C734.147 333.902 734.04 334.643 734.103 335.379V404.932C734.103 429.799 734.103 453.777 734.103 476.601C734.103 522.296 734.103 563.422 733.983 597.982C733.863 632.542 733.815 660.512 733.767 679.752C733.767 689.372 733.767 696.876 733.767 701.998C733.586 702.934 733.704 703.902 734.105 704.766C734.506 705.63 735.169 706.345 735.999 706.808C736.581 707.107 737.219 707.279 737.871 707.313C737.199 707.385 736.522 707.251 735.927 706.929C735.186 706.562 734.568 705.985 734.151 705.269C733.598 704.265 733.372 703.113 733.503 701.974C733.503 696.852 733.503 689.372 733.503 679.728C733.503 660.488 733.383 632.446 733.311 597.958C733.239 563.47 733.311 522.272 733.167 476.577C733.167 453.753 733.167 429.775 733.167 404.908C733.167 392.498 733.167 379.863 733.167 367.005V335.355C733.109 334.446 733.248 333.535 733.575 332.685C733.929 331.788 734.544 331.018 735.34 330.476C736.136 329.933 737.077 329.643 738.039 329.643C739.002 329.643 739.943 329.933 740.739 330.476C741.535 331.018 742.15 331.788 742.504 332.685C742.825 333.536 742.957 334.447 742.888 335.355V366.981C742.888 379.807 742.888 392.442 742.888 404.884C742.888 429.727 742.888 453.705 742.888 476.529C742.888 522.224 742.888 563.326 742.744 597.886C742.6 632.446 742.6 660.416 742.552 679.656C742.552 689.276 742.552 696.78 742.552 701.902C742.68 703.038 742.462 704.187 741.928 705.197C741.496 705.909 740.872 706.484 740.128 706.857C739.404 707.327 738.524 707.491 737.679 707.313Z" fill="#263238"/>
<path d="M0 241.511V217.196L429.265 0L841.393 218.639V241.511H0Z" fill="#EBEBEB"/>
<path d="M799.825 241.511H41.2854V288H799.825V241.511Z" fill="#EBEBEB"/>
<path d="M800.444 739.733H45.2888V767.751H800.444V739.733Z" fill="#540494"/>
<path d="M818.492 766.982H16.5818V795H818.492V766.982Z" fill="#540494"/>
<g opacity="0.3">
<path d="M105.486 204.883L428.857 41.2458L737.322 204.883H105.486Z" fill="white"/>
</g>
<g opacity="0.3">
<path d="M150.368 204.883L429.985 61.5441L707.489 204.883H737.322L428.857 41.2458L105.486 204.883H150.368Z" fill="black"/>
</g>
<path d="M105.602 204.859L737.439 204.234L737.151 205.412L702.061 186.797L428.589 41.727H429.093L105.602 204.859L428.613 40.741L428.853 40.5967L429.117 40.741L702.517 185.691L737.607 204.306L739.839 205.484H737.319L105.602 204.859Z" fill="#263238"/>
<path d="M449.615 162.41C445.439 166.052 440.187 168.223 434.663 168.591V178.211H425.998V168.759C421.852 168.546 417.753 167.786 413.805 166.499C410.453 165.482 407.296 163.905 404.469 161.833L409.269 151.251C411.632 152.965 414.226 154.334 416.974 155.315C419.89 156.419 422.942 157.123 426.046 157.408V142.978C422.498 142.165 419.022 141.063 415.653 139.683C412.854 138.519 410.382 136.686 408.453 134.344C406.448 131.66 405.438 128.361 405.597 125.012C405.579 122.706 406.035 120.421 406.935 118.299C407.835 116.177 409.16 114.262 410.829 112.675C415.012 108.933 420.33 106.714 425.926 106.373V96.7534H434.591V106.205C440.781 106.513 446.804 108.329 452.136 111.496L447.815 122.174C443.763 119.774 439.262 118.235 434.591 117.653V132.516C438.091 133.27 441.519 134.324 444.839 135.666C447.583 136.834 450.004 138.649 451.896 140.957C453.883 143.612 454.885 146.878 454.728 150.193C454.767 152.473 454.333 154.737 453.453 156.84C452.573 158.943 451.266 160.84 449.615 162.41ZM421.246 128.019C422.669 129.135 424.301 129.953 426.046 130.424V118.086C424.244 118.395 422.574 119.232 421.246 120.491C420.23 121.55 419.67 122.966 419.686 124.435C419.651 125.113 419.773 125.789 420.044 126.411C420.315 127.033 420.726 127.583 421.246 128.019ZM439.223 155.003C439.72 154.519 440.115 153.939 440.383 153.299C440.651 152.658 440.787 151.97 440.783 151.275C440.805 150.598 440.671 149.925 440.392 149.308C440.113 148.691 439.697 148.146 439.175 147.716C437.806 146.626 436.242 145.81 434.567 145.311V157.336C436.309 157.019 437.924 156.209 439.223 155.003Z" fill="#540494"/>
<g opacity="0.3">
<path d="M799.826 241.054H41.2856V253.584H799.826V241.054Z" fill="black"/>
</g>
<path d="M841.393 241.487C841.393 241.848 653.03 242.112 420.72 242.112C188.411 242.112 0 241.848 0 241.487C0 241.126 188.315 240.862 420.72 240.862C653.126 240.862 841.393 241.15 841.393 241.487Z" fill="#263238"/>
<path d="M794.635 288C794.635 288.337 625.737 288.625 417.453 288.625C209.169 288.625 40.2476 288.337 40.2476 288C40.2476 287.663 209.097 287.375 417.453 287.375C625.809 287.375 794.635 287.639 794.635 288Z" fill="#263238"/>
<path d="M792.047 739.733C792.047 740.07 625.142 740.358 419.306 740.358C213.47 740.358 46.5161 740.07 46.5161 739.733C46.5161 739.396 213.398 739.108 419.306 739.108C625.214 739.108 792.047 739.372 792.047 739.733Z" fill="#263238"/>
<path d="M792.047 768.064C792.047 768.425 625.142 768.689 419.306 768.689C213.47 768.689 46.5161 768.425 46.5161 768.064C46.5161 767.703 213.398 767.438 419.306 767.438C625.214 767.438 792.047 767.727 792.047 768.064Z" fill="#263238"/>
<g opacity="0.2">
<path d="M485.115 514.167H361.964V739.733H485.115V514.167Z" fill="black"/>
</g>
</g>
<defs>
<clipPath id="clip0_1_119465">
<rect width="841.393" height="795" fill="white"/>
</clipPath>
</defs>
</svg>
