<svg width="1440" height="120" viewBox="0 0 1440 120" fill="none" xmlns="http://www.w3.org/2000/svg">
<g clip-path="url(#clip0_0_4530)">
<path d="M-224.212 213.492H1570.19L1310.68 0.490234L92.2073 2.47399L-224.212 213.492Z" fill="url(#paint0_linear_0_4530)"/>
<path d="M131.105 101.341L42.7987 167.722H260.168L318.77 101.878L131.105 101.341Z" fill="url(#paint1_linear_0_4530)"/>
<path d="M1511.03 167.722L1440.03 109.97L1216.11 107.797L1254.68 167.722H1511.03Z" fill="url(#paint2_linear_0_4530)"/>
<path d="M480.737 103.639L439.765 167.722H645.356L668.782 104.189L480.737 103.639Z" fill="url(#paint3_linear_0_4530)"/>
<path d="M1054.43 167.722L1033.34 107.266L849.867 107.41V167.722H1054.43Z" fill="url(#paint4_linear_0_4530)"/>
<path d="M849.864 107.41L672.438 104.883L645.353 167.722H849.864V107.41Z" fill="url(#paint5_linear_0_4530)"/>
<path d="M849.864 107.41L672.438 104.883L645.353 167.722H849.864V107.41Z" fill="url(#paint6_linear_0_4530)"/>
<path d="M681.306 76.1677L672.442 108.379L849.867 107.41V76.1677H681.306Z" fill="url(#paint7_linear_0_4530)"/>
<path d="M849.866 4.98804L709.236 5.38086L703.173 27.0254L849.866 27.5034V4.98804Z" fill="url(#paint8_linear_0_4530)"/>
<path d="M529.891 28.5968L501.444 76.1677H681.305L697.685 30.2008L529.891 28.5968Z" fill="url(#paint9_linear_0_4530)"/>
<path d="M1014.98 76.1677L1001.05 30.1157L849.867 27.5034V76.1677H1014.98Z" fill="url(#paint10_linear_0_4530)"/>
<path d="M849.865 27.5034L701.339 29.1467L681.305 76.1677H849.865V27.5034Z" fill="url(#paint11_linear_0_4530)"/>
<path d="M849.865 27.5034L701.339 29.1467L681.305 76.1677H849.865V27.5034Z" fill="url(#paint12_linear_0_4530)"/>
<path d="M346.976 76.1676L387.423 28.1318L231.701 28.6883L171.22 76.1676H346.976Z" fill="url(#paint13_linear_0_4530)"/>
<path d="M1392.7 76.1676L1341.28 31.222L1164.35 31.7131L1191.97 76.1676H1392.7Z" fill="url(#paint14_linear_0_4530)"/>
<path d="M-48.2468 100.156L131.103 104.143L171.217 76.1676H-4.18504L65.7114 27.0909L231.699 26.5737L256.224 7.22057L92.2073 4.30713L-224.212 213.492H-21.4103L42.7966 167.722H-150.872L-48.2468 100.156Z" fill="url(#paint15_linear_0_4530)"/>
<path d="M-48.2459 100.156L-150.871 167.722H42.7975L131.104 100.647L-48.2459 100.156Z" fill="url(#paint16_linear_0_4530)"/>
<path d="M-48.2459 100.156L-150.871 167.722H42.7975L131.104 100.647L-48.2459 100.156Z" fill="url(#paint17_linear_0_4530)"/>
<path d="M-4.18486 76.1676H171.217L231.699 27.6343L65.7115 28.1515L-4.18486 76.1676Z" fill="url(#paint18_linear_0_4530)"/>
<path d="M-4.18486 76.1676H171.217L231.699 27.6343L65.7115 28.1515L-4.18486 76.1676Z" fill="url(#paint19_linear_0_4530)"/>
<path d="M346.974 76.1677L318.769 106.068L480.737 108.196L501.445 76.1677H346.974Z" fill="url(#paint20_linear_0_4530)"/>
<path d="M542.796 5.85876L404.823 6.25814L387.421 26.0172L529.892 26.482L542.796 5.85876Z" fill="white"/>
<path d="M318.771 102.572L260.168 167.722H439.767L480.739 102.945L318.771 102.572Z" fill="url(#paint21_linear_0_4530)"/>
<path d="M318.771 102.572L260.168 167.722H439.767L480.739 102.945L318.771 102.572Z" fill="url(#paint22_linear_0_4530)"/>
<path d="M501.446 76.1677L529.893 28.5968L387.422 29.1926L346.974 76.1677H501.446Z" fill="url(#paint23_linear_0_4530)"/>
<path d="M501.446 76.1677L529.893 28.5968L387.422 29.1926L346.974 76.1677H501.446Z" fill="url(#paint24_linear_0_4530)"/>
<path d="M1029.67 110.769L1216.11 113.047L1191.96 76.1677H1014.98L1029.67 110.769Z" fill="url(#paint25_linear_0_4530)"/>
<path d="M1148.79 4.09106L988.016 4.56245L997.398 28.0009L1164.35 28.5378L1148.79 4.09106Z" fill="white"/>
<path d="M1216.11 108.491L1029.67 106.572L1054.43 167.722H1254.68L1216.11 108.491Z" fill="url(#paint26_linear_0_4530)"/>
<path d="M1216.11 108.491L1029.67 106.572L1054.43 167.722H1254.68L1216.11 108.491Z" fill="url(#paint27_linear_0_4530)"/>
<path d="M1191.96 76.1676L1164.35 30.6525L997.398 31.1762L1014.98 76.1676H1191.96Z" fill="url(#paint28_linear_0_4530)"/>
<path d="M1191.96 76.1676L1164.35 30.6525L997.398 31.1762L1014.98 76.1676H1191.96Z" fill="url(#paint29_linear_0_4530)"/>
</g>
<defs>
<linearGradient id="paint0_linear_0_4530" x1="404.633" y1="-3.01899" x2="972.394" y2="447.628" gradientUnits="userSpaceOnUse">
<stop stop-color="#19042C"/>
<stop offset="1" stop-color="#540494"/>
</linearGradient>
<linearGradient id="paint1_linear_0_4530" x1="42.7987" y1="134.528" x2="318.77" y2="134.528" gradientUnits="userSpaceOnUse">
<stop stop-color="#DAE3FE"/>
<stop offset="1" stop-color="#E9EFFD"/>
</linearGradient>
<linearGradient id="paint2_linear_0_4530" x1="1216.11" y1="137.756" x2="1511.03" y2="137.756" gradientUnits="userSpaceOnUse">
<stop stop-color="#DAE3FE"/>
<stop offset="1" stop-color="#E9EFFD"/>
</linearGradient>
<linearGradient id="paint3_linear_0_4530" x1="439.765" y1="135.68" x2="668.782" y2="135.68" gradientUnits="userSpaceOnUse">
<stop stop-color="#DAE3FE"/>
<stop offset="1" stop-color="#E9EFFD"/>
</linearGradient>
<linearGradient id="paint4_linear_0_4530" x1="849.867" y1="137.494" x2="1054.43" y2="137.494" gradientUnits="userSpaceOnUse">
<stop stop-color="#DAE3FE"/>
<stop offset="1" stop-color="#E9EFFD"/>
</linearGradient>
<linearGradient id="paint5_linear_0_4530" x1="626.714" y1="136.302" x2="849.864" y2="136.302" gradientUnits="userSpaceOnUse">
<stop stop-color="#B37CFF"/>
<stop offset="1" stop-color="#F895E7"/>
</linearGradient>
<linearGradient id="paint6_linear_0_4530" x1="-180.401" y1="136.302" x2="1543.13" y2="136.302" gradientUnits="userSpaceOnUse">
<stop stop-color="#19042C"/>
<stop offset="1" stop-color="#540494"/>
</linearGradient>
<linearGradient id="paint7_linear_0_4530" x1="672.442" y1="92.2735" x2="849.867" y2="92.2735" gradientUnits="userSpaceOnUse">
<stop stop-color="#DAE3FE"/>
<stop offset="1" stop-color="#E9EFFD"/>
</linearGradient>
<linearGradient id="paint8_linear_0_4530" x1="703.173" y1="16.2424" x2="849.866" y2="16.2424" gradientUnits="userSpaceOnUse">
<stop stop-color="#DAE3FE"/>
<stop offset="1" stop-color="#E9EFFD"/>
</linearGradient>
<linearGradient id="paint9_linear_0_4530" x1="501.444" y1="52.3823" x2="697.685" y2="52.3823" gradientUnits="userSpaceOnUse">
<stop stop-color="#DAE3FE"/>
<stop offset="1" stop-color="#E9EFFD"/>
</linearGradient>
<linearGradient id="paint10_linear_0_4530" x1="849.867" y1="51.8323" x2="1014.98" y2="51.8323" gradientUnits="userSpaceOnUse">
<stop stop-color="#DAE3FE"/>
<stop offset="1" stop-color="#E9EFFD"/>
</linearGradient>
<linearGradient id="paint11_linear_0_4530" x1="624.941" y1="51.8323" x2="849.872" y2="51.8323" gradientUnits="userSpaceOnUse">
<stop stop-color="#B37CFF"/>
<stop offset="1" stop-color="#F895E7"/>
</linearGradient>
<linearGradient id="paint12_linear_0_4530" x1="-35.2779" y1="51.8323" x2="1424.97" y2="51.8323" gradientUnits="userSpaceOnUse">
<stop stop-color="#19042C"/>
<stop offset="1" stop-color="#540494"/>
</linearGradient>
<linearGradient id="paint13_linear_0_4530" x1="171.22" y1="52.153" x2="387.423" y2="52.153" gradientUnits="userSpaceOnUse">
<stop stop-color="#DAE3FE"/>
<stop offset="1" stop-color="#E9EFFD"/>
</linearGradient>
<linearGradient id="paint14_linear_0_4530" x1="1164.35" y1="53.6916" x2="1392.7" y2="53.6916" gradientUnits="userSpaceOnUse">
<stop stop-color="#DAE3FE"/>
<stop offset="1" stop-color="#E9EFFD"/>
</linearGradient>
<linearGradient id="paint15_linear_0_4530" x1="-224.212" y1="108.903" x2="256.224" y2="108.903" gradientUnits="userSpaceOnUse">
<stop stop-color="#DAE3FE"/>
<stop offset="1" stop-color="#E9EFFD"/>
</linearGradient>
<linearGradient id="paint16_linear_0_4530" x1="-150.871" y1="133.939" x2="1511.03" y2="133.939" gradientUnits="userSpaceOnUse">
<stop stop-color="#B37CFF"/>
<stop offset="1" stop-color="#F895E7"/>
</linearGradient>
<linearGradient id="paint17_linear_0_4530" x1="177.968" y1="283.284" x2="747.922" y2="735.679" gradientUnits="userSpaceOnUse">
<stop stop-color="#19042C"/>
<stop offset="1" stop-color="#540494"/>
</linearGradient>
<linearGradient id="paint18_linear_0_4530" x1="-4.18486" y1="51.8977" x2="1392.7" y2="51.8977" gradientUnits="userSpaceOnUse">
<stop stop-color="#B37CFF"/>
<stop offset="1" stop-color="#F895E7"/>
</linearGradient>
<linearGradient id="paint19_linear_0_4530" x1="267.099" y1="173.608" x2="832.758" y2="622.592" gradientUnits="userSpaceOnUse">
<stop stop-color="#19042C"/>
<stop offset="1" stop-color="#540494"/>
</linearGradient>
<linearGradient id="paint20_linear_0_4530" x1="318.769" y1="92.1818" x2="501.445" y2="92.1818" gradientUnits="userSpaceOnUse">
<stop stop-color="#DAE3FE"/>
<stop offset="1" stop-color="#E9EFFD"/>
</linearGradient>
<linearGradient id="paint21_linear_0_4530" x1="-150.869" y1="135.144" x2="1511.03" y2="135.144" gradientUnits="userSpaceOnUse">
<stop stop-color="#B37CFF"/>
<stop offset="1" stop-color="#F895E7"/>
</linearGradient>
<linearGradient id="paint22_linear_0_4530" x1="323.42" y1="98.002" x2="891.174" y2="548.649" gradientUnits="userSpaceOnUse">
<stop stop-color="#19042C"/>
<stop offset="1" stop-color="#540494"/>
</linearGradient>
<linearGradient id="paint23_linear_0_4530" x1="-4.18356" y1="52.3823" x2="1392.7" y2="52.3823" gradientUnits="userSpaceOnUse">
<stop stop-color="#B37CFF"/>
<stop offset="1" stop-color="#F895E7"/>
</linearGradient>
<linearGradient id="paint24_linear_0_4530" x1="393.144" y1="16.4389" x2="960.905" y2="467.086" gradientUnits="userSpaceOnUse">
<stop stop-color="#540494"/>
<stop offset="1" stop-color="#540494"/>
</linearGradient>
<linearGradient id="paint25_linear_0_4530" x1="1014.98" y1="94.6042" x2="1216.11" y2="94.6042" gradientUnits="userSpaceOnUse">
<stop stop-color="#DAE3FE"/>
<stop offset="1" stop-color="#E9EFFD"/>
</linearGradient>
<linearGradient id="paint26_linear_0_4530" x1="-150.872" y1="137.147" x2="1511.03" y2="137.147" gradientUnits="userSpaceOnUse">
<stop stop-color="#B37CFF"/>
<stop offset="1" stop-color="#F895E7"/>
</linearGradient>
<linearGradient id="paint27_linear_0_4530" x1="1291.66" y1="99.4556" x2="906.989" y2="196.444" gradientUnits="userSpaceOnUse">
<stop stop-color="#19042C"/>
<stop offset="1" stop-color="#540494"/>
</linearGradient>
<linearGradient id="paint28_linear_0_4530" x1="-4.18416" y1="53.41" x2="1392.7" y2="53.41" gradientUnits="userSpaceOnUse">
<stop stop-color="#B37CFF"/>
<stop offset="1" stop-color="#F895E7"/>
</linearGradient>
<linearGradient id="paint29_linear_0_4530" x1="730.756" y1="-60.9016" x2="1433.25" y2="162.844" gradientUnits="userSpaceOnUse">
<stop stop-color="#19042C"/>
<stop offset="1" stop-color="#540494"/>
</linearGradient>
<clipPath id="clip0_0_4530">
<rect width="1794.41" height="269.51" fill="white" transform="translate(-224.212 0.490234)"/>
</clipPath>
</defs>
</svg>
