<svg width="602" height="470" viewBox="0 0 602 470" fill="none" xmlns="http://www.w3.org/2000/svg">
<g clip-path="url(#clip0_0_1959)">
<path d="M126.714 53.6362L91.0485 96.455L90.7385 96.838L69.4855 122.302C101.11 127.773 121.523 93.5831 126.714 53.6362Z" fill="#C1C1C0"/>
<path d="M295.617 412.256L352.285 598H437.817L366.667 433.358L295.617 412.256Z" fill="#0A1629"/>
<path d="M150.407 476.874C154.188 475.583 158.071 474.93 161.968 474.932C168.376 474.941 174.717 476.698 180.621 480.101C182.481 465.578 184.932 446.609 187.742 425.234L144.026 401.644C146.326 429.433 148.557 455.471 150.407 476.874Z" fill="#061733"/>
<path d="M94.609 525.081L95.0391 524.999C97.7727 524.451 100.56 524.683 103.224 525.681C105.889 526.679 108.373 528.421 110.521 530.797C112.344 523.434 114.83 516.41 117.922 509.887C115.352 480.771 111.181 432.756 107.041 381.677L46.1423 348.855L32.6304 386.463L-14.1762 598.055H82.2173L77.6967 556.275C76.9284 549.075 78.2762 541.752 81.4454 535.906C84.6145 530.061 89.3473 526.169 94.609 525.081Z" fill="#061733"/>
<path d="M231.128 448.661L221.037 443.19C217.036 473.387 213.976 497.729 212.466 509.668C216.335 506.641 220.837 505.481 225.247 506.372L225.667 506.455C230.926 507.543 235.656 511.43 238.826 517.269C241.997 523.108 243.349 530.424 242.59 537.622L236.129 598.014H262.132L231.178 448.661H231.128Z" fill="#061733"/>
<path d="M446.488 468.737C448.329 469.161 485.494 526.066 531.93 598.014H602L426.385 310.44L400.272 361.3C425.155 421.802 444.748 468.299 446.488 468.737Z" fill="#0A1629"/>
<path d="M46.1022 348.814L-3.60472 369.67C-5.28495 374.237 -36.7994 471.048 -78.0551 598.055H-14.1762L32.6304 386.463L46.1022 348.814Z" fill="#16254E"/>
<path d="M295.617 412.256L231.188 448.661L262.122 598H352.285L295.617 412.256Z" fill="#16254E"/>
<path d="M446.488 468.737C444.748 468.299 425.155 421.801 400.272 361.3L366.657 433.344L437.817 597.986H531.93C485.524 526.065 448.329 469.161 446.488 468.737Z" fill="#132242"/>
<path d="M171.38 0.0683594L170.51 1.09404L170.16 1.5043L126.714 53.6363C121.523 93.5832 101.11 127.773 69.4855 122.302L-80.4454 302.33L-80.6955 302.631L-3.60471 369.642C1.37598 356.062 168.779 5.53866 171.38 0.0683594Z" fill="#EAEAEA"/>
<path d="M-3.60472 369.67L46.1022 348.814L171.34 0.0820312C168.779 5.53866 1.37598 356.062 -3.60472 369.67Z" fill="#C1C1C0"/>
<path d="M46.1423 348.814L107.041 381.677L144.026 401.63L187.742 425.22L221.077 443.204V443.218L231.168 448.661H231.188L222.707 407.757L171.42 285.81V0L171.4 0.0273515L171.39 0.0410273V0.0683788L46.1423 348.814Z" fill="#EAEAEA"/>
<path d="M222.707 407.757L231.188 448.661L295.617 412.256L289.596 392.522L221.587 244.659L171.42 0V285.81L222.707 407.757Z" fill="#C1C1C0"/>
<path d="M289.596 392.522L295.617 412.256L366.667 433.358V433.344L328.602 345.258L288.476 84.5983L171.42 0L221.587 244.659L289.596 392.522Z" fill="#999999"/>
<path d="M366.657 433.344L400.272 361.3C354.145 249.036 290.026 88.4957 288.506 84.6802L328.602 345.217L366.657 433.344Z" fill="#848484"/>
<path d="M426.385 310.44L288.506 84.6802C290.026 88.4957 354.165 249.036 400.272 361.3L426.385 310.44Z" fill="#999999"/>
<path d="M225.707 506.482L225.287 506.4C220.877 505.508 216.375 506.669 212.506 509.696C214.016 497.757 217.116 473.414 221.077 443.218L187.742 425.234C184.932 446.609 182.481 465.578 180.621 480.101C174.717 476.698 168.376 474.941 161.968 474.932C158.071 474.93 154.188 475.583 150.407 476.874C148.557 455.471 146.326 429.433 144.026 401.657L107.021 381.69C111.161 432.769 115.332 480.785 117.902 509.901C114.81 516.424 112.324 523.448 110.501 530.811C108.353 528.435 105.869 526.693 103.204 525.695C100.54 524.697 97.7527 524.465 95.0191 525.012L94.589 525.095C89.3333 526.183 84.6055 530.069 81.4372 535.905C78.2688 541.741 76.917 549.054 77.6767 556.248L82.1973 598.027H236.129L242.66 537.662C243.422 530.457 242.066 523.131 238.889 517.288C235.713 511.445 230.973 507.56 225.707 506.482Z" fill="#061733"/>
<path style="mix-blend-mode:overlay" d="M225.707 506.482L225.287 506.4C220.877 505.508 216.375 506.669 212.506 509.696C214.016 497.757 217.116 473.414 221.077 443.218L187.742 425.234C184.932 446.609 182.481 465.578 180.621 480.101C174.717 476.698 168.376 474.941 161.968 474.932C158.071 474.93 154.188 475.583 150.407 476.874C148.557 455.471 146.326 429.433 144.026 401.657L107.021 381.69C111.161 432.769 115.332 480.785 117.902 509.901C114.81 516.424 112.324 523.448 110.501 530.811C108.353 528.435 105.869 526.693 103.204 525.695C100.54 524.697 97.7527 524.465 95.0191 525.012L94.589 525.095C89.3333 526.183 84.6055 530.069 81.4372 535.905C78.2688 541.741 76.917 549.054 77.6767 556.248L82.1973 598.027H236.129L242.66 537.662C243.422 530.457 242.066 523.131 238.889 517.288C235.713 511.445 230.973 507.56 225.707 506.482Z" fill="url(#paint0_linear_0_1959)"/>
<path d="M187.742 425.221L221.077 443.218V443.204L187.742 425.221Z" fill="#EAEAEA"/>
<path style="mix-blend-mode:overlay" d="M187.742 425.221L221.077 443.218V443.204L187.742 425.221Z" fill="url(#paint1_linear_0_1959)"/>
<path d="M107.041 381.677L144.026 401.63L107.041 381.677Z" fill="#EAEAEA"/>
<path style="mix-blend-mode:overlay" d="M107.041 381.677L144.026 401.63L107.041 381.677Z" fill="url(#paint2_linear_0_1959)"/>
</g>
<defs>
<linearGradient id="paint0_linear_0_1959" x1="160.158" y1="1100.28" x2="160.158" y2="152.485" gradientUnits="userSpaceOnUse">
<stop stop-color="white"/>
<stop offset="1"/>
</linearGradient>
<linearGradient id="paint1_linear_0_1959" x1="204.414" y1="1100.28" x2="204.414" y2="152.485" gradientUnits="userSpaceOnUse">
<stop stop-color="white"/>
<stop offset="1"/>
</linearGradient>
<linearGradient id="paint2_linear_0_1959" x1="125.533" y1="1100.28" x2="125.533" y2="152.485" gradientUnits="userSpaceOnUse">
<stop stop-color="white"/>
<stop offset="1"/>
</linearGradient>
<clipPath id="clip0_0_1959">
<rect width="858" height="598" fill="white" transform="translate(-256)"/>
</clipPath>
</defs>
</svg>
