<svg width="440" height="648" viewBox="0 0 440 648" fill="none" xmlns="http://www.w3.org/2000/svg">
<rect x="1" y="1" width="438" height="646" rx="27" fill="white"/>
<g clip-path="url(#clip0_209_140775)">
<path d="M301.439 273.331C306.072 226.667 271.999 185.083 225.336 180.45C178.672 175.817 137.088 209.89 132.455 256.553C127.822 303.217 161.895 344.801 208.558 349.434C255.222 354.067 296.806 319.994 301.439 273.331Z" fill="#540494"/>
<g style="mix-blend-mode:multiply">
<path d="M249.87 217.2C249.552 216.861 249.255 216.479 248.917 216.162C240.355 207.622 228.916 202.583 216.837 202.029C204.757 201.475 192.905 205.447 183.598 213.167C174.291 220.887 168.199 231.802 166.511 243.776C164.824 255.75 167.663 267.923 174.475 277.914V316.046L207.776 349.348C210.809 349.678 213.857 349.848 216.907 349.856C238.699 349.839 259.649 341.443 275.423 326.407C291.196 311.371 300.584 290.846 301.644 269.08L249.87 217.2Z" fill="#B3B3B3"/>
</g>
<path d="M186.105 271.347H174.474V316.025H186.105V271.347Z" fill="#FFD786"/>
<path d="M208.433 256.285H196.803V316.025H208.433V256.285Z" fill="#B571FF"/>
<path d="M230.783 284.121H219.152V316.025H230.783V284.121Z" fill="#7371F3"/>
<path d="M253.132 237.664H241.481V316.025H253.132V237.664Z" fill="#739DB7"/>
</g>
<rect x="1" y="1" width="438" height="646" rx="27" stroke="#540494" stroke-width="2"/>
<defs>
<clipPath id="clip0_209_140775">
<rect width="176" height="198.328" fill="white" transform="translate(132 180)"/>
</clipPath>
</defs>
</svg>
