<svg width="440" height="648" viewBox="0 0 440 648" fill="none" xmlns="http://www.w3.org/2000/svg">
<rect x="1" y="1" width="438" height="646" rx="27" fill="white"/>
<path d="M305.005 283.344C315.993 236.646 287.043 189.882 240.344 178.895C193.646 167.907 146.882 196.857 135.895 243.555C124.907 290.254 153.857 337.018 200.555 348.005C247.254 358.993 294.018 330.043 305.005 283.344Z" fill="#540494"/>
<g style="mix-blend-mode:multiply">
<path d="M276.417 223.248C276.417 223.248 274.835 228.905 274.25 228.341C273.665 227.778 273.144 227.192 272.559 226.629L270.869 224.938L269.157 223.248C268.593 222.663 268.03 222.099 267.444 221.536C266.859 220.972 266.339 220.409 265.754 219.845C259.97 213.865 253.052 209.098 245.404 205.823C237.756 202.548 229.532 200.83 221.213 200.77C212.893 200.71 204.646 202.31 196.951 205.475C189.257 208.64 182.272 213.307 176.402 219.204C170.533 225.101 165.899 232.108 162.769 239.817C159.64 247.525 158.079 255.781 158.177 264.1C158.276 272.419 160.032 280.635 163.342 288.267C166.653 295.9 171.452 302.796 177.459 308.552L219.179 350.272H220.458C233.245 350.266 245.874 347.438 257.442 341.989C269.009 336.539 279.232 328.603 287.378 318.746C295.524 308.89 301.394 297.357 304.568 284.97C307.742 272.582 308.143 259.647 305.74 247.088L276.417 223.248Z" fill="#B3B3B3"/>
</g>
<path d="M282.074 263.429C282.074 275.536 278.484 287.372 271.759 297.44C265.033 307.507 255.473 315.354 244.288 319.99C233.103 324.625 220.795 325.84 208.92 323.481C197.045 321.122 186.135 315.295 177.571 306.737C169.007 298.179 163.172 287.274 160.805 275.4C158.438 263.526 159.644 251.217 164.271 240.029C168.899 228.841 176.739 219.276 186.802 212.543C196.865 205.81 208.698 202.212 220.805 202.204C228.849 202.198 236.815 203.777 244.248 206.852C251.682 209.926 258.436 214.435 264.126 220.121C269.816 225.807 274.33 232.558 277.409 239.989C280.489 247.42 282.074 255.385 282.074 263.429Z" fill="white"/>
<path d="M220.805 326.085C208.415 326.076 196.305 322.394 186.007 315.505C175.709 308.615 167.685 298.826 162.949 287.377C158.214 275.927 156.979 263.33 159.402 251.179C161.824 239.028 167.795 227.868 176.559 219.11C185.323 210.351 196.488 204.388 208.641 201.974C220.793 199.56 233.389 200.803 244.836 205.547C256.282 210.291 266.065 218.321 272.948 228.624C279.83 238.927 283.504 251.039 283.504 263.429C283.487 280.049 276.874 295.982 265.118 307.73C253.362 319.478 237.424 326.079 220.805 326.085ZM220.805 203.743C208.973 203.743 197.408 207.251 187.57 213.825C177.733 220.399 170.066 229.742 165.539 240.673C161.013 251.605 159.829 263.633 162.139 275.237C164.449 286.841 170.148 297.499 178.516 305.864C186.883 314.228 197.544 319.924 209.148 322.229C220.753 324.535 232.781 323.347 243.711 318.816C254.64 314.286 263.981 306.616 270.551 296.776C277.121 286.936 280.626 275.369 280.622 263.538C280.599 247.682 274.288 232.483 263.075 221.274C251.862 210.064 236.66 203.76 220.805 203.743Z" fill="#B571FF"/>
<path d="M270.869 263.429C270.873 273.322 267.944 282.993 262.452 291.221C256.96 299.448 249.152 305.863 240.015 309.654C230.878 313.444 220.822 314.44 211.119 312.516C201.415 310.592 192.5 305.834 185.501 298.844C178.502 291.854 173.732 282.945 171.795 273.244C169.859 263.543 170.842 253.486 174.621 244.344C178.399 235.202 184.804 227.386 193.024 221.883C201.245 216.381 210.912 213.439 220.805 213.43C227.375 213.425 233.883 214.714 239.955 217.224C246.027 219.733 251.546 223.415 256.195 228.058C260.844 232.701 264.533 238.215 267.051 244.284C269.568 250.353 270.866 256.859 270.869 263.429Z" fill="#9532FF"/>
<path d="M261.225 263.429C261.225 271.413 258.858 279.218 254.423 285.857C249.988 292.495 243.685 297.671 236.31 300.728C228.934 303.785 220.818 304.587 212.987 303.033C205.156 301.478 197.962 297.637 192.313 291.995C186.665 286.352 182.816 279.162 181.253 271.333C179.69 263.503 180.484 255.386 183.533 248.008C186.583 240.629 191.751 234.32 198.385 229.879C205.019 225.437 212.821 223.062 220.805 223.053C226.11 223.05 231.364 224.092 236.266 226.12C241.169 228.147 245.624 231.121 249.377 234.87C253.13 238.619 256.108 243.071 258.141 247.971C260.174 252.871 261.222 258.124 261.225 263.429Z" fill="#B571FF"/>
<path d="M251.797 263.429C251.801 269.549 249.991 275.533 246.595 280.624C243.198 285.716 238.369 289.686 232.717 292.033C227.065 294.38 220.843 294.999 214.84 293.81C208.836 292.622 203.319 289.681 198.987 285.358C194.655 281.034 191.702 275.524 190.501 269.523C189.3 263.522 189.906 257.299 192.241 251.642C194.576 245.985 198.536 241.147 203.62 237.74C208.705 234.333 214.685 232.511 220.805 232.502C224.871 232.496 228.898 233.292 232.657 234.843C236.415 236.395 239.831 238.672 242.709 241.544C245.587 244.416 247.871 247.827 249.431 251.582C250.99 255.337 251.794 259.363 251.797 263.429Z" fill="#9532FF"/>
<path d="M241.979 263.429C241.984 267.607 240.749 271.693 238.432 275.17C236.114 278.647 232.818 281.359 228.96 282.962C225.102 284.566 220.854 284.99 216.755 284.181C212.656 283.372 208.889 281.365 205.93 278.415C202.971 275.465 200.952 271.704 200.13 267.607C199.308 263.511 199.719 259.262 201.312 255.399C202.904 251.536 205.605 248.231 209.075 245.903C212.545 243.575 216.627 242.328 220.805 242.32C223.582 242.314 226.332 242.856 228.9 243.914C231.467 244.972 233.801 246.525 235.767 248.486C237.734 250.446 239.295 252.775 240.36 255.339C241.426 257.903 241.976 260.652 241.979 263.429Z" fill="#EAEAEA"/>
<path d="M232.833 263.429C232.829 265.797 232.124 268.11 230.806 270.077C229.488 272.044 227.618 273.577 225.43 274.482C223.242 275.387 220.835 275.624 218.513 275.162C216.191 274.701 214.057 273.562 212.381 271.89C210.706 270.217 209.563 268.085 209.097 265.764C208.632 263.443 208.864 261.035 209.765 258.846C210.666 256.656 212.196 254.783 214.161 253.462C216.125 252.14 218.437 251.431 220.805 251.422C222.385 251.414 223.951 251.718 225.413 252.318C226.875 252.918 228.203 253.802 229.322 254.918C230.44 256.035 231.326 257.362 231.929 258.822C232.532 260.283 232.839 261.849 232.833 263.429Z" fill="#2D2D34"/>
<path d="M284.761 237.92L277.956 234.452C278.39 234.137 278.691 233.671 278.802 233.146C278.912 232.621 278.824 232.074 278.555 231.61C278.285 231.146 277.853 230.799 277.342 230.636C276.831 230.472 276.277 230.504 275.788 230.725L276.417 223.248L264.454 237.226L220.025 262.822C219.778 262.955 219.595 263.18 219.514 263.448C219.432 263.716 219.46 264.005 219.591 264.252C219.725 264.504 219.952 264.692 220.224 264.778C220.496 264.863 220.79 264.838 221.043 264.707L265.971 240.867L284.761 237.92Z" fill="#E1D172"/>
<rect x="1" y="1" width="438" height="646" rx="27" stroke="#540494" stroke-width="2"/>
</svg>
