<svg width="203" height="212" viewBox="0 0 203 212" fill="none" xmlns="http://www.w3.org/2000/svg">
<g clip-path="url(#clip0_222_37069)">
<g clip-path="url(#clip1_222_37069)">
<path d="M138.839 145.979L44.0236 167.112C43.4768 167.238 42.9106 167.254 42.3573 167.161C41.8041 167.068 41.2746 166.867 40.7993 166.569C40.3239 166.271 39.9121 165.882 39.5872 165.424C39.2623 164.967 39.0308 164.45 38.906 163.903V163.873L8.15622 25.7982C7.90991 24.6947 8.11158 23.5386 8.71695 22.5838C9.32232 21.6289 10.2819 20.9533 11.385 20.7053L106.21 -0.427418C107.315 -0.673695 108.473 -0.471487 109.428 0.134805C110.384 0.741096 111.06 1.70191 111.308 2.80628L142.078 140.881C142.324 141.985 142.122 143.141 141.517 144.096C140.912 145.05 139.952 145.726 138.849 145.974L138.839 145.979Z" fill="#E0E0E0"/>
<path d="M138.839 145.979L139.156 145.89C139.463 145.79 139.759 145.659 140.041 145.499C140.502 145.229 140.91 144.875 141.242 144.456C141.606 143.996 141.871 143.465 142.02 142.898C142.169 142.33 142.199 141.738 142.108 141.158C142.028 140.698 141.905 140.214 141.796 139.709C141.569 138.721 141.302 137.593 141.054 136.397C140.517 133.997 139.899 131.24 139.2 128.125C136.416 115.679 132.392 97.6714 127.417 75.4163C124.945 64.2912 122.216 52.103 119.294 39.0149C117.837 32.475 116.329 25.7175 114.769 18.7425C113.995 15.2583 113.207 11.723 112.406 8.13658C112.001 6.34667 111.6 4.54193 111.19 2.7273C110.968 1.8224 110.447 1.01862 109.713 0.445454C108.978 -0.127709 108.072 -0.436873 107.14 -0.432226C106.676 -0.420884 106.214 -0.354494 105.766 -0.234448L104.381 0.0721123L101.597 0.695117L95.9803 1.94607L84.5487 4.49743L60.9931 9.76331L11.4295 20.7994C10.3818 21.0316 9.46387 21.6585 8.86629 22.5498C8.26872 23.4411 8.03745 24.5283 8.22053 25.5857C8.67048 27.6871 9.15504 29.7934 9.61487 31.8899C10.551 36.0762 11.4789 40.2379 12.3986 44.3747L17.8376 68.8055C21.4075 84.8207 24.8489 100.247 28.1271 114.982C31.4053 129.717 34.5153 143.66 37.4326 156.768C37.7952 158.416 38.1561 160.038 38.5154 161.633C38.6984 162.434 38.8616 163.245 39.0544 164.031C39.261 164.802 39.6835 165.498 40.2721 166.037C40.8608 166.575 41.5911 166.935 42.3771 167.072C42.7645 167.135 43.1585 167.147 43.5489 167.107C43.9346 167.057 44.3252 166.964 44.7109 166.875L49.3142 165.851L66.7831 161.965L119.501 150.251L133.84 147.077L137.568 146.256L138.839 145.979L137.573 146.276L133.845 147.116L119.506 150.325L66.7979 162.108L49.3488 166.009L44.7455 167.038C44.3598 167.122 43.9742 167.221 43.5687 167.275C43.1633 167.316 42.7542 167.303 42.3524 167.235C41.5343 167.093 40.7739 166.721 40.1607 166.161C39.5475 165.601 39.1071 164.878 38.8912 164.076C38.6934 163.28 38.5303 162.479 38.3473 161.678C37.988 160.073 37.6254 158.451 37.2595 156.812C34.3423 143.724 31.2223 129.741 27.9392 115.027C24.656 100.312 21.2147 84.8652 17.6398 68.85L12.2058 44.4242C11.2861 40.2906 10.3582 36.1257 9.42204 31.9295C8.95726 29.833 8.47764 27.7365 8.02275 25.6153C7.83241 24.5077 8.07606 23.3693 8.7031 22.4365C9.33014 21.5038 10.2924 20.8484 11.3899 20.6066L60.9536 9.55565L84.5239 4.32437L95.9507 1.77796L101.568 0.527004L104.356 -0.125668L105.741 -0.432226C106.198 -0.5518 106.668 -0.614901 107.14 -0.620117C108.105 -0.617868 109.042 -0.294473 109.803 0.299083C110.564 0.892639 111.106 1.72259 111.343 2.65808C111.748 4.47765 112.154 6.27745 112.554 8.0723L114.938 18.6634C116.484 25.6351 117.988 32.3926 119.452 38.9358C122.364 52.0239 125.074 64.2121 127.551 75.3421C132.495 97.5923 136.5 115.615 139.269 128.065C139.957 131.175 140.57 133.944 141.104 136.337C141.366 137.539 141.598 138.641 141.836 139.655C141.944 140.15 142.068 140.644 142.142 141.104C142.216 141.546 142.216 141.997 142.142 142.439C142.028 143.175 141.723 143.869 141.257 144.451C140.921 144.87 140.51 145.224 140.046 145.495C139.76 145.653 139.458 145.78 139.146 145.875L138.839 145.979Z" fill="#263238"/>
<g opacity="0.3">
<path d="M48.8297 162.222L135.22 142.474L132.49 125.544L127.591 116.055L44.9482 148.516L48.8297 162.222Z" fill="black"/>
</g>
<g opacity="0.3">
<path d="M84.8998 4.63574L88.1681 10.0302L88.801 12.893L86.5859 13.3875L84.8998 4.63574Z" fill="black"/>
</g>
<path d="M13.076 26.5991L43.0496 161.089L137 140.154L131.64 116.104L107.026 5.65918L13.076 26.5991Z" fill="white"/>
<path d="M13.076 26.5991L107.021 5.58008H107.1V5.66413C115.437 43.0395 125.835 89.6809 137.089 140.154V140.258H136.99L43.0446 161.188H42.9556V161.094C25.3087 81.6758 13.254 27.4051 13.071 26.6041C13.254 27.4248 25.3878 81.6807 43.1385 161.094L43.0248 161.025L136.97 140.075L136.891 140.199C125.652 89.7353 115.264 43.0939 106.942 5.70864L107.041 5.77291L13.076 26.5991Z" fill="#263238"/>
<path d="M39.5291 10.599L80.9639 1.35773C81.7742 1.17782 82.6229 1.32665 83.3236 1.77158C84.0244 2.2165 84.5201 2.92119 84.7019 3.73108L87.0951 14.4755L39.5389 25.0913L37.1508 14.342C36.9691 13.5323 37.1159 12.6836 37.5589 11.982C38.002 11.2804 38.7051 10.783 39.5142 10.599H39.5291Z" fill="#263238"/>
<path d="M65.1465 -0.545898L53.0474 2.14885L56.7706 12.2059L65.8833 10.1738L65.1465 -0.545898Z" fill="#263238"/>
<path d="M80.9639 1.35751C80.9639 1.41189 71.7127 3.52319 60.2761 6.07455C48.8395 8.62591 39.5488 10.6581 39.534 10.6037C39.5191 10.5493 48.7851 8.43802 60.2316 5.88666C71.6781 3.3353 80.9342 1.31795 80.9639 1.35751Z" fill="#455A64"/>
<path d="M40.1224 22.619C40.068 22.619 39.5884 20.6907 39.0543 18.2876C38.5203 15.8846 38.1248 13.9217 38.1841 13.9068C38.2435 13.892 38.7181 15.8352 39.2521 18.2431C39.7861 20.6511 40.1767 22.619 40.1224 22.619Z" fill="#455A64"/>
<path d="M84.8255 11.563C84.4292 10.2621 84.0992 8.94185 83.8367 7.60745C83.5098 6.30291 83.2491 4.9827 83.0554 3.65186C83.4525 4.9526 83.7826 6.27286 84.0443 7.60745C84.3708 8.91206 84.6316 10.2323 84.8255 11.563Z" fill="#455A64"/>
<path d="M82.9418 13.9117C82.9418 13.9661 73.4434 16.1318 61.7052 18.7474C49.9669 21.363 40.4438 23.4447 40.4191 23.3853C40.3944 23.326 49.9125 21.1653 61.6804 18.5496C73.4483 15.934 82.9121 13.8573 82.9418 13.9117Z" fill="#455A64"/>
<path d="M57.9176 53.0328C57.9176 53.0921 51.5145 54.5656 43.5786 56.3357C35.6427 58.1058 29.2396 59.4854 29.205 59.431C29.1704 59.3766 35.6328 57.8982 43.544 56.133C51.4552 54.3678 57.9028 52.9784 57.9176 53.0328Z" fill="#263238"/>
<path d="M105.736 47.6481C105.736 47.7074 88.9889 51.4899 68.306 56.0982C47.6232 60.7065 30.8367 64.4 30.8268 64.3456C30.8169 64.2912 47.5688 60.5037 68.2615 55.8955C88.9542 51.2872 105.726 47.5937 105.736 47.6481Z" fill="#263238"/>
<path d="M106.769 52.2861C106.769 52.3405 90.0173 56.123 69.3345 60.7362C48.6517 65.3495 31.8701 69.038 31.8552 68.9787C31.8404 68.9194 48.6022 65.1418 69.29 60.5335C89.9778 55.9253 106.754 52.2169 106.769 52.2861Z" fill="#263238"/>
<path d="M107.798 56.8941C107.798 56.9485 91.0507 60.7311 70.3679 65.3393C49.6851 69.9476 32.8985 73.6461 32.8837 73.5867C32.8688 73.5274 49.6307 69.7498 70.3234 65.1366C91.0161 60.5234 107.783 56.8398 107.798 56.8941Z" fill="#263238"/>
<path d="M108.826 61.5173C108.826 61.5717 92.0792 65.3542 71.3964 69.9625C50.7136 74.5708 33.927 78.2643 33.9171 78.2099C33.9072 78.1555 50.6592 74.373 71.3519 69.7598C92.0446 65.1466 108.816 61.458 108.826 61.5173Z" fill="#263238"/>
<path d="M109.86 66.1304C109.86 66.1897 93.1076 69.9722 72.4248 74.5805C51.7419 79.1888 34.9504 82.8873 34.9504 82.8329C34.9504 82.7785 51.6974 78.9959 72.3852 74.3827C93.073 69.7695 109.845 66.0809 109.86 66.1304Z" fill="#263238"/>
<path d="M49.4725 98.6703C49.4524 98.6208 49.4375 98.5695 49.428 98.517L49.3192 98.0769C49.2252 97.6764 49.0917 97.1177 48.9286 96.4205C48.5973 94.9915 48.1325 92.9841 47.5787 90.5811L47.6875 90.6503L39.5785 92.4699L39.6577 92.3463V92.4501L39.6873 92.5885L39.7516 92.8654L39.8703 93.4143C39.9543 93.7801 40.0334 94.1411 40.1126 94.5021C40.2708 95.2141 40.429 95.9162 40.5773 96.5985C40.8789 97.9582 41.1608 99.2438 41.4228 100.426L41.3141 100.356L47.1733 99.0955L48.8396 98.7494L49.2846 98.6653L49.4428 98.6356C49.3944 98.642 49.3475 98.6571 49.3044 98.6801L48.8841 98.784L47.2524 99.1697L41.3783 100.569H41.2893V100.48L40.429 96.6578C40.2757 95.9755 40.1175 95.2734 39.9345 94.5614C39.8554 94.2004 39.7714 93.8395 39.6923 93.4736C39.6478 93.2956 39.6082 93.1077 39.5687 92.9248L39.5044 92.6479L39.4747 92.5094V92.3809C39.4055 92.4946 39.5687 92.2325 39.5538 92.2572L47.6677 90.4624H47.7567V90.5514L49.0324 96.4848C49.1758 97.177 49.2895 97.7308 49.3736 98.1264C49.4082 98.3044 49.4329 98.4428 49.4576 98.5565C49.4674 98.5937 49.4724 98.6319 49.4725 98.6703Z" fill="#263238"/>
<path d="M109.747 78.6807L53.1752 91.2847L54.2268 96.0047L110.799 83.4007L109.747 78.6807Z" fill="#E0E0E0"/>
<path d="M52.6072 112.742C52.5872 112.691 52.5723 112.638 52.5627 112.584C52.533 112.47 52.4984 112.322 52.4539 112.144C52.36 111.744 52.2265 111.19 52.0633 110.493C51.732 109.059 51.2672 107.032 50.7135 104.648L50.8222 104.717L42.7133 106.537C42.7133 106.567 42.8616 106.305 42.7924 106.418V106.547L42.8221 106.685L42.8863 106.962C42.9259 107.15 42.9654 107.333 43.0099 107.516L43.2473 108.599C43.4055 109.316 43.5637 110.013 43.7121 110.695C44.0137 112.055 44.2955 113.341 44.5576 114.522L44.4488 114.453L50.313 113.197L51.9743 112.851L52.4193 112.762C52.4706 112.746 52.5239 112.738 52.5775 112.737L52.444 112.777L52.0188 112.881L50.3871 113.271L44.4883 114.631H44.3993V114.542L43.539 110.72C43.3857 110.038 43.2275 109.336 43.0446 108.624C42.9654 108.268 42.8814 107.902 42.8023 107.541C42.7627 107.358 42.7182 107.175 42.6787 106.987L42.6144 106.71L42.5847 106.572V106.443L42.6638 106.315L50.7728 104.544H50.8618V104.628C51.3859 107.066 51.8507 109.079 52.1375 110.562C52.2809 111.254 52.3946 111.808 52.4786 112.203C52.5133 112.381 52.538 112.52 52.5627 112.634C52.5826 112.668 52.5975 112.704 52.6072 112.742Z" fill="#263238"/>
<path d="M112.876 92.754L56.3038 105.358L57.3554 110.078L113.928 97.474L112.876 92.754Z" fill="#E0E0E0"/>
<path d="M55.742 126.809C55.7375 126.754 55.7224 126.701 55.6975 126.651C55.6519 126.507 55.6156 126.36 55.5887 126.211C55.4948 125.811 55.3613 125.257 55.1981 124.56C54.8668 123.131 54.4021 121.099 53.8483 118.715L53.957 118.785L45.8283 120.604C45.8283 120.634 45.9766 120.372 45.9074 120.485V120.624L45.9371 120.762L46.0014 121.039C46.0409 121.227 46.0805 121.41 46.125 121.593L46.3623 122.676C46.5205 123.393 46.6788 124.09 46.8271 124.772L47.6726 128.599L47.5638 128.535L53.428 127.274L55.0893 126.928L55.5343 126.839H55.7173L55.5838 126.879L55.1586 126.982L53.5269 127.373L47.6281 128.733H47.5391V128.644C47.277 127.467 46.9853 126.172 46.6788 124.822C46.5255 124.139 46.3673 123.442 46.1843 122.725C46.1052 122.369 46.0211 122.008 45.942 121.642C45.9025 121.459 45.858 121.277 45.8184 121.094L45.7591 120.817L45.7245 120.678V120.52C45.6552 120.629 45.8184 120.367 45.8036 120.396L53.9175 118.602H54.0065V118.691L55.2822 124.624C55.4256 125.316 55.5393 125.87 55.6233 126.27C55.658 126.444 55.6876 126.582 55.7074 126.696C55.7235 126.732 55.7351 126.77 55.742 126.809Z" fill="#263238"/>
<path d="M116.019 106.825L59.447 119.429L60.4986 124.149L117.071 111.545L116.019 106.825Z" fill="#E0E0E0"/>
<path d="M41.6799 95.7679L42.5304 94.4279L45.057 95.8322L48.3105 90.9272L49.5664 91.7975L45.3735 97.9781L41.6799 95.7679Z" fill="#540494"/>
<path d="M44.7109 109.365L45.5614 108.025L48.088 109.429L51.3366 104.524L52.5974 105.395L48.3995 111.57L44.7109 109.365Z" fill="#540494"/>
<path d="M47.8209 123.303L48.6714 121.968L51.1931 123.373L54.4465 118.468L55.7024 119.333L51.5095 125.514L47.8209 123.303Z" fill="#540494"/>
<path d="M73.7153 140.792C73.7153 140.852 68.9488 141.964 63.0451 143.264C57.1414 144.565 52.3452 145.598 52.3353 145.544C52.3255 145.49 57.0969 144.377 63.0006 143.072C68.9043 141.766 73.7005 140.743 73.7153 140.792Z" fill="#263238"/>
<path d="M84.3658 138.251C83.0748 138.647 81.7645 138.977 80.4398 139.24C79.1352 139.565 77.815 139.824 76.4843 140.016C77.7735 139.62 79.0822 139.29 80.4052 139.027C82.5759 138.547 84.3559 138.196 84.3658 138.251Z" fill="#263238"/>
<path d="M119.64 127.15C119.64 127.205 115.353 128.213 110.043 129.395C104.732 130.577 100.411 131.492 100.401 131.437C100.391 131.383 104.683 130.379 109.998 129.192C115.313 128.006 119.63 127.096 119.64 127.15Z" fill="#263238"/>
<path d="M115.051 140.165C115.09 140.036 115.122 139.906 115.145 139.774C115.21 139.394 115.19 139.004 115.086 138.632C114.908 138.044 114.68 137.474 114.404 136.926C114.01 136.2 113.779 135.397 113.726 134.572C113.738 134.065 113.857 133.566 114.073 133.107C114.289 132.648 114.599 132.24 114.982 131.907C115.432 131.534 115.969 131.281 116.544 131.175C117.119 131.068 117.712 131.111 118.265 131.299C118.874 131.482 119.417 131.838 119.828 132.323C120.047 132.583 120.177 132.907 120.199 133.247C120.203 133.43 120.15 133.609 120.046 133.76C119.942 133.91 119.793 134.023 119.62 134.083C119.297 134.189 118.966 134.27 118.631 134.325L117.642 134.528C116.98 134.661 116.307 134.78 115.615 134.869C114.274 135.063 112.913 135.071 111.57 134.894C110.964 134.763 110.33 134.866 109.795 135.181C109.37 135.608 109.01 136.096 108.727 136.629C108.555 136.892 108.316 137.103 108.035 137.242C107.749 137.369 107.426 137.383 107.13 137.282C106.622 137.056 106.138 136.777 105.686 136.451C105.476 136.313 105.238 136.224 104.989 136.189C104.756 136.163 104.521 136.221 104.327 136.352C103.985 136.665 103.702 137.037 103.491 137.45C103.266 137.805 102.959 138.1 102.596 138.31C102.233 138.52 101.824 138.639 101.405 138.657C100.77 138.682 100.151 138.462 99.6739 138.043C99.3735 137.785 99.138 137.46 98.9866 137.094C98.9316 136.969 98.8934 136.838 98.8729 136.703C98.8729 136.703 98.9174 136.837 99.0262 137.079C99.1854 137.429 99.4242 137.737 99.7234 137.979C100.188 138.373 100.786 138.575 101.395 138.543C101.795 138.522 102.183 138.405 102.528 138.201C102.873 137.997 103.162 137.712 103.372 137.371C103.591 136.939 103.886 136.551 104.243 136.224C104.468 136.067 104.741 135.996 105.014 136.021C105.285 136.061 105.544 136.157 105.775 136.303C106.219 136.617 106.693 136.887 107.19 137.109C107.444 137.194 107.72 137.182 107.966 137.074C108.219 136.951 108.43 136.757 108.574 136.516C108.866 135.968 109.24 135.468 109.682 135.032C109.954 134.835 110.276 134.715 110.611 134.686C110.94 134.651 111.271 134.651 111.6 134.686C112.927 134.867 114.273 134.867 115.6 134.686C116.282 134.597 116.95 134.473 117.613 134.345L118.601 134.147C118.919 134.087 119.232 134.01 119.541 133.915C119.676 133.872 119.794 133.786 119.876 133.67C119.958 133.554 120 133.414 119.996 133.272C119.972 132.976 119.858 132.695 119.669 132.466C119.279 132.002 118.765 131.659 118.186 131.477C117.662 131.3 117.101 131.258 116.556 131.357C116.011 131.455 115.5 131.691 115.071 132.041C114.703 132.354 114.404 132.742 114.195 133.178C113.985 133.614 113.869 134.089 113.855 134.572C113.9 135.378 114.116 136.165 114.488 136.881C114.761 137.436 114.981 138.016 115.145 138.612C115.242 138.994 115.251 139.393 115.17 139.779C115.144 139.911 115.104 140.04 115.051 140.165Z" fill="#263238"/>
<path d="M125.272 133.836C125.188 133.869 125.102 133.896 125.014 133.915L124.263 134.093L121.504 134.73C119.18 135.274 115.966 136.036 112.431 136.931C108.895 137.826 105.706 138.691 103.407 139.324L100.678 140.075L99.931 140.273C99.8449 140.298 99.7574 140.318 99.6689 140.333C99.7487 140.289 99.8333 140.256 99.9211 140.234L100.653 140.001C101.291 139.799 102.215 139.507 103.362 139.185C105.662 138.513 108.841 137.628 112.381 136.713C115.921 135.798 119.135 135.077 121.474 134.577C122.641 134.325 123.59 134.127 124.248 133.999L125.005 133.855C125.093 133.841 125.182 133.835 125.272 133.836Z" fill="#263238"/>
<path d="M84.7167 25.3418L46.3149 33.8975L47.9224 41.1126L86.3242 32.5569L84.7167 25.3418Z" fill="#E0E0E0"/>
<path d="M121.044 142.429L133.45 207.973L144.787 187.023L166.276 199.636L143.467 135.813L121.044 142.429Z" fill="#540494"/>
<g opacity="0.3">
<path d="M125.217 164.472C126.398 164.694 127.616 164.626 128.765 164.274C129.914 163.922 130.96 163.296 131.813 162.449C132.945 161.282 133.697 159.69 135.121 158.909C136.402 158.207 137.979 158.306 139.388 158.696C140.797 159.087 142.122 159.735 143.532 160.101C144.922 160.455 146.369 160.529 147.788 160.318C149.208 160.108 150.571 159.617 151.799 158.874L148.219 148.936L131.605 146.859L123.694 156.378L125.217 164.472Z" fill="black"/>
</g>
<path d="M143.981 184.423C143.912 184.423 142.063 177.629 139.853 169.218C137.643 160.808 135.897 153.965 135.976 153.95C136.055 153.935 137.89 160.734 140.1 169.154C142.31 177.575 144.051 184.403 143.981 184.423Z" fill="#263238"/>
<path d="M122.859 145.835L110.453 211.38L99.1151 190.435L77.6263 203.043L100.435 139.22L122.859 145.835Z" fill="#540494"/>
<g opacity="0.3">
<path d="M93.6118 158.311C93.6118 158.311 97.1422 161.213 101.35 159.878C105.558 158.543 108.173 158.256 110.453 159.878C112.732 161.5 118.898 166.776 118.898 166.776L120.327 159.216L112.045 147.843L103.402 149.589L97.251 150.187L94.9617 154.523L93.6118 158.311Z" fill="black"/>
</g>
<path d="M195.597 86.6697C195.597 91.3719 189.589 95.4215 188.709 99.8666C187.804 104.445 191.79 110.482 190.044 114.7C188.299 118.918 181.144 120.431 178.608 124.243C176.071 128.055 177.406 135.195 174.158 138.448C170.909 141.702 163.774 140.332 159.952 142.898C156.13 145.465 154.696 152.555 150.409 154.335C146.197 156.081 140.159 152.095 135.576 153C131.126 153.88 127.081 159.888 122.379 159.888C117.677 159.888 113.622 153.88 109.177 153C104.599 152.095 98.5613 156.081 94.3437 154.335C90.126 152.59 88.6179 145.435 84.8057 142.898C80.9935 140.362 73.8537 141.697 70.5953 138.448C67.3368 135.2 68.7114 128.065 66.1452 124.243C63.579 120.421 56.4886 118.987 54.7284 114.7C52.9681 110.413 56.9682 104.45 56.0634 99.8666C55.1833 95.4165 49.1708 91.3719 49.1708 86.6697C49.1708 81.9675 55.1833 77.913 56.0634 73.4679C56.9682 68.8894 52.978 62.8521 54.7284 58.6345C56.4787 54.4168 63.6285 52.9038 66.1601 49.0966C68.6916 45.2893 67.3616 38.1445 70.6101 34.8861C73.8586 31.6277 80.9935 33.0022 84.8206 30.436C88.6476 27.8699 90.0716 20.7795 94.3585 19.0044C98.6454 17.2293 104.608 21.2442 109.192 20.3394C113.642 19.4593 117.692 13.4468 122.394 13.4468C127.096 13.4468 131.146 19.4593 135.591 20.3394C140.169 21.2442 146.206 17.254 150.424 19.0044C154.642 20.7547 156.155 27.9045 159.967 30.436C163.779 32.9676 170.919 31.6376 174.173 34.8861C177.426 38.1346 176.056 45.2695 178.623 49.0966C181.189 52.9236 188.279 54.3476 190.059 58.6345C191.839 62.9214 187.819 68.8844 188.724 73.4679C189.589 77.913 195.597 81.9527 195.597 86.6697Z" fill="#540494"/>
<path d="M105.246 45.6257C105.196 45.5619 105.152 45.4941 105.113 45.423L104.777 44.8198C104.485 44.2957 104.084 43.5243 103.61 42.5651C102.655 40.6466 101.419 37.9469 100.228 34.9011C99.036 31.8553 98.1213 29.0271 97.523 26.9899C97.2263 25.9565 96.9989 25.1209 96.8555 24.5177C96.7912 24.2507 96.7368 24.0232 96.6973 23.8452C96.6718 23.7687 96.6584 23.6886 96.6577 23.6079C96.6967 23.6798 96.7266 23.7562 96.7467 23.8354L96.9494 24.493C97.1423 25.1011 97.3944 25.9219 97.6961 26.9158C98.3388 28.9579 99.2832 31.7614 100.465 34.827C101.647 37.8925 102.863 40.5675 103.773 42.5058L104.866 44.7951L105.157 45.4181C105.193 45.4846 105.223 45.5541 105.246 45.6257Z" fill="#263238"/>
<path d="M111.763 43.1485C111.677 42.9758 111.612 42.7931 111.57 42.6046C111.466 42.2486 111.328 41.7295 111.165 41.0867C110.838 39.8061 110.433 38.0162 110.067 36.0285C109.701 34.0408 109.444 32.2262 109.296 30.9109C109.217 30.2533 109.167 29.7193 109.138 29.3485C109.113 29.1581 109.113 28.9653 109.138 28.7749C109.193 28.9588 109.231 29.1475 109.251 29.3386L109.489 30.8862C109.686 32.1965 109.983 34.0012 110.334 35.984C110.685 37.9667 111.076 39.7566 111.353 41.0471C111.486 41.6504 111.595 42.1646 111.684 42.5799C111.73 42.7662 111.757 42.9568 111.763 43.1485Z" fill="#263238"/>
<path d="M123.259 42.0064C123.185 42.0064 123.002 36.4587 122.849 29.6205C122.695 22.7822 122.626 17.2296 122.695 17.2246C122.765 17.2197 122.952 22.7674 123.106 29.6155C123.259 36.4636 123.328 42.0064 123.259 42.0064Z" fill="#263238"/>
<path d="M134.829 30.6095C134.898 30.6095 134.097 33.4031 133.044 36.8049C131.991 40.2067 131.066 42.941 131.017 42.9213C130.968 42.9015 131.749 40.1276 132.802 36.7258C133.855 33.324 134.755 30.5897 134.829 30.6095Z" fill="#263238"/>
<path d="M139.546 44.9433C139.555 44.8612 139.576 44.7811 139.611 44.7059L139.833 44.0533C140.031 43.4896 140.327 42.6787 140.723 41.6799C141.499 39.7021 142.607 36.9381 143.873 33.922C145.138 30.9059 146.315 28.1913 147.181 26.2333C147.606 25.284 147.957 24.5027 148.224 23.9193L148.516 23.2963C148.59 23.1578 148.629 23.0837 148.639 23.0886C148.62 23.166 148.595 23.242 148.565 23.3161L148.313 23.9588L147.349 26.3075C146.503 28.3149 145.371 31.0245 144.11 34.0258C142.849 37.0271 141.732 39.7367 140.891 41.7491L139.927 44.0928L139.655 44.7257C139.629 44.8028 139.592 44.876 139.546 44.9433Z" fill="#263238"/>
<path d="M145.707 48.1673C145.782 47.9922 145.876 47.8262 145.989 47.6728C146.187 47.3564 146.483 46.9064 146.849 46.3576C147.591 45.2649 148.659 43.7716 149.9 42.1795C151.141 40.5874 152.333 39.2128 153.213 38.2239C153.653 37.7294 154.019 37.3388 154.276 37.0718C154.4 36.924 154.541 36.7913 154.696 36.6763C154.601 36.8453 154.485 37.0015 154.35 37.1411C154.083 37.4674 153.747 37.8679 153.361 38.3426C152.516 39.3611 151.354 40.7703 150.113 42.3624C148.872 43.9546 147.789 45.4231 147.007 46.4911L146.083 47.7519C145.973 47.904 145.847 48.0433 145.707 48.1673Z" fill="#263238"/>
<path d="M154.716 55.5344C154.666 55.485 158.583 51.7667 163.453 47.2326C168.323 42.6985 172.318 39.0643 172.353 39.1138C172.388 39.1632 168.491 42.8864 163.616 47.4205C158.741 51.9546 154.765 55.5888 154.716 55.5344Z" fill="#263238"/>
<path d="M170.429 57.0723C169.953 57.3743 169.458 57.6452 168.946 57.8832C168.017 58.3776 166.756 59.0649 165.361 59.861C163.967 60.657 162.681 61.3443 161.727 61.7646C161.233 61.9871 160.867 62.1601 160.59 62.259C160.454 62.3282 160.309 62.3781 160.16 62.4074C160.636 62.1053 161.132 61.8345 161.643 61.5965C162.573 61.102 163.834 60.4147 165.228 59.6187C166.622 58.8226 167.908 58.1353 168.862 57.7151C169.357 57.4925 169.722 57.3195 169.999 57.2206C170.133 57.1472 170.279 57.097 170.429 57.0723Z" fill="#263238"/>
<path d="M184.961 63.0995C184.986 63.1688 180.328 64.8697 174.578 66.9019C168.828 68.934 164.115 70.5212 164.096 70.4569C164.076 70.3927 168.724 68.6868 174.479 66.6546C180.234 64.6224 184.937 63.0353 184.961 63.0995Z" fill="#263238"/>
<path d="M189.589 89.5376C189.589 89.6068 184.521 89.1865 178.286 88.5932C172.051 87.9998 166.998 87.4609 167.008 87.3867C167.018 87.3126 172.071 87.7427 178.311 88.3361C184.551 88.9294 189.594 89.4684 189.589 89.5376Z" fill="#263238"/>
<path d="M185.866 113.251C185.837 113.316 181.105 111.14 175.3 108.401C169.495 105.661 164.813 103.382 164.842 103.318C164.872 103.254 169.604 105.424 175.409 108.168C181.214 110.913 185.896 113.187 185.866 113.251Z" fill="#263238"/>
<path d="M170.301 135.813C170.247 135.858 166.84 131.897 162.681 126.973C158.523 122.048 155.2 118.008 155.265 117.964C155.329 117.919 158.726 121.875 162.884 126.805C167.042 131.734 170.355 135.764 170.301 135.813Z" fill="#263238"/>
<path d="M157.307 138.814C157.153 138.643 157.016 138.457 156.896 138.261C156.644 137.895 156.288 137.356 155.863 136.688C155.003 135.353 153.851 133.474 152.629 131.398C151.408 129.321 150.375 127.358 149.663 125.959C149.302 125.252 149.01 124.678 148.822 124.277C148.71 124.074 148.617 123.861 148.545 123.64C148.685 123.824 148.807 124.021 148.911 124.228C149.148 124.663 149.455 125.217 149.826 125.875C150.592 127.264 151.66 129.182 152.872 131.284C154.083 133.385 155.21 135.269 156.031 136.629C156.417 137.281 156.743 137.82 156.995 138.246C157.119 138.424 157.223 138.614 157.307 138.814Z" fill="#263238"/>
<path d="M149.237 150.137C149.19 150.072 149.148 150.005 149.109 149.935L148.787 149.331C148.506 148.802 148.125 148.031 147.67 147.072C146.76 145.148 145.588 142.449 144.476 139.393C143.363 136.337 142.523 133.519 142.004 131.482C141.732 130.453 141.509 129.613 141.4 129.034C141.346 128.767 141.301 128.54 141.262 128.362C141.243 128.284 141.232 128.205 141.227 128.125C141.268 128.195 141.296 128.272 141.311 128.352L141.499 129.01C141.672 129.623 141.9 130.439 142.177 131.432C142.76 133.474 143.625 136.283 144.738 139.344C145.85 142.404 146.988 145.089 147.858 147.032L148.896 149.322C149.005 149.569 149.099 149.776 149.178 149.945C149.207 150.005 149.227 150.07 149.237 150.137Z" fill="#263238"/>
<path d="M132.891 142.182C132.783 141.613 132.712 141.038 132.678 140.461C132.565 139.398 132.382 137.929 132.115 136.322C131.848 134.715 131.536 133.272 131.299 132.228C131.146 131.669 131.027 131.101 130.943 130.527C131.016 130.665 131.073 130.811 131.111 130.962C131.21 131.249 131.333 131.665 131.477 132.184C131.759 133.217 132.095 134.656 132.367 136.283C132.603 137.661 132.768 139.051 132.861 140.446C132.896 140.98 132.916 141.435 132.916 141.717C132.93 141.872 132.921 142.029 132.891 142.182Z" fill="#263238"/>
<path d="M122.196 156.417C122.186 156.333 122.186 156.249 122.196 156.165V152.763C122.236 150.503 122.339 147.388 122.517 143.952C122.695 140.516 122.918 137.401 123.101 135.151C123.19 134.024 123.274 133.114 123.338 132.486C123.373 132.199 123.398 131.957 123.417 131.764C123.424 131.678 123.441 131.594 123.467 131.512C123.477 131.597 123.477 131.683 123.467 131.769C123.47 132.012 123.459 132.254 123.432 132.496C123.393 133.163 123.343 134.063 123.279 135.161C123.145 137.45 122.967 140.545 122.784 143.962C122.601 147.379 122.473 150.513 122.389 152.768C122.349 153.866 122.315 154.746 122.29 155.438C122.29 155.73 122.26 155.967 122.25 156.165C122.245 156.251 122.226 156.336 122.196 156.417Z" fill="#263238"/>
<path d="M113.504 131.512C113.499 131.938 113.449 132.362 113.355 132.778C113.227 133.549 113.019 134.612 112.747 135.774C112.475 136.936 112.188 137.984 111.961 138.741C111.863 139.154 111.719 139.556 111.531 139.937C111.575 139.515 111.66 139.098 111.783 138.691L112.495 135.724C112.752 134.612 112.989 133.603 113.177 132.758C113.246 132.333 113.356 131.916 113.504 131.512Z" fill="#263238"/>
<path d="M97.785 123.981C97.138 125.053 96.416 126.077 95.6243 127.047C94.897 128.066 94.1059 129.039 93.2559 129.959C93.9029 128.887 94.6249 127.863 95.4166 126.893C96.1383 125.869 96.9297 124.896 97.785 123.981Z" fill="#263238"/>
<path d="M89.5426 118.423C89.592 118.468 86.5264 122.072 82.6895 126.468C78.8526 130.864 75.693 134.364 75.6387 134.364C75.5843 134.364 78.6548 130.715 82.4917 126.32C86.3286 121.924 89.4882 118.374 89.5426 118.423Z" fill="#263238"/>
<path d="M85.4139 112.287C84.2016 113.457 82.9291 114.563 81.6017 115.6C79.4509 117.37 77.6708 118.764 77.6461 118.71C78.8598 117.543 80.1322 116.439 81.4583 115.402C82.7237 114.298 84.0439 113.258 85.4139 112.287Z" fill="#263238"/>
<path d="M80.588 103.036C80.6177 103.1 76.3457 105.227 71.0402 107.778C65.7348 110.329 61.4182 112.352 61.3836 112.287C61.349 112.223 65.626 110.102 70.9314 107.546C76.2369 104.989 80.5584 102.972 80.588 103.036Z" fill="#263238"/>
<path d="M78.6498 98.4229C78.5077 98.4851 78.3581 98.5283 78.2048 98.5514C77.913 98.6206 77.4928 98.7096 76.9736 98.8036C75.9303 99.0014 74.4766 99.2189 72.8647 99.3821C71.2528 99.5453 69.7843 99.6145 68.7212 99.6293H67.4653C67.3107 99.6393 67.1554 99.6243 67.0055 99.5848C67.5725 99.5058 68.1438 99.4612 68.7163 99.4513C69.7744 99.387 71.233 99.2881 72.84 99.125C74.447 98.9618 75.8957 98.7739 76.9439 98.6305C77.507 98.5218 78.077 98.4524 78.6498 98.4229Z" fill="#263238"/>
<path d="M77.0825 87.7672C76.7946 87.792 76.5051 87.792 76.2172 87.7672L73.8636 87.6486C71.8858 87.5497 69.1367 87.4607 66.1057 87.4755C63.0747 87.4903 60.3256 87.614 58.3428 87.7326L55.9942 87.876C55.7071 87.9106 55.4177 87.9205 55.1289 87.9057C55.4098 87.8384 55.696 87.7954 55.9843 87.7771C56.5381 87.7128 57.3391 87.6337 58.328 87.5497C60.3058 87.3865 63.0648 87.2382 66.1007 87.2184C69.1367 87.1986 71.8907 87.3222 73.8784 87.4656C74.8673 87.5398 75.6733 87.609 76.2271 87.6683C76.5141 87.6815 76.8 87.7145 77.0825 87.7672Z" fill="#263238"/>
<path d="M78.0515 78.4124C78.0515 78.4817 74.8326 77.6461 70.9018 76.5484C66.9709 75.4507 63.8015 74.5112 63.8213 74.442C63.841 74.3728 67.0401 75.2035 70.971 76.3012C74.9019 77.3988 78.0713 78.3432 78.0515 78.4124Z" fill="#263238"/>
<path d="M80.1232 70.5804C80.0436 70.5763 79.9652 70.5596 79.8909 70.5309L79.2332 70.3332C78.6696 70.1552 77.8537 69.8783 76.8599 69.5173C74.2631 68.5637 71.7181 67.4744 69.2355 66.254C66.7539 65.0318 64.3393 63.6784 62.0017 62.1995C61.1067 61.6309 60.3898 61.1562 59.9052 60.815L59.3514 60.4145C59.2278 60.3206 59.1635 60.2711 59.1685 60.2612C59.2433 60.2912 59.3146 60.3294 59.3811 60.375L59.9645 60.731C60.459 61.0474 61.1908 61.4974 62.0956 62.0462C63.9102 63.1439 66.4517 64.5926 69.3492 66.0018C72.2467 67.411 74.9464 68.5581 76.9242 69.3294C77.9131 69.7102 78.7091 70.0118 79.2678 70.2194L79.9057 70.4617C79.9808 70.4964 80.0535 70.536 80.1232 70.5804Z" fill="#263238"/>
<path d="M84.7761 62.6693C84.7365 62.7237 82.2346 61.0326 79.1888 58.8867C76.143 56.7408 73.7054 54.9559 73.7499 54.8965C73.7944 54.8372 76.2913 56.5332 79.3421 58.6791C82.3928 60.825 84.8156 62.6248 84.7761 62.6693Z" fill="#263238"/>
<path d="M74.9415 38.6489C75.007 38.6892 75.0698 38.7338 75.1294 38.7824L75.6238 39.2175L77.4483 40.8294L83.4361 46.1744L89.4486 51.4898L91.2682 53.1066L91.7626 53.5566C91.8228 53.6052 91.876 53.6617 91.9209 53.7247C91.8532 53.6872 91.7887 53.6442 91.728 53.5961L91.2336 53.1857C90.7836 52.8248 90.1458 52.2908 89.3596 51.6282C87.7873 50.3031 85.6414 48.4489 83.2927 46.3673C80.9441 44.2856 78.8427 42.3672 77.3593 40.963C76.6078 40.2608 76.0046 39.6922 75.5892 39.2868L75.1195 38.822C75.0008 38.7132 74.9316 38.6539 74.9415 38.6489Z" fill="#263238"/>
<path d="M90.3634 39.0991C90.484 39.2041 90.5964 39.3182 90.6996 39.4403C90.9023 39.6727 91.1941 40.0139 91.5352 40.4292C92.2225 41.2895 93.1373 42.5059 94.0866 43.8903C95.0359 45.2748 95.832 46.5702 96.3809 47.5245C96.6577 48.019 96.8753 48.3898 97.0137 48.6618C97.0995 48.797 97.166 48.9434 97.2115 49.0969C96.8497 48.6246 96.5194 48.1291 96.2226 47.6135C95.6342 46.684 94.8134 45.4132 93.869 44.0288C92.9246 42.6443 92.0346 41.423 91.3968 40.538C91.0253 40.0784 90.6803 39.598 90.3634 39.0991Z" fill="#263238"/>
<g opacity="0.2">
<path d="M70.6002 34.8915L92.1137 53.725L97.4587 49.448L84.9788 30.3228C84.9788 30.3228 84.0196 31.0249 81.5177 31.7369C79.1295 32.4242 72.0341 32.6071 70.6002 34.8915Z" fill="black"/>
</g>
<g opacity="0.2">
<path d="M94.5464 18.9599L105.048 45.2498L111.763 43.1484L109.523 20.3444C109.523 20.3444 108.371 20.6163 105.805 20.29C103.318 19.9735 97.2906 17.615 94.5464 18.9599Z" fill="black"/>
</g>
<g opacity="0.3">
<path d="M122.552 13.4569L123.259 42.0064L129.548 42.308L135.917 20.3941C134.593 20.1329 133.335 19.612 132.214 18.8613C130.038 17.4669 125.598 13.2245 122.552 13.4569Z" fill="black"/>
</g>
<g opacity="0.2">
<path d="M149.984 18.8511L139.546 45.1706L145.213 47.8851L159.576 30.1542C158.497 29.2429 157.576 28.1585 156.852 26.9452C155.497 24.7548 153.163 19.7262 149.984 18.8511Z" fill="black"/>
</g>
<g opacity="0.2">
<path d="M174.499 35.272L155.057 55.5444L159.389 61.3838L178.385 48.7062C177.759 47.5544 177.336 46.3032 177.134 45.0077C176.679 42.5354 176.615 38.0458 174.499 35.272Z" fill="black"/>
</g>
<g opacity="0.2">
<path d="M189.846 58.145L163.665 68.9191L165.836 75.609L188.615 73.1367C188.615 73.1367 188.472 72.4346 188.774 69.8684C189.06 67.3813 191.691 61.8237 189.846 58.145Z" fill="black"/>
</g>
<g opacity="0.2">
<path d="M195.646 86.6699L167.102 87.6588L166.865 93.9532L188.62 100.322C188.764 99.4154 189.055 98.5386 189.481 97.7258C191.102 94.6998 195.646 90.4277 195.646 86.6699Z" fill="black"/>
</g>
<g opacity="0.2">
<path d="M190.38 113.657L164.101 103.417L161.445 109.148L179.33 123.304C180.27 122.404 181.31 121.614 182.43 120.95C184.605 119.561 189.777 117.311 190.38 113.657Z" fill="black"/>
</g>
<g opacity="0.2">
<path d="M151.729 113.251L145.213 118.69C145.707 119.185 154.375 133.939 159.72 143.047C159.789 142.988 159.863 142.933 159.937 142.879C163.453 140.525 169.712 141.47 173.243 139.141L151.729 113.251Z" fill="black"/>
<path d="M139.774 123.575L130.063 126.888L134.661 153.252C134.96 153.148 135.266 153.064 135.576 153C140.154 152.095 146.192 156.08 150.409 154.335C150.986 154.086 151.523 153.753 152.001 153.346L139.774 123.575Z" fill="black"/>
<path d="M122.043 159.878L123.59 125.435L115.185 123.304L108.94 152.971L109.167 153.01C113.518 153.856 117.479 159.581 122.043 159.878Z" fill="black"/>
<path d="M100.93 119.585C100.93 119.585 89.8343 134.449 84.0294 142.449C84.2979 142.584 84.5587 142.735 84.8106 142.899C88.6229 145.45 90.0617 152.555 94.3486 154.335C94.5464 154.414 94.7491 154.479 94.9518 154.538L110.453 125.197L100.93 119.585Z" fill="black"/>
<path d="M89.5425 107.62L65.8782 123.882C65.9672 124.001 66.0661 124.114 66.1452 124.238C68.7163 128.075 67.3467 135.19 70.5952 138.444C70.8955 138.738 71.2271 138.998 71.5841 139.22C79.9453 129.796 94.9567 112.876 95.5006 112.287L89.5425 107.62Z" fill="black"/>
<path d="M84.1184 96.0049L56.1375 100.524C56.5875 105.014 53.0472 110.68 54.7135 114.695C54.8139 114.94 54.9346 115.177 55.0744 115.402C64.8645 110.527 85.3199 100.386 86.1704 100.331L84.1184 96.0049Z" fill="black"/>
<path d="M82.5905 80.4199L56.1425 72.7905C56.1177 73.018 56.0881 73.2454 56.0485 73.4679C55.1684 77.918 49.1559 81.9675 49.1559 86.6697C49.1576 86.9828 49.184 87.2953 49.235 87.6042H81.5176L82.5905 80.4199Z" fill="black"/>
<path d="M54.8223 58.4318C64.7113 63.7273 84.0294 74.442 84.0294 74.442L88.786 65.4084L66.4468 48.5972C66.3565 48.7681 66.2558 48.9332 66.1452 49.0916C63.6284 52.8445 56.7407 54.3081 54.8223 58.4318Z" fill="black"/>
</g>
<path d="M195.597 86.6697L195.567 86.3533C195.557 86.0431 195.514 85.7348 195.439 85.4336C195.151 84.2478 194.649 83.1248 193.955 82.1208C193.105 80.7561 191.819 79.2282 190.494 77.295C189.745 76.2669 189.171 75.1226 188.793 73.908C188.472 72.4904 188.472 71.0189 188.793 69.6013C189.07 68.0933 189.52 66.5407 189.911 64.8942C190.301 63.2477 190.667 61.4676 190.301 59.6481C190.094 58.7271 189.672 57.8682 189.07 57.1412C188.424 56.4014 187.686 55.7468 186.875 55.1931C185.233 54.0262 183.345 53.0966 181.54 51.8803C180.606 51.2782 179.758 50.5531 179.018 49.7245C178.291 48.8255 177.764 47.7822 177.47 46.6638C176.838 44.4141 176.694 42.0111 176.215 39.608C176.005 38.3844 175.592 37.2045 174.993 36.1172C174.341 35.0239 173.355 34.1693 172.18 33.6796C170.966 33.1912 169.695 32.8589 168.397 32.6907C167.087 32.4731 165.742 32.3199 164.397 32.0825C163.019 31.8837 161.683 31.4612 160.442 30.8316C159.211 30.0914 158.168 29.0759 157.396 27.8649C156.575 26.6881 155.868 25.4223 155.116 24.1713C154.396 22.892 153.533 21.6978 152.545 20.6113C151.526 19.5129 150.136 18.8312 148.644 18.6978C147.12 18.6432 145.596 18.8216 144.125 19.2268C142.641 19.5878 141.119 20.0279 139.561 20.3196C137.987 20.6908 136.344 20.6602 134.785 20.2306C133.265 19.6326 131.844 18.811 130.567 17.7929C129.247 16.804 127.961 15.8151 126.552 14.935C125.143 14.0549 123.546 13.4171 121.884 13.605H121.573C121.471 13.6164 121.37 13.6379 121.271 13.6692C121.069 13.7187 120.861 13.7533 120.663 13.8126C120.265 13.9393 119.875 14.0912 119.496 14.2675C118.732 14.6328 117.998 15.0577 117.301 15.5383C115.897 16.5272 114.567 17.6051 113.123 18.5841C112.405 19.0889 111.644 19.529 110.848 19.8993C110.034 20.2642 109.162 20.4834 108.272 20.547C106.488 20.5565 104.713 20.3049 103.001 19.8004C101.279 19.3089 99.522 18.9469 97.7455 18.7176C96.8583 18.6306 95.9628 18.6908 95.0952 18.8956C94.2314 19.1366 93.4346 19.5731 92.7664 20.1712C91.4017 21.3629 90.4523 22.9649 89.503 24.5372C88.6071 26.1839 87.5593 27.7433 86.3731 29.1949C85.7446 29.9134 84.9907 30.5115 84.1481 30.9601C83.2873 31.3671 82.3833 31.6756 81.4534 31.8798C79.5942 32.2902 77.6955 32.4632 75.8216 32.7995C73.9476 33.1357 72.0341 33.6648 70.6793 34.98C70.0263 35.6772 69.5216 36.4998 69.196 37.3979C68.8681 38.304 68.628 39.2395 68.479 40.1915C68.1329 42.1001 67.9846 44.0581 67.4901 45.9815C67.2763 46.9572 66.9215 47.8967 66.4369 48.7702C65.9253 49.6352 65.2542 50.3953 64.4591 51.01C62.8967 52.2659 61.1216 53.1955 59.4207 54.2338C58.5608 54.747 57.735 55.3151 56.9485 55.9348C56.1747 56.5531 55.5239 57.3112 55.03 58.1697C54.5607 59.0446 54.3224 60.0249 54.3378 61.0177C54.3555 62.0158 54.4731 63.0097 54.6888 63.9844C55.1042 65.9622 55.7321 67.9054 56.0683 69.9178C56.2741 70.9495 56.3224 72.0064 56.2117 73.0526C56.0726 74.0951 55.7371 75.1018 55.2228 76.0193C54.1894 77.824 52.8445 79.4112 51.6529 81.0923C51.0399 81.9201 50.5068 82.8042 50.0608 83.7327C49.5718 84.638 49.3157 85.6507 49.3157 86.6796C49.3157 87.7085 49.5718 88.7212 50.0608 89.6265C50.5057 90.5556 51.0388 91.4398 51.6529 92.2669C52.8445 93.948 54.1894 95.5352 55.2228 97.3399C55.7282 98.2401 56.0634 99.2257 56.2117 100.247C56.3372 101.278 56.3038 102.322 56.1128 103.343C55.7816 105.375 55.1536 107.323 54.7333 109.301C54.52 110.276 54.4024 111.269 54.3823 112.267C54.3628 113.262 54.5995 114.244 55.0695 115.12C55.5589 115.982 56.2084 116.742 56.9831 117.36C57.7617 117.979 58.5792 118.547 59.4306 119.061C61.1745 120.034 62.8587 121.111 64.474 122.285C65.2666 122.902 65.9373 123.662 66.4518 124.525C66.9413 125.394 67.2963 126.333 67.5049 127.308C67.9697 129.237 68.128 131.195 68.4938 133.103C68.6475 134.055 68.8891 134.99 69.2157 135.897C69.5316 136.796 70.028 137.62 70.6744 138.32C72.044 139.65 73.9723 140.179 75.8216 140.515C77.6708 140.851 79.5942 141.01 81.4534 141.435C82.3849 141.639 83.2905 141.948 84.1531 142.355C84.9948 142.804 85.7485 143.402 86.3781 144.12C87.5514 145.574 88.5892 147.134 89.4783 148.777C90.4276 150.35 91.377 151.952 92.7416 153.143C93.4087 153.74 94.2037 154.177 95.0656 154.419C95.9403 154.642 96.8463 154.715 97.7455 154.637C99.5188 154.398 101.272 154.03 102.992 153.534C104.704 153.025 106.481 152.772 108.267 152.782C109.157 152.85 110.029 153.071 110.843 153.435C111.638 153.807 112.399 154.247 113.118 154.75C114.562 155.739 115.887 156.832 117.296 157.791C117.994 158.284 118.731 158.717 119.501 159.087C119.881 159.26 120.271 159.412 120.668 159.542C120.871 159.596 121.074 159.636 121.276 159.685L121.583 159.749H121.889C123.556 159.937 125.158 159.255 126.562 158.419C127.966 157.584 129.257 156.53 130.572 155.561C131.85 154.542 133.273 153.72 134.795 153.124C136.354 152.697 137.996 152.666 139.571 153.035C141.128 153.331 142.632 153.771 144.135 154.132C145.608 154.533 147.133 154.711 148.659 154.661C150.149 154.523 151.537 153.84 152.555 152.743C153.542 151.653 154.404 150.458 155.126 149.178C155.873 147.932 156.58 146.666 157.401 145.484C158.176 144.274 159.22 143.259 160.452 142.518C161.692 141.887 163.029 141.466 164.407 141.272C165.757 141.029 167.097 140.876 168.407 140.664C169.706 140.486 170.976 140.145 172.19 139.65C173.365 139.16 174.351 138.306 175.003 137.212C175.599 136.124 176.01 134.944 176.22 133.721C176.714 131.318 176.843 128.911 177.48 126.661C177.772 125.543 178.3 124.502 179.028 123.605C179.765 122.774 180.614 122.048 181.55 121.449C183.354 120.233 185.243 119.303 186.88 118.136C187.696 117.585 188.436 116.928 189.08 116.183C189.683 115.459 190.103 114.601 190.306 113.681C190.479 112.793 190.504 111.883 190.381 110.987C190.278 110.128 190.123 109.276 189.916 108.435C189.52 106.789 189.075 105.236 188.798 103.728C188.477 102.311 188.477 100.839 188.798 99.4216C189.179 98.2082 189.753 97.0644 190.499 96.0346C191.839 94.1013 193.13 92.5734 193.96 91.2088C194.654 90.2047 195.156 89.0818 195.444 87.8959C195.519 87.5947 195.562 87.2865 195.572 86.9763L195.602 86.6648V86.9763C195.592 87.2876 195.553 87.5972 195.483 87.9009C195.201 89.0962 194.698 90.2282 194 91.2384C193.154 92.613 191.874 94.1458 190.539 96.0791C189.797 97.1007 189.231 98.2386 188.863 99.4463C188.541 100.849 188.541 102.306 188.863 103.708C189.139 105.192 189.589 106.759 189.99 108.406C190.206 109.252 190.372 110.111 190.484 110.977C190.609 111.885 190.584 112.807 190.41 113.706C190.204 114.647 189.777 115.524 189.164 116.267C188.512 117.019 187.766 117.684 186.944 118.245C185.293 119.422 183.409 120.357 181.614 121.568C180.696 122.162 179.865 122.879 179.142 123.699C178.428 124.581 177.912 125.606 177.629 126.705C177.001 128.93 176.862 131.333 176.378 133.751C176.17 134.994 175.754 136.193 175.147 137.296C174.479 138.423 173.467 139.303 172.259 139.808C171.034 140.312 169.75 140.658 168.437 140.837C167.122 141.054 165.777 141.207 164.437 141.45C163.076 141.643 161.756 142.059 160.531 142.681C159.335 143.407 158.32 144.396 157.564 145.573C156.753 146.745 156.046 148.006 155.294 149.262C154.567 150.554 153.698 151.762 152.704 152.862C151.652 153.995 150.218 154.699 148.679 154.839C147.131 154.899 145.584 154.721 144.09 154.31C142.582 153.949 141.079 153.514 139.536 153.223C137.996 152.862 136.39 152.891 134.864 153.307C133.365 153.897 131.963 154.708 130.705 155.715C129.395 156.679 128.105 157.717 126.681 158.587C126.31 158.785 125.959 159.018 125.573 159.181C125.38 159.27 125.192 159.364 125 159.443L124.401 159.655C123.59 159.934 122.728 160.035 121.875 159.952H121.553C121.446 159.94 121.34 159.918 121.237 159.888C121.029 159.838 120.816 159.799 120.614 159.739C120.203 159.612 119.802 159.456 119.412 159.275C118.636 158.906 117.892 158.475 117.187 157.984C115.768 156.995 114.438 155.917 113.009 154.943C112.299 154.451 111.55 154.018 110.769 153.648C109.979 153.297 109.134 153.085 108.272 153.02C106.509 153.011 104.755 153.262 103.066 153.766C101.322 154.263 99.5438 154.626 97.7455 154.854C96.8285 154.945 95.903 154.883 95.0062 154.671C94.1078 154.421 93.2789 153.968 92.5834 153.346C91.1792 152.115 90.2199 150.498 89.2706 148.921C88.3915 147.289 87.3619 145.743 86.1951 144.303C85.5876 143.606 84.8568 143.028 84.0393 142.597C83.1967 142.196 82.3107 141.895 81.399 141.697C79.5596 141.291 77.6659 141.118 75.7771 140.777C74.8257 140.618 73.8907 140.373 72.9834 140.045C72.0638 139.708 71.2226 139.186 70.5112 138.513C69.837 137.791 69.3201 136.938 68.9932 136.006C68.6588 135.085 68.4121 134.135 68.2565 133.168C67.9104 131.244 67.7621 129.286 67.2676 127.388C67.0598 126.437 66.7132 125.523 66.2392 124.673C65.7396 123.834 65.0852 123.097 64.3108 122.502C62.778 121.271 61.0079 120.342 59.302 119.298C58.4412 118.779 57.6154 118.205 56.8298 117.578C56.0309 116.936 55.3599 116.149 54.852 115.259C54.3637 114.347 54.1185 113.326 54.14 112.292C54.152 111.269 54.2713 110.25 54.496 109.251C54.9163 107.273 55.5442 105.296 55.8706 103.318C56.0574 102.322 56.0891 101.303 55.9645 100.297C55.8157 99.2971 55.4803 98.3343 54.9756 97.4586C53.9867 95.6786 52.622 94.1013 51.4205 92.4053C50.7946 91.5602 50.2468 90.6599 49.7839 89.7155C49.2801 88.7758 49.0165 87.7261 49.0165 86.6598C49.0165 85.5936 49.2801 84.5439 49.7839 83.6041C50.2399 82.6623 50.7828 81.7651 51.4057 80.9242C52.6072 79.2282 53.9471 77.651 54.9558 75.8759C55.4598 74.9981 55.7952 74.0339 55.9447 73.0328C56.0603 72.0264 56.027 71.0084 55.8458 70.0117C55.5145 68.0339 54.8866 66.0561 54.4663 64.0783C54.2457 63.081 54.1281 62.0637 54.1153 61.0424C54.0955 60.0084 54.3425 58.9866 54.8322 58.0757C55.3431 57.189 56.0137 56.4045 56.81 55.7617C57.5956 55.1347 58.4215 54.5599 59.2823 54.041C61.0148 53.0748 62.6874 52.0048 64.291 50.837C65.0627 50.2406 65.7153 49.5042 66.2144 48.6663C66.6899 47.8163 67.0349 46.8995 67.2379 45.9469C67.6978 44.0482 67.856 42.0951 68.2268 40.1717C68.3808 39.2047 68.6258 38.2544 68.9586 37.3336C69.2561 36.3904 69.7748 35.532 70.4715 34.8302C71.1682 34.1283 72.0227 33.6032 72.9637 33.2989C73.871 32.9713 74.806 32.7264 75.7573 32.5671C77.6461 32.2259 79.5398 32.0726 81.3792 31.6524C82.2895 31.4495 83.1748 31.1477 84.0196 30.7525C84.8346 30.3177 85.5635 29.738 86.1704 29.0417C87.3371 27.6014 88.3668 26.0553 89.2459 24.4235C90.1952 22.8462 91.1545 21.2294 92.5636 20.0031C93.2618 19.3716 94.0984 18.9126 95.0062 18.6632C95.9034 18.4542 96.8285 18.3925 97.7455 18.4802C99.5291 18.7179 101.293 19.0882 103.021 19.5878C104.71 20.0965 106.465 20.3498 108.228 20.3394C109.082 20.2711 109.918 20.057 110.7 19.7065C111.483 19.3416 112.233 18.9081 112.94 18.411C114.374 17.4221 115.704 16.3393 117.123 15.3751C117.826 14.8815 118.57 14.4498 119.348 14.0846C119.737 13.9034 120.136 13.7465 120.545 13.6149C120.752 13.5555 120.965 13.5209 121.172 13.4715L121.484 13.4022H121.805C122.659 13.3219 123.52 13.423 124.332 13.6989L124.93 13.9115C125.123 13.9906 125.311 14.0846 125.504 14.1736C125.894 14.3417 126.246 14.5691 126.611 14.7669C128.04 15.6371 129.326 16.6755 130.641 17.6397C131.898 18.644 133.298 19.4555 134.795 20.0476C136.321 20.4658 137.927 20.4947 139.467 20.1317C141.01 19.8449 142.513 19.4098 144.021 19.0488C145.515 18.6395 147.062 18.4594 148.609 18.5148C150.148 18.6576 151.581 19.3616 152.634 20.4926C153.629 21.5954 154.5 22.8042 155.23 24.0972C155.982 25.3481 156.684 26.6139 157.495 27.7808C158.25 28.9604 159.264 29.9515 160.461 30.6783C161.687 31.3007 163.007 31.7166 164.368 31.9095C165.708 32.1517 167.052 32.305 168.368 32.5226C169.679 32.706 170.963 33.0515 172.19 33.551C173.397 34.0566 174.41 34.935 175.082 36.0579C175.685 37.1639 176.101 38.3617 176.313 39.6031C176.808 42.021 176.936 44.424 177.559 46.649C177.846 47.7467 178.361 48.7713 179.072 49.6552C179.795 50.4765 180.627 51.1952 181.545 51.7913C183.34 53.0027 185.228 53.9372 186.875 55.114C187.697 55.675 188.443 56.3397 189.095 57.0918C189.709 57.8327 190.137 58.7089 190.346 59.6481C190.519 60.5494 190.544 61.4729 190.42 62.3824C190.307 63.247 190.142 64.1039 189.926 64.9486C189.53 66.6 189.075 68.1476 188.798 69.6508C188.477 71.0533 188.477 72.5104 188.798 73.9129C189.166 75.1206 189.733 76.2585 190.475 77.2801C191.805 79.2184 193.085 80.7413 193.936 82.1208C194.634 83.131 195.137 84.263 195.419 85.4583C195.488 85.762 195.528 86.0716 195.538 86.3829C195.572 86.4751 195.592 86.5717 195.597 86.6697Z" fill="#263238"/>
<path d="M108.623 154.637C108.693 154.637 106.868 162.054 104.549 171.161C102.23 180.269 100.292 187.641 100.223 187.627C100.153 187.612 101.978 180.21 104.297 171.097C106.616 161.984 108.574 154.597 108.623 154.637Z" fill="#263238"/>
<path d="M122.379 131.556C147.169 131.556 167.265 111.46 167.265 86.6698C167.265 61.8799 147.169 41.7837 122.379 41.7837C97.589 41.7837 77.4928 61.8799 77.4928 86.6698C77.4928 111.46 97.589 131.556 122.379 131.556Z" fill="white"/>
<path d="M94.7392 71.1146C94.1212 71.7327 90.7194 77.9232 90.4079 83.0308C90.0964 88.1385 90.8331 116.807 90.8331 116.807L90.9666 118.71C99.0459 128.159 128.416 142.221 154.869 118.661L156.353 101.024L151.987 63.688L136.807 59.9747L133.252 54.2144L109.558 59.7621L107.442 64.756L94.7392 71.1146Z" fill="#455A64"/>
<path d="M131.625 39.2026C132.668 35.3212 133.692 31.4151 134.053 27.415C134.414 23.4149 134.083 19.2813 132.49 15.5927C132.248 15.034 130.246 11.3009 129.642 11.3948C129.212 11.4591 130.508 14.9697 130.31 15.3504C128.406 19.0439 128.06 23.3803 128.609 27.499C129.176 31.4987 130.187 35.4226 131.625 39.1977" fill="#263238"/>
<path d="M131.23 23.8749C131.042 13.803 125.019 5.521 114.957 5.99072L114.028 6.08961C109.527 6.56406 105.37 8.71517 102.383 12.1151C99.3967 15.515 97.7992 19.9145 97.9086 24.4386C98.1261 33.1656 98.4723 42.8074 99.0211 47.4453C100.153 57.0426 109.899 57.5272 109.899 57.5272L110.349 63.8413L114.478 68.3259L133.618 56.4591L131.23 23.8749Z" fill="#FFBF9D"/>
<path d="M109.924 57.6012C109.924 57.6012 116.02 57.3193 122.048 52.5825C122.048 52.5825 120.03 61.2898 110.349 61.4332L109.924 57.6012Z" fill="#FF9A6C"/>
<path d="M103.442 32.2654C103.475 32.6264 103.65 32.9594 103.928 33.1926C104.205 33.4258 104.563 33.5403 104.925 33.5114C105.098 33.507 105.269 33.4684 105.428 33.3978C105.586 33.3273 105.729 33.2262 105.848 33.1004C105.968 32.9746 106.061 32.8265 106.123 32.6646C106.185 32.5026 106.215 32.33 106.21 32.1567V32.127C106.175 31.7666 106 31.4343 105.723 31.2013C105.446 30.9684 105.088 30.8534 104.727 30.881C104.554 30.8848 104.384 30.9227 104.226 30.9924C104.068 31.062 103.925 31.1622 103.806 31.2871C103.686 31.412 103.593 31.5592 103.53 31.7203C103.468 31.8813 103.438 32.0531 103.442 32.2259V32.2654Z" fill="#263238"/>
<path d="M100.386 28.2112C100.574 28.3695 101.533 27.4943 103.011 27.341C104.49 27.1877 105.647 27.8355 105.79 27.613C105.859 27.5289 105.652 27.2223 105.142 26.9257C104.458 26.5502 103.673 26.3964 102.898 26.4856C102.13 26.5654 101.406 26.8855 100.831 27.4003C100.411 27.8009 100.292 28.1371 100.386 28.2112Z" fill="#263238"/>
<path d="M116.49 31.158C116.524 31.5189 116.699 31.852 116.976 32.0852C117.254 32.3183 117.612 32.4329 117.973 32.404C118.147 32.3995 118.318 32.3609 118.476 32.2904C118.635 32.2198 118.778 32.1188 118.897 31.993C119.016 31.8672 119.11 31.719 119.172 31.5571C119.234 31.3952 119.264 31.2226 119.259 31.0492V31.0245C119.225 30.6632 119.051 30.3296 118.773 30.0956C118.496 29.8617 118.138 29.746 117.776 29.7735C117.602 29.7786 117.43 29.818 117.271 29.8894C117.113 29.9607 116.969 30.0627 116.85 30.1894C116.731 30.3162 116.637 30.4652 116.576 30.628C116.514 30.7908 116.485 30.9642 116.49 31.1382V31.158Z" fill="#263238"/>
<path d="M114.918 27.2819C115.106 27.445 116.07 26.5649 117.543 26.4116C119.017 26.2584 120.184 26.9061 120.322 26.6885C120.391 26.5995 120.189 26.293 119.679 26.0012C118.993 25.626 118.207 25.4723 117.429 25.5612C116.66 25.6356 115.935 25.9564 115.363 26.4759C114.947 26.8715 114.829 27.2126 114.918 27.2819Z" fill="#263238"/>
<path d="M110.814 39.1931C110.814 39.1091 109.879 39.0448 108.371 39.0102C107.99 39.0102 107.625 38.9756 107.536 38.7234C107.46 38.3381 107.507 37.9388 107.669 37.5812L108.48 34.6145C109.597 30.3623 110.364 26.8814 110.196 26.8369C110.028 26.7924 108.974 30.2041 107.857 34.4613L107.095 37.428C106.91 37.9027 106.896 38.4274 107.056 38.9113C107.123 39.0403 107.219 39.1521 107.337 39.2378C107.454 39.3236 107.59 39.3811 107.733 39.4058C107.949 39.4305 108.166 39.4305 108.381 39.4058C109.889 39.3662 110.819 39.2772 110.814 39.1931Z" fill="#263238"/>
<path d="M115.269 39.7566C115.026 39.7566 115.195 41.3685 113.944 42.6541C112.693 43.9396 110.977 43.9396 110.977 44.1671C110.977 44.266 111.387 44.439 112.114 44.3797C113.05 44.2897 113.924 43.8752 114.586 43.2079C115.219 42.562 115.574 41.6942 115.575 40.79C115.6 40.1126 115.378 39.7368 115.269 39.7566Z" fill="#263238"/>
<path d="M114.369 21.2791C114.557 21.6647 116.01 21.3186 117.766 21.3483C119.521 21.3779 120.975 21.6993 121.163 21.3137C121.247 21.1307 120.965 20.7797 120.357 20.4484C119.55 20.0572 118.665 19.854 117.768 19.854C116.872 19.854 115.987 20.0572 115.18 20.4484C114.557 20.745 114.285 21.0961 114.369 21.2791Z" fill="#263238"/>
<path d="M100.48 23.237C100.772 23.5436 101.755 23.0887 102.977 22.9404C104.198 22.792 105.261 22.9404 105.449 22.5547C105.538 22.3718 105.34 22.0603 104.856 21.7834C104.207 21.4668 103.478 21.3499 102.762 21.4476C102.047 21.5453 101.376 21.8532 100.836 22.3322C100.45 22.7228 100.346 23.0838 100.48 23.237Z" fill="#263238"/>
<path d="M131.195 31.079C131.353 30.99 137.593 28.4288 138.078 35.0346C138.562 41.6404 131.862 40.7405 131.818 40.5526C131.773 40.3648 131.195 31.079 131.195 31.079Z" fill="#FFBF9D"/>
<path d="M133.647 37.9071C133.677 37.9071 133.766 37.9763 133.969 38.0505C134.251 38.1475 134.559 38.1315 134.829 38.006C135.507 37.6994 136.011 36.5523 135.957 35.3607C135.933 34.7939 135.783 34.2397 135.517 33.7389C135.439 33.5378 135.314 33.3585 135.152 33.2164C134.99 33.0743 134.796 32.9736 134.587 32.9231C134.453 32.8966 134.314 32.9183 134.195 32.9843C134.075 33.0504 133.983 33.1565 133.934 33.284C133.855 33.4768 133.91 33.6054 133.875 33.6202C133.84 33.6351 133.727 33.5164 133.756 33.2445C133.782 33.0772 133.864 32.9236 133.989 32.8093C134.16 32.6596 134.384 32.5833 134.612 32.5967C134.887 32.6282 135.148 32.731 135.371 32.895C135.594 33.0589 135.77 33.2782 135.882 33.5312C136.208 34.0805 136.392 34.7026 136.416 35.3409C136.471 36.671 135.882 37.9664 134.933 38.3076C134.76 38.3734 134.575 38.3992 134.391 38.3829C134.207 38.3666 134.029 38.3088 133.87 38.2137C133.672 38.0653 133.628 37.917 133.647 37.9071Z" fill="#FF9A6C"/>
<path d="M101.474 13.2244C100.371 12.7003 103.352 9.03646 105.924 7.67672C109.775 5.62476 115.758 4.12658 119.481 4.92759C123.966 5.91649 127.763 7.84484 130.231 11.7114C132.698 15.578 133.83 20.1912 133.998 24.7748C134.048 26.1741 133.998 27.6376 133.326 28.8639C132.5 30.3818 130.789 31.4152 130.997 33.4227C131.047 33.7851 131.023 34.1538 130.928 34.5071C130.833 34.8603 130.668 35.191 130.443 35.4796C129.316 36.8443 127.763 35.7318 127.007 34.5649C125.39 32.0926 125.029 29.0023 124.713 26.0455C124.485 23.949 124.263 21.8031 124.713 19.7462C124.96 18.6238 125.415 17.5509 125.603 16.4186C125.791 15.2863 125.677 14.0255 124.925 13.1552C124.75 12.9723 124.558 12.8067 124.352 12.6608C123.379 11.9146 122.224 11.4415 121.007 11.2903C119.791 11.139 118.556 11.3151 117.429 11.8004C113.795 13.353 107.58 15.7264 105.84 14.5693C103.343 12.908 102.69 11.7411 102.69 11.7411L101.474 13.2244Z" fill="#263238"/>
<path d="M94.7392 71.1147C94.3584 71.6438 88.9541 73.4387 86.9021 76.8553C84.8502 80.2719 82.8229 95.6098 82.8229 95.6098L81.5176 105.687C84.0887 109.751 87.54 115.136 91.1989 118.933L94.7392 71.1147Z" fill="#455A64"/>
<g opacity="0.3">
<path d="M135.348 85.9087C135.494 87.9767 135.886 90.0201 136.515 91.9954C137.222 93.9385 138.463 95.768 140.278 96.7717C141.035 97.1871 141.89 97.464 142.528 98.0573C143.166 98.6506 143.551 99.6099 144.169 100.307C144.942 101.074 145.896 101.634 146.943 101.934C149.889 103.012 153.014 103.515 156.15 103.417C156.249 102.359 156.254 98.4726 156.353 97.4096L135.348 85.9087Z" fill="black"/>
</g>
<path d="M151.987 63.688C151.987 63.688 158.8 65.7053 160.798 68.6078C162.795 71.5102 166.331 82.7638 167.057 84.8504C167.784 86.937 167.146 91.7727 165.787 95.2338C164.427 98.695 162.063 101.706 157.984 102.156C153.905 102.606 147.457 100.252 146.004 98.695C144.55 97.1375 143.952 93.6912 143.952 93.6912C145.764 93.3688 147.55 92.916 149.297 92.3364" fill="#455A64"/>
<path d="M149.297 92.3856L149.213 92.4202L148.956 92.5141C148.728 92.5932 148.387 92.707 147.937 92.8405C146.637 93.2307 145.317 93.5477 143.981 93.7898L144.036 93.7156C144.203 94.5648 144.436 95.3996 144.733 96.2126C144.897 96.6729 145.093 97.1207 145.321 97.5526C145.556 98.0139 145.865 98.4333 146.236 98.7936C146.655 99.1524 147.117 99.4579 147.611 99.7034C148.134 99.976 148.67 100.222 149.218 100.44C150.394 100.911 151.604 101.294 152.837 101.587C154.168 101.913 155.531 102.087 156.901 102.106C157.258 102.11 157.615 102.093 157.969 102.057C158.327 102.016 158.682 101.954 159.033 101.869C159.751 101.707 160.44 101.439 161.08 101.073C162.409 100.303 163.526 99.214 164.328 97.9036C165.175 96.5422 165.825 95.0671 166.256 93.5228C166.607 92.3357 166.87 91.1243 167.043 89.8985C167.225 88.7113 167.285 87.5083 167.221 86.3088C167.181 85.7318 167.063 85.1629 166.87 84.6178C166.682 84.064 166.499 83.5152 166.321 82.9713L165.258 79.792C164.556 77.7252 163.863 75.7721 163.171 73.9575C162.563 72.269 161.831 70.6278 160.981 69.0476C160.588 68.3758 160.063 67.7906 159.438 67.3269C158.894 66.893 158.315 66.5044 157.707 66.1649C156.733 65.6065 155.724 65.111 154.686 64.6816C153.836 64.3305 153.163 64.0833 152.708 63.9201L152.189 63.7372C152.127 63.7215 152.068 63.6982 152.011 63.668C152.073 63.6775 152.135 63.6924 152.194 63.7125L152.723 63.8707C153.188 64.019 153.87 64.2514 154.731 64.5876C155.777 64.9994 156.796 65.4766 157.782 66.0166C158.4 66.3569 158.99 66.7454 159.547 67.1786C160.191 67.6494 160.733 68.2467 161.139 68.9338C162.009 70.5226 162.756 72.1756 163.374 73.8783C164.081 75.688 164.778 77.646 165.485 79.7128C165.836 80.7462 166.192 81.8093 166.558 82.8921C166.741 83.4311 166.924 83.9799 167.107 84.5337C167.309 85.0977 167.434 85.6865 167.478 86.2841C167.546 87.5015 167.488 88.7227 167.305 89.9282C167.131 91.1676 166.865 92.3923 166.509 93.592C166.068 95.1633 165.402 96.6623 164.531 98.0421C163.706 99.3874 162.557 100.504 161.188 101.291C160.529 101.666 159.817 101.94 159.077 102.106C158.716 102.19 158.352 102.255 157.984 102.299C157.618 102.299 157.252 102.364 156.896 102.349C155.507 102.324 154.126 102.141 152.778 101.805C151.534 101.506 150.314 101.115 149.129 100.633C148.576 100.411 148.036 100.158 147.512 99.8765C147.004 99.6204 146.529 99.3033 146.098 98.9321C145.715 98.5534 145.398 98.114 145.158 97.6317C144.932 97.1991 144.735 96.7513 144.57 96.2917C144.28 95.4646 144.054 94.6166 143.892 93.7552V93.6909H143.957C145.697 93.3893 147.032 93.0481 147.937 92.8009L148.966 92.5092L149.228 92.435C149.267 92.3856 149.297 92.3806 149.297 92.3856Z" fill="#263238"/>
<path d="M161.801 88.7415C161.752 88.7415 161.594 87.901 161.025 86.6451C160.278 85.0122 159.236 83.5319 157.95 82.2791C157.237 81.6009 156.431 81.0282 155.556 80.5782L154.958 80.3112C154.76 80.2222 154.553 80.1826 154.365 80.1183C154.009 80.0057 153.643 79.9295 153.272 79.8909L153.025 79.8563H152.352C152.12 79.8513 151.888 79.8711 151.66 79.9156C151.461 79.9544 151.26 79.9759 151.057 79.9799C151.244 79.9009 151.44 79.846 151.64 79.8167C151.871 79.7529 152.108 79.718 152.348 79.7129H153.035L153.292 79.7426C153.675 79.7687 154.055 79.835 154.424 79.9403C154.632 79.9947 154.835 80.0541 155.037 80.1282L155.66 80.3952C156.566 80.8452 157.4 81.4286 158.133 82.1258C159.446 83.3958 160.488 84.92 161.193 86.6055C161.32 86.8921 161.429 87.186 161.52 87.4856C161.594 87.7112 161.657 87.9407 161.707 88.1729C161.756 88.3592 161.787 88.5495 161.801 88.7415Z" fill="#263238"/>
<path d="M165.52 82.6255C165.24 81.9053 164.896 81.2119 164.491 80.5537C163.466 78.99 161.933 77.8284 160.15 77.2656C158.058 76.6278 156.026 76.8256 154.607 76.9591L152.911 77.1618C152.706 77.1995 152.497 77.2177 152.288 77.2162C152.484 77.1408 152.688 77.0894 152.896 77.0629C153.292 76.9838 153.885 76.88 154.587 76.7811C156.462 76.4539 158.384 76.5348 160.224 77.0184C161.232 77.3198 162.168 77.8246 162.973 78.5017C163.636 79.0642 164.2 79.7325 164.644 80.4795C164.95 80.9668 165.194 81.4899 165.371 82.0371C165.444 82.2265 165.494 82.4241 165.52 82.6255Z" fill="#263238"/>
<path d="M160.382 75.3127C157.717 74.6844 154.931 74.7938 152.323 75.6291C152.665 75.4057 153.04 75.2387 153.435 75.1347C154.371 74.8467 155.34 74.6805 156.318 74.6402C157.296 74.6051 158.275 74.6949 159.23 74.9072C159.632 74.9849 160.02 75.1215 160.382 75.3127Z" fill="#263238"/>
<path d="M149.356 65.3887C149.396 65.3887 149.297 66.0858 149.218 67.2033C149.01 70.0655 149.257 72.9426 149.949 75.7276L149.771 75.7869C149.569 75.2183 149.411 74.7535 149.307 74.4272C149.243 74.2676 149.197 74.1019 149.168 73.9328C149.269 74.0863 149.349 74.2526 149.406 74.4272C149.539 74.7387 149.722 75.1936 149.949 75.7573L149.771 75.8117C149.38 74.4436 149.12 73.0412 148.995 71.6237C148.867 70.1573 148.881 68.682 149.035 67.2181C149.099 66.6594 149.173 66.2292 149.233 65.898C149.249 65.7231 149.291 65.5516 149.356 65.3887Z" fill="#263238"/>
<path d="M139.719 52.7061C139.719 52.7061 136.184 52.7061 135.739 56.9534C135.398 60.2167 135.739 63.3812 135.739 64.8151C135.739 66.249 135.111 71.327 135.111 71.327C135.111 71.327 132.698 73.468 132.738 76.0391C132.777 78.6102 134.617 79.4112 134.617 79.4112C134.308 80.208 134.24 81.0777 134.421 81.9127C134.602 82.7476 135.024 83.5111 135.635 84.1085C135.635 84.1085 134.612 86.4769 135.452 88.0641C135.936 88.8539 136.693 89.4395 137.578 89.7106C137.445 89.9976 137.37 90.308 137.356 90.6241C137.343 90.9403 137.392 91.2559 137.501 91.553C137.61 91.8501 137.776 92.1229 137.991 92.3557C138.205 92.5884 138.463 92.7767 138.75 92.9097C138.852 92.9552 138.956 92.9948 139.062 93.0284C140.25 93.3948 141.494 93.5471 142.735 93.4783L145.376 93.4289L147.7 94.7144C147.7 94.7144 151.685 92.9789 151.784 90.6303L151.888 88.2817C151.888 88.2817 150.746 84.425 150.652 83.1888C150.558 81.9527 151.571 79.0009 150.958 77.6757C150.345 76.3506 148.204 75.5694 148.407 73.7201C148.609 71.8709 148.204 70.8424 147.284 69.8189C146.365 68.7954 142.305 66.7583 142.305 66.7583C142.305 66.7583 141.262 63.7916 141.262 61.7594C141.262 59.7272 143.294 53.4823 139.719 52.7061Z" fill="#FFBF9D"/>
<path d="M142.102 67.5298C141.798 67.7776 141.466 67.9899 141.114 68.1627C140.491 68.5286 139.63 69.0131 138.641 69.5372C137.652 70.0614 136.792 70.5261 136.169 70.8475C135.832 71.051 135.474 71.2168 135.101 71.342C135.403 71.0898 135.736 70.8756 136.09 70.7041C136.713 70.3383 137.573 69.8537 138.562 69.3296C139.551 68.8055 140.411 68.3407 141.034 68.0193C141.371 67.8165 141.729 67.6523 142.102 67.5298Z" fill="#FF9A6C"/>
<path d="M144.426 75.5249C144.331 75.6264 144.227 75.7191 144.115 75.8018C143.82 76.0338 143.513 76.25 143.195 76.4495C142.151 77.1186 141.041 77.6787 139.882 78.1208C138.724 78.571 137.523 78.9023 136.298 79.1097C135.803 79.1838 135.442 79.2283 135.18 79.2432C135.043 79.2679 134.902 79.2679 134.765 79.2432C134.765 79.2036 135.338 79.1245 136.248 78.9317C137.448 78.6787 138.626 78.3349 139.774 77.9032C140.917 77.459 142.025 76.9267 143.086 76.3111C143.519 76.0254 143.966 75.763 144.426 75.5249Z" fill="#FF9A6C"/>
<path d="M147.462 72.9788C147.527 73.0036 147.393 73.4733 146.968 73.8342C146.543 74.1952 146.088 74.3039 146.073 74.2397C146.058 74.1754 146.424 73.9875 146.795 73.6414C147.166 73.2953 147.393 72.9492 147.462 72.9788Z" fill="#FF9A6C"/>
<path d="M146.004 82.5215C145.529 82.7537 145.032 82.9359 144.52 83.0654C143.304 83.4259 142.065 83.7083 140.812 83.9109C139.559 84.1137 138.294 84.2326 137.025 84.2669C136.499 84.3073 135.97 84.2907 135.447 84.2174C135.967 84.1425 136.49 84.0996 137.015 84.0889C138.004 84.0197 139.314 83.8911 140.772 83.6587C142.231 83.4263 143.532 83.1247 144.471 82.8874C144.974 82.7358 145.486 82.6136 146.004 82.5215Z" fill="#FF9A6C"/>
<path d="M149.237 81.953C149.313 81.6958 149.404 81.4432 149.509 81.1965C149.707 80.5928 149.772 79.9538 149.702 79.3225C149.623 78.6919 149.407 78.0862 149.069 77.5475C148.91 77.3321 148.763 77.1076 148.629 76.875C148.869 77.0158 149.072 77.2105 149.223 77.4436C149.622 77.986 149.875 78.623 149.954 79.2921C150.034 79.9612 149.939 80.6396 149.678 81.2608C149.58 81.5192 149.43 81.7547 149.237 81.953Z" fill="#FF9A6C"/>
<path d="M146.202 89.681C145.796 89.8291 145.374 89.9287 144.946 89.9776C143.919 90.1398 142.88 90.2208 141.84 90.2199C140.798 90.2193 139.758 90.1316 138.73 89.9579C138.301 89.9096 137.879 89.8083 137.474 89.6562C137.904 89.6653 138.332 89.7066 138.755 89.7799C140.804 90.0139 142.872 90.0139 144.921 89.7799C145.344 89.7124 145.773 89.6794 146.202 89.681Z" fill="#FF9A6C"/>
<path d="M139.912 61.8089C139.777 61.9475 139.606 62.0452 139.418 62.0908C138.982 62.2369 138.519 62.2842 138.062 62.2295C137.605 62.1748 137.167 62.0193 136.777 61.7743C136.481 61.5815 136.342 61.4134 136.362 61.3887C136.908 61.6637 137.491 61.8601 138.093 61.9721C138.704 62.0046 139.316 61.9497 139.912 61.8089Z" fill="#FF9A6C"/>
<path d="M149.969 82.2349C150.014 82.3567 150.034 82.486 150.029 82.6156C150.03 82.9671 149.988 83.3174 149.905 83.6589C149.811 84.089 149.648 84.5884 149.49 85.1422C149.298 85.7217 149.236 86.3359 149.307 86.942C149.391 87.57 149.86 88.0743 149.935 88.7121C149.984 89.2512 149.846 89.7906 149.544 90.24C149.36 90.5378 149.146 90.8162 148.906 91.0707C148.738 91.2536 148.634 91.3426 148.619 91.3327C148.605 91.3228 148.961 90.8976 149.386 90.151C149.643 89.7305 149.752 89.2364 149.697 88.7468C149.638 88.2078 149.163 87.7035 149.05 86.9865C148.974 86.3424 149.046 85.6896 149.262 85.0779C149.435 84.5192 149.613 84.0297 149.727 83.5946C149.84 83.1477 149.921 82.6933 149.969 82.2349Z" fill="#FF9A6C"/>
<path d="M151.299 85.3398C151.38 85.4847 151.437 85.6416 151.467 85.8046C151.556 86.1062 151.675 86.5512 151.784 87.105C151.917 87.7567 151.996 88.4182 152.021 89.0828C152.065 89.9142 151.913 90.7442 151.576 91.5056C151.187 92.2353 150.671 92.8899 150.053 93.4389C149.563 93.8888 149.039 94.3004 148.486 94.6701C148.016 94.9915 147.621 95.2288 147.344 95.3821C147.207 95.4741 147.059 95.5473 146.904 95.5997C146.879 95.5651 147.472 95.1893 148.387 94.5218C148.918 94.1359 149.423 93.7164 149.9 93.2659C150.487 92.7278 150.978 92.0942 151.354 91.3919C151.669 90.6642 151.819 89.8756 151.794 89.0828C151.784 88.4282 151.724 87.7754 151.616 87.1297C151.423 86.0271 151.26 85.3497 151.299 85.3398Z" fill="#263238"/>
<path d="M113.993 68.8797C113.787 68.7599 113.594 68.6173 113.42 68.4545L111.936 67.2134L110.908 66.3482C110.732 66.1841 110.536 66.0429 110.324 65.9279C110.222 65.8742 110.108 65.8461 109.993 65.8461C109.878 65.8461 109.764 65.8742 109.662 65.9279C109.237 66.1504 108.95 66.6943 108.589 67.1492C108.228 67.6041 107.872 68.1381 107.496 68.6325C106.903 69.4335 106.324 70.1999 105.795 70.9119L105.474 71.3371L105.578 70.813C105.861 69.3427 106.273 67.9 106.809 66.5014C107.007 66.007 107.185 65.5818 107.303 65.3098C107.358 65.1632 107.432 65.025 107.526 64.8994C107.491 65.0499 107.443 65.1972 107.382 65.3395C107.278 65.6213 107.125 66.0317 106.947 66.5558C106.464 67.9613 106.085 69.4008 105.815 70.8625L105.592 70.7636L107.288 68.4792L108.381 66.9959L108.905 66.2987C109.073 66.0519 109.296 65.8486 109.558 65.7054C109.695 65.6451 109.845 65.6169 109.995 65.6229C110.144 65.6289 110.291 65.669 110.423 65.74C110.647 65.8685 110.854 66.0229 111.041 66.1998L112.03 67.0898L113.474 68.3902C113.661 68.5378 113.835 68.7016 113.993 68.8797Z" fill="#263238"/>
<path d="M134.869 64.7015C134.81 64.7657 134.746 64.8236 134.676 64.8746L134.092 65.3295L131.912 66.9661L124.639 72.321L124.53 72.4001L124.456 72.2864C124.396 72.1974 124.337 72.0985 124.273 72.0046L120.624 66.2393L120.757 66.2838C119.351 66.8429 117.995 67.5194 116.703 68.3061C116.238 68.5879 115.877 68.8005 115.63 68.9835C115.51 69.0742 115.38 69.152 115.244 69.2159C115.349 69.1068 115.465 69.009 115.59 68.9241C115.827 68.7511 116.179 68.4989 116.638 68.1973C117.914 67.3671 119.265 66.6586 120.673 66.0811L120.757 66.0464L120.807 66.1206C121.88 67.7869 123.14 69.7598 124.49 71.8661C124.554 71.9601 124.614 72.0589 124.673 72.148L124.485 72.1133L131.808 66.8227L134.033 65.2454L134.646 64.8301C134.79 64.7362 134.864 64.6917 134.869 64.7015Z" fill="#263238"/>
<path d="M90.4919 84.3657C90.5165 84.4794 90.5264 84.5957 90.5215 84.7118C90.5215 84.9689 90.5215 85.3002 90.5463 85.7007C90.5463 86.5957 90.5908 87.8466 90.6155 89.3794C90.6748 92.4846 90.7984 96.7962 90.9616 101.518C91.1248 106.24 91.2187 110.552 91.2286 113.662V117.345C91.2286 117.756 91.2286 118.092 91.2286 118.334C91.2328 118.452 91.2246 118.57 91.2039 118.685C91.2039 118.567 91.2039 118.453 91.2039 118.334C91.2039 118.082 91.2039 117.746 91.1742 117.345C91.1742 116.446 91.1346 115.195 91.105 113.667C91.0506 110.557 90.922 106.25 90.7638 101.523C90.6056 96.7962 90.5067 92.4895 90.4968 89.3794V84.7118C90.4878 84.5967 90.4861 84.4811 90.4919 84.3657Z" fill="#263238"/>
<path d="M114.156 129.025C114.141 128.98 114.131 128.933 114.127 128.886C114.131 128.745 114.116 128.603 114.082 128.466C114.043 128.075 113.988 127.536 113.924 126.849C113.785 125.445 113.627 123.388 113.469 120.891C113.311 118.394 113.177 115.368 113.093 112.035C113.009 108.703 112.999 105.029 113.093 101.157C113.187 97.2859 113.36 93.6419 113.588 90.3142C113.815 86.9866 114.082 83.9902 114.349 81.4834C114.616 78.9765 114.844 76.9443 115.061 75.55C115.16 74.8627 115.234 74.3287 115.289 73.943C115.318 73.77 115.338 73.6315 115.358 73.5227C115.36 73.4753 115.37 73.4285 115.387 73.3843C115.397 73.4316 115.397 73.4804 115.387 73.5277C115.387 73.6365 115.363 73.7749 115.348 73.9479C115.303 74.3336 115.244 74.8726 115.165 75.5599C114.997 76.9641 114.779 78.9913 114.537 81.4932C114.295 83.9952 114.043 86.9965 113.83 90.3241C113.617 93.6517 113.454 97.3156 113.365 101.162C113.276 105.009 113.301 108.673 113.365 112.006C113.429 115.338 113.553 118.335 113.691 120.851C113.83 123.368 113.954 125.41 114.062 126.814C114.107 127.502 114.146 128.046 114.171 128.436C114.165 128.577 114.173 128.718 114.196 128.857C114.188 128.914 114.175 128.97 114.156 129.025Z" fill="#263238"/>
<path d="M99.4216 48.0928L98.8975 48.4389L97.3548 49.4278C96.6725 49.8679 95.8715 50.4958 94.932 51.188C94.4376 51.5441 93.9827 51.9742 93.4487 52.4093L92.6427 53.0867C92.3658 53.3241 92.1038 53.5812 91.8219 53.8531C89.0878 56.4047 86.6857 59.2903 84.6722 62.4417L83.7921 63.8558C83.4806 64.3256 83.2432 64.8447 82.9565 65.3392C82.6697 65.8336 82.3878 66.3676 82.1307 66.9115C81.8736 67.4554 81.6363 68.0142 81.3693 68.5778C81.2457 68.8597 81.1072 69.1366 80.9886 69.4283C80.8699 69.72 80.766 70.0167 80.6523 70.3183C80.4298 70.9116 80.1925 71.5099 79.9749 72.128C79.609 73.3789 79.1443 74.6447 78.8674 75.9946C77.4571 81.8349 77.2218 87.8973 78.1751 93.8293C79.4148 101.468 82.6135 108.655 87.4592 114.689C92.3049 120.723 98.6321 125.398 105.823 128.258C113.014 131.117 120.824 132.064 128.49 131.005C136.156 129.946 143.417 126.918 149.564 122.216C151.115 121.022 152.592 119.734 153.984 118.359L154.973 117.311C155.309 116.965 155.636 116.614 155.962 116.243L156.901 115.16C157.198 114.784 157.49 114.408 157.786 114.037C162.26 108.277 165.244 101.503 166.474 94.3139C166.764 92.645 166.96 90.9613 167.062 89.2705C167.112 88.4349 167.112 87.6092 167.141 86.7983C167.171 85.9874 167.082 85.1616 167.052 84.3557C167.052 83.9552 167.018 83.5497 167.003 83.1492C166.988 82.7487 166.914 82.3581 166.874 81.9626C166.776 81.1764 166.682 80.3952 166.588 79.6238C166.494 78.8525 166.291 78.1009 166.143 77.3494C166.02 76.6038 165.855 75.8659 165.648 75.1392L165.035 72.9982C164.94 72.6465 164.823 72.3014 164.684 71.9648C164.555 71.6236 164.427 71.2825 164.303 70.9462C164.041 70.2787 163.809 69.5964 163.527 68.9684C163.245 68.3405 162.939 67.7026 162.647 67.0846C160.497 62.6141 157.612 58.5359 154.113 55.02C151.462 52.3848 148.504 50.0788 145.302 48.1521L143.413 47.0693C143.128 46.9011 142.834 46.7492 142.533 46.6144L141.702 46.2188L140.219 45.5167C139.811 45.3261 139.391 45.1609 138.963 45.0223L137.242 44.3745L136.659 44.1372L137.252 44.3498L138.978 44.9926C139.353 45.1409 139.793 45.2695 140.243 45.4871L141.727 46.1793L142.562 46.5748C142.865 46.7083 143.16 46.8568 143.447 47.0198L145.341 48.0977C148.564 50.0124 151.542 52.3138 154.207 54.9508C157.725 58.4655 160.63 62.5452 162.8 67.0203C163.092 67.6483 163.389 68.2762 163.69 68.919C163.992 69.5618 164.185 70.2392 164.471 70.8968L164.857 71.9154C164.995 72.2539 165.113 72.6007 165.208 72.9537C165.416 73.6657 165.623 74.3777 165.831 75.1045C166.044 75.8348 166.217 76.5759 166.35 77.3246C166.499 78.0762 166.677 78.808 166.805 79.604C166.934 80.4001 166.993 81.1665 167.092 81.9576C167.136 82.3532 167.201 82.7487 167.225 83.1492C167.25 83.5497 167.26 83.9552 167.275 84.3606C167.305 85.1715 167.349 85.9874 167.369 86.8329C167.389 87.6784 167.344 88.4893 167.29 89.3051C166.786 98.3564 163.538 107.04 157.979 114.201L157.079 115.313L156.13 116.406C155.819 116.78 155.489 117.138 155.141 117.479L154.152 118.537C152.752 119.922 151.266 121.216 149.702 122.413C143.526 127.135 136.231 130.175 128.53 131.239C120.828 132.302 112.983 131.351 105.758 128.48C98.5336 125.609 92.1761 120.914 87.3057 114.855C82.4352 108.795 79.2179 101.577 77.9675 93.9035C77.4669 90.8104 77.3011 87.6723 77.473 84.5436C77.5964 81.6576 78.0122 78.7916 78.7141 75.9896C78.991 74.6348 79.4607 73.369 79.8266 72.1082C80.0491 71.4951 80.2914 70.8918 80.5188 70.2936C80.6325 69.9969 80.7463 69.7002 80.855 69.4036C80.9638 69.1069 81.1171 68.8349 81.2407 68.5482C81.5028 67.9845 81.7352 67.4307 82.0071 66.8819C82.2791 66.333 82.5708 65.8237 82.8427 65.3046C83.1147 64.7854 83.3718 64.2712 83.6833 63.7965L84.5733 62.3824C86.5965 59.2255 89.0178 56.3422 91.7774 53.8037C92.0593 53.5416 92.3213 53.2746 92.5982 53.0373L93.4091 52.3599C93.9431 51.9297 94.398 51.5045 94.8925 51.1485C95.8814 50.4563 96.6478 49.8382 97.335 49.4031L98.8926 48.4142C99.2288 48.1966 99.4216 48.0928 99.4216 48.0928Z" fill="#263238"/>
</g>
</g>
<defs>
<clipPath id="clip0_222_37069">
<rect width="203" height="211.696" fill="white"/>
</clipPath>
<clipPath id="clip1_222_37069">
<rect width="187.693" height="212" fill="white" transform="translate(7.95349 -0.620117)"/>
</clipPath>
</defs>
</svg>
