<svg width="440" height="648" viewBox="0 0 440 648" fill="none" xmlns="http://www.w3.org/2000/svg">
<rect x="1" y="1" width="438" height="646" rx="27" fill="#07041B"/>
<g clip-path="url(#clip0_216_150246)">
<path d="M185.967 153.059C188.723 150.555 191.801 148.431 195.119 146.743L195.217 136.407L211.903 132.79L216.267 142.149C219.991 142.316 223.676 142.982 227.223 144.13L234.59 136.901L248.945 146.146L245.414 155.844C247.917 158.6 250.042 161.678 251.73 164.997L262.066 165.094L265.683 181.781L256.329 186.173C256.149 189.882 255.477 193.551 254.331 197.083L261.555 204.45L252.316 218.805L242.617 215.274C239.861 217.778 236.783 219.902 233.465 221.59L233.367 231.926L216.675 235.555L212.317 226.201C208.593 226.029 204.909 225.363 201.361 224.22L194.005 231.449L179.65 222.205L183.182 212.512C180.678 209.756 178.554 206.678 176.866 203.359L166.53 203.262L162.912 186.57L172.272 182.206C172.431 178.481 173.088 174.795 174.224 171.244L167.018 163.889L176.263 149.534L185.967 153.059ZM195.286 171.927C192.864 175.689 191.613 180.084 191.689 184.557C191.766 189.029 193.167 193.379 195.715 197.056C198.264 200.732 201.845 203.57 206.007 205.211C210.168 206.852 214.723 207.222 219.095 206.275C223.467 205.327 227.46 203.104 230.568 199.888C233.677 196.671 235.762 192.604 236.559 188.203C237.357 183.801 236.831 179.261 235.049 175.158C233.266 171.055 230.307 167.573 226.545 165.152C221.505 161.9 215.38 160.784 209.517 162.048C203.654 163.312 198.533 166.853 195.28 171.893V171.927H195.286Z" fill="#E0E0E0"/>
<path d="M195.257 171.927L195.458 171.623C195.607 171.416 195.808 171.118 196.078 170.739L196.532 170.09C196.716 169.855 196.934 169.625 197.158 169.361L197.893 168.517C198.181 168.204 198.486 167.907 198.806 167.627C200.388 166.107 202.195 164.84 204.163 163.871C206.764 162.565 209.593 161.773 212.495 161.54L213.718 161.454H214.969C215.397 161.445 215.825 161.464 216.25 161.511L217.548 161.666L218.208 161.753L218.863 161.896L220.189 162.195C220.637 162.31 221.068 162.476 221.515 162.614C221.968 162.745 222.411 162.907 222.842 163.096C223.737 163.459 224.606 163.883 225.443 164.365C225.862 164.612 226.304 164.842 226.718 165.117L227.946 165.99C228.147 166.145 228.366 166.277 228.561 166.444L229.135 166.949C229.514 167.294 229.916 167.621 230.283 167.988C231.788 169.51 233.089 171.22 234.154 173.076C234.412 173.552 234.636 174.058 234.889 174.552C235.003 174.804 235.141 175.045 235.239 175.309L235.532 176.09C235.933 177.149 236.263 178.232 236.519 179.335C236.743 180.472 236.893 181.623 236.967 182.78L237.03 183.653V185.41C237.029 185.706 237.008 186.001 236.967 186.294C236.892 186.868 236.818 187.442 236.749 188.062L236.353 189.814C235.143 194.572 232.413 198.806 228.578 201.872L227.143 202.957L225.586 203.91L225.207 204.14L224.806 204.335L224.013 204.72L223.221 205.105L222.405 205.409C220.276 206.246 218.024 206.731 215.739 206.845L214.901 206.902H214.068C213.518 206.912 212.968 206.893 212.42 206.845C210.291 206.647 208.196 206.172 206.19 205.432C205.702 205.243 205.237 205.013 204.766 204.806L204.065 204.496C203.836 204.387 203.623 204.243 203.399 204.123L202.102 203.399C201.677 203.135 201.292 202.825 200.89 202.544C200.102 201.986 199.356 201.372 198.656 200.706C198.307 200.39 197.977 200.052 197.669 199.696C197.359 199.346 197.026 199.024 196.739 198.662L195.917 197.577L195.516 197.043L195.165 196.469C194.936 196.096 194.712 195.722 194.482 195.355C194.252 194.987 194.097 194.585 193.908 194.206C193.718 193.827 193.535 193.454 193.368 193.058C193.202 192.662 193.087 192.289 192.943 191.91C191.954 189.172 191.503 186.269 191.617 183.36C191.687 181.168 192.092 178.999 192.817 176.929C192.972 176.51 193.069 176.09 193.247 175.729L193.713 174.712C193.862 174.397 193.982 174.104 194.12 173.845C194.258 173.587 194.402 173.363 194.522 173.156L195.096 172.232C195.223 172.025 195.292 171.922 195.292 171.922C195.292 171.922 195.24 172.037 195.125 172.249L194.603 173.191L194.212 173.88C194.08 174.138 193.965 174.454 193.822 174.753L193.374 175.769C193.214 176.161 193.074 176.562 192.955 176.969C192.252 179.031 191.865 181.188 191.806 183.366C191.71 186.25 192.172 189.126 193.167 191.835L193.592 192.983C193.758 193.357 193.948 193.724 194.132 194.132C194.299 194.526 194.491 194.91 194.706 195.28C194.936 195.659 195.154 196.015 195.383 196.383L195.728 196.957L196.13 197.485C196.4 197.841 196.704 198.197 196.945 198.559C197.23 198.918 197.539 199.258 197.87 199.575C198.175 199.926 198.501 200.258 198.846 200.569C199.541 201.225 200.282 201.831 201.062 202.383C201.459 202.664 201.843 202.957 202.262 203.227L203.554 203.968C203.773 204.088 203.985 204.226 204.215 204.335L204.915 204.548C205.38 204.749 205.84 204.978 206.316 205.162C207.296 205.519 208.297 205.815 209.314 206.046C210.355 206.287 211.412 206.454 212.477 206.546C213.017 206.592 213.563 206.58 214.108 206.603H214.929L215.756 206.546C216.869 206.471 217.976 206.323 219.069 206.104C220.178 205.846 221.268 205.512 222.331 205.105L223.14 204.8L223.921 204.427L224.708 204.043L225.098 203.853L225.472 203.629L226.97 202.705L228.383 201.637C232.176 198.609 234.873 194.422 236.06 189.716C236.192 189.142 236.318 188.568 236.45 187.994C236.552 187.424 236.623 186.849 236.663 186.271C236.707 185.984 236.728 185.694 236.726 185.404V183.681L236.663 182.82C236.557 180.564 236.08 178.341 235.25 176.24L234.963 175.465C234.871 175.206 234.733 174.965 234.619 174.718C234.372 174.23 234.154 173.73 233.895 173.26C232.844 171.425 231.563 169.733 230.082 168.224C229.715 167.862 229.319 167.541 228.934 167.202L228.36 166.696C228.165 166.536 227.952 166.398 227.751 166.249C227.349 165.956 226.942 165.674 226.545 165.376C226.138 165.106 225.716 164.859 225.282 164.635C224.456 164.152 223.597 163.73 222.71 163.372C222.284 163.182 221.847 163.021 221.401 162.89C220.958 162.752 220.533 162.585 220.091 162.47L218.782 162.178L218.133 162.028L217.479 161.942L216.193 161.781C215.773 161.718 215.343 161.741 214.929 161.718C214.516 161.692 214.102 161.692 213.689 161.718L212.477 161.799C209.599 162.017 206.79 162.787 204.203 164.067C202.242 165.019 200.438 166.264 198.852 167.759C198.53 168.034 198.226 168.333 197.933 168.632L197.192 169.464C196.963 169.723 196.739 169.952 196.561 170.182L196.09 170.819L195.452 171.686C195.391 171.77 195.326 171.85 195.257 171.927Z" fill="#263238"/>
<path d="M185.967 153.059L185.347 152.841L183.498 152.181L176.205 149.574H176.263L167.041 163.929V163.837L174.276 171.192L174.31 171.227V171.279C173.179 174.813 172.518 178.481 172.347 182.188V182.252H172.295L162.941 186.621L162.999 186.501C164.147 191.755 165.353 197.336 166.628 203.193L166.513 203.095L176.848 203.187H176.923L176.957 203.256C178.646 206.566 180.77 209.634 183.274 212.38L183.325 212.437V212.512L179.8 222.205L179.748 222.049L194.103 231.288H193.931L201.292 224.071L201.355 224.007H201.436C204.969 225.146 208.637 225.81 212.345 225.983H212.432L212.466 226.063C213.833 228.997 215.337 232.19 216.83 235.423L216.669 235.336L233.355 231.719L233.241 231.863C233.241 228.607 233.304 225.087 233.338 221.527V221.441L233.419 221.401C236.721 219.706 239.786 217.582 242.531 215.084L242.6 215.027H242.686L252.379 218.558L252.206 218.616L261.451 204.261V204.444L254.228 197.083L254.165 197.02V196.934C255.307 193.402 255.973 189.733 256.146 186.024V185.938L256.226 185.898L265.585 181.54L265.505 181.7C264.272 175.997 263.068 170.433 261.893 165.008L262.025 165.117L251.69 165.014H251.604L251.569 164.939C249.88 161.63 247.756 158.561 245.253 155.815L245.201 155.758V155.683L248.733 145.979L248.784 146.123L234.429 136.872H234.573L227.2 144.096L227.154 144.142H227.091C223.559 142.997 219.89 142.329 216.181 142.155H216.124V142.103L211.806 132.819L211.903 132.865L195.206 136.459L195.257 136.396C195.211 140.53 195.177 143.912 195.142 146.731V146.76C192.644 148.03 190.278 149.546 188.08 151.285C187.356 151.859 186.834 152.313 186.483 152.611L185.967 153.059C185.967 153.059 186.61 152.416 188.051 151.25C190.237 149.483 192.598 147.944 195.096 146.657V146.703C195.096 143.895 195.148 140.513 195.177 136.367V136.315H195.229L211.915 132.675H211.984V132.738C213.339 135.609 214.769 138.687 216.359 142.086L216.273 142.035C220.006 142.202 223.7 142.866 227.257 144.01H227.148L234.481 136.792L234.544 136.729L234.624 136.775L248.979 146.014L249.066 146.065L249.031 146.163C247.883 149.31 246.734 152.531 245.506 155.856L245.477 155.723C247.997 158.49 250.139 161.58 251.845 164.911L251.724 164.836L262.06 164.934H262.169V165.043C263.344 170.471 264.552 176.033 265.792 181.729V181.844L265.689 181.89L256.335 186.254L256.415 186.127C256.247 189.865 255.579 193.563 254.429 197.123L254.394 196.974L261.623 204.341L261.704 204.421L261.641 204.525L252.396 218.88L252.333 218.977L252.224 218.937L242.525 215.406H242.68C239.915 217.925 236.825 220.062 233.493 221.762L233.574 221.63C233.539 225.173 233.505 228.693 233.476 231.966V232.081L233.355 232.109L216.669 235.721L216.554 235.75L216.503 235.641L212.144 226.287L212.265 226.367C208.529 226.194 204.833 225.524 201.275 224.375L201.418 224.341L194.092 231.535L194.011 231.61L193.919 231.552L179.564 222.302L179.472 222.245L179.507 222.141C180.741 218.771 181.947 215.452 183.044 212.449V212.587C180.529 209.819 178.393 206.73 176.693 203.399L176.802 203.463L166.467 203.359H166.375V203.267C165.112 197.41 163.906 191.829 162.769 186.575V186.495L162.844 186.455L172.186 182.097L172.134 182.183C172.313 178.464 172.987 174.785 174.138 171.244V171.33L166.92 163.958L166.874 163.917L166.909 163.866L176.177 149.511V149.476H176.205L183.411 152.129L185.26 152.812L185.967 153.059Z" fill="#263238"/>
<path d="M262.577 239.953L229.33 261.198H338.319V239.953H262.577Z" fill="#455A64"/>
<path d="M324.051 226.833V228.969V274.313L355 250.57L324.051 226.833Z" fill="#455A64"/>
<path d="M283.581 249.623H284.477V252.781H286.452V253.51H283.581V249.623Z" fill="#263238"/>
<path d="M289.518 252.672H287.715L287.371 253.498H286.452L288.175 249.623H289.065L290.787 253.498H289.845L289.518 252.672ZM289.231 251.988L288.617 250.484L288.002 251.965L289.231 251.988Z" fill="#263238"/>
<path d="M291.086 251.793V249.623H291.981V251.759C291.981 252.499 292.303 252.804 292.848 252.804C293.394 252.804 293.71 252.499 293.71 251.759V249.623H294.6V251.793C294.6 252.259 294.415 252.706 294.085 253.036C293.756 253.365 293.309 253.55 292.843 253.55C292.377 253.55 291.93 253.365 291.6 253.036C291.271 252.706 291.086 252.259 291.086 251.793Z" fill="#263238"/>
<path d="M299.038 249.623V253.498H298.303L296.368 251.144V253.498H295.484V249.623H296.213L298.137 251.977V249.623H299.038Z" fill="#263238"/>
<path d="M299.71 251.563C299.736 251.146 299.884 250.746 300.135 250.412C300.386 250.078 300.73 249.825 301.124 249.684C301.517 249.543 301.944 249.521 302.35 249.621C302.756 249.72 303.124 249.936 303.408 250.243L302.834 250.777C302.672 250.576 302.452 250.431 302.204 250.361C301.956 250.291 301.692 250.3 301.45 250.386C301.207 250.472 300.996 250.631 300.848 250.841C300.699 251.052 300.619 251.303 300.619 251.561C300.619 251.818 300.699 252.069 300.848 252.28C300.996 252.49 301.207 252.649 301.45 252.735C301.692 252.821 301.956 252.83 302.204 252.76C302.452 252.69 302.672 252.545 302.834 252.344L303.408 252.873C303.126 253.181 302.759 253.4 302.353 253.501C301.947 253.602 301.52 253.582 301.126 253.442C300.731 253.303 300.387 253.05 300.135 252.716C299.883 252.382 299.736 251.981 299.71 251.563Z" fill="#263238"/>
<path d="M307.565 249.623V253.498H306.67V251.914H304.907V253.498H304.011V249.623H304.907V251.15H306.67V249.623H307.565Z" fill="#263238"/>
<path d="M128.403 186.926C131.814 230.18 168.103 264.328 212.236 264.328V243.082C195.575 243.069 179.6 236.446 167.816 224.667C156.033 212.887 149.404 196.915 149.384 180.253C149.384 180.253 150.332 169.286 150.992 165.984L130.074 162.057C129.31 165.806 128.099 183.113 128.403 186.926Z" fill="#540494"/>
<path d="M155.39 223.433L155.029 224.691V224.725L155.522 225.334L156.361 224.651L156.935 225.34L153.938 227.797L152.875 226.5C152.221 225.696 152.227 224.857 152.875 224.306C153.071 224.133 153.316 224.024 153.576 223.996C153.836 223.967 154.099 224.019 154.328 224.145L154.742 222.687L155.39 223.433ZM153.49 226.075L153.955 226.649L155 225.793L154.535 225.219C154.19 224.794 153.817 224.742 153.49 225.007C153.162 225.271 153.145 225.65 153.49 226.075Z" fill="#263238"/>
<path d="M152.089 220.223L152.663 219.793L154.443 222.204L151.331 224.501L149.608 222.147L150.182 221.716L151.388 223.359L152.066 222.859L150.998 221.412L151.572 220.999L152.64 222.446L153.358 221.912L152.089 220.223Z" fill="#263238"/>
<path d="M147.001 218.329L151.153 217.565L151.647 218.3L149.35 221.843L148.81 221.039L150.452 218.518L147.489 219.064L147.001 218.329Z" fill="#263238"/>
<path d="M146.795 217.99L146.318 217.226L149.608 215.176L150.085 215.934L146.795 217.99Z" fill="#263238"/>
<path d="M147.007 212.185L147.633 211.823L149.137 214.418L145.773 216.365L144.303 213.833L144.928 213.471L145.951 215.234L146.68 214.809L145.773 213.253L146.381 212.902L147.283 214.459L148.058 214.011L147.007 212.185Z" fill="#263238"/>
<path d="M141.179 207.849L145.198 207.224L145.64 208.079L143.688 210.031L146.427 209.624L146.858 210.474L143.987 213.345L143.568 212.518L145.595 210.502L142.724 210.921L142.35 210.186L144.389 208.148L141.518 208.59L141.179 207.849Z" fill="#263238"/>
<path d="M164.038 160.725L122.276 149.269L135.787 181.867L164.038 160.725Z" fill="#455A64"/>
<path d="M153.392 159.915C157.831 147.837 165.865 137.41 176.412 130.037C186.959 122.665 199.512 118.702 212.38 118.682V97.4363C176.027 97.4363 144.992 120.623 133.284 152.985L153.392 159.915Z" fill="#455A64"/>
<path d="M156.321 130.958L157.773 129.965C158.824 129.247 159.972 129.391 160.644 130.361C161.316 131.331 161.018 132.451 159.972 133.163L158.52 134.156L156.321 130.958ZM159.507 132.583C159.645 132.504 159.765 132.399 159.861 132.273C159.958 132.147 160.029 132.004 160.07 131.851C160.111 131.698 160.121 131.538 160.101 131.381C160.08 131.224 160.029 131.072 159.95 130.935C159.87 130.798 159.765 130.678 159.639 130.581C159.514 130.485 159.37 130.414 159.217 130.373C159.064 130.332 158.904 130.321 158.747 130.342C158.59 130.363 158.439 130.414 158.302 130.493C158.25 130.524 158.2 130.559 158.152 130.596L157.475 131.062L158.83 133.043L159.507 132.583Z" fill="#263238"/>
<path d="M164.354 129.293L164.761 129.867L162.281 131.555L160.128 128.38L162.545 126.726L162.953 127.301L161.27 128.449L161.741 129.144L163.2 128.179L163.59 128.753L162.109 129.77L162.614 130.51L164.354 129.293Z" fill="#263238"/>
<path d="M166.731 125.549C167.219 126.267 166.989 127.077 166.157 127.657L165.514 128.099L166.088 128.983L165.353 129.488L163.165 126.284L164.549 125.337C165.405 124.734 166.243 124.831 166.731 125.549ZM165.984 126.066C165.743 125.71 165.376 125.664 164.922 125.968L164.348 126.382L165.106 127.496L165.68 127.082C166.134 126.772 166.22 126.411 165.984 126.066Z" fill="#263238"/>
<path d="M166.444 124.033L167.185 123.528L168.959 126.123L170.561 125.027L170.974 125.601L168.626 127.203L166.444 124.033Z" fill="#263238"/>
<path d="M170.061 123.924C169.804 123.592 169.651 123.191 169.622 122.772C169.592 122.353 169.688 121.934 169.896 121.569C170.105 121.204 170.417 120.909 170.793 120.722C171.169 120.534 171.592 120.463 172.009 120.516C172.426 120.569 172.818 120.744 173.135 121.02C173.452 121.295 173.68 121.659 173.791 122.064C173.901 122.47 173.889 122.899 173.756 123.297C173.622 123.696 173.374 124.046 173.041 124.303L172.932 124.384C172.722 124.544 172.483 124.661 172.228 124.728C171.973 124.795 171.707 124.811 171.446 124.776C171.184 124.74 170.932 124.653 170.705 124.52C170.477 124.386 170.278 124.209 170.119 123.999C170.098 123.975 170.079 123.95 170.061 123.924ZM172.817 122.041C172.677 121.849 172.484 121.703 172.261 121.62C172.039 121.538 171.797 121.522 171.565 121.576C171.334 121.63 171.124 121.75 170.96 121.923C170.797 122.095 170.688 122.312 170.647 122.546C170.605 122.779 170.634 123.02 170.728 123.238C170.822 123.456 170.979 123.641 171.178 123.771C171.376 123.901 171.609 123.969 171.846 123.968C172.084 123.966 172.316 123.895 172.513 123.763C172.778 123.596 172.965 123.33 173.034 123.024C173.103 122.718 173.048 122.398 172.881 122.133C172.863 122.1 172.842 122.069 172.817 122.041Z" fill="#263238"/>
<path d="M175.843 120.663L176.613 121.811L175.872 122.316L175.097 121.168L172.45 119.956L173.237 119.422L175.057 120.249L174.942 118.24L175.671 117.746L175.843 120.663Z" fill="#263238"/>
<path d="M224.369 134.26L196.704 103.994L232.006 84L224.369 134.26Z" fill="#E0E0E0"/>
<path d="M262.542 138.917C256.644 132.165 249.369 126.753 241.206 123.045C233.044 119.337 224.182 117.419 215.216 117.419V96.1731C227.212 96.1733 239.068 98.7395 249.989 103.699C260.911 108.659 270.646 115.897 278.539 124.929L262.542 138.917Z" fill="#E0E0E0"/>
<path d="M238.632 110.379L237.484 109.937L237.742 109.253L240.901 110.459L240.636 111.142L239.488 110.7L238.34 113.635L237.507 113.313L238.632 110.379Z" fill="#263238"/>
<path d="M243.008 114.639L242.755 115.317L239.942 114.237L241.331 110.62L244.064 111.671L243.806 112.343L241.905 111.613L241.601 112.4L243.283 113.043L243.036 113.692L241.354 113.049L241.033 113.887L243.008 114.639Z" fill="#263238"/>
<path d="M243.272 115.104L243.794 114.582C244.054 114.958 244.42 115.248 244.845 115.415C245.345 115.604 245.609 115.518 245.695 115.294C245.953 114.616 243.668 114.278 244.185 112.934C244.42 112.32 245.115 111.998 246.143 112.36C246.591 112.52 246.988 112.797 247.291 113.164L246.792 113.703C246.556 113.406 246.247 113.175 245.896 113.032C245.402 112.842 245.138 112.957 245.052 113.181C244.794 113.853 247.073 114.197 246.568 115.524C246.332 116.098 245.638 116.454 244.598 116.058C244.068 115.885 243.605 115.552 243.272 115.104Z" fill="#263238"/>
<path d="M248.555 114.163L247.406 113.721L247.665 113.037L250.817 114.243L250.558 114.926L249.41 114.484L248.262 117.419L247.406 117.103L248.555 114.163Z" fill="#263238"/>
<path d="M289.777 218.989L270.541 209.968C274.457 201.614 278.051 189.567 278.051 180.253C278.08 170.404 275.771 160.689 271.316 151.905C270.541 150.372 267.727 145.279 266.952 143.998L285.131 132.997C286.245 134.846 289.323 140.461 290.265 142.304C296.242 154.059 299.338 167.066 299.297 180.253C299.297 192.708 295.03 207.786 289.777 218.989Z" fill="#540494"/>
<path d="M259.47 153.691L295.651 129.884L262.249 118.509L259.47 153.691Z" fill="#540494"/>
<path d="M286.618 157.624L287.095 159.318C287.44 160.541 286.94 161.615 285.815 161.902C285.553 161.974 285.28 161.991 285.012 161.952C284.743 161.913 284.486 161.819 284.256 161.675C284.026 161.532 283.828 161.342 283.676 161.118C283.523 160.894 283.418 160.641 283.368 160.375L282.892 158.652L286.618 157.624ZM284.063 160.128C284.078 160.29 284.125 160.447 284.202 160.59C284.278 160.734 284.384 160.86 284.511 160.962C284.638 161.063 284.784 161.138 284.94 161.182C285.097 161.226 285.261 161.237 285.422 161.216C285.584 161.195 285.739 161.141 285.879 161.058C286.019 160.975 286.141 160.865 286.237 160.734C286.333 160.602 286.402 160.453 286.439 160.295C286.476 160.136 286.48 159.972 286.452 159.812C286.439 159.697 286.408 159.584 286.36 159.479L286.136 158.686L283.839 159.341L284.063 160.128Z" fill="#263238"/>
<path d="M285.441 165.801L284.741 165.956L284.08 163.033L287.853 162.177L288.502 165.048L287.801 165.209L287.353 163.223L286.532 163.412L286.928 165.135L286.245 165.29L285.849 163.533L284.976 163.734L285.441 165.801Z" fill="#263238"/>
<path d="M289.323 169.55L285.217 168.58L285.062 167.713L288.582 165.416L288.749 166.369L286.234 168.011L289.168 168.706L289.323 169.55Z" fill="#263238"/>
<path d="M286.664 173.392L285.947 173.489L285.545 170.515L289.386 169.998L289.777 172.869L289.065 172.961L288.789 170.946L287.956 171.06L288.197 172.84L287.508 172.932L287.267 171.152L286.377 171.273L286.664 173.392Z" fill="#263238"/>
<path d="M289.897 173.794L289.983 174.689L286.854 174.982L287.032 176.917L286.308 176.986L286.038 174.161L289.897 173.794Z" fill="#263238"/>
<path d="M288.243 177.038C288.661 176.992 289.083 177.072 289.456 177.267C289.829 177.461 290.135 177.762 290.337 178.131C290.538 178.5 290.626 178.92 290.589 179.339C290.551 179.758 290.391 180.156 290.127 180.483C289.863 180.81 289.508 181.052 289.107 181.178C288.706 181.303 288.276 181.307 287.873 181.188C287.47 181.069 287.111 180.834 286.841 180.511C286.572 180.188 286.404 179.793 286.36 179.375C286.357 179.335 286.357 179.294 286.36 179.254C286.331 178.993 286.353 178.729 286.426 178.477C286.499 178.224 286.621 177.989 286.786 177.784C286.95 177.579 287.153 177.409 287.384 177.282C287.614 177.156 287.867 177.077 288.129 177.049L288.243 177.038ZM288.41 180.362C288.648 180.345 288.875 180.258 289.064 180.112C289.252 179.966 289.394 179.768 289.47 179.542C289.546 179.316 289.554 179.073 289.493 178.842C289.432 178.612 289.304 178.405 289.125 178.247C288.947 178.089 288.725 177.987 288.489 177.954C288.253 177.921 288.012 177.959 287.798 178.062C287.583 178.165 287.403 178.33 287.281 178.535C287.159 178.74 287.1 178.976 287.112 179.214C287.124 179.528 287.259 179.824 287.488 180.039C287.717 180.254 288.021 180.37 288.335 180.362H288.41Z" fill="#263238"/>
<path d="M289.013 185.352C288.146 185.352 287.606 184.709 287.606 183.676V182.895H286.538V181.999H290.408V183.676C290.414 184.698 289.897 185.347 289.013 185.352ZM289.013 184.445C289.438 184.445 289.685 184.164 289.685 183.618V182.889H288.341V183.624C288.341 184.169 288.588 184.451 289.007 184.451L289.013 184.445Z" fill="#263238"/>
<path d="M215.216 264.328H147.421V243.082H215.216C224.887 243.117 234.433 240.904 243.102 236.62C251.771 232.335 259.326 226.095 265.172 218.392L282.048 231.3C274.226 241.604 264.119 249.951 252.521 255.683C240.923 261.414 228.153 264.374 215.216 264.328Z" fill="#540494"/>
<path d="M254.429 213.063L290.477 237.059L287.893 201.872L254.429 213.063Z" fill="#540494"/>
<g opacity="0.3">
<path d="M290.471 237.059L287.887 201.872L254.423 213.063L264.184 219.58C258.319 226.941 250.864 232.879 242.377 236.949C233.891 241.019 224.594 243.116 215.182 243.082H147.426V264.328H215.216C228.131 264.374 240.881 261.423 252.462 255.708C264.044 249.993 274.141 241.67 281.962 231.392L290.471 237.059Z" fill="black"/>
</g>
<path d="M253.923 241.561C254.44 242.25 254.245 243.071 253.424 243.691L252.798 244.162L253.441 245.012L252.723 245.552L250.392 242.445L251.73 241.434C252.574 240.826 253.401 240.866 253.923 241.561ZM253.194 242.135C252.942 241.796 252.568 241.762 252.132 242.089L251.558 242.531L252.367 243.605L252.942 243.169C253.378 242.807 253.453 242.445 253.194 242.106V242.135Z" fill="#263238"/>
<path d="M253.585 240.056L254.302 239.517L256.191 242.026L257.742 240.878L258.184 241.452L255.916 243.174L253.585 240.056Z" fill="#263238"/>
<path d="M260.153 238.919L258.718 240.005L258.942 240.872L258.207 241.446L257.254 237.312L257.96 236.778L261.681 238.833L260.929 239.408L260.153 238.919ZM259.516 238.546L258.132 237.731L258.534 239.287L259.516 238.546Z" fill="#263238"/>
<path d="M262.508 233.333L264.839 236.427L264.265 236.875L261.302 236.158L262.72 238.035L262.014 238.569L259.683 235.474L260.257 235.026L263.208 235.744L261.796 233.867L262.508 233.333Z" fill="#263238"/>
<path d="M141.776 229.962V277.448L172.329 253.705L141.776 229.962Z" fill="#E0E0E0"/>
<path d="M147.426 243.082H84V264.328H147.426V243.082Z" fill="#E0E0E0"/>
<path d="M111.183 252.987C111.183 253.849 110.534 254.388 109.495 254.388H108.714V255.456H107.818V251.581H109.495C110.534 251.581 111.183 252.12 111.183 252.987ZM110.27 252.987C110.27 252.563 109.994 252.31 109.449 252.31H108.714V253.659H109.449C109.994 253.659 110.27 253.407 110.27 252.987Z" fill="#263238"/>
<path d="M111.814 251.581H112.71V254.727H114.657V255.456H111.786L111.814 251.581Z" fill="#263238"/>
<path d="M117.746 254.63H115.943L115.604 255.456H114.68L116.402 251.581H117.292L119.015 255.456H118.09L117.746 254.63ZM117.464 253.929L116.85 252.442L116.23 253.929H117.464Z" fill="#263238"/>
<path d="M122.988 251.581V255.456H122.23L120.295 253.102V255.456H119.434V251.581H120.175L122.098 253.935V251.581H122.988Z" fill="#263238"/>
</g>
<rect x="1" y="1" width="438" height="646" rx="27" stroke="white" stroke-width="2"/>
<defs>
<clipPath id="clip0_216_150246">
<rect width="271" height="193.448" fill="white" transform="translate(84 84)"/>
</clipPath>
</defs>
</svg>
