<svg width="440" height="648" viewBox="0 0 440 648" fill="none" xmlns="http://www.w3.org/2000/svg">
<rect x="1" y="1" width="438" height="646" rx="27" fill="white"/>
<path d="M258.933 309.674L240.967 269.841H198.964L205.394 307.121C205.47 307.556 205.459 308.001 205.363 308.432C205.266 308.863 205.085 309.27 204.831 309.631C204.577 309.992 204.254 310.299 203.882 310.535C203.509 310.771 203.093 310.931 202.658 311.006C202.479 311.038 202.297 311.054 202.115 311.054H183.695C183.221 311.054 182.766 311.243 182.431 311.578C182.096 311.913 181.908 312.367 181.908 312.841V314.82C181.908 315.294 182.096 315.748 182.431 316.083C182.766 316.418 183.221 316.607 183.695 316.607H257.632C258.147 316.607 258.64 316.402 259.003 316.039C259.367 315.675 259.571 315.182 259.571 314.668V312.61C259.564 311.598 259.347 310.598 258.933 309.674ZM239.483 304.728H219.315C218.68 304.726 218.065 304.5 217.579 304.09C217.093 303.68 216.768 303.112 216.659 302.486L213.619 284.935C213.559 284.586 213.567 284.229 213.644 283.883C213.722 283.538 213.866 283.211 214.07 282.921C214.274 282.631 214.533 282.385 214.832 282.195C215.131 282.006 215.464 281.877 215.813 281.816H231.529C232.05 281.816 232.56 281.967 232.997 282.25C233.435 282.533 233.781 282.936 233.994 283.411L241.972 300.962C242.117 301.288 242.196 301.639 242.205 301.996C242.214 302.352 242.153 302.707 242.025 303.04C241.896 303.372 241.704 303.676 241.458 303.935C241.212 304.193 240.918 304.4 240.592 304.544C240.254 304.697 239.886 304.776 239.515 304.776L239.483 304.728Z" fill="#263238"/>
<path opacity="0.5" d="M258.933 309.674L240.967 269.841H198.964L205.394 307.121C205.47 307.556 205.459 308.001 205.363 308.432C205.266 308.863 205.085 309.27 204.831 309.631C204.577 309.992 204.254 310.299 203.882 310.535C203.509 310.771 203.093 310.931 202.658 311.006C202.479 311.038 202.297 311.054 202.115 311.054H183.695C183.221 311.054 182.766 311.243 182.431 311.578C182.096 311.913 181.908 312.367 181.908 312.841V314.82C181.908 315.294 182.096 315.748 182.431 316.083C182.766 316.418 183.221 316.607 183.695 316.607H257.632C258.147 316.607 258.64 316.402 259.003 316.039C259.367 315.675 259.571 315.182 259.571 314.668V312.61C259.564 311.598 259.347 310.598 258.933 309.674ZM239.483 304.728H219.315C218.68 304.726 218.065 304.5 217.579 304.09C217.093 303.68 216.768 303.112 216.659 302.486L213.619 284.935C213.559 284.586 213.567 284.229 213.644 283.883C213.722 283.538 213.866 283.211 214.07 282.921C214.274 282.631 214.533 282.385 214.832 282.195C215.131 282.006 215.464 281.877 215.813 281.816H231.529C232.05 281.816 232.56 281.967 232.997 282.25C233.435 282.533 233.781 282.936 233.994 283.411L241.972 300.962C242.117 301.288 242.196 301.639 242.205 301.996C242.214 302.352 242.153 302.707 242.025 303.04C241.896 303.372 241.704 303.676 241.458 303.935C241.212 304.193 240.918 304.4 240.592 304.544C240.254 304.697 239.886 304.776 239.515 304.776L239.483 304.728Z" fill="white"/>
<path opacity="0.2" d="M239.483 304.728H219.315C218.68 304.726 218.065 304.5 217.579 304.09C217.093 303.68 216.768 303.112 216.659 302.486L213.619 284.935C213.559 284.586 213.567 284.229 213.644 283.883C213.722 283.538 213.866 283.211 214.07 282.921C214.274 282.632 214.533 282.385 214.832 282.195C215.131 282.006 215.464 281.877 215.813 281.816H231.529C232.05 281.816 232.56 281.967 232.997 282.25C233.435 282.533 233.781 282.936 233.994 283.411L241.972 300.962C242.117 301.288 242.196 301.639 242.205 301.996C242.214 302.352 242.153 302.707 242.025 303.04C241.896 303.372 241.704 303.676 241.458 303.935C241.212 304.193 240.918 304.4 240.592 304.544C240.254 304.697 239.886 304.776 239.515 304.776L239.483 304.728Z" fill="white"/>
<path d="M218.653 281.728H216.26C215.906 281.727 215.555 281.796 215.227 281.93C214.9 282.065 214.602 282.263 214.351 282.512C214.1 282.762 213.9 283.059 213.764 283.385C213.627 283.712 213.557 284.063 213.555 284.417C213.54 284.571 213.54 284.726 213.555 284.879L216.595 302.43C216.704 303.057 217.03 303.625 217.515 304.035C218.001 304.445 218.616 304.67 219.252 304.672H221.645C221.008 304.672 220.391 304.447 219.904 304.037C219.416 303.627 219.089 303.058 218.98 302.43L215.941 284.879C215.82 284.174 215.985 283.45 216.397 282.865C216.81 282.28 217.438 281.883 218.143 281.76C218.312 281.735 218.482 281.725 218.653 281.728Z" fill="#263238"/>
<path d="M261.31 309.674L243.328 269.881H240.935L258.901 309.674C259.322 310.604 259.539 311.613 259.539 312.634V314.692C259.539 315.206 259.335 315.699 258.971 316.063C258.608 316.427 258.115 316.631 257.6 316.631H259.994C260.506 316.631 260.997 316.427 261.359 316.065C261.721 315.703 261.924 315.212 261.924 314.7V312.642C261.935 311.62 261.725 310.608 261.31 309.674Z" fill="#263238"/>
<path opacity="0.2" d="M240.959 269.841H198.956L200.6 279.351H245.251L240.959 269.841Z" fill="black"/>
<path d="M301.199 274.022H122.019C121.245 274.037 120.475 273.899 119.754 273.616C119.033 273.333 118.375 272.911 117.817 272.374C117.26 271.837 116.813 271.196 116.503 270.486C116.193 269.776 116.026 269.012 116.012 268.238C115.996 267.972 115.996 267.706 116.012 267.44L127.364 137.994C127.545 136.217 128.371 134.568 129.685 133.358C130.999 132.148 132.711 131.462 134.496 131.428H313.684C315.248 131.402 316.758 131.998 317.884 133.083C319.01 134.169 319.66 135.656 319.691 137.22C319.707 137.486 319.707 137.752 319.691 138.018L308.307 267.464C308.13 269.238 307.308 270.884 305.998 272.093C304.688 273.301 302.981 273.988 301.199 274.022Z" fill="#263238"/>
<path opacity="0.3" d="M301.199 274.022H122.019C121.245 274.037 120.475 273.899 119.754 273.616C119.033 273.333 118.375 272.911 117.817 272.374C117.26 271.837 116.813 271.196 116.503 270.486C116.193 269.776 116.026 269.012 116.012 268.238C115.996 267.972 115.996 267.706 116.012 267.44L127.364 137.994C127.545 136.217 128.371 134.568 129.685 133.358C130.999 132.148 132.711 131.462 134.496 131.428H313.684C315.248 131.402 316.758 131.998 317.884 133.083C319.01 134.169 319.66 135.656 319.691 137.22C319.707 137.486 319.707 137.752 319.691 138.018L308.307 267.464C308.13 269.238 307.308 270.884 305.998 272.093C304.688 273.301 302.981 273.988 301.199 274.022Z" fill="white"/>
<path d="M117.264 253.472L116.044 267.464C115.869 269.019 116.319 270.58 117.294 271.804C118.269 273.028 119.69 273.814 121.245 273.99C121.511 274.006 121.777 274.006 122.043 273.99H301.199C302.984 273.958 304.696 273.272 306.009 272.062C307.322 270.851 308.145 269.201 308.323 267.425L309.551 253.432L117.264 253.472Z" fill="#540494"/>
<path opacity="0.7" d="M117.264 253.472L116.044 267.464C115.869 269.019 116.319 270.58 117.294 271.804C118.269 273.028 119.69 273.814 121.245 273.99C121.511 274.006 121.777 274.006 122.043 273.99H301.199C302.984 273.958 304.696 273.272 306.009 272.062C307.322 270.851 308.145 269.201 308.323 267.425L309.551 253.432L117.264 253.472Z" fill="white"/>
<path d="M303.225 249.506H124.277C123.858 249.516 123.441 249.442 123.05 249.291C122.659 249.139 122.302 248.912 121.999 248.622C121.696 248.333 121.453 247.986 121.284 247.603C121.115 247.219 121.023 246.806 121.014 246.387C121.006 246.249 121.006 246.11 121.014 245.972L130.404 138.943C130.51 137.984 130.959 137.097 131.669 136.444C132.379 135.791 133.301 135.418 134.265 135.393H313.213C313.632 135.384 314.049 135.458 314.439 135.611C314.83 135.764 315.186 135.992 315.488 136.282C315.791 136.572 316.033 136.92 316.201 137.304C316.369 137.688 316.46 138.101 316.468 138.52C316.476 138.656 316.476 138.791 316.468 138.927L307.094 245.956C306.988 246.916 306.538 247.805 305.826 248.458C305.115 249.11 304.19 249.483 303.225 249.506Z" fill="#540494"/>
<path opacity="0.8" d="M303.225 249.506H124.277C123.858 249.516 123.441 249.442 123.05 249.291C122.659 249.139 122.302 248.912 121.999 248.622C121.696 248.333 121.453 247.986 121.284 247.603C121.115 247.219 121.023 246.806 121.014 246.387C121.006 246.249 121.006 246.11 121.014 245.972L130.404 138.943C130.51 137.984 130.959 137.097 131.669 136.444C132.379 135.791 133.301 135.418 134.265 135.393H313.213C313.632 135.384 314.049 135.458 314.439 135.611C314.83 135.764 315.186 135.992 315.488 136.282C315.791 136.572 316.033 136.92 316.201 137.304C316.369 137.688 316.46 138.101 316.468 138.52C316.476 138.656 316.476 138.791 316.468 138.927L307.094 245.956C306.988 246.916 306.538 247.805 305.826 248.458C305.115 249.11 304.19 249.483 303.225 249.506Z" fill="#540494"/>
<path opacity="0.8" d="M303.225 249.506H124.277C123.858 249.516 123.441 249.442 123.05 249.291C122.659 249.139 122.302 248.912 121.999 248.622C121.696 248.333 121.453 247.986 121.284 247.603C121.115 247.219 121.023 246.806 121.014 246.387C121.006 246.249 121.006 246.11 121.014 245.972L130.404 138.943C130.51 137.984 130.959 137.097 131.669 136.444C132.379 135.791 133.301 135.418 134.265 135.393H313.213C313.632 135.384 314.049 135.458 314.439 135.611C314.83 135.764 315.186 135.992 315.488 136.282C315.791 136.572 316.033 136.92 316.201 137.304C316.369 137.688 316.46 138.101 316.468 138.52C316.476 138.656 316.476 138.791 316.468 138.927L307.094 245.956C306.988 246.916 306.538 247.805 305.826 248.458C305.115 249.11 304.19 249.483 303.225 249.506Z" fill="white"/>
<g opacity="0.5">
<path d="M174.425 249.514H158.078L182.347 135.393H198.677L174.425 249.514Z" fill="white"/>
<path d="M184.772 249.514H180.592L204.844 135.393H209.024L184.772 249.514Z" fill="white"/>
<path d="M245.642 249.514H242.89L267.158 135.393H269.886L245.642 249.514Z" fill="white"/>
<path d="M255.989 249.514H251.809L276.061 135.393H280.233L255.989 249.514Z" fill="white"/>
</g>
<path d="M317.641 131.444H313.652C314.426 131.429 315.196 131.567 315.917 131.85C316.638 132.132 317.296 132.554 317.854 133.091C318.412 133.628 318.858 134.27 319.168 134.98C319.478 135.69 319.645 136.453 319.659 137.228C319.675 137.493 319.675 137.76 319.659 138.025L308.307 267.464C308.129 269.241 307.306 270.891 305.993 272.101C304.68 273.311 302.968 273.997 301.183 274.03H305.172C306.957 273.997 308.669 273.311 309.982 272.101C311.295 270.891 312.118 269.241 312.296 267.464L323.616 137.994C323.701 137.224 323.634 136.445 323.419 135.702C323.203 134.958 322.843 134.264 322.36 133.66C321.876 133.055 321.278 132.552 320.6 132.179C319.921 131.805 319.176 131.569 318.407 131.484C318.153 131.45 317.897 131.437 317.641 131.444Z" fill="#263238"/>
<path opacity="0.6" d="M317.641 131.444H313.652C314.426 131.429 315.196 131.567 315.917 131.85C316.638 132.132 317.296 132.554 317.854 133.091C318.412 133.628 318.858 134.27 319.168 134.98C319.478 135.69 319.645 136.453 319.659 137.228C319.675 137.493 319.675 137.76 319.659 138.025L308.307 267.464C308.129 269.241 307.306 270.891 305.993 272.101C304.68 273.311 302.968 273.997 301.183 274.03H305.172C306.957 273.997 308.669 273.311 309.982 272.101C311.295 270.891 312.118 269.241 312.296 267.464L323.616 137.994C323.701 137.224 323.634 136.445 323.419 135.702C323.203 134.958 322.843 134.264 322.36 133.66C321.876 133.055 321.278 132.552 320.6 132.179C319.921 131.805 319.176 131.569 318.407 131.484C318.153 131.45 317.897 131.437 317.641 131.444Z" fill="white"/>
<path d="M222.658 209.554C222.288 213.19 220.598 216.565 217.907 219.039C215.217 221.513 211.713 222.915 208.059 222.98C206.34 223.01 204.635 222.673 203.057 221.993C201.479 221.312 200.064 220.303 198.906 219.032C197.748 217.762 196.874 216.26 196.342 214.626C195.81 212.991 195.633 211.262 195.821 209.554C196.191 205.918 197.881 202.543 200.572 200.069C203.262 197.595 206.766 196.193 210.42 196.127L211.027 189.267C199.818 189.267 189.941 198.345 188.96 209.554C187.979 220.763 196.268 229.841 207.476 229.841C218.685 229.841 228.53 220.755 229.519 209.554H222.658Z" fill="#540494"/>
<path d="M231.928 206.602C232.909 195.393 224.621 186.314 213.412 186.314L212.814 193.175C214.403 193.146 215.983 193.429 217.462 194.01C218.942 194.591 220.293 195.458 221.437 196.561C222.582 197.664 223.498 198.982 224.133 200.439C224.768 201.897 225.11 203.465 225.139 205.054C225.147 205.571 225.123 206.088 225.067 206.602H231.928Z" fill="#540494"/>
<path opacity="0.3" d="M231.928 206.602C232.909 195.393 224.621 186.314 213.412 186.314L212.814 193.175C214.403 193.146 215.983 193.429 217.462 194.01C218.942 194.591 220.293 195.458 221.437 196.561C222.582 197.664 223.498 198.982 224.133 200.439C224.768 201.897 225.11 203.465 225.139 205.054C225.147 205.571 225.123 206.088 225.067 206.602H231.928Z" fill="black"/>
<path d="M215.119 209.554C214.948 211.208 214.178 212.742 212.954 213.868C211.73 214.994 210.136 215.633 208.474 215.665C207.017 215.684 205.612 215.126 204.566 214.112C203.519 213.099 202.917 211.712 202.889 210.256C202.873 210.022 202.873 209.788 202.889 209.554C203.053 207.893 203.821 206.349 205.048 205.217C206.274 204.085 207.874 203.442 209.543 203.411L209.814 200.284C207.302 200.341 204.899 201.316 203.056 203.024C201.213 204.731 200.058 207.054 199.81 209.554C199.69 210.641 199.786 211.742 200.093 212.793C200.399 213.843 200.909 214.823 201.595 215.676C202.28 216.529 203.127 217.238 204.087 217.763C205.047 218.288 206.101 218.619 207.189 218.736C207.539 218.776 207.891 218.792 208.242 218.784C210.748 218.731 213.147 217.763 214.989 216.062C216.83 214.362 217.986 212.047 218.238 209.554H215.119Z" fill="#540494"/>
<path opacity="0.3" d="M215.119 209.554C214.948 211.208 214.178 212.742 212.954 213.868C211.73 214.994 210.136 215.633 208.474 215.665C207.017 215.684 205.612 215.126 204.566 214.112C203.519 213.099 202.917 211.712 202.889 210.256C202.873 210.022 202.873 209.788 202.889 209.554C203.053 207.893 203.821 206.349 205.048 205.217C206.274 204.085 207.874 203.442 209.543 203.411L209.814 200.284C207.302 200.341 204.899 201.316 203.056 203.024C201.213 204.731 200.058 207.054 199.81 209.554C199.69 210.641 199.786 211.742 200.093 212.793C200.399 213.843 200.909 214.823 201.595 215.676C202.28 216.529 203.127 217.238 204.087 217.763C205.047 218.288 206.101 218.619 207.189 218.736C207.539 218.776 207.891 218.792 208.242 218.784C210.748 218.731 213.147 217.763 214.989 216.062C216.83 214.362 217.986 212.047 218.238 209.554H215.119Z" fill="black"/>
<path d="M219.339 208.198C219.459 207.11 219.363 206.009 219.057 204.959C218.75 203.908 218.24 202.929 217.554 202.076C216.869 201.223 216.022 200.513 215.062 199.988C214.102 199.463 213.048 199.132 211.96 199.015C211.61 198.975 211.259 198.959 210.907 198.967L210.636 202.087C212.092 202.067 213.497 202.626 214.544 203.639C215.59 204.653 216.193 206.039 216.22 207.496C216.236 207.729 216.236 207.964 216.22 208.198H219.339Z" fill="#540494"/>
<path d="M258.845 220.116H242.73C242.599 220.119 242.469 220.095 242.347 220.047C242.225 219.998 242.114 219.927 242.02 219.836C241.926 219.745 241.851 219.636 241.799 219.516C241.747 219.395 241.719 219.266 241.717 219.135C241.713 219.095 241.713 219.055 241.717 219.016C241.748 218.718 241.887 218.441 242.107 218.239C242.327 218.036 242.614 217.921 242.913 217.915H259.06C259.322 217.912 259.574 218.013 259.762 218.195C259.95 218.377 260.059 218.626 260.066 218.888C260.07 218.93 260.07 218.973 260.066 219.016C260.036 219.318 259.894 219.599 259.668 219.802C259.443 220.006 259.149 220.118 258.845 220.116Z" fill="#263238"/>
<path d="M254.433 224.448H242.347C242.085 224.45 241.833 224.35 241.645 224.168C241.457 223.985 241.348 223.737 241.342 223.475C241.338 223.433 241.338 223.39 241.342 223.347C241.371 223.049 241.509 222.772 241.73 222.569C241.951 222.366 242.239 222.251 242.538 222.246H254.617C254.879 222.236 255.134 222.328 255.328 222.504C255.522 222.681 255.639 222.926 255.654 223.188C255.658 223.244 255.658 223.3 255.654 223.355C255.622 223.656 255.48 223.935 255.254 224.137C255.029 224.339 254.736 224.45 254.433 224.448Z" fill="#263238"/>
<path d="M160.488 221.935H176.627C176.925 221.931 177.212 221.818 177.433 221.616C177.653 221.415 177.792 221.139 177.823 220.842C177.855 220.584 177.783 220.324 177.623 220.119C177.463 219.914 177.228 219.781 176.97 219.75H160.719C160.419 219.754 160.131 219.869 159.911 220.072C159.69 220.275 159.552 220.552 159.522 220.85C159.493 221.108 159.568 221.368 159.729 221.571C159.891 221.774 160.126 221.905 160.384 221.935H160.488Z" fill="#263238"/>
<path d="M164.157 226.267H176.244C176.543 226.261 176.83 226.146 177.05 225.943C177.271 225.74 177.409 225.464 177.44 225.166C177.47 224.906 177.394 224.645 177.231 224.44C177.068 224.235 176.831 224.103 176.571 224.073H164.357C164.056 224.077 163.767 224.192 163.545 224.395C163.323 224.598 163.183 224.875 163.152 225.174C163.125 225.436 163.204 225.699 163.369 225.903C163.535 226.108 163.776 226.239 164.038 226.267H164.157Z" fill="#263238"/>
<path d="M238.701 219.646H233.213L220.743 205.988H216.731L216.826 204.831H221.318L233.779 218.497H238.813L238.701 219.646Z" fill="#263238"/>
<path d="M179.794 222.047H185.29L197.76 208.381H201.772L201.677 207.232H197.185L184.716 220.89H179.698L179.794 222.047Z" fill="#263238"/>
<path opacity="0.1" d="M173.116 151.979H143.918L144.405 146.41H173.603L173.116 151.979Z" fill="black"/>
<path opacity="0.1" d="M172.143 163.108H142.945L143.431 157.539H172.63L172.143 163.108Z" fill="black"/>
<path opacity="0.1" d="M171.17 174.236H141.979L142.466 168.668H171.656L171.17 174.236Z" fill="black"/>
<path opacity="0.2" d="M172.63 157.539H143.431L143.918 151.979H173.116L172.63 157.539Z" fill="white"/>
<path opacity="0.2" d="M171.657 168.668H142.466L142.945 163.107H172.143L171.657 168.668Z" fill="white"/>
<path d="M160.448 173.598C156.539 173.598 155.885 167.025 155.199 160.036C154.56 153.654 153.898 146.977 150.476 146.977C147.676 146.977 144.468 156.406 143.471 160.036L142.905 159.932C143.55 157.662 144.317 155.427 145.202 153.239C147.077 148.692 148.872 146.386 150.532 146.386C154.441 146.386 155.095 152.968 155.781 159.948C156.419 166.331 157.081 173.008 160.504 173.008C163.232 173.008 166.343 164.049 167.428 160.244C167.452 160.169 167.501 160.105 167.566 160.063C167.632 160.021 167.71 160.003 167.787 160.012C167.857 160.028 167.919 160.069 167.959 160.129C167.999 160.188 168.015 160.261 168.003 160.331C167.371 162.495 166.631 164.625 165.785 166.713C163.91 171.293 162.107 173.598 160.448 173.598Z" fill="#540494"/>
<path d="M146.981 170.566C144.014 170.566 142.993 161.201 142.889 160.132L143.479 160.028C143.75 162.796 144.931 169.976 147.029 169.976C149.127 169.976 150.348 165.692 151.481 161.552C152.741 156.972 153.93 152.648 156.555 152.648C158.765 152.648 159.124 156.23 159.498 160.028C159.834 163.418 160.185 166.921 161.892 166.921C163.599 166.921 164.572 163.418 165.506 160.028C166.543 156.23 167.524 152.648 169.734 152.648C170.707 152.648 171.473 153.885 172.071 156.422C172.318 157.515 172.51 158.62 172.646 159.733C172.653 159.812 172.63 159.892 172.581 159.956C172.532 160.019 172.461 160.062 172.382 160.076C172.349 160.084 172.314 160.085 172.28 160.079C172.246 160.074 172.213 160.061 172.184 160.043C172.155 160.024 172.13 160 172.111 159.971C172.091 159.942 172.078 159.91 172.071 159.876C171.768 157.212 170.899 153.271 169.678 153.271C167.955 153.271 166.998 156.773 166.064 160.163C165.027 163.961 164.038 167.543 161.828 167.543C159.618 167.543 159.267 163.961 158.892 160.163C158.549 156.773 158.206 153.271 156.499 153.271C154.353 153.271 153.18 157.555 152.047 161.695C150.795 166.242 149.606 170.566 146.981 170.566Z" fill="#540494"/>
<g opacity="0.5">
<path d="M146.981 170.566C144.014 170.566 142.993 161.201 142.889 160.132L143.479 160.028C143.75 162.796 144.931 169.976 147.029 169.976C149.127 169.976 150.348 165.692 151.481 161.552C152.741 156.972 153.93 152.648 156.555 152.648C158.765 152.648 159.124 156.23 159.498 160.028C159.834 163.418 160.185 166.921 161.892 166.921C163.599 166.921 164.572 163.418 165.506 160.028C166.543 156.23 167.524 152.648 169.734 152.648C170.707 152.648 171.473 153.885 172.071 156.422C172.318 157.515 172.51 158.62 172.646 159.733C172.653 159.812 172.63 159.892 172.581 159.956C172.532 160.019 172.461 160.062 172.382 160.076C172.349 160.084 172.314 160.085 172.28 160.079C172.246 160.074 172.213 160.061 172.184 160.043C172.155 160.024 172.13 160 172.111 159.971C172.091 159.942 172.078 159.91 172.071 159.876C171.768 157.212 170.899 153.271 169.678 153.271C167.955 153.271 166.998 156.773 166.064 160.163C165.027 163.961 164.038 167.543 161.828 167.543C159.618 167.543 159.267 163.961 158.892 160.163C158.549 156.773 158.206 153.271 156.499 153.271C154.353 153.271 153.18 157.555 152.047 161.695C150.795 166.242 149.606 170.566 146.981 170.566Z" fill="black"/>
</g>
<path d="M171.353 174.795H141.573L144.054 146.769C144.061 146.681 144.102 146.599 144.166 146.538C144.231 146.478 144.316 146.443 144.405 146.442C144.443 146.44 144.481 146.445 144.516 146.458C144.552 146.471 144.585 146.492 144.612 146.518C144.64 146.544 144.662 146.575 144.677 146.61C144.692 146.645 144.7 146.683 144.7 146.721V146.769L142.307 174.18H171.409C171.488 174.18 171.563 174.212 171.618 174.267C171.673 174.322 171.704 174.397 171.704 174.476C171.695 174.562 171.654 174.643 171.589 174.701C171.525 174.76 171.441 174.793 171.353 174.795Z" fill="#263238"/>
<path d="M238.382 147.623H191.314L190.516 156.885L190.444 157.682L189.702 166.179L189.638 166.977L188.841 176.239H245.171L245.969 166.977L246.033 166.179L246.783 157.682L246.846 156.885L247.644 147.623H238.382ZM229.048 148.42H237.544L236.803 156.917H228.306L229.048 148.42ZM235.989 166.179H227.501L228.242 157.682H236.739L235.989 166.179ZM200.456 157.682H208.952L208.21 166.179H199.714L200.456 157.682ZM209.718 157.682H218.214L217.473 166.179H208.976L209.718 157.682ZM218.98 157.682H227.477L226.735 166.179H218.238L218.98 157.682ZM219.778 148.42H228.266L227.524 156.917H219.052L219.778 148.42ZM210.516 148.42H219.012L218.262 156.917H209.79L210.516 148.42ZM201.254 148.42H209.75L209.008 156.917H200.528L201.254 148.42ZM191.992 148.42H200.488L199.746 156.917H191.266L191.992 148.42ZM191.194 157.682H199.682L198.94 166.179H190.452L191.194 157.682ZM198.135 175.441H189.646L190.388 166.945H198.884L198.135 175.441ZM207.389 175.441H198.908L199.65 166.945H208.147L207.389 175.441ZM216.651 175.441H208.171L208.912 166.945H217.401L216.651 175.441ZM225.913 175.441H217.425L218.175 166.945H226.663L225.913 175.441ZM235.175 175.441H226.687L227.429 166.945H235.925L235.175 175.441ZM244.437 175.441H235.949L236.691 166.945H245.187L244.437 175.441ZM245.235 166.179H236.763L237.505 157.682H245.993L245.235 166.179ZM237.552 156.917L238.294 148.42H246.791L246.081 156.885L237.552 156.917Z" fill="#540494"/>
<path d="M200.544 175.792H194.521L195.47 164.886H201.493L200.544 175.792Z" fill="#540494"/>
<path d="M209.798 175.792H203.783L204.987 161.903H211.019L209.798 175.792Z" fill="#263238"/>
<path d="M219.515 175.792H213.492L214.712 161.903H220.735L219.515 175.792Z" fill="#540494"/>
<path d="M228.322 175.792H222.291L224.182 154.252H230.213L228.322 175.792Z" fill="#263238"/>
<path d="M237.576 175.792H231.561L233.58 152.641H239.611L237.576 175.792Z" fill="#540494"/>
<path opacity="0.2" d="M200.544 175.792H194.521L195.47 164.886H201.493L200.544 175.792Z" fill="black"/>
<path opacity="0.2" d="M219.515 175.792H213.492L214.712 161.903H220.735L219.515 175.792Z" fill="black"/>
<path opacity="0.2" d="M237.576 175.792H231.561L233.58 152.641H239.611L237.576 175.792Z" fill="black"/>
<path d="M283.783 249.514C286.679 226.993 289.543 202.82 289.543 202.82L266.408 202.677C266.408 202.677 264.27 227.886 262.587 249.514H283.783Z" fill="#263238"/>
<path opacity="0.6" d="M284.597 249.514C285.618 241.138 286.631 232.53 287.509 225.015C287.716 221.879 287.908 218.832 288.099 215.944C286.336 211.867 282.882 209.618 280.465 219.031C278.058 229.039 277.957 239.462 280.169 249.514H284.597Z" fill="black"/>
<path d="M303.089 249.514C302.028 227.376 300.88 202.35 300.88 202.35H278.542C278.542 202.35 280.481 228.182 282.531 249.514H303.089Z" fill="#263238"/>
<path d="M264.222 149.673C262.626 153.327 260.847 157.14 258.957 160.666C258.015 162.453 257.002 164.168 255.949 165.772C255.024 167.224 253.931 168.563 252.694 169.761C252.481 169.957 252.254 170.138 252.016 170.303C251.91 170.362 251.809 170.429 251.713 170.503C251.713 170.503 251.825 170.551 251.713 170.567C251.551 170.566 251.391 170.534 251.242 170.471C250.597 170.2 249.996 169.831 249.463 169.378C248.762 168.81 248.098 168.197 247.477 167.543C244.774 164.551 242.312 161.35 240.113 157.97L236.013 159.876C237.402 164.193 239.404 168.287 241.956 172.034C242.659 173.049 243.441 174.006 244.294 174.898C245.277 175.944 246.409 176.839 247.652 177.555C248.443 178.001 249.295 178.329 250.181 178.528C251.231 178.759 252.316 178.775 253.372 178.576C255.059 178.2 256.637 177.442 257.983 176.358C259.943 174.754 261.677 172.892 263.137 170.822C264.495 168.99 265.752 167.086 266.903 165.118C268.011 163.171 269.057 161.217 269.998 159.214C270.939 157.212 271.849 155.225 272.686 153.103L264.222 149.673Z" fill="#FFBF9D"/>
<path d="M253.508 165.197L263.743 172.832C263.743 172.832 264.134 172.401 264.78 171.651C265.259 171.101 265.865 170.375 266.575 169.513C270.564 164.671 276.364 155.832 276.412 151.5C276.484 145.046 269.774 144.096 262.259 150.702C259.013 153.55 257.321 158.273 255.67 161.209C255.119 162.174 254.665 163.02 254.306 163.674C253.795 164.631 253.508 165.197 253.508 165.197Z" fill="#540494"/>
<path opacity="0.3" d="M276.476 152.25C274.162 150.718 272.487 154.643 267.908 158.017C265.873 159.509 261.406 169.226 261.773 171.364L263.743 172.832C263.743 172.832 276.532 158.68 276.476 152.25Z" fill="black"/>
<path d="M237.154 161.432L231.298 156.797L237.329 152.92C237.329 152.92 242.116 158.137 240.815 159.932L237.154 161.432Z" fill="#FFBF9D"/>
<path d="M253.508 164.2L264.693 172.569L263.297 174.021L252.654 166.163L253.508 164.2Z" fill="#540494"/>
<path opacity="0.2" d="M253.508 164.2L264.693 172.569L263.297 174.021L252.654 166.163L253.508 164.2Z" fill="black"/>
<path d="M266.288 202.677H300.919C301.159 199.59 300.449 189.522 300.975 176.71C301.304 167.214 302.457 157.765 304.422 148.469C304.573 147.767 304.733 147.081 304.9 146.378C304.9 146.378 303.145 146.019 300.632 145.653C298.542 145.349 295.917 145.038 293.357 144.911C288.454 144.631 283.54 144.631 278.638 144.911C276.372 145.126 274.162 145.501 272.399 145.836C270.149 146.291 268.817 146.682 268.817 146.682C268.817 146.682 260.289 166.267 266.288 202.677Z" fill="#540494"/>
<path d="M230.939 150.136L235.829 148.524L237.329 152.92L231.306 156.797L230.939 150.136Z" fill="#FFBF9D"/>
<path d="M308.809 154.436C309.783 156.438 310.565 158.345 311.362 160.331C312.16 162.318 312.862 164.32 313.516 166.378C314.183 168.475 314.74 170.605 315.184 172.76C315.688 175.101 315.924 177.491 315.886 179.884C315.837 181.402 315.535 182.902 314.992 184.32C314.616 185.257 314.076 186.119 313.397 186.865C312.625 187.694 311.676 188.338 310.62 188.748C308.944 189.332 307.134 189.416 305.411 188.987C304.143 188.693 302.917 188.245 301.757 187.655C299.739 186.627 297.838 185.386 296.085 183.953C295.231 183.275 294.418 182.565 293.636 181.823C292.854 181.081 292.096 180.355 291.33 179.518L294.226 176.047C297.479 178.032 300.925 179.684 304.509 180.977C305.227 181.208 305.968 181.361 306.719 181.432C307.342 181.488 307.724 181.312 307.557 181.289C307.45 181.304 307.349 181.345 307.262 181.408C307.182 181.456 307.19 181.448 307.222 181.32C307.323 180.795 307.36 180.259 307.334 179.725C307.252 178.023 306.984 176.335 306.536 174.691C306.097 172.896 305.523 171.061 304.884 169.234C303.632 165.588 302.116 161.839 300.576 158.337L308.809 154.436Z" fill="#FFBF9D"/>
<path d="M295.67 177.172L290.205 172.098L287.286 178.68C287.286 178.68 293.181 182.621 294.753 181.073L295.67 177.172Z" fill="#FFBF9D"/>
<path d="M283.568 172.752L282.722 177.834L287.294 178.648L290.205 172.098L283.568 172.752Z" fill="#FFBF9D"/>
<path opacity="0.3" d="M300.975 176.717C301.304 167.219 302.457 157.767 304.422 148.468C302.108 148.269 298.151 148.468 297.497 152.234C296.787 156.254 297.681 165.7 300.975 176.717Z" fill="black"/>
<path d="M296.635 157.499C298.048 161.905 299.721 166.223 301.645 170.431C302.06 171.38 302.443 172.218 302.762 172.904C303.313 174.101 303.664 174.827 303.664 174.827L316.62 168.221C316.62 168.221 316.476 167.679 316.221 166.769C316.029 166.083 315.766 165.174 315.423 164.153C313.516 158.042 309.559 147.12 305.339 146.354C299.053 145.213 294.33 149.801 296.635 157.499Z" fill="#540494"/>
<path d="M284.876 149.777C293.42 149.546 294.705 145.365 294.761 145.182L294.816 144.998L293.357 144.911C288.454 144.631 283.54 144.631 278.638 144.911L277.84 144.998C277.482 145.296 277.206 145.68 277.038 146.114C276.871 146.549 276.817 147.019 276.883 147.479C277.257 148.939 279.276 149.426 281.007 149.633L284.876 149.777Z" fill="white"/>
<path d="M316.324 165.892L302.164 173.136L303.759 175.098L316.923 168.261L316.324 165.892Z" fill="#540494"/>
<path opacity="0.2" d="M316.324 165.892L302.164 173.136L303.759 175.098L316.923 168.261L316.324 165.892Z" fill="black"/>
<path d="M286.99 154.196L282.778 150.391L277.664 153.949C277.664 153.949 272.335 148.899 276.292 145.174C277.09 145.07 277.84 144.974 278.638 144.894C283.54 144.615 288.454 144.615 293.357 144.894C294.362 144.942 295.367 145.03 296.356 145.126C296.061 146.57 294.553 151.269 286.99 154.196Z" fill="#540494"/>
<path opacity="0.2" d="M286.99 154.196L282.778 150.391L277.664 153.949C277.664 153.949 272.335 148.899 276.292 145.174C277.09 145.07 277.84 144.974 278.638 144.894C283.54 144.615 288.454 144.615 293.357 144.894C294.362 144.942 295.367 145.03 296.356 145.126C296.061 146.57 294.553 151.269 286.99 154.196Z" fill="black"/>
<path d="M284.597 148.916C292.83 148.764 293.923 144.927 293.923 144.927C290.732 141.736 291.945 133.128 293.037 128.381L289.096 131.652L283.735 136.103C283.893 136.819 284.008 137.544 284.078 138.273C284.366 141.177 283.616 143.858 279.34 144.839C279.34 144.839 274.258 148.198 281.797 148.828L284.597 148.916Z" fill="#FFBF9D"/>
<path opacity="0.2" d="M283.735 136.127C283.893 136.843 284.008 137.567 284.079 138.297C286.081 137.89 288.753 135.76 289.033 133.718C289.13 133.041 289.151 132.356 289.096 131.675L283.735 136.127Z" fill="black"/>
<path d="M294.665 121.583C293.293 127.878 292.814 131.627 289.08 134.499C287.882 135.449 286.446 136.053 284.929 136.245C283.412 136.437 281.871 136.21 280.474 135.588C279.077 134.967 277.876 133.975 277.003 132.72C276.129 131.465 275.616 129.994 275.518 128.468C275.032 122.605 277.353 113.311 283.975 111.516C285.4 111.088 286.913 111.043 288.361 111.385C289.809 111.728 291.142 112.445 292.225 113.465C293.308 114.485 294.104 115.772 294.532 117.197C294.96 118.622 295.006 120.135 294.665 121.583Z" fill="#FFBF9D"/>
<path d="M284.733 122.214C284.653 122.724 284.31 123.115 283.975 123.075C283.64 123.035 283.424 122.581 283.504 122.062C283.584 121.544 283.919 121.161 284.262 121.201C284.605 121.24 284.812 121.695 284.733 122.214Z" fill="#263238"/>
<path d="M278.869 121.512C278.789 122.031 278.446 122.413 278.071 122.374C277.696 122.334 277.521 121.887 277.601 121.368C277.68 120.85 278.015 120.467 278.358 120.507C278.701 120.547 278.949 120.993 278.869 121.512Z" fill="#263238"/>
<path d="M280.688 121.99C279.816 123.503 278.742 124.891 277.497 126.115C277.816 126.408 278.196 126.627 278.61 126.758C279.023 126.889 279.46 126.928 279.89 126.873L280.688 121.99Z" fill="#BA4D3C"/>
<path d="M286.831 120.538C286.884 120.541 286.937 120.527 286.982 120.498C287.052 120.458 287.104 120.392 287.126 120.315C287.148 120.238 287.14 120.155 287.102 120.083C286.881 119.648 286.555 119.275 286.154 118.996C285.753 118.718 285.29 118.543 284.805 118.488C284.723 118.486 284.645 118.515 284.585 118.571C284.525 118.626 284.49 118.702 284.485 118.783C284.483 118.823 284.489 118.863 284.502 118.9C284.516 118.938 284.536 118.973 284.563 119.002C284.589 119.032 284.622 119.056 284.658 119.073C284.694 119.09 284.733 119.1 284.773 119.102C285.147 119.153 285.504 119.291 285.815 119.506C286.125 119.721 286.38 120.006 286.56 120.339C286.58 120.395 286.617 120.444 286.665 120.48C286.713 120.515 286.771 120.535 286.831 120.538Z" fill="#263238"/>
<path d="M276.659 119.206C276.709 119.205 276.759 119.192 276.803 119.169C276.847 119.145 276.886 119.111 276.915 119.07C277.126 118.741 277.409 118.464 277.744 118.26C278.079 118.057 278.455 117.933 278.845 117.898C278.885 117.899 278.925 117.892 278.962 117.878C278.999 117.863 279.033 117.842 279.062 117.815C279.091 117.787 279.114 117.754 279.13 117.718C279.146 117.682 279.155 117.642 279.156 117.602C279.152 117.522 279.118 117.446 279.06 117.39C279.003 117.334 278.926 117.301 278.845 117.299C278.354 117.336 277.879 117.485 277.455 117.735C277.032 117.986 276.672 118.331 276.404 118.743C276.381 118.776 276.365 118.813 276.357 118.852C276.349 118.892 276.348 118.932 276.356 118.971C276.363 119.011 276.378 119.048 276.4 119.081C276.422 119.115 276.451 119.144 276.484 119.166C276.536 119.199 276.598 119.213 276.659 119.206Z" fill="#263238"/>
<path d="M278.183 128.58C278.183 128.58 280.106 128.085 285.522 127.941C284.932 129.585 283.783 130.949 281.007 130.997C280.677 131.036 280.343 131.009 280.023 130.919C279.703 130.829 279.404 130.676 279.143 130.47C278.883 130.264 278.665 130.009 278.503 129.719C278.341 129.428 278.238 129.109 278.199 128.779C278.19 128.713 278.184 128.646 278.183 128.58Z" fill="#263238"/>
<path d="M282.26 129.681C281.193 129.648 280.144 129.952 279.26 130.551C279.782 130.877 280.393 131.031 281.007 130.989C282.072 131.029 283.121 130.724 283.999 130.12C283.48 129.793 282.871 129.639 282.26 129.681Z" fill="#A02724"/>
<path d="M278.43 128.532C278.488 128.732 278.6 128.912 278.753 129.053C278.906 129.194 279.096 129.29 279.3 129.33C280.908 129.288 282.509 129.109 284.086 128.795C284.337 128.772 284.579 128.687 284.789 128.547C284.999 128.408 285.171 128.219 285.291 127.998C282.994 127.996 280.7 128.175 278.43 128.532Z" fill="white"/>
<path d="M291.067 116.877C289.902 115.68 289.567 114.228 284.749 114.659C279.93 115.09 274.848 118.799 274.944 114.659C274.944 113.701 275.79 114.818 277.377 112.744C277.377 112.744 273.021 114.715 274.386 111.946C275.479 109.713 276.715 113.143 282.292 108.835C287.868 104.527 295.207 108.412 297.322 114.204C298.419 114.558 299.351 115.296 299.947 116.282C300.544 117.269 300.764 118.437 300.568 119.573C300.074 123.275 294.88 126.003 294.346 130.51C294.266 131.149 295.064 132.186 294.426 132.553C294.059 132.76 293.157 131.42 293.157 131.42C293.031 131.672 292.94 131.941 292.886 132.218C292.758 132.816 294.067 134.364 292.942 135.042C292.304 135.425 292.024 134.244 291.641 132.345C291.481 131.486 291.435 130.608 291.506 129.737C291.777 125.843 289.91 127.63 289.982 125.157C290.03 123.442 291.402 120.57 292.24 118.975C292.378 118.725 292.412 118.43 292.334 118.156C292.256 117.881 292.073 117.648 291.825 117.507C291.538 117.342 291.282 117.129 291.067 116.877Z" fill="#263238"/>
<path d="M296.117 128.157C295.098 129.385 293.691 130.23 292.128 130.55C290.142 130.885 289.735 129.05 290.7 127.271C291.609 125.676 293.74 123.57 295.487 124.08C297.234 124.591 297.401 126.609 296.117 128.157Z" fill="#FFBF9D"/>
<rect x="1" y="1" width="438" height="646" rx="27" stroke="#540494" stroke-width="2"/>
</svg>
