<svg width="440" height="648" viewBox="0 0 440 648" fill="none" xmlns="http://www.w3.org/2000/svg">
<rect x="1" y="1" width="438" height="646" rx="27" fill="#07041B"/>
<g clip-path="url(#clip0_216_150250)">
<path d="M248.365 274.601H191.243L199.807 244.167H239.794L248.365 274.601Z" fill="#455A64" stroke="#455A64" stroke-width="0.641537" stroke-linecap="round" stroke-linejoin="round"/>
<path d="M263.217 274.601H176.391V277.69H263.217V274.601Z" fill="#455A64" stroke="#455A64" stroke-width="0.641537" stroke-linecap="round" stroke-linejoin="round"/>
<path d="M343.28 96.0495H96.3207V247.362H343.28V96.0495Z" fill="#455A64" stroke="#455A64" stroke-width="0.641537" stroke-linecap="round" stroke-linejoin="round"/>
<path d="M335.37 101.82H104.237V241.598H335.37V101.82Z" fill="#E0E0E0" stroke="#455A64" stroke-width="0.641537" stroke-linecap="round" stroke-linejoin="round"/>
<path d="M174.069 137.09L159.095 139.505L163.817 206.161L185.52 207.851C185.52 207.851 190.235 182.223 190.505 178.062C190.774 173.901 182.806 142.681 182.806 142.681L174.069 137.09Z" fill="#540494" stroke="#3A1E61" stroke-width="0.641537" stroke-linecap="round" stroke-linejoin="round"/>
<path d="M196.195 241.598C196.688 239.956 196.932 238.254 196.92 236.545C196.747 234.068 196.067 230.285 196.067 230.285L189.921 230.78L192.301 241.598H196.195Z" fill="white" stroke="#3A1E61" stroke-width="0.641537" stroke-linecap="round" stroke-linejoin="round"/>
<path d="M130.297 241.598H192.449C192.282 240.279 191.807 236.954 191.313 233.616C190.64 229.325 186.059 199.269 186.059 199.269L140.382 195.102C140.382 195.102 129.732 215.009 128.25 220.861C126.768 226.712 130.117 240.502 130.117 240.502L130.297 241.598Z" fill="#3A1E61" stroke="#3A1E61" stroke-width="0.641537" stroke-linecap="round" stroke-linejoin="round"/>
<path d="M190.505 91.8143C190.505 91.8143 194.008 91.0341 195.49 96.3653C196.972 101.697 195.22 104.415 195.894 107.034C196.567 109.653 198.017 115.746 196.259 121.858C194.502 127.969 188.215 132.384 187.919 134.613L187.65 136.824C187.65 136.824 186.707 137.734 183.743 137.474C180.779 137.214 177.135 135.133 177.135 135.133L177.539 130.712C177.539 130.712 182.672 130.712 183.878 129.802C185.084 128.892 190.345 119.895 190.749 117.313C191.153 114.731 191.422 107.294 191.018 105.084C190.614 102.873 187.81 98.3158 186.707 97.9257C185.604 97.5356 180.638 94.1548 180.638 94.1548C180.638 94.1548 187.541 90.1239 190.505 91.8143Z" fill="#3A1E61" stroke="#3A1E61" stroke-width="0.641537" stroke-linecap="round" stroke-linejoin="round"/>
<path d="M193.873 147.752C193.873 147.752 198.19 149.703 198.325 152.954C198.46 156.204 196.029 170.644 196.029 171.69C196.029 172.737 194.816 194.322 194.816 194.322L197.427 231.926L191.288 232.26C191.288 232.26 185.931 204.446 186.463 201.09C186.996 197.734 190.235 181.053 190.505 178.062C190.774 175.071 190.101 162.322 191.044 158.551C191.987 154.78 193.873 147.752 193.873 147.752Z" fill="white" stroke="#3A1E61" stroke-width="0.641537" stroke-linecap="round" stroke-linejoin="round"/>
<path d="M184.648 94.6501C184.648 94.6501 191.307 97.2755 192.385 101.833C193.462 106.39 191.846 112.105 192.385 115.752C192.923 119.399 187.535 128.502 185.648 130.712C183.762 132.923 179.175 132.142 179.175 132.142L179.868 139.43C179.868 139.43 182.691 148.533 182.28 150.873C181.87 153.214 177.424 156.65 171.772 156.334C164.76 155.944 162.598 149.647 162.598 149.647L163.541 135.207C163.777 132.233 163.689 129.242 163.278 126.285C162.604 120.954 164.086 112.885 164.625 111.585C165.164 110.285 170.155 104.954 173.254 102.873C176.353 100.793 182.415 94.8235 182.415 94.8235C182.415 94.8235 184.199 94.0991 184.648 94.6501Z" fill="white" stroke="#3A1E61" stroke-width="0.641537" stroke-linecap="round" stroke-linejoin="round"/>
<path d="M163.272 137.938C163.272 137.938 142.524 139.796 139.535 141.765C136.545 143.734 140.882 185.474 140.882 185.474C140.882 185.474 124.202 220.861 124.709 221.121C125.216 221.381 133.196 227.752 141.69 229.17C150.184 230.588 162.579 231.647 162.579 231.647C162.579 231.647 167.025 196.52 167.564 193.789C168.102 191.059 166.351 164 166.62 160.229C166.89 156.458 163.272 137.938 163.272 137.938Z" fill="white" stroke="#3A1E61" stroke-width="0.641537" stroke-linecap="round" stroke-linejoin="round"/>
<path d="M163.868 180.26C164.48 181.65 165.183 183 165.972 184.303" stroke="#3A1E61" stroke-width="0.641537" stroke-linecap="round" stroke-linejoin="round"/>
<path d="M158.55 146.607C159.442 154.402 160.814 166.514 161.257 171.034C161.568 173.789 162.269 176.489 163.342 179.059" stroke="#3A1E61" stroke-width="0.641537" stroke-linecap="round" stroke-linejoin="round"/>
<path d="M157.748 139.635C157.748 139.635 157.96 141.492 158.28 144.285" stroke="#3A1E61" stroke-width="0.641537" stroke-linecap="round" stroke-linejoin="round"/>
<path d="M184.648 94.6502C183.307 96.8607 181.806 98.9774 180.157 100.985C177.809 103.703 168.904 109.282 168.904 109.282C168.904 109.282 169.058 112.303 168.43 113.207C167.801 114.111 165.774 113.511 165.774 113.511C165.774 113.511 164.369 120.898 164.837 126.334C165.305 131.771 168.122 133.269 167.339 134.632C166.556 135.994 161.623 139.585 154.906 137.04C148.189 134.495 144.744 131.907 143.025 127.833C141.305 123.759 147.329 102.043 151.705 95.1022C156.08 88.161 166.556 83.6347 172.965 84.3901C179.374 85.1455 190.787 88.4644 191.724 91.0279C192.66 93.5913 184.648 94.6502 184.648 94.6502Z" fill="#3A1E61" stroke="#3A1E61" stroke-width="0.641537" stroke-linecap="round" stroke-linejoin="round"/>
<path d="M164.625 111.567C164.625 111.567 158.595 118.043 157.357 125.034C156.119 132.025 159.839 135.022 161.289 135.622" stroke="#B571FF" stroke-width="0.641537" stroke-linecap="round" stroke-linejoin="round"/>
<path d="M146.829 124.081C146.666 125.415 146.797 126.767 147.214 128.05" stroke="#B571FF" stroke-width="0.641537" stroke-linecap="round" stroke-linejoin="round"/>
<path d="M175.025 98.7368C173.508 100.039 171.888 101.225 170.181 102.285C161.989 107.449 151.044 113.659 147.727 120.91" stroke="#B571FF" stroke-width="0.641537" stroke-linecap="round" stroke-linejoin="round"/>
<path d="M179.515 91.096C179.515 91.096 180.208 93.1889 177.103 96.7121" stroke="#B571FF" stroke-width="0.641537" stroke-linecap="round" stroke-linejoin="round"/>
<path d="M179.868 139.43C179.868 139.43 191.313 146.062 193.873 147.752C196.433 149.443 192.122 165.313 192.526 168.433C192.93 171.554 194.142 178.96 192.93 182.093C191.717 185.226 191.044 187.17 191.044 187.17L188.753 201.48C188.753 201.48 192.526 228.929 192.391 229.344C192.256 229.759 179.047 231.424 179.047 231.424C179.047 231.424 181.472 203.56 182.826 197.728C184.179 191.895 188.599 183.288 187.541 173.666C186.482 164.043 179.868 139.43 179.868 139.43Z" fill="white" stroke="#3A1E61" stroke-width="0.641537" stroke-linecap="round" stroke-linejoin="round"/>
<path d="M190.255 173.653C190.086 176.787 189.303 179.861 187.945 182.712" stroke="#3A1E61" stroke-width="0.641537" stroke-linecap="round" stroke-linejoin="round"/>
<path d="M186.572 144.755C186.572 144.755 190.139 163.368 190.319 170.712" stroke="#3A1E61" stroke-width="0.641537" stroke-linecap="round" stroke-linejoin="round"/>
<path d="M191.705 165.313C191.705 165.313 190.883 158.817 189.78 155.406" stroke="#3A1E61" stroke-width="0.641537" stroke-linecap="round" stroke-linejoin="round"/>
<path d="M181.44 112.613C181.44 113.641 180.927 114.471 180.285 114.471C179.644 114.471 179.13 113.635 179.13 112.613C179.13 111.591 179.644 110.755 180.285 110.755C180.927 110.755 181.44 111.567 181.44 112.613Z" fill="#3A1E61"/>
<path d="M191.249 112.613C191.249 113.641 190.736 114.471 190.094 114.471C189.453 114.471 188.933 113.635 188.933 112.613C188.933 111.591 189.453 110.755 190.094 110.755C190.736 110.755 191.249 111.567 191.249 112.613Z" fill="#3A1E61"/>
<path d="M176.782 109.09C177.738 108.482 178.821 108.083 179.954 107.923C181.087 107.762 182.242 107.843 183.339 108.161" stroke="#3A1E61" stroke-width="0.641537" stroke-linecap="round" stroke-linejoin="round"/>
<path d="M191.441 109.09C191.113 108.725 190.659 108.487 190.163 108.419C189.667 108.35 189.162 108.457 188.741 108.718C188.741 108.718 187.008 110.954 187.393 112.433" stroke="#3A1E61" stroke-width="0.641537" stroke-linecap="round" stroke-linejoin="round"/>
<path d="M187.586 121.368L183.916 121.926" stroke="#3A1E61" stroke-width="0.641537" stroke-linecap="round" stroke-linejoin="round"/>
<path d="M185.289 124.347C185.289 124.347 179.887 125.833 176.609 121.926" stroke="#3A1E61" stroke-width="0.641537" stroke-linecap="round" stroke-linejoin="round"/>
<path d="M179.182 132.142L173.883 130.495L178.515 135.895L179.182 132.142Z" fill="#3A1E61" stroke="#3A1E61" stroke-width="0.641537" stroke-linecap="round" stroke-linejoin="round"/>
<path d="M275.015 139.282C273.749 141.167 272.825 143.246 272.282 145.43C271.525 148.793 270.768 152.601 270.768 152.601C270.768 152.601 274.559 149.672 275.015 149.505C275.47 149.337 274.713 145.703 274.713 145.703L277.279 143.653L275.015 139.282Z" fill="#3A1E61" stroke="#3A1E61" stroke-width="0.641537" stroke-linecap="round" stroke-linejoin="round"/>
<path d="M276.529 89.9628C276.529 89.9628 272.737 91.2817 271.223 93.9133C269.709 96.5449 265.764 102.693 266.373 104.743C266.982 106.793 267.278 107.672 267.278 107.672C267.278 107.672 261.825 116.892 262.428 117.771C263.166 118.658 263.977 119.486 264.853 120.248C264.853 120.248 267.278 131.22 268.343 131.95C269.407 132.681 272.436 133.121 272.436 133.121L276.83 138.39L300.939 128.904L301.247 123.783C301.247 123.783 309.433 113.536 310.491 107.684C311.55 101.833 303.82 91.7337 295.48 87.7833C287.14 83.8328 278.351 86.0124 276.529 89.9628Z" fill="white" stroke="#3A1E61" stroke-width="0.641537" stroke-linecap="round" stroke-linejoin="round"/>
<path d="M268.689 110.824C269.73 111.653 271.012 112.149 272.359 112.241" stroke="#3A1E61" stroke-width="0.641537" stroke-linecap="round" stroke-linejoin="round"/>
<path d="M295.48 87.7709C287.14 83.8204 278.351 86.0124 276.529 89.9629C276.529 89.9629 277.286 90.5511 279.736 90.4025C282.187 90.2539 287.929 87.9257 289.443 89.9629C290.957 92 284.894 93.7709 282.623 96.8421C280.352 99.9133 280.955 100.062 282.771 102.415C284.586 104.768 284.894 105.783 284.593 106.805C284.291 107.827 283.836 108.706 285.805 109.003C287.775 109.3 288.371 104.613 291.412 106.074C294.453 107.536 294.902 111.926 293.837 114.854C293.577 115.673 293.148 116.432 292.575 117.087C292.003 117.741 291.3 118.277 290.508 118.663C290.508 118.663 290.957 120.563 294.293 122.173C296.48 123.168 298.856 123.716 301.273 123.783C301.273 123.783 309.459 113.536 310.517 107.684C311.576 101.833 303.82 91.7523 295.48 87.7709Z" fill="#3A1E61" stroke="#3A1E61" stroke-width="0.641537" stroke-linecap="round" stroke-linejoin="round"/>
<path d="M301.247 113.988C301.743 115.207 301.937 116.522 301.812 117.827" stroke="#B571FF" stroke-width="0.641537" stroke-linecap="round" stroke-linejoin="round"/>
<path d="M284.003 98.7802C284.003 98.7802 285.074 100.848 291.059 103.331C294.434 104.731 297.61 107.703 299.63 110.842" stroke="#B571FF" stroke-width="0.641537" stroke-linecap="round" stroke-linejoin="round"/>
<path d="M300.522 104.991C300.522 104.991 305.885 108.087 305.013 114.099" stroke="#B571FF" stroke-width="0.641537" stroke-linecap="round" stroke-linejoin="round"/>
<path d="M271.255 108.037C271.255 109.046 270.813 109.895 270.267 109.895C269.722 109.895 269.286 109.071 269.286 108.037C269.286 107.003 269.722 106.18 270.267 106.18C270.813 106.18 271.255 107.028 271.255 108.037Z" fill="#3A1E61"/>
<path d="M268.047 104.012C268.047 104.012 270.774 100.916 273.18 104.161" stroke="#3A1E61" stroke-width="0.641537" stroke-linecap="round" stroke-linejoin="round"/>
<path d="M266.976 120.694C266.976 120.694 270.614 120.402 272.891 118.217" stroke="#3A1E61" stroke-width="0.641537" stroke-linecap="round" stroke-linejoin="round"/>
<path d="M290.501 118.65L288.833 119.084C288.091 121.232 286.843 123.186 285.189 124.793" fill="white"/>
<path d="M290.501 118.65L288.833 119.084C288.091 121.232 286.843 123.186 285.189 124.793" stroke="#3A1E61" stroke-width="0.641537" stroke-linecap="round" stroke-linejoin="round"/>
<path d="M301.407 126.694C301.407 126.694 277.754 136.211 276.695 137.381C275.637 138.551 275.027 139.282 275.027 139.282L276.843 148.65L304.429 131.084L301.407 126.694Z" fill="white" stroke="#3A1E61" stroke-width="0.641537" stroke-linecap="round" stroke-linejoin="round"/>
<path d="M232.615 191.183L233.931 200.502L227.785 201.913C226.093 203.015 224.327 204.005 222.498 204.879C220.016 206.006 218.258 206.427 217.366 206.427C216.474 206.427 213.273 205.158 213.273 205.158C213.273 205.158 215.467 193.721 217.956 192.452C220.445 191.183 227.053 189.344 232.615 191.183Z" fill="white" stroke="#3A1E61" stroke-width="0.641537" stroke-linecap="round" stroke-linejoin="round"/>
<path d="M201.674 195.09C201.674 195.09 213.222 193.437 214.505 193.263C215.788 193.09 219.15 195.796 219.15 195.796C219.15 195.796 225.674 203.598 225.302 204.167C224.365 205.598 223.345 204.786 223.345 204.786L223.268 205.715C223.268 205.715 222.556 206.867 218.091 206.879C213.626 206.892 212.028 205.833 210.931 205.746C209.834 205.659 201.186 203.529 201.186 203.529L201.674 195.09Z" fill="white" stroke="#3A1E61" stroke-width="0.641537" stroke-linecap="round" stroke-linejoin="round"/>
<path d="M197.799 194.26L202.04 194.997L201.571 204.223L197.716 203.981L197.799 194.26Z" fill="white" stroke="#3A1E61" stroke-width="0.641537" stroke-linecap="round" stroke-linejoin="round"/>
<path d="M150.781 141.183C150.781 141.183 138.72 140.372 136.192 142.266C133.665 144.161 134.909 169.207 137.039 178.279C139.169 187.35 142.088 201.839 143.455 202.514C144.821 203.189 198.357 205.282 198.357 205.282L198.922 194.043L157.626 185.455L154.681 149.988" fill="white"/>
<path d="M150.781 141.183C150.781 141.183 138.72 140.372 136.192 142.266C133.665 144.161 134.909 169.207 137.039 178.279C139.169 187.35 142.088 201.839 143.455 202.514C144.821 203.189 198.357 205.282 198.357 205.282L198.922 194.043L157.626 185.455L154.681 149.988" stroke="#3A1E61" stroke-width="0.641537" stroke-linecap="round" stroke-linejoin="round"/>
<path d="M223.371 204.793L221.517 202.26" stroke="#3A1E61" stroke-width="0.641537" stroke-linecap="round" stroke-linejoin="round"/>
<path d="M222.088 206.248L219.842 203.48" stroke="#3A1E61" stroke-width="0.641537" stroke-linecap="round" stroke-linejoin="round"/>
<path d="M229.555 192.062C229.555 192.062 218.585 188.811 216.391 191.071C214.197 193.331 209.514 199.263 210.54 199.969C211.566 200.675 215.217 197.988 216.096 197.424C216.741 196.973 217.331 196.451 217.854 195.87C218.873 196.842 220.139 197.538 221.526 197.886C222.913 198.233 224.37 198.222 225.751 197.851" fill="white"/>
<path d="M229.555 192.062C229.555 192.062 218.585 188.811 216.391 191.071C214.197 193.331 209.514 199.263 210.54 199.969C211.566 200.675 215.217 197.988 216.096 197.424C216.741 196.973 217.331 196.451 217.854 195.87C218.873 196.842 220.139 197.538 221.526 197.886C222.913 198.233 224.37 198.222 225.751 197.851" stroke="#3A1E61" stroke-width="0.641537" stroke-linecap="round" stroke-linejoin="round"/>
<path d="M217.475 203.207C217.475 203.207 216.436 206.842 216.834 207.455C216.994 207.714 217.237 207.914 217.527 208.026C217.817 208.138 218.137 208.155 218.437 208.074C218.794 207.928 219.118 207.718 219.393 207.455C219.393 207.455 219.554 204.359 219.073 203.598C218.591 202.836 218.194 202.303 217.475 203.207Z" fill="white" stroke="#3A1E61" stroke-width="0.641537" stroke-linecap="round" stroke-linejoin="round"/>
<path d="M214.672 203.69C214.672 203.69 213.632 207.319 214.03 207.938C214.188 208.197 214.431 208.398 214.72 208.51C215.009 208.622 215.328 208.639 215.627 208.557C215.986 208.412 216.313 208.202 216.59 207.938C216.59 207.938 216.75 204.842 216.269 204.081C215.788 203.319 215.397 202.768 214.672 203.69Z" fill="white" stroke="#3A1E61" stroke-width="0.641537" stroke-linecap="round" stroke-linejoin="round"/>
<path d="M211.855 203.827C211.855 203.827 211.06 206.613 211.368 207.084C211.489 207.282 211.675 207.437 211.896 207.523C212.118 207.609 212.363 207.622 212.593 207.56C212.869 207.45 213.12 207.288 213.331 207.084C213.331 207.084 213.453 204.718 213.087 204.124C212.721 203.529 212.407 203.115 211.855 203.827Z" fill="white" stroke="#3A1E61" stroke-width="0.641537" stroke-linecap="round" stroke-linejoin="round"/>
<path d="M208.538 203.938C208.538 203.938 207.897 205.796 208.154 206.099C208.266 206.235 208.416 206.337 208.587 206.392C208.758 206.447 208.942 206.452 209.116 206.409C209.328 206.339 209.525 206.234 209.7 206.099C209.7 206.099 209.796 204.526 209.507 204.136C209.218 203.746 208.975 203.467 208.538 203.938Z" fill="white" stroke="#3A1E61" stroke-width="0.641537" stroke-linecap="round" stroke-linejoin="round"/>
<path d="M231.736 190.192L233.199 203.325L238.024 202.477L236.272 189.35L231.736 190.192Z" fill="white" stroke="#3A1E61" stroke-width="0.641537" stroke-linecap="round" stroke-linejoin="round"/>
<path d="M234.809 188.502L237.735 205.158L257.77 202.619L259.964 183.703L234.809 188.502Z" fill="#540494" stroke="#3A1E61" stroke-width="0.641537" stroke-linecap="round" stroke-linejoin="round"/>
<path d="M250.54 203.536L257.77 202.619L259.964 183.703L254.684 184.712L250.54 203.536Z" fill="#3A1E61" stroke="#3A1E61" stroke-width="0.641537" stroke-linecap="round" stroke-linejoin="round"/>
<path d="M311.03 241.598L309.395 211.257C309.395 211.257 316.272 182.155 314.809 166.056C313.346 149.957 302.081 133.164 302.081 133.164C302.081 133.164 275.605 149.115 272.827 151.938C270.049 154.762 265.084 159.554 263.621 164.074C262.158 168.594 256.455 196.396 256.455 196.396C256.455 196.396 250.457 215.882 248.558 227.604C247.403 234.731 247.544 239.183 247.833 241.585L311.03 241.598Z" fill="#540494" stroke="#3A1E61" stroke-width="0.641537" stroke-linecap="round" stroke-linejoin="round"/>
<path d="M301.087 138.471C302.901 137.761 304.674 136.956 306.399 136.062" stroke="#3A1E61" stroke-width="0.641537" stroke-linecap="round" stroke-linejoin="round"/>
<path d="M265.084 170.52C267.367 166.533 270.216 161.796 271.499 160.353C273.924 157.721 292.118 142.211 298.79 139.43" stroke="#3A1E61" stroke-width="0.641537" stroke-linecap="round" stroke-linejoin="round"/>
<path d="M261.671 176.582C261.671 176.582 262.755 174.601 264.237 172" stroke="#3A1E61" stroke-width="0.641537" stroke-linecap="round" stroke-linejoin="round"/>
<path d="M278.492 178.105C278.492 187.183 277.209 196.167 277.85 205.152C274.527 216.706 268.541 226.972 264.237 237.814" stroke="#3A1E61" stroke-width="0.641537" stroke-linecap="round" stroke-linejoin="round"/>
<path d="M280.929 159.48C280.929 159.48 278.197 163.43 278.498 170.743C278.537 171.641 278.549 172.867 278.543 174.322" stroke="#3A1E61" stroke-width="0.641537" stroke-linecap="round" stroke-linejoin="round"/>
<path d="M307.31 163.579C307.31 163.579 301.247 208.656 300.638 212.316C300.201 214.935 290.905 229.263 285.658 237.183" stroke="#3A1E61" stroke-width="0.641537" stroke-linecap="round" stroke-linejoin="round"/>
<path d="M267.239 228.805L254.838 226.724L255.647 223.084L267.778 225.164" stroke="#3A1E61" stroke-width="0.641537" stroke-linecap="round" stroke-linejoin="round"/>
</g>
<rect x="1" y="1" width="438" height="646" rx="27" stroke="white" stroke-width="2"/>
<defs>
<clipPath id="clip0_216_150250">
<rect width="247.601" height="194" fill="white" transform="translate(96 84)"/>
</clipPath>
</defs>
</svg>
