<svg width="440" height="648" viewBox="0 0 440 648" fill="none" xmlns="http://www.w3.org/2000/svg">
<rect x="1" y="1" width="438" height="646" rx="27" fill="white"/>
<path d="M303.913 265.957C303.913 282.562 298.989 298.794 289.764 312.601C280.539 326.407 267.427 337.168 252.086 343.523C236.745 349.877 219.864 351.54 203.578 348.3C187.292 345.061 172.332 337.065 160.59 325.323C148.849 313.582 140.853 298.622 137.613 282.336C134.374 266.05 136.036 249.169 142.391 233.828C148.745 218.487 159.506 205.375 173.313 196.149C187.12 186.924 203.352 182 219.957 182C242.223 182 263.578 190.845 279.323 206.59C295.068 222.335 303.913 243.69 303.913 265.957Z" fill="#540494"/>
<g style="mix-blend-mode:multiply">
<path d="M303.934 265.957C303.926 258.163 302.834 250.408 300.688 242.915C292.56 234.745 277.541 219.747 277.122 219.391C276.055 218.146 274.743 217.135 273.268 216.421C271.793 215.706 270.186 215.304 268.548 215.238C266.91 215.173 265.277 215.446 263.749 216.04C262.222 216.635 260.833 217.538 259.67 218.693C258.508 219.849 257.596 221.232 256.992 222.755C256.388 224.279 256.105 225.911 256.16 227.549C256.215 229.188 256.608 230.797 257.313 232.277C258.018 233.756 259.021 235.074 260.259 236.149C260.731 236.735 261.265 237.269 261.851 237.741C261.966 237.89 262.092 238.03 262.228 238.16L261.747 239.857H196.098L172.113 215.767L163.315 236.714L169.474 240.904V315.204C168.691 315.657 168.038 316.304 167.577 317.083C167.117 317.861 166.864 318.745 166.843 319.649C166.822 320.553 167.033 321.448 167.457 322.246C167.881 323.045 168.504 323.722 169.264 324.211C169.685 324.841 170.226 325.382 170.856 325.803C171.277 326.433 171.818 326.974 172.448 327.395C172.869 328.025 173.41 328.566 174.04 328.987C174.461 329.617 175.002 330.158 175.632 330.579C176.053 331.209 176.594 331.75 177.224 332.171C177.647 332.807 178.196 333.349 178.837 333.763C179.246 334.403 179.789 334.946 180.429 335.355C180.838 335.995 181.381 336.538 182.021 336.947L182.009 336.932C183.587 338.562 183.587 338.562 185.165 340.192L185.184 340.215C185.593 340.855 186.136 341.398 186.776 341.807C187.185 342.447 187.728 342.99 188.368 343.399C188.512 343.614 188.673 343.817 188.85 344.006C201.587 349.097 215.378 350.988 229.015 349.514C242.652 348.041 255.72 343.248 267.076 335.555C278.432 327.862 287.73 317.502 294.155 305.384C300.581 293.266 303.938 279.757 303.934 266.041V265.957Z" fill="#B3B3B3"/>
</g>
<path d="M267.926 243.25H172.092C171.625 243.25 171.178 243.064 170.848 242.734C170.518 242.405 170.333 241.957 170.333 241.49C170.333 241.024 170.518 240.576 170.848 240.246C171.178 239.916 171.625 239.731 172.092 239.731H267.926C268.393 239.731 268.84 239.916 269.17 240.246C269.5 240.576 269.685 241.024 269.685 241.49C269.685 241.957 269.5 242.405 269.17 242.734C268.84 243.064 268.393 243.25 267.926 243.25Z" fill="#F6D047"/>
<path d="M267.926 269.12H172.092C171.656 269.072 171.253 268.865 170.96 268.539C170.667 268.212 170.505 267.789 170.505 267.35C170.505 266.911 170.667 266.488 170.96 266.161C171.253 265.834 171.656 265.627 172.092 265.58H267.926C268.362 265.627 268.766 265.834 269.059 266.161C269.352 266.488 269.514 266.911 269.514 267.35C269.514 267.789 269.352 268.212 269.059 268.539C268.766 268.865 268.362 269.072 267.926 269.12Z" fill="#F6D047"/>
<path d="M267.926 294.969H172.092C171.625 294.969 171.178 294.783 170.848 294.453C170.518 294.123 170.333 293.676 170.333 293.209C170.333 292.742 170.518 292.295 170.848 291.965C171.178 291.635 171.625 291.449 172.092 291.449H267.926C268.393 291.449 268.84 291.635 269.17 291.965C269.5 292.295 269.685 292.742 269.685 293.209C269.685 293.676 269.5 294.123 269.17 294.453C268.84 294.783 268.393 294.969 267.926 294.969Z" fill="#F6D047"/>
<path d="M226.283 289.941C225.954 289.947 225.627 289.89 225.319 289.774C224.996 289.649 224.701 289.461 224.45 289.222C224.199 288.982 223.998 288.696 223.858 288.379C223.718 288.062 223.642 287.72 223.634 287.374C223.626 287.027 223.686 286.683 223.811 286.359L235.458 256.028L251.105 276.556L263.129 234.997C263.223 234.662 263.382 234.35 263.598 234.078C263.814 233.806 264.082 233.579 264.386 233.412C264.69 233.244 265.024 233.139 265.37 233.101C265.715 233.064 266.064 233.096 266.397 233.195C266.732 233.289 267.044 233.449 267.317 233.664C267.59 233.88 267.818 234.147 267.987 234.45C268.156 234.754 268.264 235.088 268.304 235.434C268.344 235.779 268.315 236.129 268.219 236.463L253.284 288.014L237.029 266.669L228.755 288.161C228.58 288.678 228.247 289.128 227.804 289.448C227.361 289.767 226.829 289.94 226.283 289.941Z" fill="white"/>
<path d="M265.643 238.369C265.394 238.374 265.147 238.339 264.91 238.264C264.238 238.07 263.67 237.616 263.332 237.003C262.995 236.391 262.914 235.669 263.108 234.997L265.391 227.099C265.481 226.759 265.637 226.439 265.852 226.16C266.067 225.881 266.335 225.648 266.641 225.474C266.948 225.3 267.285 225.189 267.635 225.148C267.985 225.107 268.339 225.136 268.678 225.234C269.016 225.331 269.331 225.496 269.605 225.718C269.879 225.939 270.105 226.213 270.272 226.524C270.438 226.834 270.54 227.175 270.573 227.526C270.605 227.876 270.567 228.23 270.461 228.566L268.198 236.421C268.043 236.98 267.709 237.473 267.248 237.825C266.787 238.176 266.223 238.367 265.643 238.369Z" fill="#7371F3"/>
<path d="M178.795 307.118C178.444 307.119 178.096 307.049 177.772 306.912C177.448 306.775 177.155 306.575 176.91 306.322C176.662 306.077 176.466 305.785 176.332 305.463C176.198 305.141 176.129 304.796 176.129 304.447C176.129 304.099 176.198 303.754 176.332 303.432C176.466 303.11 176.662 302.818 176.91 302.573L200.769 279.279L215.432 290.444C215.707 290.656 215.938 290.92 216.111 291.221C216.284 291.522 216.396 291.854 216.441 292.198C216.486 292.543 216.462 292.892 216.372 293.227C216.281 293.563 216.126 293.877 215.914 294.152C215.702 294.427 215.438 294.658 215.137 294.831C214.836 295.004 214.504 295.116 214.16 295.161C213.816 295.205 213.466 295.182 213.131 295.091C212.795 295.001 212.481 294.845 212.206 294.634L201.272 286.255L180.681 306.364C180.433 306.61 180.139 306.803 179.815 306.933C179.491 307.063 179.144 307.126 178.795 307.118Z" fill="white"/>
<path d="M223.057 302.971L212.185 294.654L215.39 290.444L220.648 294.487L223.811 286.255L228.755 288.161L223.057 302.971Z" fill="#B571FF"/>
<path d="M271.026 319.77L250.142 310.889L252.76 317.173H176.659C176.19 316.39 175.535 315.735 174.753 315.267V233.907L180.911 236.526L172.092 215.579L163.294 236.526L169.453 233.907V315.204C168.75 315.608 168.149 316.168 167.697 316.841C167.245 317.514 166.955 318.283 166.848 319.086C166.741 319.89 166.821 320.708 167.081 321.476C167.341 322.244 167.775 322.941 168.348 323.515C168.921 324.088 169.619 324.522 170.387 324.782C171.155 325.042 171.972 325.122 172.776 325.015C173.58 324.908 174.348 324.617 175.022 324.166C175.695 323.714 176.255 323.113 176.659 322.41H252.76L250.142 328.568L271.026 319.77Z" fill="#C9A4F0"/>
<path d="M221.423 309.318C219.062 309.318 216.753 308.617 214.79 307.305C212.826 305.993 211.296 304.129 210.392 301.947C209.488 299.765 209.252 297.364 209.712 295.048C210.173 292.732 211.31 290.605 212.98 288.935C214.65 287.265 216.778 286.128 219.094 285.667C221.41 285.206 223.811 285.443 225.992 286.347C228.174 287.25 230.039 288.781 231.351 290.744C232.663 292.708 233.363 295.016 233.363 297.378C233.363 300.544 232.105 303.581 229.866 305.821C227.627 308.06 224.59 309.318 221.423 309.318ZM221.423 288.957C219.766 288.957 218.146 289.448 216.768 290.369C215.39 291.29 214.316 292.598 213.682 294.129C213.048 295.66 212.882 297.345 213.205 298.97C213.528 300.596 214.326 302.089 215.498 303.261C216.67 304.432 218.163 305.23 219.788 305.554C221.414 305.877 223.098 305.711 224.629 305.077C226.161 304.443 227.469 303.369 228.39 301.991C229.311 300.613 229.802 298.993 229.802 297.336C229.802 295.114 228.919 292.982 227.348 291.411C225.776 289.84 223.645 288.957 221.423 288.957Z" fill="#B571FF"/>
<path d="M267.926 238.872C265.564 238.872 263.256 238.172 261.293 236.86C259.329 235.548 257.799 233.683 256.895 231.501C255.991 229.319 255.755 226.919 256.215 224.603C256.676 222.286 257.813 220.159 259.483 218.489C261.153 216.819 263.28 215.682 265.597 215.221C267.913 214.761 270.313 214.997 272.495 215.901C274.677 216.805 276.542 218.335 277.854 220.298C279.166 222.262 279.866 224.57 279.866 226.932C279.86 230.097 278.601 233.131 276.363 235.369C274.125 237.607 271.091 238.866 267.926 238.872ZM267.926 218.532C266.269 218.532 264.649 219.023 263.271 219.944C261.893 220.865 260.819 222.173 260.185 223.704C259.551 225.236 259.385 226.92 259.708 228.546C260.031 230.171 260.829 231.664 262.001 232.836C263.173 234.008 264.666 234.806 266.291 235.129C267.917 235.452 269.601 235.286 271.132 234.652C272.664 234.018 273.972 232.944 274.893 231.566C275.813 230.188 276.305 228.568 276.305 226.911C276.305 224.689 275.422 222.558 273.851 220.986C272.279 219.415 270.148 218.532 267.926 218.532Z" fill="#7371F3"/>
<rect x="1" y="1" width="438" height="646" rx="27" stroke="#540494" stroke-width="2"/>
</svg>
