<svg width="82" height="92" viewBox="0 0 82 92" fill="none" xmlns="http://www.w3.org/2000/svg">
<g clip-path="url(#clip0_64_108001)">
<path d="M81.0799 39.9411C81.0799 47.8407 78.7293 55.5629 74.3252 62.1312C69.9212 68.6994 63.6616 73.8188 56.3379 76.8418C49.0142 79.8649 40.9555 80.6559 33.1807 79.1147C25.406 77.5736 18.2644 73.7695 12.6591 68.1837C7.05382 62.5978 3.23656 55.481 1.69007 47.7332C0.143572 39.9854 0.937284 31.9546 3.97084 24.6563C7.0044 17.358 12.1416 11.1201 18.7327 6.73129C25.3238 2.3425 33.0729 0 41 0C51.6298 0 61.8243 4.20807 69.3408 11.6985C76.8572 19.1889 81.0799 29.3481 81.0799 39.9411Z" fill="#540494"/>
<path d="M79.4997 72.6374C79.8441 72.9791 80.1174 73.3852 80.3038 73.8324C80.4903 74.2796 80.5863 74.759 80.5863 75.2433C80.5863 75.7276 80.4903 76.2071 80.3038 76.6543C80.1174 77.1015 79.8441 77.5076 79.4997 77.8492C79.1569 78.1924 78.7494 78.4648 78.3006 78.6506C77.8518 78.8364 77.3707 78.932 76.8847 78.932C76.3988 78.932 75.9176 78.8364 75.4688 78.6506C75.0201 78.4648 74.6126 78.1924 74.2697 77.8492L59.2697 62.9012C58.5791 62.2086 58.1914 61.2718 58.1914 60.2953C58.1914 59.3188 58.5791 58.382 59.2697 57.6894C59.6134 57.3459 60.0218 57.0733 60.4714 56.8874C60.921 56.7014 61.4029 56.6057 61.8897 56.6057C62.3765 56.6057 62.8585 56.7014 63.3081 56.8874C63.7577 57.0733 64.166 57.3459 64.5097 57.6894L79.4997 72.6374Z" fill="black"/>
<path d="M60.7396 50.4246C61.8247 51.5115 62.4339 52.9823 62.4339 54.5154C62.4339 56.0486 61.8247 57.5193 60.7396 58.6062C60.2009 59.144 59.561 59.5707 58.8566 59.8618C58.1522 60.153 57.3972 60.3028 56.6346 60.3028C55.872 60.3028 55.117 60.153 54.4126 59.8618C53.7082 59.5707 53.0683 59.144 52.5296 58.6062L50.9096 56.9918C50.3699 56.4549 49.9417 55.8173 49.6495 55.1154C49.3574 54.4134 49.207 53.6609 49.207 52.901C49.207 52.1411 49.3574 51.3886 49.6495 50.6867C49.9417 49.9848 50.3699 49.3471 50.9096 48.8103C52.0002 47.7289 53.4761 47.1218 55.0146 47.1218C56.5531 47.1218 58.029 47.7289 59.1196 48.8103L60.7396 50.4246Z" fill="#D4A0FD"/>
<path d="M51.6099 49.5576C51.3523 49.8237 51.1212 50.114 50.9199 50.4246C51.8737 49.8346 52.9989 49.5816 54.1145 49.7063C55.2301 49.831 56.2711 50.3263 57.0699 51.1122L58.4499 52.4874C59.2362 53.2828 59.7317 54.3183 59.8568 55.4279C59.9819 56.5374 59.7295 57.6567 59.1399 58.6062C59.4561 58.4119 59.7481 58.1811 60.0099 57.9185C60.9261 56.9871 61.4392 55.7349 61.4392 54.4307C61.4392 53.1264 60.9261 51.8742 60.0099 50.9428L58.6099 49.5576C57.6753 48.6447 56.4187 48.1333 55.1099 48.1333C53.8012 48.1333 52.5446 48.6447 51.6099 49.5576Z" fill="#F3B01E"/>
<path d="M54.7098 22.2824C57.6865 25.2479 59.7138 29.0265 60.5354 33.1403C61.357 37.254 60.936 41.5182 59.3255 45.3935C57.7151 49.2688 54.9876 52.5812 51.488 54.9116C47.9884 57.2421 43.8738 58.486 39.6648 58.486C35.4557 58.486 31.3412 57.2421 27.8416 54.9116C24.342 52.5812 21.6145 49.2688 20.004 45.3935C18.3936 41.5182 17.9725 37.254 18.7941 33.1403C19.6157 29.0265 21.6431 25.2479 24.6198 22.2824C28.6104 18.3068 34.022 16.0735 39.6648 16.0735C45.3075 16.0735 50.7192 18.3068 54.7098 22.2824Z" fill="#9868BF"/>
<path d="M29.5397 47.3054C29.273 47.0728 29.013 46.8337 28.7597 46.5879C26.2823 44.1175 24.8906 40.7678 24.8906 37.2752C24.8906 33.7827 26.2823 30.433 28.7597 27.9626C29.2794 27.4423 29.8413 26.9657 30.4397 26.5376C27.8985 29.3593 26.4195 32.9729 26.2554 36.7608C26.0912 40.5487 27.2521 44.2758 29.5397 47.3054Z" fill="white"/>
<path d="M24.61 22.2824C21.6333 25.2479 19.606 29.0265 18.7844 33.1403C17.9628 37.254 18.3838 41.5182 19.9943 45.3935C21.6047 49.2688 24.3322 52.5812 27.8318 54.9116C31.3314 57.2421 35.446 58.486 39.655 58.486C43.8641 58.486 47.9786 57.2421 51.4782 54.9116C54.9778 52.5812 57.7053 49.2688 59.3158 45.3935C60.9262 41.5182 61.3473 37.254 60.5257 33.1403C59.7041 29.0265 57.6767 25.2479 54.7 22.2824C50.7094 18.3068 45.2977 16.0735 39.655 16.0735C34.0123 16.0735 28.6006 18.3068 24.61 22.2824ZM50.78 48.3617C48.5799 50.5533 45.7771 52.0457 42.7259 52.65C39.6748 53.2544 36.5123 52.9436 33.6384 51.7569C30.7645 50.5703 28.3081 48.5611 26.58 45.9834C24.8518 43.4058 23.9294 40.3753 23.9294 37.2753C23.9294 34.1752 24.8518 31.1448 26.58 28.5671C28.3081 25.9894 30.7645 23.9802 33.6384 22.7936C36.5123 21.607 39.6748 21.2962 42.7259 21.9005C45.7771 22.5049 48.5799 23.9972 50.78 26.1888C53.7302 29.1287 55.3884 33.1155 55.3903 37.2732C55.3922 41.4309 53.7375 45.4192 50.79 48.3617H50.78Z" fill="white"/>
<path d="M26.1198 23.7774C23.4413 26.4461 21.6171 29.8465 20.878 33.5484C20.1388 37.2504 20.5179 41.0876 21.9672 44.5749C23.4165 48.0621 25.871 51.0428 29.0203 53.1398C32.1696 55.2369 35.8721 56.3562 39.6598 56.3562C43.4474 56.3562 47.15 55.2369 50.2993 53.1398C53.4485 51.0428 55.903 48.0621 57.3524 44.5749C58.8017 41.0876 59.1808 37.2504 58.4416 33.5484C57.7024 29.8465 55.8783 26.4461 53.1998 23.7774C49.6072 20.2016 44.7373 18.1931 39.6598 18.1931C34.5822 18.1931 29.7123 20.2016 26.1198 23.7774ZM50.7898 48.3618C48.5896 50.5535 45.7868 52.0458 42.7357 52.6502C39.6845 53.2545 36.5221 52.9437 33.6481 51.7571C30.7742 50.5705 28.3179 48.5613 26.5898 45.9836C24.8616 43.4059 23.9392 40.3755 23.9392 37.2754C23.9392 34.1754 24.8616 31.1449 26.5898 28.5672C28.3179 25.9895 30.7742 23.9804 33.6481 22.7938C36.5221 21.6071 39.6845 21.2963 42.7357 21.9007C45.7868 22.505 48.5896 23.9973 50.7898 26.189C53.7386 29.1302 55.3951 33.1177 55.3951 37.2754C55.3951 41.4331 53.7386 45.4207 50.7898 48.3618Z" fill="#E8E8E8"/>
<path d="M76.1403 75.5374C76.2371 75.6303 76.3141 75.7418 76.3667 75.865C76.4192 75.9883 76.4464 76.1209 76.4464 76.2549C76.4464 76.3888 76.4192 76.5214 76.3667 76.6446C76.3141 76.7679 76.2371 76.8794 76.1403 76.9724C76.047 77.0688 75.9352 77.1455 75.8115 77.1979C75.6878 77.2503 75.5547 77.2773 75.4203 77.2773C75.2859 77.2773 75.1529 77.2503 75.0291 77.1979C74.9054 77.1455 74.7936 77.0688 74.7003 76.9724L59.9603 62.2834C59.8635 62.1905 59.7866 62.079 59.734 61.9558C59.6814 61.8325 59.6543 61.6999 59.6543 61.5659C59.6543 61.432 59.6814 61.2994 59.734 61.1761C59.7866 61.0528 59.8635 60.9414 59.9603 60.8484C60.0536 60.752 60.1654 60.6753 60.2892 60.6229C60.4129 60.5705 60.5459 60.5435 60.6803 60.5435C60.8147 60.5435 60.9478 60.5705 61.0715 60.6229C61.1952 60.6753 61.307 60.752 61.4003 60.8484L76.1403 75.5374Z" fill="#4B4B55"/>
<path d="M27.2403 51.2716C24.5907 48.639 22.7324 45.3207 21.875 41.6913C21.0177 38.0619 21.1954 34.266 22.3883 30.732C23.5811 27.1979 25.7416 24.0666 28.6257 21.6913C31.5098 19.3161 35.0028 17.7915 38.7103 17.2898C35.9882 17.3969 33.3164 18.055 30.8576 19.2238C28.3988 20.3926 26.2043 22.0478 24.4078 24.0887C22.6113 26.1295 21.2503 28.5133 20.4076 31.095C19.5649 33.6766 19.2583 36.4022 19.5062 39.1057C19.7541 41.8092 20.5515 44.4342 21.8498 46.8209C23.1481 49.2076 24.9201 51.3061 27.0581 52.9886C29.196 54.6711 31.6552 55.9025 34.2859 56.6078C36.9166 57.3132 39.6638 57.4777 42.3603 57.0914C39.572 57.2266 36.7863 56.7786 34.1822 55.7763C31.5781 54.774 29.2134 53.2395 27.2403 51.2716Z" fill="#D1D1D1"/>
</g>
<defs>
<clipPath id="clip0_64_108001">
<rect width="80.16" height="92" fill="white" transform="translate(0.919922)"/>
</clipPath>
</defs>
</svg>
