<svg width="440" height="648" viewBox="0 0 440 648" fill="none" xmlns="http://www.w3.org/2000/svg">
<rect x="1" y="1" width="438" height="646" rx="27" fill="#07041B"/>
<path d="M177.98 189.669L176.162 189.024C175.721 188.869 175.34 188.578 175.076 188.191C174.812 187.805 174.679 187.344 174.696 186.876C174.758 185.616 174.685 184.353 174.478 183.109C174.403 182.639 174.483 182.157 174.706 181.737C174.929 181.317 175.282 180.98 175.713 180.779L177.615 179.881C178.145 179.627 178.553 179.174 178.75 178.621C178.947 178.068 178.918 177.459 178.667 176.927L177.538 174.548C177.284 174.018 176.831 173.611 176.277 173.414C175.723 173.218 175.114 173.25 174.584 173.503L172.577 174.457C172.15 174.664 171.668 174.731 171.2 174.648C170.733 174.565 170.304 174.336 169.974 173.994C169.066 173.013 168.046 172.142 166.936 171.398C166.537 171.122 166.241 170.722 166.094 170.26C165.947 169.798 165.956 169.3 166.122 168.844L166.69 167.244C166.88 166.694 166.845 166.092 166.595 165.567C166.344 165.041 165.897 164.636 165.35 164.438L162.873 163.561C162.323 163.371 161.72 163.405 161.195 163.656C160.67 163.907 160.265 164.354 160.067 164.901L159.365 166.964C159.207 167.395 158.92 167.768 158.544 168.031C158.168 168.295 157.719 168.436 157.26 168.437C156.18 168.436 155.101 168.535 154.039 168.732C153.587 168.82 153.119 168.769 152.697 168.583C152.276 168.397 151.921 168.087 151.682 167.693L150.18 165.167C150.032 164.917 149.836 164.698 149.603 164.523C149.369 164.348 149.104 164.221 148.822 164.15C148.539 164.078 148.246 164.063 147.957 164.105C147.669 164.147 147.392 164.246 147.142 164.396L144.806 165.708C144.3 166.008 143.935 166.497 143.791 167.067C143.646 167.637 143.733 168.24 144.034 168.746L145.198 170.71C145.453 171.132 145.557 171.627 145.496 172.116C145.435 172.604 145.212 173.058 144.862 173.405C144.172 174.077 143.538 174.804 142.967 175.58C142.685 175.954 142.289 176.227 141.84 176.36C141.39 176.493 140.91 176.477 140.469 176.317L138.659 175.671C138.108 175.48 137.504 175.514 136.978 175.767C136.453 176.019 136.048 176.469 135.852 177.018L134.968 179.495C134.777 180.045 134.81 180.648 135.061 181.174C135.312 181.7 135.76 182.105 136.309 182.302L138.112 182.94C138.558 183.094 138.943 183.387 139.21 183.776C139.476 184.165 139.61 184.63 139.592 185.101C139.55 185.826 139.55 186.552 139.592 187.276C139.629 187.775 139.493 188.271 139.209 188.682C138.924 189.093 138.507 189.394 138.028 189.536L136.54 189.985C136.261 190.069 136.002 190.207 135.777 190.392C135.552 190.577 135.366 190.804 135.229 191.061C135.092 191.318 135.007 191.599 134.979 191.889C134.952 192.179 134.981 192.471 135.067 192.749L135.824 195.261C135.996 195.823 136.383 196.294 136.901 196.572C137.419 196.849 138.026 196.91 138.589 196.742L140.89 196.04C141.325 195.911 141.788 195.917 142.219 196.058C142.65 196.198 143.029 196.466 143.304 196.826C144.111 197.863 145.034 198.804 146.055 199.632C146.415 199.924 146.676 200.32 146.802 200.766C146.927 201.212 146.912 201.687 146.756 202.123L146.019 204.186C145.832 204.737 145.868 205.34 146.12 205.864C146.372 206.389 146.819 206.794 147.367 206.993L149.843 207.87C150.393 208.061 150.997 208.028 151.522 207.777C152.048 207.526 152.453 207.078 152.65 206.53L153.218 204.93C153.376 204.47 153.682 204.077 154.089 203.811C154.496 203.545 154.98 203.423 155.464 203.464C156.789 203.584 158.124 203.554 159.442 203.372C159.91 203.315 160.385 203.408 160.797 203.638C161.209 203.867 161.538 204.221 161.736 204.649L162.712 206.698C162.965 207.228 163.419 207.636 163.972 207.832C164.526 208.028 165.135 207.996 165.666 207.744L168.037 206.621C168.3 206.496 168.536 206.321 168.732 206.105C168.927 205.889 169.078 205.636 169.175 205.362C169.273 205.088 169.316 204.797 169.301 204.506C169.286 204.215 169.215 203.93 169.09 203.667L168.178 201.751C167.969 201.323 167.905 200.838 167.998 200.371C168.09 199.903 168.333 199.479 168.69 199.162C169.646 198.323 170.507 197.382 171.258 196.356C171.54 195.982 171.936 195.708 172.385 195.576C172.835 195.443 173.315 195.458 173.756 195.619L175.566 196.265C176.117 196.454 176.72 196.418 177.246 196.166C177.771 195.914 178.176 195.466 178.373 194.917L179.25 192.441C179.434 191.904 179.405 191.317 179.169 190.801C178.933 190.285 178.507 189.88 177.98 189.669ZM166.22 189.087C165.581 190.88 164.425 192.444 162.898 193.58C161.371 194.717 159.541 195.375 157.64 195.472C155.738 195.568 153.851 195.099 152.216 194.123C150.582 193.147 149.273 191.709 148.456 189.989C147.639 188.27 147.35 186.346 147.626 184.463C147.902 182.579 148.73 180.82 150.006 179.406C151.281 177.993 152.947 176.99 154.793 176.524C156.639 176.058 158.581 176.149 160.375 176.787C162.781 177.644 164.747 179.421 165.843 181.727C166.939 184.033 167.075 186.68 166.22 189.087Z" fill="#E0E0E0"/>
<path d="M319.303 96.3986C321.586 94.1161 321.586 90.4154 319.303 88.1329C317.021 85.8504 313.32 85.8504 311.038 88.1329C308.755 90.4154 308.755 94.1161 311.038 96.3986C313.32 98.6811 317.021 98.6811 319.303 96.3986Z" fill="#E0E0E0"/>
<path d="M280.9 107.588C281.639 104.445 279.69 101.299 276.548 100.56C273.406 99.8217 270.259 101.77 269.521 104.912C268.782 108.055 270.73 111.201 273.873 111.94C277.015 112.678 280.161 110.73 280.9 107.588Z" fill="#E0E0E0"/>
<path d="M315.167 92.799L276.295 105.394L231.705 133.656" stroke="#E0E0E0" stroke-width="3.50826" stroke-miterlimit="10"/>
<path d="M323.587 108.986H307.638C304.387 108.986 301.751 111.622 301.751 114.873V271.278C301.751 274.529 304.387 277.165 307.638 277.165H323.587C326.838 277.165 329.473 274.529 329.473 271.278V114.873C329.473 111.622 326.838 108.986 323.587 108.986Z" fill="#E0E0E0"/>
<path d="M285.578 134.274H269.629C266.378 134.274 263.743 136.909 263.743 140.16V272.113C263.743 275.364 266.378 278 269.629 278H285.578C288.829 278 291.465 275.364 291.465 272.113V140.16C291.465 136.909 288.829 134.274 285.578 134.274Z" fill="#E0E0E0"/>
<path d="M248.587 157.161H232.638C229.387 157.161 226.751 159.797 226.751 163.048V271.636C226.751 274.887 229.387 277.523 232.638 277.523H248.587C251.838 277.523 254.474 274.887 254.474 271.636V163.048C254.474 159.797 251.838 157.161 248.587 157.161Z" fill="#E0E0E0"/>
<path d="M202.678 173.349C176.94 174.238 152.485 184.799 134.19 202.924C133.907 203.199 133.684 203.528 133.534 203.893C133.383 204.257 133.309 204.648 133.315 205.042C133.321 205.436 133.407 205.825 133.568 206.184C133.729 206.544 133.962 206.867 134.253 207.133L177.053 246.882C177.57 247.364 178.245 247.639 178.952 247.656C179.658 247.673 180.346 247.43 180.884 246.973C187.315 241.523 195.293 238.225 203.695 237.543C204.409 237.483 205.075 237.159 205.562 236.633C206.049 236.107 206.322 235.418 206.326 234.701V176.892C206.327 176.418 206.232 175.948 206.047 175.511C205.862 175.075 205.592 174.679 205.252 174.349C204.911 174.018 204.508 173.76 204.066 173.588C203.624 173.416 203.152 173.335 202.678 173.349Z" fill="#540494"/>
<path d="M103.913 279.284H162.887C163.628 279.278 164.339 278.991 164.876 278.48C165.413 277.969 165.735 277.274 165.778 276.534C166.332 267.258 168.746 260.136 174.198 253.541C174.661 252.972 174.889 252.247 174.835 251.515C174.782 250.784 174.451 250.1 173.91 249.604L131.544 210.312C131.263 210.05 130.932 209.847 130.571 209.715C130.211 209.582 129.827 209.522 129.443 209.539C129.059 209.556 128.683 209.649 128.335 209.813C127.987 209.977 127.676 210.209 127.419 210.494C111.052 228.576 101.684 251.909 101.001 276.288C100.989 276.678 101.056 277.066 101.196 277.43C101.337 277.793 101.55 278.124 101.822 278.404C102.093 278.684 102.419 278.906 102.778 279.057C103.137 279.208 103.523 279.285 103.913 279.284Z" fill="#B571FF"/>
<path d="M209.989 176.233V234.666C209.993 235.391 210.267 236.088 210.758 236.621C211.248 237.154 211.92 237.485 212.641 237.55C221.047 238.282 229.02 241.598 235.466 247.043C236.009 247.491 236.697 247.726 237.4 247.705C238.104 247.683 238.776 247.405 239.29 246.924L282.091 207.147C282.382 206.881 282.615 206.559 282.777 206.2C282.939 205.84 283.026 205.452 283.032 205.058C283.039 204.664 282.965 204.272 282.815 203.908C282.665 203.543 282.443 203.213 282.161 202.938C263.7 184.627 238.962 174.031 212.971 173.3C212.581 173.29 212.193 173.359 211.83 173.503C211.467 173.646 211.137 173.861 210.859 174.135C210.581 174.408 210.36 174.735 210.211 175.095C210.062 175.456 209.986 175.843 209.989 176.233Z" fill="#B571FF"/>
<path d="M314.893 276.281C314.211 251.925 304.859 228.611 288.518 210.536C288.26 210.251 287.948 210.019 287.6 209.855C287.252 209.691 286.874 209.598 286.49 209.581C286.105 209.564 285.721 209.623 285.36 209.756C284.999 209.889 284.667 210.092 284.385 210.354L242.04 249.696C241.513 250.186 241.188 250.856 241.128 251.573C241.068 252.291 241.279 253.005 241.718 253.576C247.296 260.761 249.19 266.57 250.215 276.667C250.288 277.379 250.622 278.039 251.154 278.519C251.685 278.998 252.376 279.263 253.091 279.263H311.995C312.383 279.263 312.767 279.186 313.124 279.035C313.481 278.884 313.804 278.663 314.075 278.385C314.345 278.107 314.556 277.777 314.697 277.416C314.838 277.055 314.904 276.669 314.893 276.281Z" fill="#540494"/>
<path d="M207.835 240.644C198.132 240.645 188.785 244.296 181.65 250.871C174.515 257.446 170.114 266.464 169.321 276.134C169.289 276.534 169.34 276.935 169.471 277.314C169.602 277.693 169.809 278.041 170.081 278.337C170.352 278.632 170.681 278.867 171.048 279.029C171.415 279.191 171.811 279.276 172.212 279.277H243.465C243.866 279.277 244.262 279.193 244.629 279.031C244.996 278.87 245.325 278.634 245.597 278.338C245.868 278.043 246.074 277.695 246.204 277.315C246.333 276.936 246.383 276.533 246.349 276.134C245.559 266.463 241.159 257.443 234.023 250.867C226.887 244.292 217.538 240.642 207.835 240.644Z" fill="#F8F2FF"/>
<path d="M212.122 258.859C211.493 257.816 210.59 256.966 209.511 256.401C208.432 255.835 207.219 255.576 206.004 255.653L186.575 221.405C186.481 221.24 186.371 221.085 186.245 220.942L170.626 202.902C170.571 202.836 170.493 202.792 170.407 202.777C170.321 202.763 170.233 202.78 170.159 202.825C170.084 202.869 170.028 202.939 170.001 203.022C169.973 203.104 169.976 203.194 170.009 203.274L178.864 225.292C178.934 225.457 179.016 225.616 179.109 225.769L200.468 259.252C199.931 260.288 199.675 261.447 199.725 262.613C199.774 263.779 200.128 264.911 200.752 265.898C201.375 266.885 202.245 267.691 203.277 268.237C204.308 268.783 205.464 269.05 206.631 269.011C207.797 268.971 208.933 268.627 209.925 268.013C210.917 267.399 211.731 266.536 212.286 265.509C212.842 264.483 213.119 263.329 213.09 262.162C213.061 260.996 212.727 259.857 212.122 258.859Z" fill="#315782"/>
<path d="M306.964 268.008L307.119 272.983L312.416 272.106L312.395 267.98L306.964 268.008Z" fill="white"/>
<path d="M312.409 272.106C306.936 272.022 305.14 272.015 298.278 275.467C298.077 275.577 297.919 275.752 297.829 275.962C297.738 276.173 297.721 276.408 297.78 276.629C297.839 276.85 297.971 277.046 298.154 277.184C298.337 277.321 298.561 277.394 298.79 277.39L311.42 277.326C313.237 277.432 312.409 272.106 312.409 272.106Z" fill="#2F526E"/>
<path d="M331.473 267.672L331.599 272.66L336.911 273.067L336.883 267.952L331.473 267.672Z" fill="white"/>
<path d="M334.013 272.085C333.311 272.085 331.122 272.232 329.986 273.369C328.512 274.829 328.709 277.354 329.284 277.354L338.651 277.39C339.1 277.425 338.953 275.207 337.907 273.797C336.981 272.527 336.202 272.078 334.013 272.085Z" fill="#315780"/>
<path d="M332.427 206.228C332.989 210.073 335.43 227.593 335.157 241.311C335.157 241.353 335.157 241.395 335.157 241.437L338.349 268.801C338.365 268.937 338.352 269.074 338.311 269.205C338.27 269.335 338.202 269.455 338.111 269.557C338.02 269.659 337.909 269.741 337.784 269.797C337.66 269.853 337.525 269.882 337.388 269.882H331.171C330.953 269.881 330.741 269.807 330.57 269.67C330.4 269.534 330.28 269.344 330.231 269.131C329.158 264.486 323.397 239.662 322.969 236.343C322.499 232.701 322.022 227.797 322.022 227.797L318.114 243.872C318.117 243.895 318.117 243.919 318.114 243.942L313.728 269.405C313.69 269.631 313.572 269.836 313.395 269.982C313.219 270.129 312.996 270.208 312.767 270.205L306.242 270.099C306.11 270.098 305.981 270.069 305.861 270.016C305.741 269.962 305.634 269.885 305.545 269.788C305.456 269.692 305.388 269.578 305.345 269.454C305.302 269.33 305.285 269.199 305.294 269.068L307.364 240.146C307.361 240.123 307.361 240.099 307.364 240.076L312.606 205.077C312.639 204.837 312.763 204.618 312.952 204.465C313.141 204.313 313.381 204.238 313.623 204.256L331.578 205.414C331.79 205.437 331.988 205.529 332.142 205.676C332.295 205.823 332.396 206.017 332.427 206.228Z" fill="#315782"/>
<path d="M322.043 227.769L319.587 208.249" stroke="#264154" stroke-width="0.350826" stroke-miterlimit="10" stroke-linecap="round"/>
<path d="M320.45 226.225L315.16 243.591L311.567 267.98" stroke="#264154" stroke-width="0.350826" stroke-miterlimit="10" stroke-linecap="round"/>
<path d="M331.256 213.904L333.01 241.184L336.609 267.98" stroke="#264154" stroke-width="0.350826" stroke-miterlimit="10" stroke-linecap="round"/>
<path d="M316.907 209.68C316.907 209.68 317.847 216.283 320.45 216.191" stroke="#264154" stroke-width="0.350826" stroke-miterlimit="10" stroke-linecap="round"/>
<path d="M326.379 208.249C327.158 211.152 328.54 213.858 330.435 216.191" stroke="#264154" stroke-width="0.350826" stroke-miterlimit="10" stroke-linecap="round"/>
<path d="M331.957 192.272C331.957 191.935 331.733 188.981 332.076 188.967L337.514 189.718C337.732 186.827 336.771 173.033 329.796 172.324C324.821 171.819 322.345 172.163 318.443 172.324C317.046 172.377 315.68 172.749 314.45 173.413C313.22 174.078 312.159 175.016 311.35 176.155C309.308 179.025 306.733 183.095 305.926 186.364C304.719 191.227 309.995 193.381 311.539 193.914C311.663 193.956 311.77 194.035 311.847 194.141C311.923 194.246 311.965 194.373 311.967 194.503L312.009 205.386C312.01 205.513 312.036 205.639 312.086 205.756C312.135 205.873 312.207 205.979 312.298 206.069C312.388 206.158 312.496 206.229 312.613 206.276C312.731 206.324 312.857 206.348 312.985 206.347L331.929 206.158C332.01 206.153 332.09 206.133 332.163 206.098C332.236 206.062 332.302 206.013 332.356 205.953C332.41 205.892 332.451 205.821 332.478 205.744C332.505 205.668 332.516 205.586 332.511 205.505L331.957 192.272Z" fill="#B571FF"/>
<path d="M318.857 170.577V172.787C319.046 173.704 319.549 174.525 320.279 175.11C321.01 175.694 321.921 176.004 322.857 175.987C326.365 176.071 326.632 172.275 326.632 172.275L325.586 168.886V165.139L326.947 159.4L312.704 154.488C312.704 154.488 311.82 162.908 312.704 165.855C313.588 168.802 315.812 171.763 318.857 170.577Z" fill="white"/>
<path d="M312.353 156.719C312.353 156.719 317.658 155.239 319.124 158.782C320.59 162.326 320.527 161.512 321.138 160.838C321.748 160.165 323.874 160.354 323.636 162.241C323.327 164.606 322.808 166.585 325.586 168.914C325.628 166.602 326.319 164.349 327.579 162.41C329.635 159.4 329.347 152.587 322.485 151.478C315.623 150.37 319.285 148.749 313.876 149.591C308.466 150.433 308.803 156.418 312.353 156.719Z" fill="#315782"/>
<path d="M314.956 180.141L313.497 186.582" stroke="#540494" stroke-width="0.350826" stroke-miterlimit="10" stroke-linecap="round"/>
<path d="M298.348 181.081L312.535 180.148C312.69 180.141 312.843 180.185 312.97 180.274C313.097 180.363 313.191 180.491 313.237 180.639L319.461 202.86C319.483 202.957 319.485 203.057 319.465 203.155C319.446 203.252 319.406 203.345 319.348 203.426C319.291 203.507 319.216 203.574 319.131 203.624C319.045 203.674 318.949 203.706 318.85 203.716L304.642 204.572C304.487 204.579 304.334 204.535 304.207 204.446C304.081 204.357 303.987 204.229 303.94 204.081L297.766 181.937C297.743 181.842 297.741 181.744 297.758 181.648C297.776 181.552 297.814 181.461 297.868 181.381C297.923 181.3 297.994 181.232 298.077 181.18C298.159 181.129 298.252 181.095 298.348 181.081Z" fill="#315782"/>
<path d="M331.361 186.694L331.606 190.525L317.819 190.813C317.819 190.813 317.419 188.778 316.289 187.817C315.16 186.855 314.661 186.94 314.591 187.311C314.521 187.683 315.686 189.002 315.426 189.662C315.307 191.325 309.89 187.01 309.673 188.104C309.182 188.49 310.143 189.508 310.143 189.508C309.56 189.55 309.006 190.539 309.736 190.911C309.132 191.1 309.161 192.314 309.792 192.49C308.297 193.893 313.511 197.198 317.44 194.595C317.44 194.595 334.111 196.994 335.43 195.851C336.749 194.707 336.799 188.308 336.799 188.308L331.361 186.694Z" fill="white"/>
<path d="M329.803 177.194L330.603 188.729L337.514 189.718C337.76 189.718 336.897 187.718 336.813 187.48L335.76 185.157L329.803 177.194Z" fill="#B571FF"/>
<path d="M299.169 192.588C298.916 191.774 298.881 190.574 299.674 190.111C301.232 189.206 301.604 188.827 302.151 189.136C302.698 189.444 302.151 190.237 302.151 190.237C302.74 190.237 303.407 191.128 302.726 191.599C303.351 191.711 303.47 192.953 302.867 193.17C303.744 193.816 302.79 195.275 300.874 195.43C299.548 195.549 299.358 193.276 299.169 192.588Z" fill="white"/>
<path d="M331.613 190.378L329.803 180.365" stroke="#540494" stroke-width="0.350826" stroke-miterlimit="10" stroke-linecap="round"/>
<path d="M314.444 204.572L330.442 204.249" stroke="#540494" stroke-width="0.350826" stroke-miterlimit="10" stroke-linecap="round"/>
<rect x="1" y="1" width="438" height="646" rx="27" stroke="white" stroke-width="2"/>
</svg>
