<svg width="352" height="522" viewBox="0 0 352 522" fill="none" xmlns="http://www.w3.org/2000/svg">
<path d="M54.3023 156.763C57.3167 157.461 60.4847 156.932 63.1094 155.293C65.7341 153.653 67.6006 151.038 68.2982 148.022C68.9337 145.326 68.5803 142.491 67.3025 140.033C72.0555 140.654 76.9211 138.999 79.0816 134.244C80.0796 131.929 80.1948 129.329 79.4055 126.935C78.6161 124.541 76.9769 122.52 74.7983 121.255C76.7059 122.646 78.0923 124.638 78.7359 126.91C79.3795 129.183 79.2433 131.606 78.3489 133.792C77.5502 135.488 76.2631 136.906 74.6529 137.864C73.0426 138.822 71.1829 139.276 69.3126 139.169C70.9764 138.584 72.5021 137.663 73.7949 136.464C75.0877 135.264 76.1199 133.811 76.8272 132.195C77.5702 130.367 77.7562 128.36 77.3618 126.427C76.9673 124.493 76.01 122.72 74.6104 121.33C76.306 119.779 77.6155 117.853 78.4342 115.705C79.253 113.557 79.5583 111.248 79.3258 108.961C79.0381 107.037 78.1978 105.238 76.907 103.783C75.6163 102.328 73.9307 101.28 72.0555 100.765C73.2668 98.9605 73.9309 96.8437 73.9678 94.6698C74.0047 92.496 73.4129 90.3578 72.2636 88.5127C71.1143 86.6676 69.4565 85.1941 67.4897 84.2698C65.523 83.3455 63.3312 83.0096 61.1781 83.3027C61.7703 82.2181 62.1428 81.0272 62.2745 79.7984C62.4061 78.5695 62.2942 77.3268 61.9452 76.1412C61.5962 74.9557 61.0169 73.8507 60.2406 72.8894C59.4642 71.9281 58.506 71.1295 57.4208 70.5393C56.2647 69.8926 54.9835 69.5016 53.6635 69.3926C54.0321 68.2422 54.0654 67.0105 53.7592 65.842C53.4531 64.6734 52.8204 63.6163 51.9352 62.7947C50.8651 61.8994 49.6289 61.2244 48.2974 60.8083C46.966 60.3921 45.5655 60.2431 44.1764 60.3699C43.886 59.138 43.2895 57.9995 42.4422 57.0597C41.5949 56.1199 40.5243 55.4093 39.3295 54.9938C37.7741 54.5147 36.0993 54.603 34.603 55.2432C33.1066 55.8834 31.8857 57.0339 31.1574 58.4901C27.4001 55.8961 23.0416 53.6216 18.4202 54.2043C16.4987 54.3715 14.6694 55.103 13.162 56.307C11.6545 57.5109 10.5362 59.1336 9.94746 60.9714C6.74528 59.324 3.0209 59.0142 -0.409162 60.1101C-3.83922 61.206 -6.69505 63.618 -8.35054 66.8174C-8.59664 67.3064 -8.81613 67.8084 -9.00806 68.3212C-10.6575 68.0436 -12.3509 68.203 -13.9197 68.7834C-15.4885 69.3638 -16.8782 70.345 -17.9504 71.6295C-19.5223 73.3218 -20.6404 75.3846 -21.2005 77.6259C-22.6916 77.471 -24.1936 77.791 -25.4923 78.5403C-26.791 79.2896 -27.8202 80.43 -28.4333 81.7989C-28.9733 83.0905 -29.2182 84.4865 -29.1499 85.885C-29.0817 87.2834 -28.702 88.6489 -28.0387 89.8818C-28.1549 90.6858 -28.4432 91.4553 -28.8841 92.1375C-30.0135 93.846 -30.7039 95.8071 -30.8939 97.8467C-31.084 99.8864 -30.7679 101.941 -29.9737 103.829C-31.6871 105.285 -32.7539 107.36 -32.9406 109.601C-33.1272 111.842 -32.4184 114.066 -30.9694 115.785C-30.7397 116.049 -30.4951 116.3 -30.2368 116.536C-30.9161 117.594 -31.3803 118.774 -31.6026 120.011C-31.8249 121.248 -31.8009 122.517 -31.5322 123.745C-31.2634 124.972 -30.755 126.135 -30.0363 127.166C-29.3175 128.196 -28.4025 129.075 -27.3436 129.751C-28.2734 131.512 -28.8134 133.452 -28.9269 135.441C-29.0403 137.429 -28.7246 139.418 -28.0012 141.274C-26.8552 144.15 -24.2439 146.913 -21.1629 146.913C-21.4703 148.068 -21.346 149.295 -20.8133 150.364C-20.2806 151.434 -19.3762 152.272 -18.2698 152.721C-17.4509 153.09 -16.5941 153.367 -15.7148 153.549C-14.5657 153.647 -13.4414 153.94 -12.3896 154.413C-11.4503 155.015 -11.1121 156.293 -10.511 157.176C-10.1115 157.858 -9.63218 158.489 -9.08321 159.056C-7.04927 161.079 -4.38768 162.348 -1.53652 162.656C1.31465 162.963 4.18548 162.29 6.60348 160.748C8.78271 164.244 13.2351 164.977 17.1051 164.395C18.3843 164.182 19.6417 163.855 20.8624 163.417C21.9111 162.971 23.0705 162.853 24.1876 163.079C24.9203 163.267 25.5966 163.624 26.3105 163.812C27.4857 164.028 28.6928 163.999 29.8564 163.727C31.0199 163.455 32.1151 162.947 33.0736 162.233C39.104 171.105 51.8037 166.537 54.3023 156.763ZM-28.0763 83.4531C-27.6537 81.9494 -26.7737 80.6148 -25.5583 79.6345C-24.3429 78.6542 -22.8526 78.077 -21.2944 77.983V78.359C-21.2944 78.359 -22.2713 78.7349 -22.741 78.9605C-24.3893 79.8259 -25.7543 81.1471 -26.6736 82.7668C-27.5928 84.3864 -28.0276 86.2362 -27.926 88.096V88.3968C-28.4349 86.7885 -28.487 85.0704 -28.0763 83.4343V83.4531ZM39.9119 57.5503C38.5698 56.909 37.0624 56.6985 35.5962 56.9475C34.1299 57.1965 32.7764 57.8929 31.721 58.9413L31.5143 58.8097C33.393 56.2908 35.7225 54.5239 39.1416 55.6705C40.1872 56.0416 41.1182 56.6787 41.8429 57.5192C42.5676 58.3597 43.0611 59.3746 43.2746 60.4639C42.4517 59.1893 41.2862 58.1729 39.9119 57.5315V57.5503ZM33.299 161.707C35.9008 163.907 39.2542 165.011 42.6532 164.786C46.0522 164.562 49.2316 163.027 51.5219 160.504C46.9568 166.406 39.4798 168.85 33.299 161.707Z" fill="#263238"/>
<path d="M27.9446 147.496C-20.2615 178.418 -106.022 269.171 -98.0561 292.631C-81.9749 339.925 -18.1574 402.802 -1.43744 414.926C8.29394 421.975 79.3443 357.444 70.045 348.572C59.2052 338.195 -7.56183 282.461 -8.05028 276.634C-8.426 272.198 25.2581 222.535 49.6805 180.504C78.048 131.744 50.9204 132.74 27.9446 147.496Z" fill="#F7A9A0"/>
<path d="M-16.0724 394.794C-15.321 396.373 -4.44363 418.309 3.87876 429.832C10.0971 438.422 28.6205 462.709 38.7652 456.806C45.6786 452.784 36.4732 437.238 30.1986 426.091C26.8922 420.208 24.8444 410.358 28.752 408.328C35.5903 404.794 43.7812 420.189 48.4026 431.505C57.1947 453.366 65.5171 486.901 81.6171 486.356C87.7039 486.168 87.779 477.201 85.7877 466.788C90.9915 481.186 97.7734 494.984 104.574 494.984C108.463 494.984 110.548 492.578 111.469 488.611C113.817 492.108 116.767 494.081 120.317 493.536C126.348 492.653 128.733 486.262 129.203 478.179C129.882 478.595 130.649 478.845 131.443 478.907C132.236 478.969 133.033 478.842 133.768 478.536C149.154 473.31 138.014 415.038 128.132 402.651C98.9945 366.184 58.491 339.529 58.491 339.529C35.6842 339.792 -16.0724 394.794 -16.0724 394.794Z" fill="#F7A9A0"/>
<path d="M62.6993 402.538C70.2519 410.474 75.9498 419.989 79.3817 430.396C83.2705 442.652 83.7777 455.678 86.4266 468.197C86.4319 468.232 86.4303 468.267 86.4218 468.301C86.4133 468.335 86.3981 468.367 86.3771 468.395C86.3561 468.423 86.3297 468.447 86.2995 468.464C86.2693 468.482 86.2359 468.494 86.2012 468.498C86.1677 468.506 86.1329 468.507 86.099 468.501C86.0651 468.495 86.0329 468.482 86.0046 468.462C85.9762 468.443 85.9522 468.417 85.9343 468.388C85.9164 468.359 85.9049 468.326 85.9006 468.291C84.8861 462.107 83.2517 455.979 81.993 449.832C80.7343 443.686 79.7199 437.746 78.0667 431.825C75.1758 421.047 69.869 411.07 62.5491 402.651C62.5491 402.651 62.6054 402.444 62.6993 402.538Z" fill="#263238"/>
<path d="M81.223 392.557C88.6249 402.482 96.2522 412.614 101.494 423.893C107.242 436.224 108.52 450.021 109.891 463.367C110.73 471.412 111.357 479.47 111.77 487.541C111.77 487.879 111.263 487.973 111.244 487.635C109.991 473.85 108.282 460.165 106.115 446.581C104.207 433.947 99.8342 421.812 93.2464 410.866C89.4891 404.625 85.2058 398.667 80.96 392.708C80.9788 392.576 81.1479 392.445 81.223 392.557Z" fill="#263238"/>
<path d="M101.644 387.125C109.327 396.148 116.034 404.043 120.299 415.208C125.935 430.058 127.813 449.044 128.377 455.792C129.034 463.198 129.448 470.623 129.767 478.067C129.767 478.368 129.241 478.386 129.222 478.067C128.203 461.469 126.107 444.955 122.948 428.63C121.554 420.842 118.969 413.316 115.283 406.317C111.282 399.55 106.713 393.136 101.625 387.144C101.625 387.144 101.606 387.088 101.644 387.125Z" fill="#263238"/>
<path d="M54.0014 332.763L-15.9781 413.366C-15.9781 413.366 -105.27 318.928 -101.907 286.86C-98.5446 254.791 -20.8626 175.297 22.4401 148.003C65.7429 120.709 70.9843 145.898 52.9493 180.504C34.9144 215.11 -5.28865 276.615 -4.40569 278.25C-3.52273 279.886 54.0014 332.763 54.0014 332.763Z" fill="#E1D172"/>
<path opacity="0.1" d="M52.9497 180.504C34.9147 215.11 -5.28827 276.596 -4.40531 278.251C-3.52235 279.905 54.0018 332.763 54.0018 332.763L-15.959 413.385C-15.959 413.385 -59.2805 367.557 -84.4731 329.004L30.406 143.417C66.3257 124.112 69.8387 148.154 52.9497 180.504Z" fill="black"/>
<path d="M4.89314 358.778C9.9279 353.496 14.8499 348.101 19.7532 342.706C22.1203 340.112 24.5062 337.537 26.7793 334.868C29.0525 332.199 31.9644 329.229 34.2939 326.221C34.3192 326.209 34.3417 326.191 34.3599 326.169C34.3782 326.148 34.3918 326.123 34.3999 326.096C34.4081 326.069 34.4106 326.04 34.4073 326.012C34.4041 325.984 34.3951 325.957 34.3809 325.932C34.3668 325.908 34.3478 325.887 34.325 325.87C34.3023 325.853 34.2764 325.841 34.2489 325.834C34.2214 325.828 34.1928 325.827 34.165 325.832C34.1372 325.838 34.1108 325.848 34.0873 325.864C31.1754 328.251 28.5641 331.127 25.8212 333.721C23.0784 336.315 20.8428 338.646 18.3067 341.127C13.1592 346.316 8.03047 351.485 3.01449 356.786C-7.03626 367.425 -16.7301 378.29 -26.3487 389.305C-26.3824 389.37 -26.3895 389.446 -26.3685 389.516C-26.3474 389.586 -26.2999 389.645 -26.236 389.681C-26.1939 389.708 -26.145 389.722 -26.0951 389.722C-26.0452 389.722 -25.9964 389.708 -25.9542 389.681C-15.5277 379.606 -5.1764 369.361 4.89314 358.778Z" fill="#263238"/>
<path d="M164.973 531H26.5541C26.0844 528.725 25.6336 526.451 25.1827 524.139C24.9572 522.936 24.713 521.751 24.4688 520.548L23.0598 513.499C22.8344 512.315 22.5901 511.131 22.3647 509.965C22.1393 508.8 21.895 507.616 21.6696 506.45C21.1999 504.082 20.7491 501.751 20.2794 499.439L20.054 498.236C19.7534 496.77 19.4528 495.303 19.171 493.837C18.8892 492.371 18.4571 490.341 18.119 488.593C17.6869 486.45 17.2736 484.326 16.8603 482.202C16.447 480.078 15.921 477.596 15.4889 475.303C14.5871 470.867 13.7229 466.487 12.8588 462.145C12.4079 459.964 11.9946 457.784 11.5813 455.622C10.5105 450.284 9.47722 445.039 8.44396 439.945C8.23731 438.93 8.03066 437.915 7.8428 436.9C7.65493 435.885 7.44828 434.889 7.24163 433.892C6.65925 430.885 6.07687 427.952 5.49449 425.058V424.663C4.94968 421.9 4.42366 419.212 3.87885 416.561C3.6722 415.64 3.50312 414.681 3.33405 413.817L1.4554 403.892C1.47587 403.664 1.4302 403.436 1.3239 403.234C0.910595 401.072 0.478496 398.967 0.0651938 396.918C-0.348108 394.869 -0.836554 392.35 -1.26864 390.17C-2.88428 382.049 -4.31204 374.906 -5.51437 368.91C-6.22825 365.15 -6.85447 361.917 -7.39301 359.21C-7.44857 359.02 -7.48632 358.825 -7.50574 358.628C-7.73118 357.387 -7.9754 356.259 -8.18205 355.225C-8.21741 354.895 -8.28024 354.568 -8.36992 354.248C-8.63293 352.857 -8.85835 351.691 -9.06501 350.789C-9.0838 350.665 -9.0838 350.538 -9.06501 350.413C-9.15979 349.748 -9.29151 349.09 -9.45953 348.439H120.956V348.721C122.102 354.361 143.349 440.133 164.973 531Z" fill="#37474F"/>
<path d="M48.8729 531H44.2515C32.773 476.206 20.8811 421.543 11.131 366.317C10.9431 365.264 12.5212 364.756 12.7278 365.828C22.121 412.145 34.8019 457.521 43.7067 503.951C45.4601 512.974 47.1822 521.99 48.8729 531Z" fill="#263238"/>
<path d="M105.082 348.44L101.325 376.899L99.446 391.261L91.7623 448.273L90.2218 459.552L88.005 476.131L87.8923 476.996L87.5541 479.402L80.6032 530.944H26.686C26.2164 528.669 25.7655 526.395 25.3146 524.083C25.0892 522.88 24.8262 521.696 24.6007 520.493L23.1918 513.444C22.9663 512.241 22.7221 511.075 22.4967 509.91C22.2712 508.744 22.027 507.56 21.8016 506.395C21.3319 504.045 20.8622 501.714 20.4114 499.383L20.1859 498.18C19.8854 496.714 19.5848 495.248 19.303 493.782C19.0212 492.315 18.5891 490.285 18.2509 488.537C17.8188 486.394 17.3867 484.27 16.9922 482.146C16.5977 480.022 16.0529 477.541 15.6208 475.247C14.7191 470.811 13.8549 466.431 12.9907 462.089C12.5398 459.909 12.1265 457.728 11.7132 455.566C10.6424 450.228 9.59038 444.984 8.57591 439.889C8.36926 438.874 8.16261 437.859 7.97475 436.844C7.78688 435.829 7.56144 434.833 7.37358 433.837C6.7912 430.829 6.20882 427.897 5.62644 425.002V424.607C5.04406 421.844 4.53682 419.156 4.0108 416.505C3.80415 415.584 3.63507 414.626 3.466 413.761C2.76463 410.34 2.1071 407.032 1.49341 403.836C1.51388 403.609 1.46821 403.38 1.36191 403.178L0.0844288 396.881C-0.366446 394.569 -0.817319 392.313 -1.24941 390.133C-2.86504 382.012 -4.29281 374.851 -5.47636 368.854C-6.20903 365.095 -6.86655 361.899 -7.355 359.155C-7.41056 358.964 -7.44829 358.769 -7.46772 358.572C-7.71194 357.331 -7.95617 356.204 -8.14403 355.17C-8.17938 354.839 -8.24222 354.512 -8.33189 354.192L-9.027 350.733C-9.04579 350.609 -9.04579 350.482 -9.027 350.357L-9.42151 348.384L105.082 348.44Z" fill="#263238"/>
<path d="M120.787 348.327V348.722C119.848 354.831 108.595 427.671 89.8459 475.435L89.5077 476.375C88.9168 476.525 88.3483 476.753 87.817 477.052C85.9383 477.954 82.0683 479.928 74.5162 484.044C73.9714 484.364 73.389 484.665 72.8066 484.984L69.7256 486.676V487.315C69.5378 490.718 68.5984 507.203 67.1519 531H-77.3347C-75.6439 514.966 -73.9531 499.609 -72.2436 485.454C-72.2436 485.454 -95.2758 430.829 -52.1609 348.233L120.787 348.327Z" fill="#37474F"/>
<path d="M95.9137 473.199C80.3052 478.87 65.2192 485.889 50.8262 494.176C50.2626 494.496 50.6384 495.379 51.2395 495.116C66.4002 488.594 81.8614 482.353 96.6464 475.022C96.8955 474.925 97.0958 474.732 97.2033 474.487C97.3107 474.242 97.3165 473.965 97.2194 473.715C97.1222 473.466 96.9301 473.266 96.6852 473.158C96.4403 473.051 96.1628 473.045 95.9137 473.142V473.199Z" fill="#263238"/>
<path d="M100.723 369.098C100.723 368.572 99.7648 368.459 99.7648 369.098C99.7843 386.048 98.9378 402.988 97.2286 419.851C96.5335 427.671 90.2401 470.849 76.695 467.709C74.4219 467.183 73.2759 464.946 72.9377 461.525C72.5057 457.408 74.0461 452.371 74.8164 448.273C76.3193 439.231 77.5216 430.171 78.2919 421.035C79.8679 404.032 79.6853 386.91 77.7471 369.944C77.726 369.843 77.6706 369.751 77.5902 369.686C77.5098 369.62 77.4093 369.585 77.3056 369.585C77.2019 369.585 77.1014 369.62 77.021 369.686C76.9405 369.751 76.8852 369.843 76.8641 369.944C76.8641 393.554 76.2817 417.107 72.7499 440.491C71.0591 451.769 65.4044 468.687 77.1459 470.36C88.8874 472.033 96.8341 443.78 98.2994 436.036C102.282 414.325 102.432 391.035 100.723 369.098Z" fill="#263238"/>
<path d="M77.0519 468.744C75.8808 471.661 74.8956 474.65 74.1024 477.691C73.2358 480.043 72.8092 482.535 72.8437 485.041C72.864 485.141 72.9129 485.233 72.9843 485.305C73.0558 485.378 73.1467 485.428 73.2462 485.45C73.3456 485.472 73.4493 485.465 73.5446 485.429C73.6399 485.393 73.7228 485.33 73.7831 485.248C75.1887 483.035 76.2467 480.62 76.9204 478.086C77.9537 475.323 79.0433 472.56 80.0014 469.778C80.1384 469.386 80.1144 468.957 79.9348 468.583C79.7551 468.209 79.4344 467.922 79.0433 467.785C78.6521 467.648 78.2226 467.672 77.8491 467.852C77.4757 468.032 77.1889 468.353 77.0519 468.744Z" fill="#263238"/>
<path d="M10.1167 364.06C7.35509 371.391 4.18018 378.572 0.72347 385.64C-2.28236 391.937 -5.58877 398.365 -10.8114 403.14C-15.898 407.401 -21.8947 410.437 -28.3392 412.012C-32.0436 413.064 -35.8076 413.892 -39.611 414.494C-43.4975 414.902 -47.3473 415.606 -51.1271 416.599C-51.2235 416.631 -51.3126 416.681 -51.3894 416.748C-51.4662 416.814 -51.529 416.895 -51.5744 416.986C-51.6198 417.077 -51.6468 417.176 -51.6539 417.277C-51.661 417.378 -51.6479 417.48 -51.6156 417.576C-51.5765 417.69 -51.5123 417.792 -51.4276 417.877C-51.343 417.962 -51.2403 418.026 -51.1271 418.065C-47.0298 418.685 -42.8719 418.799 -38.7469 418.404C-34.7589 418.191 -30.7947 417.656 -26.8926 416.806C-19.7776 415.223 -13.1828 411.852 -7.73043 407.012C-2.0945 401.843 1.09919 394.85 3.97352 387.895C7.08165 380.281 9.43499 372.379 10.9997 364.305C10.9724 364.175 10.8973 364.06 10.7893 363.984C10.6814 363.907 10.5485 363.874 10.4173 363.891C10.2998 363.909 10.193 363.969 10.1167 364.06Z" fill="#263238"/>
<path d="M67.9033 528.631C67.9282 529.423 67.8778 530.216 67.753 530.999H63.7891C64.0145 528.462 64.24 525.943 64.4842 523.48C65.029 517.634 67.1143 495.416 68.4857 487.878C68.5104 487.462 68.5926 487.05 68.7299 486.656C68.7762 486.538 68.8669 486.442 68.9827 486.389C69.0985 486.337 69.2302 486.331 69.3499 486.374C69.4327 486.401 69.5064 486.451 69.5628 486.517C69.6192 486.584 69.6561 486.664 69.6692 486.75V487.352C70.045 495.19 68.3542 521.902 67.9033 528.631Z" fill="#263238"/>
<path d="M69.7068 487.278V486.676C69.6896 486.57 69.6378 486.472 69.5594 486.398C69.481 486.325 69.3804 486.279 69.2732 486.268C69.1661 486.257 69.0585 486.282 68.967 486.339C68.8755 486.396 68.8054 486.481 68.7675 486.582C68.7116 486.994 68.63 487.402 68.5233 487.804C67.1518 495.323 65.0665 517.56 64.5217 523.406C64.2775 525.944 64.0521 528.463 63.8266 530.925H67.7906C67.7657 530.133 67.8161 529.34 67.9409 528.557C68.3542 521.903 70.045 495.192 69.7068 487.278ZM10.0974 364.08C7.35459 371.392 4.1609 378.554 0.81691 385.622C0.103025 387.144 -0.648428 388.686 -1.43746 390.208C-3.73376 395.029 -6.86999 399.402 -10.6992 403.122C-15.7858 407.383 -21.7825 410.419 -28.2269 411.994C-31.9314 413.046 -35.6954 413.874 -39.4988 414.476C-43.3866 414.875 -47.237 415.579 -51.0149 416.581C-51.1113 416.613 -51.2004 416.663 -51.2772 416.73C-51.3539 416.796 -51.4168 416.877 -51.4622 416.968C-51.5076 417.059 -51.5346 417.158 -51.5417 417.259C-51.5487 417.36 -51.5357 417.462 -51.5033 417.558C-51.4643 417.671 -51.4 417.774 -51.3154 417.859C-51.2308 417.944 -51.128 418.008 -51.0149 418.047C-46.9176 418.667 -42.7596 418.781 -38.6346 418.385C-34.645 418.191 -30.6792 417.657 -26.7804 416.788C-19.6683 415.212 -13.0779 411.84 -7.63699 406.994C-4.57636 404.103 -2.03457 400.708 -0.122413 396.956C1.42356 394.011 2.81563 390.986 4.04818 387.896C7.16475 380.284 9.51833 372.382 11.0743 364.305C11.0794 364.239 11.0713 364.172 11.0505 364.108C11.0296 364.045 10.9964 363.986 10.9527 363.935C10.9091 363.884 10.8559 363.843 10.7961 363.813C10.7364 363.783 10.6713 363.765 10.6046 363.76C10.4966 363.749 10.3881 363.775 10.2963 363.833C10.2044 363.891 10.1345 363.978 10.0974 364.08ZM77.0523 468.744C76.8645 469.214 76.6578 469.683 76.4887 470.153C75.5301 472.614 74.7023 475.124 74.0089 477.672C73.4655 479.342 73.051 481.052 72.769 482.785C72.6939 483.516 72.6939 484.253 72.769 484.985C72.769 485.473 73.4453 485.511 73.7083 485.172C74.0101 484.809 74.2686 484.412 74.4786 483.988C74.9736 483.157 75.3768 482.275 75.6809 481.357C76.0942 480.229 76.4511 479.101 76.8644 478.029C77.8413 475.379 78.8746 472.766 79.7951 470.097L79.9078 469.721C79.972 469.533 79.9986 469.335 79.9861 469.137C79.9736 468.939 79.9223 468.746 79.8351 468.568C79.7478 468.39 79.6264 468.231 79.4777 468.099C79.3291 467.968 79.156 467.868 78.9685 467.804C78.781 467.74 78.5827 467.713 78.385 467.725C78.1872 467.738 77.9938 467.789 77.8159 467.877C77.6379 467.964 77.4789 468.085 77.3479 468.234C77.2169 468.383 77.1165 468.556 77.0523 468.744ZM101.249 376.9C101.099 374.268 100.93 371.693 100.742 369.099C100.742 368.572 99.7651 368.46 99.7651 369.099C99.7651 376.824 99.6524 384.137 99.3142 391.336C98.8446 400.904 98.1119 410.133 97.2289 419.776C96.1707 429.444 94.2851 439.003 91.593 448.348C88.249 459.533 83.3458 469.214 76.5639 467.653C74.2907 467.127 73.1447 464.89 72.8066 461.45C72.3933 457.352 73.915 452.296 74.6852 448.292C76.1693 439.25 77.3905 430.171 78.1607 421.055C79.7456 404.051 79.563 386.929 77.6159 369.963C77.5948 369.862 77.5394 369.771 77.459 369.705C77.3786 369.64 77.2781 369.604 77.1744 369.604C77.0707 369.604 76.9702 369.64 76.8898 369.705C76.8094 369.771 76.754 369.862 76.7329 369.963C76.7329 393.573 76.1318 417.126 72.6187 440.51C70.9467 451.544 65.4611 468.086 76.376 470.266C76.5598 470.322 76.7485 470.36 76.9396 470.379C77.8467 470.51 78.7704 470.472 79.6636 470.266C83.6839 469.308 87.1782 465.041 89.9774 459.721C93.7135 452.258 96.4426 444.331 98.0931 436.149C101.499 416.627 102.558 396.767 101.249 376.994V376.9ZM95.9139 473.199C93.8662 473.913 91.8185 474.646 89.7895 475.435L87.9109 476.187C83.7967 477.804 79.7388 479.571 75.6997 481.413L72.8066 482.785C65.292 486.357 58.078 490.304 50.9391 494.176C50.8146 494.231 50.7169 494.333 50.6676 494.46C50.6182 494.587 50.6213 494.729 50.6761 494.853C50.7309 494.978 50.833 495.076 50.9598 495.125C51.0866 495.174 51.2279 495.171 51.3524 495.116C56.9884 492.654 62.8122 490.248 68.5233 487.804L69.6692 487.315C75.6057 484.797 81.5423 482.203 87.3849 479.496C90.5285 478.055 93.6595 476.576 96.7781 475.06C97.0272 474.957 97.2255 474.76 97.3295 474.512C97.4334 474.263 97.4344 473.984 97.3323 473.734C97.2301 473.485 97.0332 473.287 96.7848 473.183C96.5364 473.079 96.257 473.078 96.0078 473.18L95.9139 473.199ZM89.5077 476.488V476.281H89.6017C89.6291 476.294 89.6504 476.317 89.661 476.345C89.6715 476.373 89.6705 476.404 89.658 476.432C89.6456 476.459 89.6227 476.481 89.5945 476.491C89.5664 476.502 89.5351 476.501 89.5077 476.488Z" fill="#263238"/>
<path d="M119.191 293.476L121.633 348.327H-52.2545C-52.2545 348.327 -27.8321 203.587 19.9982 153.736C43.8758 128.792 71.304 131.179 88.4373 149.356C92.7769 153.943 131.646 224.189 136.606 250.994C140.889 274.716 119.191 293.476 119.191 293.476Z" fill="#E1D172"/>
<path d="M70.8716 155.729C81.8395 178.154 91.6158 201.144 100.16 224.602C104.048 236.407 108.895 248.813 106.566 261.464C104.687 273.156 96.9096 287.686 90.015 294.434C89.4514 311.766 88.7563 329.097 87.8169 346.409C87.8169 328.965 88.0424 311.54 88.3993 294.096C98.3186 282.536 105.758 267.573 105.307 252.046C104.65 242.836 101.437 233.907 98.6003 225.147C90.447 201.594 80.7345 178.605 70.8528 155.729H70.8716Z" fill="#263238"/>
<path d="M105.683 206.821C105.737 207.584 105.496 208.339 105.01 208.93C104.524 209.521 103.83 209.903 103.071 209.998C102.711 210.01 102.352 209.952 102.014 209.825C101.677 209.699 101.368 209.507 101.104 209.261C100.841 209.015 100.628 208.719 100.479 208.391C100.33 208.062 100.247 207.708 100.235 207.347V207.216C100.18 206.45 100.421 205.693 100.906 205.099C101.391 204.505 102.086 204.119 102.846 204.02C103.211 204.013 103.574 204.077 103.914 204.21C104.255 204.343 104.565 204.542 104.829 204.795C105.092 205.048 105.303 205.351 105.45 205.685C105.596 206.02 105.675 206.38 105.683 206.746V206.821Z" fill="#263238"/>
<path d="M115.433 240.656C115.487 241.421 115.247 242.178 114.762 242.773C114.276 243.367 113.582 243.753 112.822 243.851C112.462 243.861 112.103 243.8 111.766 243.671C111.43 243.543 111.122 243.349 110.86 243.101C110.598 242.853 110.388 242.556 110.241 242.227C110.094 241.898 110.014 241.543 110.004 241.182V241.051C109.95 240.287 110.191 239.532 110.676 238.941C111.162 238.35 111.856 237.968 112.615 237.874C112.973 237.861 113.33 237.919 113.665 238.045C114 238.17 114.308 238.361 114.569 238.605C114.831 238.85 115.042 239.143 115.19 239.469C115.338 239.795 115.421 240.147 115.433 240.505V240.656Z" fill="#263238"/>
<path d="M112.991 274.492C113.045 275.257 112.805 276.014 112.319 276.608C111.834 277.203 111.14 277.589 110.379 277.687C110.019 277.697 109.66 277.636 109.324 277.507C108.987 277.379 108.679 277.185 108.418 276.937C108.156 276.689 107.946 276.392 107.799 276.063C107.652 275.733 107.571 275.378 107.561 275.018V274.905C107.507 274.14 107.747 273.383 108.233 272.788C108.718 272.194 109.412 271.808 110.173 271.71C110.53 271.697 110.887 271.755 111.223 271.881C111.558 272.006 111.865 272.197 112.127 272.441C112.389 272.685 112.6 272.979 112.748 273.305C112.896 273.631 112.979 273.983 112.991 274.341V274.492Z" fill="#263238"/>
<path d="M100.404 301.166C100.458 301.931 100.218 302.688 99.7328 303.282C99.2474 303.876 98.5534 304.262 97.7928 304.361C97.4326 304.371 97.0739 304.31 96.7373 304.181C96.4007 304.052 96.0927 303.859 95.831 303.611C95.5693 303.363 95.359 303.066 95.2121 302.737C95.0652 302.407 94.9846 302.052 94.9748 301.692V301.56C94.9209 300.797 95.1617 300.042 95.6475 299.451C96.1333 298.86 96.8272 298.478 97.5862 298.384C97.9439 298.371 98.3007 298.429 98.636 298.555C98.9713 298.68 99.2786 298.871 99.5403 299.115C99.802 299.359 100.013 299.653 100.161 299.979C100.309 300.305 100.392 300.657 100.404 301.015V301.166Z" fill="#263238"/>
<path d="M100.404 331.992C100.459 332.758 100.218 333.515 99.7329 334.109C99.2475 334.703 98.5534 335.089 97.7929 335.188C97.4302 335.198 97.0691 335.136 96.7302 335.006C96.3913 334.877 96.0813 334.681 95.8179 334.432C95.5544 334.182 95.3427 333.883 95.1949 333.551C95.047 333.22 94.9659 332.862 94.9562 332.5V332.406C94.9018 331.64 95.142 330.883 95.6274 330.289C96.1129 329.695 96.8069 329.309 97.5675 329.21C97.9302 329.2 98.2913 329.262 98.6301 329.391C98.969 329.521 99.2791 329.716 99.5425 329.966C99.806 330.216 100.018 330.515 100.166 330.846C100.313 331.178 100.394 331.535 100.404 331.898V331.992Z" fill="#263238"/>
<path d="M100.986 283.627C94.0122 283.604 87.0469 284.12 80.152 285.168C76.7329 285.732 73.3513 286.446 69.9886 287.236C68.2978 287.631 66.607 287.969 64.9162 288.307C63.148 288.707 61.3367 288.884 59.5245 288.834C59.5001 288.843 59.4792 288.86 59.4645 288.882C59.4497 288.904 59.4418 288.929 59.4418 288.956C59.4418 288.982 59.4497 289.008 59.4645 289.03C59.4792 289.051 59.5001 289.068 59.5245 289.078C61.2166 289.326 62.9243 289.451 64.6345 289.454C66.2902 289.41 67.941 289.253 69.5753 288.984C73.0508 288.439 76.5075 287.743 79.9642 287.104C86.9715 285.939 93.9789 284.792 101.043 284.153C101.343 284.172 101.324 283.608 100.986 283.627Z" fill="#263238"/>
<path d="M117.499 291.409C111.863 290.282 106.168 289.472 100.441 288.984C97.567 288.759 94.7114 288.702 91.8183 288.721C90.4469 288.721 89.0755 288.721 87.7041 288.815C86.3327 288.909 84.6795 289.135 83.1766 289.172C83.0263 289.172 82.9887 289.417 83.1766 289.417C84.6043 289.417 86.0321 289.68 87.4599 289.774L91.7432 290.056C94.5987 290.244 97.3791 290.469 100.329 290.638C105.965 290.977 111.77 291.353 117.481 291.898C117.781 291.935 117.781 291.409 117.499 291.409Z" fill="#263238"/>
<path d="M48.0082 143.228C48.8912 146.65 65.8366 168.642 81.542 167.552C86.6707 167.176 85.9193 139.131 85.9193 139.131L86.3514 137.063L92.1751 107.889L57.6269 86.7986L52.6297 84.0166C52.6297 84.0166 51.5589 92.0995 50.3377 102.175C50.3017 102.654 50.2389 103.131 50.1499 103.603C50.1499 104.092 49.9808 104.713 49.9244 105.239C49.7178 106.743 49.5299 108.284 49.3608 109.825C49.2293 110.991 49.0978 112.119 48.9851 113.341C48.8724 114.562 48.7785 115.784 48.6469 117.006C47.8333 125.722 47.6199 134.483 48.0082 143.228Z" fill="#F7A9A0"/>
<path d="M50.3383 102.175C53.4548 110.255 58.2899 117.56 64.5084 123.584C70.727 129.608 78.1803 134.207 86.3519 137.063L92.1757 107.889L57.6274 86.7986L52.6302 84.0166C52.6302 84.0166 51.5594 92.1559 50.3383 102.175Z" fill="#263238"/>
<path d="M134.727 65.8407C138.484 117.891 107.806 125.992 96.5903 126.876C86.4081 127.609 51.6344 128.756 42.4666 77.4387C33.2988 26.1218 56.2746 7.88834 79.4759 4.91836C102.677 1.94837 130.913 13.7343 134.727 65.8407Z" fill="#F7A9A0"/>
<path d="M126.836 55.2951C125.625 55.2137 124.421 55.0568 123.229 54.8252C121.937 54.843 120.676 54.4333 119.641 53.6597C119.365 53.3538 119.197 52.9653 119.163 52.5543C119.129 52.1433 119.231 51.7325 119.453 51.3853C120.005 50.7659 120.712 50.3039 121.501 50.0464C122.289 49.7888 123.132 49.7449 123.943 49.9191C125.638 50.0304 127.231 50.7672 128.414 51.9868C128.754 52.3972 128.919 52.925 128.873 53.456C128.828 53.9871 128.575 54.4789 128.17 54.8252C127.804 55.1497 127.325 55.3183 126.836 55.2951Z" fill="#263238"/>
<path d="M91.6308 57.9256C92.8078 57.6468 93.9682 57.3017 95.1063 56.8918C96.3856 56.6974 97.5664 56.0902 98.4691 55.1624C98.6961 54.8133 98.8008 54.3987 98.7668 53.9836C98.7328 53.5686 98.562 53.1766 98.2812 52.8691C97.6382 52.3463 96.8675 52.0045 96.0486 51.879C95.2296 51.7534 94.3921 51.8486 93.6221 52.1548C91.966 52.534 90.5117 53.5198 89.5455 54.918C89.3483 55.2496 89.2506 55.631 89.2641 56.0166C89.2776 56.4022 89.4016 56.7759 89.6214 57.0929C89.8412 57.4099 90.1475 57.657 90.5038 57.8046C90.8601 57.9523 91.2513 57.9943 91.6308 57.9256Z" fill="#263238"/>
<path d="M100.179 67.4195C100.179 67.2879 99.9155 67.6263 99.9531 67.7579C100.423 71.3294 100.385 75.4836 97.2854 77.0062C97.1915 77.0062 97.2854 77.2317 97.2854 77.2129C101.212 76.2355 101.212 70.709 100.179 67.4195Z" fill="#263238"/>
<path d="M96.6464 63.9609C90.8601 64.1301 91.6116 75.7093 96.9657 75.5401C102.32 75.371 101.456 63.9609 96.6464 63.9609Z" fill="#263238"/>
<path d="M94.3737 64.7879C93.4156 65.5022 92.495 66.6677 91.2927 66.9308C90.0904 67.194 88.7377 66.0098 87.742 64.9007C87.742 64.7879 87.5542 64.9007 87.5542 65.0511C87.6669 67.2692 88.6626 69.4873 91.0673 69.6752C93.4719 69.8632 94.6743 67.7955 95.0876 65.5022C95.1627 65.0699 94.7682 64.4872 94.3737 64.7879Z" fill="#263238"/>
<path d="M119.979 66.4042C119.979 66.2726 120.261 66.5545 120.261 66.7049C120.355 70.2952 121.069 74.393 124.375 75.4081C124.488 75.4081 124.488 75.6149 124.375 75.6149C120.374 75.2389 119.491 69.8253 119.979 66.4042Z" fill="#263238"/>
<path d="M122.947 62.4754C128.677 61.7047 129.804 73.2463 124.488 73.9606C119.171 74.6749 118.157 63.1333 122.947 62.4754Z" fill="#263238"/>
<path d="M125.446 63.0027C126.404 63.529 127.325 64.5441 128.508 64.5253C129.692 64.5065 130.594 63.1343 131.289 61.8748C131.289 61.7432 131.458 61.8748 131.477 61.9688C131.758 64.1681 131.251 66.5366 129.166 67.1757C127.081 67.8148 125.672 65.9915 124.939 63.8486C124.826 63.4538 125.052 62.7959 125.446 63.0027Z" fill="#263238"/>
<path d="M99.1831 98.4536C99.9721 99.3559 100.742 100.578 102.02 100.803C103.355 100.883 104.692 100.685 105.946 100.221C106.059 100.221 106.172 100.315 106.078 100.409C105.509 101.07 104.773 101.566 103.946 101.844C103.12 102.122 102.233 102.171 101.381 101.987C100.671 101.73 100.051 101.271 99.5975 100.667C99.1438 100.063 98.8758 99.3393 98.8261 98.5852C98.7885 98.3784 99.0703 98.322 99.1831 98.4536Z" fill="#263238"/>
<path d="M115.114 83.9801C115.114 83.9801 115.715 89.3562 115.658 91.8939C115.658 92.1194 115.038 92.2134 114.174 92.251H114.08C111.899 92.593 109.666 92.3285 107.625 91.4865C105.584 90.6444 103.814 89.2572 102.508 87.4765C102.339 87.2133 102.677 86.9689 102.902 87.1381C106.073 89.4178 109.895 90.6112 113.799 90.5404C113.986 89.8449 112.446 81.3673 112.859 81.3485C114.794 81.5749 116.69 82.0618 118.495 82.7959C117.556 71.5175 114.832 60.5398 114.062 49.3178C114.059 49.2733 114.065 49.2288 114.08 49.1868C114.095 49.1448 114.117 49.106 114.147 49.0729C114.177 49.0397 114.213 49.0127 114.253 48.9934C114.293 48.9742 114.336 48.963 114.381 48.9606C114.455 48.9531 114.529 48.9715 114.59 49.0126C114.652 49.0538 114.698 49.1152 114.719 49.1862C118.476 60.4646 119.773 73.4348 121.05 85.014C121.276 86.5178 116.109 84.4313 115.114 83.9801Z" fill="#263238"/>
<path d="M114.024 92.0055C112.497 94.0254 110.471 95.6126 108.144 96.6109C106.865 97.1199 105.458 97.212 104.124 96.874C101.212 96.1221 101.118 93.4529 101.644 91.2348C101.941 90.0174 102.376 88.8381 102.94 87.7197C106.082 90.2966 109.967 91.7986 114.024 92.0055Z" fill="#263238"/>
<path d="M108.144 96.6114C106.865 97.1204 105.458 97.2125 104.124 96.8746C101.212 96.1227 101.118 93.4534 101.644 91.2354C104.781 91.4609 107.919 93.585 108.144 96.6114Z" fill="#FF9BBC"/>
<path d="M43.1432 81.1035C46.5485 79.5964 49.5032 77.2285 51.7167 74.2326C53.9302 71.2368 55.3263 67.716 55.7677 64.0166C65.0128 60.3518 73.1084 54.2766 79.2132 46.4223C78.8375 47.4937 76.0571 55.1631 74.4978 59.0165C107.75 53.9788 118.853 28.9407 118.853 28.9407C129.185 40.0124 131.101 46.9298 132.529 50.4073C132.529 50.4073 133.468 30.125 123.512 16.1961C111.338 -0.871936 93.8291 1.6845 93.8291 1.6845C85.7371 -0.548954 77.1934 -0.561655 69.0948 1.64773C60.9963 3.85712 53.6414 8.20714 47.8023 14.2412C25.484 36.892 43.1432 81.1035 43.1432 81.1035Z" fill="#263238"/>
<path d="M99.8028 54.4119C94.3984 57.1367 88.6171 59.0374 82.6508 60.0511C92.0292 57.8324 100.604 53.0414 107.411 46.2163C110.319 43.3098 112.844 40.044 114.926 36.498C117.348 32.7136 118.99 28.4827 119.754 24.0542C119.776 23.9895 119.82 23.9348 119.879 23.9003C119.937 23.8657 120.006 23.8536 120.073 23.8662C120.119 23.878 120.16 23.9017 120.193 23.9347C120.226 23.9677 120.249 24.009 120.261 24.0542C119.982 28.5077 118.946 32.8811 117.199 36.9867C115.302 40.9953 112.685 44.6208 109.478 47.6825C106.608 50.3688 103.377 52.6402 99.878 54.4307" fill="#263238"/>
<path d="M52.2918 77.2881C52.2918 77.2881 41.1326 60.8404 33.6932 64.8066C26.2538 68.7729 34.501 92.4952 43.0864 95.8411C45.2065 96.8354 47.6345 96.9465 49.8364 96.1498C52.0383 95.3531 53.8338 93.714 54.828 91.5929L54.9783 91.2546L52.2918 77.2881Z" fill="#F7A9A0"/>
<path d="M36.2295 71.4795C36.0792 71.4795 36.0604 71.6487 36.2295 71.7051C42.2787 74.2427 45.3973 79.9383 47.5014 85.8219C45.6227 83.5474 43.2744 82.2692 40.231 84.3933C40.0619 84.3933 40.231 84.7504 40.3813 84.7128C41.4466 84.3748 42.5902 84.3739 43.6561 84.7103C44.7219 85.0467 45.658 85.7041 46.3366 86.5926C47.4279 88.119 48.3656 89.7498 49.1358 91.4611C49.3988 92.0062 50.3945 91.7243 50.1878 91.104V90.9536C50.4133 83.3782 44.5331 72.4382 36.2295 71.4795Z" fill="#263238"/>
<path d="M48.6284 93.867C48.5895 94.3227 48.4165 94.7566 48.1311 95.1139C47.8457 95.4712 47.4609 95.7358 47.0252 95.8742C46.5895 96.0125 46.1226 96.0186 45.6835 95.8914C45.2444 95.7642 44.8529 95.5096 44.5585 95.1598C44.2641 94.8099 44.0799 94.3805 44.0294 93.926C43.9789 93.4714 44.0643 93.0121 44.2747 92.6061C44.4851 92.2001 44.8112 91.8656 45.2116 91.645C45.6121 91.4245 46.0689 91.3277 46.5243 91.3669C46.8241 91.3952 47.1154 91.4823 47.3815 91.6233C47.6476 91.7643 47.8834 91.9563 48.0753 92.1885C48.2672 92.4207 48.4115 92.6884 48.5 92.9764C48.5884 93.2644 48.6193 93.567 48.5908 93.867H48.6284Z" fill="white"/>
<path d="M86.4456 141.744L76.4136 165.466L47.4262 134.676L38.8408 144.168C38.8408 144.168 66.8513 192.628 67.0204 190.466L77.2402 170.128L91.1234 184.677L90.6726 148.793L86.4456 141.744Z" fill="#EBEBEB"/>
<path d="M91.9689 166.933C91.6872 161.012 91.5744 155.034 91.0296 149.132C91.0165 149.09 90.9903 149.053 90.9548 149.027C90.9193 149.001 90.8764 148.987 90.8324 148.987C90.7883 148.987 90.7454 149.001 90.7099 149.027C90.6745 149.053 90.6483 149.09 90.6351 149.132C89.3389 154.771 90.5036 177.459 90.3721 182.967C89.7897 182.347 77.4846 170.147 77.3531 170.335C75.1551 173.55 67.6781 188.362 67.1521 189.715C62.7185 182.027 45.7167 154 40.4377 146.726C40.4086 146.682 40.3639 146.651 40.3127 146.639C40.2616 146.627 40.2078 146.635 40.1624 146.662C40.1169 146.688 40.0832 146.731 40.0681 146.781C40.0529 146.831 40.0575 146.885 40.0808 146.932C43.9696 155.034 66.3818 192.723 66.8139 192.629C70.7439 185.643 74.3118 178.459 77.5034 171.106C79.5699 173.738 91.9689 187.478 92.0253 186.595C92.344 180.044 92.3252 173.482 91.9689 166.933Z" fill="#263238"/>
<path d="M15.5642 199.847C26.4228 267.518 39.4794 350.527 57.3641 364.832C85.3183 387.182 136.549 404.664 166.513 406.919C178.988 407.859 215.847 313.647 202.508 312.801C174.047 310.921 126.555 309.248 119.979 304.361C113.742 299.737 82.4064 237.31 57.5519 188.738C27.7754 130.297 9.28953 160.73 15.5642 199.847Z" fill="#F7A9A0"/>
<path d="M188.456 312.087C188.456 312.087 226.198 313.478 250.357 317.219C263.846 319.305 286.671 326.617 295.876 332.783C309.647 341.843 361.404 388.573 350.357 401.374C340.344 412.972 300.968 367.163 300.968 367.163C300.968 367.163 344.778 409.871 330.18 421.676C315.583 433.48 277.954 375.754 277.954 375.754C277.954 375.754 321.99 420.623 305.007 430.266C292.176 437.653 255.166 387.276 255.166 387.276C255.166 387.276 292.739 426.112 279.87 434.27C265.649 443.255 228.583 398.95 228.583 398.95C192.401 414.1 169.744 411.055 153.738 403.668C153.738 403.705 175.906 339.08 188.456 312.087Z" fill="#F7A9A0"/>
<path d="M286.766 351.56C292.082 356.391 297.512 361.241 302.396 366.598C307.28 371.955 311.977 377.35 316.354 383.064C327.063 397.087 331.571 407.501 331.214 406.937C322.967 392.369 305.778 373.102 300.893 367.895C296.009 362.688 291.5 357.086 286.559 351.823C286.39 351.56 286.634 351.353 286.766 351.56Z" fill="#263238"/>
<path d="M267.359 368.759C276.039 373.797 295.652 394.417 304.162 408.91C304.519 409.512 304.162 409.512 303.692 408.91C297.681 402.012 273.521 375.394 267.19 368.815C267.096 368.797 267.246 368.684 267.359 368.759Z" fill="#263238"/>
<path d="M248.047 380.602C258.342 388.215 267.66 399.305 275.625 412.557C275.982 413.159 275.456 413.14 275.005 412.557C266.044 401.768 259.074 393.234 247.727 380.959C247.539 380.771 247.802 380.414 248.047 380.602Z" fill="#263238"/>
<path d="M195.294 309.04C195.294 309.04 161.234 413.103 159.6 411.373C157.965 409.644 71.3033 386.58 52.3478 365.733C33.3922 344.887 15.4324 224.753 13.0465 188.812C10.6606 152.872 31.9833 140.39 54.9967 181.105C78.0101 221.82 119.096 298.232 122.233 300.337C125.371 302.442 195.294 309.04 195.294 309.04Z" fill="#E1D172"/>
<path d="M139.611 396.186C142.674 385.264 146.581 374.55 150.338 363.854C154.096 353.158 158.078 342.726 162.211 332.275C164.616 326.222 167.171 320.225 169.538 314.173C169.538 313.966 169.951 314.173 169.876 314.304C165.987 324.962 162.493 335.771 158.717 346.467C154.941 357.162 151.052 367.614 147.107 378.159C144.815 384.249 142.617 390.377 140.081 396.355C140.059 396.417 140.012 396.468 139.952 396.496C139.893 396.524 139.824 396.528 139.762 396.505C139.699 396.483 139.648 396.436 139.62 396.377C139.592 396.317 139.589 396.248 139.611 396.186Z" fill="#263238"/>
<path d="M78.7052 381.768C69.8944 377.595 60.6327 372.276 53.9635 365.001C46.0168 356.354 43.894 344.042 40.813 333.046C34.2941 308.947 29.0339 284.586 24.2621 260.074C21.5569 246.126 19.3213 232.122 17.0481 218.1C17.0481 217.968 16.7851 217.987 16.7851 218.1C17.7056 228.833 19.0395 239.547 20.5424 250.243C19.0207 244.416 17.5741 238.589 15.9961 232.78C15.9756 232.736 15.9386 232.701 15.893 232.684C15.8474 232.666 15.7968 232.667 15.7519 232.686C15.7174 232.704 15.6885 232.731 15.6686 232.764C15.6486 232.797 15.6384 232.836 15.6391 232.874C17.1034 240.373 18.985 247.785 21.2751 255.074C23.3291 268.32 25.7588 281.478 28.5642 294.549C31.2695 307.143 34.269 319.674 37.5629 332.143C39.1786 338.252 40.7566 344.362 42.6916 350.377C44.1611 355.505 46.6111 360.299 49.9056 364.494C57.4202 373.516 68.0909 377.52 78.3859 382.22C78.7616 382.37 78.9682 381.9 78.7052 381.768Z" fill="#263238"/>
<path d="M153.851 304.567C145.529 303.345 125.672 301.578 124 300.112C122.509 298.402 121.247 296.507 120.242 294.473L113.93 283.194C105.915 268.833 97.7737 254.522 89.5077 240.261C87.4412 234.772 85.4686 229.246 83.1203 223.851C83.0264 223.663 82.6882 223.851 82.7634 224.001C84.2287 228.4 85.9383 232.723 87.6478 237.047C82.8761 228.832 77.8977 220.731 72.9381 212.61C72.9381 212.479 72.6187 212.61 72.6938 212.742C81.035 229.033 89.658 245.13 98.5628 261.032C102.959 268.952 107.386 276.853 111.845 284.736L118.645 296.747C120.261 299.623 121.971 302.086 125.371 302.8C129.673 303.702 148.647 304.887 153.795 305.037C153.858 305.008 153.909 304.959 153.939 304.898C153.97 304.836 153.979 304.766 153.964 304.699C153.944 304.642 153.904 304.596 153.851 304.567Z" fill="#263238"/>
</svg>
