<svg width="84" height="84" viewBox="0 0 84 84" fill="none" xmlns="http://www.w3.org/2000/svg">
<path d="M44.7794 6.01599H40.7754V12.1974H44.7794V6.01599Z" fill="#263238"/>
<path d="M46.9245 7.8582H38.6802V1.20103C41.5651 0.497573 44.3235 0.454504 46.9245 1.20103V7.8582Z" fill="#540494"/>
<path d="M47.0217 1.22914C46.9267 1.29117 46.8244 1.34145 46.7171 1.37885C46.4377 1.50381 46.1512 1.61269 45.8591 1.70494C45.4214 1.84014 44.9747 1.94499 44.5223 2.01873C43.967 2.10681 43.4059 2.15411 42.8436 2.16024C42.2817 2.15961 41.7206 2.11779 41.1649 2.03513C40.7114 1.96557 40.2634 1.86483 39.824 1.73365C39.5282 1.64769 39.2375 1.54498 38.9536 1.42602C38.8469 1.38878 38.7447 1.33995 38.6489 1.28041C38.6489 1.2558 39.1028 1.44038 39.853 1.63931C40.2908 1.7551 40.7351 1.84549 41.1836 1.91003C41.7331 1.98352 42.287 2.0212 42.8415 2.02283C43.3966 2.01776 43.9505 1.97458 44.4995 1.89362C44.9482 1.82582 45.3925 1.732 45.83 1.61265C46.5678 1.39526 47.0114 1.20453 47.0217 1.22914Z" fill="#263238"/>
<path d="M41.4035 7.85742C41.3641 7.85742 41.333 6.57766 41.333 5.00053C41.333 3.4234 41.3641 2.1416 41.4035 2.1416C41.4428 2.1416 41.4739 3.42135 41.4739 5.00053C41.4739 6.57972 41.4428 7.85742 41.4035 7.85742Z" fill="#263238"/>
<path d="M42.9723 7.8842C42.9329 7.8842 42.9019 6.60035 42.9019 5.01296C42.9019 3.42558 42.9329 2.14172 42.9723 2.14172C43.0117 2.14172 43.0428 3.42558 43.0428 5.01296C43.0428 6.60035 43.0117 7.8842 42.9723 7.8842Z" fill="#263238"/>
<path d="M44.5412 7.8574C44.5018 7.8574 44.4707 6.5715 44.4707 4.98617C44.4707 3.40083 44.5018 2.11493 44.5412 2.11493C44.5805 2.11493 44.6116 3.39878 44.6116 4.98617C44.6116 6.57355 44.5805 7.8574 44.5412 7.8574Z" fill="#263238"/>
<path d="M45.8468 7.85731C45.8075 7.85731 45.7764 6.46886 45.7764 4.75432C45.7764 3.03978 45.8075 1.65338 45.8468 1.65338C45.8862 1.65338 45.9173 3.04183 45.9173 4.75432C45.9173 6.46681 45.8862 7.85731 45.8468 7.85731Z" fill="#263238"/>
<path d="M39.9193 7.82072C39.88 7.82072 39.8489 6.43022 39.8489 4.71773C39.8489 3.00525 39.88 1.61475 39.9193 1.61475C39.9587 1.61475 39.9898 3.00525 39.9898 4.71773C39.9898 6.43022 39.9587 7.82072 39.9193 7.82072Z" fill="#263238"/>
<path d="M65.574 13.97L62.3076 17.0588L64.3079 19.1302L67.5743 16.0413L65.574 13.97Z" fill="#263238"/>
<path d="M67.6678 18.0751L63.5498 13.8052L67.073 10.4766C68.8885 11.6169 70.2874 13.0218 71.1931 14.7425L67.6678 18.0751Z" fill="#540494"/>
<path d="M64.238 14.5233C64.2152 14.4987 65.0131 13.703 66.0204 12.735C67.0276 11.7669 67.8649 11.0102 67.8856 11.0327C67.9063 11.0553 67.1105 11.8531 66.1033 12.8211C65.096 13.7891 64.2608 14.5479 64.238 14.5233Z" fill="#263238"/>
<path d="M65.0234 15.3377C65.1875 15.1446 65.367 14.9649 65.5602 14.8004C65.9001 14.4805 66.3768 14.0436 66.9052 13.5699L68.2669 12.3516L68.6814 11.9845C68.7808 11.8984 68.8306 11.8533 68.8347 11.8533C68.8803 11.8943 68.0451 12.7023 66.9861 13.658C66.4576 14.138 65.9726 14.5645 65.6162 14.8681C65.4313 15.0398 65.2331 15.1968 65.0234 15.3377Z" fill="#263238"/>
<path d="M66.0679 16.418C66.2358 16.2251 66.418 16.0448 66.6129 15.8786C66.957 15.5566 67.4419 15.1177 67.9787 14.6358L69.3631 13.4052L69.7776 13.0402C69.828 12.9945 69.8813 12.952 69.9372 12.913C69.7848 13.1185 69.6081 13.3051 69.4108 13.4688C69.0688 13.7949 68.5818 14.2358 68.0492 14.7178C67.5165 15.1998 67.0129 15.6263 66.6585 15.934C66.4751 16.1107 66.2776 16.2726 66.0679 16.418Z" fill="#263238"/>
<path d="M67.0461 17.4043C67.0233 17.3797 67.8316 16.584 68.8533 15.6283C69.8751 14.6725 70.7185 13.9137 70.7413 13.9383C70.7641 13.9629 69.9559 14.7587 68.9341 15.7144C67.9124 16.6701 67.0689 17.4269 67.0461 17.4043Z" fill="#263238"/>
<path d="M17.1324 15.7369L14.9617 17.6327L17.9512 20.9848L20.122 19.089L17.1324 15.7369Z" fill="#263238"/>
<path d="M19.1886 15.7248L14.7183 19.6215L11.4956 16.016C12.7225 14.2686 14.1898 12.9397 15.968 12.1193L19.1886 15.7248Z" fill="#540494"/>
<path d="M15.4665 18.9751C15.4416 18.9977 14.6665 18.1774 13.7318 17.1417C12.7971 16.106 12.0738 15.2507 12.0883 15.2302C12.1029 15.2097 12.8883 16.028 13.823 17.0637C14.7577 18.0994 15.4914 18.9546 15.4665 18.9751Z" fill="#263238"/>
<path d="M16.3182 18.2312C16.1345 18.061 15.964 17.8772 15.8084 17.6815C15.4996 17.3308 15.0768 16.8427 14.6146 16.3013L13.4375 14.9067L13.0727 14.4822C12.9898 14.3796 12.9463 14.3304 12.9463 14.3242C12.9898 14.2812 13.7753 15.1446 14.6975 16.2234C15.1597 16.7668 15.57 17.2632 15.8643 17.6262C16.032 17.8153 16.1838 18.0176 16.3182 18.2312Z" fill="#263238"/>
<path d="M17.4538 17.2404C17.2648 17.068 17.0895 16.8815 16.9295 16.6825C16.6186 16.3277 16.1938 15.8335 15.7295 15.2818L14.5503 13.8646L14.198 13.4298C14.1524 13.3788 14.1115 13.3239 14.0757 13.2657C14.2761 13.4255 14.457 13.6079 14.6145 13.8092C14.9316 14.162 15.3585 14.6542 15.8228 15.2059C16.287 15.7576 16.7015 16.26 16.9958 16.6292C17.1642 16.8209 17.3174 17.0252 17.4538 17.2404Z" fill="#263238"/>
<path d="M18.488 16.3138C18.4631 16.3343 17.6901 15.4934 16.7658 14.468C15.8415 13.4425 15.1078 12.5545 15.1348 12.534C15.1617 12.5135 15.9306 13.3421 16.8549 14.3798C17.7792 15.4175 18.5129 16.2912 18.488 16.3138Z" fill="#263238"/>
<path d="M65.3346 65.0914C78.2219 52.3384 78.2219 31.6616 65.3346 18.9086C52.4473 6.15552 31.5529 6.15551 18.6656 18.9086C5.77828 31.6616 5.77828 52.3384 18.6656 65.0914C31.5529 77.8445 52.4473 77.8445 65.3346 65.0914Z" fill="#540494"/>
<path d="M63.4384 63.2148C75.2784 51.4982 75.2784 32.5017 63.4384 20.7851C51.5984 9.06839 32.402 9.0684 20.562 20.7851C8.722 32.5017 8.722 51.4982 20.562 63.2148C32.402 74.9315 51.5984 74.9315 63.4384 63.2148Z" fill="#9868BF"/>
<path d="M42.0002 72.1037C25.2256 72.1037 11.5784 58.5986 11.5784 41.9987C11.5784 25.3989 25.2256 11.8938 42.0002 11.8938C58.7748 11.8938 72.4221 25.3989 72.4221 41.9987C72.4221 58.5986 58.7748 72.1037 42.0002 72.1037ZM42.0002 12.0989C25.3396 12.0989 11.7856 25.5117 11.7856 41.9987C11.7856 58.4858 25.3417 71.8986 42.0002 71.8986C58.6588 71.8986 72.2148 58.4858 72.2148 41.9987C72.2148 25.5117 58.6608 12.0989 42.0002 12.0989Z" fill="#263238"/>
<path d="M22.9749 30.0176C24.237 26.1373 26.8255 23.5122 30.2555 21.2542C33.6854 18.9961 38.3609 18.1471 42.4665 18.4916V42.6715L22.9749 30.0176Z" fill="#540494"/>
<g opacity="0.8">
<path d="M22.9749 30.0167C24.237 26.1365 26.8255 23.5113 30.2555 21.2533C33.6854 18.9953 38.3609 18.1462 42.4665 18.4908V42.6707L22.9749 30.0167Z" fill="white"/>
</g>
<path d="M39.8428 42.5401L26.2039 32.056L42.1764 39.3428L42.6448 42.1115L39.8428 42.5401Z" fill="#540494"/>
<g opacity="0.4">
<path d="M26.2039 32.056L40.4459 40.3415L42.1764 39.3428L26.2039 32.056Z" fill="black"/>
</g>
<path d="M42.6509 44.9701C44.2179 44.9701 45.4882 43.713 45.4882 42.1624C45.4882 40.6118 44.2179 39.3547 42.6509 39.3547C41.084 39.3547 39.8137 40.6118 39.8137 42.1624C39.8137 43.713 41.084 44.9701 42.6509 44.9701Z" fill="#FAFAFA"/>
<path d="M42.6531 39.3492C42.4225 39.3752 42.1935 39.4135 41.9671 39.4641C41.591 39.5617 41.2398 39.736 40.9358 39.9758C40.6318 40.2156 40.3819 40.5157 40.202 40.8567C40.022 41.1977 39.9161 41.5722 39.891 41.9561C39.866 42.34 39.9222 42.7248 40.0562 43.0859C40.1451 43.3353 40.2731 43.5692 40.4355 43.7791C40.5989 44.0027 40.7976 44.1987 41.0241 44.3595C41.4985 44.7042 42.0717 44.8901 42.6603 44.8901C43.2489 44.8901 43.8221 44.7042 44.2965 44.3595C44.5241 44.1993 44.7236 44.0032 44.8872 43.7791C45.0487 43.5686 45.1766 43.3349 45.2664 43.0859C45.4257 42.655 45.4735 42.1915 45.4054 41.7377C45.3374 41.2838 45.1556 40.8541 44.8768 40.4875C44.4979 39.9853 43.9591 39.6241 43.3473 39.462C43.1209 39.4115 42.8919 39.3731 42.6613 39.3472C42.896 39.3307 43.1318 39.3514 43.3598 39.4087C43.8949 39.5356 44.3819 39.8123 44.7623 40.2059C45.1427 40.5994 45.4005 41.093 45.5048 41.6278C45.6022 42.1316 45.5614 42.6522 45.3866 43.1352C45.1898 43.6685 44.8397 44.1333 44.3794 44.4723C43.8814 44.8345 43.2794 45.0298 42.6613 45.0298C42.0433 45.0298 41.4413 44.8345 40.9433 44.4723C40.7042 44.3014 40.4943 44.0937 40.3215 43.8571C40.1536 43.636 40.0214 43.3903 39.9298 43.129C39.792 42.7536 39.7359 42.3536 39.7651 41.9552C39.7943 41.5569 39.9082 41.1691 40.0994 40.8173C40.2905 40.4655 40.5546 40.1576 40.8743 39.9138C41.194 39.67 41.5622 39.4958 41.9546 39.4025C42.1831 39.3479 42.4189 39.3299 42.6531 39.3492Z" fill="#263238"/>
<path d="M42.6531 40.0668C43.0712 40.0664 43.48 40.1887 43.8279 40.4182C44.1758 40.6478 44.447 40.9742 44.6074 41.3563C44.7678 41.7384 44.8101 42.159 44.7289 42.5648C44.6477 42.9707 44.4468 43.3436 44.1514 43.6365C43.8561 43.9293 43.4796 44.1289 43.0696 44.21C42.6596 44.2912 42.2346 44.2501 41.8481 44.0922C41.4617 43.9342 41.1313 43.6664 40.8987 43.3226C40.6661 42.9789 40.5417 42.5745 40.5413 42.1608C40.541 41.8861 40.5954 41.614 40.7014 41.3601C40.8074 41.1062 40.9628 40.8754 41.1589 40.681C41.3551 40.4865 41.5879 40.3322 41.8443 40.2269C42.1007 40.1215 42.3755 40.0671 42.6531 40.0668Z" fill="#263238"/>
<path d="M42.5123 41.3348C42.5123 41.3348 41.932 23.2521 42.7776 19.4375C42.7776 19.4375 44.2014 30.3995 42.5123 41.3348Z" fill="#263238"/>
<path d="M40.8604 69.879H40.9977L41.0043 69.7419L41.1142 67.486L41.1215 67.3348H40.9702H40.906H40.7669L40.762 67.4738L40.6811 69.7298L40.6758 69.879H40.8252H40.8604ZM52.1027 67.9598L52.1534 68.0846L52.2814 68.0424L52.3124 68.0321L52.4566 67.9846L52.4016 67.8431L51.583 65.7368L51.5305 65.6017L51.3956 65.655L51.3335 65.6796L51.1982 65.7332L51.253 65.8679L52.1027 67.9598ZM29.7348 67.0258L29.8013 66.8969L30.8375 64.8871L30.9037 64.7587L30.7752 64.6928L30.7193 64.6641L30.59 64.5977L30.5247 64.7276L29.5092 66.7477L29.4455 66.8743L29.5711 66.9401L29.6063 66.9585L29.7348 67.0258ZM61.7996 61.7454L61.901 61.8441L62.0015 61.7446L62.0305 61.7159L62.134 61.6135L62.0306 61.511L60.4203 59.9155L60.3189 59.815L60.2175 59.9154L60.174 59.9585L60.0696 60.0618L60.1748 60.1642L61.7996 61.7454ZM20.5464 59.7707L20.6376 59.8823L20.7492 59.791L22.5108 58.3492L22.6201 58.2597L22.5328 58.1486L22.5038 58.1117L22.4133 57.9966L22.2997 58.0889L20.5318 59.5245L20.4196 59.6157L20.5111 59.7276L20.5464 59.7707ZM68.1238 52.1629L68.2535 52.2105L68.3066 52.0829L68.3211 52.0481L68.3782 51.9109L68.2393 51.858L66.1109 51.0479L65.9765 50.9968L65.925 51.131L65.9022 51.1905L65.8499 51.327L65.9871 51.3774L68.1238 52.1629ZM15.2119 49.5552L15.2513 49.692L15.3886 49.6542L17.5751 49.0512L17.6809 49.022V48.9123V48.8754V48.6882L17.4999 48.7361L15.2969 49.3185L15.1544 49.3562L15.1953 49.4978L15.2119 49.5552ZM67.5196 40.9579V40.9951L67.6704 40.9881L69.9501 40.8814L70.0875 40.875V40.8078V40.7375V40.6739V40.6718V40.6185V40.521V40.4656L69.9349 40.4747L67.6552 40.61L67.5196 40.6181V40.6734V40.7539V40.8052V40.8093V40.8441V40.9579ZM16.9123 38.5748L17.0709 38.5986L17.0777 38.4383L17.0797 38.3891L17.0852 38.2599L16.9573 38.2406L14.7024 37.9001L14.5368 37.8751V38.0426V38.0939V38.218L14.6595 38.2364L16.9123 38.5748ZM64.7434 30.7326L64.8086 30.8616L64.9374 30.7961L66.9663 29.7645L67.0967 29.6982L67.0285 29.5688L67.0036 29.5217L66.9372 29.3956L66.8104 29.4606L64.7856 30.4984L64.6581 30.5637L64.7227 30.6916L64.7434 30.7326ZM20.6049 28.738L20.7374 28.823L20.8104 28.6836L20.8395 28.6283L20.9011 28.5105L20.7888 28.4395L18.8676 27.2254L18.7463 27.1488L18.6691 27.2697L18.6443 27.3087L18.5669 27.4299L18.6879 27.5075L20.6049 28.738ZM58.0664 22.6556L58.1782 22.7429L58.2673 22.6326L59.6911 20.8709L59.7832 20.7569L59.6677 20.6667L59.6283 20.636L59.5166 20.5487L59.4275 20.659L58.0037 22.4207L57.9116 22.5346L58.0271 22.6248L58.0664 22.6556ZM28.0213 21.2164L28.0965 21.3307L28.2145 21.2615L28.2705 21.2287L28.4028 21.1511L28.3171 21.0238L27.0529 19.1473L26.9775 19.0354L26.8609 19.1032L26.8256 19.1238L26.694 19.2004L26.7778 19.3275L28.0213 21.2164ZM48.6426 17.9468L48.7787 17.9789L48.8149 17.8439L49.3993 15.6638L49.4371 15.5231L49.2959 15.4868L49.24 15.4725L49.1011 15.4369L49.0648 15.5756L48.4928 17.7598L48.4553 17.9027L48.5991 17.9366L48.6426 17.9468ZM37.8872 17.34L37.9073 17.4605H38.0294H38.0771H38.247L38.2192 17.2928L37.8503 15.0656L37.8304 14.945H37.7082H37.6584H37.4883L37.5163 15.1128L37.8872 17.34Z" fill="#263238" stroke="black" stroke-width="0.288232"/>
</svg>
