<svg width="910" height="402" viewBox="0 0 910 402" fill="none" xmlns="http://www.w3.org/2000/svg">
<path d="M393.622 27.3663L333.207 252.837L367.1 261.918L427.515 36.4479L393.622 27.3663Z" fill="#D1D3D4"/>
<path d="M-399 -202V76.0844L332.722 261.275L402.502 0.834625L-399 -202Z" fill="#818C96"/>
<path d="M785.853 381.163C787.625 374.514 786.859 367.443 783.703 361.327C780.548 355.212 775.229 350.49 768.783 348.082L617.931 307.678C615.998 307.16 614.349 305.896 613.348 304.163C612.347 302.43 612.076 300.37 612.593 298.437C613.111 296.504 614.376 294.855 616.109 293.855C617.842 292.854 619.901 292.582 621.834 293.1L826.124 347.839C833.006 349.094 840.108 347.7 846.004 343.935C851.9 340.17 856.153 334.314 857.909 327.543C859.665 320.772 858.795 313.587 855.472 307.431C852.15 301.275 846.621 296.605 839.997 294.357L645.234 242.176C643.433 241.617 641.917 240.382 641.006 238.731C640.095 237.079 639.858 235.139 640.346 233.317C640.834 231.495 642.008 229.932 643.622 228.957C645.236 227.981 647.165 227.668 649.005 228.083H649.226L874.821 288.513C881.805 290.332 889.223 289.363 895.505 285.81C901.787 282.257 906.441 276.4 908.481 269.477C910.521 262.554 909.788 255.109 906.436 248.717C903.085 242.325 897.378 237.488 890.523 235.229L674.566 177.38C672.836 176.854 671.378 175.675 670.501 174.093C669.623 172.511 669.395 170.65 669.865 168.903C670.335 167.157 671.465 165.661 673.017 164.732C674.57 163.804 676.422 163.515 678.183 163.927L678.669 164.059L707.538 171.8L857.045 211.851C865.155 214.039 873.801 212.915 881.083 208.728C888.364 204.54 893.684 197.631 895.872 189.521C898.059 181.411 896.936 172.764 892.748 165.483C888.56 158.202 881.651 152.882 873.542 150.694L566.985 72.9525C591.487 66.3362 620.82 52.9492 637.14 47.8987C666.561 38.7902 665.171 3.23841 664.289 -7.0169C663.407 -17.2722 655.953 -18.9704 642.477 -12.8613C629.002 -6.75224 460.594 40.9515 428.373 42.2748C428.373 42.2748 373.854 241.25 373.457 247.227C373.06 253.203 413.001 296.651 431.152 308.185C449.302 319.72 495.727 332.158 495.727 332.158L751.889 400.792C758.995 402.667 766.554 401.655 772.917 397.978C779.28 394.301 783.93 388.256 785.853 381.163Z" fill="#C16D4C"/>
<path d="M855.897 205.037C851.106 203.746 846.806 201.064 843.54 197.328C840.274 193.593 838.19 188.972 837.551 184.052C836.913 179.132 837.748 174.132 839.951 169.687C842.155 165.241 845.628 161.55 849.93 159.079C854.233 156.608 859.172 155.469 864.122 155.806C869.072 156.143 873.811 157.941 877.739 160.972C881.667 164.004 884.607 168.132 886.188 172.835C887.769 177.538 887.918 182.605 886.619 187.393C884.873 193.8 880.66 199.254 874.902 202.561C869.144 205.868 862.31 206.758 855.897 205.037Z" fill="#FFDD9A"/>
<path d="M875.415 281.169C871.399 280.094 867.792 277.852 865.051 274.727C862.309 271.602 860.556 267.734 860.012 263.613C859.469 259.492 860.16 255.302 861.998 251.573C863.836 247.844 866.739 244.744 870.338 242.665C873.938 240.586 878.074 239.621 882.222 239.893C886.37 240.164 890.345 241.659 893.643 244.19C896.941 246.72 899.415 250.172 900.752 254.108C902.089 258.044 902.228 262.289 901.152 266.304C899.71 271.688 896.188 276.279 891.362 279.066C886.535 281.854 880.799 282.61 875.415 281.169Z" fill="#FFDD9A"/>
<path d="M823.521 341.355C819.507 340.276 815.904 338.032 813.166 334.905C810.428 331.779 808.678 327.911 808.137 323.79C807.597 319.67 808.29 315.481 810.13 311.755C811.969 308.028 814.872 304.93 818.472 302.853C822.072 300.776 826.206 299.813 830.353 300.085C834.5 300.357 838.473 301.852 841.771 304.382C845.068 306.912 847.541 310.362 848.878 314.298C850.215 318.233 850.355 322.476 849.28 326.49C848.569 329.16 847.338 331.663 845.657 333.856C843.976 336.049 841.879 337.889 839.486 339.27C837.093 340.651 834.451 341.546 831.711 341.904C828.972 342.261 826.188 342.075 823.521 341.355Z" fill="#FFDD9A"/>
<path d="M750.3 395.896C746.284 394.819 742.677 392.576 739.936 389.45C737.195 386.323 735.443 382.454 734.902 378.332C734.36 374.21 735.053 370.019 736.894 366.291C738.734 362.563 741.639 359.464 745.241 357.387C748.842 355.31 752.979 354.348 757.128 354.622C761.277 354.897 765.251 356.395 768.547 358.929C771.844 361.462 774.315 364.916 775.649 368.855C776.982 372.793 777.117 377.038 776.037 381.053C775.323 383.718 774.091 386.217 772.411 388.406C770.731 390.595 768.636 392.431 766.245 393.809C763.855 395.188 761.216 396.082 758.48 396.44C755.744 396.798 752.964 396.613 750.3 395.896Z" fill="#FFDD9A"/>
</svg>
