<svg width="895" height="393" viewBox="0 0 895 393" fill="none" xmlns="http://www.w3.org/2000/svg">
<path d="M512.7 12.4682L478.807 21.5498L539.222 247.02L573.115 237.939L512.7 12.4682Z" fill="#D1D3D4"/>
<path d="M1311.26 -221L507.135 -8.3291L576.916 252.09L1311.26 57.8783V-221Z" fill="#4C4643"/>
<path d="M123.785 372C122.013 365.35 122.78 358.279 125.935 352.164C129.091 346.049 134.409 341.327 140.856 338.918L291.686 298.492C293.619 297.975 295.267 296.71 296.268 294.977C297.269 293.244 297.541 291.185 297.023 289.252C296.505 287.318 295.241 285.67 293.508 284.669C291.775 283.668 289.715 283.397 287.782 283.914L83.4919 338.698C76.606 339.966 69.4951 338.58 63.5897 334.818C57.6843 331.056 53.4226 325.198 51.662 318.421C49.9014 311.644 50.7725 304.452 54.1001 298.291C57.4277 292.131 62.9649 287.459 69.5977 285.216L264.36 233.035C266.162 232.476 267.677 231.241 268.588 229.589C269.499 227.938 269.736 225.998 269.248 224.176C268.761 222.354 267.587 220.791 265.973 219.815C264.358 218.84 262.429 218.527 260.589 218.942H260.391L34.7958 279.349C27.8116 281.168 20.3936 280.199 14.1114 276.646C7.82917 273.094 3.17556 267.236 1.13537 260.313C-0.904811 253.39 -0.171508 245.945 3.18003 239.553C6.53156 233.162 12.2384 228.324 19.093 226.066L235.006 168.195C236.719 167.656 238.158 166.477 239.023 164.903C239.888 163.329 240.112 161.482 239.649 159.747C239.185 158.012 238.07 156.523 236.535 155.591C235 154.658 233.165 154.354 231.411 154.741L230.926 154.874L202.057 162.659L52.5716 202.71C48.5422 203.834 44.3298 204.149 40.1781 203.635C36.0263 203.121 32.0176 201.789 28.3838 199.717C24.75 197.644 21.5632 194.871 19.0078 191.559C16.4523 188.247 14.5788 184.461 13.4958 180.42C12.4127 176.379 12.1415 172.164 12.6978 168.018C13.2541 163.871 14.627 159.877 16.737 156.264C18.8469 152.652 21.6521 149.494 24.9903 146.972C28.3286 144.451 32.1335 142.617 36.1852 141.575L343.073 63.1053C318.57 56.489 288.907 43.7856 272.498 38.7352C243.056 29.6267 244.445 -5.92504 245.349 -16.1804C246.254 -26.4357 253.664 -28.1118 267.139 -22.0248C280.615 -15.9377 449.022 31.7881 481.244 33.1113C481.244 33.1113 535.784 232.086 536.159 238.063C536.534 244.04 496.616 287.487 478.465 299.022C460.314 310.556 413.911 322.995 413.911 322.995L157.815 391.672C150.694 393.572 143.11 392.567 136.729 388.878C130.349 385.189 125.693 379.119 123.785 372Z" fill="#FFAE71"/>
</svg>
