<svg width="49" height="49" viewBox="0 0 49 49" fill="none" xmlns="http://www.w3.org/2000/svg">
<path opacity="0.3" d="M24.5643 43.8534C35.2179 43.8534 43.8542 35.1884 43.8542 24.4996C43.8542 13.8108 35.2179 5.14587 24.5643 5.14587C13.9108 5.14587 5.27441 13.8108 5.27441 24.4996C5.27441 35.1884 13.9108 43.8534 24.5643 43.8534Z" fill="white"/>
<path opacity="0.1" fill-rule="evenodd" clip-rule="evenodd" d="M24.5004 22.9753C23.6622 22.9753 22.9965 23.6467 22.9965 24.4579C22.9965 25.2692 23.6622 25.9405 24.5004 25.9405C25.3386 25.9405 26.0044 25.2692 26.0044 24.4579C26.0044 23.6467 25.3386 22.9753 24.5004 22.9753ZM21.1819 24.4579C21.1819 22.6294 22.6753 21.1608 24.5004 21.1608C26.3256 21.1608 27.819 22.6294 27.819 24.4579C27.819 26.2865 26.3256 27.7551 24.5004 27.7551C22.6753 27.7551 21.1819 26.2865 21.1819 24.4579Z" fill="white"/>
<path opacity="0.7" fill-rule="evenodd" clip-rule="evenodd" d="M24.5646 6.57191C14.7048 6.57191 6.72282 14.5412 6.72282 24.3495H3.69849C3.69849 12.8622 13.0432 3.54761 24.5646 3.54761V6.57191Z" fill="white"/>
<path opacity="0.7" fill-rule="evenodd" clip-rule="evenodd" d="M24.5645 42.1274C34.4242 42.1274 42.4062 34.1581 42.4062 24.3499H45.4306C45.4306 35.8371 36.0858 45.1517 24.5645 45.1517V42.1274Z" fill="white"/>
<path fill-rule="evenodd" clip-rule="evenodd" d="M32.9712 11.4875C32.1365 11.4875 31.4598 12.1642 31.4598 12.9989C31.4598 13.8335 32.1365 14.5102 32.9712 14.5102C33.8059 14.5102 34.4825 13.8335 34.4825 12.9989C34.4825 12.1642 33.8059 11.4875 32.9712 11.4875ZM30.855 12.9989C30.855 11.8301 31.8024 10.8827 32.9712 10.8827C34.1399 10.8827 35.0874 11.8301 35.0874 12.9989C35.0874 14.1676 34.1399 15.115 32.9712 15.115C31.8024 15.115 30.855 14.1676 30.855 12.9989Z" fill="white"/>
<path fill-rule="evenodd" clip-rule="evenodd" d="M32.3521 16.3318C31.1961 16.3318 30.2433 17.2846 30.2433 18.4406V23.4337C30.2433 23.8468 30.5812 24.1982 31.0078 24.1982H34.9127C35.3355 24.1982 35.6802 23.8494 35.6985 23.4277V18.4406C35.6985 17.2846 34.7457 16.3318 33.5897 16.3318H32.3521ZM29.6384 18.4406C29.6384 16.9506 30.8621 15.7269 32.3521 15.7269H33.5897C35.0797 15.7269 36.3034 16.9506 36.3034 18.4406V23.4337C36.3034 23.4374 36.3033 23.4412 36.3032 23.4449C36.2762 24.1731 35.6831 24.803 34.9127 24.803H31.0078C30.2394 24.803 29.6384 24.1729 29.6384 23.4337V18.4406Z" fill="white"/>
<path fill-rule="evenodd" clip-rule="evenodd" d="M16.0288 24.8031C15.1941 24.8031 14.5175 25.4797 14.5175 26.3144C14.5175 27.1491 15.1941 27.8257 16.0288 27.8257C16.8635 27.8257 17.5401 27.1491 17.5401 26.3144C17.5401 25.4797 16.8635 24.8031 16.0288 24.8031ZM13.9126 26.3144C13.9126 25.1457 14.86 24.1982 16.0288 24.1982C17.1975 24.1982 18.145 25.1457 18.145 26.3144C18.145 27.4831 17.1975 28.4306 16.0288 28.4306C14.86 28.4306 13.9126 27.4831 13.9126 26.3144Z" fill="white"/>
<path fill-rule="evenodd" clip-rule="evenodd" d="M15.4097 29.6473C14.2537 29.6473 13.3009 30.6002 13.3009 31.7561V36.7493C13.3009 37.1623 13.6389 37.5137 14.0654 37.5137H17.9703C18.4047 37.5137 18.7562 37.1545 18.7562 36.7493V31.7561C18.7562 30.6002 17.8033 29.6473 16.6473 29.6473H15.4097ZM12.696 31.7561C12.696 30.2661 13.9197 29.0425 15.4097 29.0425H16.6473C18.1373 29.0425 19.361 30.2661 19.361 31.7561V36.7493C19.361 37.4963 18.7309 38.1186 17.9703 38.1186H14.0654C13.297 38.1186 12.696 37.4885 12.696 36.7493V31.7561Z" fill="white"/>
<path fill-rule="evenodd" clip-rule="evenodd" d="M0.302429 24.1969C0.469456 24.1969 0.604858 24.3323 0.604858 24.4993C0.604858 37.69 11.3094 48.3944 24.5002 48.3944C24.6672 48.3944 24.8026 48.5298 24.8026 48.6968C24.8026 48.8639 24.6672 48.9993 24.5002 48.9993C10.9753 48.9993 0 38.0241 0 24.4993C0 24.3323 0.135402 24.1969 0.302429 24.1969Z" fill="white"/>
<path fill-rule="evenodd" clip-rule="evenodd" d="M24.1973 0.30267C24.1973 0.135645 24.3327 0.000244141 24.4997 0.000244141C38.0246 0.000244141 48.9998 10.9755 48.9998 24.5002C48.9998 24.6672 48.8644 24.8026 48.6974 24.8026C48.5304 24.8026 48.395 24.6672 48.395 24.5002C48.395 11.3095 37.6905 0.605097 24.4997 0.605097C24.3327 0.605097 24.1973 0.469696 24.1973 0.30267Z" fill="white"/>
</svg>
