<svg width="76" height="61" viewBox="0 0 76 61" fill="none" xmlns="http://www.w3.org/2000/svg">
<path opacity="0.1" d="M18.9471 11.2898L14.6611 23.5122H1.76538V11.2898H18.9471Z" fill="white"/>
<path opacity="0.1" d="M49.0637 11.2898L44.7398 23.5122H40.4539V11.2898H49.0637Z" fill="white"/>
<path opacity="0.1" d="M70.5676 11.2898L66.2437 23.5122H61.9578V11.2898H70.5676Z" fill="white"/>
<path fill-rule="evenodd" clip-rule="evenodd" d="M1.22559 11.2922C1.22559 11.0108 1.46626 10.7827 1.76315 10.7827H31.8785C32.1754 10.7827 32.4161 11.0108 32.4161 11.2922V23.5146C32.4161 23.796 32.1754 24.0241 31.8785 24.0241H1.76315C1.46626 24.0241 1.22559 23.796 1.22559 23.5146V11.2922ZM2.30071 11.8017V23.0051H31.341V11.8017H2.30071Z" fill="white" stroke="white" stroke-width="1.00219" stroke-miterlimit="10" stroke-linecap="round" stroke-linejoin="round"/>
<path fill-rule="evenodd" clip-rule="evenodd" d="M5.51733 33.7231C5.51733 33.4417 5.75801 33.2136 6.0549 33.2136H10.3408C10.6377 33.2136 10.8784 33.4417 10.8784 33.7231V43.8964C10.8784 44.1778 10.6377 44.4059 10.3408 44.4059H6.0549C5.75801 44.4059 5.51733 44.1778 5.51733 43.8964V33.7231ZM6.59246 34.2326V43.3869H9.80325V34.2326H6.59246Z" fill="white" stroke="white" stroke-width="1.00219" stroke-miterlimit="10" stroke-linecap="round" stroke-linejoin="round"/>
<path fill-rule="evenodd" clip-rule="evenodd" d="M8.21798 23.0042C8.51487 23.0042 8.75555 23.2323 8.75555 23.5136V33.7229C8.75555 34.0043 8.51487 34.2324 8.21798 34.2324C7.9211 34.2324 7.68042 34.0043 7.68042 33.7229V23.5136C7.68042 23.2323 7.9211 23.0042 8.21798 23.0042Z" fill="white" stroke="white" stroke-width="1.00219" stroke-miterlimit="10" stroke-linecap="round" stroke-linejoin="round"/>
<path fill-rule="evenodd" clip-rule="evenodd" d="M8.21798 43.3853C8.51487 43.3853 8.75555 43.6134 8.75555 43.8947V55.1106C8.75555 55.392 8.51487 55.6201 8.21798 55.6201C7.9211 55.6201 7.68042 55.392 7.68042 55.1106V43.8947C7.68042 43.6134 7.9211 43.3853 8.21798 43.3853Z" fill="white" stroke="white" stroke-width="1.00219" stroke-miterlimit="10" stroke-linecap="round" stroke-linejoin="round"/>
<path fill-rule="evenodd" clip-rule="evenodd" d="M22.6907 33.7231C22.6907 33.4417 22.9313 33.2136 23.2282 33.2136H27.5142C27.8111 33.2136 28.0518 33.4417 28.0518 33.7231V43.8964C28.0518 44.1778 27.8111 44.4059 27.5142 44.4059H23.2282C22.9313 44.4059 22.6907 44.1778 22.6907 43.8964V33.7231ZM23.7658 34.2326V43.3869H26.9766V34.2326H23.7658Z" fill="white" stroke="white" stroke-width="1.00219" stroke-miterlimit="10" stroke-linecap="round" stroke-linejoin="round"/>
<path fill-rule="evenodd" clip-rule="evenodd" d="M25.3916 23.0042C25.6885 23.0042 25.9291 23.2323 25.9291 23.5136V33.7229C25.9291 34.0043 25.6885 34.2324 25.3916 34.2324C25.0947 34.2324 24.854 34.0043 24.854 33.7229V23.5136C24.854 23.2323 25.0947 23.0042 25.3916 23.0042Z" fill="white" stroke="white" stroke-width="1.00219" stroke-miterlimit="10" stroke-linecap="round" stroke-linejoin="round"/>
<path fill-rule="evenodd" clip-rule="evenodd" d="M25.3916 43.3853C25.6885 43.3853 25.9291 43.6134 25.9291 43.8947V55.1106C25.9291 55.392 25.6885 55.6201 25.3916 55.6201C25.0947 55.6201 24.854 55.392 24.854 55.1106V43.8947C24.854 43.6134 25.0947 43.3853 25.3916 43.3853Z" fill="white" stroke="white" stroke-width="1.00219" stroke-miterlimit="10" stroke-linecap="round" stroke-linejoin="round"/>
<path fill-rule="evenodd" clip-rule="evenodd" d="M43.9348 33.7231C43.9348 33.4417 44.1755 33.2136 44.4724 33.2136H49.3273C49.6242 33.2136 49.8648 33.4417 49.8648 33.7231V43.8964C49.8648 44.1778 49.6242 44.4059 49.3273 44.4059H44.4724C44.1755 44.4059 43.9348 44.1778 43.9348 43.8964V33.7231ZM45.0099 34.2326V43.3869H48.7897V34.2326H45.0099Z" fill="white" stroke="white" stroke-width="1.00219" stroke-miterlimit="10" stroke-linecap="round" stroke-linejoin="round"/>
<path fill-rule="evenodd" clip-rule="evenodd" d="M46.8994 23.0042C47.1963 23.0042 47.4369 23.2323 47.4369 23.5136V33.7229C47.4369 34.0043 47.1963 34.2324 46.8994 34.2324C46.6025 34.2324 46.3618 34.0043 46.3618 33.7229V23.5136C46.3618 23.2323 46.6025 23.0042 46.8994 23.0042Z" fill="white" stroke="white" stroke-width="1.00219" stroke-miterlimit="10" stroke-linecap="round" stroke-linejoin="round"/>
<path fill-rule="evenodd" clip-rule="evenodd" d="M31.3069 17.4018C31.3069 17.1204 31.5476 16.8923 31.8444 16.8923H40.4542C40.7511 16.8923 40.9918 17.1204 40.9918 17.4018C40.9918 17.6832 40.7511 17.9113 40.4542 17.9113H31.8444C31.5476 17.9113 31.3069 17.6832 31.3069 17.4018Z" fill="white" stroke="white" stroke-width="1.00219" stroke-miterlimit="10" stroke-linecap="round" stroke-linejoin="round"/>
<path fill-rule="evenodd" clip-rule="evenodd" d="M52.8069 17.4018C52.8069 17.1204 53.0476 16.8923 53.3444 16.8923H61.9543C62.2512 16.8923 62.4919 17.1204 62.4919 17.4018C62.4919 17.6832 62.2512 17.9113 61.9543 17.9113H53.3444C53.0476 17.9113 52.8069 17.6832 52.8069 17.4018Z" fill="white" stroke="white" stroke-width="1.00219" stroke-miterlimit="10" stroke-linecap="round" stroke-linejoin="round"/>
<path fill-rule="evenodd" clip-rule="evenodd" d="M46.8994 43.3853C47.1963 43.3853 47.4369 43.6134 47.4369 43.8947V55.1106C47.4369 55.392 47.1963 55.6201 46.8994 55.6201C46.6025 55.6201 46.3618 55.392 46.3618 55.1106V43.8947C46.3618 43.6134 46.6025 43.3853 46.8994 43.3853Z" fill="white" stroke="white" stroke-width="1.00219" stroke-miterlimit="10" stroke-linecap="round" stroke-linejoin="round"/>
<path fill-rule="evenodd" clip-rule="evenodd" d="M39.9102 11.2922C39.9102 11.0108 40.1508 10.7827 40.4477 10.7827H53.3435C53.6404 10.7827 53.881 11.0108 53.881 11.2922V23.5146C53.881 23.796 53.6404 24.0241 53.3435 24.0241H40.4477C40.1508 24.0241 39.9102 23.796 39.9102 23.5146V11.2922ZM40.9853 11.8017V23.0051H52.8059V11.8017H40.9853Z" fill="white" stroke="white" stroke-width="1.00219" stroke-miterlimit="10" stroke-linecap="round" stroke-linejoin="round"/>
<path fill-rule="evenodd" clip-rule="evenodd" d="M65.7058 33.7231C65.7058 33.4417 65.9465 33.2136 66.2434 33.2136H70.5293C70.8262 33.2136 71.0669 33.4417 71.0669 33.7231V43.8964C71.0669 44.1778 70.8262 44.4059 70.5293 44.4059H66.2434C65.9465 44.4059 65.7058 44.1778 65.7058 43.8964V33.7231ZM66.7809 34.2326V43.3869H69.9918V34.2326H66.7809Z" fill="white" stroke="white" stroke-width="1.00219" stroke-miterlimit="10" stroke-linecap="round" stroke-linejoin="round"/>
<path fill-rule="evenodd" clip-rule="evenodd" d="M68.4035 23.0042C68.7004 23.0042 68.9411 23.2323 68.9411 23.5136V33.7229C68.9411 34.0043 68.7004 34.2324 68.4035 34.2324C68.1066 34.2324 67.866 34.0043 67.866 33.7229V23.5136C67.866 23.2323 68.1066 23.0042 68.4035 23.0042Z" fill="white" stroke="white" stroke-width="1.00219" stroke-miterlimit="10" stroke-linecap="round" stroke-linejoin="round"/>
<path fill-rule="evenodd" clip-rule="evenodd" d="M68.4035 43.3853C68.7004 43.3853 68.9411 43.6134 68.9411 43.8947V55.1106C68.9411 55.392 68.7004 55.6201 68.4035 55.6201C68.1066 55.6201 67.866 55.392 67.866 55.1106V43.8947C67.866 43.6134 68.1066 43.3853 68.4035 43.3853Z" fill="white" stroke="white" stroke-width="1.00219" stroke-miterlimit="10" stroke-linecap="round" stroke-linejoin="round"/>
<path fill-rule="evenodd" clip-rule="evenodd" d="M61.4163 11.2922C61.4163 11.0108 61.6569 10.7827 61.9538 10.7827H74.8496C75.1465 10.7827 75.3871 11.0108 75.3871 11.2922V23.5146C75.3871 23.796 75.1465 24.0241 74.8496 24.0241H61.9538C61.6569 24.0241 61.4163 23.796 61.4163 23.5146V11.2922ZM62.4914 11.8017V23.0051H74.312V11.8017H62.4914Z" fill="white" stroke="white" stroke-width="1.00219" stroke-miterlimit="10" stroke-linecap="round" stroke-linejoin="round"/>
<path opacity="0.4" fill-rule="evenodd" clip-rule="evenodd" d="M70.5624 5.67825H6.04565V0.583252H70.5624V5.67825Z" fill="white"/>
<path opacity="0.4" fill-rule="evenodd" clip-rule="evenodd" d="M8.20427 54.6038C7.90609 54.6038 7.66819 54.8293 7.66819 55.1119C7.66819 55.3945 7.90609 55.62 8.20427 55.62C8.50246 55.62 8.74036 55.3945 8.74036 55.1119C8.74036 54.8293 8.50246 54.6038 8.20427 54.6038ZM2.29248 55.1119C2.29248 52.0154 4.93716 49.5088 8.20427 49.5088C11.4714 49.5088 14.1161 52.0154 14.1161 55.1119C14.1161 58.2084 11.4714 60.715 8.20427 60.715C4.93716 60.715 2.29248 58.2084 2.29248 55.1119Z" fill="white"/>
<path opacity="0.4" fill-rule="evenodd" clip-rule="evenodd" d="M25.3928 54.6038C25.0946 54.6038 24.8567 54.8293 24.8567 55.1119C24.8567 55.3945 25.0946 55.62 25.3928 55.62C25.6909 55.62 25.9288 55.3945 25.9288 55.1119C25.9288 54.8293 25.6909 54.6038 25.3928 54.6038ZM19.481 55.1119C19.481 52.0154 22.1256 49.5088 25.3928 49.5088C28.6599 49.5088 31.3045 52.0154 31.3045 55.1119C31.3045 58.2084 28.6599 60.715 25.3928 60.715C22.1256 60.715 19.481 58.2084 19.481 55.1119Z" fill="white"/>
<path opacity="0.4" fill-rule="evenodd" clip-rule="evenodd" d="M46.8989 54.6038C46.6007 54.6038 46.3628 54.8293 46.3628 55.1119C46.3628 55.3945 46.6007 55.62 46.8989 55.62C47.197 55.62 47.4349 55.3945 47.4349 55.1119C47.4349 54.8293 47.197 54.6038 46.8989 54.6038ZM40.9871 55.1119C40.9871 52.0154 43.6317 49.5088 46.8989 49.5088C50.166 49.5088 52.8106 52.0154 52.8106 55.1119C52.8106 58.2084 50.166 60.715 46.8989 60.715C43.6317 60.715 40.9871 58.2084 40.9871 55.1119Z" fill="white"/>
<path opacity="0.4" fill-rule="evenodd" clip-rule="evenodd" d="M68.404 54.6038C68.1058 54.6038 67.8679 54.8293 67.8679 55.1119C67.8679 55.3945 68.1058 55.62 68.404 55.62C68.7022 55.62 68.9401 55.3945 68.9401 55.1119C68.9401 54.8293 68.7022 54.6038 68.404 54.6038ZM62.4922 55.1119C62.4922 52.0154 65.1369 49.5088 68.404 49.5088C71.6711 49.5088 74.3158 52.0154 74.3158 55.1119C74.3158 58.2084 71.6711 60.715 68.404 60.715C65.1369 60.715 62.4922 58.2084 62.4922 55.1119Z" fill="white"/>
</svg>
