<svg width="49" height="38" viewBox="0 0 49 38" fill="none" xmlns="http://www.w3.org/2000/svg">
<path opacity="0.1" fill-rule="evenodd" clip-rule="evenodd" d="M8.2605 24.8677H33.462L38.2072 32.8812H3.54297L8.2605 24.8677ZM9.28728 26.7193L6.74981 31.0296H34.9907L32.4383 26.7193H9.28728Z" fill="white"/>
<path opacity="0.1" fill-rule="evenodd" clip-rule="evenodd" d="M34.9956 24.8677H40.7399L45.4575 32.8812H39.7131L34.9956 24.8677ZM38.2025 26.7193L40.7399 31.0296H42.2506L39.7131 26.7193H38.2025Z" fill="white"/>
<path fill-rule="evenodd" clip-rule="evenodd" d="M0 34.438C0 34.2676 0.135401 34.1294 0.302427 34.1294H48.6976C48.8646 34.1294 49 34.2676 49 34.438V36.8984C49 37.0689 48.8646 37.207 48.6976 37.207H0.302427C0.135401 37.207 0 37.0689 0 36.8984V34.438ZM0.604854 34.7466V36.5898H48.3951V34.7466H0.604854Z" fill="white"/>
<path fill-rule="evenodd" clip-rule="evenodd" d="M6.07676 23.1828C6.13008 23.0847 6.23132 23.0239 6.3412 23.0239H42.6376C42.7474 23.0239 42.8487 23.0847 42.902 23.1828L48.9407 34.2874C49.0218 34.4364 48.9691 34.6243 48.823 34.707C48.677 34.7897 48.4929 34.7359 48.4118 34.5869L42.4595 23.6411H6.51925L0.566924 34.5869C0.485882 34.7359 0.30179 34.7897 0.155743 34.707C0.00969548 34.6243 -0.0430018 34.4364 0.0380401 34.2874L6.07676 23.1828Z" fill="white"/>
<path fill-rule="evenodd" clip-rule="evenodd" d="M6.03857 1.10206C6.03857 0.931621 6.17398 0.793457 6.341 0.793457H42.6373C42.8044 0.793457 42.9398 0.931621 42.9398 1.10206V23.333C42.9398 23.5034 42.8044 23.6416 42.6373 23.6416C42.4703 23.6416 42.3349 23.5034 42.3349 23.333V1.41065H6.64343V23.333C6.64343 23.5034 6.50803 23.6416 6.341 23.6416C6.17398 23.6416 6.03857 23.5034 6.03857 23.333V1.10206Z" fill="white"/>
<path fill-rule="evenodd" clip-rule="evenodd" d="M12.0989 8.5044C12.0989 8.33397 12.2343 8.1958 12.4013 8.1958H19.6563C19.8233 8.1958 19.9587 8.33397 19.9587 8.5044V15.9075C19.9587 16.0779 19.8233 16.2161 19.6563 16.2161H12.4013C12.2343 16.2161 12.0989 16.0779 12.0989 15.9075V8.5044ZM12.7037 8.813V15.5989H19.3539V8.813H12.7037Z" fill="white"/>
<path fill-rule="evenodd" clip-rule="evenodd" d="M22.9812 8.5044C22.9812 8.33397 23.1166 8.1958 23.2836 8.1958H35.3824C35.5494 8.1958 35.6848 8.33397 35.6848 8.5044C35.6848 8.67483 35.5494 8.813 35.3824 8.813H23.2836C23.1166 8.813 22.9812 8.67483 22.9812 8.5044Z" fill="white"/>
<path fill-rule="evenodd" clip-rule="evenodd" d="M22.9812 12.2075C22.9812 12.0371 23.1166 11.8989 23.2836 11.8989H35.3824C35.5494 11.8989 35.6848 12.0371 35.6848 12.2075C35.6848 12.378 35.5494 12.5161 35.3824 12.5161H23.2836C23.1166 12.5161 22.9812 12.378 22.9812 12.2075Z" fill="white"/>
<path fill-rule="evenodd" clip-rule="evenodd" d="M22.9812 15.9087C22.9812 15.7383 23.1166 15.6001 23.2836 15.6001H35.3824C35.5494 15.6001 35.6848 15.7383 35.6848 15.9087C35.6848 16.0791 35.5494 16.2173 35.3824 16.2173H23.2836C23.1166 16.2173 22.9812 16.0791 22.9812 15.9087Z" fill="white"/>
<path opacity="0.4" fill-rule="evenodd" clip-rule="evenodd" d="M42.6377 3.88535H6.34131V0.799316H42.6377V3.88535Z" fill="white"/>
</svg>
