<svg width="106" height="36" viewBox="0 0 106 36" fill="none" xmlns="http://www.w3.org/2000/svg">
<path d="M10.5746 9.83537C11.5598 10.0046 12.5733 9.85596 13.4684 9.41088C14.3635 8.9658 15.0938 8.2474 15.5534 7.35969C16.013 6.47198 16.1782 5.46103 16.0251 4.47318C15.8719 3.48534 15.4084 2.57186 14.7015 1.86501C13.9946 1.15815 13.0812 0.694591 12.0933 0.541437C11.1055 0.388283 10.0945 0.553482 9.20682 1.01312C8.31911 1.47276 7.60072 2.20299 7.15563 3.09808C6.71055 3.99318 6.56188 5.00669 6.73114 5.9919C6.89643 6.95103 7.35465 7.83545 8.04286 8.52365C8.73106 9.21186 9.61548 9.67008 10.5746 9.83537Z" fill="#540494"/>
<path d="M21.3917 17.6044L15.1828 11.3972C15.1143 11.3119 15.0371 11.2341 14.9524 11.1651L14.9046 11.119C14.7761 10.9907 14.6074 10.9105 14.4267 10.892C14.2918 10.8499 14.1516 10.8274 14.0103 10.8254H8.20753C8.06807 10.8277 7.92962 10.8496 7.79622 10.8903C7.60993 10.9058 7.43517 10.9868 7.30299 11.119L7.20571 11.2163C7.16336 11.2535 7.12346 11.2934 7.08624 11.3357L0.817565 17.6044C0.666655 17.7557 0.581909 17.9607 0.581909 18.1744C0.581909 18.3882 0.666655 18.5932 0.817565 18.7445L1.42344 19.3521C1.5752 19.5021 1.78003 19.5863 1.99348 19.5863C2.20692 19.5863 2.41175 19.5021 2.56351 19.3521L6.70223 15.2202V33.7326C6.70358 34.2048 6.89174 34.6572 7.2256 34.9911C7.55945 35.3249 8.01187 35.5131 8.48402 35.5144H8.90386C9.376 35.5131 9.82842 35.3249 10.1623 34.9911C10.4961 34.6572 10.6843 34.2048 10.6856 33.7326V24.7606H11.539V33.7326C11.5403 34.2048 11.7285 34.6572 12.0624 34.9911C12.3962 35.3249 12.8486 35.5131 13.3208 35.5144H13.7423C14.2145 35.5131 14.6669 35.3249 15.0007 34.9911C15.3346 34.6572 15.5228 34.2048 15.5241 33.7326V15.2372L19.6441 19.3589C19.7959 19.5095 20.0011 19.594 20.215 19.594C20.4288 19.594 20.634 19.5095 20.7858 19.3589L21.3917 18.7513C21.4675 18.6763 21.5276 18.5869 21.5686 18.4885C21.6097 18.3901 21.6308 18.2845 21.6308 18.1779C21.6308 18.0712 21.6097 17.9656 21.5686 17.8672C21.5276 17.7688 21.4675 17.6795 21.3917 17.6044Z" fill="#540494"/>
<path d="M31.5225 9.83537C32.5078 10.0046 33.5213 9.85596 34.4164 9.41088C35.3115 8.9658 36.0417 8.2474 36.5013 7.35969C36.961 6.47198 37.1262 5.46103 36.973 4.47318C36.8199 3.48534 36.3563 2.57186 35.6494 1.86501C34.9426 1.15815 34.0291 0.694591 33.0413 0.541437C32.0534 0.388283 31.0425 0.553482 30.1548 1.01312C29.2671 1.47276 28.5487 2.20299 28.1036 3.09808C27.6585 3.99318 27.5098 5.00669 27.6791 5.9919C27.8444 6.95103 28.3026 7.83545 28.9908 8.52365C29.679 9.21186 30.5634 9.67008 31.5225 9.83537Z" fill="#B571FF"/>
<path d="M42.3396 17.6044L36.1324 11.3972C36.0629 11.3123 35.9852 11.2346 35.9003 11.1651L35.8525 11.119C35.724 10.9907 35.5553 10.9105 35.3746 10.892C35.2398 10.8499 35.0995 10.8274 34.9582 10.8254H29.1555C29.016 10.8277 28.8776 10.8496 28.7442 10.8903C28.5581 10.9065 28.3835 10.9874 28.2509 11.119L28.1536 11.2163C28.1113 11.2535 28.0714 11.2934 28.0342 11.3357L21.7655 17.6044C21.6146 17.7557 21.5298 17.9607 21.5298 18.1744C21.5298 18.3882 21.6146 18.5932 21.7655 18.7445L22.3714 19.3521C22.5234 19.5023 22.7285 19.5865 22.9423 19.5865C23.156 19.5865 23.3611 19.5023 23.5132 19.3521L27.6433 15.2202V33.7326C27.6447 34.2048 27.8328 34.6572 28.1667 34.9911C28.5006 35.3249 28.953 35.5131 29.4251 35.5144H29.845C30.3171 35.5131 30.7695 35.3249 31.1034 34.9911C31.4372 34.6572 31.6254 34.2048 31.6268 33.7326V24.7606H32.4801V33.7326C32.4815 34.2048 32.6696 34.6572 33.0035 34.9911C33.3373 35.3249 33.7897 35.5131 34.2619 35.5144H34.692C35.1641 35.5131 35.6165 35.3249 35.9504 34.9911C36.2842 34.6572 36.4724 34.2048 36.4738 33.7326V15.2372L40.5937 19.3589C40.7455 19.5095 40.9507 19.594 41.1646 19.594C41.3784 19.594 41.5836 19.5095 41.7355 19.3589L42.3414 18.7513C42.417 18.6761 42.477 18.5867 42.5179 18.4882C42.5588 18.3898 42.5797 18.2841 42.5796 18.1775C42.5794 18.0709 42.5581 17.9653 42.517 17.867C42.4758 17.7686 42.4155 17.6794 42.3396 17.6044Z" fill="#B571FF"/>
<path d="M52.4704 9.83537C53.4556 10.0046 54.4692 9.85596 55.3642 9.41088C56.2593 8.9658 56.9896 8.2474 57.4492 7.35969C57.9088 6.47198 58.074 5.46103 57.9209 4.47318C57.7677 3.48534 57.3042 2.57186 56.5973 1.86501C55.8905 1.15815 54.977 0.694591 53.9891 0.541437C53.0013 0.388283 51.9903 0.553482 51.1026 1.01312C50.2149 1.47276 49.4965 2.20299 49.0514 3.09808C48.6064 3.99318 48.4577 5.00669 48.627 5.9919C48.7922 6.95103 49.2505 7.83545 49.9387 8.52365C50.6269 9.21186 51.5113 9.67008 52.4704 9.83537Z" fill="#F0F0F0"/>
<path d="M63.2875 17.6044L57.0803 11.3972C57.0108 11.3123 56.933 11.2346 56.8482 11.1651L56.8021 11.119C56.6732 10.9912 56.5047 10.9112 56.3242 10.892C56.1888 10.8499 56.0479 10.8274 55.9061 10.8254H50.1033C49.9633 10.8277 49.8243 10.8495 49.6903 10.8903C49.5042 10.9065 49.3297 10.9874 49.1971 11.119L49.0998 11.2163C49.0575 11.2535 49.0176 11.2934 48.9803 11.3357L42.7134 17.6044C42.5625 17.7557 42.4777 17.9607 42.4777 18.1744C42.4777 18.3882 42.5625 18.5932 42.7134 18.7445L43.3192 19.3521C43.4713 19.5023 43.6764 19.5865 43.8901 19.5865C44.1039 19.5865 44.309 19.5023 44.461 19.3521L48.5912 15.2202V33.7326C48.5926 34.2048 48.7807 34.6572 49.1146 34.9911C49.4484 35.3249 49.9009 35.5131 50.373 35.5144H50.7928C51.265 35.5131 51.7174 35.3249 52.0513 34.9911C52.3851 34.6572 52.5733 34.2048 52.5746 33.7326V24.7606H53.428V33.7326C53.4293 34.2048 53.6175 34.6572 53.9513 34.9911C54.2852 35.3249 54.7376 35.5131 55.2098 35.5144H55.6296C56.1017 35.5131 56.5542 35.3249 56.888 34.9911C57.2219 34.6572 57.41 34.2048 57.4114 33.7326V15.2372L61.5313 19.3589C61.6832 19.5095 61.8884 19.594 62.1022 19.594C62.3161 19.594 62.5213 19.5095 62.6731 19.3589L63.279 18.7513C63.3553 18.6768 63.4161 18.5879 63.4579 18.4898C63.4996 18.3917 63.5216 18.2863 63.5223 18.1796C63.5231 18.073 63.5028 17.9673 63.4625 17.8685C63.4222 17.7698 63.3627 17.68 63.2875 17.6044Z" fill="#F0F0F0"/>
<path d="M73.4184 9.83537C74.4036 10.0046 75.4171 9.85596 76.3122 9.41088C77.2073 8.9658 77.9375 8.2474 78.3971 7.35969C78.8568 6.47198 79.022 5.46103 78.8688 4.47318C78.7157 3.48534 78.2521 2.57186 77.5453 1.86501C76.8384 1.15815 75.9249 0.694591 74.9371 0.541437C73.9492 0.388283 72.9383 0.553482 72.0506 1.01312C71.1629 1.47276 70.4445 2.20299 69.9994 3.09808C69.5543 3.99318 69.4056 5.00669 69.5749 5.9919C69.7402 6.95103 70.1984 7.83545 70.8866 8.52365C71.5748 9.21186 72.4592 9.67008 73.4184 9.83537Z" fill="#540494"/>
<path d="M84.2354 17.6044L78.0282 11.3972C77.9587 11.3123 77.8809 11.2346 77.7961 11.1651L77.75 11.119C77.6213 10.9909 77.4527 10.9108 77.2721 10.892C77.1366 10.8499 76.9958 10.8274 76.854 10.8254H71.0512C70.9112 10.8279 70.7722 10.8497 70.6382 10.8903C70.4521 10.9065 70.2776 10.9874 70.145 11.119L70.0477 11.2163C70.0053 11.2535 69.9654 11.2934 69.9282 11.3357L63.6595 17.6044C63.5086 17.7557 63.4239 17.9607 63.4239 18.1744C63.4239 18.3882 63.5086 18.5932 63.6595 18.7445L64.2654 19.3521C64.4175 19.5022 64.6226 19.5865 64.8363 19.5865C65.05 19.5865 65.2551 19.5022 65.4072 19.3521L69.5374 15.2202V33.7326C69.5387 34.2048 69.7269 34.6572 70.0607 34.991C70.3946 35.3249 70.847 35.5131 71.3192 35.5144H71.739C72.2112 35.5131 72.6636 35.3249 72.9974 34.991C73.3313 34.6572 73.5195 34.2048 73.5208 33.7326V24.7606H74.3741V33.7326C74.3755 34.2063 74.5648 34.66 74.9005 34.9941C75.2362 35.3282 75.6908 35.5153 76.1645 35.5144H76.5843C77.0565 35.5131 77.5089 35.3249 77.8427 34.991C78.1766 34.6572 78.3647 34.2048 78.3661 33.7326V15.2372L82.486 19.3589C82.6379 19.5095 82.8431 19.594 83.0569 19.594C83.2708 19.594 83.476 19.5095 83.6278 19.3589L84.2337 18.7513C84.3096 18.6764 84.3698 18.5871 84.411 18.4888C84.4522 18.3904 84.4735 18.2849 84.4736 18.1782C84.4738 18.0716 84.4528 17.966 84.4119 17.8675C84.371 17.769 84.311 17.6796 84.2354 17.6044Z" fill="#540494"/>
<path d="M94.3663 9.83537C95.3515 10.0046 96.365 9.85596 97.2601 9.41088C98.1552 8.9658 98.8854 8.2474 99.3451 7.35969C99.8047 6.47198 99.9699 5.46103 99.8168 4.47318C99.6636 3.48534 99.2 2.57186 98.4932 1.86501C97.7863 1.15815 96.8729 0.694591 95.885 0.541437C94.8972 0.388283 93.8862 0.553482 92.9985 1.01312C92.1108 1.47276 91.3924 2.20299 90.9473 3.09808C90.5022 3.99318 90.3536 5.00669 90.5228 5.9919C90.6881 6.95103 91.1463 7.83545 91.8345 8.52365C92.5228 9.21186 93.4072 9.67008 94.3663 9.83537Z" fill="#B571FF"/>
<path d="M105.178 17.6044L98.9763 11.3972C98.9074 11.3124 98.8302 11.2346 98.7459 11.1651L98.6981 11.119C98.5695 10.9909 98.4008 10.9108 98.2202 10.892C98.0854 10.8499 97.9451 10.8274 97.8038 10.8254H92.0011C91.861 10.8279 91.722 10.8497 91.588 10.8903C91.4019 10.9065 91.2274 10.9874 91.0948 11.119L90.9975 11.2163C90.9552 11.2535 90.9153 11.2934 90.8781 11.3357L84.6128 17.6044C84.4619 17.7557 84.3771 17.9607 84.3771 18.1744C84.3771 18.3882 84.4619 18.5932 84.6128 18.7445L85.2187 19.3521C85.3707 19.5023 85.5758 19.5865 85.7896 19.5865C86.0033 19.5865 86.2084 19.5023 86.3604 19.3521L90.4906 15.2202V33.7326C90.492 34.2048 90.6801 34.6572 91.014 34.9911C91.3479 35.3249 91.8003 35.5131 92.2724 35.5144H92.694C93.1661 35.5131 93.6185 35.3249 93.9524 34.9911C94.2862 34.6572 94.4744 34.2048 94.4758 33.7326V24.7606H95.3291V33.7326C95.3304 34.2048 95.5186 34.6572 95.8525 34.9911C96.1863 35.3249 96.6387 35.5131 97.1109 35.5144H97.5307C98.0029 35.5131 98.4553 35.3249 98.7892 34.9911C99.123 34.6572 99.3112 34.2048 99.3125 33.7326V15.2372L103.432 19.3589C103.584 19.5095 103.789 19.594 104.003 19.594C104.217 19.594 104.422 19.5095 104.574 19.3589L105.18 18.7513C105.256 18.6761 105.316 18.5867 105.357 18.4882C105.398 18.3898 105.418 18.2841 105.418 18.1775C105.418 18.0709 105.397 17.9653 105.356 17.867C105.315 17.7686 105.254 17.6794 105.178 17.6044Z" fill="#B571FF"/>
</svg>
