<svg width="88" height="92" viewBox="0 0 88 92" fill="none" xmlns="http://www.w3.org/2000/svg">
<path d="M83.8842 50.1478C86.0673 27.0335 69.9802 6.43858 47.9525 4.14777C25.9248 1.85695 6.29812 18.7377 4.115 41.852C1.93188 64.9663 18.0191 85.5612 40.0467 87.852C62.0744 90.1428 81.7011 73.2621 83.8842 50.1478Z" fill="#540494"/>
<path d="M71.1753 23.3359H15.4453V62.3081H71.1753V23.3359Z" fill="black"/>
<path d="M68.7757 25.8538H17.8457V58.0262H68.7757V25.8538Z" fill="white"/>
<path d="M55.5057 25.8538H17.8457V58.0262H25.3557L55.5057 25.8538Z" fill="#E8E8E8"/>
<path d="M48.3461 62.3076H38.2861V65.8334H48.3461V62.3076Z" fill="black"/>
<path d="M50.5055 65.8337H36.1055V69.5484H50.5055V65.8337Z" fill="#D4A0FD"/>
<path d="M57.576 32.6018C57.576 32.6018 52.316 31.9093 50.866 35.0887C49.416 38.2682 48.766 44.05 47.316 44.3333C45.866 44.6166 57.576 46.8202 61.396 37.9849C65.216 29.1495 57.576 32.6018 57.576 32.6018Z" fill="#4B4B55"/>
<path d="M63.2363 27.9528C65.4634 26.1743 67.7765 24.5177 70.1663 22.9894C73.1558 21.1132 76.2629 19.4515 79.4663 18.0156C77.7088 20.9696 75.65 23.714 73.3263 26.2004C70.2063 29.4218 67.0963 32.6013 67.0963 32.6013L63.2363 27.9528Z" fill="#D4A0FD"/>
<path d="M74.7164 21.0591C70.5727 23.208 66.694 25.879 63.1664 29.013C58.5664 33.4307 64.3964 29.5587 64.3964 29.5587C67.6008 26.4239 71.0532 23.5805 74.7164 21.0591Z" fill="#A15980"/>
<path d="M63.2432 27.5075L57.5 32.5198L61.5988 37.6912L67.3421 32.6789L63.2432 27.5075Z" fill="#132242"/>
<path d="M59.4154 30.8551L57.501 32.5259L61.5998 37.6973L63.5142 36.0265L59.4154 30.8551Z" fill="#14B0BF"/>
<path d="M63.1463 28.2363L59.9863 30.9436L60.7363 31.867L63.8063 29.1073L63.1463 28.2363Z" fill="#F3B01E"/>
<path d="M56.8357 33.3775C56.8357 33.3775 53.3257 32.7793 52.1657 34.9619C51.0057 37.1446 54.1657 35.9168 56.8357 33.3775Z" fill="#7C7C8C"/>
</svg>
