<svg width="76" height="62" viewBox="0 0 76 62" fill="none" xmlns="http://www.w3.org/2000/svg">
<path opacity="0.1" d="M67.3079 30.434C67.7277 31.6565 67.9538 32.9869 67.9861 34.3892C68.0507 37.4815 67.0172 40.358 65.3379 42.4794C64.5305 48.0527 60.2998 52.3315 55.1325 52.4394C52.3873 52.5113 49.8359 51.3606 47.9305 49.455C44.3457 48.8077 41.3745 46.147 39.9535 42.4794C37.6282 41.8322 35.5936 40.322 34.1403 38.2366C32.9453 38.7759 31.6535 39.0995 30.2971 39.1355C27.7134 39.2074 25.3559 38.2006 23.515 36.5106C22.3524 37.05 21.0928 37.3376 19.7687 37.3736C13.9555 37.5174 9.14342 32.3038 9.04654 25.7597C8.94965 20.2224 12.2115 15.512 16.7329 14.1097C18.5738 10.8737 21.771 8.6803 25.4205 8.60839C25.9695 8.60839 26.5508 8.64437 27.0998 8.71628C28.9407 6.73867 31.4274 5.51621 34.1403 5.44429C36.2395 5.40834 38.1772 6.05548 39.8566 7.17013C41.0838 6.59483 42.408 6.23528 43.829 6.19933C46.5095 6.12741 48.9963 7.20616 50.8694 9.03994C51.1601 9.00398 51.4507 8.96796 51.7737 8.96796C56.0367 8.86009 59.7507 11.6647 61.4947 15.7278C65.1764 17.5256 67.7923 21.5887 67.8892 26.4068C67.8892 27.8451 67.6954 29.2115 67.3079 30.434Z" fill="white"/>
<path fill-rule="evenodd" clip-rule="evenodd" d="M38.9807 12.0343C37.8323 11.2941 36.4664 10.9201 35.0324 10.9878C33.1526 11.0894 31.4842 12.0005 30.2689 13.3874L30.1195 13.5579L29.8754 13.537C29.462 13.5016 29.1184 13.4721 28.7491 13.5038L28.736 13.5049C26.2191 13.6399 24.0625 15.2264 22.8765 17.4948L22.7876 17.6648L22.6192 17.7243C19.5536 18.8056 17.3944 22.1205 17.5769 25.9127C17.79 30.4202 21.197 33.8654 25.1693 33.6291L25.1785 33.6285C26.084 33.5949 26.9285 33.3602 27.7148 32.9561L27.9659 32.8271L28.1853 33.0146C29.4892 34.1287 31.1254 34.7366 32.8859 34.636C33.8358 34.5674 34.7155 34.3291 35.498 33.927L35.8175 33.7628L36.0422 34.0644C37.0793 35.4568 38.5083 36.4689 40.1105 36.8392L40.3339 36.8908L40.4314 37.1205C41.4645 39.5564 43.562 41.3154 46.0215 41.6873L46.1534 41.7073L46.2552 41.8029C47.623 43.0889 49.3834 43.7981 51.2661 43.6968C54.8144 43.4937 57.6429 40.4185 58.0686 36.5923L58.0853 36.4425L58.1726 36.3269C59.2922 34.8445 59.9321 32.8513 59.8422 30.7165C59.7805 29.7637 59.5973 28.8824 59.2928 28.0349L59.2317 27.8648L59.2819 27.6903C59.5207 26.8595 59.6139 25.9504 59.5834 24.955C59.4299 21.6369 57.5446 18.8991 54.9968 17.7847L54.8369 17.7148L54.7578 17.545C53.4788 14.7988 50.8637 12.9763 47.9537 13.145L47.9418 13.1457H47.9299C47.7641 13.1457 47.6221 13.1685 47.4234 13.2005C47.3994 13.2044 47.3745 13.2084 47.3487 13.2125L47.1497 13.2441L46.9941 13.1024C45.6577 11.885 43.9596 11.2098 42.1069 11.3113L42.0987 11.3117C41.1334 11.3453 40.227 11.6138 39.4086 12.0525L39.1904 12.1695L38.9807 12.0343Z" stroke="white" stroke-width="2.00438" stroke-miterlimit="10"/>
<path fill-rule="evenodd" clip-rule="evenodd" d="M33.3654 1.53143C30.0947 1.53143 27.0722 2.95327 24.8282 5.2782L24.6681 5.44405L24.4516 5.40962C23.7875 5.304 23.1319 5.23496 22.4494 5.23496C18.0259 5.23496 14.1612 7.76551 11.8836 11.6213L11.7872 11.7845L11.6175 11.8342C6.16532 13.4298 2.14104 19.0177 2.14104 25.652C2.14104 33.5384 7.81902 39.9204 14.7954 39.9204C16.4214 39.9204 17.9456 39.6073 19.3405 38.9861L19.5979 38.8714L19.8084 39.0723C21.9888 41.1531 24.8229 42.4015 27.9074 42.4015C29.5278 42.4015 31.0861 42.0546 32.5204 41.4297L32.8467 41.2875L33.0551 41.6012C34.7395 44.1363 37.1393 46.0091 39.9424 46.8413L40.162 46.9065L40.2481 47.1406C41.8698 51.5503 45.4251 54.8467 49.6922 55.7136L49.824 55.7404L49.922 55.8421C52.1989 58.2034 55.1892 59.6246 58.5237 59.6246C64.7531 59.6246 69.9305 54.5608 70.9912 47.892L71.0145 47.7457L71.1047 47.6363C73.1933 45.1027 74.4721 41.7011 74.4721 37.9491C74.4721 36.2803 74.2224 34.6831 73.7549 33.1909L73.7023 33.0231L73.7549 32.8552C74.2253 31.3538 74.5017 29.7653 74.4403 28.1911L74.4398 28.18V28.1689C74.4398 22.367 71.3822 17.3691 66.9897 15.1493L66.8305 15.0689L66.76 14.8907C64.7957 9.92659 60.3699 6.49344 55.2295 6.49344C54.8699 6.49344 54.5037 6.49376 54.1729 6.52725L53.9734 6.54744L53.8247 6.398C51.58 4.14185 48.6524 2.7899 45.4116 2.7899C43.691 2.7899 42.0733 3.13812 40.6173 3.82791L40.3929 3.93424L40.1884 3.78611C38.2252 2.36359 35.8892 1.53143 33.3654 1.53143ZM24.3658 4.36764C26.755 1.97188 29.9318 0.512207 33.3654 0.512207C35.9864 0.512207 38.4204 1.34943 40.4835 2.78669C42.0031 2.10744 43.6661 1.77068 45.4116 1.77068C48.8178 1.77068 51.9045 3.16492 54.2908 5.49545C54.6063 5.47421 54.9311 5.47421 55.2179 5.47421H55.2295C60.6852 5.47421 65.387 9.07874 67.5265 14.3027C72.1533 16.7229 75.3514 22.0248 75.3553 28.1578C75.419 29.8271 75.1376 31.483 74.6709 33.0232C75.1389 34.5749 75.3876 36.2283 75.3876 37.9491C75.3876 41.9098 74.0547 45.5115 71.8688 48.2157C70.6815 55.2822 65.1668 60.6438 58.5237 60.6438C54.9947 60.6438 51.8223 59.1572 49.3963 56.6888C44.9484 55.7337 41.2463 52.321 39.4884 47.7592C36.6862 46.8707 34.2748 45.0093 32.5291 42.5151C31.0826 43.0987 29.524 43.4207 27.9074 43.4207C24.6958 43.4207 21.7349 42.1587 19.4234 40.0431C17.9833 40.6423 16.4303 40.9396 14.7954 40.9396C7.30325 40.9396 1.22559 34.0899 1.22559 25.652C1.22559 18.6194 5.45078 12.6766 11.2158 10.8992C13.6654 6.86372 17.7635 4.21574 22.4494 4.21574C23.1115 4.21574 23.7433 4.27585 24.3658 4.36764Z" fill="white" stroke="white" stroke-width="1.00219" stroke-miterlimit="10"/>
<path opacity="0.4" fill-rule="evenodd" clip-rule="evenodd" d="M38.2276 20.5795C37.9163 20.4145 37.481 20.2995 36.9387 20.3218L36.93 20.3222L36.9213 20.3225C36.2955 20.343 35.7606 20.5934 35.4373 20.8906L34.6575 21.6079L33.6561 21.4487C33.6188 21.4427 33.5582 21.4386 33.3287 21.4383C32.4654 21.4655 31.869 21.8909 31.587 22.3142L31.0957 23.0515L30.2949 23.2704C29.1957 23.571 28.925 24.354 28.9355 24.6512L28.936 24.6662L28.936 24.6662C28.9413 24.8431 29.0252 25.1351 29.384 25.4367C29.7424 25.7379 30.3063 25.9714 30.9926 25.9454C31.3475 25.9202 31.6577 25.8514 31.9318 25.7496L32.9545 25.3701L33.8686 26.0062C34.2251 26.2543 34.7397 26.4332 35.396 26.4111L35.4307 26.4099H35.4653C35.7006 26.4099 35.954 26.3544 36.3241 26.2171L37.7068 25.7039L38.7093 26.882C38.9277 27.1387 39.3065 27.3931 39.8139 27.4873L40.9132 27.6913L41.4469 28.7805C41.6019 29.0969 42.1197 29.5906 42.9846 29.6976L43.5816 29.7714L44.0691 30.1622C44.4112 30.4364 44.9328 30.6397 45.6351 30.6179C46.9477 30.5718 47.5235 29.6892 47.5818 29.3145L47.7105 28.4862L48.2566 27.9058C48.543 27.6015 48.6123 27.3566 48.6157 27.1521C48.5995 26.9889 48.5662 26.8688 48.5285 26.7763L48.116 25.7661L48.4752 24.8064L48.4587 24.7331L48.453 24.4481C48.4481 24.2009 48.2519 23.635 47.3971 23.3312L46.5696 23.0372L46.1257 22.206C45.9158 21.8129 45.2447 21.265 44.2173 21.2913C44.1821 21.2965 44.1184 21.3057 44.0461 21.3133C43.9664 21.3218 43.8584 21.3304 43.733 21.3304H43.04L42.4635 20.9024C42.1277 20.6532 41.5826 20.4502 40.9224 20.4656C40.5181 20.4932 40.2412 20.5648 40.0616 20.6448L39.1318 21.0589L38.2276 20.5795ZM39.2987 15.5889C38.4981 15.3122 37.6438 15.1941 36.7779 15.2288C35.5448 15.2708 34.3359 15.6589 33.3114 16.3421C33.308 16.3421 33.3047 16.3421 33.3015 16.3421H33.2771L33.2528 16.3427C31.3863 16.3869 29.6549 17.1996 28.4437 18.5819C26.1757 19.5219 24.2579 21.8108 24.3614 24.8435C24.4864 28.8749 28.0028 31.1808 31.1981 31.0365L31.219 31.0356L31.2398 31.0342C31.6281 31.0088 32.0115 30.9559 32.3884 30.8739C33.3489 31.3255 34.4104 31.5378 35.5011 31.506C35.8547 31.5037 36.1865 31.4679 36.4948 31.4121C36.9736 31.7591 37.4992 32.0381 38.0558 32.2402C39.0239 33.5189 40.4278 34.3469 41.9008 34.6645C43.0661 35.4242 44.4125 35.7551 45.7684 35.7119L45.7734 35.7118C48.4153 35.6213 51.0801 33.8811 51.9111 31.0035C52.7359 29.8975 53.2388 28.5058 53.1899 26.9286L53.1883 26.8747L53.1845 26.8209C53.157 26.4227 53.0989 26.029 53.0074 25.6431C53.0864 25.1595 53.105 24.6295 53.0192 24.078C52.8741 21.5764 51.3581 19.7324 49.5584 18.8092C48.3091 17.1268 46.3139 16.1925 44.2721 16.1944C43.2105 15.6124 41.9888 15.3321 40.7591 15.3724L40.7293 15.3734L40.6994 15.3752C40.251 15.4029 39.7769 15.466 39.2987 15.5889Z" fill="white"/>
</svg>
