<svg width="723" height="656" viewBox="0 0 723 656" fill="none" xmlns="http://www.w3.org/2000/svg">
<path d="M493.947 454.743L379.34 594.578C375.878 598.803 371.522 602.207 366.585 604.544C361.648 606.881 356.254 608.093 350.792 608.093C345.33 608.093 339.936 606.881 335 604.544C330.063 602.207 325.706 598.803 322.244 594.578L245.846 501.4" stroke="#50028C" stroke-width="94.3042" stroke-linecap="round" stroke-linejoin="round"/>
<path d="M646.183 157.1C654.983 184.569 656.047 213.932 649.258 241.967C642.468 270.002 628.088 295.625 607.695 316.025" stroke="#50028C" stroke-width="94.3042" stroke-linecap="round" stroke-linejoin="round"/>
<path d="M448.6 55.5212C468.243 49.2134 488.937 46.8373 509.498 48.5287C530.06 50.2201 550.087 55.9458 568.436 65.3787C586.784 74.8116 603.094 87.7669 616.435 103.505C629.775 119.242 639.885 137.454 646.186 157.1" stroke="#530493" stroke-width="94.3042" stroke-linecap="round" stroke-linejoin="round"/>
<path d="M245.849 501.4L93.9866 316.025C79.4088 301.449 67.8446 284.146 59.9542 265.101C52.0638 246.057 48.0018 225.645 48 205.03C47.9982 184.416 52.0567 164.003 59.9438 144.957C67.8309 125.912 79.3921 108.606 93.9673 94.0281C108.543 79.4503 125.846 67.8861 144.891 59.9957C163.935 52.1053 184.347 48.0433 204.962 48.0415C225.576 48.0397 245.989 52.0982 265.034 59.9853C284.08 67.8724 301.386 79.4336 315.964 94.0089L350.795 128.84L385.626 94.0089C403.255 76.345 424.85 63.1494 448.611 55.5213" stroke="#7707D0" stroke-width="94.3042" stroke-linecap="round" stroke-linejoin="round"/>
<path d="M459 377.739H682.497" stroke="#F1F1F1" stroke-width="80.824" stroke-linecap="round" stroke-linejoin="round"/>
<path d="M570.744 266V489.488" stroke="#F1F1F1" stroke-width="80.824" stroke-linecap="round" stroke-linejoin="round"/>
</svg>
