<svg width="49" height="49" viewBox="0 0 49 49" fill="none" xmlns="http://www.w3.org/2000/svg">
<path opacity="0.2" fill-rule="evenodd" clip-rule="evenodd" d="M27.5169 35.9473H7.92603V32.9417H27.5169V35.9473Z" fill="white"/>
<path opacity="0.2" fill-rule="evenodd" clip-rule="evenodd" d="M27.5169 27.4297H7.92603V24.4241H27.5169V27.4297Z" fill="white"/>
<path opacity="0.2" fill-rule="evenodd" clip-rule="evenodd" d="M27.5169 18.914H7.92603V15.9084H27.5169V18.914Z" fill="white"/>
<path fill-rule="evenodd" clip-rule="evenodd" d="M6.03394 42.9587C6.03394 42.7627 6.20261 42.6038 6.41068 42.6038H18.4789C18.6869 42.6038 18.8556 42.7627 18.8556 42.9587V45.789C18.8556 45.985 18.6869 46.144 18.4789 46.144H6.41068C6.20261 46.144 6.03394 45.985 6.03394 45.789V42.9587ZM6.78743 43.3137V45.434H18.1021V43.3137H6.78743Z" fill="white"/>
<path fill-rule="evenodd" clip-rule="evenodd" d="M6.03394 14.5564C6.03394 14.3603 6.20261 14.2014 6.41068 14.2014H29.0053C29.2134 14.2014 29.3821 14.3603 29.3821 14.5564V20.242C29.3821 20.438 29.2134 20.597 29.0053 20.597H6.41068C6.20261 20.597 6.03394 20.438 6.03394 20.242V14.5564ZM6.78743 14.9114V19.887H28.6286V14.9114H6.78743Z" fill="white"/>
<path fill-rule="evenodd" clip-rule="evenodd" d="M6.03394 23.072C6.03394 22.876 6.20261 22.717 6.41068 22.717H29.0053C29.2134 22.717 29.3821 22.876 29.3821 23.072V28.7576C29.3821 28.9537 29.2134 29.1126 29.0053 29.1126H6.41068C6.20261 29.1126 6.03394 28.9537 6.03394 28.7576V23.072ZM6.78743 23.427V28.4026H28.6286V23.427H6.78743Z" fill="white"/>
<path fill-rule="evenodd" clip-rule="evenodd" d="M6.03394 31.613C6.03394 31.417 6.20261 31.2581 6.41068 31.2581H29.0053C29.2134 31.2581 29.3821 31.417 29.3821 31.613V37.2986C29.3821 37.4947 29.2134 37.6536 29.0053 37.6536H6.41068C6.20261 37.6536 6.03394 37.4947 6.03394 37.2986V31.613ZM6.78743 31.968V36.9436H28.6286V31.968H6.78743Z" fill="white"/>
<path fill-rule="evenodd" clip-rule="evenodd" d="M0.0268555 0.355231C0.0268555 0.159177 0.19553 0.000244141 0.403601 0.000244141H48.6232C48.8313 0.000244141 48.9999 0.159177 48.9999 0.355231V48.6453C48.9999 48.8413 48.8313 49.0002 48.6232 49.0002H0.403601C0.19553 49.0002 0.0268555 48.8413 0.0268555 48.6453V0.355231ZM0.780346 0.710217V48.2903H48.2465V0.710217H0.780346Z" fill="white"/>
<path fill-rule="evenodd" clip-rule="evenodd" d="M0 40.1287C0 39.9326 0.168675 39.7737 0.376746 39.7737H48.6229C48.831 39.7737 48.9997 39.9326 48.9997 40.1287C48.9997 40.3247 48.831 40.4837 48.6229 40.4837H0.376746C0.168675 40.4837 0 40.3247 0 40.1287Z" fill="white"/>
<path fill-rule="evenodd" clip-rule="evenodd" d="M12.0681 7.46851C12.0681 7.27246 12.2368 7.11353 12.4449 7.11353H47.6925C47.9006 7.11353 48.0692 7.27246 48.0692 7.46851C48.0692 7.66457 47.9006 7.8235 47.6925 7.8235H12.4449C12.2368 7.8235 12.0681 7.66457 12.0681 7.46851Z" fill="white"/>
<path fill-rule="evenodd" clip-rule="evenodd" d="M9.5834 4.99029C8.0698 4.92446 6.81428 6.06582 6.81428 7.4659C6.81428 8.8248 7.97687 9.9412 9.44129 9.9412H9.52103C10.9345 9.9412 12.0683 8.87285 12.0683 7.54106C12.0683 6.18478 10.9596 5.03354 9.58822 4.99047L9.5834 4.99032L9.5834 4.99029ZM9.61574 4.28097C7.67477 4.19782 6.06079 5.66076 6.06079 7.4659C6.06079 9.2128 7.55639 10.6512 9.44129 10.6512H9.52103C11.3506 10.6512 12.8218 9.26496 12.8218 7.54106C12.8218 5.84239 11.433 4.33933 9.61574 4.28097Z" fill="white"/>
<path fill-rule="evenodd" clip-rule="evenodd" d="M9.44086 6.39772C9.23788 6.39772 9.07332 6.55277 9.07332 6.74405C9.07332 6.93533 9.23788 7.09038 9.44086 7.09038C9.64384 7.09038 9.8084 6.93533 9.8084 6.74405C9.8084 6.55277 9.64384 6.39772 9.44086 6.39772ZM8.31982 6.74405C8.31982 6.16069 8.82172 5.68774 9.44086 5.68774C10.06 5.68774 10.5619 6.16069 10.5619 6.74405C10.5619 7.32742 10.06 7.80036 9.44086 7.80036C8.82172 7.80036 8.31982 7.32742 8.31982 6.74405Z" fill="white"/>
<path fill-rule="evenodd" clip-rule="evenodd" d="M8.48425 9.22584C8.36959 9.22584 8.25572 9.26571 8.135 9.34154L7.71704 8.7508C7.91531 8.62626 8.1736 8.51587 8.48425 8.51587H10.3184C10.6445 8.51587 10.9573 8.62014 11.1962 8.84524L10.6634 9.34727C10.5833 9.2718 10.4708 9.22584 10.3184 9.22584H8.48425Z" fill="white"/>
<path fill-rule="evenodd" clip-rule="evenodd" d="M0.0266113 7.46851C0.0266113 7.27246 0.195286 7.11353 0.403357 7.11353H6.41086C6.61893 7.11353 6.78761 7.27246 6.78761 7.46851C6.78761 7.66457 6.61893 7.8235 6.41086 7.8235H0.403357C0.195286 7.8235 0.0266113 7.66457 0.0266113 7.46851Z" fill="white"/>
<path opacity="0.4" fill-rule="evenodd" clip-rule="evenodd" d="M42.5889 19.1869H33.551V15.637H42.5889V19.1869Z" fill="white"/>
<path opacity="0.4" fill-rule="evenodd" clip-rule="evenodd" d="M42.5889 27.7025H33.551V24.1526H42.5889V27.7025Z" fill="white"/>
<path opacity="0.4" fill-rule="evenodd" clip-rule="evenodd" d="M42.5889 36.2201H33.551V32.6702H42.5889V36.2201Z" fill="white"/>
<path opacity="0.4" fill-rule="evenodd" clip-rule="evenodd" d="M42.5887 46.1634H22.9978V42.6135H42.5887V46.1634Z" fill="white"/>
</svg>
