<svg width="74" height="56" viewBox="0 0 74 56" fill="none" xmlns="http://www.w3.org/2000/svg">
<path opacity="0.1" fill-rule="evenodd" clip-rule="evenodd" d="M39.488 2.75612C37.7819 2.75612 36.3989 4.1531 36.3989 5.87634C36.3989 7.59957 37.7819 8.99653 39.488 8.99653C41.194 8.99653 42.577 7.59959 42.577 5.87634C42.577 4.15309 41.194 2.75612 39.488 2.75612ZM33.7583 5.87634C33.7583 2.68002 36.3236 0.0888672 39.488 0.0888672C42.6524 0.0888672 45.2176 2.68004 45.2176 5.87634C45.2176 9.07267 42.6524 11.6638 39.488 11.6638C36.3236 11.6638 33.7583 9.07268 33.7583 5.87634Z" fill="white"/>
<path opacity="0.1" d="M33.3094 35.2383C31.3842 35.2383 29.8005 33.6073 29.8005 31.5999V22.4413C29.8005 18.7089 32.7505 15.6665 36.3525 15.6665H38.5882L33.3094 35.2383Z" fill="white"/>
<path opacity="0.1" fill-rule="evenodd" clip-rule="evenodd" d="M11.3268 15.2122C9.62076 15.2122 8.23777 16.6091 8.23777 18.3324C8.23777 20.0556 9.62078 21.4526 11.3268 21.4526C13.0328 21.4526 14.4158 20.0556 14.4158 18.3324C14.4158 16.6091 13.0328 15.2122 11.3268 15.2122ZM5.59717 18.3324C5.59717 15.136 8.1624 12.5449 11.3268 12.5449C14.4912 12.5449 17.0564 15.136 17.0564 18.3324C17.0564 21.5287 14.4912 24.1198 11.3268 24.1198C8.16238 24.1198 5.59717 21.5287 5.59717 18.3324Z" fill="white"/>
<path opacity="0.1" d="M5.14435 47.6565C3.21915 47.6565 1.6355 46.0255 1.6355 44.0182V34.8596C1.6355 31.1272 4.5854 28.0847 8.18739 28.0847H10.4231L5.14435 47.6565Z" fill="white"/>
<path opacity="0.1" fill-rule="evenodd" clip-rule="evenodd" d="M67.6549 15.2122C65.9489 15.2122 64.5659 16.6091 64.5659 18.3324C64.5659 20.0556 65.9489 21.4526 67.6549 21.4526C69.3609 21.4526 70.744 20.0556 70.744 18.3324C70.744 16.6091 69.361 15.2122 67.6549 15.2122ZM61.9253 18.3324C61.9253 15.136 64.4905 12.5449 67.6549 12.5449C70.8193 12.5449 73.3846 15.136 73.3846 18.3324C73.3846 21.5287 70.8193 24.1198 67.6549 24.1198C64.4905 24.1198 61.9253 21.5287 61.9253 18.3324Z" fill="white"/>
<path opacity="0.1" d="M61.5018 47.6565C59.5766 47.6565 57.9929 46.0255 57.9929 44.0182V34.8596C57.9929 31.1272 60.9428 28.0847 64.5448 28.0847H66.7806L61.5018 47.6565Z" fill="white"/>
<path fill-rule="evenodd" clip-rule="evenodd" d="M36.4765 16.1061C33.0554 16.1061 30.2715 18.9181 30.2715 22.3737V31.6577C30.2715 33.3882 31.6581 34.7888 33.3713 34.7888H40.3579C42.0661 34.7888 43.4597 33.3612 43.4888 31.6541V22.3737C43.4888 18.9181 40.7049 16.1061 37.2839 16.1061H36.4765ZM29.3914 22.3737C29.3914 18.4271 32.5693 15.217 36.4765 15.217H37.2839C41.191 15.217 44.369 18.4271 44.369 22.3737V31.6649C44.3342 33.8455 42.5611 35.6779 40.3579 35.6779H33.3713C31.172 35.6779 29.3914 33.8792 29.3914 31.6577V22.3737Z" fill="white" stroke="white" stroke-width="1.00219" stroke-miterlimit="10"/>
<path fill-rule="evenodd" clip-rule="evenodd" d="M36.848 3.65006C34.6558 3.65006 32.8787 5.44507 32.8787 7.65934C32.8787 9.87361 34.6558 11.6687 36.848 11.6687C39.0401 11.6687 40.8172 9.87361 40.8172 7.65934C40.8172 5.44506 39.0401 3.65006 36.848 3.65006ZM31.9985 7.65934C31.9985 4.95404 34.1697 2.76099 36.848 2.76099C39.5263 2.76099 41.6974 4.95404 41.6974 7.65934C41.6974 10.3646 39.5263 12.5577 36.848 12.5577C34.1697 12.5577 31.9985 10.3646 31.9985 7.65934Z" fill="white" stroke="white" stroke-width="1.00219" stroke-miterlimit="10"/>
<path fill-rule="evenodd" clip-rule="evenodd" d="M8.31343 28.5243C4.89239 28.5243 2.10846 31.3363 2.10846 34.7919V44.0759C2.10846 45.8064 3.49507 47.207 5.20826 47.207H12.1949C13.9057 47.207 15.2967 45.8081 15.3257 44.0723V34.7919C15.3257 31.3363 12.5418 28.5243 9.12076 28.5243H8.31343ZM1.22827 34.7919C1.22827 30.8453 4.40628 27.6353 8.31343 27.6353H9.12076C13.0279 27.6353 16.2059 30.8453 16.2059 34.7919V44.083C16.1711 46.2976 14.3955 48.0961 12.1949 48.0961H5.20826C3.00895 48.0961 1.22827 46.2974 1.22827 44.0759V34.7919Z" fill="white" stroke="white" stroke-width="1.00219" stroke-miterlimit="10"/>
<path fill-rule="evenodd" clip-rule="evenodd" d="M8.67925 16.1061C6.4871 16.1061 4.71002 17.9012 4.71002 20.1154C4.71002 22.3297 6.4871 24.1247 8.67925 24.1247C10.8714 24.1247 12.6485 22.3297 12.6485 20.1154C12.6485 17.9012 10.8714 16.1061 8.67925 16.1061ZM3.82983 20.1154C3.82983 17.4101 6.00098 15.217 8.67925 15.217C11.3575 15.217 13.5287 17.4101 13.5287 20.1154C13.5287 22.8207 11.3575 25.0138 8.67925 25.0138C6.00098 25.0138 3.82983 22.8207 3.82983 20.1154Z" fill="white" stroke="white" stroke-width="1.00219" stroke-miterlimit="10"/>
<path fill-rule="evenodd" clip-rule="evenodd" d="M64.6416 28.5243C61.2205 28.5243 58.4366 31.3363 58.4366 34.7919V44.0759C58.4366 45.8064 59.8232 47.207 61.5364 47.207H68.523C70.2338 47.207 71.6248 45.8081 71.6539 44.0723V34.7919C71.6539 31.3363 68.8699 28.5243 65.4489 28.5243H64.6416ZM57.5564 34.7919C57.5564 30.8453 60.7344 27.6353 64.6416 27.6353H65.4489C69.356 27.6353 72.534 30.8453 72.534 34.7919V44.083C72.4992 46.2976 70.7236 48.0961 68.523 48.0961H61.5364C59.3371 48.0961 57.5564 46.2974 57.5564 44.0759V34.7919Z" fill="white" stroke="white" stroke-width="1.00219" stroke-miterlimit="10"/>
<path fill-rule="evenodd" clip-rule="evenodd" d="M65.011 16.1061C62.8189 16.1061 61.0418 17.9012 61.0418 20.1154C61.0418 22.3297 62.8189 24.1247 65.011 24.1247C67.2032 24.1247 68.9803 22.3297 68.9803 20.1154C68.9803 17.9012 67.2032 16.1061 65.011 16.1061ZM60.1616 20.1154C60.1616 17.4101 62.3328 15.217 65.011 15.217C67.6893 15.217 69.8605 17.4101 69.8605 20.1154C69.8605 22.8207 67.6893 25.0138 65.011 25.0138C62.3328 25.0138 60.1616 22.8207 60.1616 20.1154Z" fill="white" stroke="white" stroke-width="1.00219" stroke-miterlimit="10"/>
<path opacity="0.4" fill-rule="evenodd" clip-rule="evenodd" d="M42.1274 42.7872H31.5698V38.3418H42.1274V42.7872Z" fill="white"/>
<path opacity="0.4" fill-rule="evenodd" clip-rule="evenodd" d="M13.9623 55.2093H3.40479V50.7639H13.9623V55.2093Z" fill="white"/>
<path opacity="0.4" fill-rule="evenodd" clip-rule="evenodd" d="M70.2963 55.2093H59.7388V50.7639H70.2963V55.2093Z" fill="white"/>
</svg>
