<svg width="44" height="74" viewBox="0 0 44 74" fill="none" xmlns="http://www.w3.org/2000/svg">
<g clip-path="url(#clip0_1_123008)">
<path d="M0.509277 3.47632L1.40822 4.61941H42.5862L43.4924 3.47632H0.509277Z" fill="#540494"/>
<g opacity="0.4">
<path d="M0.509277 3.47716L1.40822 4.62025H42.5862L43.4924 3.47716H0.509277Z" fill="black"/>
</g>
<path d="M42.5962 2.00421H1.32422V74.0002H42.5962V2.00421Z" fill="#540494"/>
<g opacity="0.4">
<path d="M42.5962 2.00381H1.32422V73.9998H42.5962V2.00381Z" fill="white"/>
</g>
<g opacity="0.8">
<path d="M2.99666 3.77594C3.0134 3.88067 3.00684 3.98772 2.97745 4.08971C2.94806 4.1917 2.89653 4.2862 2.82642 4.36669C2.75631 4.44718 2.66929 4.51175 2.57136 4.55593C2.47343 4.60011 2.36692 4.62285 2.25919 4.62259C2.02803 4.61365 1.80785 4.52321 1.63884 4.36778C1.46982 4.21234 1.36324 4.00229 1.33855 3.77594C1.32313 3.67999 1.32711 3.58199 1.35029 3.48756C1.37346 3.39313 1.41536 3.30413 1.47359 3.22568C1.53181 3.14724 1.60521 3.08088 1.68957 3.03042C1.77393 2.97996 1.86759 2.9464 1.96516 2.93167C2.00284 2.92815 2.04076 2.92815 2.07844 2.93167C2.3088 2.94109 2.5281 3.03144 2.69657 3.18634C2.86503 3.34124 2.9715 3.55042 2.99666 3.77594Z" fill="#F0F0F0"/>
<path d="M4.51741 3.77577C4.54486 3.97137 4.49224 4.16971 4.37112 4.32714C4.25 4.48458 4.07029 4.58823 3.87151 4.6153C3.83781 4.61763 3.80399 4.61763 3.77029 4.6153C3.54083 4.60415 3.32296 4.51272 3.15593 4.35749C2.98891 4.20227 2.88371 3.99344 2.85929 3.76865C2.84257 3.66299 2.84933 3.55501 2.87909 3.45216C2.90886 3.34931 2.96092 3.25404 3.0317 3.17289C3.10248 3.09175 3.19029 3.02666 3.28909 2.98212C3.38789 2.93758 3.49532 2.91464 3.604 2.91489C3.83613 2.92594 4.05639 3.01914 4.22423 3.17732C4.39206 3.33551 4.49618 3.54803 4.51741 3.77577Z" fill="#F0F0F0"/>
<path d="M6.03563 3.77519C6.04877 3.87341 6.04192 3.97322 6.01549 4.06881C5.98906 4.1644 5.94356 4.25386 5.88166 4.33199C5.81976 4.41012 5.74269 4.47535 5.65492 4.52389C5.56716 4.57243 5.47047 4.60331 5.37046 4.61472C5.33837 4.61708 5.30615 4.61708 5.27406 4.61472C5.04416 4.60637 4.82525 4.51576 4.65841 4.35988C4.49157 4.204 4.38827 3.99357 4.36788 3.76807C4.34045 3.57058 4.39383 3.37045 4.51631 3.21169C4.63879 3.05292 4.82032 2.94851 5.02101 2.92143C5.0539 2.91907 5.08693 2.91907 5.11982 2.92143C5.35255 2.92768 5.57474 3.01828 5.74376 3.17585C5.91278 3.33341 6.01672 3.54684 6.03563 3.77519Z" fill="#F0F0F0"/>
<path d="M7.55392 3.77504C7.56567 3.87409 7.55748 3.97444 7.5298 4.07037C7.50212 4.1663 7.45551 4.25592 7.39261 4.33411C7.32972 4.41229 7.25178 4.47752 7.16326 4.52605C7.07473 4.57458 6.97736 4.60547 6.87669 4.61695H6.79475C6.56562 4.60842 6.34761 4.51756 6.18196 4.36154C6.01631 4.20553 5.9145 3.99519 5.8958 3.7703C5.87272 3.56976 5.93125 3.36838 6.0586 3.21018C6.18595 3.05197 6.37177 2.94981 6.57544 2.92603H6.6622C6.89061 2.93581 7.10747 3.02759 7.27177 3.18403C7.43608 3.34047 7.53645 3.55072 7.55392 3.77504Z" fill="#F0F0F0"/>
<path d="M9.07463 3.77541C9.09623 3.97729 9.03551 4.17934 8.90582 4.3372C8.77613 4.49506 8.58807 4.59581 8.38295 4.61732H8.30824C8.0797 4.60913 7.86228 4.51819 7.69771 4.36193C7.53314 4.20568 7.433 3.99512 7.41652 3.77067C7.39344 3.56887 7.45248 3.36629 7.58074 3.2072C7.70899 3.0481 7.89603 2.94544 8.10097 2.92165H8.18291C8.41279 2.92946 8.63147 3.02124 8.79632 3.17907C8.96118 3.33691 9.06039 3.54951 9.07463 3.77541Z" fill="#F0F0F0"/>
<path d="M10.593 3.77612C10.6125 3.98047 10.5488 4.18408 10.416 4.34234C10.2832 4.50059 10.0921 4.60058 9.88446 4.6204H9.81939C9.59143 4.61259 9.37459 4.52157 9.21108 4.36506C9.04758 4.20855 8.94913 3.99777 8.9349 3.77375C8.91331 3.56999 8.9748 3.36613 9.10584 3.20694C9.23688 3.04775 9.42678 2.94625 9.63382 2.92473H9.70853C9.93744 2.9321 10.1552 3.02361 10.319 3.18122C10.4827 3.33882 10.5805 3.55108 10.593 3.77612Z" fill="#F0F0F0"/>
<path d="M12.1186 3.77612C12.1359 3.98231 12.0696 4.18689 11.9341 4.3451C11.7986 4.50332 11.605 4.6023 11.3955 4.6204H11.3377C11.1101 4.61353 10.8935 4.52261 10.731 4.36573C10.5684 4.20885 10.4718 3.99751 10.4604 3.77375C10.4501 3.67219 10.4603 3.56962 10.4904 3.47194C10.5204 3.37425 10.5698 3.28336 10.6356 3.20448C10.7014 3.1256 10.7824 3.06029 10.874 3.01228C10.9655 2.96428 11.0658 2.93452 11.169 2.92473H11.2389C11.4673 2.93219 11.6846 3.02386 11.8475 3.18157C12.0104 3.33928 12.1072 3.55149 12.1186 3.77612Z" fill="#F0F0F0"/>
<path d="M13.6323 3.77541C13.6482 3.98359 13.5795 4.18949 13.4412 4.34781C13.3029 4.50613 13.1063 4.60393 12.8948 4.61969H12.8418C12.6149 4.6127 12.3992 4.52154 12.2378 4.3645C12.0764 4.20746 11.9814 3.99617 11.9717 3.77304C11.9543 3.56609 12.0204 3.3607 12.1557 3.20135C12.291 3.042 12.4847 2.94151 12.6948 2.92165H12.7502C12.9802 2.92633 13.1996 3.01736 13.3636 3.17608C13.5276 3.3348 13.6237 3.54922 13.6323 3.77541Z" fill="#F0F0F0"/>
<path d="M15.1504 3.77541C15.1643 3.98545 15.0929 4.19232 14.9519 4.35062C14.811 4.50891 14.6119 4.60568 14.3985 4.61969H14.3575C14.1311 4.61263 13.9159 4.52131 13.7553 4.36416C13.5947 4.20701 13.5007 3.99575 13.4923 3.77304C13.477 3.56312 13.5468 3.35576 13.6863 3.19625C13.8258 3.03674 14.0238 2.93802 14.237 2.92165H14.2876C14.5152 2.92826 14.7314 3.02048 14.892 3.1793C15.0525 3.33813 15.145 3.55148 15.1504 3.77541Z" fill="#F0F0F0"/>
<path d="M16.6712 3.77612C16.6824 3.98887 16.6076 4.19733 16.4631 4.35597C16.3186 4.51461 16.1162 4.61052 15.9 4.62277H15.8687C15.6425 4.61733 15.4271 4.52631 15.2673 4.36863C15.1075 4.21096 15.0156 3.99875 15.0107 3.77612C14.9968 3.5642 15.069 3.35552 15.2113 3.19589C15.3537 3.03626 15.5545 2.93874 15.7699 2.92473H15.8109C16.0381 2.93019 16.2545 3.02179 16.4148 3.18042C16.5751 3.33904 16.667 3.55245 16.6712 3.77612Z" fill="#F0F0F0"/>
<path d="M18.1895 3.77541C18.1986 3.99041 18.1209 4.20022 17.9731 4.3589C17.8254 4.51759 17.6199 4.61221 17.4014 4.62206H17.3821C17.1568 4.61598 16.9425 4.52453 16.784 4.3668C16.6255 4.20906 16.535 3.99721 16.5314 3.77541C16.5252 3.66936 16.5403 3.56315 16.5758 3.46285C16.6114 3.36254 16.6666 3.27011 16.7385 3.19082C16.8103 3.11154 16.8973 3.04696 16.9945 3.00078C17.0917 2.95459 17.1972 2.9277 17.305 2.92165H17.3387C17.5655 2.92719 17.7812 3.01944 17.94 3.17882C18.0988 3.3382 18.1883 3.55219 18.1895 3.77541Z" fill="#F0F0F0"/>
<path d="M19.7078 3.77541C19.7117 3.88287 19.694 3.99003 19.6557 4.09076C19.6175 4.19148 19.5594 4.2838 19.4849 4.36243C19.4103 4.44107 19.3208 4.50447 19.2213 4.54902C19.1219 4.59357 19.0145 4.61839 18.9053 4.62206C18.6806 4.61592 18.4671 4.52424 18.3098 4.36632C18.1525 4.2084 18.0635 3.99656 18.0618 3.77541C18.0526 3.55852 18.1312 3.34691 18.2802 3.18689C18.4293 3.02687 18.6367 2.9315 18.8571 2.92165H18.8667C19.0926 2.92723 19.3072 3.01979 19.4645 3.17944C19.6218 3.33908 19.7091 3.55307 19.7078 3.77541Z" fill="#F0F0F0"/>
<path d="M21.2285 3.77541C21.2314 3.8838 21.2125 3.99169 21.173 4.09291C21.1335 4.19413 21.0742 4.28669 20.9983 4.36532C20.9224 4.44395 20.8315 4.50709 20.7309 4.55114C20.6302 4.59519 20.5217 4.61929 20.4115 4.62206C20.1871 4.61709 19.9737 4.52554 19.8173 4.36717C19.6608 4.20879 19.5739 3.99627 19.5752 3.77541C19.5714 3.66701 19.5892 3.55893 19.6279 3.45734C19.6665 3.35575 19.7251 3.26265 19.8003 3.18336C19.8755 3.10407 19.9658 3.04014 20.0662 2.99523C20.1665 2.95032 20.2748 2.92532 20.385 2.92165H20.397C20.6216 2.92846 20.8346 3.02172 20.99 3.18136C21.1455 3.34101 21.2311 3.5543 21.2285 3.77541Z" fill="#F0F0F0"/>
<path d="M22.7471 3.77541C22.7395 3.93494 22.6845 4.08878 22.589 4.21785C22.4934 4.34693 22.3615 4.44557 22.2095 4.50154C22.0575 4.55751 21.8921 4.56835 21.7339 4.53272C21.5757 4.49708 21.4316 4.41654 21.3195 4.30108C21.2074 4.18562 21.1322 4.04031 21.1032 3.88318C21.0742 3.72605 21.0927 3.564 21.1564 3.41713C21.2202 3.27025 21.3263 3.14501 21.4617 3.05694C21.597 2.96886 21.7557 2.92182 21.918 2.92165C22.0291 2.9238 22.1387 2.94748 22.2405 2.99132C22.3423 3.03516 22.4343 3.0983 22.5113 3.17715C22.5883 3.25599 22.6487 3.34899 22.6892 3.45082C22.7296 3.55266 22.7493 3.66135 22.7471 3.77067V3.77541Z" fill="#F0F0F0"/>
<path d="M24.2652 3.77504C24.2678 3.99587 24.1816 4.20875 24.0255 4.36733C23.8693 4.5259 23.6557 4.61733 23.4314 4.62169C23.3212 4.61954 23.2126 4.59605 23.1117 4.55256C23.0108 4.50908 22.9195 4.44646 22.8432 4.36828C22.7669 4.2901 22.707 4.19788 22.6669 4.09691C22.6268 3.99593 22.6073 3.88818 22.6095 3.77979C22.6057 3.55793 22.6912 3.34358 22.8475 3.18359C23.0037 3.02361 23.218 2.93101 23.4434 2.92603C23.5536 2.92818 23.6622 2.95167 23.7631 2.99516C23.864 3.03864 23.9553 3.10126 24.0316 3.17944C24.1079 3.25762 24.1678 3.34984 24.2079 3.45081C24.248 3.55179 24.2675 3.65954 24.2652 3.76793V3.77504Z" fill="#F0F0F0"/>
<path d="M25.786 3.77541C25.7855 3.99692 25.6969 4.20945 25.5393 4.36763C25.3817 4.5258 25.1676 4.61711 24.9425 4.62206C24.8332 4.62021 24.7254 4.59712 24.6252 4.5541C24.525 4.51109 24.4345 4.449 24.3587 4.37141C24.283 4.29383 24.2237 4.20227 24.1841 4.10202C24.1444 4.00177 24.1254 3.8948 24.1279 3.78727V3.77541C24.1266 3.55307 24.2139 3.33908 24.3712 3.17944C24.5285 3.01979 24.7431 2.92723 24.969 2.92165C25.0785 2.9238 25.1865 2.94717 25.2869 2.99042C25.3872 3.03366 25.4779 3.09593 25.5538 3.17367C25.6296 3.25142 25.6892 3.34311 25.7291 3.44351C25.7689 3.54391 25.7883 3.65105 25.786 3.75881V3.77541Z" fill="#F0F0F0"/>
<path d="M27.3018 3.77541C27.2988 3.99699 27.2088 4.20884 27.0507 4.36664C26.8926 4.52444 26.6786 4.61596 26.4535 4.62206C26.3449 4.6199 26.2379 4.59672 26.1384 4.55383C26.039 4.51095 25.9491 4.4492 25.8739 4.37212C25.7987 4.29503 25.7396 4.20413 25.7002 4.10459C25.6607 4.00506 25.6415 3.89884 25.6437 3.79201V3.77541C25.6449 3.55219 25.7344 3.3382 25.8932 3.17882C26.052 3.01944 26.2677 2.92719 26.4945 2.92165C26.7127 2.92601 26.9202 3.01534 27.0715 3.17006C27.2229 3.32477 27.3057 3.53224 27.3018 3.74695V3.77541Z" fill="#F0F0F0"/>
<path d="M28.8251 3.77576C28.8196 3.9982 28.7275 4.21008 28.5679 4.36763C28.4082 4.52519 28.1931 4.61639 27.9671 4.62241C27.8598 4.62087 27.7539 4.59843 27.6555 4.55639C27.5571 4.51434 27.4681 4.45353 27.3937 4.37745C27.3193 4.30138 27.261 4.21155 27.2221 4.11316C27.1831 4.01477 27.1644 3.90977 27.167 3.80422V3.77102C27.17 3.54755 27.2607 3.33389 27.4202 3.17476C27.5797 3.01563 27.7955 2.92335 28.0225 2.91725C28.1298 2.9188 28.2358 2.94113 28.3343 2.98296C28.4328 3.0248 28.522 3.08533 28.5968 3.16108C28.6715 3.23684 28.7304 3.32635 28.7699 3.42449C28.8095 3.52263 28.8291 3.62749 28.8275 3.73307C28.8275 3.75204 28.8251 3.7639 28.8251 3.77576Z" fill="#F0F0F0"/>
<path d="M30.3435 3.77556C30.3356 3.99965 30.2408 4.21224 30.0785 4.36969C29.9163 4.52714 29.6989 4.6175 29.4711 4.62221C29.3639 4.62068 29.2581 4.59822 29.1599 4.55615C29.0616 4.51408 28.9727 4.45322 28.8985 4.37711C28.8243 4.301 28.7662 4.21116 28.7276 4.11278C28.6889 4.0144 28.6705 3.90945 28.6734 3.80402C28.6734 3.78979 28.6734 3.77793 28.6734 3.76607C28.6788 3.54214 28.7713 3.32879 28.9319 3.16997C29.0924 3.01114 29.3087 2.91892 29.5362 2.91231C29.7503 2.91231 29.9557 2.99601 30.1071 3.145C30.2585 3.294 30.3435 3.49607 30.3435 3.70678C30.3452 3.72968 30.3452 3.75266 30.3435 3.77556Z" fill="#F0F0F0"/>
<path d="M31.8615 3.77541C31.8525 3.99833 31.758 4.20961 31.597 4.3667C31.436 4.5238 31.2205 4.61504 30.9939 4.62206C30.7815 4.62143 30.578 4.53795 30.428 4.38992C30.278 4.24188 30.1938 4.04137 30.1938 3.83233C30.1926 3.81337 30.1926 3.79436 30.1938 3.77541C30.2022 3.55121 30.2966 3.33847 30.458 3.18005C30.6195 3.02163 30.8359 2.92929 31.0638 2.92165C31.276 2.92165 31.4795 3.0046 31.6296 3.15226C31.7796 3.29992 31.8639 3.50019 31.8639 3.70901C31.8643 3.73117 31.8635 3.75333 31.8615 3.77541Z" fill="#F0F0F0"/>
<path d="M33.3824 3.77541C33.371 3.99917 33.2744 4.21052 33.1118 4.3674C32.9493 4.52427 32.7327 4.61519 32.5051 4.62206C32.401 4.62082 32.2981 4.59941 32.2024 4.55905C32.1067 4.51869 32.02 4.46018 31.9473 4.38684C31.8745 4.31351 31.8172 4.22679 31.7785 4.13165C31.7398 4.0365 31.7206 3.93479 31.7218 3.83233C31.7206 3.81337 31.7206 3.79436 31.7218 3.77541C31.7315 3.55039 31.8273 3.33729 31.99 3.17892C32.1527 3.02055 32.3703 2.92863 32.5991 2.92165C32.7036 2.92319 32.8067 2.94497 32.9026 2.98573C32.9984 3.0265 33.0852 3.08545 33.158 3.15923C33.2307 3.233 33.288 3.32016 33.3265 3.41571C33.365 3.51126 33.384 3.61334 33.3824 3.71612C33.3836 3.73587 33.3836 3.75566 33.3824 3.77541Z" fill="#F0F0F0"/>
<path d="M34.9009 3.77541C34.8872 3.99922 34.7893 4.20998 34.6262 4.36654C34.4631 4.5231 34.2465 4.6142 34.0188 4.62206C33.9153 4.62082 33.8131 4.59953 33.718 4.55941C33.6228 4.51929 33.5366 4.46112 33.4644 4.38823C33.3921 4.31534 33.3351 4.22914 33.2966 4.13457C33.2582 4.04001 33.2391 3.93891 33.2404 3.83707C33.2392 3.81653 33.2392 3.79595 33.2404 3.77541C33.2523 3.54995 33.3498 3.33711 33.5136 3.17901C33.6774 3.02091 33.8955 2.92906 34.1249 2.92165C34.228 2.92258 34.33 2.9435 34.425 2.98321C34.5199 3.02293 34.606 3.08066 34.6783 3.15311C34.7506 3.22557 34.8077 3.31132 34.8463 3.40548C34.8849 3.49964 34.9043 3.60036 34.9033 3.70189C34.9057 3.72561 34.9033 3.75169 34.9009 3.77541Z" fill="#F0F0F0"/>
<path d="M36.419 3.77541C36.4036 3.99984 36.3041 4.21067 36.1398 4.36708C35.9755 4.52349 35.7581 4.61435 35.5297 4.62206C35.3236 4.61524 35.1286 4.52875 34.9869 4.38135C34.8452 4.23395 34.7683 4.03753 34.7729 3.8347C34.7729 3.81573 34.7729 3.79438 34.7729 3.77541C34.7871 3.54951 34.8864 3.33691 35.0512 3.17907C35.2161 3.02124 35.4347 2.92946 35.6646 2.92165C35.7669 2.92411 35.8676 2.94637 35.9611 2.98715C36.0546 3.02794 36.139 3.08646 36.2095 3.15936C36.28 3.23226 36.3352 3.31811 36.372 3.41201C36.4087 3.50592 36.4263 3.60603 36.4238 3.70663C36.4234 3.72963 36.4218 3.75258 36.419 3.77541Z" fill="#F0F0F0"/>
<path d="M37.9398 3.77541C37.9217 4.00009 37.8204 4.21041 37.6551 4.36647C37.4899 4.52252 37.2721 4.61347 37.0433 4.62206C36.942 4.62144 36.8418 4.60119 36.7485 4.56248C36.6552 4.52377 36.5705 4.46734 36.4993 4.39643C36.4282 4.32552 36.3719 4.24151 36.3337 4.1492C36.2956 4.05688 36.2762 3.95808 36.2769 3.85842C36.2769 3.82996 36.2769 3.80387 36.2769 3.77541C36.2928 3.54928 36.3932 3.33694 36.5587 3.1793C36.7242 3.02167 36.9432 2.92989 37.1734 2.92165C37.2751 2.92226 37.3757 2.94266 37.4693 2.98167C37.5629 3.02068 37.6478 3.07753 37.7191 3.14895C37.7903 3.22036 37.8465 3.30493 37.8843 3.3978C37.9222 3.49066 37.9411 3.58998 37.9398 3.69003C37.9446 3.71849 37.9422 3.74695 37.9398 3.77541Z" fill="#F0F0F0"/>
<path d="M39.4582 3.77541C39.4378 4.00052 39.3349 4.21063 39.1685 4.36645C39.0022 4.52228 38.7839 4.61315 38.5544 4.62206C38.4537 4.62144 38.354 4.60123 38.2613 4.56257C38.1685 4.52392 38.0844 4.4676 38.0139 4.39684C37.9433 4.32609 37.8877 4.2423 37.8501 4.1503C37.8126 4.0583 37.794 3.95991 37.7952 3.86079C37.7952 3.83233 37.7952 3.80387 37.7952 3.77541C37.8139 3.54903 37.9161 3.3372 38.0826 3.17991C38.2491 3.02262 38.4684 2.93075 38.699 2.92165C38.7996 2.92227 38.8992 2.94239 38.9919 2.98086C39.0847 3.01934 39.1688 3.07541 39.2395 3.14588C39.3102 3.21635 39.3661 3.29984 39.4041 3.39158C39.442 3.48332 39.4612 3.58151 39.4606 3.68055C39.4622 3.71218 39.4614 3.7439 39.4582 3.77541Z" fill="#F0F0F0"/>
<path d="M40.979 3.77541C40.9548 3.99905 40.8506 4.20696 40.6851 4.36204C40.5195 4.51711 40.3034 4.60927 40.0752 4.62206C39.8747 4.62081 39.6828 4.54155 39.5415 4.40159C39.4002 4.26162 39.3209 4.07233 39.3209 3.87502C39.3185 3.84186 39.3185 3.80857 39.3209 3.77541C39.3437 3.54934 39.4482 3.33882 39.6153 3.18215C39.7825 3.02547 40.0013 2.93303 40.2319 2.92165C40.3316 2.92319 40.43 2.94405 40.5215 2.98303C40.613 3.022 40.6958 3.07833 40.7652 3.14881C40.8345 3.21928 40.8891 3.30251 40.9258 3.39375C40.9625 3.48499 40.9806 3.58244 40.979 3.68055C40.9814 3.71213 40.9814 3.74383 40.979 3.77541Z" fill="#F0F0F0"/>
<path d="M42.497 3.77541C42.4724 4.00136 42.3662 4.21111 42.1977 4.36649C42.0291 4.52187 41.8095 4.61256 41.5788 4.62206C41.4715 4.6207 41.3657 4.5969 41.2685 4.55223C41.1712 4.50757 41.0847 4.44306 41.0148 4.36299C40.9448 4.28292 40.8929 4.18912 40.8626 4.08781C40.8323 3.98651 40.8242 3.88002 40.8389 3.77541C40.8619 3.54818 40.9674 3.33673 41.1361 3.1799C41.3048 3.02307 41.5253 2.93137 41.7572 2.92165C41.9564 2.9229 42.147 3.00166 42.2874 3.14073C42.4279 3.2798 42.5067 3.4679 42.5067 3.66395C42.506 3.70127 42.5027 3.73851 42.497 3.77541Z" fill="#F0F0F0"/>
</g>
<path d="M0.50708 2.31873H43.495L43.4926 3.47605H0.50949L0.50708 2.31873Z" fill="#540494"/>
<path d="M0.504395 1.16185L1.40093 2.31917H42.591L43.4972 1.16185H0.504395Z" fill="#540494"/>
<g opacity="0.4">
<path d="M0.504883 1.16176L1.40142 2.31908H42.5915L43.4977 1.16176H0.504883Z" fill="black"/>
</g>
<path d="M0.5 0H43.5L43.4976 1.16207H0.50482L0.5 0Z" fill="#540494"/>
<g opacity="0.8">
<path d="M1.39893 1.16176H42.5938L42.5914 2.31908H1.40134L1.39893 1.16176Z" fill="white"/>
</g>
<g opacity="0.7">
<path d="M42.6058 25.102H1.33618V25.6119H42.6058V25.102Z" fill="white"/>
</g>
<g opacity="0.8">
<path d="M42.6035 50.4093H1.42065V50.9168H42.6035V50.4093Z" fill="white"/>
</g>
<path d="M14.9917 6.83667H9.88965V12.2604H14.9917V6.83667Z" fill="#540494"/>
<path d="M24.7908 6.83667H19.6887V12.2604H24.7908V6.83667Z" fill="#540494"/>
<path d="M34.5901 6.83667H29.488V12.2604H34.5901V6.83667Z" fill="#540494"/>
<path d="M14.9915 14.9571H9.8894V20.3809H14.9915V14.9571Z" fill="#540494"/>
<path d="M24.7908 14.9571H19.6887V20.3809H24.7908V14.9571Z" fill="#540494"/>
<path d="M34.5899 14.9571H29.4878V20.3809H34.5899V14.9571Z" fill="#540494"/>
<path d="M14.9917 54.3158H9.88965V59.7395H14.9917V54.3158Z" fill="#540494"/>
<path d="M24.7908 54.3158H19.6887V59.7395H24.7908V54.3158Z" fill="#540494"/>
<path d="M34.5901 54.3158H29.488V59.7395H34.5901V54.3158Z" fill="#540494"/>
<path d="M9.52565 65.735H4.42358V71.1588H9.52565V65.735Z" fill="#540494"/>
<path d="M39.5017 65.735H34.3997V71.1588H39.5017V65.735Z" fill="#540494"/>
<path d="M14.9915 29.8862H9.8894V35.31H14.9915V29.8862Z" fill="#540494"/>
<path d="M24.7908 29.8862H19.6887V35.31H24.7908V29.8862Z" fill="#540494"/>
<path d="M34.5899 29.8862H29.4878V35.31H34.5899V29.8862Z" fill="#540494"/>
<path d="M14.9915 38.0067H9.8894V43.4305H14.9915V38.0067Z" fill="#540494"/>
<path d="M24.7908 38.0067H19.6887V43.4305H24.7908V38.0067Z" fill="#540494"/>
<path d="M34.5899 38.0067H29.4878V43.4305H34.5899V38.0067Z" fill="#540494"/>
<g opacity="0.8">
<path d="M16.0591 66.3698H21.3395L21.3178 71.7651H16.0229L16.0591 66.3698Z" fill="white"/>
</g>
<g opacity="0.8">
<path d="M22.3589 66.3698H27.8562L27.5959 71.7651H22.301L22.3589 66.3698Z" fill="white"/>
</g>
<path d="M28.6976 72.8522H14.7651L14.7097 71.766H28.7506L28.6976 72.8522Z" fill="#540494"/>
<g opacity="0.1">
<path d="M28.6976 72.8528H14.7651L14.7097 71.7666H28.7506L28.6976 72.8528Z" fill="white"/>
</g>
<path d="M29.259 74.0001H14.2734L14.2131 72.9305H29.3145L29.259 74.0001Z" fill="#540494"/>
<g opacity="0.4">
<path d="M29.7555 64.46H13.7383L13.6685 63.2386H29.8182L29.7555 64.46Z" fill="white"/>
</g>
<path d="M13.7383 64.4591L16.0592 66.3706H27.8563L29.7554 64.4591H13.7383Z" fill="#263238"/>
<path d="M14.8228 65.3533L15.6422 71.7565H16.2929L16.0302 65.3533C15.8439 65.2587 15.6373 65.2093 15.4277 65.2093C15.218 65.2093 15.0114 65.2587 14.8252 65.3533H14.8228Z" fill="#540494"/>
<path d="M28.8976 65.3534L28.0951 71.7566H27.4443L27.6853 65.3534C27.8641 65.2373 28.0736 65.1754 28.2879 65.1754C28.5021 65.1754 28.7116 65.2373 28.8904 65.3534H28.8976Z" fill="#540494"/>
<path d="M1.39893 1.16185H42.5938L42.5914 2.31917H1.40134L1.39893 1.16185Z" fill="#540494"/>
</g>
<defs>
<clipPath id="clip0_1_123008">
<rect width="43" height="74" fill="white" transform="translate(0.5)"/>
</clipPath>
</defs>
</svg>
