<svg width="49" height="50" viewBox="0 0 49 50" fill="none" xmlns="http://www.w3.org/2000/svg">
<path opacity="0.3" fill-rule="evenodd" clip-rule="evenodd" d="M17.6723 9.97205C15.8097 13.7736 14.6345 19.0825 14.6345 24.9912C14.6345 30.8998 15.8097 36.2088 17.6723 40.0103C19.5589 43.861 22.0169 45.9309 24.4931 45.9309C26.9692 45.9309 29.4272 43.861 31.3139 40.0103C33.1764 36.2088 34.3516 30.8998 34.3516 24.9912C34.3516 19.0825 33.1764 13.7736 31.3139 9.97205C29.4272 6.12138 26.9692 4.05152 24.4931 4.05152C22.0169 4.05152 19.5589 6.12138 17.6723 9.97205ZM16.239 9.24258C18.2103 5.2191 21.0821 2.4187 24.4931 2.4187C27.904 2.4187 30.7758 5.2191 32.7471 9.24258C34.7425 13.3152 35.9536 18.8843 35.9536 24.9912C35.9536 31.0981 34.7425 36.6672 32.7471 40.7398C30.7758 44.7633 27.904 47.5637 24.4931 47.5637C21.0821 47.5637 18.2103 44.7633 16.239 40.7398C14.2436 36.6672 13.0325 31.0981 13.0325 24.9912C13.0325 18.8843 14.2436 13.3152 16.239 9.24258Z" fill="white"/>
<path opacity="0.4" fill-rule="evenodd" clip-rule="evenodd" d="M9.77689 18.0294C6.00442 19.9543 3.9751 22.4627 3.9751 24.9913C3.9751 27.5199 6.00442 30.0283 9.77689 31.9532C13.5017 33.8538 18.7036 35.053 24.4932 35.053C30.2828 35.053 35.4846 33.8538 39.2095 31.9532C42.9819 30.0283 45.0113 27.5199 45.0113 24.9913C45.0113 22.4627 42.9819 19.9543 39.2095 18.0294C35.4846 16.1288 30.2828 14.9297 24.4932 14.9297C18.7036 14.9297 13.5017 16.1288 9.77689 18.0294ZM9.0597 16.5694C13.0509 14.5329 18.5085 13.2969 24.4932 13.2969C30.4778 13.2969 35.9355 14.5329 39.9267 16.5694C43.8702 18.5815 46.6133 21.5122 46.6133 24.9913C46.6133 28.4705 43.8702 31.4011 39.9267 33.4133C35.9355 35.4498 30.4778 36.6858 24.4932 36.6858C18.5085 36.6858 13.0509 35.4498 9.0597 33.4133C5.11617 31.4011 2.37305 28.4705 2.37305 24.9913C2.37305 21.5122 5.11617 18.5815 9.0597 16.5694Z" fill="white"/>
<path fill-rule="evenodd" clip-rule="evenodd" d="M8.70124 19.4685C10.0501 23.5962 12.95 28.2676 17.0904 32.4917C21.2308 36.7157 25.8092 39.6737 29.8544 41.0491C33.9165 42.4302 37.3551 42.1924 39.3262 40.1803C41.2973 38.1682 41.5294 34.6591 40.1748 30.5141C38.8259 26.3864 35.9261 21.715 31.7857 17.4909C27.6453 13.2668 23.0669 10.3089 19.0217 8.93349C14.9596 7.55236 11.521 7.79015 9.54987 9.80226C7.57873 11.8144 7.3467 15.3235 8.70124 19.4685ZM8.19498 19.6408C6.82037 15.4344 6.98141 11.6538 9.17246 9.41722C11.3635 7.18063 15.0681 7.01522 19.1904 8.41681C23.3296 9.82415 27.9767 12.8348 32.163 17.1058C36.3493 21.3767 39.3008 26.1182 40.6811 30.3418C42.0557 34.5482 41.8947 38.3288 39.7036 40.5654C37.5126 42.8019 33.8079 42.9674 29.6857 41.5658C25.5465 40.1584 20.8994 37.1477 16.7131 32.8768C12.5268 28.6059 9.57524 23.8644 8.19498 19.6408Z" fill="white"/>
<path fill-rule="evenodd" clip-rule="evenodd" d="M24.4363 18.7218C23.7015 18.7218 23.1053 19.3297 23.1053 20.0804C23.1053 20.831 23.7015 21.439 24.4363 21.439C25.1711 21.439 25.7673 20.831 25.7673 20.0804C25.7673 19.3297 25.1711 18.7218 24.4363 18.7218ZM22.5713 20.0804C22.5713 19.0298 23.406 18.1775 24.4363 18.1775C25.4666 18.1775 26.3013 19.0298 26.3013 20.0804C26.3013 21.131 25.4666 21.9832 24.4363 21.9832C23.406 21.9832 22.5713 21.131 22.5713 20.0804Z" fill="white"/>
<path fill-rule="evenodd" clip-rule="evenodd" d="M23.91 23.0742C22.8921 23.0742 22.0526 23.9305 22.0526 24.97V29.4593C22.0526 29.8309 22.3504 30.1464 22.7256 30.1464H26.1659C26.5224 30.1464 26.8416 29.8298 26.8577 29.4539V24.97C26.8577 23.9305 26.0182 23.0742 25.0003 23.0742H23.91ZM21.5186 24.97C21.5186 23.6305 22.5966 22.5299 23.91 22.5299H25.0003C26.3137 22.5299 27.3917 23.6305 27.3917 24.97V29.4643L27.3916 29.4694C27.3677 30.1274 26.8232 30.6907 26.1659 30.6907H22.7256C22.0479 30.6907 21.5186 30.1237 21.5186 29.4593V24.97Z" fill="white"/>
<path opacity="0.7" fill-rule="evenodd" clip-rule="evenodd" d="M9.77573 30.8674C8.46133 34.8896 8.83535 37.8558 10.3667 39.419C11.898 40.9821 14.8045 41.3646 18.7463 40.0244C22.6034 38.713 27.0444 35.8606 31.093 31.7301C35.1417 27.5996 37.9381 23.0684 39.2243 19.1326C40.5387 15.1105 40.1646 12.1442 38.6333 10.5811C37.102 9.01794 34.1955 8.6354 30.2537 9.97562C26.3966 11.287 21.9556 14.1395 17.907 18.27C13.8583 22.4004 11.0619 26.9316 9.77573 30.8674ZM7.24441 30.006C8.68738 25.5904 11.7423 20.7087 16.0204 16.3442C20.2985 11.9797 25.083 8.86346 29.4103 7.39217C33.6529 5.94965 37.8896 5.97031 40.5204 8.65586C43.1513 11.3414 43.1703 15.6649 41.7556 19.9941C40.3126 24.4097 37.2577 29.2913 32.9796 33.6559C28.7015 38.0204 23.917 41.1366 19.5897 42.6079C15.3471 44.0504 11.1104 44.0297 8.47958 41.3442C5.84872 38.6586 5.82967 34.3351 7.24441 30.006Z" fill="white"/>
</svg>
