<svg width="49" height="48" viewBox="0 0 49 48" fill="none" xmlns="http://www.w3.org/2000/svg">
<path opacity="0.2" fill-rule="evenodd" clip-rule="evenodd" d="M3.49235 1.87067C2.61824 1.87067 1.90964 2.56481 1.90964 3.42108C1.90964 4.27735 2.61824 4.9715 3.49235 4.9715C4.36646 4.9715 5.07506 4.27735 5.07506 3.42108C5.07506 2.56481 4.36646 1.87067 3.49235 1.87067ZM0 3.42108C0 1.53167 1.56358 0 3.49235 0C5.42112 0 6.9847 1.53166 6.9847 3.42108C6.9847 5.31049 5.42112 6.84217 3.49235 6.84217C1.56357 6.84217 0 5.31049 0 3.42108Z" fill="white"/>
<path opacity="0.2" fill-rule="evenodd" clip-rule="evenodd" d="M44.2277 40.5211C42.6466 40.5211 41.365 41.7766 41.365 43.3253C41.365 44.8741 42.6466 46.1296 44.2277 46.1296C45.8087 46.1296 47.0904 44.8741 47.0904 43.3253C47.0904 41.7766 45.8087 40.5211 44.2277 40.5211ZM39.4553 43.3253C39.4553 40.7434 41.592 38.6504 44.2277 38.6504C46.8634 38.6504 49 40.7434 49 43.3253C49 45.9073 46.8634 48.0003 44.2277 48.0003C41.592 48.0003 39.4553 45.9073 39.4553 43.3253Z" fill="white"/>
<path opacity="0.7" fill-rule="evenodd" clip-rule="evenodd" d="M23.8597 2.47902C12.0798 2.47902 2.53034 11.8336 2.53034 23.3731C2.53034 34.9126 12.0798 44.2672 23.8597 44.2672C35.6395 44.2672 45.189 34.9126 45.189 23.3731C45.189 11.8336 35.6395 2.47902 23.8597 2.47902ZM1.8938 23.3731C1.8938 11.4892 11.7283 1.85547 23.8597 1.85547C35.9911 1.85547 45.8256 11.4892 45.8256 23.3731C45.8256 35.2569 35.9911 44.8907 23.8597 44.8907C11.7283 44.8907 1.8938 35.2569 1.8938 23.3731Z" fill="white" stroke="white" stroke-miterlimit="10"/>
<path opacity="0.7" fill-rule="evenodd" clip-rule="evenodd" d="M16.0433 8.52409C13.9996 12.3083 12.7259 17.5577 12.7259 23.3731C12.7259 29.1885 13.9996 34.4379 16.0433 38.2221C18.0946 42.0203 20.8738 44.2672 23.8602 44.2672C26.8466 44.2672 29.6258 42.0203 31.6771 38.2221C33.7208 34.4379 34.9945 29.1885 34.9945 23.3731C34.9945 17.5577 33.7208 12.3083 31.6771 8.52409C29.6258 4.72587 26.8466 2.47902 23.8602 2.47902C20.8738 2.47902 18.0946 4.72587 16.0433 8.52409ZM15.4807 8.2325C17.5744 4.35571 20.5216 1.85547 23.8602 1.85547C27.1988 1.85547 30.146 4.35571 32.2397 8.2325C34.341 12.1233 35.631 17.4768 35.631 23.3731C35.631 29.2694 34.341 34.6229 32.2397 38.5137C30.146 42.3905 27.1988 44.8907 23.8602 44.8907C20.5216 44.8907 17.5744 42.3905 15.4807 38.5137C13.3794 34.6229 12.0894 29.2694 12.0894 23.3731C12.0894 17.4768 13.3794 12.1233 15.4807 8.2325Z" fill="white" stroke="white" stroke-miterlimit="10"/>
<path opacity="0.7" fill-rule="evenodd" clip-rule="evenodd" d="M23.5417 44.5797V2.16797H24.1783V44.5797H23.5417Z" fill="white" stroke="white" stroke-miterlimit="10"/>
<path opacity="0.7" fill-rule="evenodd" clip-rule="evenodd" d="M45.4852 23.7271H2.2124V23.1035H45.4852V23.7271Z" fill="white" stroke="white" stroke-miterlimit="10"/>
<path opacity="0.7" fill-rule="evenodd" clip-rule="evenodd" d="M5.55835 11.8203H42.3189V12.4439H5.55835V11.8203Z" fill="white" stroke="white" stroke-miterlimit="10"/>
<path opacity="0.7" fill-rule="evenodd" clip-rule="evenodd" d="M5.55835 34.2812H42.1617V34.9048H5.55835V34.2812Z" fill="white" stroke="white" stroke-miterlimit="10"/>
<path opacity="0.4" fill-rule="evenodd" clip-rule="evenodd" d="M6.99854 18.0762H17.7939V28.6732H6.99854V18.0762ZM10.1813 21.194V25.5554H14.6111V21.194H10.1813Z" fill="white"/>
</svg>
