<svg width="58" height="74" viewBox="0 0 58 74" fill="none" xmlns="http://www.w3.org/2000/svg">
<path d="M32.1651 18.4142L33.5053 16.2565C35.5212 16.047 37.3859 15.091 38.7328 13.5766C40.0798 12.0621 40.8116 10.0986 40.7845 8.07198C40.7574 6.04535 39.9732 4.10216 38.5862 2.62429C37.1992 1.14643 35.3096 0.24078 33.2888 0.0853308C31.268 -0.0701183 29.2621 0.535877 27.6653 1.78422C26.0686 3.03256 24.9965 4.83297 24.6598 6.8316C24.323 8.83023 24.7459 10.8826 25.8454 12.5852C26.9449 14.2879 28.6414 15.5177 30.6016 16.0331L32.1651 18.4142Z" fill="white"/>
<path d="M32.165 18.4138C32.165 18.4138 32.1315 18.3534 32.0645 18.2485L31.7718 17.7861L30.6394 16.0126L30.6059 16.0751H30.9097L30.6193 15.997C29.3169 15.6467 28.1224 14.9773 27.1438 14.0492C25.8122 12.7719 24.9538 11.0803 24.7092 9.25138C24.5551 8.08221 24.6609 6.89345 25.0192 5.76989C25.3774 4.64634 25.9791 3.61568 26.7815 2.75145C27.5838 1.88721 28.567 1.2107 29.6609 0.77017C30.7548 0.329642 31.9324 0.135953 33.1098 0.202922C34.4172 0.273167 35.6874 0.663584 36.8086 1.33984C37.8724 1.9884 38.7745 2.87065 39.4465 3.91969C40.0701 4.91051 40.4661 6.02738 40.6058 7.18974C40.7409 8.25045 40.6636 9.32745 40.3784 10.358C40.0932 11.3885 39.6057 12.352 38.9445 13.1923C38.2832 14.0326 37.4613 14.7329 36.5267 15.2524C35.5921 15.7718 34.5634 16.1001 33.5007 16.2181H33.4828V16.2337L32.5112 17.8397L32.2588 18.2619C32.2007 18.3579 32.1717 18.4115 32.1717 18.4115C32.1717 18.4115 32.2007 18.3713 32.2588 18.282L32.5201 17.8777L33.5498 16.2739L33.5208 16.2918C34.8721 16.1602 36.1683 15.6892 37.2889 14.9226C38.5258 14.074 39.5057 12.902 40.1218 11.5343C40.7379 10.1667 40.9663 8.65605 40.7822 7.1674C40.6404 5.97573 40.2336 4.83093 39.5917 3.81695C38.9048 2.74615 37.9818 1.84684 36.8935 1.18796C35.3586 0.255298 33.5591 -0.145608 31.7734 0.0472499C29.9878 0.240107 28.3154 1.01598 27.015 2.25486C25.7146 3.49374 24.8586 5.12659 24.5795 6.90085C24.3004 8.67511 24.6136 10.4919 25.4708 12.0702C25.8826 12.8438 26.42 13.5435 27.0612 14.1408C28.0583 15.0744 29.2754 15.7405 30.5992 16.0774V15.997H30.521L30.5612 16.0573L31.7517 17.8263L32.0555 18.273C32.1315 18.3691 32.165 18.416 32.165 18.4138Z" fill="#263238"/>
<path d="M28.2449 8.42525L29.4533 7.08953L32.0174 9.14671L35.8257 4.77325L37.0699 5.98612L31.9594 11.6104L28.2449 8.42525Z" fill="#290249"/>
<path d="M31.0012 21.2894V31.5016H29.46C28.9567 30.8504 28.2623 30.373 27.4741 30.1362C26.686 29.8994 25.8434 29.915 25.0646 30.1809C24.2857 30.4468 23.6095 30.9497 23.1307 31.6191C22.652 32.2885 22.3945 33.0909 22.3945 33.9139C22.3945 34.737 22.652 35.5394 23.1307 36.2088C23.6095 36.8782 24.2857 37.381 25.0646 37.647C25.8434 37.9129 26.686 37.9285 27.4741 37.6917C28.2623 37.4549 28.9567 36.9774 29.46 36.3263H31.0012V46.7529H42.1469V45.3122C41.4957 44.8089 41.0183 44.1145 40.7815 43.3263C40.5447 42.5381 40.5603 41.6955 40.8262 40.9167C41.0922 40.1378 41.595 39.4616 42.2644 38.9828C42.9338 38.504 43.7362 38.2466 44.5592 38.2466C45.3822 38.2466 46.1846 38.504 46.854 38.9828C47.5234 39.4616 48.0263 40.1378 48.2922 40.9167C48.5581 41.6955 48.5737 42.5381 48.3369 43.3263C48.1001 44.1145 47.6227 44.8089 46.9715 45.3122V46.7529H57.1076V21.2894H31.0012Z" fill="#FBE980"/>
<path opacity="0.4" d="M31.0012 21.2894V31.5016H29.46C28.9567 30.8504 28.2623 30.373 27.4741 30.1362C26.686 29.8994 25.8434 29.915 25.0646 30.1809C24.2857 30.4468 23.6095 30.9497 23.1307 31.6191C22.652 32.2885 22.3945 33.0909 22.3945 33.9139C22.3945 34.737 22.652 35.5394 23.1307 36.2088C23.6095 36.8782 24.2857 37.381 25.0646 37.647C25.8434 37.9129 26.686 37.9285 27.4741 37.6917C28.2623 37.4549 28.9567 36.9774 29.46 36.3263H31.0012V46.7529H42.1469V45.3122C41.4957 44.8089 41.0183 44.1145 40.7815 43.3263C40.5447 42.5381 40.5603 41.6955 40.8262 40.9167C41.0922 40.1378 41.595 39.4616 42.2644 38.9828C42.9338 38.504 43.7362 38.2466 44.5592 38.2466C45.3822 38.2466 46.1846 38.504 46.854 38.9828C47.5234 39.4616 48.0263 40.1378 48.2922 40.9167C48.5581 41.6955 48.5737 42.5381 48.3369 43.3263C48.1001 44.1145 47.6227 44.8089 46.9715 45.3122V46.7529H57.1076V21.2894H31.0012Z" fill="black"/>
<path d="M31.8589 21.2894V31.5016H30.3177C29.8144 30.8504 29.12 30.373 28.3318 30.1362C27.5436 29.8994 26.7011 29.915 25.9222 30.1809C25.1434 30.4468 24.4672 30.9497 23.9884 31.6191C23.5096 32.2885 23.2522 33.0909 23.2522 33.9139C23.2522 34.737 23.5096 35.5394 23.9884 36.2088C24.4672 36.8782 25.1434 37.381 25.9222 37.647C26.7011 37.9129 27.5436 37.9285 28.3318 37.6917C29.12 37.4549 29.8144 36.9774 30.3177 36.3263H31.8589V46.7529H42.9956V45.3122C42.3445 44.8089 41.8671 44.1145 41.6302 43.3263C41.3934 42.5381 41.409 41.6955 41.675 40.9167C41.9409 40.1378 42.4438 39.4616 43.1131 38.9828C43.7825 38.504 44.5849 38.2466 45.4079 38.2466C46.2309 38.2466 47.0333 38.504 47.7027 38.9828C48.3721 39.4616 48.875 40.1378 49.1409 40.9167C49.4068 41.6955 49.4225 42.5381 49.1856 43.3263C48.9488 44.1145 48.4714 44.8089 47.8202 45.3122V46.7529H57.9563V21.2894H31.8589Z" fill="#9868BF"/>
<path d="M33.0603 58.2149C32.4236 58.1809 31.7883 58.3022 31.2089 58.5684C30.6295 58.8345 30.1235 59.2376 29.7345 59.7427H28.908V48.541H18.7719V49.9817C19.4231 50.485 19.9005 51.1794 20.1374 51.9676C20.3742 52.7558 20.3585 53.5984 20.0926 54.3772C19.8267 55.1561 19.3238 55.8323 18.6544 56.3111C17.985 56.7899 17.1826 57.0473 16.3596 57.0473C15.5366 57.0473 14.7342 56.7899 14.0649 56.3111C13.3955 55.8323 12.8926 55.1561 12.6267 54.3772C12.3607 53.5984 12.3451 52.7558 12.5819 51.9676C12.8188 51.1794 13.2962 50.485 13.9473 49.9817V48.541H2.80835V72.0925C2.80835 72.5984 3.00932 73.0836 3.36704 73.4413C3.72477 73.799 4.20995 74 4.71585 74H28.908V64.5674H29.7345C30.139 65.0904 30.6685 65.5033 31.2743 65.7683C31.8801 66.0332 32.5427 66.1416 33.2014 66.0835C33.86 66.0254 34.4935 65.8026 35.0435 65.4357C35.5936 65.0688 36.0426 64.5695 36.3493 63.9838C36.656 63.398 36.8105 62.7445 36.7986 62.0834C36.7868 61.4223 36.609 60.7748 36.2815 60.2004C35.954 59.626 35.4874 59.1431 34.9245 58.7962C34.3617 58.4492 33.7206 58.2494 33.0603 58.2149Z" fill="#FBE980"/>
<path opacity="0.2" d="M33.0603 58.2149C32.4236 58.1809 31.7883 58.3022 31.2089 58.5684C30.6295 58.8345 30.1235 59.2376 29.7345 59.7427H28.908V48.541H18.7719V49.9817C19.4231 50.485 19.9005 51.1794 20.1374 51.9676C20.3742 52.7558 20.3585 53.5984 20.0926 54.3772C19.8267 55.1561 19.3238 55.8323 18.6544 56.3111C17.985 56.7899 17.1826 57.0473 16.3596 57.0473C15.5366 57.0473 14.7342 56.7899 14.0649 56.3111C13.3955 55.8323 12.8926 55.1561 12.6267 54.3772C12.3607 53.5984 12.3451 52.7558 12.5819 51.9676C12.8188 51.1794 13.2962 50.485 13.9473 49.9817V48.541H2.80835V72.0925C2.80835 72.5984 3.00932 73.0836 3.36704 73.4413C3.72477 73.799 4.20995 74 4.71585 74H28.908V64.5674H29.7345C30.139 65.0904 30.6685 65.5033 31.2743 65.7683C31.8801 66.0332 32.5427 66.1416 33.2014 66.0835C33.86 66.0254 34.4935 65.8026 35.0435 65.4357C35.5936 65.0688 36.0426 64.5695 36.3493 63.9838C36.656 63.398 36.8105 62.7445 36.7986 62.0834C36.7868 61.4223 36.609 60.7748 36.2815 60.2004C35.954 59.626 35.4874 59.1431 34.9245 58.7962C34.3617 58.4492 33.7206 58.2494 33.0603 58.2149Z" fill="black"/>
<path d="M34.4876 58.2149C33.8506 58.1809 33.2149 58.3023 32.6351 58.5684C32.0554 58.8345 31.549 59.2375 31.1595 59.7427H30.3308V48.541H20.197V49.9817C20.8481 50.485 21.3255 51.1794 21.5624 51.9676C21.7992 52.7558 21.7835 53.5984 21.5176 54.3772C21.2517 55.1561 20.7488 55.8323 20.0794 56.3111C19.41 56.7899 18.6077 57.0473 17.7847 57.0473C16.9617 57.0473 16.1593 56.7899 15.4899 56.3111C14.8205 55.8323 14.3176 55.1561 14.0517 54.3772C13.7858 53.5984 13.7701 52.7558 14.0069 51.9676C14.2438 51.1794 14.7212 50.485 15.3724 49.9817V48.541H4.2356V72.0925C4.2356 72.5984 4.43656 73.0836 4.79429 73.4413C5.15202 73.799 5.6372 74 6.1431 74H30.3308V64.5674H31.1573C31.5617 65.0903 32.0911 65.5032 32.6968 65.7681C33.3025 66.033 33.9651 66.1414 34.6236 66.0834C35.2821 66.0254 35.9155 65.8028 36.4656 65.436C37.0156 65.0693 37.4647 64.5702 37.7715 63.9846C38.0783 63.399 38.233 62.7457 38.2214 62.0847C38.2097 61.4237 38.0322 60.7762 37.705 60.2018C37.3778 59.6273 36.9115 59.1443 36.3489 58.7971C35.7863 58.45 35.1455 58.2497 34.4853 58.2149H34.4876Z" fill="#9868BF"/>
<path d="M46.7727 48.3417V46.8519C47.4243 46.3483 47.902 45.6536 48.139 44.8649C48.3761 44.0762 48.3604 43.2332 48.0944 42.4538C47.8284 41.6745 47.3252 40.9979 46.6554 40.5188C45.9856 40.0397 45.1827 39.7821 44.3593 39.7821C43.5358 39.7821 42.7329 40.0397 42.0631 40.5188C41.3933 40.9979 40.8902 41.6745 40.6241 42.4538C40.3581 43.2332 40.3425 44.0762 40.5795 44.8649C40.8165 45.6536 41.2943 46.3483 41.9458 46.8519V48.3417H30.8091V59.5769H31.6355C32.1391 58.9253 32.8338 58.4475 33.6225 58.2105C34.4111 57.9735 35.2542 57.9891 36.0335 58.2552C36.8128 58.5212 37.4894 59.0244 37.9685 59.6942C38.4476 60.364 38.7052 61.1668 38.7052 61.9904C38.7052 62.8139 38.4476 63.6167 37.9685 64.2865C37.4894 64.9563 36.8128 65.4595 36.0335 65.7255C35.2542 65.9916 34.4111 66.0072 33.6225 65.7702C32.8338 65.5332 32.1391 65.0554 31.6355 64.4038H30.8091V73.8096H56.911V48.3462L46.7727 48.3417Z" fill="#FBE980"/>
<path opacity="0.3" d="M46.7727 48.3417V46.8519C47.4243 46.3483 47.902 45.6536 48.139 44.8649C48.3761 44.0762 48.3604 43.2332 48.0944 42.4538C47.8284 41.6745 47.3252 40.9979 46.6554 40.5188C45.9856 40.0397 45.1827 39.7821 44.3593 39.7821C43.5358 39.7821 42.7329 40.0397 42.0631 40.5188C41.3933 40.9979 40.8902 41.6745 40.6241 42.4538C40.3581 43.2332 40.3425 44.0762 40.5795 44.8649C40.8165 45.6536 41.2943 46.3483 41.9458 46.8519V48.3417H30.8091V59.5769H31.6355C32.1391 58.9253 32.8338 58.4475 33.6225 58.2105C34.4111 57.9735 35.2542 57.9891 36.0335 58.2552C36.8128 58.5212 37.4894 59.0244 37.9685 59.6942C38.4476 60.364 38.7052 61.1668 38.7052 61.9904C38.7052 62.8139 38.4476 63.6167 37.9685 64.2865C37.4894 64.9563 36.8128 65.4595 36.0335 65.7255C35.2542 65.9916 34.4111 66.0072 33.6225 65.7702C32.8338 65.5332 32.1391 65.0554 31.6355 64.4038H30.8091V73.8096H56.911V48.3462L46.7727 48.3417Z" fill="black"/>
<path opacity="0.3" d="M46.7727 48.3417V46.8519C47.4243 46.3483 47.902 45.6536 48.139 44.8649C48.3761 44.0762 48.3604 43.2332 48.0944 42.4538C47.8284 41.6745 47.3252 40.9979 46.6554 40.5188C45.9856 40.0397 45.1827 39.7821 44.3593 39.7821C43.5358 39.7821 42.7329 40.0397 42.0631 40.5188C41.3933 40.9979 40.8902 41.6745 40.6241 42.4538C40.3581 43.2332 40.3425 44.0762 40.5795 44.8649C40.8165 45.6536 41.2943 46.3483 41.9458 46.8519V48.3417H30.8091V59.5769H31.6355C32.1391 58.9253 32.8338 58.4475 33.6225 58.2105C34.4111 57.9735 35.2542 57.9891 36.0335 58.2552C36.8128 58.5212 37.4894 59.0244 37.9685 59.6942C38.4476 60.364 38.7052 61.1668 38.7052 61.9904C38.7052 62.8139 38.4476 63.6167 37.9685 64.2865C37.4894 64.9563 36.8128 65.4595 36.0335 65.7255C35.2542 65.9916 34.4111 66.0072 33.6225 65.7702C32.8338 65.5332 32.1391 65.0554 31.6355 64.4038H30.8091V73.8096H56.911V48.3462L46.7727 48.3417Z" fill="black"/>
<path d="M47.7533 48.3409V46.8511C48.4044 46.3478 48.8819 45.6534 49.1187 44.8652C49.3555 44.077 49.3399 43.2345 49.074 42.4556C48.808 41.6767 48.3052 41.0005 47.6358 40.5217C46.9664 40.0429 46.164 39.7855 45.341 39.7855C44.518 39.7855 43.7156 40.0429 43.0462 40.5217C42.3768 41.0005 41.8739 41.6767 41.608 42.4556C41.3421 43.2345 41.3265 44.077 41.5633 44.8652C41.8001 45.6534 42.2775 46.3478 42.9287 46.8511V48.3409H31.7808V59.5761H32.6072C33.1108 58.9245 33.8055 58.4468 34.5942 58.2098C35.3828 57.9727 36.2258 57.9883 37.0052 58.2544C37.7845 58.5204 38.4611 59.0236 38.9402 59.6934C39.4193 60.3632 39.6769 61.1661 39.6769 61.9896C39.6769 62.8131 39.4193 63.616 38.9402 64.2858C38.4611 64.9556 37.7845 65.4587 37.0052 65.7248C36.2258 65.9908 35.3828 66.0064 34.5942 65.7694C33.8055 65.5324 33.1108 65.0546 32.6072 64.403H31.7808V73.8089H57.8805V48.3454L47.7533 48.3409Z" fill="#3B0368"/>
<path opacity="0.3" d="M47.7533 48.3409V46.8511C48.4044 46.3478 48.8819 45.6534 49.1187 44.8652C49.3555 44.077 49.3399 43.2345 49.074 42.4556C48.808 41.6767 48.3052 41.0005 47.6358 40.5217C46.9664 40.0429 46.164 39.7855 45.341 39.7855C44.518 39.7855 43.7156 40.0429 43.0462 40.5217C42.3768 41.0005 41.8739 41.6767 41.608 42.4556C41.3421 43.2345 41.3265 44.077 41.5633 44.8652C41.8001 45.6534 42.2775 46.3478 42.9287 46.8511V48.3409H31.7808V59.5761H32.6072C33.1108 58.9245 33.8055 58.4468 34.5942 58.2098C35.3828 57.9727 36.2258 57.9883 37.0052 58.2544C37.7845 58.5204 38.4611 59.0236 38.9402 59.6934C39.4193 60.3632 39.6769 61.1661 39.6769 61.9896C39.6769 62.8131 39.4193 63.616 38.9402 64.2858C38.4611 64.9556 37.7845 65.4587 37.0052 65.7248C36.2258 65.9908 35.3828 66.0064 34.5942 65.7694C33.8055 65.5324 33.1108 65.0546 32.6072 64.403H31.7808V73.8089H57.8805V48.3454L47.7533 48.3409Z" fill="black"/>
<path d="M29.4668 47.4018V36.9461H27.9257C27.4221 37.5977 26.7273 38.0755 25.9387 38.3125C25.15 38.5495 24.307 38.5339 23.5277 38.2678C22.7483 38.0018 22.0717 37.4986 21.5926 36.8288C21.1136 36.159 20.856 35.3562 20.856 34.5327C20.856 33.7092 21.1136 32.9063 21.5926 32.2365C22.0717 31.5667 22.7483 31.0635 23.5277 30.7975C24.307 30.5314 25.15 30.5158 25.9387 30.7528C26.7273 30.9898 27.4221 31.4676 27.9257 32.1192H29.4668V21.9338H3.36938V47.3973H14.5061V48.8871C13.8543 49.3905 13.3762 50.0853 13.139 50.874C12.9017 51.6627 12.9171 52.5059 13.1831 53.2854C13.449 54.0649 13.9522 54.7416 14.622 55.2209C15.2918 55.7001 16.0948 55.9578 16.9184 55.9578C17.7421 55.9578 18.545 55.7001 19.2149 55.2209C19.8847 54.7416 20.3879 54.0649 20.6538 53.2854C20.9198 52.5059 20.9352 51.6627 20.6979 50.874C20.4607 50.0853 19.9826 49.3905 19.3307 48.8871V47.4018H29.4668Z" fill="#FBE980"/>
<path opacity="0.3" d="M29.4668 47.4018V36.9461H27.9257C27.4221 37.5977 26.7273 38.0755 25.9387 38.3125C25.15 38.5495 24.307 38.5339 23.5277 38.2678C22.7483 38.0018 22.0717 37.4986 21.5926 36.8288C21.1136 36.159 20.856 35.3562 20.856 34.5327C20.856 33.7092 21.1136 32.9063 21.5926 32.2365C22.0717 31.5667 22.7483 31.0635 23.5277 30.7975C24.307 30.5314 25.15 30.5158 25.9387 30.7528C26.7273 30.9898 27.4221 31.4676 27.9257 32.1192H29.4668V21.9338H3.36938V47.3973H14.5061V48.8871C13.8543 49.3905 13.3762 50.0853 13.139 50.874C12.9017 51.6627 12.9171 52.5059 13.1831 53.2854C13.449 54.0649 13.9522 54.7416 14.622 55.2209C15.2918 55.7001 16.0948 55.9578 16.9184 55.9578C17.7421 55.9578 18.545 55.7001 19.2149 55.2209C19.8847 54.7416 20.3879 54.0649 20.6538 53.2854C20.9198 52.5059 20.9352 51.6627 20.6979 50.874C20.4607 50.0853 19.9826 49.3905 19.3307 48.8871V47.4018H29.4668Z" fill="black"/>
<path opacity="0.2" d="M29.4668 47.4018V36.9461H27.9257C27.4221 37.5977 26.7273 38.0755 25.9387 38.3125C25.15 38.5495 24.307 38.5339 23.5277 38.2678C22.7483 38.0018 22.0717 37.4986 21.5926 36.8288C21.1136 36.159 20.856 35.3562 20.856 34.5327C20.856 33.7092 21.1136 32.9063 21.5926 32.2365C22.0717 31.5667 22.7483 31.0635 23.5277 30.7975C24.307 30.5314 25.15 30.5158 25.9387 30.7528C26.7273 30.9898 27.4221 31.4676 27.9257 32.1192H29.4668V21.9338H3.36938V47.3973H14.5061V48.8871C13.8543 49.3905 13.3762 50.0853 13.139 50.874C12.9017 51.6627 12.9171 52.5059 13.1831 53.2854C13.449 54.0649 13.9522 54.7416 14.622 55.2209C15.2918 55.7001 16.0948 55.9578 16.9184 55.9578C17.7421 55.9578 18.545 55.7001 19.2149 55.2209C19.8847 54.7416 20.3879 54.0649 20.6538 53.2854C20.9198 52.5059 20.9352 51.6627 20.6979 50.874C20.4607 50.0853 19.9826 49.3905 19.3307 48.8871V47.4018H29.4668Z" fill="black"/>
<path d="M30.5545 47.4018V36.9461H29.0133C28.5097 37.5977 27.8149 38.0755 27.0263 38.3125C26.2376 38.5495 25.3946 38.5339 24.6153 38.2678C23.8359 38.0018 23.1593 37.4986 22.6803 36.8288C22.2012 36.159 21.9436 35.3562 21.9436 34.5327C21.9436 33.7092 22.2012 32.9063 22.6803 32.2365C23.1593 31.5667 23.8359 31.0635 24.6153 30.7975C25.3946 30.5314 26.2376 30.5158 27.0263 30.7528C27.8149 30.9898 28.5097 31.4676 29.0133 32.1192H30.5545V21.9338H4.45923V47.3973H15.5893V48.8871C14.9374 49.3905 14.4594 50.0853 14.2221 50.874C13.9849 51.6627 14.0003 52.5059 14.2662 53.2854C14.5322 54.0649 15.0353 54.7416 15.7051 55.2209C16.375 55.7001 17.178 55.9578 18.0016 55.9578C18.8252 55.9578 19.6282 55.7001 20.298 55.2209C20.9679 54.7416 21.471 54.0649 21.737 53.2854C22.0029 52.5059 22.0183 51.6627 21.7811 50.874C21.5438 50.0853 21.0658 49.3905 20.4139 48.8871V47.4018H30.5545Z" fill="#540494"/>
<path opacity="0.3" d="M30.5545 47.4018V36.9461H29.0133C28.5097 37.5977 27.8149 38.0755 27.0263 38.3125C26.2376 38.5495 25.3946 38.5339 24.6153 38.2678C23.8359 38.0018 23.1593 37.4986 22.6803 36.8288C22.2012 36.159 21.9436 35.3562 21.9436 34.5327C21.9436 33.7092 22.2012 32.9063 22.6803 32.2365C23.1593 31.5667 23.8359 31.0635 24.6153 30.7975C25.3946 30.5314 26.2376 30.5158 27.0263 30.7528C27.8149 30.9898 28.5097 31.4676 29.0133 32.1192H30.5545V21.9338H4.45923V47.3973H15.5893V48.8871C14.9374 49.3905 14.4594 50.0853 14.2221 50.874C13.9849 51.6627 14.0003 52.5059 14.2662 53.2854C14.5322 54.0649 15.0353 54.7416 15.7051 55.2209C16.375 55.7001 17.178 55.9578 18.0016 55.9578C18.8252 55.9578 19.6282 55.7001 20.298 55.2209C20.9679 54.7416 21.471 54.0649 21.737 53.2854C22.0029 52.5059 22.0183 51.6627 21.7811 50.874C21.5438 50.0853 21.0658 49.3905 20.4139 48.8871V47.4018H30.5545Z" fill="black"/>
<path d="M2.08497 11.4952C1.77407 11.7199 1.44102 11.9122 1.09102 12.0692C0.757677 12.2594 0.406889 12.4172 0.043457 12.5405C0.354357 12.3158 0.687405 12.1235 1.03741 11.9665C1.37017 11.7751 1.72107 11.6173 2.08497 11.4952Z" fill="#6F4439"/>
</svg>
