<svg width="158" height="216" viewBox="0 0 158 216" fill="none" xmlns="http://www.w3.org/2000/svg">
<path d="M147.849 169.085H16.2694C15.5885 169.085 15.0365 169.637 15.0365 170.318V214.767C15.0365 215.448 15.5885 216 16.2694 216H147.849C148.53 216 149.082 215.448 149.082 214.767V170.318C149.082 169.637 148.53 169.085 147.849 169.085Z" fill="#E2EAFD"/>
<path d="M78.8239 198.873C122.357 198.873 157.648 188.036 157.648 174.669C157.648 161.302 122.357 150.466 78.8239 150.466C35.2906 150.466 0 161.302 0 174.669C0 188.036 35.2906 198.873 78.8239 198.873Z" fill="#E2EAFD"/>
<path d="M110.132 172.436H51.3801L62.4953 37.2725H97.9454L110.132 172.436Z" fill="#E2EAFD"/>
<path d="M126.742 0H113.548V20.0465C113.548 21.6294 114.321 22.8647 112.747 22.7284L109.861 22.4114C108.473 22.2893 108.076 21.1244 108.076 19.7318V1.98444C108.076 0.497863 107.663 0 106.176 0H98.156C96.6695 0 94.3985 0.497863 94.3985 1.98444V18.9944C94.3985 20.4035 93.856 21.5636 92.4587 21.6787L87.6326 21.9605C86.0662 22.0826 83.4523 20.8497 83.4523 19.2786V1.98444C83.4523 0.497863 83.3255 0 81.8389 0H80.289C78.8024 0 77.9781 0.497863 77.9781 1.98444V18.7314C77.9781 20.0982 76.771 21.2465 75.4159 21.4062L73.6898 21.8313C72.0881 22.0215 72.5155 20.7745 72.5155 19.1611V1.98444C72.5155 0.497863 67.4663 0 65.9797 0H57.9574C56.4708 0 56.0951 0.497863 56.0951 1.98444V18.9944C56.0951 20.4035 54.6014 21.5636 53.2041 21.6787L50.2216 21.9605C48.6551 22.0826 47.8849 20.8497 47.8849 19.2786V1.98444C47.8849 0.497863 45.1254 0 43.6388 0H39.7051C38.2139 0 36.9175 0.507271 36.9175 1.99855V34.1725C36.9175 39.9709 57.0509 44.6701 81.8272 44.6701C106.604 44.6701 126.713 40.3255 126.713 34.5248C126.718 34.1302 126.742 0 126.742 0Z" fill="#E2EAFD"/>
</svg>
