<svg width="48" height="48" viewBox="0 0 48 48" fill="none" xmlns="http://www.w3.org/2000/svg">
<path opacity="0.1" fill-rule="evenodd" clip-rule="evenodd" d="M29.7689 24.3524C29.7689 21.0262 27.1194 18.3207 23.8176 18.3207V16.1877C28.2865 16.1877 31.8734 19.8531 31.8734 24.3524C31.8734 28.8542 28.2594 32.5171 23.8176 32.5171V30.3842C27.0971 30.3842 29.7689 27.6762 29.7689 24.3524Z" fill="white"/>
<path fill-rule="evenodd" clip-rule="evenodd" d="M10.7591 10.5985C6.51762 9.44574 2.1811 12.0154 1.06738 16.2903L1.06703 16.2917C-0.0703545 20.5905 2.46502 24.9856 6.68295 26.1144C6.87024 26.1645 6.98198 26.3591 6.93253 26.5489C6.88307 26.7387 6.69115 26.852 6.50386 26.8018C1.91191 25.573 -0.848631 20.7885 0.389303 16.1082C1.60211 11.4543 6.32294 8.65674 10.9408 9.91179C11.1279 9.96265 11.2389 10.1576 11.1887 10.3472C11.1386 10.5369 10.9462 10.6494 10.7591 10.5985Z" fill="white"/>
<path fill-rule="evenodd" clip-rule="evenodd" d="M12.261 32.077C12.398 32.2158 12.398 32.4409 12.261 32.5798C10.7894 34.0713 10.7894 36.5049 12.261 37.9964C13.7326 39.4879 16.1338 39.4879 17.6054 37.9964C17.7424 37.8575 17.9644 37.8575 18.1014 37.9964C18.2384 38.1352 18.2384 38.3603 18.1014 38.4991C16.3559 40.2683 13.5105 40.2683 11.765 38.4991C10.0194 36.7299 10.0194 33.8462 11.765 32.077C11.902 31.9382 12.124 31.9382 12.261 32.077Z" fill="white"/>
<path fill-rule="evenodd" clip-rule="evenodd" d="M16.071 10.9334C14.5993 9.44186 12.1982 9.44186 10.7266 10.9334C9.25498 12.4249 9.25498 14.8585 10.7266 16.35C10.8636 16.4888 10.8636 16.7139 10.7266 16.8527C10.5896 16.9916 10.3675 16.9916 10.2306 16.8527C8.485 15.0836 8.485 12.1998 10.2306 10.4306C11.9761 8.66147 14.8214 8.66147 16.567 10.4306C16.704 10.5695 16.704 10.7945 16.567 10.9334C16.43 11.0722 16.2079 11.0722 16.071 10.9334Z" fill="white"/>
<path fill-rule="evenodd" clip-rule="evenodd" d="M8.42464 38.2941C8.61787 38.3078 8.76353 38.4778 8.74997 38.6736C8.56023 41.4139 9.74585 44.1752 12.1388 45.8561L12.1392 45.8564C15.7176 48.3783 20.6705 47.4889 23.158 43.8393C23.2681 43.6778 23.4865 43.6373 23.6459 43.7489C23.8053 43.8605 23.8452 44.0819 23.7351 44.2434C21.0257 48.2187 15.6341 49.1854 11.7387 46.4401C9.13295 44.6095 7.84399 41.602 8.0502 38.6238C8.06376 38.428 8.2314 38.2804 8.42464 38.2941Z" fill="white"/>
<path fill-rule="evenodd" clip-rule="evenodd" d="M3.0302 24.0262C3.16717 24.1651 3.16717 24.3901 3.0302 24.529C-0.0747444 27.6759 -0.0747444 32.7431 3.0302 35.89C5.3532 38.2444 8.74171 38.8448 11.6091 37.668C11.7887 37.5943 11.9932 37.6821 12.0659 37.864C12.1386 38.046 12.052 38.2533 11.8724 38.327C8.75094 39.6081 5.06167 38.9544 2.53417 36.3928C-0.844723 32.9682 -0.844723 27.4508 2.53417 24.0262C2.67114 23.8874 2.89322 23.8874 3.0302 24.0262Z" fill="white"/>
<path fill-rule="evenodd" clip-rule="evenodd" d="M9.65824 2.04872C13.3079 -0.400651 18.2124 0.608232 20.6295 4.30686C20.7365 4.47054 20.9541 4.51535 21.1156 4.40693C21.2771 4.29852 21.3213 4.07794 21.2143 3.91426C18.5831 -0.112131 13.2427 -1.21026 9.27015 1.45647L9.27015 1.45646L9.26869 1.45745C6.30399 3.46935 4.93613 6.99851 5.55546 10.3462C5.59116 10.5392 5.77444 10.6663 5.96483 10.6301C6.15523 10.5939 6.28063 10.4082 6.24493 10.2152C5.67643 7.14223 6.93152 3.89955 9.65824 2.04872Z" fill="white"/>
<path fill-rule="evenodd" clip-rule="evenodd" d="M42.3848 22.1218C42.4528 22.3057 42.3608 22.5105 42.1793 22.5794L36.5617 24.7113C36.5223 24.7263 36.4807 24.7339 36.4387 24.7339H32.2316C32.0379 24.7339 31.8809 24.5748 31.8809 24.3784C31.8809 24.1821 32.0379 24.0229 32.2316 24.0229H36.3752L41.9334 21.9135C42.1148 21.8447 42.3169 21.9379 42.3848 22.1218Z" fill="white"/>
<path fill-rule="evenodd" clip-rule="evenodd" d="M23.6796 32.5779C23.8576 32.5006 24.0638 32.5842 24.1401 32.7647L28.2561 42.5067H30.8212C31.0149 42.5067 31.1719 42.6659 31.1719 42.8622C31.1719 43.0585 31.0149 43.2177 30.8212 43.2177H28.0247C27.8844 43.2177 27.7575 43.1329 27.7023 43.0021L23.4952 33.0446C23.419 32.8641 23.5015 32.6551 23.6796 32.5779Z" fill="white"/>
<path fill-rule="evenodd" clip-rule="evenodd" d="M35.4742 11.1337C35.6111 11.2725 35.6111 11.4976 35.4742 11.6364L29.3368 17.8567C29.1998 17.9956 28.9777 17.9956 28.8408 17.8568C28.7038 17.7179 28.7038 17.4928 28.8408 17.354L34.9781 11.1337C35.1151 10.9948 35.3372 10.9948 35.4742 11.1337Z" fill="white"/>
<path fill-rule="evenodd" clip-rule="evenodd" d="M23.8175 6.94165C24.0113 6.94165 24.1683 7.10081 24.1683 7.29714V15.8501C24.1683 16.0465 24.0113 16.2056 23.8175 16.2056C23.6238 16.2056 23.4668 16.0465 23.4668 15.8501V7.29714C23.4668 7.10081 23.6238 6.94165 23.8175 6.94165Z" fill="white"/>
<path fill-rule="evenodd" clip-rule="evenodd" d="M44.8525 19.0393C43.5018 19.0393 42.4068 20.1491 42.4068 21.5181C42.4068 22.8871 43.5018 23.9969 44.8525 23.9969C46.2033 23.9969 47.2983 22.8871 47.2983 21.5181C47.2983 20.1491 46.2033 19.0393 44.8525 19.0393ZM41.7053 21.5181C41.7053 19.7565 43.1144 18.3284 44.8525 18.3284C46.5907 18.3284 47.9997 19.7565 47.9997 21.5181C47.9997 23.2798 46.5907 24.7079 44.8525 24.7079C43.1144 24.7079 41.7053 23.2798 41.7053 21.5181Z" fill="white"/>
<path fill-rule="evenodd" clip-rule="evenodd" d="M36.4387 6.24638C35.088 6.24638 33.993 7.35617 33.993 8.72517C33.993 10.0942 35.088 11.2039 36.4387 11.2039C37.7894 11.2039 38.8844 10.0942 38.8844 8.72517C38.8844 7.35617 37.7894 6.24638 36.4387 6.24638ZM33.2915 8.72517C33.2915 6.96352 34.7006 5.5354 36.4387 5.5354C38.1769 5.5354 39.5859 6.96352 39.5859 8.72517C39.5859 10.4868 38.1769 11.9149 36.4387 11.9149C34.7006 11.9149 33.2915 10.4868 33.2915 8.72517Z" fill="white"/>
<path fill-rule="evenodd" clip-rule="evenodd" d="M23.8174 1.9827C22.4666 1.9827 21.3717 3.0925 21.3717 4.4615C21.3717 5.83049 22.4666 6.94026 23.8174 6.94026C25.1681 6.94026 26.2631 5.83049 26.2631 4.4615C26.2631 3.0925 25.1681 1.9827 23.8174 1.9827ZM20.6702 4.4615C20.6702 2.69985 22.0792 1.27173 23.8174 1.27173C25.5555 1.27173 26.9646 2.69985 26.9646 4.4615C26.9646 6.22315 25.5555 7.65124 23.8174 7.65124C22.0792 7.65124 20.6702 6.22315 20.6702 4.4615Z" fill="white"/>
<path fill-rule="evenodd" clip-rule="evenodd" d="M40.6457 31.8558C39.295 31.8558 38.2 32.9655 38.2 34.3345C38.2 35.7035 39.295 36.8133 40.6457 36.8133C41.9965 36.8133 43.0915 35.7035 43.0915 34.3345C43.0915 32.9655 41.9965 31.8558 40.6457 31.8558ZM37.4985 34.3345C37.4985 32.5729 38.9076 31.1448 40.6457 31.1448C42.3839 31.1448 43.793 32.5729 43.793 34.3345C43.793 36.0962 42.3839 37.5243 40.6457 37.5243C38.9076 37.5243 37.4985 36.0962 37.4985 34.3345Z" fill="white"/>
<path fill-rule="evenodd" clip-rule="evenodd" d="M33.6426 40.3831C32.2918 40.3831 31.1969 41.4929 31.1969 42.8619C31.1969 44.2309 32.2918 45.3407 33.6426 45.3407C34.9933 45.3407 36.0883 44.2309 36.0883 42.8619C36.0883 41.4929 34.9933 40.3831 33.6426 40.3831ZM30.4954 42.8619C30.4954 41.1002 31.9044 39.6721 33.6426 39.6721C35.3807 39.6721 36.7898 41.1002 36.7898 42.8619C36.7898 44.6235 35.3807 46.0517 33.6426 46.0517C31.9044 46.0517 30.4954 44.6235 30.4954 42.8619Z" fill="white"/>
<path fill-rule="evenodd" clip-rule="evenodd" d="M29.8977 29.9783C30.0438 29.8494 30.2653 29.8648 30.3926 30.0129L33.8019 33.9793H37.8493C38.043 33.9793 38.2 34.1384 38.2 34.3347C38.2 34.5311 38.043 34.6902 37.8493 34.6902H33.6422C33.5408 34.6902 33.4444 34.6457 33.3778 34.5683L29.8636 30.4799C29.7364 30.3318 29.7516 30.1073 29.8977 29.9783Z" fill="white"/>
<path fill-rule="evenodd" clip-rule="evenodd" d="M23.8176 16.2054C19.3643 16.2054 15.7542 19.8643 15.7542 24.3778C15.7542 28.8913 19.3643 32.5502 23.8176 32.5502C28.2709 32.5502 31.881 28.8913 31.881 24.3778C31.881 19.8643 28.2709 16.2054 23.8176 16.2054ZM15.0527 24.3778C15.0527 19.4716 18.9769 15.4944 23.8176 15.4944C28.6583 15.4944 32.5825 19.4716 32.5825 24.3778C32.5825 29.2839 28.6583 33.2611 23.8176 33.2611C18.9769 33.2611 15.0527 29.2839 15.0527 24.3778Z" fill="white"/>
<path opacity="0.4" fill-rule="evenodd" clip-rule="evenodd" d="M24.8603 24.3502C24.8603 23.7666 24.3981 23.2935 23.8176 23.2935V19.7385C26.3554 19.7385 28.3678 21.8237 28.3678 24.3502C28.3678 26.887 26.3206 28.962 23.8176 28.962V25.4071C24.3834 25.4071 24.8603 24.9237 24.8603 24.3502Z" fill="white"/>
<path opacity="0.1" fill-rule="evenodd" clip-rule="evenodd" d="M12.9407 24.3778C12.9407 18.8538 17.4658 13.3538 23.8177 13.3538V15.4867C18.7362 15.4867 15.0452 19.9192 15.0452 24.3778C15.0452 26.6473 15.7889 28.8742 17.2324 30.5197C18.6587 32.1456 20.823 33.2689 23.8177 33.2689V35.4018C20.2543 35.4018 17.5062 34.042 15.6596 31.9369C13.8302 29.8515 12.9407 27.0996 12.9407 24.3778Z" fill="white"/>
</svg>
