<svg width="98" height="92" viewBox="0 0 98 92" fill="none" xmlns="http://www.w3.org/2000/svg">
<path d="M88.018 54.7505C93.0802 34.1782 79.7151 13.5833 58.1661 8.75055C36.6171 3.91778 15.0445 16.6772 9.98233 37.2495C4.92013 57.8219 18.2853 78.4168 39.8343 83.2495C61.3832 88.0823 82.9558 75.3229 88.018 54.7505Z" fill="#540494"/>
<path d="M76.8765 26.7053H21.1465V62.1621H76.8765V26.7053Z" fill="black"/>
<path d="M74.4769 28.9971H23.5469V58.2675H74.4769V28.9971Z" fill="white"/>
<path d="M61.1969 28.9971H23.5469V58.2675H31.0569L61.1969 28.9971Z" fill="#E8E8E8"/>
<path d="M54.0366 62.1619H43.9766V65.3696H54.0366V62.1619Z" fill="black"/>
<path d="M56.2066 65.3699H41.8066V68.7494H56.2066V65.3699Z" fill="#D4A0FD"/>
<path d="M37.0871 39.4501C37.2259 39.3709 37.3855 39.3312 37.5471 39.3355C37.6715 39.3358 37.7943 39.3619 37.9071 39.4119C38.0155 39.4575 38.1139 39.5223 38.1971 39.6028C38.2772 39.68 38.3416 39.7706 38.3871 39.8701C38.4371 39.982 38.4643 40.1018 38.4671 40.2234C38.4687 40.3783 38.4269 40.5308 38.346 40.665C38.2652 40.7993 38.1481 40.9105 38.0071 40.9871L32.6571 44.0325L38.0071 47.1066C38.1474 47.1816 38.264 47.2912 38.3449 47.4238C38.4258 47.5564 38.468 47.7073 38.4671 47.8608C38.4707 47.978 38.4485 48.0946 38.402 48.2031C38.3555 48.3116 38.2857 48.4097 38.1971 48.4909C38.0232 48.6522 37.7896 48.7414 37.5471 48.7391C37.3855 48.7435 37.2259 48.7037 37.0871 48.6245L30.4371 44.8058C30.2901 44.7294 30.1676 44.6161 30.0831 44.4782C29.9985 44.3402 29.9549 44.1828 29.9571 44.023C29.9606 43.8668 30.0067 43.7142 30.0909 43.5803C30.175 43.4463 30.2944 43.3357 30.4371 43.2593L37.0871 39.4501Z" fill="black"/>
<path d="M52.2369 37.8461L46.8169 50.7819C46.7378 50.9324 46.6184 51.0602 46.4709 51.1524C46.3234 51.2446 46.153 51.298 45.9769 51.307C45.854 51.311 45.7317 51.2901 45.618 51.2457C45.5042 51.2012 45.4016 51.1343 45.3169 51.0493C45.2319 50.968 45.165 50.8711 45.1203 50.7644C45.0756 50.6578 45.054 50.5436 45.0569 50.4287C45.0604 50.3042 45.0875 50.1813 45.1369 50.0659L50.5569 37.1205C50.6112 37.0211 50.6821 36.9308 50.7669 36.8532C50.8964 36.7369 51.0585 36.6589 51.2335 36.6287C51.4085 36.5986 51.5889 36.6174 51.7529 36.6831C51.9169 36.7487 52.0574 36.8584 52.1575 36.9987C52.2576 37.139 52.313 37.304 52.3169 37.4737C52.3166 37.6017 52.2894 37.7283 52.2369 37.8461Z" fill="black"/>
<path d="M66.8075 43.2688C66.9527 43.3432 67.0746 43.4531 67.1607 43.5873C67.2468 43.7215 67.294 43.8752 67.2975 44.0325C67.2998 44.1935 67.2552 44.352 67.1687 44.4903C67.0822 44.6285 66.9571 44.741 66.8075 44.8154L60.1675 48.6341C60.0287 48.7133 59.8691 48.753 59.7075 48.7486C59.5873 48.7503 59.468 48.7292 59.3565 48.6866C59.2449 48.644 59.1433 48.5807 59.0575 48.5004C58.9689 48.4192 58.8991 48.3212 58.8526 48.2127C58.8061 48.1041 58.7839 47.9875 58.7875 47.8703C58.7866 47.7169 58.8288 47.566 58.9097 47.4333C58.9906 47.3007 59.1072 47.1912 59.2475 47.1161L64.5975 44.0421L59.2475 40.9966C59.1064 40.9201 58.9894 40.8089 58.9086 40.6746C58.8277 40.5403 58.7859 40.3878 58.7875 40.2329C58.7856 40.1119 58.8094 39.9917 58.8575 39.8797C58.9075 39.7802 58.9751 39.6898 59.0575 39.6124C59.1389 39.5299 59.2378 39.4648 59.3475 39.4214C59.4603 39.3714 59.5831 39.3454 59.7075 39.3451C59.8691 39.3407 60.0287 39.3804 60.1675 39.4596L66.8075 43.2688Z" fill="black"/>
</svg>
