<svg width="97" height="92" viewBox="0 0 97 92" fill="none" xmlns="http://www.w3.org/2000/svg">
<path d="M87.5145 54.7617C92.5842 34.1955 79.2266 13.6006 57.6794 8.76165C36.1322 3.92274 14.5549 16.6722 9.48521 37.2384C4.41549 57.8046 17.7731 78.3995 39.3203 83.2384C60.8675 88.0773 82.4448 75.3278 87.5145 54.7617Z" fill="#540494"/>
<path d="M72.2437 25.8704H25.8037V55.4113H72.2437V25.8704Z" fill="black"/>
<path d="M70.2437 27.7795H27.8037V52.1663H70.2437V27.7795Z" fill="white"/>
<path d="M59.1737 27.7795H27.8037V52.1663H34.0537L59.1737 27.7795Z" fill="#E8E8E8"/>
<path d="M53.2042 55.4116H44.8242V58.0841H53.2042V55.4116Z" fill="black"/>
<path d="M55.0137 58.084H43.0137V60.8997H55.0137V58.084Z" fill="#D4A0FD"/>
<path d="M59.9434 42.2493C59.4129 42.2493 58.9042 42.4504 58.5291 42.8084C58.1541 43.1664 57.9434 43.6519 57.9434 44.1582V64.8893C57.9434 65.3956 58.1541 65.8812 58.5291 66.2392C58.9042 66.5972 59.4129 66.7983 59.9434 66.7983H67.7134V42.2493H59.9434Z" fill="#0F303F"/>
<path d="M75.4939 42.2493H67.7139V66.7697H75.4939C76.0243 66.7697 76.533 66.5685 76.9081 66.2105C77.2832 65.8525 77.4939 65.367 77.4939 64.8607V44.1391C77.4886 43.6362 77.2756 43.1555 76.9011 42.8016C76.5266 42.4477 76.0209 42.2492 75.4939 42.2493Z" fill="#0F303F"/>
<path d="M68.804 65.3377C68.804 65.5435 68.7401 65.7447 68.6203 65.9157C68.5006 66.0868 68.3303 66.2202 68.1312 66.2989C67.932 66.3777 67.7128 66.3983 67.5014 66.3581C67.2899 66.318 67.0957 66.2189 66.9433 66.0734C66.7908 65.9279 66.687 65.7425 66.645 65.5407C66.6029 65.3389 66.6245 65.1297 66.707 64.9396C66.7895 64.7495 66.9292 64.587 67.1085 64.4727C67.2877 64.3584 67.4984 64.2974 67.714 64.2974C67.8572 64.2974 67.9989 64.3243 68.1312 64.3766C68.2634 64.4288 68.3836 64.5055 68.4848 64.6021C68.586 64.6987 68.6663 64.8134 68.7211 64.9396C68.7758 65.0658 68.804 65.2011 68.804 65.3377Z" fill="white"/>
<path d="M73.1339 43.242C73.1339 43.3382 73.0939 43.4304 73.0226 43.4984C72.9514 43.5664 72.8547 43.6047 72.7539 43.6047C72.7045 43.6047 72.6555 43.5952 72.61 43.5769C72.5644 43.5586 72.5232 43.5317 72.4887 43.4979C72.4542 43.4641 72.4272 43.424 72.4092 43.38C72.3912 43.3361 72.3826 43.2891 72.3839 43.242C72.3826 43.1952 72.3912 43.1487 72.4093 43.1053C72.4274 43.0618 72.4546 43.0224 72.4892 42.9893C72.5239 42.9563 72.5652 42.9303 72.6107 42.913C72.6562 42.8957 72.705 42.8875 72.7539 42.8888C72.8034 42.8875 72.8525 42.8957 72.8986 42.9129C72.9446 42.9301 72.9866 42.9559 73.022 42.9888C73.0575 43.0217 73.0856 43.0611 73.1048 43.1046C73.1241 43.1481 73.134 43.1948 73.1339 43.242Z" fill="white"/>
<path d="M67.6742 44.2822H58.8242V63.6389H67.6742H76.6042V44.2822H67.6742Z" fill="white"/>
<path d="M73.2542 44.2822H67.6742H58.8242V60.9473L73.2542 44.2822Z" fill="#E8E8E8"/>
<path d="M30.3035 44.177H25.5635V67.1416H30.3035C30.7581 67.1417 31.1947 66.972 31.5199 66.6687C31.8451 66.3655 32.033 65.9528 32.0435 65.519V45.8282C32.0408 45.3894 31.8563 44.9695 31.5303 44.6601C31.2043 44.3507 30.7632 44.177 30.3035 44.177Z" fill="#0F303F"/>
<path d="M20.824 44.177C20.3642 44.177 19.9232 44.3507 19.5971 44.6601C19.2711 44.9695 19.0866 45.3894 19.084 45.8282V65.519C19.084 65.9595 19.2673 66.3819 19.5936 66.6933C19.9199 67.0048 20.3625 67.1798 20.824 67.1798H25.564V44.177H20.824Z" fill="#0F303F"/>
<path d="M28.2036 45.1035H22.9336V45.5139H28.2036V45.1035Z" fill="white"/>
<path d="M25.5638 66.4734C25.281 66.4734 25.0045 66.3934 24.7693 66.2434C24.5342 66.0934 24.3509 65.8803 24.2426 65.6309C24.1344 65.3815 24.1061 65.107 24.1613 64.8423C24.2164 64.5775 24.3526 64.3343 24.5526 64.1434C24.7526 63.9525 25.0074 63.8225 25.2848 63.7699C25.5622 63.7172 25.8497 63.7442 26.111 63.8475C26.3723 63.9509 26.5957 64.1258 26.7528 64.3503C26.9099 64.5747 26.9938 64.8386 26.9938 65.1085C26.9938 65.4705 26.8431 65.8177 26.575 66.0737C26.3068 66.3296 25.943 66.4734 25.5638 66.4734ZM25.5638 64.0395C25.2667 64.0395 24.9819 64.1522 24.7718 64.3526C24.5618 64.5531 24.4438 64.825 24.4438 65.1085C24.4438 65.3921 24.5618 65.664 24.7718 65.8644C24.9819 66.0649 25.2667 66.1776 25.5638 66.1776C25.8608 66.1776 26.1457 66.0649 26.3557 65.8644C26.5658 65.664 26.6838 65.3921 26.6838 65.1085C26.6838 64.825 26.5658 64.5531 26.3557 64.3526C26.1457 64.1522 25.8608 64.0395 25.5638 64.0395Z" fill="white"/>
<path d="M25.6339 46.6685H19.7139V62.9422H25.6339H31.4139V46.6685H25.6339Z" fill="white"/>
<path d="M27.1239 46.6685H25.6339H19.7139V54.4856L27.1239 46.6685Z" fill="#E8E8E8"/>
</svg>
