<svg width="1440" height="1024" viewBox="0 0 1440 1024" fill="none" xmlns="http://www.w3.org/2000/svg">
<g style="mix-blend-mode:multiply">
<path d="M1384.62 -370.679C1128.39 -354.795 901.935 -229.201 751.853 -40.4139C748.043 -35.6003 743.19 -31.7104 737.658 -29.036C732.126 -26.3616 726.059 -24.9723 719.912 -24.9723C713.766 -24.9723 707.699 -26.3616 702.167 -29.036C696.635 -31.7104 691.782 -35.6003 687.972 -40.4139C537.89 -229.201 311.437 -354.795 55.2089 -370.679C-469.202 -403.173 -906.682 31.7147 -876.113 555.255C-849.293 1014.88 -467.253 1379.39 0.0471802 1379.39C278.876 1379.39 527.35 1249.63 688.101 1047.31C691.912 1042.52 696.758 1038.65 702.278 1035.99C707.797 1033.33 713.847 1031.95 719.977 1031.95C726.106 1031.95 732.156 1033.33 737.676 1035.99C743.195 1038.65 748.041 1042.52 751.853 1047.31C912.518 1249.63 1161.01 1379.39 1439.91 1379.39C1907.23 1379.39 2289.27 1014.9 2316.07 555.255C2346.68 31.7147 1909.2 -403.173 1384.62 -370.679Z" fill="#07041B"/>
</g>
</svg>
