<svg width="271" height="365" viewBox="0 0 271 365" fill="none" xmlns="http://www.w3.org/2000/svg">
<path d="M299.612 284.99L308.359 267.06C308.705 266.353 308.828 265.558 308.713 264.78C308.598 264.002 308.25 263.276 307.715 262.699C307.18 262.122 306.483 261.721 305.716 261.547C304.948 261.374 304.146 261.437 303.415 261.728L297.154 264.218C297.031 264.267 296.895 264.273 296.767 264.236C296.64 264.198 296.529 264.119 296.451 264.011C296.374 263.903 296.335 263.772 296.341 263.639C296.347 263.507 296.397 263.38 296.484 263.279L298.035 261.473C298.595 260.822 298.924 260.004 298.972 259.147C299.019 258.29 298.782 257.44 298.298 256.732C297.813 256.023 297.108 255.494 296.291 255.227C295.475 254.96 294.594 254.971 293.784 255.256L291.4 256.097C291.284 256.137 291.159 256.141 291.041 256.108C290.924 256.075 290.819 256.006 290.742 255.911C290.665 255.816 290.618 255.7 290.61 255.578C290.601 255.456 290.63 255.334 290.693 255.229L292.564 252.121C292.98 251.429 293.172 250.626 293.112 249.821C293.052 249.016 292.744 248.25 292.23 247.627C291.716 247.005 291.022 246.557 290.243 246.346C289.464 246.135 288.639 246.171 287.881 246.449L282.721 248.345C282.605 248.388 282.478 248.393 282.359 248.36C282.24 248.327 282.133 248.257 282.056 248.161C281.978 248.065 281.932 247.947 281.924 247.823C281.916 247.7 281.947 247.577 282.013 247.472L284.368 243.726C284.787 243.058 284.994 242.28 284.962 241.493C284.93 240.705 284.66 239.946 284.188 239.315C283.716 238.685 283.064 238.212 282.317 237.959C281.571 237.706 280.766 237.685 280.007 237.899L275.329 239.22C275.207 239.255 275.076 239.249 274.958 239.203C274.839 239.158 274.737 239.076 274.669 238.969C274.6 238.862 274.567 238.735 274.576 238.608C274.584 238.481 274.633 238.361 274.715 238.263L275.889 236.89C276.417 236.272 276.739 235.503 276.808 234.692C276.878 233.882 276.692 233.07 276.277 232.37C275.862 231.67 275.238 231.118 274.493 230.79C273.748 230.463 272.92 230.376 272.123 230.543L264.284 232.19C264.157 232.217 264.024 232.202 263.907 232.147C263.79 232.092 263.693 231.999 263.633 231.884C263.573 231.769 263.553 231.638 263.575 231.51C263.597 231.382 263.66 231.265 263.755 231.176C264.391 230.576 264.807 229.778 264.935 228.913C265.063 228.048 264.897 227.164 264.462 226.405C264.027 225.645 263.35 225.054 262.539 224.727C261.728 224.399 260.83 224.353 259.99 224.598L253.109 226.613C252.986 226.649 252.854 226.644 252.734 226.6C252.614 226.555 252.511 226.473 252.442 226.365C252.373 226.257 252.34 226.13 252.349 226.002C252.358 225.874 252.409 225.752 252.493 225.655L256.87 220.565C257.419 219.926 257.746 219.127 257.802 218.286C257.859 217.446 257.642 216.61 257.183 215.903C256.725 215.197 256.05 214.658 255.259 214.367C254.469 214.076 253.606 214.049 252.798 214.29L245.24 216.553C245.121 216.59 244.994 216.588 244.877 216.548C244.76 216.509 244.658 216.434 244.585 216.333C244.513 216.233 244.473 216.113 244.473 215.989C244.472 215.865 244.511 215.744 244.582 215.643L247.084 212.081C247.546 211.422 247.794 210.636 247.792 209.831C247.79 209.026 247.539 208.241 247.073 207.585C246.607 206.928 245.949 206.432 245.19 206.164C244.431 205.896 243.607 205.87 242.833 206.089L236.314 207.929C236.204 207.959 236.088 207.957 235.979 207.923C235.87 207.889 235.773 207.824 235.7 207.737C235.627 207.649 235.58 207.543 235.566 207.429C235.552 207.316 235.571 207.201 235.62 207.098L237.716 202.803C238.072 202.071 238.192 201.247 238.056 200.444C237.921 199.642 237.538 198.902 236.961 198.329C236.384 197.755 235.641 197.377 234.838 197.246C234.035 197.116 233.211 197.24 232.482 197.601L226.488 200.574C226.382 200.627 226.262 200.646 226.145 200.63C226.027 200.614 225.918 200.564 225.829 200.485C225.741 200.406 225.678 200.302 225.649 200.188C225.619 200.073 225.625 199.952 225.665 199.84L226.476 197.568C226.759 196.787 226.784 195.935 226.548 195.139C226.312 194.342 225.828 193.641 225.166 193.138C224.504 192.636 223.699 192.358 222.868 192.346C222.038 192.333 221.224 192.586 220.547 193.068L217.306 195.379C217.229 195.434 217.14 195.47 217.046 195.483C216.952 195.497 216.856 195.487 216.767 195.456C216.677 195.425 216.596 195.373 216.531 195.304C216.466 195.236 216.418 195.152 216.391 195.061L215.931 193.486C215.69 192.658 215.182 191.933 214.485 191.426C213.788 190.918 212.942 190.655 212.08 190.68C211.218 190.704 210.388 191.013 209.721 191.559C209.054 192.105 208.586 192.858 208.392 193.698L208.057 195.142C208.029 195.26 207.966 195.367 207.877 195.448C207.787 195.53 207.674 195.582 207.554 195.597C207.434 195.613 207.312 195.591 207.205 195.536C207.097 195.48 207.009 195.393 206.952 195.286L206.152 193.774C205.755 193.025 205.125 192.426 204.358 192.067C203.59 191.708 202.726 191.609 201.897 191.785C201.068 191.961 200.319 192.403 199.763 193.043C199.208 193.684 198.876 194.487 198.819 195.333L198.55 199.25C198.542 199.379 198.492 199.501 198.407 199.599C198.323 199.697 198.209 199.764 198.083 199.791C197.957 199.818 197.825 199.803 197.708 199.749C197.591 199.694 197.495 199.603 197.434 199.489L195.968 196.745C195.596 196.045 195.018 195.476 194.314 195.114C193.609 194.751 192.811 194.612 192.025 194.714C191.24 194.817 190.504 195.156 189.916 195.688C189.328 196.219 188.916 196.917 188.735 197.689L187.549 202.735C187.52 202.857 187.453 202.966 187.359 203.047C187.265 203.128 187.147 203.178 187.023 203.189C186.899 203.2 186.775 203.172 186.667 203.109C186.56 203.045 186.476 202.95 186.426 202.835L184.781 199.051C184.474 198.343 183.963 197.742 183.313 197.324C182.664 196.907 181.905 196.692 181.133 196.706C180.361 196.721 179.61 196.964 178.977 197.406C178.344 197.847 177.856 198.467 177.575 199.186L174.842 206.184C174.796 206.301 174.715 206.4 174.609 206.467C174.503 206.535 174.379 206.567 174.254 206.56C174.129 206.553 174.009 206.506 173.912 206.426C173.815 206.347 173.746 206.239 173.714 206.118L172.349 200.899C172.165 200.195 171.788 199.557 171.26 199.056C170.732 198.556 170.075 198.213 169.363 198.066C168.65 197.92 167.911 197.975 167.229 198.227C166.547 198.479 165.948 198.917 165.502 199.491L160.326 206.137C160.247 206.243 160.136 206.319 160.009 206.354C159.882 206.389 159.747 206.38 159.625 206.33C159.503 206.28 159.402 206.19 159.337 206.076C159.271 205.961 159.246 205.829 159.264 205.698L159.526 203.426C159.615 202.642 159.464 201.849 159.093 201.152C158.721 200.456 158.147 199.888 157.447 199.525C156.746 199.161 155.951 199.019 155.168 199.117C154.385 199.215 153.65 199.549 153.06 200.074L146.277 206.167C146.182 206.252 146.062 206.304 145.935 206.316C145.808 206.327 145.681 206.298 145.572 206.231C145.463 206.165 145.378 206.065 145.331 205.947C145.283 205.829 145.274 205.698 145.306 205.575L145.475 204.928C145.704 204.058 145.625 203.135 145.251 202.316C144.876 201.498 144.23 200.834 143.422 200.438C142.614 200.042 141.693 199.937 140.817 200.143C139.94 200.348 139.162 200.851 138.614 201.565L135.752 205.289C135.695 205.364 135.621 205.424 135.536 205.464C135.451 205.504 135.357 205.524 135.263 205.521C135.169 205.518 135.077 205.493 134.995 205.448C134.912 205.403 134.842 205.339 134.789 205.261L126.781 193.426L124.045 195.277L132.053 207.112C132.399 207.624 132.861 208.046 133.402 208.344C133.943 208.642 134.547 208.808 135.165 208.826C135.782 208.845 136.395 208.717 136.953 208.452C137.511 208.187 137.998 207.793 138.374 207.304L141.235 203.58C141.318 203.472 141.437 203.396 141.57 203.365C141.703 203.334 141.843 203.35 141.966 203.41C142.089 203.47 142.187 203.57 142.245 203.695C142.302 203.819 142.315 203.959 142.281 204.091L142.111 204.738C141.899 205.549 141.954 206.407 142.267 207.184C142.581 207.962 143.137 208.617 143.852 209.054C144.568 209.49 145.405 209.685 146.24 209.608C147.075 209.531 147.863 209.187 148.487 208.627L155.269 202.534C155.359 202.453 155.471 202.402 155.59 202.387C155.71 202.371 155.831 202.393 155.938 202.448C156.046 202.503 156.133 202.589 156.19 202.696C156.247 202.802 156.27 202.923 156.257 203.042L155.996 205.315C155.899 206.159 156.081 207.012 156.514 207.743C156.948 208.475 157.608 209.044 158.395 209.366C159.181 209.687 160.052 209.743 160.873 209.524C161.694 209.305 162.422 208.824 162.944 208.154L168.118 201.508C168.186 201.421 168.277 201.354 168.381 201.316C168.485 201.278 168.597 201.269 168.706 201.292C168.814 201.314 168.914 201.366 168.995 201.442C169.075 201.517 169.133 201.614 169.161 201.721L170.527 206.942C170.736 207.738 171.192 208.447 171.828 208.968C172.465 209.49 173.251 209.796 174.072 209.844C174.894 209.892 175.709 209.678 176.402 209.234C177.095 208.79 177.63 208.138 177.929 207.372L180.662 200.374C180.705 200.264 180.779 200.17 180.876 200.102C180.972 200.035 181.087 199.998 181.204 199.996C181.322 199.994 181.438 200.027 181.536 200.091C181.635 200.154 181.713 200.246 181.76 200.354L183.403 204.139C183.729 204.891 184.284 205.52 184.988 205.938C185.692 206.357 186.511 206.543 187.326 206.47C188.142 206.397 188.915 206.069 189.533 205.532C190.152 204.995 190.586 204.277 190.774 203.48L191.96 198.432C191.988 198.314 192.051 198.208 192.141 198.127C192.23 198.046 192.342 197.995 192.462 197.979C192.582 197.964 192.704 197.985 192.811 198.04C192.918 198.096 193.006 198.182 193.063 198.289L194.528 201.034C194.927 201.78 195.558 202.376 196.326 202.732C197.093 203.088 197.956 203.184 198.783 203.007C199.611 202.829 200.358 202.388 200.912 201.748C201.466 201.109 201.797 200.307 201.855 199.462L202.124 195.547C202.133 195.418 202.183 195.295 202.268 195.198C202.352 195.1 202.466 195.032 202.593 195.005C202.719 194.979 202.851 194.994 202.968 195.049C203.085 195.103 203.181 195.195 203.241 195.309L204.042 196.821C204.413 197.523 204.991 198.095 205.697 198.46C206.402 198.824 207.203 198.965 207.99 198.862C208.778 198.759 209.516 198.418 210.104 197.884C210.692 197.351 211.104 196.65 211.283 195.876L211.618 194.431C211.648 194.304 211.72 194.189 211.822 194.107C211.924 194.024 212.05 193.977 212.181 193.973C212.312 193.97 212.441 194.01 212.547 194.087C212.653 194.165 212.731 194.275 212.768 194.401L213.227 195.976C213.402 196.573 213.717 197.12 214.146 197.571C214.575 198.021 215.105 198.363 215.693 198.567C216.281 198.77 216.909 198.83 217.525 198.742C218.141 198.653 218.727 198.418 219.233 198.057L222.474 195.746C222.578 195.672 222.702 195.634 222.828 195.635C222.955 195.637 223.078 195.68 223.179 195.756C223.28 195.833 223.353 195.94 223.389 196.062C223.425 196.183 223.42 196.313 223.377 196.432L222.552 198.71C222.289 199.441 222.25 200.234 222.44 200.988C222.631 201.741 223.042 202.42 223.621 202.938C224.201 203.455 224.922 203.788 225.691 203.893C226.461 203.998 227.245 203.871 227.942 203.527L233.936 200.554C234.047 200.498 234.173 200.479 234.296 200.499C234.418 200.518 234.532 200.576 234.62 200.664C234.708 200.751 234.766 200.864 234.787 200.987C234.807 201.11 234.788 201.236 234.733 201.347L232.638 205.643C232.309 206.319 232.183 207.075 232.274 207.821C232.365 208.567 232.67 209.271 233.152 209.848C233.634 210.424 234.272 210.85 234.99 211.072C235.708 211.294 236.475 211.305 237.198 211.101L243.718 209.262C243.836 209.229 243.961 209.232 244.077 209.273C244.193 209.313 244.294 209.389 244.365 209.489C244.436 209.589 244.474 209.709 244.474 209.832C244.474 209.955 244.437 210.074 244.366 210.175L241.865 213.738C241.398 214.401 241.149 215.194 241.154 216.005C241.159 216.817 241.417 217.606 241.892 218.264C242.368 218.922 243.036 219.415 243.805 219.674C244.574 219.934 245.405 219.947 246.181 219.712L253.741 217.448C253.864 217.412 253.996 217.416 254.116 217.46C254.236 217.505 254.339 217.587 254.409 217.695C254.479 217.802 254.512 217.929 254.503 218.057C254.495 218.185 254.445 218.307 254.362 218.404L249.983 223.489C249.433 224.126 249.103 224.924 249.044 225.764C248.984 226.603 249.198 227.44 249.654 228.148C250.11 228.856 250.782 229.397 251.571 229.691C252.36 229.984 253.223 230.015 254.031 229.777L260.914 227.769C261.044 227.729 261.183 227.733 261.31 227.783C261.436 227.832 261.542 227.923 261.609 228.041C261.677 228.158 261.702 228.295 261.681 228.429C261.66 228.563 261.593 228.686 261.493 228.777C260.874 229.36 260.463 230.129 260.321 230.967C260.18 231.805 260.317 232.666 260.71 233.419C261.104 234.173 261.733 234.777 262.502 235.139C263.27 235.502 264.136 235.603 264.968 235.428L272.808 233.782C272.929 233.756 273.056 233.769 273.169 233.818C273.283 233.868 273.378 233.952 273.441 234.059C273.505 234.166 273.533 234.29 273.522 234.413C273.511 234.537 273.462 234.654 273.381 234.748L272.209 236.12C271.665 236.756 271.341 237.55 271.283 238.385C271.226 239.219 271.438 240.05 271.89 240.755C272.341 241.459 273.007 242 273.789 242.297C274.572 242.593 275.429 242.63 276.233 242.402L280.911 241.081C281.027 241.048 281.15 241.051 281.264 241.089C281.377 241.128 281.477 241.2 281.549 241.296C281.621 241.392 281.662 241.508 281.667 241.628C281.672 241.748 281.64 241.866 281.576 241.968L279.222 245.715C278.789 246.404 278.582 247.211 278.631 248.023C278.679 248.835 278.981 249.612 279.493 250.244C280.005 250.876 280.702 251.332 281.487 251.548C282.271 251.764 283.103 251.729 283.867 251.448L289.027 249.552C289.142 249.51 289.268 249.504 289.387 249.536C289.506 249.568 289.612 249.636 289.69 249.731C289.768 249.826 289.815 249.943 289.824 250.065C289.833 250.188 289.804 250.311 289.74 250.416L287.868 253.523C287.454 254.211 287.262 255.009 287.319 255.81C287.375 256.611 287.678 257.374 288.185 257.997C288.692 258.619 289.378 259.07 290.151 259.288C290.924 259.505 291.745 259.479 292.502 259.213L294.886 258.372C295.009 258.328 295.144 258.325 295.269 258.366C295.394 258.406 295.502 258.487 295.576 258.595C295.651 258.703 295.687 258.833 295.679 258.964C295.672 259.095 295.621 259.22 295.535 259.319L293.983 261.125C293.415 261.786 293.084 262.618 293.045 263.49C293.005 264.361 293.259 265.22 293.765 265.929C294.272 266.639 295.002 267.159 295.838 267.405C296.674 267.651 297.569 267.61 298.379 267.287L304.641 264.797C304.753 264.752 304.875 264.743 304.992 264.77C305.109 264.796 305.215 264.858 305.296 264.946C305.378 265.034 305.431 265.144 305.448 265.263C305.466 265.382 305.447 265.503 305.394 265.61L296.648 283.54L299.612 284.99Z" fill="#384955"/>
<path d="M136.513 174.585C133.623 117.126 88.6805 72.597 31.1594 70.1327C26.0316 69.9135 21.6513 71.1064 18.162 75.09C16.4387 77.0579 14.4304 78.7738 12.584 80.6369C3.5566 89.7521 6.50201 104.075 18.6298 108.569C24.8129 110.863 31.2699 112.559 37.732 113.913C43.8974 115.204 49.3223 112.858 53.188 108.026C56.2495 104.199 59.2192 104.091 63.4785 105.871C82.2501 113.716 95.1442 127.013 102.037 146.162C103.034 148.935 103.33 151.169 100.528 153.354C92.9525 159.259 91.2413 166.905 94.3474 175.916C95.7363 179.948 96.4507 184.211 97.7485 188.281C101.855 201.164 116.471 204.89 126.124 195.573C127.316 194.422 128.489 193.253 129.67 192.088C136.555 185.339 136.998 184.208 136.513 174.585Z" fill="#430376"/>
<path d="M18.6289 108.57C8.31876 104.745 4.64514 93.8141 9.33193 85.0228C14.4282 90.7211 25.7764 98.8797 34.5251 101.774C46.5063 105.739 56.9599 105.087 56.9599 105.087C55.6589 105.538 54.4336 106.479 53.1921 108.029C49.3237 112.863 43.8988 115.209 37.736 113.917C31.2704 112.559 24.8068 110.867 18.6289 108.57Z" fill="#7707D0"/>
<path d="M98.2638 189.377C102.046 199.705 112.961 203.423 121.77 198.775C116.096 193.653 107.984 182.273 105.126 173.511C101.213 161.514 102.328 151.266 102.328 151.266C102.328 151.266 100.506 153.588 98.958 154.825C94.1075 158.673 91.7388 164.087 93.0036 170.259C94.3253 176.715 95.9958 183.184 98.2638 189.377Z" fill="#7707D0"/>
</svg>
