<svg width="510" height="759" viewBox="0 0 510 759" fill="none" xmlns="http://www.w3.org/2000/svg">
<g clip-path="url(#clip0_1_121781)">
<path d="M486.554 764.201L20.7329 762.501C18.044 762.493 15.3831 761.955 12.9023 760.917C10.4215 759.88 8.16938 758.364 6.27479 756.456C4.3802 754.548 2.88028 752.285 1.86073 749.797C0.841183 747.309 0.322022 744.644 0.332932 741.956L2.80001 63.697C2.80816 61.0081 3.34617 58.3472 4.38333 55.8664C5.42049 53.3856 6.93646 51.1335 8.84452 49.2389C10.7526 47.3443 13.0154 45.8444 15.5035 44.8248C17.9916 43.8053 20.6562 43.2861 23.3451 43.297L489.269 44.997C494.698 45.019 499.896 47.1952 503.722 51.0476C507.547 54.9 509.686 60.1133 509.669 65.5422L507.182 743.801C507.174 746.497 506.633 749.164 505.59 751.651C504.548 754.137 503.025 756.393 501.108 758.288C499.191 760.184 496.918 761.682 494.421 762.697C491.923 763.711 489.249 764.223 486.554 764.201Z" fill="#540494"/>
<path d="M486.553 764.201L488.129 764.097C492.257 763.792 496.194 762.229 499.407 759.619C502.169 757.386 504.31 754.48 505.626 751.181C506.413 749.196 506.868 747.095 506.974 744.962C507.098 742.723 506.974 740.339 506.974 737.872C506.974 732.896 506.974 727.464 506.974 721.576C506.974 709.822 506.974 696.242 507.078 680.942C507.264 619.784 507.534 531.322 507.865 421.983C508.052 367.313 508.259 307.44 508.467 243.172C508.563 211.01 508.674 177.798 508.798 143.535C508.798 126.411 508.861 109.044 508.985 91.4362C508.985 82.6459 508.985 73.7935 508.985 64.8789C508.876 60.4488 507.294 56.1812 504.49 52.75C501.685 49.3187 497.818 46.9191 493.498 45.9301C491.309 45.4894 489.075 45.3085 486.843 45.3911H480.043H466.361L438.767 45.2874L382.625 45.1008L266.839 44.6862L23.3447 43.8155C18.2121 43.7819 13.2642 45.7283 9.53028 49.2499C5.79631 52.7715 3.56379 57.5971 3.29713 62.7228C3.15201 73.0886 3.19347 83.4545 3.13127 93.6959C3.04835 114.303 2.97233 134.765 2.90322 155.083C2.73737 195.689 2.58533 235.687 2.44712 275.078C2.15688 353.734 1.86666 429.612 1.59715 501.903C1.32763 574.195 1.05811 642.879 0.809331 707.147C0.809331 715.191 0.809331 723.152 0.809331 731.051C0.809331 734.99 0.809331 738.95 0.809331 742.826C0.957236 746.662 2.20196 750.375 4.39591 753.524C6.58931 756.643 9.61302 759.085 13.124 760.573C14.8687 761.267 16.6934 761.741 18.5557 761.983C20.4215 762.148 22.3288 762.128 24.2362 762.128H46.8337L132.642 762.48L391.602 763.579L462.09 763.931H480.396H486.615H462.007L391.519 763.786L132.684 763.247L46.8752 762.978H24.2776C22.3703 762.978 20.463 762.978 18.5142 762.833C16.5779 762.592 14.6819 762.097 12.8752 761.361C9.22309 759.829 6.07612 757.3 3.7947 754.063C1.50395 750.789 0.208059 746.923 0.0629883 742.93C0.0629883 738.991 0.0629883 735.093 0.0629883 731.134C0.0629883 723.228 0.0629883 715.26 0.0629883 707.23C0.291037 642.962 0.519078 574.257 0.767859 501.986C1.01664 429.715 1.30688 353.817 1.57639 275.14C1.71461 235.819 1.85974 195.82 2.01177 155.145C2.01177 134.855 2.08089 114.4 2.2191 93.7789C2.2191 83.413 2.21908 73.1716 2.38493 62.6813C2.6723 57.3025 5.01746 52.2402 8.9347 48.543C12.8519 44.8457 18.0412 42.7967 23.4276 42.8203L266.922 43.7325L382.708 44.1679L438.85 44.3752L466.464 44.5411H480.147H486.947C489.242 44.4489 491.539 44.6369 493.789 45.1008C498.313 46.1103 502.369 48.6071 505.308 52.1923C508.246 55.7775 509.899 60.2442 510.001 64.8789C510.001 73.8211 510.001 82.6874 510.001 91.4776C510.001 109.1 509.939 126.466 509.814 143.576C509.662 177.825 509.531 211.037 509.42 243.213C509.172 307.481 508.923 367.375 508.715 422.024C508.239 531.363 507.865 619.846 507.617 680.984C507.617 696.284 507.472 709.863 507.409 721.618C507.409 727.506 507.409 732.937 507.409 737.913C507.409 740.401 507.409 742.764 507.409 745.003C507.237 747.861 506.464 750.65 505.143 753.19C503.821 755.729 501.98 757.962 499.739 759.744C497.723 761.34 495.432 762.555 492.98 763.33C491.479 763.768 489.937 764.046 488.378 764.159L486.553 764.201Z" fill="#263238"/>
<g opacity="0.3">
<path d="M48.4472 744.734L473.343 743.967L478.526 661.89L465.693 612.341L44.8398 676.526L48.4472 744.734Z" fill="black"/>
</g>
<path d="M486.553 764.201L488.129 764.097C492.257 763.792 496.194 762.229 499.407 759.619C502.169 757.386 504.31 754.48 505.626 751.181C506.413 749.196 506.868 747.095 506.974 744.962C507.098 742.723 506.974 740.339 506.974 737.872C506.974 732.896 506.974 727.464 506.974 721.576C506.974 709.822 506.974 696.242 507.078 680.942C507.264 619.784 507.534 531.322 507.865 421.983C508.052 367.313 508.259 307.44 508.467 243.172C508.563 211.01 508.674 177.798 508.798 143.535C508.798 126.411 508.861 109.044 508.985 91.4362C508.985 82.6459 508.985 73.7935 508.985 64.8789C508.876 60.4488 507.294 56.1812 504.49 52.75C501.685 49.3187 497.818 46.9191 493.498 45.9301C491.309 45.4894 489.075 45.3085 486.843 45.3911H480.043H466.361L438.767 45.2874L382.625 45.1008L266.839 44.6862L23.3447 43.8155C18.2121 43.7819 13.2642 45.7283 9.53028 49.2499C5.79631 52.7715 3.56379 57.5971 3.29713 62.7228C3.15201 73.0886 3.19347 83.4545 3.13127 93.6959C3.04835 114.303 2.97233 134.765 2.90322 155.083C2.73737 195.689 2.58533 235.687 2.44712 275.078C2.15688 353.734 1.86666 429.612 1.59715 501.903C1.32763 574.195 1.05811 642.879 0.809331 707.147C0.809331 715.191 0.809331 723.152 0.809331 731.051C0.809331 734.99 0.809331 738.95 0.809331 742.826C0.957236 746.662 2.20196 750.375 4.39591 753.524C6.58931 756.643 9.61302 759.085 13.124 760.573C14.8687 761.267 16.6934 761.741 18.5557 761.983C20.4215 762.148 22.3288 762.128 24.2362 762.128H46.8337L132.642 762.48L391.602 763.579L462.09 763.931H480.396H486.615H462.007L391.519 763.786L132.684 763.247L46.8752 762.978H24.2776C22.3703 762.978 20.463 762.978 18.5142 762.833C16.5779 762.592 14.6819 762.097 12.8752 761.361C9.22309 759.829 6.07612 757.3 3.7947 754.063C1.50395 750.789 0.208059 746.923 0.0629883 742.93C0.0629883 738.991 0.0629883 735.093 0.0629883 731.134C0.0629883 723.228 0.0629883 715.26 0.0629883 707.23C0.291037 642.962 0.519078 574.257 0.767859 501.986C1.01664 429.715 1.30688 353.817 1.57639 275.14C1.71461 235.819 1.85974 195.82 2.01177 155.145C2.01177 134.855 2.08089 114.4 2.2191 93.7789C2.2191 83.413 2.21908 73.1716 2.38493 62.6813C2.6723 57.3025 5.01746 52.2402 8.9347 48.543C12.8519 44.8457 18.0412 42.7967 23.4276 42.8203L266.922 43.7325L382.708 44.1679L438.85 44.3752L466.464 44.5411H480.147H486.947C489.242 44.4489 491.539 44.6369 493.789 45.1008C498.313 46.1103 502.369 48.6071 505.308 52.1923C508.246 55.7775 509.899 60.2442 510.001 64.8789C510.001 73.8211 510.001 82.6874 510.001 91.4776C510.001 109.1 509.939 126.466 509.814 143.576C509.662 177.825 509.531 211.037 509.42 243.213C509.172 307.481 508.923 367.375 508.715 422.024C508.239 531.363 507.865 619.846 507.617 680.984C507.617 696.284 507.472 709.863 507.409 721.618C507.409 727.506 507.409 732.937 507.409 737.913C507.409 740.401 507.409 742.764 507.409 745.003C507.237 747.861 506.464 750.65 505.143 753.19C503.821 755.729 501.98 757.962 499.739 759.744C497.723 761.34 495.432 762.555 492.98 763.33C491.479 763.768 489.937 764.046 488.378 764.159L486.553 764.201Z" fill="#263238"/>
<g opacity="0.3">
<path d="M48.4472 744.734L473.343 743.967L478.526 661.89L465.693 612.341L44.8398 676.526L48.4472 744.734Z" fill="black"/>
</g>
<path d="M28.4838 72.2765L26.0784 728.555L481.489 730.224L483.894 73.9456L28.4838 72.2765Z" fill="#F1F1F1"/>
<path d="M481.521 730.221C481.521 726.448 482.329 461.248 483.49 73.9385L483.905 74.3738L28.5327 72.7568L28.9888 72.2799C28.0559 318.738 27.2058 546.435 26.5217 728.563L26.1278 728.19L481.562 730.263L26.1278 728.978H25.7546V728.604C26.3973 546.476 27.2059 318.78 28.0559 72.3214V71.8653H28.5742L483.905 73.5653H484.34V74.0007C482.661 461.248 481.521 726.448 481.521 730.221Z" fill="#263238"/>
<path d="M153.566 281.622L53.9509 281.257L53.8737 302.341L153.489 302.706L153.566 281.622Z" fill="#540494"/>
<path d="M365.379 236.436L165.734 235.704L165.657 256.788L365.302 257.52L365.379 236.436Z" fill="#540494"/>
<path d="M148.113 235.205L53.1416 234.856L53.0643 255.94L148.036 256.289L148.113 235.205Z" fill="#540494"/>
<path d="M449.047 236.681L376.798 236.416L376.721 257.5L448.97 257.765L449.047 236.681Z" fill="#540494"/>
<path d="M181.605 611.585L53.1729 611.114L53.0848 635.142L181.517 635.613L181.605 611.585Z" fill="#540494"/>
<path d="M289.433 654.779H55.9521V678.807H289.433V654.779Z" fill="#540494"/>
<path d="M447.304 335.564L53.3213 334.12L53.2332 358.148L447.216 359.592L447.304 335.564Z" fill="#540494"/>
<path d="M439.515 394.741C439.515 395.031 354.619 394.948 249.924 394.575C145.229 394.202 60.3115 393.642 60.3323 393.352C60.353 393.062 145.208 393.124 249.924 393.518C354.64 393.912 439.515 394.43 439.515 394.741Z" fill="#263238"/>
<path d="M439.352 415.639C439.352 415.929 354.455 415.867 249.76 415.473C145.065 415.079 60.1479 414.561 60.1479 414.27C60.1479 413.98 145.024 414.042 249.76 414.436C354.497 414.83 439.352 415.286 439.352 415.639Z" fill="#263238"/>
<path d="M363.943 436.163C363.943 436.453 295.922 436.432 212.001 436.163C128.079 435.893 60.0579 435.375 60.0579 435.064C60.0579 434.753 128.079 434.794 212.021 435.064C295.964 435.334 363.943 435.873 363.943 436.163Z" fill="#263238"/>
<path d="M163.895 25.9147L371.21 26.6746C374.691 26.6874 378.023 28.0822 380.476 30.5523C382.928 33.0223 384.298 36.3653 384.285 39.8458L384.085 94.4527L150.461 93.5965L150.661 38.9688C150.67 37.2419 151.02 35.5339 151.69 33.9425C152.361 32.3511 153.339 30.9076 154.568 29.6949C155.798 28.4822 157.254 27.524 158.855 26.8753C160.455 26.2267 162.168 25.9002 163.895 25.9147Z" fill="#263238"/>
<path d="M297.268 0.900737L237.83 0.69342L244.589 51.6727L289.369 51.8178L297.268 0.900737Z" fill="#263238"/>
<path d="M369.23 26.6496C369.23 26.9191 323.62 26.9605 267.458 26.6496C211.296 26.3386 165.707 26.0691 165.707 25.7995C165.707 25.53 211.317 25.4678 267.479 25.6752C323.641 25.8825 369.23 26.38 369.23 26.6496Z" fill="#455A64"/>
<path d="M155.739 82.6666C155.469 82.6666 155.283 73.0885 155.324 61.2715C155.366 49.4544 155.615 39.8763 155.884 39.8763C156.154 39.8763 156.34 49.4544 156.299 61.2715C156.257 73.0885 156.009 82.6666 155.739 82.6666Z" fill="#455A64"/>
<path d="M376.471 78.3958C376.007 71.9317 375.868 65.4483 376.056 58.9702C376.056 48.2519 376.346 39.5446 376.616 39.5446C377.079 46.0157 377.218 52.506 377.03 58.991C377.181 65.4646 376.994 71.9416 376.471 78.3958Z" fill="#455A64"/>
<path d="M365.185 87.3726C365.185 87.6421 318.415 87.6836 260.739 87.3726C203.063 87.0616 156.272 86.7714 156.272 86.5019C156.272 86.2323 203.043 86.1909 260.739 86.3982C318.435 86.6055 365.185 87.1031 365.185 87.3726Z" fill="#455A64"/>
<g opacity="0.3">
<path d="M384.159 46.0751L393.716 74.7678L393.654 88.8239L382.77 88.7824L384.159 46.0751Z" fill="black"/>
</g>
<path d="M439.347 482.747C439.347 483.037 376.841 483.286 299.74 483.286C222.638 483.286 160.153 483.037 160.153 482.747C160.153 482.457 222.638 482.187 299.74 482.187C376.841 482.187 439.347 482.436 439.347 482.747Z" fill="#263238"/>
<path d="M400.573 507.252C400.573 507.563 346.671 507.791 280.329 507.791C213.988 507.791 160.085 507.563 160.085 507.252C160.085 506.941 213.884 506.713 280.329 506.713C346.774 506.713 400.573 506.962 400.573 507.252Z" fill="#263238"/>
<path d="M439.347 543.76C439.347 544.071 376.841 544.299 299.74 544.299C222.638 544.299 160.153 544.071 160.153 543.76C160.153 543.449 222.638 543.221 299.74 543.221C376.841 543.221 439.347 543.47 439.347 543.76Z" fill="#263238"/>
<path d="M400.573 568.286C400.573 568.576 346.671 568.825 280.329 568.825C213.988 568.825 160.085 568.576 160.085 568.286C160.085 567.996 213.884 567.747 280.329 567.747C346.774 567.747 400.573 567.996 400.573 568.286Z" fill="#263238"/>
<path d="M439.347 668.565C438.277 669.333 437.155 670.026 435.989 670.639C432.651 672.332 429.07 673.493 425.374 674.08C422.7 674.491 419.991 674.63 417.289 674.495C414.06 674.373 410.861 673.829 407.773 672.878C400.145 670.675 393.479 665.973 388.845 659.526C383.307 651.62 380.865 641.956 381.983 632.368C382.529 627.032 384.319 621.898 387.207 617.379C388.818 615.064 390.85 613.073 393.199 611.512C394.43 610.736 395.753 610.116 397.138 609.667C398.57 609.252 400.071 609.125 401.553 609.293C403.073 609.524 404.514 610.12 405.753 611.03C406.991 611.94 407.99 613.137 408.664 614.518C409.931 617.306 410.528 620.352 410.406 623.412C410.193 629.591 409.09 635.708 407.13 641.573C405.147 647.624 402.069 653.26 398.05 658.2C393.84 663.353 388.359 667.319 382.148 669.706C375.93 672.132 369.148 672.736 362.598 671.447C356.204 670.173 350.459 666.696 346.366 661.62C342.524 656.717 339.87 650.99 338.612 644.89C337.331 639.114 336.767 633.202 336.933 627.289C336.933 621.587 337.72 615.7 340.768 610.952C342.263 608.623 344.324 606.711 346.76 605.396C349.137 604.075 351.9 603.62 354.575 604.111C357.123 604.676 359.433 606.016 361.189 607.946C362.905 609.757 364.175 611.944 364.9 614.331C366.06 618.809 366.025 623.513 364.796 627.973C362.935 635.616 359.636 642.835 355.073 649.243C351.665 654.078 347.597 658.412 342.986 662.118C340.082 664.464 336.974 666.545 333.698 668.337C332.579 668.939 331.625 669.333 331.107 669.623C330.811 669.771 330.506 669.903 330.195 670.017L331.045 669.519C331.625 669.208 332.496 668.773 333.595 668.13C336.811 666.287 339.863 664.172 342.717 661.807C347.245 658.068 351.236 653.722 354.575 648.891C359.031 642.521 362.245 635.368 364.05 627.807C365.201 623.466 365.201 618.9 364.05 614.559C363.349 612.313 362.143 610.256 360.525 608.547C358.873 606.745 356.698 605.506 354.306 605.002C349.413 603.986 344.272 607.075 341.473 611.47C338.674 615.865 337.928 621.712 337.928 627.351C337.781 633.182 338.345 639.009 339.607 644.703C340.853 650.641 343.442 656.215 347.174 660.998C351.129 665.866 356.656 669.201 362.806 670.431C369.155 671.68 375.729 671.091 381.755 668.731C387.784 666.406 393.106 662.556 397.2 657.557C401.169 652.678 404.212 647.113 406.177 641.137C408.094 635.378 409.183 629.374 409.411 623.308C409.548 620.407 408.994 617.515 407.794 614.87C407.2 613.634 406.314 612.562 405.212 611.745C404.11 610.929 402.826 610.393 401.47 610.185C398.741 609.934 396.013 610.67 393.779 612.258C391.514 613.733 389.556 615.634 388.016 617.856C385.214 622.233 383.469 627.201 382.916 632.368C381.799 641.748 384.143 651.213 389.508 658.987C394.02 665.335 400.532 669.986 408.001 672.193C411.03 673.164 414.174 673.729 417.351 673.873C420.022 674.039 422.703 673.935 425.353 673.562C429.019 673.026 432.583 671.943 435.927 670.348C436.806 669.943 437.664 669.493 438.497 669.001L439.347 668.565Z" fill="#263238"/>
<path d="M176.221 136.88H184.514V165.904H176.221V136.88Z" fill="#540494"/>
<path d="M217.783 136.88V165.904H211.046L198.275 150.48V165.904H190.252V136.88H196.948L209.719 152.304V136.88H217.783Z" fill="#540494"/>
<path d="M226.907 165.531C224.995 165.078 223.177 164.292 221.538 163.209L224.233 157.176C225.63 158.071 227.144 158.769 228.732 159.249C230.364 159.753 232.061 160.011 233.769 160.016C236.921 160.016 238.496 159.249 238.496 157.674C238.477 157.268 238.339 156.877 238.099 156.549C237.86 156.221 237.529 155.97 237.149 155.829C235.743 155.285 234.293 154.862 232.816 154.564C230.967 154.187 229.146 153.688 227.363 153.071C225.915 152.536 224.624 151.645 223.611 150.48C222.501 149.139 221.938 147.429 222.035 145.691C222.014 143.983 222.521 142.311 223.486 140.902C224.572 139.392 226.069 138.226 227.799 137.543C230.04 136.655 232.438 136.232 234.847 136.299C236.739 136.295 238.624 136.51 240.466 136.942C242.182 137.323 243.831 137.958 245.358 138.829L242.829 144.903C240.385 143.496 237.626 142.726 234.806 142.664C233.58 142.579 232.355 142.83 231.261 143.39C230.916 143.568 230.629 143.839 230.431 144.173C230.233 144.506 230.133 144.889 230.141 145.276C230.149 145.667 230.282 146.046 230.521 146.356C230.759 146.666 231.092 146.89 231.468 146.997C232.81 147.526 234.198 147.929 235.614 148.199C237.471 148.577 239.3 149.083 241.088 149.713C242.535 150.251 243.83 151.133 244.861 152.284C245.973 153.615 246.537 155.32 246.436 157.052C246.446 158.729 245.948 160.37 245.006 161.758C243.899 163.269 242.391 164.44 240.652 165.137C238.419 166.031 236.028 166.461 233.624 166.402C231.357 166.397 229.1 166.105 226.907 165.531Z" fill="#540494"/>
<path d="M253.629 162.877C252.386 161.55 251.429 159.983 250.815 158.271C250.202 156.56 249.946 154.741 250.063 152.926V136.88H258.252V152.677C258.252 157.301 260.076 159.623 263.746 159.623C267.415 159.623 269.198 157.301 269.198 152.677V136.88H277.263V152.926C277.375 154.742 277.115 156.561 276.499 158.273C275.882 159.984 274.921 161.551 273.676 162.877C270.833 165.157 267.297 166.399 263.652 166.399C260.008 166.399 256.472 165.157 253.629 162.877Z" fill="#540494"/>
<path d="M295.447 158.13H290.99V165.821H282.801V136.797H296.028C298.368 136.746 300.692 137.191 302.848 138.103C304.668 138.873 306.219 140.164 307.306 141.814C308.303 143.507 308.829 145.436 308.829 147.401C308.829 149.366 308.303 151.295 307.306 152.988C306.297 154.573 304.859 155.838 303.159 156.637L309.379 165.738H300.609L295.447 158.13ZM299.324 144.447C298.238 143.624 296.889 143.226 295.53 143.327H290.99V151.807H295.53C296.885 151.902 298.23 151.513 299.324 150.708C300.134 149.876 300.588 148.76 300.588 147.598C300.588 146.436 300.134 145.321 299.324 144.488V144.447Z" fill="#540494"/>
<path d="M332.765 160.182H320.533L318.273 165.822H309.981L322.751 136.797H330.816L343.628 165.822H335.108L332.765 160.182ZM330.381 154.15L326.649 144.903L322.938 154.15H330.381Z" fill="#540494"/>
<path d="M373.394 136.88V165.904H366.656L353.886 150.48V165.904H345.863V136.88H352.6L365.371 152.304V136.88H373.394Z" fill="#540494"/>
<path d="M385.447 164.474C383.101 163.243 381.136 161.393 379.767 159.125C378.422 156.755 377.715 154.076 377.715 151.351C377.715 148.626 378.422 145.947 379.767 143.576C381.136 141.308 383.101 139.459 385.447 138.228C387.968 136.918 390.775 136.256 393.615 136.3C396.072 136.263 398.509 136.744 400.768 137.709C402.852 138.623 404.671 140.049 406.054 141.856L400.851 146.562C400.049 145.513 399.017 144.663 397.835 144.077C396.652 143.491 395.35 143.185 394.03 143.183C392.582 143.166 391.154 143.523 389.884 144.219C388.673 144.894 387.681 145.901 387.023 147.122C386.355 148.464 386.007 149.944 386.007 151.444C386.007 152.944 386.355 154.424 387.023 155.767C387.664 156.931 388.61 157.898 389.759 158.565C391.029 159.262 392.457 159.619 393.906 159.602C395.228 159.6 396.532 159.293 397.715 158.703C398.899 158.113 399.929 157.257 400.726 156.202L405.93 160.908C404.544 162.713 402.726 164.139 400.644 165.054C398.384 166.02 395.948 166.5 393.491 166.464C390.687 166.468 387.925 165.785 385.447 164.474Z" fill="#540494"/>
<path d="M432.922 159.498V165.822H409.703V136.797H432.383V143.017H417.871V147.889H430.725V154.108H417.871V159.415L432.922 159.498Z" fill="#540494"/>
<path d="M131.813 132.153H69.3902C62.818 132.153 57.4902 137.481 57.4902 144.053V206.476C57.4902 213.049 62.818 218.376 69.3902 218.376H131.813C138.386 218.376 143.713 213.049 143.713 206.476V144.053C143.713 137.481 138.386 132.153 131.813 132.153Z" fill="#540494"/>
<path d="M106.335 176.001C108.411 175.083 110.172 173.577 111.399 171.668C112.627 169.758 113.266 167.531 113.239 165.262C113.352 163.765 113.155 162.26 112.66 160.843C112.165 159.425 111.383 158.125 110.362 157.024C109.341 155.923 108.104 155.045 106.728 154.444C105.352 153.844 103.867 153.534 102.365 153.534C100.864 153.534 99.3786 153.844 98.0026 154.444C96.6266 155.045 95.3894 155.923 94.3686 157.024C93.3478 158.125 92.5654 159.425 92.0703 160.843C91.5752 162.26 91.3781 163.765 91.4914 165.262C91.4468 167.548 92.0808 169.796 93.3132 171.722C94.5457 173.648 96.3213 175.166 98.4158 176.084C81.6646 178.613 82.4317 196.815 82.4317 196.815L122.029 197.002C122.029 197.002 122.921 178.509 106.335 176.001Z" fill="white"/>
<path d="M125.637 465.291H90.6211C86.2244 465.291 82.6602 468.855 82.6602 473.252V508.268C82.6602 512.664 86.2244 516.229 90.6211 516.229H125.637C130.034 516.229 133.598 512.664 133.598 508.268V473.252C133.598 468.855 130.034 465.291 125.637 465.291Z" fill="#540494"/>
<path d="M125.637 535.302H90.6211C86.2244 535.302 82.6602 538.866 82.6602 543.263V578.279C82.6602 582.676 86.2244 586.24 90.6211 586.24H125.637C130.034 586.24 133.598 582.676 133.598 578.279V543.263C133.598 538.866 130.034 535.302 125.637 535.302Z" fill="#540494"/>
<path d="M109.023 503.831L93.4124 493.382L97.0611 487.93L107.531 494.937L120.571 477.688L125.795 481.648L109.023 503.831Z" fill="white"/>
<path d="M109.023 575.439L93.4124 564.99L97.0611 559.558L107.531 566.545L120.571 549.317L125.795 553.256L109.023 575.439Z" fill="white"/>
</g>
<defs>
<clipPath id="clip0_1_121781">
<rect width="510" height="763.528" fill="white" transform="translate(0 0.693359)"/>
</clipPath>
</defs>
</svg>
