<svg width="48" height="62" viewBox="0 0 48 62" fill="none" xmlns="http://www.w3.org/2000/svg">
<g id="Layer_1" clip-path="url(#clip0_1_20301)">
<path id="Vector" d="M24.3057 5.21752C24.225 5.21761 24.145 5.20178 24.0705 5.17096C23.9959 5.14013 23.9281 5.09491 23.871 5.03787C23.8139 4.98084 23.7686 4.91311 23.7377 4.83856C23.7068 4.76401 23.6909 4.6841 23.6909 4.6034V1.56886C23.6909 1.40582 23.7557 1.24945 23.871 1.13416C23.9863 1.01887 24.1426 0.954102 24.3057 0.954102C24.4687 0.954102 24.6251 1.01887 24.7404 1.13416C24.8557 1.24945 24.9204 1.40582 24.9204 1.56886V4.6034C24.9204 4.6841 24.9045 4.76401 24.8736 4.83856C24.8427 4.91311 24.7974 4.98084 24.7403 5.03787C24.6832 5.09491 24.6155 5.14013 24.5409 5.17096C24.4663 5.20178 24.3864 5.21761 24.3057 5.21752Z" fill="white"/>
<path id="Vector_2" d="M38.468 11.0841C38.3465 11.0839 38.2278 11.0478 38.1269 10.9802C38.0259 10.9127 37.9472 10.8167 37.9008 10.7045C37.8543 10.5923 37.8421 10.4688 37.8658 10.3496C37.8894 10.2305 37.9479 10.121 38.0337 10.035L40.18 7.88938C40.2964 7.7802 40.4508 7.72062 40.6104 7.72323C40.7701 7.72584 40.9224 7.79044 41.0352 7.90336C41.1481 8.01629 41.2126 8.16868 41.2151 8.3283C41.2176 8.48793 41.1579 8.64226 41.0486 8.75865L38.9023 10.903C38.8454 10.9602 38.7777 11.0057 38.7032 11.0368C38.6287 11.0678 38.5487 11.0839 38.468 11.0841Z" fill="white"/>
<path id="Vector_3" d="M7.9973 41.5553C7.87582 41.5551 7.75711 41.519 7.65616 41.4514C7.5552 41.3839 7.47652 41.2879 7.43006 41.1757C7.38359 41.0634 7.37141 40.9399 7.39507 40.8208C7.41873 40.7016 7.47716 40.5922 7.56298 40.5062L9.70863 38.3606C9.82381 38.2454 9.98004 38.1807 10.1429 38.1807C10.3058 38.1807 10.4621 38.2454 10.5773 38.3606C10.6925 38.4758 10.7572 38.632 10.7572 38.7949C10.7572 38.9578 10.6925 39.114 10.5773 39.2292L8.43162 41.3755C8.3746 41.4325 8.30689 41.4778 8.23236 41.5086C8.15784 41.5395 8.07796 41.5553 7.9973 41.5553Z" fill="white"/>
<path id="Vector_4" d="M47.3699 25.2468H44.3347C44.2523 25.2494 44.1703 25.2355 44.0934 25.2058C44.0166 25.1761 43.9465 25.1313 43.8873 25.074C43.8281 25.0166 43.781 24.948 43.7489 24.8721C43.7168 24.7963 43.7002 24.7147 43.7002 24.6323C43.7002 24.5499 43.7168 24.4684 43.7489 24.3925C43.781 24.3167 43.8281 24.248 43.8873 24.1907C43.9465 24.1334 44.0166 24.0886 44.0934 24.0589C44.1703 24.0292 44.2523 24.0153 44.3347 24.0179H47.3699C47.5294 24.023 47.6807 24.09 47.7917 24.2047C47.9028 24.3193 47.9649 24.4727 47.9649 24.6323C47.9649 24.792 47.9028 24.9453 47.7917 25.06C47.6807 25.1747 47.5294 25.2417 47.3699 25.2468Z" fill="white"/>
<path id="Vector_5" d="M4.27655 25.2468H1.24201C1.08246 25.2417 0.931156 25.1747 0.820107 25.06C0.709058 24.9453 0.646973 24.792 0.646973 24.6323C0.646973 24.4727 0.709058 24.3193 0.820107 24.2047C0.931156 24.09 1.08246 24.023 1.24201 24.0179H4.27655C4.35889 24.0153 4.44093 24.0292 4.51779 24.0589C4.59465 24.0886 4.66475 24.1334 4.72394 24.1907C4.78313 24.248 4.83019 24.3167 4.86233 24.3925C4.89447 24.4684 4.91103 24.5499 4.91103 24.6323C4.91103 24.7147 4.89447 24.7963 4.86233 24.8721C4.83019 24.948 4.78313 25.0166 4.72394 25.074C4.66475 25.1313 4.59465 25.1761 4.51779 25.2058C4.44093 25.2355 4.35889 25.2494 4.27655 25.2468Z" fill="white"/>
<path id="Vector_6" d="M40.6117 41.5552C40.531 41.5553 40.4512 41.5394 40.3766 41.5085C40.3021 41.4777 40.2344 41.4324 40.1774 41.3754L38.0311 39.2291C37.9159 39.1136 37.8513 38.957 37.8516 38.7939C37.8518 38.6308 37.9168 38.4744 38.0324 38.3592C38.1479 38.244 38.3044 38.1795 38.4676 38.1797C38.6307 38.1799 38.7871 38.245 38.9023 38.3605L41.0479 40.5061C41.1337 40.5921 41.1922 40.7016 41.2158 40.8207C41.2395 40.9399 41.2273 41.0634 41.1808 41.1756C41.1344 41.2878 41.0557 41.3838 40.9547 41.4514C40.8538 41.5189 40.7351 41.5551 40.6136 41.5552H40.6117Z" fill="white"/>
<path id="Vector_7" d="M10.143 11.0841C10.0623 11.0841 9.98247 11.0682 9.90795 11.0374C9.83343 11.0065 9.76572 10.9613 9.70868 10.9043L7.56303 8.75865C7.45377 8.64226 7.39407 8.48793 7.39656 8.3283C7.39905 8.16868 7.46354 8.01629 7.57639 7.90336C7.68923 7.79044 7.84158 7.72584 8.0012 7.72323C8.16082 7.72062 8.3152 7.7802 8.43167 7.88938L10.5773 10.035C10.6631 10.121 10.7216 10.2305 10.7452 10.3496C10.7689 10.4688 10.7567 10.5923 10.7102 10.7045C10.6638 10.8167 10.5851 10.9127 10.4841 10.9802C10.3832 11.0478 10.2645 11.0839 10.143 11.0841Z" fill="white"/>
<path id="Vector_8" d="M32.0406 6.77191C31.9393 6.77184 31.8397 6.74676 31.7504 6.69889C31.6612 6.65103 31.5852 6.58186 31.5291 6.49754C31.473 6.41322 31.4387 6.31636 31.429 6.21555C31.4194 6.11475 31.4349 6.01313 31.474 5.91973L32.6459 3.12071C32.7107 2.97319 32.8309 2.85704 32.9806 2.79726C33.1303 2.73749 33.2974 2.73888 33.4461 2.80113C33.5947 2.86338 33.713 2.98151 33.7754 3.13009C33.8378 3.27867 33.8394 3.44582 33.7798 3.59555L32.6079 6.39457C32.5611 6.50639 32.4822 6.60187 32.3813 6.66901C32.2804 6.73615 32.1618 6.77195 32.0406 6.77191Z" fill="white"/>
<path id="Vector_9" d="M42.839 17.6524C42.6967 17.6522 42.5589 17.6027 42.4491 17.5122C42.3392 17.4218 42.2642 17.296 42.2367 17.1564C42.2092 17.0168 42.231 16.872 42.2983 16.7467C42.3657 16.6213 42.4744 16.5232 42.606 16.4691L45.4139 15.3187C45.565 15.257 45.7345 15.2577 45.885 15.3209C46.0356 15.3841 46.1549 15.5044 46.2167 15.6556C46.2785 15.8067 46.2777 15.9762 46.2145 16.1267C46.1514 16.2773 46.031 16.3966 45.8799 16.4584L43.072 17.6087C42.998 17.6385 42.9188 17.6534 42.839 17.6524Z" fill="white"/>
<path id="Vector_10" d="M2.96462 33.9924C2.82228 33.9924 2.68438 33.9429 2.57443 33.8525C2.46448 33.7621 2.38931 33.6364 2.36174 33.4967C2.33417 33.3571 2.35591 33.2122 2.42325 33.0868C2.49059 32.9614 2.59937 32.8633 2.731 32.8091L5.53699 31.6581C5.61181 31.6275 5.69193 31.6119 5.77278 31.6123C5.85362 31.6127 5.93359 31.629 6.00814 31.6602C6.08269 31.6915 6.15035 31.7372 6.20725 31.7946C6.26415 31.852 6.30919 31.9201 6.33979 31.9949C6.37038 32.0697 6.38594 32.1499 6.38557 32.2307C6.3852 32.3115 6.36891 32.3915 6.33764 32.4661C6.30636 32.5406 6.26071 32.6083 6.20328 32.6652C6.14586 32.7221 6.07779 32.7671 6.00296 32.7977L3.19444 33.9487C3.12133 33.9778 3.04332 33.9927 2.96462 33.9924Z" fill="white"/>
<path id="Vector_11" d="M45.5801 34.1544C45.4988 34.1542 45.4183 34.1379 45.3433 34.1063L42.5437 32.9356C42.3976 32.8699 42.2829 32.7497 42.2241 32.6007C42.1653 32.4517 42.1669 32.2856 42.2288 32.1378C42.2906 31.99 42.4076 31.8722 42.555 31.8094C42.7024 31.7466 42.8685 31.7439 43.0179 31.8017L45.8175 32.9736C45.9487 33.0284 46.0568 33.1269 46.1235 33.2524C46.1902 33.3779 46.2113 33.5226 46.1834 33.662C46.1554 33.8013 46.08 33.9266 45.97 34.0166C45.86 34.1067 45.7222 34.1558 45.5801 34.1557V34.1544Z" fill="white"/>
<path id="Vector_12" d="M5.82998 17.5121C5.74865 17.5119 5.66816 17.4956 5.5932 17.464L2.79418 16.2921C2.64808 16.2264 2.5334 16.1062 2.47458 15.9572C2.41576 15.8082 2.41743 15.6421 2.47924 15.4943C2.54105 15.3465 2.65812 15.2286 2.80551 15.1659C2.95291 15.1031 3.11899 15.1003 3.26838 15.1582L6.0674 16.3301C6.19854 16.3848 6.30666 16.4834 6.37335 16.6089C6.44005 16.7343 6.4612 16.8791 6.43321 17.0184C6.40522 17.1577 6.32983 17.2831 6.21985 17.3731C6.10987 17.4631 5.9721 17.5122 5.82998 17.5121Z" fill="white"/>
<path id="Vector_13" d="M16.7118 6.71358C16.5898 6.71392 16.4705 6.67798 16.3691 6.61034C16.2676 6.5427 16.1886 6.4464 16.142 6.33371L14.9916 3.52583C14.961 3.45101 14.9454 3.37088 14.9458 3.29004C14.9462 3.2092 14.9625 3.12922 14.9937 3.05468C15.025 2.98013 15.0707 2.91248 15.1281 2.85557C15.1855 2.79867 15.2536 2.75363 15.3284 2.72304C15.4032 2.69244 15.4834 2.67688 15.5642 2.67725C15.645 2.67762 15.725 2.69391 15.7996 2.72518C15.8741 2.75646 15.9418 2.80211 15.9987 2.85954C16.0556 2.91696 16.1006 2.98503 16.1312 3.05986L17.2816 5.86774C17.32 5.96117 17.3348 6.06263 17.3246 6.16314C17.3145 6.26365 17.2797 6.3601 17.2233 6.44395C17.167 6.52779 17.0908 6.59644 17.0016 6.6438C16.9123 6.69117 16.8128 6.71579 16.7118 6.71548V6.71358Z" fill="white"/>
<path id="Vector_14" d="M29.6892 53.8714H19.3061C19.0248 53.8714 18.7551 53.7597 18.5562 53.5608C18.3573 53.3619 18.2456 53.0922 18.2456 52.811C18.2456 52.5297 18.3573 52.26 18.5562 52.0611C18.7551 51.8622 19.0248 51.7505 19.3061 51.7505H29.6892C29.9705 51.7505 30.2402 51.8622 30.4391 52.0611C30.638 52.26 30.7497 52.5297 30.7497 52.811C30.7497 53.0922 30.638 53.3619 30.4391 53.5608C30.2402 53.7597 29.9705 53.8714 29.6892 53.8714Z" fill="white"/>
<path id="Vector_15" d="M29.6892 57.2025H19.3061C19.0248 57.2025 18.7551 57.0908 18.5562 56.8919C18.3573 56.693 18.2456 56.4233 18.2456 56.142C18.2456 55.8608 18.3573 55.591 18.5562 55.3921C18.7551 55.1933 19.0248 55.0815 19.3061 55.0815H29.6892C29.9705 55.0815 30.2402 55.1933 30.4391 55.3921C30.638 55.591 30.7497 55.8608 30.7497 56.142C30.7497 56.4233 30.638 56.693 30.4391 56.8919C30.2402 57.0908 29.9705 57.2025 29.6892 57.2025Z" fill="white"/>
<path id="Vector_16" d="M21.9802 58.457C21.9199 58.457 21.8603 58.4703 21.8056 58.496C21.751 58.5216 21.7026 58.5589 21.664 58.6053C21.6254 58.6517 21.5975 58.7061 21.5822 58.7645C21.567 58.8229 21.5647 58.8839 21.5757 58.9433C21.7025 59.6179 22.061 60.2271 22.5894 60.6653C23.1177 61.1036 23.7826 61.3435 24.469 61.3435C25.1555 61.3435 25.8204 61.1036 26.3487 60.6653C26.8771 60.2271 27.2356 59.6179 27.3624 58.9433C27.3732 58.8839 27.3709 58.8229 27.3556 58.7646C27.3403 58.7062 27.3124 58.6519 27.2738 58.6056C27.2352 58.5592 27.1869 58.5219 27.1323 58.4962C27.0777 58.4705 27.0182 58.4572 26.9578 58.457H21.9802Z" fill="white"/>
<path id="Vector_17" d="M28.5906 50.4139H20.2563C19.5564 50.4115 18.8831 50.1458 18.3702 49.6697C17.8574 49.1935 17.5425 48.5418 17.4883 47.844C17.135 43.145 15.2179 40.1675 13.1875 37.0177C10.9715 33.5799 8.68408 30.0256 8.68408 24.2775C8.68408 16.5154 14.2359 9.98356 21.8859 8.74581C23.6933 8.45619 25.5369 8.4776 27.3371 8.80912C34.7693 10.1988 40.1634 16.7035 40.1634 24.2756C40.1634 30.0237 37.8741 33.578 35.6601 37.0158C33.629 40.1681 31.7119 43.1457 31.3586 47.8421C31.3041 48.5399 30.9893 49.1917 30.4765 49.6682C29.9637 50.1446 29.2906 50.4107 28.5906 50.4139ZM24.4209 10.5907C23.6815 10.5901 22.9433 10.6488 22.2132 10.7661C15.561 11.8424 10.7322 17.524 10.7322 24.2756C10.7322 29.4209 12.7582 32.5694 14.9108 35.9066C16.99 39.1355 19.1401 42.4739 19.5326 47.6915C19.5469 47.8744 19.6294 48.0452 19.7638 48.1701C19.8982 48.295 20.0747 48.3649 20.2582 48.3657H28.5925C28.7766 48.3669 28.9541 48.2978 29.0888 48.1725C29.2236 48.0471 29.3054 47.8751 29.3175 47.6915C29.71 42.4739 31.8601 39.1355 33.9392 35.9066C36.088 32.5713 38.1178 29.4209 38.1178 24.2756C38.1178 17.6911 33.4264 12.0311 26.9635 10.8231C26.125 10.6673 25.2738 10.5893 24.4209 10.5901V10.5907Z" fill="white"/>
<path id="Vector_18" d="M16.7972 34.1384C16.6356 34.1385 16.4763 34.1004 16.3322 34.0271C16.1882 33.9538 16.0635 33.8474 15.9685 33.7167C10.2824 25.9066 14.4737 18.5757 14.6554 18.2686C14.7949 18.0385 15.0194 17.8726 15.2802 17.8066C15.5411 17.7407 15.8175 17.78 16.0496 17.9162C16.2817 18.0523 16.4509 18.2743 16.5207 18.5342C16.5904 18.7941 16.5552 19.071 16.4224 19.305C16.2654 19.5754 12.7503 25.8179 17.6254 32.5125C17.7365 32.6653 17.8033 32.8458 17.8182 33.0341C17.8332 33.2224 17.7958 33.4112 17.7101 33.5796C17.6245 33.748 17.494 33.8894 17.333 33.9883C17.172 34.0871 16.9868 34.1395 16.7979 34.1396L16.7972 34.1384Z" fill="white"/>
</g>
<defs>
<clipPath id="clip0_1_20301">
<rect width="47.3567" height="60.39" fill="white" transform="translate(0.62793 0.954102)"/>
</clipPath>
</defs>
</svg>
