<svg width="84" height="78" viewBox="0 0 84 78" fill="none" xmlns="http://www.w3.org/2000/svg">
<g clip-path="url(#clip0_5_1685)">
<path d="M76.5744 34.2165C76.5767 40.8879 74.6121 47.4101 70.9291 52.9583C67.246 58.5065 62.01 62.8314 55.8831 65.3861C49.7563 67.9407 43.0139 68.6104 36.5087 67.3103C30.0035 66.0102 24.0276 62.7988 19.337 58.0823C14.6464 53.3658 11.4517 47.3559 10.1569 40.8129C8.86212 34.2699 9.52546 27.4877 12.063 21.3239C14.6006 15.1601 18.8984 9.89176 24.4128 6.1851C29.9273 2.47844 36.4107 0.5 43.0431 0.5C51.9331 0.503155 60.4583 4.05606 66.7456 10.3781C73.0329 16.7002 76.5681 25.2742 76.5744 34.2165Z" fill="#50048D"/>
<path d="M25.2773 33.5389C25.2773 37.0735 26.3193 40.5286 28.2715 43.4675C30.2237 46.4064 32.9985 48.6969 36.2449 50.0495C39.4913 51.4021 43.0635 51.7561 46.5099 51.0665C49.9562 50.3769 53.122 48.6749 55.6066 46.1756C58.0913 43.6763 59.7834 40.492 60.4689 37.0254C61.1545 33.5587 60.8026 29.9655 59.4579 26.7C58.1132 23.4345 55.836 20.6435 52.9143 18.6798C49.9927 16.7161 46.5577 15.668 43.0438 15.668C38.3319 15.668 33.8129 17.5508 30.481 20.9023C27.1491 24.2537 25.2773 28.7993 25.2773 33.5389Z" fill="#012428"/>
<path d="M35.1885 41.3044H41.8331V34.6445H33.9922C34.0926 36.9084 34.4949 39.1484 35.1885 41.3044Z" fill="white"/>
<path d="M33.9922 32.4287H41.8331V25.5781H35.2477C34.5165 27.7923 34.094 30.0978 33.9922 32.4287Z" fill="white"/>
<path d="M36.1133 23.3525H41.8341V15.668C39.4731 17.8533 37.5336 20.4585 36.1133 23.3525Z" fill="white"/>
<path d="M51.9844 41.3044H59.091C60.0868 39.2166 60.6739 36.9555 60.8202 34.6445H53.2873C53.1319 36.9106 52.6941 39.1481 51.9844 41.3044Z" fill="#A3A3A3"/>
<path d="M41.8348 51.4103V43.5352H36.043C37.4575 46.5072 39.4233 49.1801 41.8348 51.4103Z" fill="white"/>
<path d="M32.9287 25.5781H27.1131C26.0562 27.7161 25.436 30.0455 25.2891 32.4287H31.7679C31.8573 30.1041 32.2475 27.8012 32.9287 25.5781Z" fill="white"/>
<path d="M28.2969 43.5352C30.7156 47.1312 34.3464 49.7254 38.5185 50.8384C36.6209 48.6456 35.0527 46.185 33.8637 43.5352H28.2969Z" fill="white"/>
<path d="M37.83 16.4414C34.0044 17.5939 30.6885 20.0335 28.4375 23.3515H33.7082C34.7249 20.8507 36.1148 18.5206 37.83 16.4414Z" fill="white"/>
<path d="M31.7796 34.6445H25.3008C25.4427 36.9562 26.03 39.2182 27.03 41.3044H32.9522C32.2936 39.1407 31.8999 36.9042 31.7796 34.6445Z" fill="white"/>
<path d="M53.2993 32.4285H60.785C60.6365 30.0494 60.0163 27.7242 58.961 25.5898H52.3281C52.9381 27.8189 53.2644 30.1168 53.2993 32.4285Z" fill="#A3A3A3"/>
<path d="M51.0272 34.6445H44.0391V41.3044H49.6177C50.3925 39.161 50.8669 36.9195 51.0272 34.6445Z" fill="#A3A3A3"/>
<path d="M44.0391 43.5352V51.315C46.2614 49.1363 47.959 46.4752 49.0018 43.5352H44.0391Z" fill="#A3A3A3"/>
<path d="M51.1336 43.5352C49.9481 46.3265 48.3023 48.8964 46.2656 51.1363C50.9553 50.2354 55.0992 47.5022 57.7901 43.5352H51.1336Z" fill="#A3A3A3"/>
<path d="M57.6449 23.3503C55.2411 19.8902 51.7083 17.3863 47.6602 16.2734C49.3206 18.4199 50.6502 20.8056 51.6043 23.3503H57.6449Z" fill="#A3A3A3"/>
<path d="M50.0198 25.5781H44.0977V32.4287H51.145C51.0913 30.1034 50.7125 27.7972 50.0198 25.5781Z" fill="#A3A3A3"/>
<path d="M44.0391 15.668V23.3525H49.2269C47.985 20.4903 46.226 17.8847 44.0391 15.668Z" fill="#A3A3A3"/>
<path d="M18.819 33.9914C19.2578 33.9798 19.6805 33.8227 20.0212 33.5444C20.362 33.2661 20.6017 32.8823 20.703 32.4527C20.8044 32.0232 20.7617 31.5719 20.5816 31.1693C20.4015 30.7667 20.0942 30.4352 19.7073 30.2266L17.8359 33.8008C18.1438 33.9423 18.4809 34.0077 18.819 33.9914Z" fill="#FFCAA6"/>
<path d="M29.659 15.0109C30.0968 14.9969 30.5178 14.838 30.8566 14.5588C31.1955 14.2796 31.4333 13.8957 31.5332 13.4667C31.633 13.0377 31.5894 12.5876 31.409 12.1861C31.2286 11.7846 30.9216 11.4542 30.5355 11.2461L28.6641 14.8203C28.9757 14.9633 29.3169 15.0287 29.659 15.0109Z" fill="#FFCAA6"/>
<path d="M8.16829 1.65181L-0.152344 16.2148L10.9251 22.6186L19.2457 8.05557L8.16829 1.65181Z" fill="#181C21"/>
<path d="M3.88538 26.9979L1.80078 19.1585L2.10873 18.6223L9.81939 5.20721L10.1392 4.67108L17.9328 2.57422L20.4201 4.02772L17.2576 9.53198L9.53513 22.9471L6.37269 28.4514L3.88538 26.9979Z" fill="#063B5B"/>
<path d="M18.8663 6.70501L17.2422 9.53125L27.1582 15.2969L28.7823 12.4706L18.8663 6.70501Z" fill="#063B5B"/>
<path d="M20.1491 1.96521L18.6094 4.66016L28.5739 10.4206L30.1137 7.72562L20.1491 1.96521Z" fill="#5D7999"/>
<path d="M9.54256 22.9401L8 25.6211L17.913 31.3919L19.4555 28.7109L9.54256 22.9401Z" fill="#5D7999"/>
<path d="M7.96938 25.6043L6.34375 28.4297L16.2567 34.2005L17.8824 31.3751L7.96938 25.6043Z" fill="#063B5B"/>
<path d="M30.0132 10.3612L28.793 12.4727L29.7453 13.0295L30.9655 10.918L30.0132 10.3612Z" fill="white"/>
<path d="M28.7659 12.4441L27.5508 14.5586L28.5044 15.1131L29.7196 12.9986L28.7659 12.4441Z" fill="#D5D8D8"/>
<path d="M18.7453 27.0314L17.5312 29.1562L18.4896 29.7102L19.7036 27.5854L18.7453 27.0314Z" fill="white"/>
<path d="M17.9253 31.4085L16.7109 33.5234L17.6648 34.0776L18.8792 31.9627L17.9253 31.4085Z" fill="#D5D8D8"/>
<path d="M16.7695 13.8087C16.7382 12.2467 16.1989 10.7381 15.2344 9.51362C14.2698 8.28915 12.933 7.41623 11.4285 7.02843C9.92392 6.64062 8.3345 6.75928 6.90337 7.36625C5.47223 7.97322 4.2782 9.03507 3.50391 10.3894L15.8101 17.3114C16.4301 16.2488 16.761 15.0407 16.7695 13.8087Z" fill="#012428"/>
<path d="M3.50565 10.3867C2.92074 11.4307 2.61087 12.6077 2.60547 13.806C2.64041 15.3564 3.17562 16.8533 4.13036 18.0709C5.0851 19.2885 6.40759 20.1608 7.89833 20.5562C9.38907 20.9515 10.9672 20.8486 12.3947 20.2628C13.8222 19.677 15.0215 18.6402 15.8119 17.3087L3.50565 10.3867Z" fill="#232A32"/>
<path d="M65.2007 33.9914C64.9394 33.9867 64.6815 33.9303 64.4419 33.8254C64.2022 33.7205 63.9855 33.5691 63.804 33.38C63.6225 33.1908 63.4799 32.9675 63.3842 32.7228C63.2885 32.4782 63.2417 32.2169 63.2464 31.9541C63.2518 31.5945 63.3551 31.2433 63.5452 30.9387C63.7352 30.6341 64.0047 30.3878 64.3243 30.2266L66.1956 33.7888C65.8857 33.9378 65.5439 34.0074 65.2007 33.9914Z" fill="#FFCAA6"/>
<path d="M54.3558 15.0109C53.917 14.9994 53.4943 14.8422 53.1536 14.5639C52.8128 14.2856 52.5731 13.9018 52.4718 13.4723C52.3704 13.0427 52.4131 12.5914 52.5932 12.1888C52.7733 11.7862 53.0806 11.4547 53.4675 11.2461L55.3389 14.8203C55.031 14.9619 54.6939 15.0272 54.3558 15.0109Z" fill="#FFCAA6"/>
<path d="M75.6658 3.60609L64.6445 10.0195L72.9778 24.5087L83.999 18.0953L75.6658 3.60609Z" fill="#181C21"/>
<path d="M80.1247 26.9979L82.2093 19.1585L81.8895 18.6223L74.1788 5.20721L73.8708 4.67108L66.0654 2.57422L63.5781 4.02772L66.7524 9.53198L74.4631 22.9471L77.6374 28.4514L80.1247 26.9979Z" fill="#063B5B"/>
<path d="M67.0817 6.97007L57.1172 12.7305L58.7399 15.5705L68.7044 9.81013L67.0817 6.97007Z" fill="#063B5B"/>
<path d="M63.6044 4.06117L53.6914 9.83203L55.234 12.513L65.147 6.74218L63.6044 4.06117Z" fill="#5D7999"/>
<path d="M76.6247 23.6615L66.6602 29.4219L68.1999 32.1168L78.1645 26.3564L76.6247 23.6615Z" fill="#5D7999"/>
<path d="M75.9812 25.5742L66.0742 31.3555L67.7028 34.1791L77.6097 28.3978L75.9812 25.5742Z" fill="#063B5B"/>
<path d="M53.9995 10.346L53.0469 10.9023L54.2661 13.0145L55.2186 12.4582L53.9995 10.346Z" fill="white"/>
<path d="M55.2193 12.5119L54.2656 13.0664L55.4808 15.1809L56.4344 14.6264L55.2193 12.5119Z" fill="#D5D8D8"/>
<path d="M64.8672 29.2454L63.9141 29.8008L65.131 31.9142L66.0842 31.3589L64.8672 29.2454Z" fill="white"/>
<path d="M66.1065 31.419L65.1523 31.9727L66.3657 34.0882L67.3198 33.5346L66.1065 31.419Z" fill="#D5D8D8"/>
<path d="M67.2383 13.8087C67.2697 12.2467 67.8089 10.7381 68.7734 9.51362C69.738 8.28915 71.0748 7.41623 72.5794 7.02843C74.0839 6.64062 75.6733 6.75928 77.1045 7.36625C78.5356 7.97322 79.7296 9.03507 80.5039 10.3894L68.1977 17.3114C67.5777 16.2488 67.2468 15.0407 67.2383 13.8087Z" fill="#012428"/>
<path d="M80.5055 10.3867C81.099 11.4277 81.4133 12.606 81.4175 13.806C81.3867 15.3601 80.8531 16.8616 79.8977 18.0832C78.9422 19.3049 77.617 20.1799 76.1227 20.5759C74.6284 20.9719 73.0466 20.8671 71.6168 20.2776C70.187 19.688 68.9872 18.6458 68.1992 17.3087L80.5055 10.3867Z" fill="#232A32"/>
<path d="M30.4521 52.3834C30.6793 52.0019 31.0262 51.7073 31.4383 51.5462C31.8504 51.385 32.304 51.3665 32.7277 51.4936C33.1514 51.6206 33.5209 51.8859 33.778 52.2477C34.0351 52.6095 34.1651 53.047 34.1475 53.4914L30.1797 53.3723C30.1819 53.0242 30.2759 52.6829 30.4521 52.3834Z" fill="#FFCAA6"/>
<path d="M52.2099 52.399C52.4371 52.0175 52.784 51.7229 53.1961 51.5618C53.6082 51.4007 54.0618 51.3822 54.4855 51.5092C54.9092 51.6362 55.2787 51.9015 55.5358 52.2633C55.7929 52.6251 55.923 53.0627 55.9054 53.507L51.9375 53.3879C51.9469 53.0409 52.0405 52.7014 52.2099 52.399Z" fill="#FFCAA6"/>
<path d="M51.3756 63.8185L34.7344 63.8594L34.7655 76.6669L51.4067 76.626L51.3756 63.8185Z" fill="#181C21"/>
<path d="M29.0314 68.8845L34.7522 74.6152L35.3681 74.6033L50.7776 74.5675H51.3935L57.0906 68.8131L57.0787 65.918L50.7539 65.9418L35.3444 65.9775L29.0195 65.9895L29.0314 68.8845Z" fill="#063B5B"/>
<path d="M53.9758 54.3844L50.7305 54.3906L50.7525 65.9114L53.9978 65.9052L53.9758 54.3844Z" fill="#063B5B"/>
<path d="M57.0405 54.426L53.9609 54.4336L53.9889 65.9544L57.0684 65.9468L57.0405 54.426Z" fill="#012428"/>
<path d="M35.3256 54.4205L32.2461 54.4297L32.2801 65.9504L35.3596 65.9413L35.3256 54.4205Z" fill="#012428"/>
<path d="M32.2532 54.4446L29.0078 54.4531L29.0378 65.9739L32.2832 65.9653L32.2532 54.4446Z" fill="#063B5B"/>
<path d="M56.4046 54.3971V53.2891L53.9766 53.301V54.409L56.4046 54.3971Z" fill="white"/>
<path d="M53.9749 53.2879L51.5469 53.293L51.5492 54.401L53.9772 54.3959L53.9749 53.2879Z" fill="#D5D8D8"/>
<path d="M34.6664 54.4596V53.3516H32.2383V54.4596H34.6664Z" fill="white"/>
<path d="M32.2327 53.3599L29.8047 53.3672L29.808 54.4752L32.236 54.4679L32.2327 53.3599Z" fill="#D5D8D8"/>
<path d="M46.8319 64.226C48.1629 65.0322 49.1946 66.2549 49.769 67.707C50.3433 69.1591 50.4288 70.7606 50.0123 72.2662C49.5958 73.7718 48.7002 75.0986 47.4627 76.0435C46.2251 76.9884 44.7138 77.4994 43.1602 77.4981L43.326 63.3086C44.5535 63.3073 45.7607 63.6232 46.8319 64.226Z" fill="#012428"/>
<path d="M43.1616 77.4981C41.9689 77.4912 40.7982 77.1752 39.7623 76.5808C38.4395 75.78 37.412 74.5677 36.8351 73.1273C36.2582 71.6869 36.1633 70.0967 36.5648 68.5973C36.9662 67.0978 37.8422 65.7706 39.0602 64.8164C40.2782 63.8622 41.7719 63.3329 43.3156 63.3086L43.1616 77.4981Z" fill="#232A32"/>
</g>
<defs>
<clipPath id="clip0_5_1685">
<rect width="84" height="77" fill="white" transform="translate(0 0.5)"/>
</clipPath>
</defs>
</svg>
