<svg width="167" height="644" viewBox="0 0 167 644" fill="none" xmlns="http://www.w3.org/2000/svg">
<g clip-path="url(#clip0_0_1952)">
<path d="M87.76 39.9602C85.6 39.1002 83.5033 38.1568 81.47 37.1302C73.4843 33.112 66.3263 27.6265 60.37 20.9602C59.7096 20.3771 58.9686 19.8921 58.17 19.5202H58.07C54.64 18.4302 40.67 10.1402 50.4 22.2402L19.4 61.6502C17.7 63.7302 20.4 68.7102 25.6 72.1302C43.6356 80.4485 63.4262 84.2481 83.26 83.2002C84.26 83.1502 85.2 83.0802 86.17 83.0002C91.18 70.7302 89.39 54.5302 87.76 39.9602Z" fill="#3F0072"/>
<path d="M158.9 34.13C134.37 47.96 108.18 48.05 87.76 39.96C89.39 54.5 91.18 70.7 86.21 82.96C118.47 80.42 146.98 64.96 165.44 41.6C169.3 38.16 162.26 31.09 158.9 34.13Z" fill="#540494"/>
<path d="M46.9 16.4502V23.2702H62.9C62.9 23.2702 47.69 17.2302 46.9 16.4502Z" fill="#540494"/>
<path d="M7.48999 3.70996H11.12C11.732 3.70982 12.3198 3.94948 12.7572 4.37756C13.1946 4.80564 13.4469 5.38806 13.46 5.99996V644H5.14999V5.99996C5.16307 5.38806 5.41537 4.80564 5.85279 4.37756C6.29022 3.94948 6.87795 3.70982 7.48999 3.70996Z" fill="#0A1629"/>
<path d="M77.46 19.3701H8.13999C5.63814 19.3701 3.60999 21.3983 3.60999 23.9001V72.1701C3.60999 74.672 5.63814 76.7001 8.13999 76.7001H77.46C79.9618 76.7001 81.99 74.672 81.99 72.1701V23.9001C81.99 21.3983 79.9618 19.3701 77.46 19.3701Z" fill="#540494"/>
<path d="M14.57 0H3.49C1.56253 0 0 1.56253 0 3.49C0 5.41747 1.56253 6.98 3.49 6.98H14.57C16.4975 6.98 18.06 5.41747 18.06 3.49C18.06 1.56253 16.4975 0 14.57 0Z" fill="#0A1629"/>
</g>
<defs>
<clipPath id="clip0_0_1952">
<rect width="166.57" height="643.98" fill="white"/>
</clipPath>
</defs>
</svg>
