<svg width="54" height="80" viewBox="0 0 54 80" fill="none" xmlns="http://www.w3.org/2000/svg">
<g clip-path="url(#clip0_1_117280)">
<path d="M45.0225 46.8427H8.98836C8.89227 46.8313 8.79482 46.8402 8.70244 46.8685C8.61007 46.8969 8.52486 46.9442 8.45246 47.0074C8.38005 47.0705 8.32208 47.148 8.28239 47.2347C8.2427 47.3215 8.22217 47.4155 8.22217 47.5106C8.22217 47.6058 8.2427 47.6998 8.28239 47.7866C8.32208 47.8733 8.38005 47.9508 8.45246 48.0139C8.52486 48.077 8.61007 48.1243 8.70244 48.1527C8.79482 48.1811 8.89227 48.1899 8.98836 48.1786H26.3356V68.534C26.3556 68.6974 26.4357 68.8479 26.561 68.9571C26.6862 69.0662 26.8478 69.1265 27.0152 69.1265C27.1826 69.1265 27.3442 69.0662 27.4694 68.9571C27.5947 68.8479 27.6748 68.6974 27.6948 68.534V48.1786H45.0225C45.1186 48.1899 45.216 48.1811 45.3084 48.1527C45.4008 48.1243 45.486 48.077 45.5584 48.0139C45.6308 47.9508 45.6887 47.8733 45.7284 47.7866C45.7681 47.6998 45.7887 47.6058 45.7887 47.5106C45.7887 47.4155 45.7681 47.3215 45.7284 47.2347C45.6887 47.148 45.6308 47.0705 45.5584 47.0074C45.486 46.9442 45.4008 46.8969 45.3084 46.8685C45.216 46.8402 45.1186 46.8313 45.0225 46.8427Z" fill="#51048F"/>
<path d="M30.7056 34.4932L27.019 30.8604L29.0921 38.3567L30.7056 34.4932Z" fill="white"/>
<path d="M23.2844 34.5316L24.8979 38.5009L27.0198 30.8604L23.2844 34.5316Z" fill="#D5D8D8"/>
<path d="M24.928 29.4377L22.3171 26.8716V29.4377C23.4987 30.2329 24.87 30.7131 26.297 30.8312L24.928 29.4377Z" fill="#FFCAB3"/>
<path d="M22.3171 25.1802V26.8717L24.928 29.4377L26.3362 30.8313C26.5611 30.8313 26.786 30.8313 27.0207 30.8313H27.4607C28.9688 30.7545 30.4266 30.2725 31.6753 29.4377V25.1802H22.3171Z" fill="#F9B59D"/>
<path d="M31.4191 12.4556C29.6003 12.4556 27.449 14.0221 26.3538 15.2811L27.0187 28.7361C31.82 28.6881 35.7706 22.8832 36.3279 17.9625C36.3747 17.5766 36.3975 17.1882 36.3964 16.7996V14.7333C35.927 13.4839 32.7881 12.4556 31.4191 12.4556Z" fill="#F9B59D"/>
<path d="M34.4426 7.85205C30.0456 10.8565 24.8169 12.4632 19.4617 12.4556C18.8066 12.4556 18.171 12.4556 17.506 12.3787C17.4551 12.7514 17.4289 13.1271 17.4278 13.5031V16.7612C17.4266 17.1498 17.4495 17.5381 17.4962 17.9241C18.0634 22.864 22.0531 28.6977 26.8935 28.6977H26.9815V22.6045C27.2564 22.58 27.5112 22.4527 27.6932 22.2487C27.8752 22.0448 27.9705 21.7799 27.9593 21.5089V15.5022C27.9593 14.3873 30.0911 13.0418 31.949 13.0418C32.7627 12.9859 33.5789 13.1086 34.3383 13.4012C35.0977 13.6938 35.7814 14.1488 36.3396 14.7333V13.4839C36.3539 11.4528 35.6872 9.47357 34.4426 7.85205Z" fill="#FFCAB3"/>
<path d="M37.179 5.70915C35.6979 3.64643 33.6011 2.08714 31.1788 1.24709C28.7564 0.407035 26.1283 0.32775 23.6581 1.0202C21.1879 1.71265 18.9977 3.1426 17.3907 5.11217C15.7837 7.08173 14.8393 9.49352 14.6882 12.0138C14.6882 12.2348 14.6882 12.4462 14.6882 12.6673V15.1084C14.6882 15.8519 14.9874 16.5653 15.5205 17.0928C16.0536 17.6204 16.7773 17.9193 17.5338 17.9244H17.5925C17.5458 17.5384 17.5229 17.1501 17.524 16.7615V13.4842C17.5252 13.1081 17.5513 12.7325 17.6023 12.3598C18.2281 12.3598 18.8637 12.4366 19.558 12.4366C24.9124 12.4394 30.1396 10.833 34.5388 7.83311C35.8085 9.45248 36.4962 11.4398 36.4945 13.4842V16.7422C36.4956 17.1309 36.4728 17.5192 36.4261 17.9051H36.6607C37.4164 17.8976 38.1387 17.5978 38.6713 17.0708C39.2038 16.5438 39.5038 15.8319 39.5063 15.0892V12.6481C39.474 10.1551 38.6614 7.73233 37.179 5.70915Z" fill="#063B5B"/>
<path d="M22.3542 29.438V32.1194L23.3321 34.522L27.0675 30.8604C25.3855 30.8706 23.7406 30.3742 22.3542 29.438Z" fill="#F8F8F9"/>
<path d="M31.7039 32.1194V29.438C30.3313 30.3648 28.7049 30.8608 27.0396 30.8604L30.7359 34.4932L31.7039 32.1194Z" fill="#D5D8D8"/>
<path d="M36.7586 29.438H31.6933V32.1194L29.0824 38.3471L27.0094 30.8604L24.907 38.472L22.3156 32.0905L18.4629 35.8675L26.2075 43.4696H45.0215V37.5302C45.0138 35.3814 44.1398 33.3231 42.5911 31.8064C41.0423 30.2896 38.945 29.438 36.7586 29.438Z" fill="#50048D"/>
<path d="M22.3059 29.438H19.5874L22.3059 32.1194V29.438Z" fill="#063B5B"/>
<path d="M18.4628 35.8964L22.3155 32.1194L19.5873 29.438H17.2404C16.1558 29.438 15.0818 29.6481 14.0798 30.0563C13.0779 30.4646 12.1676 31.0629 11.4011 31.8172C10.6346 32.5714 10.0269 33.4667 9.61271 34.452C9.19852 35.4372 8.98603 36.493 8.98731 37.559V43.4984H26.2074L18.4628 35.8964Z" fill="#5D7999"/>
<path d="M26.9973 30.8405L24.876 32.9282L27.0002 35.0131L29.1215 32.9253L26.9973 30.8405Z" fill="#5D7999"/>
<path d="M23.9976 17.9243H23.2153C23.2153 17.6694 23.1123 17.4249 22.9289 17.2447C22.7455 17.0644 22.4968 16.9632 22.2374 16.9632C21.9781 16.9632 21.7294 17.0644 21.546 17.2447C21.3626 17.4249 21.2596 17.6694 21.2596 17.9243H20.4773C20.4773 17.4654 20.6627 17.0254 20.9928 16.701C21.3229 16.3766 21.7706 16.1943 22.2374 16.1943C22.7043 16.1943 23.152 16.3766 23.482 16.701C23.8121 17.0254 23.9976 17.4654 23.9976 17.9243Z" fill="#012428"/>
<path d="M33.5615 17.9243H32.7792C32.7792 17.6694 32.6762 17.4249 32.4928 17.2447C32.3095 17.0644 32.0607 16.9632 31.8014 16.9632C31.542 16.9632 31.2933 17.0644 31.1099 17.2447C30.9266 17.4249 30.8235 17.6694 30.8235 17.9243H30.0608C30.0608 17.4654 30.2462 17.0254 30.5763 16.701C30.9064 16.3766 31.3541 16.1943 31.8209 16.1943C32.2877 16.1943 32.7355 16.3766 33.0655 16.701C33.3956 17.0254 33.5811 17.4654 33.5811 17.9243H33.5615Z" fill="#012428"/>
<path d="M25.9341 72.3594L24.614 71.062V72.3594C25.2134 72.7673 25.9116 73.0126 26.6382 73.0706L25.9341 72.3594Z" fill="#FFCAB3"/>
<path d="M24.614 70.187V71.0424L25.9341 72.3398L26.6577 73.051H27.2249C27.988 73.016 28.726 72.7731 29.3566 72.3494V70.187H24.614Z" fill="#F9B59D"/>
<path d="M29.2297 63.748C28.2223 63.8902 27.307 64.4018 26.6677 65.18L27.0002 71.9844C29.4351 71.9844 31.4397 69.0147 31.7233 66.5255C31.7233 66.3237 31.7233 66.1219 31.7233 65.9297V64.9109C31.5081 64.2574 29.924 63.748 29.2297 63.748Z" fill="#F9B59D"/>
<path d="M30.7648 61.4126C28.5501 62.9304 25.9156 63.7454 23.2157 63.748C22.8832 63.748 22.5605 63.748 22.2378 63.748C22.2231 63.9399 22.2231 64.1327 22.2378 64.3246V65.9681C22.2378 66.1603 22.2378 66.3621 22.2378 66.5639C22.5214 69.0723 24.5553 72.0228 27 72.0228H27.0489V68.9378C27.1907 68.9279 27.323 68.8642 27.4179 68.7602C27.5128 68.6562 27.5628 68.52 27.5574 68.3804V65.3338C27.5574 64.7763 28.6428 64.0844 29.5816 64.0844C29.9939 64.0551 30.4077 64.1177 30.792 64.2675C31.1763 64.4173 31.5213 64.6503 31.8013 64.9493V64.3246C31.7968 63.2674 31.4318 62.2421 30.7648 61.4126Z" fill="#FFCAB3"/>
<path d="M32.1529 60.3268C31.4021 59.277 30.3375 58.483 29.1068 58.0549C27.8762 57.6267 26.5404 57.5857 25.2849 57.9375C24.0294 58.2893 22.9164 59.0165 22.1005 60.0181C21.2846 61.0197 20.8061 62.2461 20.7314 63.5271C20.7314 63.6425 20.7314 63.7482 20.7314 63.8635V65.0937C20.7314 65.4702 20.8822 65.8315 21.1513 66.0995C21.4203 66.3675 21.7859 66.5206 22.1689 66.5257C22.1689 66.3238 22.1689 66.122 22.1689 65.9298V64.2864C22.1542 64.0944 22.1542 63.9017 22.1689 63.7097C22.4818 63.7097 22.8045 63.7097 23.1468 63.7097C25.8627 63.7126 28.5144 62.8976 30.7448 61.3743C31.3846 62.2035 31.7284 63.2169 31.7226 64.2575V65.901C31.7226 66.0932 31.7226 66.295 31.7226 66.4968H31.8302C32.2149 66.4943 32.583 66.3423 32.8541 66.074C33.1252 65.8057 33.2774 65.443 33.2774 65.0648V63.8347C33.2754 62.58 32.883 61.356 32.1529 60.3268Z" fill="#012428"/>
<path d="M24.614 72.3594V73.7241L25.1127 74.9447L25.9243 76.9533L27 73.109C26.1546 73.1132 25.3284 72.8616 24.6336 72.3882L24.614 72.3594Z" fill="#D5D8D8"/>
<path d="M29.3657 73.7241V72.3594C28.6709 72.8328 27.8447 73.0844 26.9993 73.0802L28.0554 76.9245L28.867 75.0023L29.3755 73.801L29.3657 73.7241Z" fill="#D5D8D8"/>
<path d="M31.9395 72.3595H29.3677V73.7242L28.1063 76.915L27.0502 73.0707L25.9745 76.915L24.6642 73.6858L22.7085 75.6079L26.6199 79.4522H36.1541V76.444C36.1502 75.9038 36.0382 75.3697 35.8243 74.8721C35.6104 74.3745 35.2989 73.9231 34.9075 73.5438C34.5161 73.1646 34.0526 72.8647 33.5433 72.6615C33.0341 72.4583 32.4891 72.3557 31.9395 72.3595Z" fill="#012428"/>
<path d="M24.6141 72.3687H23.2256L24.6141 73.7238V72.3687Z" fill="#012428"/>
<path d="M22.6685 75.6366L24.6242 73.7145L23.2161 72.3594H22.0427C20.9318 72.3619 19.8673 72.7974 19.0827 73.5704C18.2981 74.3433 17.8574 75.3906 17.8574 76.4824V79.4905H26.5897L22.6685 75.6366Z" fill="#063B5B"/>
<path d="M26.9849 73.0551L25.9072 74.1162L26.9868 75.1754L28.0646 74.1144L26.9849 73.0551Z" fill="#063B5B"/>
<path d="M8.54814 64.3632L7.22803 63.0562V64.3632C7.82516 64.7669 8.51992 65.0088 9.24242 65.0648L8.54814 64.3632Z" fill="#FFCAB3"/>
<path d="M7.26636 62.2005V63.0559L8.58647 64.3629L9.30029 65.0645H9.65234H9.86747C10.6345 65.0265 11.3757 64.7803 12.009 64.3533V62.1909L7.26636 62.2005Z" fill="#F9B59D"/>
<path d="M11.8821 55.771C10.8712 55.9109 9.952 56.4227 9.3103 57.203L9.65256 64.0074C12.0874 64.0074 14.0823 61.0377 14.3659 58.5389C14.3801 58.3437 14.3801 58.1478 14.3659 57.9526V56.9243C14.1507 56.2611 12.5764 55.771 11.8821 55.771Z" fill="#F9B59D"/>
<path d="M13.4369 53.4165C11.1998 54.9505 8.5374 55.7724 5.80961 55.7711C5.48692 55.7711 5.16423 55.7711 4.83175 55.7711C4.82171 55.96 4.82171 56.1493 4.83175 56.3382V57.9912C4.83175 58.1834 4.83175 58.3756 4.83175 58.5774C5.11533 61.0858 7.1395 64.0459 9.59393 64.0459H9.64281V60.9513C9.78375 60.9438 9.91605 60.8822 10.0112 60.7797C10.1063 60.6772 10.1567 60.5421 10.1513 60.4035V57.3473C10.1513 56.7899 11.227 56.1075 12.1657 56.1075C12.5786 56.0791 12.9927 56.141 13.3782 56.2889C13.7638 56.4369 14.1112 56.667 14.3952 56.9629V56.3382C14.416 55.2865 14.0787 54.2582 13.4369 53.4165Z" fill="#FFCAB3"/>
<path d="M14.7954 52.3307C14.0504 51.2741 12.9877 50.473 11.7563 50.0397C10.5249 49.6064 9.1864 49.5626 7.92835 49.9143C6.6703 50.2661 5.55574 50.9958 4.74079 52.0013C3.92584 53.0068 3.45135 54.2377 3.38379 55.5215C3.38379 55.6368 3.38379 55.7521 3.38379 55.8578V57.0976C3.38379 57.4749 3.53625 57.8366 3.80766 58.1034C4.07907 58.3701 4.4472 58.52 4.83103 58.52C4.83103 58.3182 4.83103 58.126 4.83103 57.9338V56.2807C4.82098 56.0918 4.82098 55.9026 4.83103 55.7137C5.15373 55.7137 5.47642 55.7137 5.80889 55.7137C8.52791 55.7167 11.1827 54.9017 13.4166 53.3783C14.0572 54.2071 14.401 55.2207 14.3945 56.2615V57.9145C14.4088 58.1097 14.4088 58.3056 14.3945 58.5008H14.5118C14.7019 58.5008 14.8901 58.464 15.0657 58.3925C15.2413 58.321 15.4008 58.2163 15.5352 58.0842C15.6696 57.9521 15.7762 57.7953 15.8489 57.6227C15.9216 57.4502 15.9591 57.2652 15.9591 57.0784V55.8386C15.9468 54.5796 15.5406 53.3549 14.7954 52.3307Z" fill="#012428"/>
<path d="M7.26636 64.3633V65.7184L7.75529 66.9389L8.57669 68.9572L9.65234 65.1129C8.80759 65.1129 7.98262 64.8616 7.2859 64.3921L7.26636 64.3633Z" fill="white"/>
<path d="M12.018 65.7184V64.3633C11.3248 64.8326 10.5031 65.0839 9.66138 65.0841L10.7077 68.8803L11.5291 66.9582L12.0376 65.7568L12.018 65.7184Z" fill="white"/>
<path d="M14.5907 64.3633H12.0189V65.7184L10.689 68.8803L9.64272 65.0841L8.56707 68.9284L7.25674 65.6896L5.30103 67.6117L9.21246 71.456H18.7466V68.4478C18.7389 67.3669 18.2986 66.3323 17.5209 65.568C16.7431 64.8036 15.6905 64.3708 14.5907 64.3633Z" fill="#A3A3A3"/>
<path d="M7.25671 64.3633H5.87793L7.25671 65.728V64.3633Z" fill="#A3A3A3"/>
<path d="M5.31108 67.6405L7.2668 65.7184L5.87823 64.3633H4.69503C3.58413 64.3633 2.51858 64.7963 1.73214 65.5675C0.945705 66.3386 0.50259 67.3848 0.5 68.4767V71.4944H9.24207L5.31108 67.6405Z" fill="#D5D8D8"/>
<path d="M9.6492 65.0749L8.57129 66.1357L9.65071 67.1952L10.7286 66.1343L9.6492 65.0749Z" fill="#D5D8D8"/>
<path d="M43.3101 64.4208L41.9802 63.1138V64.4208C42.5788 64.8217 43.2728 65.0634 43.9946 65.1224L43.3101 64.4208Z" fill="#FFCAB3"/>
<path d="M41.9802 62.2104V63.0658L43.3101 64.3729L44.0239 65.0744H44.376H44.5911C45.3572 65.0397 46.0985 64.7969 46.7326 64.3729V62.2104H41.9802Z" fill="#F9B59D"/>
<path d="M46.6057 55.771C45.593 55.9124 44.6733 56.4279 44.0339 57.2126L44.3762 64.0074C46.8013 64.0074 48.8059 61.0473 49.0895 58.5485C49.0895 58.3467 49.0895 58.1544 49.0895 57.9622V56.9339C48.8743 56.2611 47.3 55.771 46.6057 55.771Z" fill="#F9B59D"/>
<path d="M48.1324 53.4263C45.9018 54.9478 43.2497 55.7596 40.5344 55.7521C40.2118 55.7521 39.8891 55.7521 39.5566 55.7521C39.5566 55.9443 39.5566 56.1365 39.5566 56.3287V57.9817C39.5423 58.1769 39.5423 58.3728 39.5566 58.568C39.8402 61.0764 41.8643 64.0269 44.3188 64.0269H44.3677V60.9418C44.5086 60.932 44.64 60.868 44.7333 60.7636C44.8266 60.6593 44.8745 60.5231 44.8664 60.3844V57.3378C44.8664 56.7804 45.9518 56.0884 46.8905 56.0884C47.3043 56.0598 47.7193 56.1227 48.1051 56.2723C48.4909 56.422 48.8377 56.6547 49.1201 56.9534V56.3287C49.1349 55.2792 48.7867 54.2558 48.1324 53.4263Z" fill="#FFCAB3"/>
<path d="M49.5191 52.3403C48.7721 51.2854 47.7086 50.4862 46.4771 50.0541C45.2457 49.6219 43.9076 49.5785 42.6499 49.9299C41.3921 50.2813 40.2773 51.0099 39.4612 52.0141C38.6451 53.0182 38.1684 54.2478 38.0977 55.531C38.0977 55.6464 38.0977 55.7521 38.0977 55.8674V57.1072C38.1002 57.4837 38.2535 57.844 38.5244 58.1102C38.7952 58.3764 39.1619 58.527 39.5449 58.5296C39.5306 58.3344 39.5306 58.1385 39.5449 57.9433V56.2903C39.5449 56.0981 39.5449 55.9059 39.5449 55.7136C39.8676 55.7136 40.1903 55.7136 40.5228 55.7136C43.2424 55.721 45.8986 54.9056 48.1305 53.3782C48.7771 54.2039 49.1216 55.2196 49.1084 56.2614V57.9145C49.1084 58.1067 49.1084 58.2989 49.1084 58.5007H49.2257C49.6087 58.4982 49.9754 58.3476 50.2462 58.0814C50.5171 57.8151 50.6704 57.4548 50.6729 57.0784V55.8674C50.6695 54.6026 50.2663 53.3701 49.5191 52.3403Z" fill="#012428"/>
<path d="M41.9802 64.4209V65.776L42.4789 66.9966L43.3003 69.0052L44.376 65.1609C43.5312 65.1609 42.7063 64.9096 42.0096 64.4401L41.9802 64.4209Z" fill="white"/>
<path d="M46.7439 65.728V64.4209C46.0502 64.8891 45.2287 65.1403 44.3872 65.1417L45.4335 68.986L46.2549 67.0638L46.7634 65.8625L46.7439 65.728Z" fill="white"/>
<path d="M49.3153 64.421H46.7435V65.7761L45.4137 68.938L44.3674 65.0937L43.2917 68.938L41.9716 65.7088L40.0159 67.631L43.9273 71.4753H53.5299V68.4671C53.5119 67.3829 53.059 66.3495 52.2697 65.5918C51.4804 64.834 50.4186 64.4133 49.3153 64.421Z" fill="#063B5B"/>
<path d="M41.9806 64.3726H40.6018L41.9806 65.7277V64.3726Z" fill="#063B5B"/>
<path d="M40.035 67.6405L41.9907 65.7184L40.6021 64.4209H39.4189C38.8685 64.4196 38.3232 64.5251 37.8143 64.7313C37.3054 64.9374 36.8428 65.2402 36.4532 65.6223C36.0635 66.0044 35.7543 66.4583 35.5434 66.9579C35.3325 67.4576 35.2239 67.9933 35.2239 68.5343V71.5424H43.9562L40.035 67.6405Z" fill="#A3A3A3"/>
<path d="M44.3585 65.0568L43.2815 66.1187L44.3618 67.1771L45.4388 66.1153L44.3585 65.0568Z" fill="#A3A3A3"/>
</g>
<defs>
<clipPath id="clip0_1_117280">
<rect width="53" height="79" fill="white" transform="translate(0.5 0.5)"/>
</clipPath>
</defs>
</svg>
