<svg width="92" height="74" viewBox="0 0 92 74" fill="none" xmlns="http://www.w3.org/2000/svg">
<g clip-path="url(#clip0_64_107787)">
<path d="M48.9425 32.5791L54.3429 27.1998L46.7872 19.7024L41.3627 25.0817L40.9268 24.841C44.2035 26.7192 46.9582 29.3785 48.9425 32.5791Z" fill="#063B5B"/>
<path d="M35.8902 22.6989C35.5754 22.6026 35.2848 22.5063 34.97 22.4341V14.8164H24.2783V22.4341C23.9634 22.5063 23.6728 22.6026 23.3701 22.6868C25.4013 22.1056 27.5044 21.8099 29.6181 21.8083C31.7407 21.808 33.8526 22.1079 35.8902 22.6989Z" fill="#063B5B"/>
<path d="M24.2773 66.239V73.7003H34.9691V66.239C31.4605 67.1213 27.786 67.1213 24.2773 66.239Z" fill="#063B5B"/>
<path d="M10.2314 56.0098L4.8916 61.3169L12.4594 68.8383L17.775 63.5553C14.6893 61.6761 12.1024 59.0885 10.2314 56.0098Z" fill="#063B5B"/>
<path d="M18.3081 24.829L17.8722 25.0697L12.4477 19.7024L4.87988 27.2118L10.2924 32.5911C12.2687 29.3779 15.0248 26.709 18.3081 24.829Z" fill="#063B5B"/>
<path d="M7.60351 38.9573H-0.0126953V49.5836H7.60351C7.18947 47.8729 6.97815 46.1201 6.97387 44.3607C6.96667 42.5411 7.17805 40.7271 7.60351 38.9573Z" fill="#063B5B"/>
<path d="M51.6676 49.5715H59.2353V38.9573H51.6191C52.0712 40.7235 52.303 42.5382 52.3093 44.3607C52.306 46.1169 52.0906 47.8664 51.6676 49.5715Z" fill="#063B5B"/>
<path d="M41.5078 63.5553L46.8234 68.8383L54.3791 61.3169L49.0514 56.0098C47.177 59.0859 44.5908 61.6728 41.5078 63.5553Z" fill="#063B5B"/>
<path d="M52.3082 44.3486C52.2767 40.1952 51.1135 36.1279 48.9421 32.579C46.9593 29.3741 44.2045 26.7105 40.9263 24.8289C40.6599 24.6725 40.3935 24.5161 40.115 24.3717C39.8366 24.2272 39.3522 23.9986 38.9768 23.8301L38.3351 23.5292C37.7418 23.2886 37.1243 23.0719 36.5309 22.8794L35.8892 22.6989C33.8515 22.1079 31.7396 21.808 29.617 21.8083C27.5033 21.8099 25.4002 22.1056 23.3691 22.6868L22.7152 22.8794C22.0977 23.0719 21.5044 23.2886 20.911 23.5292L20.2572 23.8301C19.8778 23.9986 19.5024 24.1791 19.1311 24.3717L18.3077 24.8289C15.0303 26.7072 12.2786 29.3717 10.304 32.579C9.07482 34.5521 8.16375 36.7042 7.60385 38.9572C7.16208 40.7251 6.93444 42.5391 6.92578 44.3606C6.93367 48.2285 7.93967 52.0296 9.84762 55.4008C11.7556 58.7719 14.5017 61.6002 17.8234 63.6155C21.3897 65.7855 25.4899 66.9339 29.6715 66.9339C33.8531 66.9339 37.9533 65.7855 41.5196 63.6155C44.6026 61.733 47.1889 59.1461 49.0632 56.07C51.1919 52.5461 52.3293 48.5188 52.3567 44.4087L52.3082 44.3486Z" fill="#50048D"/>
<path d="M22.654 49.1022H26.2865V50.9916L28.127 55.6007L29.6405 50.089L31.1299 55.5044L33.0309 50.9916V49.054H36.6634C38.1596 49.0733 39.5925 49.6572 40.6717 50.6873C41.7509 51.7174 42.3957 53.1168 42.4755 54.6019C44.3953 52.1985 45.5944 49.3058 45.9351 46.2559C46.2758 43.2059 45.7443 40.1223 44.4016 37.3589C43.0589 34.5955 40.9595 32.2645 38.3442 30.6332C35.729 29.002 32.7039 28.1367 29.6163 28.1367C26.5287 28.1367 23.5037 29.002 20.8884 30.6332C18.2732 32.2645 16.1737 34.5955 14.831 37.3589C13.4883 40.1223 12.9568 43.2059 13.2975 46.2559C13.6382 49.3058 14.8373 52.1985 16.7572 54.6019C16.8526 53.1119 17.5154 51.7141 18.6107 50.6925C19.7061 49.6709 21.1518 49.1022 22.654 49.1022Z" fill="white"/>
<path d="M36.5914 49.1021H32.9589V50.9914L31.0941 55.5043L29.6048 50.0889L28.0913 55.6006L26.275 50.9914L23.5264 53.7232L30.5856 60.7392C32.891 60.6076 35.1423 59.9926 37.1916 58.9349C39.2408 57.8771 41.0418 56.4004 42.4761 54.6017C42.3836 53.1129 41.7234 51.7151 40.63 50.6932C39.5366 49.6713 38.0923 49.1023 36.5914 49.1021Z" fill="#063B5B"/>
<path d="M24.3262 49.1143L26.2635 51.0397V49.1143H24.3262Z" fill="#063B5B"/>
<path d="M29.617 60.8354C29.9439 60.8354 30.2587 60.8354 30.5857 60.8354L23.5264 53.8195L26.2751 51.0877L24.3256 49.1501H22.6546C21.1446 49.1509 19.6922 49.7262 18.5956 50.7579C17.499 51.7897 16.8414 53.1995 16.7578 54.698C18.2976 56.6177 20.2538 58.1668 22.4806 59.2296C24.7073 60.2923 27.1468 60.8413 29.617 60.8354Z" fill="#5D7999"/>
<path d="M32.2685 52.7604L29.6289 50.137L31.1061 55.5524L32.2685 52.7604Z" fill="white"/>
<path d="M26.9658 52.7845L28.1161 55.6487L29.6297 50.137L26.9658 52.7845Z" fill="#DEDEE0"/>
<path d="M28.1879 49.1021L26.3232 47.2488V49.1021C27.1652 49.683 28.147 50.0318 29.1687 50.1129L28.1879 49.1021Z" fill="#FFCAB3"/>
<path d="M26.2744 46.0333V47.2367L28.1391 49.09L29.1441 50.1009H29.6285H29.9433C31.0224 50.0442 32.0652 49.6946 32.9583 49.09V46.0212L26.2744 46.0333Z" fill="#F9B59D"/>
<path d="M32.7771 36.8391C31.3464 37.0308 30.0452 37.7636 29.1445 38.8849L29.6047 48.5725C33.0435 48.5725 35.8526 44.3365 36.2643 40.7864C36.2643 40.4975 36.2643 40.2207 36.2643 39.944V38.4878C35.9737 37.5612 33.7579 36.8391 32.7771 36.8391Z" fill="#F9B59D"/>
<path d="M34.9326 33.5176C31.7903 35.6865 28.0545 36.8457 24.2287 36.8391C23.7686 36.8391 23.3085 36.839 22.8605 36.7789C22.8421 37.0513 22.8421 37.3247 22.8605 37.5972V39.9439C22.8428 40.2244 22.8428 40.5058 22.8605 40.7863C23.2601 44.3966 26.1177 48.5725 29.5686 48.5725H29.6291V44.1679C29.8272 44.1555 30.0126 44.0669 30.146 43.9208C30.2793 43.7748 30.3502 43.5828 30.3435 43.3857V39.0413L30.5978 38.7525C31.2362 37.9892 32.139 37.4912 33.1285 37.3565C33.7125 37.3194 34.298 37.4005 34.8496 37.5949C35.4012 37.7894 35.9072 38.0931 36.3372 38.4877V37.5972C36.3357 36.1204 35.8417 34.6857 34.9326 33.5176Z" fill="#FFCAB3"/>
<path d="M36.8943 31.9652C35.8413 30.4609 34.3419 29.321 32.6054 28.7046C30.869 28.0883 28.9822 28.0263 27.2086 28.5273C25.435 29.0283 23.8631 30.0672 22.7124 31.4991C21.5617 32.931 20.8896 34.6843 20.79 36.5142C20.79 36.6707 20.79 36.8391 20.79 36.9956V38.7526C20.79 39.2899 21.004 39.8054 21.3851 40.1865C21.7663 40.5675 22.2836 40.7832 22.8243 40.7864C22.8065 40.5059 22.8065 40.2245 22.8243 39.944V37.5973C22.8058 37.3248 22.8058 37.0514 22.8243 36.779C23.2723 36.779 23.7324 36.8391 24.1925 36.8391C28.0204 36.8477 31.7579 35.6837 34.8964 33.5056C35.8055 34.6738 36.2994 36.1084 36.301 37.5853V39.9319C36.301 40.2087 36.301 40.4855 36.301 40.7743H36.4584C36.999 40.7712 37.5164 40.5555 37.8975 40.1744C38.2787 39.7934 38.4926 39.2779 38.4926 38.7406V36.9835C38.4861 35.1881 37.9285 33.4374 36.8943 31.9652Z" fill="#063B5B"/>
<path d="M26.2988 49.1021V50.9914L26.989 52.7364L29.6529 50.0889C28.4596 50.1085 27.289 49.7641 26.2988 49.1021Z" fill="#F8F8F9"/>
<path d="M33.032 50.9915V49.054C32.0542 49.7283 30.8923 50.0894 29.7021 50.0889L32.3418 52.7124L33.032 50.9915Z" fill="#DEDEE0"/>
<path d="M29.6326 50.1153L28.1182 51.6226L29.6347 53.1277L31.1491 51.6205L29.6326 50.1153Z" fill="#5D7999"/>
<path d="M85.34 12.193L88.8394 8.71508L83.9354 3.90137L80.4361 7.37928L80.1455 7.22284C82.265 8.42566 84.0501 10.1337 85.34 12.193Z" fill="#063B5B"/>
<path d="M76.8894 5.80272L76.2961 5.63424V0.700195H69.358V5.63424L68.7646 5.79069C70.0843 5.41858 71.4492 5.22827 72.821 5.22508C74.1978 5.22508 75.5677 5.41957 76.8894 5.80272Z" fill="#063B5B"/>
<path d="M69.3574 33.999V38.8127H76.2835V33.999C74.0114 34.5767 71.6295 34.5767 69.3574 33.999Z" fill="#063B5B"/>
<path d="M60.2755 27.3801L56.8125 30.8099L61.7164 35.6838L65.1552 32.254C63.1605 31.0398 61.4873 29.3686 60.2755 27.3801Z" fill="#063B5B"/>
<path d="M65.5064 7.17473L65.2158 7.33118L61.7164 3.85327L56.8125 8.66699L60.3118 12.1449C61.6017 10.0856 63.3869 8.37755 65.5064 7.17473Z" fill="#063B5B"/>
<path d="M58.5807 16.3208H53.6162V23.2044H58.4596C58.1924 22.0966 58.0543 20.962 58.0479 19.8228C58.0821 18.6383 58.261 17.4624 58.5807 16.3208Z" fill="#063B5B"/>
<path d="M87.1076 23.2044H92.0115V16.3208H87.0713C87.3684 17.4647 87.5189 18.6414 87.5193 19.8228C87.5129 20.962 87.3748 22.0966 87.1076 23.2044Z" fill="#063B5B"/>
<path d="M80.4961 32.254L83.9349 35.6838L88.8388 30.8099L85.3879 27.3801C84.1716 29.3691 82.4943 31.0402 80.4961 32.254Z" fill="#063B5B"/>
<path d="M87.5198 19.8227C87.5194 18.6413 87.3689 17.4646 87.0718 16.3207C86.6002 14.4097 85.7432 12.6138 84.5527 11.0416C83.3622 9.46951 81.8629 8.15395 80.1458 7.17465C79.9763 7.07837 79.8067 6.97008 79.6251 6.88584C79.4435 6.8016 79.1286 6.64515 78.8865 6.5248L78.4748 6.34428C78.0873 6.18783 77.6999 6.04342 77.264 5.91104L76.8523 5.80274C75.5344 5.42071 74.1687 5.22624 72.7959 5.2251C71.4242 5.22828 70.0593 5.4186 68.7396 5.79071L68.3158 5.91104C67.9203 6.04743 67.5167 6.19184 67.105 6.34428L66.6812 6.53683C66.4333 6.64099 66.1908 6.75747 65.9547 6.88584C65.773 6.97008 65.5914 7.07837 65.4219 7.17465C63.1924 8.46368 61.3396 10.3082 60.0464 12.5263C58.7533 14.7444 58.0644 17.2592 58.0479 19.8227C58.0542 20.9619 58.1924 22.0965 58.4595 23.2043C59.3708 26.9719 61.7484 30.2264 65.0708 32.2541C66.3718 33.0572 67.7946 33.6464 69.2845 33.9991C71.5566 34.5768 73.9384 34.5768 76.2105 33.9991C77.6958 33.644 79.1143 33.0549 80.4122 32.2541C82.062 31.2557 83.496 29.9416 84.6309 28.3881C85.7658 26.8346 86.579 25.0726 87.0234 23.2043C87.3191 22.0998 87.4857 20.9651 87.5198 19.8227Z" fill="#063B5B"/>
<path d="M68.3154 22.9035H70.6523V24.1069L71.8631 27.0914L72.8439 23.4811L73.8126 26.9831L75.0234 24.0708V22.8674H77.3725C78.3513 22.8694 79.2918 23.2452 79.9995 23.9173C80.7072 24.5893 81.1279 25.506 81.1745 26.4777C82.4181 24.9216 83.1951 23.0486 83.4161 21.0736C83.6371 19.0986 83.2932 17.1016 82.4239 15.3121C81.5547 13.5225 80.1953 12.0129 78.5018 10.9564C76.8083 9.89999 74.8494 9.3396 72.85 9.3396C70.8505 9.3396 68.8916 9.89999 67.1981 10.9564C65.5047 12.0129 64.1453 13.5225 63.276 15.3121C62.4068 17.1016 62.0629 19.0986 62.2839 21.0736C62.5049 23.0486 63.2818 24.9216 64.5254 26.4777C64.5809 25.5144 65.0038 24.6085 65.708 23.9444C66.4122 23.2803 67.3446 22.908 68.3154 22.9035Z" fill="white"/>
<path d="M77.3484 22.9036H74.9993V24.107L73.7885 27.0193L72.8198 23.5173L71.839 27.1276L70.6282 24.1431L68.8604 25.9121L73.4252 30.4611C74.9193 30.376 76.3782 29.977 77.7056 29.2904C79.0331 28.6037 80.1989 27.6451 81.1262 26.4778C81.0709 25.5166 80.6497 24.6123 79.9481 23.9486C79.2465 23.2848 78.317 22.9112 77.3484 22.9036Z" fill="#7A7A7A"/>
<path d="M69.3945 22.9036L70.6538 24.1551V22.9036H69.3945Z" fill="#7A7A7A"/>
<path d="M72.832 30.5332H73.4495L68.8846 25.9842L70.6525 24.2152L69.4416 23.0117H68.364C67.3831 23.0106 66.4395 23.3851 65.7292 24.0574C65.0189 24.7298 64.5965 25.6482 64.5498 26.622C65.5474 27.8488 66.8096 28.8373 68.2431 29.5142C69.6767 30.1912 71.2449 30.5394 72.832 30.5332Z" fill="#A3A3A3"/>
<path d="M74.5403 25.2623L72.833 23.5654L73.7896 27.0674L74.5403 25.2623Z" fill="white"/>
<path d="M71.1006 25.2863L71.8513 27.1396L72.8321 23.5654L71.1006 25.2863Z" fill="#DEDEE0"/>
<path d="M71.8632 22.9034L70.6523 21.7V22.9034C71.1999 23.2726 71.8335 23.4964 72.4928 23.5532L71.8632 22.9034Z" fill="#FFCAB3"/>
<path d="M70.6523 20.9058V21.7L71.8632 22.9035L72.517 23.5533H72.9893C73.6876 23.5232 74.3633 23.2979 74.9387 22.9035V20.9058H70.6523Z" fill="#F9B59D"/>
<path d="M74.8662 14.9609C73.9455 15.0887 73.1091 15.5625 72.5293 16.2847L72.832 22.5546C75.06 22.5546 76.8883 19.8108 77.1426 17.5122C77.1546 17.3319 77.1546 17.151 77.1426 16.9707V16.02C76.9489 15.4303 75.508 14.9609 74.8662 14.9609Z" fill="#F9B59D"/>
<path d="M76.2715 12.8066C74.2323 14.2077 71.8124 14.959 69.3334 14.9608H68.4495C68.4374 15.1331 68.4374 15.306 68.4495 15.4783V17.0066C68.4374 17.1869 68.4374 17.3678 68.4495 17.5482C68.7158 19.8587 70.5563 22.5905 72.7964 22.5905V19.7023C72.9238 19.693 73.0427 19.6354 73.1284 19.5412C73.2141 19.4471 73.26 19.3237 73.2565 19.1968V16.3808L73.426 16.2003C73.8366 15.705 74.4206 15.3825 75.0607 15.2977C75.4388 15.2729 75.8181 15.324 76.1759 15.4481C76.5338 15.5722 76.8628 15.7666 77.1433 16.0198V15.4422C77.153 14.4921 76.8466 13.5656 76.2715 12.8066Z" fill="#FFCAB3"/>
<path d="M77.5301 11.7959C76.8475 10.8251 75.8773 10.0901 74.7545 9.69328C73.6317 9.29646 72.4124 9.25758 71.2663 9.58207C70.1203 9.90656 69.1046 10.5783 68.3608 11.5036C67.6171 12.4289 67.1822 13.5618 67.1168 14.7443C67.1108 14.8485 67.1108 14.953 67.1168 15.0572V16.2606C67.1168 16.6085 67.2559 16.9422 67.5034 17.1882C67.7509 17.4342 68.0866 17.5724 68.4367 17.5724C68.4246 17.392 68.4246 17.2111 68.4367 17.0308V15.5025C68.4247 15.3302 68.4247 15.1573 68.4367 14.985H69.3206C71.8 14.9855 74.2205 14.234 76.2587 12.8309C76.8467 13.5852 77.1662 14.5121 77.1669 15.4664V16.9947C77.1789 17.175 77.1789 17.3559 77.1669 17.5363H77.2758C77.6259 17.5363 77.9616 17.3981 78.2091 17.1521C78.4566 16.9061 78.5957 16.5724 78.5957 16.2245V15.0211C78.5811 13.863 78.2092 12.7372 77.5301 11.7959Z" fill="#063B5B"/>
<path d="M70.6768 22.9036V24.107L71.1369 25.2382L72.8563 23.5173C72.0838 23.5383 71.3233 23.3242 70.6768 22.9036Z" fill="#F8F8F9"/>
<path d="M75 24.1551V22.9517C74.3669 23.3867 73.6145 23.6178 72.8447 23.6135L74.552 25.3104L75 24.1551Z" fill="#DEDEE0"/>
<path d="M72.8354 23.5836L71.8506 24.562L72.835 25.5408L73.8198 24.5624L72.8354 23.5836Z" fill="#A3A3A3"/>
<path d="M74.6242 60.9558V57.5862H72.2025C72.0351 56.8721 71.753 56.1894 71.367 55.5645L73.0864 53.8556L70.6647 51.4488L68.9453 53.1576C68.3165 52.774 67.6296 52.4936 66.9111 52.3273V49.9204H63.5207V52.3273C62.8028 52.4958 62.1163 52.776 61.4865 53.1576L59.7671 51.4488L57.3454 53.8556L59.0648 55.5645C58.6788 56.1894 58.3967 56.8721 58.2293 57.5862H55.8076V60.9558H58.2293C58.3989 61.6693 58.6808 62.3517 59.0648 62.9776L57.3454 64.6865L59.7671 67.0933L61.4865 65.4326C62.1188 65.8092 62.8046 66.0891 63.5207 66.263V68.6698H66.9353V66.263C67.6518 66.0904 68.3377 65.8104 68.9695 65.4326L70.6889 67.1415L73.1106 64.7346L71.3549 63.0257C71.7388 62.3998 72.0208 61.7175 72.1903 61.004L74.6242 60.9558ZM65.2159 62.5564C64.5621 62.5564 63.923 62.3637 63.3794 62.0027C62.8358 61.6417 62.4121 61.1286 62.1619 60.5283C61.9117 59.928 61.8462 59.2674 61.9738 58.6301C62.1013 57.9928 62.4162 57.4074 62.8785 56.948C63.3408 56.4885 63.9298 56.1756 64.571 56.0488C65.2122 55.922 65.8769 55.9871 66.4809 56.2358C67.0849 56.4844 67.6012 56.9055 67.9644 57.4458C68.3276 57.9861 68.5215 58.6213 68.5215 59.2711C68.5215 60.1424 68.1732 60.978 67.5533 61.5941C66.9334 62.2103 66.0926 62.5564 65.2159 62.5564Z" fill="#063B5B"/>
</g>
<defs>
<clipPath id="clip0_64_107787">
<rect width="92" height="73" fill="white" transform="translate(0 0.700195)"/>
</clipPath>
</defs>
</svg>
