<svg width="84" height="78" viewBox="0 0 84 78" fill="none" xmlns="http://www.w3.org/2000/svg">
<g clip-path="url(#clip0_1_117292)">
<path d="M76.5729 34.2165C76.5752 40.8879 74.6106 47.4101 70.9276 52.9583C67.2446 58.5065 62.0085 62.8314 55.8817 65.3861C49.7548 67.9407 43.0124 68.6104 36.5072 67.3103C30.002 66.0102 24.0262 62.7988 19.3355 58.0823C14.6449 53.3658 11.4502 47.3559 10.1554 40.8129C8.86066 34.2699 9.524 27.4877 12.0616 21.3239C14.5991 15.1601 18.8969 9.89176 24.4114 6.1851C29.9258 2.47844 36.4092 0.5 43.0416 0.5C51.9316 0.503155 60.4568 4.05606 66.7441 10.3781C73.0315 16.7002 76.5666 25.2742 76.5729 34.2165Z" fill="#50048D"/>
<path d="M25.2766 33.5375C25.2766 37.072 26.3186 40.5272 28.2708 43.466C30.223 46.4049 32.9977 48.6955 36.2441 50.0481C39.4906 51.4007 43.0628 51.7546 46.5092 51.065C49.9555 50.3755 53.1212 48.6734 55.6059 46.1741C58.0906 43.6748 59.7827 40.4905 60.4682 37.0239C61.1537 33.5573 60.8019 29.964 59.4572 26.6985C58.1125 23.433 55.8353 20.642 52.9136 18.6783C49.9919 16.7146 46.557 15.6665 43.0431 15.6665C38.3311 15.6665 33.8121 17.5493 30.4803 20.9008C27.1484 24.2522 25.2766 28.7978 25.2766 33.5375Z" fill="#012428"/>
<path d="M35.1899 41.3054H41.8346V34.6455H33.9937C34.094 36.9094 34.4964 39.1494 35.1899 41.3054Z" fill="white"/>
<path d="M33.9937 32.4296H41.8346V25.5791H35.2491C34.518 27.7933 34.0954 30.0987 33.9937 32.4296Z" fill="white"/>
<path d="M36.1138 23.351H41.8346V15.6665C39.4736 17.8519 37.5341 20.4571 36.1138 23.351Z" fill="white"/>
<path d="M51.9841 41.3054H59.0907C60.0865 39.2176 60.6736 36.9565 60.82 34.6455H53.287C53.1316 36.9116 52.6939 39.1491 51.9841 41.3054Z" fill="#A3A3A3"/>
<path d="M41.8346 51.4083V43.5332H36.0427C37.4573 46.5052 39.4231 49.1782 41.8346 51.4083Z" fill="white"/>
<path d="M32.9272 25.5791H27.1116C26.0548 27.7171 25.4345 30.0465 25.2876 32.4296H31.7664C31.8558 30.1051 32.246 27.8022 32.9272 25.5791Z" fill="white"/>
<path d="M28.2954 43.5332C30.7141 47.1293 34.3449 49.7234 38.5171 50.8365C36.6194 48.6436 35.0512 46.1831 33.8623 43.5332H28.2954Z" fill="white"/>
<path d="M37.83 16.4409C34.0044 17.5935 30.6885 20.033 28.4375 23.351H33.7082C34.7249 20.8502 36.1148 18.5201 37.83 16.4409Z" fill="white"/>
<path d="M31.7791 34.6455H25.3003C25.4422 36.9572 26.0295 39.2191 27.0296 41.3054H32.9517C32.2931 39.1417 31.8994 36.9052 31.7791 34.6455Z" fill="white"/>
<path d="M53.2998 32.4294H60.7854C60.637 30.0503 60.0168 27.7252 58.9614 25.5908H52.3286C52.9386 27.8199 53.2649 30.1178 53.2998 32.4294Z" fill="#A3A3A3"/>
<path d="M51.0262 34.6455H44.0381V41.3054H49.6168C50.3915 39.162 50.8659 36.9205 51.0262 34.6455Z" fill="#A3A3A3"/>
<path d="M44.0381 43.5332V51.313C46.2605 49.1343 47.958 46.4732 49.0009 43.5332H44.0381Z" fill="#A3A3A3"/>
<path d="M51.1319 43.5332C49.9464 46.3246 48.3006 48.8945 46.2639 51.1343C50.9536 50.2334 55.0975 47.5003 57.7884 43.5332H51.1319Z" fill="#A3A3A3"/>
<path d="M57.6466 23.3508C55.2428 19.8907 51.71 17.3868 47.6619 16.2739C49.3223 18.4204 50.6519 20.8061 51.606 23.3508H57.6466Z" fill="#A3A3A3"/>
<path d="M50.0186 25.5791H44.0964V32.4296H51.1438C51.0901 30.1043 50.7113 27.7982 50.0186 25.5791Z" fill="#A3A3A3"/>
<path d="M44.0381 15.6665V23.351H49.2259C47.984 20.4888 46.225 17.8832 44.0381 15.6665Z" fill="#A3A3A3"/>
<path d="M18.8202 33.9904C19.259 33.9789 19.6817 33.8217 20.0224 33.5434C20.3632 33.2651 20.6029 32.8813 20.7043 32.4518C20.8056 32.0222 20.7629 31.5709 20.5828 31.1683C20.4028 30.7657 20.0954 30.4342 19.7085 30.2256L17.8372 33.7998C18.145 33.9414 18.4821 34.0067 18.8202 33.9904Z" fill="#FFCAA6"/>
<path d="M29.6585 15.0114C30.0963 14.9974 30.5173 14.8385 30.8562 14.5593C31.195 14.2801 31.4328 13.8962 31.5327 13.4672C31.6325 13.0382 31.5889 12.5881 31.4085 12.1866C31.2281 11.7851 30.9211 11.4547 30.535 11.2466L28.6636 14.8208C28.9752 14.9638 29.3164 15.0292 29.6585 15.0114Z" fill="#FFCAA6"/>
<path d="M8.16756 1.64986L-0.153076 16.2129L10.9243 22.6166L19.245 8.05362L8.16756 1.64986Z" fill="#181C21"/>
<path d="M3.88563 26.9969L1.80103 19.1575L2.10898 18.6214L9.81964 5.20623L10.1394 4.6701L17.933 2.57324L20.4203 4.02675L17.2579 9.531L9.53537 22.9461L6.37294 28.4504L3.88563 26.9969Z" fill="#063B5B"/>
<path d="M18.8654 6.70696L17.2412 9.5332L27.1572 15.2988L28.7814 12.4726L18.8654 6.70696Z" fill="#063B5B"/>
<path d="M20.1482 1.96521L18.6084 4.66016L28.5729 10.4206L30.1127 7.72562L20.1482 1.96521Z" fill="#5D7999"/>
<path d="M9.54158 22.9386L7.99902 25.6196L17.912 31.3905L19.4546 28.7095L9.54158 22.9386Z" fill="#5D7999"/>
<path d="M7.96938 25.6028L6.34375 28.4282L16.2567 34.1991L17.8824 31.3737L7.96938 25.6028Z" fill="#063B5B"/>
<path d="M30.0115 10.3621L28.7913 12.4736L29.7436 13.0305L30.9638 10.919L30.0115 10.3621Z" fill="white"/>
<path d="M28.7667 12.4451L27.5515 14.5596L28.5052 15.1141L29.7203 12.9996L28.7667 12.4451Z" fill="#D5D8D8"/>
<path d="M18.745 27.0304L17.531 29.1553L18.4893 29.7093L19.7034 27.5844L18.745 27.0304Z" fill="white"/>
<path d="M17.9251 31.4095L16.7107 33.5244L17.6645 34.0786L18.8789 31.9637L17.9251 31.4095Z" fill="#D5D8D8"/>
<path d="M16.771 13.8077C16.7396 12.2457 16.2004 10.7371 15.2358 9.51265C14.2713 8.28817 12.9345 7.41525 11.4299 7.02745C9.92538 6.63964 8.33597 6.75831 6.90483 7.36527C5.4737 7.97224 4.27967 9.0341 3.50537 10.3884L15.8116 17.3104C16.4316 16.2478 16.7624 15.0397 16.771 13.8077Z" fill="#012428"/>
<path d="M3.50516 10.3887C2.92026 11.4326 2.61038 12.6097 2.60498 13.808C2.63992 15.3583 3.17513 16.8552 4.12987 18.0728C5.08461 19.2904 6.4071 20.1627 7.89784 20.5581C9.38859 20.9535 10.9667 20.8505 12.3942 20.2648C13.8217 19.679 15.021 18.6422 15.8114 17.3107L3.50516 10.3887Z" fill="#232A32"/>
<path d="M65.2024 33.9904C64.9411 33.9857 64.6832 33.9294 64.4436 33.8245C64.2039 33.7195 63.9872 33.5682 63.8057 33.379C63.6242 33.1898 63.4816 32.9665 63.3859 32.7218C63.2902 32.4772 63.2434 32.216 63.2481 31.9531C63.2535 31.5935 63.3568 31.2423 63.5469 30.9377C63.7369 30.6332 64.0064 30.3868 64.326 30.2256L66.1973 33.7879C65.8874 33.9368 65.5456 34.0064 65.2024 33.9904Z" fill="#FFCAA6"/>
<path d="M54.3541 15.0114C53.9153 14.9999 53.4926 14.8427 53.1519 14.5644C52.8111 14.2861 52.5714 13.9023 52.47 13.4727C52.3687 13.0432 52.4114 12.5919 52.5915 12.1893C52.7716 11.7867 53.0789 11.4552 53.4658 11.2466L55.3372 14.8208C55.0293 14.9623 54.6922 15.0277 54.3541 15.0114Z" fill="#FFCAA6"/>
<path d="M75.6655 3.60414L64.6443 10.0176L72.9775 24.5068L83.9988 18.0933L75.6655 3.60414Z" fill="#181C21"/>
<path d="M80.1261 26.9969L82.2107 19.1575L81.8909 18.6214L74.1803 5.20623L73.8723 4.6701L66.0669 2.57324L63.5796 4.02675L66.7539 9.531L74.4645 22.9461L77.6388 28.4504L80.1261 26.9969Z" fill="#063B5B"/>
<path d="M67.0802 6.9691L57.1157 12.7295L58.7384 15.5695L68.7029 9.80915L67.0802 6.9691Z" fill="#063B5B"/>
<path d="M63.6051 4.0602L53.6921 9.83105L55.2347 12.5121L65.1477 6.7412L63.6051 4.0602Z" fill="#5D7999"/>
<path d="M76.6249 23.6629L66.6604 29.4233L68.2002 32.1183L78.1647 26.3579L76.6249 23.6629Z" fill="#5D7999"/>
<path d="M75.9805 25.5757L66.0735 31.3569L67.702 34.1806L77.609 28.3993L75.9805 25.5757Z" fill="#063B5B"/>
<path d="M53.9995 10.3465L53.0469 10.9028L54.2661 13.015L55.2186 12.4587L53.9995 10.3465Z" fill="white"/>
<path d="M55.22 12.5109L54.2664 13.0654L55.4815 15.1799L56.4352 14.6254L55.22 12.5109Z" fill="#D5D8D8"/>
<path d="M64.8682 29.2469L63.915 29.8022L65.132 31.9157L66.0852 31.3604L64.8682 29.2469Z" fill="white"/>
<path d="M66.1053 31.4195L65.1511 31.9731L66.3644 34.0887L67.3186 33.5351L66.1053 31.4195Z" fill="#D5D8D8"/>
<path d="M67.24 13.8077C67.2714 12.2457 67.8106 10.7371 68.7751 9.51265C69.7397 8.28817 71.0765 7.41525 72.5811 7.02745C74.0856 6.63964 75.675 6.75831 77.1062 7.36527C78.5373 7.97224 79.7313 9.0341 80.5056 10.3884L68.1994 17.3104C67.5794 16.2478 67.2485 15.0397 67.24 13.8077Z" fill="#012428"/>
<path d="M80.5052 10.3887C81.0987 11.4297 81.413 12.608 81.4173 13.808C81.3864 15.362 80.8529 16.8636 79.8974 18.0852C78.942 19.3068 77.6167 20.1819 76.1225 20.5778C74.6282 20.9738 73.0463 20.8691 71.6165 20.2795C70.1868 19.69 68.987 18.6477 68.199 17.3107L80.5052 10.3887Z" fill="#232A32"/>
<path d="M30.4526 52.3853C30.6797 52.0038 31.0267 51.7093 31.4388 51.5481C31.8508 51.387 32.3045 51.3685 32.7282 51.4955C33.1519 51.6225 33.5214 51.8879 33.7785 52.2496C34.0356 52.6114 34.1656 53.049 34.148 53.4933L30.1802 53.3742C30.1823 53.0261 30.2764 52.6849 30.4526 52.3853Z" fill="#FFCAA6"/>
<path d="M52.2092 52.3971C52.4363 52.0155 52.7833 51.721 53.1954 51.5598C53.6074 51.3987 54.0611 51.3802 54.4848 51.5072C54.9085 51.6343 55.278 51.8996 55.5351 52.2614C55.7922 52.6231 55.9222 53.0607 55.9046 53.5051L51.9368 53.3859C51.9462 53.0389 52.0397 52.6995 52.2092 52.3971Z" fill="#FFCAA6"/>
<path d="M51.3768 63.818L34.7356 63.8589L34.7667 76.6664L51.4079 76.6255L51.3768 63.818Z" fill="#181C21"/>
<path d="M29.0309 68.886L34.7517 74.6166L35.3676 74.6047L50.7771 74.569H51.393L57.0901 68.8145L57.0783 65.9194L50.7534 65.9433L35.3439 65.979L29.019 65.9909L29.0309 68.886Z" fill="#063B5B"/>
<path d="M53.9753 54.3848L50.73 54.3911L50.752 65.9119L53.9973 65.9056L53.9753 54.3848Z" fill="#063B5B"/>
<path d="M57.0397 54.4275L53.9602 54.4351L53.9882 65.9558L57.0677 65.9483L57.0397 54.4275Z" fill="#012428"/>
<path d="M35.3268 54.422L32.2473 54.4312L32.2813 65.9519L35.3608 65.9427L35.3268 54.422Z" fill="#012428"/>
<path d="M32.2534 54.4456L29.0081 54.4541L29.038 65.9749L32.2834 65.9663L32.2534 54.4456Z" fill="#063B5B"/>
<path d="M56.4029 54.399V53.291L53.9749 53.3029V54.4109L56.4029 54.399Z" fill="white"/>
<path d="M53.9747 53.2898L51.5466 53.2949L51.5489 54.4029L53.977 54.3978L53.9747 53.2898Z" fill="#D5D8D8"/>
<path d="M34.6681 54.4586V53.3506H32.24V54.4586H34.6681Z" fill="white"/>
<path d="M32.2327 53.359L29.8047 53.3662L29.808 54.4742L32.236 54.467L32.2327 53.359Z" fill="#D5D8D8"/>
<path d="M46.8329 64.2279C48.1639 65.0341 49.1955 66.2569 49.7699 67.709C50.3443 69.1611 50.4298 70.7625 50.0133 72.2681C49.5967 73.7737 48.7012 75.1006 47.4636 76.0455C46.2261 76.9904 44.7148 77.5013 43.1611 77.5001L43.327 63.3106C44.5544 63.3093 45.7616 63.6251 46.8329 64.2279Z" fill="#012428"/>
<path d="M43.1611 77.5001C41.9685 77.4932 40.7977 77.1772 39.7618 76.5827C38.4391 75.7819 37.4115 74.5697 36.8346 73.1293C36.2577 71.6889 36.1629 70.0987 36.5643 68.5992C36.9658 67.0997 37.8417 65.7725 39.0597 64.8184C40.2777 63.8642 41.7715 63.3349 43.3151 63.3105L43.1611 77.5001Z" fill="#232A32"/>
</g>
<defs>
<clipPath id="clip0_1_117292">
<rect width="84" height="77" fill="white" transform="translate(0 0.5)"/>
</clipPath>
</defs>
</svg>
