<svg width="524" height="583" viewBox="0 0 524 583" fill="none" xmlns="http://www.w3.org/2000/svg">
<g clip-path="url(#clip0_14_3980)">
<path d="M246.5 583C394.295 583 514.106 551.534 514.106 512.719C514.106 473.904 394.295 442.438 246.5 442.438C98.7054 442.438 -21.1058 473.904 -21.1058 512.719C-21.1058 551.534 98.7054 583 246.5 583Z" fill="#EBEBEB"/>
<path d="M-31 452.007L38.3682 451.68L107.75 451.558L246.5 451.326L385.25 451.558L454.632 451.68L524 452.007L454.632 452.333L385.25 452.456L246.5 452.687L107.75 452.456L38.3682 452.333L-31 452.007Z" fill="#263238"/>
<path d="M296.392 450.618C293.103 451.693 199.271 450.863 195.711 448.576C194.352 447.705 193.686 434.014 193.332 417.451C193.251 413.872 193.196 410.17 193.169 406.427L186.17 356.221L248.906 356.588L254.206 406.781L253.826 417.805C253.826 417.805 289.611 434.218 293.239 437.158C296.868 440.097 299.681 449.556 296.392 450.618Z" fill="#D3766A"/>
<path d="M296.392 450.618C293.103 451.694 199.271 450.863 195.711 448.577C194.066 447.515 193.414 427.523 193.169 406.387L254.206 406.741L253.826 417.764C253.826 417.764 289.611 434.178 293.239 437.117C296.868 440.057 299.681 449.557 296.392 450.618Z" fill="white"/>
<path d="M296.392 450.618C293.103 451.693 199.271 450.863 195.711 448.577C194.352 447.706 193.686 434.014 193.332 417.451L253.826 417.805C253.826 417.805 289.611 434.218 293.239 437.158C296.868 440.098 299.681 449.557 296.392 450.618Z" fill="#E1D172"/>
<path d="M295.074 446.848C279.349 446.331 215.88 445.691 200.291 446.371C200.168 446.371 200.168 446.467 200.291 446.467C215.866 447.338 279.349 447.447 295.074 447.106C295.427 447.106 295.427 446.861 295.074 446.848Z" fill="#263238"/>
<path d="M287.273 433.715C285.512 433.645 283.757 433.945 282.119 434.594C280.48 435.243 278.995 436.228 277.759 437.485C275.533 439.709 274.248 442.707 274.171 445.855C274.171 445.95 274.348 445.964 274.361 445.855C274.922 442.74 276.477 439.893 278.793 437.74C281.11 435.587 284.062 434.246 287.205 433.919C287.219 433.921 287.234 433.92 287.248 433.916C287.262 433.912 287.275 433.906 287.286 433.897C287.297 433.888 287.307 433.877 287.314 433.865C287.321 433.852 287.326 433.838 287.327 433.824C287.332 433.802 287.33 433.779 287.32 433.76C287.31 433.74 287.293 433.724 287.273 433.715Z" fill="#263238"/>
<path d="M259.914 419.424C253.622 419.288 246.323 421.438 242.355 426.569C242.192 426.76 242.477 426.977 242.667 426.882C248.222 424.041 254.063 421.801 260.091 420.2C260.194 420.176 260.283 420.113 260.339 420.024C260.395 419.934 260.413 419.826 260.39 419.723C260.367 419.621 260.303 419.531 260.214 419.475C260.125 419.419 260.017 419.401 259.914 419.424Z" fill="#263238"/>
<path d="M264.766 421.371C258.474 421.221 251.175 423.385 247.193 428.502C247.044 428.706 247.315 428.924 247.506 428.829C253.037 425.988 258.855 423.748 264.861 422.146C264.912 422.132 264.958 422.108 264.999 422.076C265.04 422.044 265.074 422.004 265.099 421.958C265.125 421.912 265.141 421.862 265.146 421.811C265.152 421.759 265.148 421.706 265.133 421.656C265.112 421.575 265.065 421.503 264.998 421.451C264.932 421.399 264.85 421.371 264.766 421.371Z" fill="#263238"/>
<path d="M269.605 423.303C263.312 423.167 256.014 425.331 252.032 430.448C251.882 430.639 252.167 430.856 252.358 430.761C257.889 427.921 263.707 425.681 269.713 424.079C269.763 424.065 269.81 424.041 269.851 424.008C269.892 423.976 269.926 423.936 269.951 423.89C269.977 423.845 269.993 423.795 269.998 423.743C270.004 423.691 270 423.639 269.985 423.589C269.962 423.506 269.912 423.433 269.843 423.382C269.774 423.33 269.691 423.303 269.605 423.303Z" fill="#263238"/>
<path d="M274.443 425.249C268.15 425.1 260.852 427.264 256.884 432.381C256.72 432.585 257.006 432.803 257.196 432.708C262.727 429.867 268.545 427.627 274.552 426.025C274.602 426.011 274.649 425.987 274.689 425.955C274.73 425.923 274.764 425.882 274.79 425.837C274.815 425.791 274.831 425.741 274.837 425.689C274.843 425.638 274.838 425.585 274.824 425.535C274.8 425.453 274.75 425.38 274.681 425.328C274.613 425.277 274.529 425.249 274.443 425.249Z" fill="#263238"/>
<path d="M204.436 431.441C197.369 431.441 197.287 442.397 204.368 442.438C211.449 442.479 211.503 431.496 204.436 431.441Z" fill="white"/>
<path d="M96.8501 123.427C96.8501 123.427 168.162 248.418 170.01 257.156C172.837 270.575 189.418 416.88 189.418 416.88L259.615 416.458C259.615 416.458 245.725 285.804 233.792 247.262C227.296 226.262 193.128 169.101 177.186 140.997C175.746 138.479 176.18 126.952 176.18 126.952L96.8501 123.427Z" fill="#37474F"/>
<path d="M252.806 404.726C241.933 404.522 208.975 403.61 194.474 404.726C194.449 404.738 194.429 404.758 194.416 404.782C194.404 404.807 194.4 404.835 194.406 404.862H194.474C199.448 405.652 241.92 405.121 252.806 404.862C252.819 404.878 252.835 404.892 252.853 404.901C252.872 404.911 252.892 404.917 252.912 404.918C252.933 404.92 252.954 404.917 252.973 404.91C252.992 404.903 253.01 404.892 253.025 404.878C253.04 404.864 253.052 404.847 253.06 404.828C253.069 404.809 253.073 404.788 253.073 404.768C253.072 404.747 253.068 404.727 253.06 404.708C253.051 404.689 253.039 404.672 253.024 404.658C252.996 404.632 252.96 404.618 252.922 404.618C252.884 404.618 252.847 404.632 252.82 404.658L252.806 404.726Z" fill="#263238"/>
<path d="M109.136 134.967C113.825 142.521 118.772 149.938 123.556 157.41C128.34 164.881 133.07 172.38 137.827 179.961C147.25 195.04 156.437 210.256 165.389 225.608C169.745 232.682 173.456 240.134 176.479 247.873C179.244 255.637 181.301 263.636 182.623 271.772C183.982 279.938 184.879 288.172 185.708 296.392C186.614 305.175 187.479 313.944 188.304 322.7C190.084 340.637 194.121 372.484 195.901 390.422C196.118 392.613 196.336 394.818 196.526 397.022C196.512 397.089 196.475 397.149 196.422 397.192C196.368 397.235 196.302 397.258 196.234 397.258C196.166 397.258 196.099 397.235 196.046 397.192C195.993 397.149 195.956 397.089 195.942 397.022C193.93 379.194 190.03 347.415 188.222 329.573L185.504 302.911C184.661 294.65 183.873 286.375 182.691 278.155C181.603 270.053 179.918 262.042 177.648 254.188C175.123 246.05 171.704 238.218 167.455 230.834C158.866 215.564 149.787 200.539 140.64 185.554C131.493 170.57 122.17 155.355 112.534 140.52C111.352 138.683 110.156 136.859 108.919 135.076C108.81 134.954 109.055 134.817 109.136 134.967Z" fill="#263238"/>
<path d="M128.422 452.006C124.97 451.747 36.1801 414.443 33.7473 410.986C33.6414 410.781 33.5943 410.55 33.6114 410.319C33.6114 407.243 39.972 396.573 45.3132 382.528C45.653 381.63 48.0314 377.465 51.266 371.858C60.2496 356.452 76.1239 330.076 76.1239 330.076L134.157 354.002L105.725 395.498L101.254 405.583C101.254 405.583 128.286 434.245 130.542 438.328C132.798 442.411 131.86 452.183 128.422 452.006Z" fill="#D3766A"/>
<path d="M128.422 452.006C124.97 451.747 36.1801 414.443 33.7473 410.986C33.6414 410.781 33.5943 410.55 33.6114 410.319C33.6114 407.244 39.972 396.574 45.3132 382.528C45.653 381.63 48.0314 377.466 51.266 371.858L105.725 395.498L101.254 405.583C101.254 405.583 128.286 434.245 130.542 438.328C132.798 442.411 131.86 452.183 128.422 452.006Z" fill="white"/>
<path d="M128.408 451.992C124.97 451.747 36.1801 414.443 33.7473 410.986C32.8095 409.625 36.9547 397.513 45.3132 382.528L101.254 405.583C101.254 405.583 128.286 434.232 130.542 438.328C132.798 442.425 131.86 452.183 128.408 451.992Z" fill="#E1D172"/>
<path d="M128.612 448.004C114.233 441.608 55.6287 417.178 40.9233 411.952C40.801 411.952 40.7738 411.952 40.9233 412.047C55.0443 418.689 113.839 442.656 128.558 448.249C128.816 448.358 128.911 448.1 128.612 448.004Z" fill="#263238"/>
<path d="M126.261 432.884C124.662 432.178 122.933 431.812 121.185 431.812C119.437 431.812 117.708 432.178 116.108 432.884C113.209 434.108 110.892 436.404 109.639 439.295C109.639 439.39 109.761 439.458 109.816 439.376C111.497 436.711 113.993 434.662 116.932 433.534C119.871 432.405 123.096 432.259 126.125 433.116C126.14 433.128 126.158 433.138 126.177 433.143C126.196 433.148 126.216 433.149 126.235 433.146C126.255 433.142 126.273 433.135 126.29 433.123C126.306 433.112 126.319 433.098 126.33 433.081C126.34 433.063 126.346 433.044 126.348 433.025C126.35 433.005 126.347 432.985 126.341 432.967C126.334 432.948 126.324 432.931 126.31 432.917C126.296 432.902 126.279 432.891 126.261 432.884Z" fill="#263238"/>
<path d="M106.296 409.367C100.506 406.876 92.9223 406.128 87.2685 409.367C87.0646 409.489 87.2685 409.802 87.4452 409.775C93.6364 409.217 99.8697 409.326 106.038 410.102C106.13 410.118 106.225 410.101 106.305 410.054C106.386 410.007 106.448 409.932 106.479 409.844C106.51 409.756 106.508 409.659 106.475 409.572C106.441 409.484 106.378 409.412 106.296 409.367Z" fill="#263238"/>
<path d="M110.06 412.987C104.271 410.496 96.6734 409.748 91.0331 412.987C90.8157 413.109 91.0332 413.409 91.2098 413.395C97.4011 412.837 103.634 412.946 109.802 413.722C109.894 413.738 109.989 413.721 110.07 413.674C110.151 413.627 110.212 413.553 110.243 413.464C110.274 413.376 110.273 413.279 110.24 413.192C110.206 413.104 110.143 413.032 110.06 412.987Z" fill="#263238"/>
<path d="M113.812 416.607C108.035 414.116 100.438 413.368 94.7842 416.607C94.5668 416.743 94.7842 417.042 94.9609 417.029C101.152 416.47 107.385 416.58 113.553 417.356C113.652 417.39 113.761 417.383 113.855 417.337C113.95 417.291 114.022 417.21 114.056 417.111C114.09 417.011 114.084 416.902 114.038 416.808C113.992 416.714 113.911 416.641 113.812 416.607Z" fill="#263238"/>
<path d="M117.576 420.227C111.8 417.723 104.203 416.988 98.6169 420.227C98.3994 420.349 98.6169 420.662 98.7936 420.649C104.985 420.09 111.218 420.2 117.386 420.975C117.476 420.979 117.565 420.952 117.638 420.898C117.71 420.844 117.762 420.766 117.784 420.678C117.807 420.591 117.798 420.498 117.76 420.416C117.722 420.334 117.657 420.267 117.576 420.227Z" fill="#263238"/>
<path d="M50.3554 399.677C43.8182 396.955 39.6322 407.135 46.1694 409.843C52.7067 412.552 56.8927 402.372 50.3554 399.677Z" fill="white"/>
<path d="M106.513 406.876L41.5621 379.656C41.5621 379.656 124.385 251.548 125.092 242.688C125.717 234.835 91.006 166.025 89.8507 146.059C88.6004 124.528 99.1469 108.02 110.645 97.8262L176.085 126.91C176.085 126.91 170.363 138.615 159.083 144.821C159.083 144.821 192.653 224.274 190.342 248.554C188.032 272.834 106.513 406.876 106.513 406.876Z" fill="#37474F"/>
<path d="M109.544 394.478C100.153 390.3 102.912 391.361 93.4659 387.292C88.8586 385.291 58.4964 372.212 53.8619 371.11C53.8417 371.091 53.8149 371.08 53.7871 371.08C53.7593 371.08 53.7326 371.091 53.7124 371.11C53.6959 371.131 53.6869 371.158 53.6869 371.185C53.6869 371.212 53.6959 371.238 53.7124 371.26C57.7897 373.791 88.3285 386.339 92.9766 388.245C102.49 392.137 99.7721 390.966 109.286 394.709C109.323 394.723 109.363 394.723 109.401 394.711C109.438 394.698 109.471 394.674 109.493 394.641C109.515 394.608 109.525 394.569 109.522 394.529C109.519 394.49 109.503 394.453 109.476 394.423L109.544 394.478Z" fill="#263238"/>
<path d="M170.187 143.555C163.153 145.094 156.264 147.234 149.597 149.952C149.569 149.96 149.543 149.973 149.521 149.991C149.499 150.009 149.481 150.032 149.468 150.058C149.455 150.083 149.448 150.111 149.446 150.14C149.445 150.169 149.45 150.197 149.461 150.224C149.467 150.253 149.479 150.28 149.496 150.304C149.514 150.328 149.536 150.348 149.562 150.362C149.588 150.376 149.617 150.385 149.646 150.387C149.675 150.389 149.705 150.384 149.732 150.374C156.637 148.441 163.663 146.645 170.459 144.358C170.564 144.318 170.65 144.24 170.701 144.139C170.751 144.038 170.762 143.922 170.73 143.814C170.691 143.709 170.612 143.624 170.511 143.575C170.409 143.527 170.293 143.52 170.187 143.555Z" fill="#263238"/>
<path d="M162.236 140.683C161.562 141.834 160.967 143.03 160.456 144.263C159.949 145.213 159.63 146.253 159.518 147.325C159.518 147.529 159.776 147.584 159.912 147.461C160.632 146.614 161.214 145.659 161.638 144.63C162.223 143.514 162.834 142.426 163.391 141.31C163.448 141.143 163.437 140.962 163.361 140.804C163.284 140.646 163.149 140.524 162.984 140.466C162.852 140.421 162.709 140.418 162.576 140.457C162.442 140.496 162.323 140.575 162.236 140.683Z" fill="#263238"/>
<path d="M163.133 134.341C163.554 133.32 163.989 132.286 164.492 131.265C165.015 130.23 165.469 129.162 165.851 128.067C165.919 127.89 166.191 128.067 166.11 128.189C165.688 129.224 165.403 130.326 165.063 131.388C164.723 132.449 164.356 133.524 163.989 134.586C163.294 136.573 162.496 138.521 161.597 140.425C162.705 140.492 163.814 140.315 164.846 139.907C165.88 139.263 166.687 138.311 167.156 137.185C167.768 136.029 168.325 134.858 168.95 133.715C169.702 132.477 170.343 131.174 170.866 129.823C170.866 129.646 171.193 129.823 171.125 129.945C170.172 132.814 168.938 135.581 167.441 138.206C166.803 139.227 166.286 140.302 165.145 140.683C163.891 141.02 162.582 141.094 161.298 140.901C161.135 140.901 160.931 140.833 160.986 140.642C161.565 138.498 162.282 136.393 163.133 134.341Z" fill="#263238"/>
<path d="M160.102 147.447C162.44 152.551 164.479 157.641 166.653 162.731C168.828 167.821 170.731 172.734 172.688 177.797C176.575 188.004 180.054 198.402 183.085 208.895C184.58 214.094 185.939 219.329 187.162 224.601C188.515 229.864 189.491 235.217 190.084 240.619C190.592 246.009 190.066 251.446 188.535 256.638C186.931 261.932 178.301 279.911 175.841 284.865C174.332 287.886 173.843 287.464 174.563 285.94C176.629 281.612 188.535 256.638 189.146 246.295C189.472 240.946 187.23 233.365 186.075 228.153C184.919 222.94 183.588 217.524 182.133 212.27C179.266 201.913 175.841 191.76 172.307 181.621C170.323 175.932 168.23 170.311 166.191 164.636C164.152 158.961 162.114 153.748 159.831 147.542C159.822 147.525 159.817 147.505 159.817 147.486C159.818 147.466 159.823 147.446 159.832 147.429C159.841 147.412 159.855 147.397 159.871 147.386C159.887 147.375 159.906 147.368 159.926 147.365C159.943 147.359 159.961 147.356 159.979 147.357C159.997 147.357 160.015 147.361 160.031 147.369C160.048 147.377 160.062 147.387 160.075 147.401C160.087 147.414 160.096 147.43 160.102 147.447Z" fill="#263238"/>
<path d="M110.74 130.055C111.922 129.633 113.458 130.368 114.722 130.585C116.25 130.858 117.793 131.035 119.343 131.116C120.875 131.182 122.41 131.146 123.937 131.007C125.471 130.992 126.98 130.615 128.34 129.905C130.584 128.312 132.511 126.313 134.021 124.012C135.827 121.673 137.325 119.111 138.479 116.39C138.479 116.227 138.778 116.39 138.724 116.499C138.207 118.064 137.827 119.643 137.188 121.167C136.557 122.584 135.817 123.95 134.973 125.25C133.437 127.714 131.684 130.34 129.088 131.783C126.492 133.226 122.863 133.144 119.846 132.953C118.098 132.836 116.362 132.581 114.654 132.191C113.417 131.919 111.352 131.701 110.577 130.599C110.525 130.512 110.509 130.408 110.532 130.309C110.555 130.21 110.615 130.124 110.699 130.068L110.74 130.055Z" fill="#263238"/>
<path d="M60.304 367.449C71.1768 351.321 113.893 275.76 124.181 259.115C126.628 255.141 129.455 251.167 131.059 246.744C132.798 241.94 131.901 237.217 130.433 232.508C127.684 223.834 124.444 215.323 120.729 207.017C117.06 198.661 113.105 190.441 109.218 182.193C105.331 173.946 101.254 165.793 98.3451 157.206C95.6269 149.04 94.594 140.52 96.9044 132.082C99.2149 123.644 103.999 116.213 109.014 109.231C110.373 107.394 111.732 105.57 113.01 103.719C113.118 103.583 113.322 103.719 113.227 103.896C107.696 111.178 102.354 118.867 99.011 127.455C97.339 131.691 96.3748 136.174 96.157 140.724C96.0774 145.337 96.7382 149.932 98.1141 154.334C100.656 162.908 104.719 171.06 108.511 179.145C112.303 187.229 116.353 195.612 120.077 203.942C123.894 212.296 127.269 220.846 130.189 229.555C131.466 233.434 132.907 237.503 132.744 241.654C132.594 246.186 130.379 250.255 128.082 254.053C118.12 270.602 75.7026 345.605 64.8298 361.665L60.7525 367.735C60.7089 367.779 60.6514 367.807 60.5895 367.814C60.5277 367.821 60.4654 367.807 60.4129 367.773C60.3604 367.74 60.3209 367.689 60.3011 367.63C60.2813 367.571 60.2823 367.507 60.304 367.449Z" fill="#263238"/>
<path d="M221.003 61.5835C233.059 99.8404 247.547 160.404 253.241 170.72C257.101 177.715 218.204 190.413 216.301 185.269C213.882 178.627 202.819 109.218 204.993 65.925C205.89 48.0826 217.388 50.2194 221.003 61.5835Z" fill="#D3766A"/>
<path d="M215.241 181.35C216.124 185.786 220.365 201.247 223.463 203.125C226.562 205.003 242.898 204.609 251.121 204.609C259.343 204.609 260.961 202.309 260.825 199.478C260.689 196.647 243.428 196.103 243.428 196.103C243.428 196.103 266.533 202.717 272.282 203.792C278.031 204.867 291.432 208.256 293.362 203.438C294.231 201.261 290.575 199.07 290.575 199.07C290.575 199.07 296.175 200.716 297.072 197.926C298.091 194.742 293.633 193 293.633 193C293.633 193 297.126 193.707 297.208 191.121C297.398 185.337 275.462 182.493 275.462 182.493C275.462 182.493 292.247 190.659 292.777 185.95C293.525 179.417 259.14 172.258 255.552 169.414C253.217 167.427 251.272 165.023 249.816 162.323L215.241 181.35Z" fill="#D3766A"/>
<path d="M260.743 200.92C260.799 200.516 260.756 200.105 260.619 199.721C260.482 199.337 260.254 198.992 259.955 198.715C259.377 198.144 258.7 197.682 257.957 197.354C256.435 196.7 254.856 196.185 253.241 195.816C250.006 195 246.677 194.455 243.374 193.557C246.793 193.501 250.205 193.885 253.527 194.7C255.222 195.094 256.855 195.721 258.378 196.565C259.168 196.996 259.859 197.59 260.404 198.307C260.676 198.678 260.851 199.113 260.91 199.57C260.97 200.027 260.912 200.491 260.743 200.92Z" fill="#263238"/>
<path d="M290.616 199.042C288.238 198.47 285.914 197.79 283.576 197.123C281.238 196.456 278.928 195.762 276.604 195.027L269.659 192.85C267.349 192.115 265.025 191.407 262.687 190.699C265.116 190.988 267.523 191.443 269.89 192.06C272.268 192.605 274.606 193.285 276.944 193.993C279.281 194.7 281.578 195.476 283.848 196.347C286.118 197.218 288.401 198.035 290.616 199.042Z" fill="#263238"/>
<path d="M268.246 184.97C270.48 185.11 272.702 185.415 274.892 185.882C277.09 186.327 279.263 186.89 281.402 187.569C283.541 188.236 285.642 189.022 287.694 189.924C289.753 190.807 291.747 191.835 293.661 192.999C291.54 192.265 289.475 191.448 287.368 190.74C285.261 190.033 283.168 189.311 281.048 188.672L274.688 186.793C272.567 186.127 270.42 185.555 268.246 184.97Z" fill="#263238"/>
<path d="M271.643 179.458C278.882 180.08 285.858 182.468 291.962 186.413C288.564 185.201 285.248 183.922 281.864 182.792C278.48 181.663 275.041 180.56 271.643 179.458Z" fill="#263238"/>
<path d="M255.402 169.005L211.435 182.52C211.435 182.52 203.091 98.7656 204.382 68.6065C205.319 46.4634 217.116 48.4368 222.784 63.6253C230.531 84.3937 255.402 169.005 255.402 169.005Z" fill="#E1D172"/>
<path opacity="0.1" d="M255.402 169.005L211.435 182.52C211.435 182.52 203.091 98.7656 204.382 68.6065C205.319 46.4634 217.116 48.4368 222.784 63.6253C230.531 84.3937 255.402 169.005 255.402 169.005Z" fill="black"/>
<path d="M214.045 172.299C219.97 170.938 243.945 164.392 249.055 162.623C249.408 162.514 249.408 162.255 249.055 162.337C231.237 166.039 219.767 170.408 214.031 172.054C213.882 172.095 213.882 172.327 214.045 172.299Z" fill="#263238"/>
<path d="M181.155 143.61L96.5511 104.727C96.2249 103.23 130.746 73.6832 163.867 56.2627C175.066 50.3697 197.396 46.6407 205.415 48.0969C214.928 49.8526 224.442 67.273 219.196 76.6773C216.736 81.0052 201.528 92.451 199.122 96.9558C198.089 98.9565 195.955 110.035 195.303 112.172C188.059 136.342 182.079 143.243 181.155 143.61Z" fill="#E1D172"/>
<path d="M193.713 100.521C192.598 98.8741 191.389 97.2954 190.179 95.7303C189.04 94.2009 187.663 92.8639 186.102 91.7699C182.821 89.812 179.39 88.119 175.841 86.707C175.705 86.707 175.637 86.8567 175.759 86.9248C179.193 88.5415 182.393 90.6153 185.273 93.09C186.632 94.3149 188.113 95.4989 189.5 96.7374C190.886 97.9759 192.218 99.3777 193.577 100.698C193.607 100.725 193.645 100.739 193.686 100.739C193.726 100.739 193.764 100.725 193.794 100.698C193.801 100.663 193.797 100.628 193.783 100.596C193.768 100.564 193.744 100.538 193.713 100.521Z" fill="#263238"/>
<path d="M195.615 95.7307C195.32 95.3623 195.002 95.0123 194.664 94.6827C193.987 94.0176 193.25 93.4162 192.462 92.8862C190.896 91.8259 189.165 91.0348 187.339 90.5454C187.319 90.5299 187.295 90.5215 187.271 90.5215C187.246 90.5215 187.222 90.5299 187.203 90.5454C187.184 90.5656 187.173 90.5924 187.173 90.6202C187.173 90.6481 187.184 90.6749 187.203 90.6951C188.869 91.4709 190.45 92.4197 191.919 93.5259C192.653 94.0703 193.346 94.6691 194.025 95.2679L194.99 96.1662L196.023 97.0372C196.159 97.1461 196.336 97.0372 196.268 96.8195C196.08 96.4394 195.862 96.0753 195.615 95.7307Z" fill="#263238"/>
<path d="M213.882 70.5937C209.057 68.8108 205.578 56.5348 206.189 49.485C206.189 48.995 209.261 45.6334 212.74 41.3191C214.833 38.7197 217.116 35.7664 218.992 32.9355L233.942 49.1039C230.559 51.9754 227.542 55.2527 224.958 58.8621C224.701 59.2573 224.482 59.6767 224.306 60.1142C224.275 60.185 224.239 60.2532 224.197 60.3183C223.096 62.7953 218.557 72.3221 213.882 70.5937Z" fill="#D3766A"/>
<path d="M219.536 33.5479C217.701 36.855 210.715 51.0772 222.254 59.2294C222.854 59.6525 223.486 60.0301 224.143 60.359C224.143 60.2637 224.224 60.1821 224.252 60.1277C224.425 59.6902 224.648 59.2746 224.918 58.8892C227.487 55.2808 230.49 52.0034 233.86 49.131L219.536 33.5479Z" fill="#263238"/>
<path d="M221.846 13.9498C217.456 20.5369 214.969 42.6527 218.72 48.8859C224.157 57.9228 236.198 62.2507 244.652 54.9967C252.806 47.9605 255.524 19.0806 251.094 13.0923C244.489 4.27324 228.343 4.21881 221.846 13.9498Z" fill="#D3766A"/>
<path d="M239.324 33.0713C239.324 33.0713 239.202 33.0713 239.188 33.1802C239.025 34.6772 238.576 36.3512 237.163 36.6506V36.7323C238.835 36.7459 239.406 34.5003 239.324 33.0713Z" fill="#263238"/>
<path d="M238.223 31.3294C235.872 30.7986 234.988 35.5484 237.177 36.0384C239.365 36.5283 240.207 31.7649 238.223 31.3294Z" fill="#263238"/>
<path d="M247.152 34.3643C247.152 34.3643 247.261 34.4595 247.248 34.514C246.921 35.9838 246.799 37.7123 248.036 38.4472V38.5288C246.5 38.0117 246.609 35.7252 247.152 34.3643Z" fill="#263238"/>
<path d="M248.756 33.0853C251.148 33.3439 250.455 38.1346 248.226 37.8896C245.997 37.6446 246.745 32.8676 248.756 33.0853Z" fill="#263238"/>
<path d="M236.755 28.7976C237.417 28.7321 238.075 28.6321 238.726 28.4981C239.428 28.4835 240.105 28.2398 240.656 27.804C240.807 27.6338 240.896 27.4173 240.908 27.1899C240.921 26.9625 240.856 26.7376 240.724 26.5519C240.415 26.223 240.024 25.9827 239.592 25.8559C239.159 25.7291 238.701 25.7204 238.264 25.8306C237.343 25.9113 236.485 26.3336 235.858 27.0147C235.675 27.2378 235.587 27.5239 235.613 27.8114C235.638 28.099 235.775 28.3651 235.994 28.5526C236.209 28.7257 236.48 28.813 236.755 28.7976Z" fill="#263238"/>
<path d="M251.039 31.0301C250.426 30.7821 249.827 30.5004 249.245 30.1863C248.571 29.9843 247.982 29.5628 247.574 28.9886C247.48 28.7814 247.458 28.5491 247.509 28.3277C247.561 28.1063 247.684 27.9081 247.859 27.7637C248.249 27.5366 248.692 27.417 249.143 27.417C249.595 27.417 250.038 27.5366 250.428 27.7637C251.287 28.1008 251.989 28.7461 252.398 29.5738C252.491 29.831 252.484 30.1138 252.379 30.366C252.273 30.6181 252.076 30.8212 251.828 30.9348C251.587 31.0676 251.305 31.1018 251.039 31.0301Z" fill="#263238"/>
<path d="M235.07 46.0962C235.355 46.5045 235.627 47.0489 236.144 47.185C236.69 47.3075 237.256 47.3075 237.802 47.185M237.802 47.2666C237.538 47.5213 237.21 47.698 236.853 47.7772C236.495 47.8565 236.123 47.8352 235.777 47.7157C235.491 47.5848 235.251 47.3707 235.089 47.1012C234.926 46.8317 234.849 46.5194 234.866 46.2051C234.866 46.0417 235.029 46.0281 235.07 46.0962L237.802 47.2666Z" fill="#263238"/>
<path d="M237.435 41.9717C237.702 42.6242 238.101 43.2146 238.606 43.7063C239.111 44.1979 239.712 44.5804 240.37 44.8298C240.942 45.0473 241.541 45.1847 242.151 45.2381C242.268 45.2517 242.387 45.2517 242.504 45.2381H242.844C242.925 45.2378 243.003 45.2111 243.067 45.1619C243.131 45.1127 243.177 45.0438 243.197 44.9659V44.8162V44.6801C243.442 43.5641 243.646 41.8084 243.646 41.8084C244.026 42.0942 245.956 43.4416 246.038 42.8428C246.848 37.6998 247.144 32.4887 246.921 27.2868C246.915 27.268 246.905 27.2506 246.892 27.2356C246.88 27.2206 246.864 27.2083 246.846 27.1994C246.828 27.1905 246.809 27.1853 246.789 27.1839C246.77 27.1826 246.75 27.1852 246.731 27.1916C246.709 27.1998 246.69 27.2125 246.673 27.2289C246.657 27.2454 246.644 27.2651 246.636 27.2868C245.861 32.023 245.916 36.8137 245.195 41.6587C244.512 41.167 243.761 40.7774 242.966 40.5019C242.79 40.5019 242.613 43.8771 242.463 44.3807C241.517 44.2975 240.597 44.026 239.757 43.5819C238.916 43.1379 238.173 42.5303 237.571 41.7948C237.503 41.754 237.367 41.8356 237.435 41.9717Z" fill="#263238"/>
<path d="M241.594 44.5443C240.818 45.2218 239.882 45.6902 238.875 45.9053C238.319 46.0103 237.745 45.939 237.231 45.7012C236.103 45.184 236.28 44.0952 236.674 43.2106C236.88 42.7264 237.145 42.2694 237.462 41.8496C238.511 43.173 239.961 44.1188 241.594 44.5443Z" fill="#263238"/>
<path d="M238.875 45.9457C238.319 46.0507 237.745 45.9793 237.231 45.7416C236.103 45.2244 236.28 44.1356 236.674 43.251C237.288 43.3903 237.838 43.7311 238.237 44.2193C238.636 44.7075 238.861 45.3151 238.875 45.9457Z" fill="#FF98B9"/>
<path d="M217.606 30.6763C217.606 30.6763 215.2 16.8352 218.353 10.6156C219.78 7.79837 224.523 7.39008 224.523 7.39008C224.682 6.07711 225.203 4.83457 226.029 3.80283C226.855 2.77109 227.953 1.99128 229.199 1.5515C233.915 -0.353862 242.001 3.6474 242.001 3.6474C242.001 3.6474 250.469 -2.0823 256.951 4.02847C263.434 10.1392 255.022 16.8897 255.022 16.8897C255.022 16.8897 256.286 21.9933 248.226 22.4288C240.167 22.8643 227.84 14.5216 227.84 14.5216C226.617 19.4846 224.661 24.237 222.036 28.6213C221.563 29.3439 220.897 29.9195 220.114 30.2827C219.331 30.6459 218.462 30.7822 217.606 30.6763Z" fill="#263238"/>
<path d="M243.279 4.27312C241.835 2.90889 240.128 1.85315 238.264 1.1701C236.623 0.504152 234.881 0.122179 233.113 0.040489C231.552 -0.115388 229.978 0.159912 228.562 0.836501C227.146 1.51309 225.942 2.56512 225.081 3.87843C224.278 5.28095 224.063 6.94482 224.483 8.50574H224.591C223.667 5.62048 225.951 2.55829 228.478 1.44229C231.484 0.358673 234.782 0.416781 237.747 1.60561C239.662 2.32596 241.486 3.26681 243.184 4.40922C243.193 4.41547 243.203 4.4199 243.213 4.42226C243.224 4.42462 243.235 4.42486 243.246 4.42296C243.257 4.42107 243.267 4.41708 243.276 4.41121C243.285 4.40535 243.293 4.39773 243.299 4.3888C243.306 4.37986 243.31 4.36978 243.312 4.35913C243.315 4.34848 243.315 4.33747 243.313 4.32673C243.311 4.31599 243.307 4.30572 243.301 4.29652C243.295 4.28733 243.288 4.27937 243.279 4.27312Z" fill="#263238"/>
<path d="M260.974 9.86642C261.014 8.70699 260.768 7.55568 260.258 6.51382C259.749 5.47196 258.991 4.57152 258.052 3.89175C255.957 2.23591 253.369 1.33035 250.7 1.31951C248.008 1.30653 245.363 2.02627 243.048 3.4018V3.49706C245.122 2.30177 247.479 1.68975 249.871 1.72568C252.264 1.76162 254.602 2.44418 256.639 3.70121C257.599 4.25285 258.422 5.01406 259.048 5.92826C259.674 6.84247 260.086 7.88616 260.254 8.98178C260.287 10.0397 260.089 11.0921 259.673 12.0653C259.258 13.0385 258.635 13.9091 257.848 14.6162C255.909 16.2412 253.556 17.2922 251.053 17.6512M251.053 17.7328C253.391 17.5321 255.643 16.751 257.604 15.46C258.529 14.82 259.308 13.9904 259.89 13.026C260.471 12.0617 260.84 10.9847 260.974 9.86642L251.053 17.7328Z" fill="#263238"/>
<path d="M249.68 23.4768C246.135 23.534 242.62 22.8188 239.378 21.3809C235.993 19.9492 232.771 18.156 229.77 16.0323C228.016 14.8074 226.317 13.5145 224.632 12.1943C224.632 12.1943 224.51 12.1943 224.632 12.276C227.415 15.0106 230.476 17.4463 233.765 19.5436C236.838 21.4609 240.254 22.7599 243.823 23.3679C245.787 23.6762 247.782 23.7402 249.762 23.5585C249.762 23.5585 249.735 23.4768 249.68 23.4768Z" fill="#263238"/>
<path d="M221.18 32.391C221.18 32.391 218.326 24.2252 214.765 25.069C211.204 25.9128 212.047 36.787 215.268 39.155C215.661 39.4774 216.115 39.7184 216.602 39.8642C217.089 40.0101 217.6 40.0578 218.105 40.0046C218.611 39.9515 219.101 39.7985 219.547 39.5546C219.993 39.3106 220.386 38.9806 220.704 38.5834L221.18 32.391Z" fill="#D3766A"/>
<path d="M215.078 28.1855C215.078 28.1855 214.983 28.1855 215.078 28.2808C217.334 30.0229 218.013 32.7584 218.272 35.4667C218.195 35.1986 218.066 34.9483 217.893 34.7299C217.72 34.5116 217.505 34.3297 217.261 34.1944C217.018 34.0592 216.75 33.9733 216.473 33.9418C216.197 33.9102 215.916 33.9336 215.649 34.0105L215.377 34.1058C215.295 34.1058 215.377 34.2555 215.377 34.2691C215.856 34.2542 216.328 34.3856 216.731 34.6456C217.134 34.9057 217.448 35.2822 217.633 35.7253C217.93 36.4886 218.139 37.283 218.258 38.0934C218.326 38.352 218.761 38.3384 218.747 38.0934C219.712 34.7318 218.462 29.4785 215.078 28.1855Z" fill="#263238"/>
<path d="M224.455 60.0728L213.705 68.3883L208.269 46.708L201.867 48.8583C201.867 48.8583 202.194 78.4595 202.846 77.5204L212.835 70.7972L215.445 81.1134L224.551 64.4687L224.455 60.0728Z" fill="#EBEBEB"/>
<path d="M220.46 73.0977C221.819 70.3757 223.368 67.5177 224.646 64.6597C224.646 64.5644 224.646 64.4283 224.483 64.5236C222.417 66.81 217.076 77.5481 215.608 80.0114C215.499 79.5623 212.998 70.7432 212.89 70.7976C211.041 71.7095 203.743 76.5954 203.158 77.0853C203.158 72.39 202.547 55.0648 202.017 50.3286C202.017 50.2997 202.005 50.272 201.985 50.2516C201.965 50.2312 201.937 50.2197 201.908 50.2197C201.879 50.2197 201.852 50.2312 201.831 50.2516C201.811 50.272 201.799 50.2997 201.799 50.3286C201.487 55.0784 202.058 78.283 202.248 78.3374C205.868 76.1121 209.37 73.6999 212.74 71.1107C213.012 72.8663 215.159 82.4067 215.458 81.9984C217.281 79.1218 218.95 76.1507 220.46 73.0977Z" fill="#263238"/>
<path d="M199.91 60.5084C215.839 97.3227 235.627 162.745 242.423 172.421C246.976 178.995 209.601 195.626 207.168 190.699C204.055 184.398 186.781 109.721 184.457 66.4831C183.492 48.5727 195.153 49.5254 199.91 60.5084Z" fill="#D3766A"/>
<path d="M216.6 203.546C209.315 201.07 207.086 190.699 207.086 190.699L236.239 166.46C236.239 166.46 242.219 174.694 250.034 175.783C251.95 176.055 261.436 175.987 271.168 177.443C282.217 179.103 293.593 182.247 294.435 183.295C296.066 185.323 293.688 188.943 285.995 189.583C278.303 190.223 263.054 188.902 262.13 189.052C261.821 189.138 261.521 189.252 261.233 189.392C260.906 189.665 253.363 199.899 249.558 203.097C247.261 205.044 237.448 205.724 231.713 205.819C222.539 206.037 217.837 204.281 216.6 203.546Z" fill="#D3766A"/>
<path d="M247.859 184.561C247.859 184.561 265.84 179.022 269.605 180.219C273.369 181.417 296.786 185.201 298.485 187.188C300.184 189.175 297.738 192.822 290.032 193.475C282.326 194.129 267.104 192.781 266.166 192.944C265.228 193.108 250.387 200.498 248.824 200.77C247.261 201.042 247.859 184.561 247.859 184.561Z" fill="#D3766A"/>
<path d="M257.522 179.989C259.575 179.839 261.6 179.757 263.693 179.676H269.129L269.944 179.812C273.954 180.628 278.004 181.459 282.027 182.302C286.05 183.146 290.073 184.017 294.109 185.024C295.14 185.282 296.131 185.676 297.058 186.195C297.557 186.447 298.015 186.773 298.417 187.161C298.84 187.565 299.121 188.095 299.219 188.672C299.248 188.96 299.218 189.25 299.131 189.526C299.045 189.802 298.904 190.058 298.716 190.278C298.374 190.694 297.96 191.044 297.493 191.312C296.598 191.845 295.633 192.248 294.626 192.51C295.587 192.141 296.499 191.657 297.344 191.067C297.748 190.783 298.101 190.433 298.39 190.033C298.527 189.852 298.625 189.645 298.679 189.425C298.732 189.205 298.741 188.977 298.703 188.753C298.546 188.306 298.293 187.899 297.962 187.56C297.631 187.222 297.23 186.96 296.787 186.794C295.887 186.357 294.938 186.033 293.96 185.827C289.882 185.052 285.887 184.221 281.864 183.378C277.841 182.534 273.818 181.649 269.795 180.656C268.818 180.436 267.82 180.317 266.819 180.302C265.799 180.302 264.766 180.22 263.733 180.179L257.522 179.989Z" fill="#263238"/>
<path d="M245.603 187.664C245.603 187.664 265.351 181.663 269.075 182.86C272.799 184.058 296.256 187.841 297.955 189.828C299.654 191.815 297.208 195.476 289.515 196.13C281.823 196.783 266.587 195.422 265.65 195.585C264.712 195.749 249.871 203.152 248.294 203.425C246.718 203.697 245.603 187.664 245.603 187.664Z" fill="#D3766A"/>
<path d="M254.655 182.029C257.183 181.948 259.71 182.029 262.238 182.029C263.502 182.029 264.766 182.098 266.044 182.166C266.68 182.182 267.315 182.232 267.947 182.315C268.591 182.379 269.231 182.483 269.863 182.628C274.796 183.676 279.743 184.738 284.663 185.84L292.057 187.541L293.905 187.991C294.542 188.13 295.168 188.312 295.781 188.535C296.409 188.765 297.007 189.071 297.561 189.447C298.186 189.84 298.663 190.428 298.92 191.121C299.043 191.501 299.043 191.911 298.92 192.291C298.8 192.643 298.61 192.967 298.363 193.244C297.894 193.734 297.348 194.144 296.746 194.455C295.598 195.039 294.391 195.495 293.144 195.816C290.676 196.461 288.114 196.668 285.574 196.429C288.092 196.456 290.598 196.074 292.995 195.299C294.18 194.94 295.323 194.457 296.406 193.856C296.922 193.575 297.383 193.201 297.765 192.754C297.94 192.579 298.064 192.36 298.124 192.121C298.183 191.881 298.177 191.629 298.105 191.393C297.88 190.895 297.504 190.481 297.031 190.209C296.524 189.918 295.986 189.685 295.427 189.515C294.299 189.134 293.022 188.916 291.799 188.63L284.405 186.997C279.472 185.881 274.552 184.779 269.632 183.554C269.038 183.391 268.434 183.268 267.824 183.186C267.213 183.091 266.587 183.023 265.962 182.969C264.698 182.846 263.448 182.751 262.184 182.669L254.655 182.029Z" fill="#263238"/>
<path d="M245.657 187.596C245.657 187.596 264.019 186.399 267.484 187.515C270.95 188.631 287.151 190.237 288.714 192.06C290.276 193.884 288.007 197.314 280.844 197.913C273.682 198.511 265.174 199.274 264.291 199.355C263.407 199.437 249.626 202.077 248.158 202.254C246.69 202.431 245.657 187.596 245.657 187.596Z" fill="#D3766A"/>
<path d="M250.455 185.759H260.213C261.844 185.759 263.475 185.759 265.106 185.854H266.329C266.744 185.868 267.157 185.909 267.566 185.977C268.395 186.099 269.197 186.235 269.999 186.398C273.193 187.038 276.373 187.759 279.512 188.549C281.089 188.957 282.666 189.379 284.229 189.91C285.017 190.127 285.805 190.372 286.58 190.631C287.394 190.875 288.185 191.19 288.945 191.57C289.395 191.798 289.737 192.195 289.895 192.675C290.053 193.155 290.014 193.678 289.787 194.129L289.692 194.292C289.224 195.06 288.587 195.712 287.83 196.197C286.425 197.19 284.795 197.817 283.087 198.021C279.825 198.389 276.59 198.674 273.356 198.974C270.121 199.273 266.832 199.559 263.652 199.79C262.062 199.995 260.444 200.253 258.827 200.498C257.21 200.743 255.606 200.947 253.989 201.111C257.142 200.267 260.295 199.532 263.502 198.879L273.247 197.967C276.482 197.64 279.73 197.327 282.937 196.932C284.474 196.753 285.943 196.202 287.218 195.326C287.843 194.936 288.373 194.411 288.768 193.789C288.84 193.695 288.892 193.588 288.922 193.475C288.952 193.361 288.959 193.242 288.942 193.125C288.926 193.009 288.886 192.896 288.826 192.795C288.766 192.694 288.686 192.606 288.591 192.536C288.537 192.492 288.478 192.456 288.415 192.428C287.718 192.081 286.995 191.79 286.254 191.557C285.492 191.298 284.718 191.053 283.943 190.822L279.254 189.461C276.115 188.644 272.975 187.814 269.741 187.12C268.939 186.943 268.15 186.78 267.362 186.643C266.57 186.521 265.771 186.453 264.97 186.439L260.091 186.181L250.455 185.759Z" fill="#263238"/>
<path d="M244.366 170.461L202.017 188.412C202.017 188.412 185.912 99.2958 184.09 69.1639C182.731 47.0481 194.705 47.783 201.895 62.359C211.734 82.1612 244.366 170.461 244.366 170.461Z" fill="#E1D172"/>
<path d="M203.566 177.961C209.315 175.987 232.515 167.073 237.394 164.746C237.734 164.596 237.72 164.337 237.394 164.46C220.052 169.904 209.084 175.497 203.553 177.729C203.362 177.784 203.43 178.015 203.566 177.961Z" fill="#263238"/>
<path d="M185.232 82.1481C185.232 84.3393 185.395 86.5169 185.517 88.6944C185.409 88.3133 185.3 87.9323 185.218 87.5512C185.137 87.1701 185.069 86.7346 184.987 86.3399C184.906 85.9452 184.851 85.4961 184.756 85.0742C184.756 85.0417 184.743 85.0106 184.72 84.9876C184.698 84.9646 184.666 84.9517 184.634 84.9517C184.602 84.9517 184.57 84.9646 184.548 84.9876C184.525 85.0106 184.512 85.0417 184.512 85.0742C184.491 85.7472 184.56 86.4199 184.716 87.0749C184.866 87.7511 185.052 88.4189 185.273 89.0755C185.355 89.3662 185.465 89.6487 185.599 89.9193C185.844 93.5531 186.17 97.1869 186.632 100.807C187.012 103.924 187.515 107.027 187.991 110.116C188.467 113.206 190.342 121.494 190.967 124.638C190.967 124.667 190.979 124.694 190.999 124.715C191.02 124.735 191.047 124.747 191.076 124.747C191.105 124.747 191.133 124.735 191.153 124.715C191.173 124.694 191.185 124.667 191.185 124.638C190.777 121.467 189.418 113.301 188.929 110.13C188.439 106.959 188.1 103.91 187.692 100.793C186.876 94.5874 186.115 88.3678 185.368 82.1481C185.368 82.1301 185.361 82.1128 185.348 82.1C185.335 82.0873 185.318 82.0801 185.3 82.0801C185.282 82.0801 185.265 82.0873 185.252 82.1C185.239 82.1128 185.232 82.1301 185.232 82.1481Z" fill="#263238"/>
<path d="M236.986 270.874V339.603L63.7289 380.051C36.0034 367.803 22.6978 353.635 22.7794 339.59C22.9017 318.386 53.5357 297.481 111.121 284.062C149.406 275.066 189.717 270.874 236.986 270.874Z" fill="#E1D172"/>
<g opacity="0.4">
<path d="M236.986 270.874V339.603L63.7289 380.051C36.0034 367.803 22.6978 353.635 22.7794 339.59C22.9017 318.386 53.5357 297.481 111.121 284.062C149.406 275.066 189.717 270.874 236.986 270.874Z" fill="white"/>
</g>
<path d="M63.7289 380.051V494.781C36.0034 482.533 22.6978 468.365 22.7794 454.306V339.521C22.6978 353.567 36.0034 367.803 63.7289 380.051Z" fill="#E1D172"/>
<path d="M237.041 339.562V454.347L63.7289 494.741V379.956L237.041 339.562Z" fill="#E1D172"/>
<g opacity="0.1">
<path d="M237.041 339.562V454.347L63.7289 494.741V379.956L237.041 339.562Z" fill="black"/>
</g>
<path d="M236.986 391.048L170.785 456.375C125.772 451.679 91.4952 443.69 63.6746 431.401L236.986 391.048Z" fill="#455A64"/>
<path d="M170.839 456.402V557.576C125.826 552.895 91.5631 544.892 63.7289 532.616V431.428C91.5631 443.717 125.826 451.706 170.839 456.402Z" fill="#263238"/>
<path d="M237.041 391.048V492.223L170.839 557.577V456.402L237.041 391.048Z" fill="#37474F"/>
<path d="M470.221 419.52C470.221 457.463 374.296 488.235 255.946 488.235C233.834 488.304 211.734 487.173 189.744 484.846L256.014 419.52H470.221Z" fill="#E1D172"/>
<path d="M470.221 419.52V493.475C470.221 531.432 374.296 562.19 255.946 562.19C233.834 562.275 211.734 561.153 189.744 558.829V484.846C211.757 487.177 233.879 488.313 256.014 488.249C374.255 488.249 470.221 457.477 470.221 419.52Z" fill="#E1D172"/>
<g opacity="0.1">
<path d="M470.221 419.52V493.475C470.221 531.432 374.296 562.19 255.946 562.19C233.834 562.275 211.734 561.153 189.744 558.829V484.846C211.757 487.177 233.879 488.313 256.014 488.249C374.255 488.249 470.221 457.477 470.221 419.52Z" fill="black"/>
</g>
<path d="M236.986 199.042C355.336 199.042 451.248 229.814 451.248 267.771H236.986V199.042Z" fill="#37474F"/>
<path d="M451.302 267.825H237.041V510.664H451.302V267.825Z" fill="#263238"/>
</g>
<defs>
<clipPath id="clip0_14_3980">
<rect width="555" height="583" fill="white" transform="translate(-31)"/>
</clipPath>
</defs>
</svg>
