<svg width="92" height="74" viewBox="0 0 92 74" fill="none" xmlns="http://www.w3.org/2000/svg">
<g clip-path="url(#clip0_1_117285)">
<path d="M48.9425 32.3786L54.3429 26.9993L46.7872 19.502L41.3627 24.8813L40.9268 24.6406C44.2035 26.5188 46.9582 29.1781 48.9425 32.3786Z" fill="#063B5B"/>
<path d="M35.89 22.4987C35.5752 22.4024 35.2846 22.3061 34.9698 22.2339V14.6162H24.278V22.2339C23.9632 22.3061 23.6726 22.4024 23.3699 22.4866C25.4011 21.9054 27.5041 21.6097 29.6178 21.6081C31.7405 21.6078 33.8524 21.9077 35.89 22.4987Z" fill="#063B5B"/>
<path d="M24.2771 66.0386V73.4998H34.9689V66.0386C31.4602 66.9208 27.7857 66.9208 24.2771 66.0386Z" fill="#063B5B"/>
<path d="M10.2314 55.8096L4.8916 61.1167L12.4594 68.6381L17.775 63.3551C14.6893 61.4759 12.1024 58.8883 10.2314 55.8096Z" fill="#063B5B"/>
<path d="M18.3077 24.6286L17.8718 24.8693L12.4472 19.502L4.87939 27.0114L10.2919 32.3907C12.2682 29.1775 15.0243 26.5086 18.3077 24.6286Z" fill="#063B5B"/>
<path d="M7.604 38.7568H-0.012207V49.3831H7.604C7.18996 47.6725 6.97864 45.9196 6.97435 44.1602C6.96716 42.3406 7.17854 40.5267 7.604 38.7568Z" fill="#063B5B"/>
<path d="M51.6676 49.3711H59.2353V38.7568H51.6191C52.0712 40.523 52.303 42.3378 52.3093 44.1602C52.306 45.9165 52.0906 47.6659 51.6676 49.3711Z" fill="#063B5B"/>
<path d="M41.5078 63.3551L46.8234 68.6381L54.3791 61.1167L49.0514 55.8096C47.177 58.8857 44.5908 61.4726 41.5078 63.3551Z" fill="#063B5B"/>
<path d="M52.3082 44.1481C52.2767 39.9947 51.1135 35.9274 48.9421 32.3786C46.9593 29.1736 44.2045 26.5101 40.9263 24.6285C40.6599 24.4721 40.3935 24.3156 40.115 24.1712C39.8366 24.0268 39.3522 23.7981 38.9768 23.6297L38.3351 23.3288C37.7418 23.0881 37.1243 22.8715 36.5309 22.679L35.8892 22.4985C33.8515 21.9074 31.7396 21.6076 29.617 21.6079C27.5033 21.6095 25.4002 21.9052 23.3691 22.4864L22.7152 22.679C22.0977 22.8715 21.5044 23.0881 20.911 23.3288L20.2572 23.6297C19.8778 23.7981 19.5024 23.9787 19.1311 24.1712L18.3077 24.6285C15.0303 26.5068 12.2786 29.1713 10.304 32.3786C9.07482 34.3517 8.16375 36.5038 7.60385 38.7568C7.16208 40.5246 6.93444 42.3386 6.92578 44.1602C6.93367 48.028 7.93967 51.8292 9.84762 55.2003C11.7556 58.5714 14.5017 61.3998 17.8234 63.415C21.3897 65.5851 25.4899 66.7334 29.6715 66.7334C33.8531 66.7334 37.9533 65.5851 41.5196 63.415C44.6026 61.5325 47.1889 58.9457 49.0632 55.8695C51.1919 52.3457 52.3293 48.3184 52.3567 44.2083L52.3082 44.1481Z" fill="#50048D"/>
<path d="M22.6542 48.902H26.2867V50.7914L28.1272 55.4005L29.6408 49.8888L31.1301 55.3042L33.0312 50.7914V48.8539H36.6637C38.1599 48.8731 39.5928 49.457 40.672 50.4871C41.7512 51.5172 42.396 52.9166 42.4758 54.4017C44.3956 51.9983 45.5947 49.1056 45.9354 46.0557C46.2761 43.0057 45.7446 39.9221 44.4019 37.1587C43.0592 34.3954 40.9597 32.0643 38.3445 30.433C35.7292 28.8018 32.7042 27.9365 29.6166 27.9365C26.529 27.9365 23.5039 28.8018 20.8887 30.433C18.2734 32.0643 16.174 34.3954 14.8313 37.1587C13.4886 39.9221 12.9571 43.0057 13.2978 46.0557C13.6385 49.1056 14.8376 51.9983 16.7574 54.4017C16.8528 52.9117 17.5156 51.5139 18.611 50.4923C19.7063 49.4707 21.1521 48.902 22.6542 48.902Z" fill="white"/>
<path d="M36.5919 48.9019H32.9593V50.7912L31.0946 55.3041L29.6053 49.8887L28.0917 55.4004L26.2755 50.7912L23.5269 53.523L30.5861 60.539C32.8915 60.4074 35.1427 59.7924 37.192 58.7347C39.2413 57.6769 41.0423 56.2002 42.4766 54.4015C42.3841 52.9127 41.7239 51.5149 40.6305 50.493C39.5371 49.4711 38.0928 48.9021 36.5919 48.9019Z" fill="#063B5B"/>
<path d="M24.3259 48.9141L26.2633 50.8396V48.9141H24.3259Z" fill="#063B5B"/>
<path d="M29.6172 60.6355C29.9442 60.6355 30.259 60.6355 30.5859 60.6355L23.5267 53.6195L26.2753 50.8877L24.3258 48.9502H22.6549C21.1448 48.951 19.6924 49.5263 18.5958 50.558C17.4992 51.5897 16.8416 52.9995 16.7581 54.498C18.2978 56.4177 20.2541 57.9668 22.4808 59.0296C24.7075 60.0924 27.1471 60.6413 29.6172 60.6355Z" fill="#5D7999"/>
<path d="M32.2688 52.5605L29.6292 49.937L31.1064 55.3524L32.2688 52.5605Z" fill="white"/>
<path d="M26.9653 52.5846L28.1156 55.4487L29.6292 49.937L26.9653 52.5846Z" fill="#DEDEE0"/>
<path d="M28.1879 48.9021L26.3232 47.0488V48.9021C27.1652 49.483 28.147 49.8318 29.1687 49.913L28.1879 48.9021Z" fill="#FFCAB3"/>
<path d="M26.2744 45.8333V47.0368L28.1391 48.89L29.1441 49.9009H29.6285H29.9433C31.0224 49.8443 32.0652 49.4947 32.9583 48.89V45.8213L26.2744 45.8333Z" fill="#F9B59D"/>
<path d="M32.7768 36.6392C31.3461 36.8308 30.0449 37.5636 29.1443 38.685L29.6044 48.3726C33.0432 48.3726 35.8524 44.1365 36.2641 40.5864C36.2641 40.2976 36.2641 40.0208 36.2641 39.744V38.2879C35.9735 37.3612 33.7576 36.6392 32.7768 36.6392Z" fill="#F9B59D"/>
<path d="M34.9324 33.3174C31.7901 35.4863 28.0542 36.6455 24.2285 36.6389C23.7684 36.6389 23.3083 36.6389 22.8603 36.5787C22.8418 36.8512 22.8418 37.1245 22.8603 37.397V39.7437C22.8425 40.0242 22.8425 40.3056 22.8603 40.5861C23.2598 44.1964 26.1174 48.3723 29.5683 48.3723H29.6289V43.9677C29.8269 43.9553 30.0123 43.8667 30.1457 43.7206C30.2791 43.5746 30.35 43.3826 30.3433 43.1855V38.8411L30.5976 38.5523C31.2359 37.789 32.1388 37.291 33.1282 37.1563C33.7123 37.1192 34.2978 37.2003 34.8494 37.3947C35.4009 37.5892 35.907 37.8929 36.3369 38.2875V37.397C36.3354 35.9202 35.8415 34.4855 34.9324 33.3174Z" fill="#FFCAB3"/>
<path d="M36.8938 31.7653C35.8408 30.261 34.3414 29.1211 32.6049 28.5047C30.8685 27.8883 28.9817 27.8263 27.2081 28.3273C25.4345 28.8283 23.8626 29.8673 22.7119 31.2992C21.5612 32.7311 20.8891 34.4844 20.7896 36.3143C20.7896 36.4707 20.7896 36.6392 20.7896 36.7956V38.5526C20.7895 39.09 21.0035 39.6054 21.3846 39.9865C21.7658 40.3676 22.2832 40.5833 22.8238 40.5864C22.806 40.3059 22.806 40.0246 22.8238 39.744V37.3973C22.8054 37.1249 22.8054 36.8515 22.8238 36.579C23.2718 36.579 23.7319 36.6392 24.192 36.6392C28.0199 36.6478 31.7574 35.4838 34.8959 33.3057C35.805 34.4738 36.299 35.9085 36.3005 37.3853V39.732C36.3005 40.0088 36.3005 40.2856 36.3005 40.5744H36.4579C36.9985 40.5712 37.5159 40.3555 37.897 39.9745C38.2782 39.5934 38.4921 39.0779 38.4921 38.5406V36.7836C38.4856 34.9881 37.928 33.2374 36.8938 31.7653Z" fill="#063B5B"/>
<path d="M26.2988 48.9019V50.7912L26.989 52.5362L29.6529 49.8887C28.4596 49.9083 27.289 49.5639 26.2988 48.9019Z" fill="#F8F8F9"/>
<path d="M33.0325 50.7915V48.854C32.0547 49.5284 30.8928 49.8895 29.7026 49.889L32.3423 52.5124L33.0325 50.7915Z" fill="#DEDEE0"/>
<path d="M29.6328 49.9151L28.1184 51.4224L29.6349 52.9275L31.1494 51.4203L29.6328 49.9151Z" fill="#5D7999"/>
<path d="M85.3403 11.9928L88.8396 8.51489L83.9357 3.70117L80.4363 7.17908L80.1458 7.02265C82.2653 8.22547 84.0504 9.93347 85.3403 11.9928Z" fill="#063B5B"/>
<path d="M76.8892 5.60253L76.2959 5.43405V0.5H69.3577V5.43405L68.7644 5.5905C70.0841 5.21839 71.449 5.02807 72.8207 5.02489C74.1976 5.02489 75.5674 5.21937 76.8892 5.60253Z" fill="#063B5B"/>
<path d="M69.3577 33.7988V38.6125H76.2837V33.7988C74.0116 34.3765 71.6298 34.3765 69.3577 33.7988Z" fill="#063B5B"/>
<path d="M60.2758 27.1802L56.8127 30.6099L61.7167 35.4838L65.1555 32.054C63.1608 30.8399 61.4876 29.1687 60.2758 27.1802Z" fill="#063B5B"/>
<path d="M65.5066 6.97429L65.216 7.13074L61.7167 3.65283L56.8127 8.46655L60.3121 11.9445C61.602 9.88514 63.3871 8.17711 65.5066 6.97429Z" fill="#063B5B"/>
<path d="M58.5812 16.1206H53.6167V23.0042H58.4601C58.1929 21.8964 58.0548 20.7618 58.0484 19.6226C58.0826 18.4381 58.2615 17.2622 58.5812 16.1206Z" fill="#063B5B"/>
<path d="M87.1081 23.0042H92.012V16.1206H87.0718C87.3689 17.2645 87.5194 18.4412 87.5198 19.6226C87.5134 20.7618 87.3753 21.8964 87.1081 23.0042Z" fill="#063B5B"/>
<path d="M80.4966 32.054L83.9354 35.4838L88.8393 30.6099L85.3884 27.1802C84.1721 29.1692 82.4948 30.8403 80.4966 32.054Z" fill="#063B5B"/>
<path d="M87.5198 19.6225C87.5194 18.4411 87.3689 17.2644 87.0718 16.1205C86.6002 14.2095 85.7432 12.4136 84.5527 10.8414C83.3622 9.26931 81.8629 7.95375 80.1458 6.97445C79.9763 6.87818 79.8067 6.76988 79.6251 6.68564C79.4435 6.6014 79.1286 6.44495 78.8865 6.32461L78.4748 6.14408C78.0873 5.98764 77.6999 5.84322 77.264 5.71085L76.8523 5.60254C75.5344 5.22052 74.1687 5.02604 72.7959 5.0249C71.4242 5.02809 70.0593 5.2184 68.7396 5.59052L68.3158 5.71085C67.9203 5.84724 67.5167 5.99165 67.105 6.14408L66.6812 6.33664C66.4333 6.44079 66.1908 6.55728 65.9547 6.68564C65.773 6.76988 65.5914 6.87818 65.4219 6.97445C63.1924 8.26348 61.3396 10.1081 60.0464 12.3261C58.7533 14.5442 58.0644 17.059 58.0479 19.6225C58.0542 20.7617 58.1924 21.8963 58.4595 23.0041C59.3708 26.7717 61.7484 30.0262 65.0708 32.0539C66.3718 32.857 67.7946 33.4462 69.2845 33.7989C71.5566 34.3766 73.9384 34.3766 76.2105 33.7989C77.6958 33.4438 79.1143 32.8547 80.4122 32.0539C82.062 31.0555 83.496 29.7414 84.6309 28.1879C85.7658 26.6344 86.579 24.8724 87.0234 23.0041C87.3191 21.8996 87.4857 20.7649 87.5198 19.6225Z" fill="#063B5B"/>
<path d="M68.3156 22.703H70.6525V23.9065L71.8634 26.891L72.8442 23.2807L73.8128 26.7827L75.0237 23.8704V22.6669H77.3727C78.3515 22.6689 79.2921 23.0448 79.9998 23.7168C80.7075 24.3888 81.1282 25.3055 81.1748 26.2772C82.4184 24.7212 83.1953 22.8482 83.4163 20.8731C83.6373 18.8981 83.2934 16.9012 82.4242 15.1116C81.5549 13.3221 80.1955 11.8124 78.502 10.756C76.8085 9.69955 74.8496 9.13916 72.8502 9.13916C70.8508 9.13916 68.8919 9.69955 67.1984 10.756C65.5049 11.8124 64.1455 13.3221 63.2763 15.1116C62.407 16.9012 62.0631 18.8981 62.2841 20.8731C62.5051 22.8482 63.282 24.7212 64.5257 26.2772C64.5811 25.314 65.004 24.408 65.7082 23.7439C66.4124 23.0798 67.3449 22.7076 68.3156 22.703Z" fill="white"/>
<path d="M77.3484 22.7031H74.9993V23.9066L73.7885 26.8189L72.8198 23.3169L71.839 26.9272L70.6282 23.9427L68.8604 25.7117L73.4252 30.2607C74.9193 30.1756 76.3782 29.7766 77.7056 29.0899C79.0331 28.4033 80.1989 27.4447 81.1262 26.2773C81.0709 25.3161 80.6497 24.4119 79.9481 23.7481C79.2465 23.0843 78.317 22.7107 77.3484 22.7031Z" fill="#7A7A7A"/>
<path d="M69.3943 22.7031L70.6536 23.9547V22.7031H69.3943Z" fill="#7A7A7A"/>
<path d="M72.832 30.333H73.4495L68.8846 25.784L70.6525 24.015L69.4416 22.8115H68.364C67.3831 22.8104 66.4395 23.1849 65.7292 23.8573C65.0189 24.5296 64.5965 25.448 64.5498 26.4218C65.5474 27.6486 66.8096 28.6371 68.2431 29.314C69.6767 29.991 71.2449 30.3392 72.832 30.333Z" fill="#A3A3A3"/>
<path d="M74.5401 25.0621L72.8328 23.3652L73.7893 26.8672L74.5401 25.0621Z" fill="white"/>
<path d="M71.1003 25.0861L71.8511 26.9394L72.8318 23.3652L71.1003 25.0861Z" fill="#DEDEE0"/>
<path d="M71.8629 22.7034L70.6521 21.5V22.7034C71.1997 23.0727 71.8333 23.2964 72.4926 23.3533L71.8629 22.7034Z" fill="#FFCAB3"/>
<path d="M70.6521 20.7056V21.4998L71.8629 22.7033L72.5168 23.3531H72.989C73.6874 23.323 74.3631 23.0977 74.9385 22.7033V20.7056H70.6521Z" fill="#F9B59D"/>
<path d="M74.8662 14.7607C73.9455 14.8885 73.1091 15.3623 72.5293 16.0845L72.832 22.3544C75.06 22.3544 76.8883 19.6106 77.1426 17.312C77.1546 17.1317 77.1546 16.9508 77.1426 16.7705V15.8198C76.9489 15.2301 75.508 14.7607 74.8662 14.7607Z" fill="#F9B59D"/>
<path d="M76.271 12.6064C74.2318 14.0075 71.8119 14.7588 69.3329 14.7606H68.449C68.437 14.9329 68.437 15.1058 68.449 15.2781V16.8064C68.4369 16.9867 68.4369 17.1676 68.449 17.348C68.7154 19.6585 70.5558 22.3903 72.7959 22.3903V19.5021C72.9233 19.4928 73.0422 19.4352 73.1279 19.341C73.2136 19.2469 73.2595 19.1236 73.256 18.9967V16.1806L73.4255 16.0001C73.8361 15.5048 74.4201 15.1823 75.0602 15.0975C75.4383 15.0727 75.8176 15.1239 76.1755 15.2479C76.5333 15.372 76.8623 15.5664 77.1428 15.8196V15.242C77.1526 14.2919 76.8461 13.3654 76.271 12.6064Z" fill="#FFCAB3"/>
<path d="M77.5301 11.5957C76.8475 10.6249 75.8773 9.88991 74.7545 9.49308C73.6317 9.09626 72.4124 9.05739 71.2663 9.38188C70.1203 9.70637 69.1046 10.3781 68.3608 11.3034C67.6171 12.2287 67.1822 13.3616 67.1168 14.5441C67.1108 14.6483 67.1108 14.7528 67.1168 14.857V16.0604C67.1168 16.4083 67.2559 16.742 67.5034 16.988C67.7509 17.234 68.0866 17.3722 68.4367 17.3722C68.4246 17.1919 68.4246 17.0109 68.4367 16.8306V15.3023C68.4247 15.13 68.4247 14.9571 68.4367 14.7848H69.3206C71.8 14.7853 74.2205 14.0338 76.2587 12.6307C76.8467 13.385 77.1662 14.312 77.1669 15.2662V16.7945C77.1789 16.9748 77.1789 17.1558 77.1669 17.3361H77.2758C77.6259 17.3361 77.9616 17.1979 78.2091 16.9519C78.4566 16.7059 78.5957 16.3722 78.5957 16.0243V14.8209C78.5811 13.6628 78.2092 12.537 77.5301 11.5957Z" fill="#063B5B"/>
<path d="M70.6765 22.7031V23.9066L71.1366 25.0378L72.856 23.3169C72.0836 23.3379 71.3231 23.1238 70.6765 22.7031Z" fill="#F8F8F9"/>
<path d="M75.0003 23.9549V22.7515C74.3671 23.1865 73.6147 23.4176 72.845 23.4134L74.5522 25.1102L75.0003 23.9549Z" fill="#DEDEE0"/>
<path d="M72.8354 23.3834L71.8506 24.3618L72.835 25.3406L73.8198 24.3622L72.8354 23.3834Z" fill="#A3A3A3"/>
<path d="M74.6244 60.7557V57.386H72.2027C72.0353 56.6719 71.7532 55.9892 71.3672 55.3643L73.0866 53.6554L70.6649 51.2486L68.9455 52.9574C68.3168 52.5738 67.6299 52.2934 66.9113 52.1271V49.7202H63.5209V52.1271C62.8031 52.2956 62.1165 52.5758 61.4867 52.9574L59.7673 51.2486L57.3456 53.6554L59.065 55.3643C58.679 55.9892 58.3969 56.6719 58.2296 57.386H55.8079V60.7557H58.2296C58.3991 61.4691 58.6811 62.1515 59.065 62.7774L57.3456 64.4863L59.7673 66.8931L61.4867 65.2324C62.1191 65.609 62.8048 65.8889 63.5209 66.0628V68.4696H66.9355V66.0628C67.6521 65.8902 68.338 65.6102 68.9697 65.2324L70.6892 66.9413L73.1108 64.5344L71.3551 62.8256C71.7391 62.1996 72.021 61.5173 72.1906 60.8038L74.6244 60.7557ZM65.2161 62.3562C64.5623 62.3562 63.9232 62.1635 63.3796 61.8025C62.836 61.4415 62.4123 60.9284 62.1622 60.3281C61.912 59.7278 61.8465 59.0672 61.974 58.4299C62.1016 57.7926 62.4164 57.2072 62.8787 56.7478C63.341 56.2883 63.93 55.9754 64.5712 55.8486C65.2125 55.7219 65.8771 55.7869 66.4811 56.0356C67.0851 56.2842 67.6014 56.7053 67.9646 57.2456C68.3279 57.7859 68.5217 58.4211 68.5217 59.0709C68.5217 59.9422 68.1735 60.7778 67.5536 61.3939C66.9336 62.0101 66.0928 62.3562 65.2161 62.3562Z" fill="#063B5B"/>
</g>
<defs>
<clipPath id="clip0_1_117285">
<rect width="92" height="73" fill="white" transform="translate(0 0.5)"/>
</clipPath>
</defs>
</svg>
