<svg width="54" height="80" viewBox="0 0 54 80" fill="none" xmlns="http://www.w3.org/2000/svg">
<g clip-path="url(#clip0_64_107782)">
<path d="M45.022 47.0429H8.98787C8.89178 47.0315 8.79433 47.0403 8.70196 47.0687C8.60958 47.0971 8.52437 47.1444 8.45197 47.2075C8.37957 47.2707 8.32159 47.3482 8.2819 47.4349C8.24221 47.5217 8.22168 47.6157 8.22168 47.7108C8.22168 47.8059 8.24221 47.9 8.2819 47.9867C8.32159 48.0735 8.37957 48.151 8.45197 48.2141C8.52437 48.2772 8.60958 48.3245 8.70196 48.3529C8.79433 48.3813 8.89178 48.3901 8.98787 48.3788H26.3351V68.7342C26.3551 68.8976 26.4353 69.0481 26.5605 69.1573C26.6857 69.2664 26.8473 69.3267 27.0147 69.3267C27.1821 69.3267 27.3437 69.2664 27.4689 69.1573C27.5942 69.0481 27.6743 68.8976 27.6943 68.7342V48.3788H45.022C45.1181 48.3901 45.2155 48.3813 45.3079 48.3529C45.4003 48.3245 45.4855 48.2772 45.5579 48.2141C45.6303 48.151 45.6883 48.0735 45.7279 47.9867C45.7676 47.9 45.7882 47.8059 45.7882 47.7108C45.7882 47.6157 45.7676 47.5217 45.7279 47.4349C45.6883 47.3482 45.6303 47.2707 45.5579 47.2075C45.4855 47.1444 45.4003 47.0971 45.3079 47.0687C45.2155 47.0403 45.1181 47.0315 45.022 47.0429Z" fill="#51048F"/>
<path d="M30.7051 34.6931L27.0186 31.0603L29.0916 38.5567L30.7051 34.6931Z" fill="white"/>
<path d="M23.2842 34.7316L24.8976 38.7008L27.0196 31.0603L23.2842 34.7316Z" fill="#D5D8D8"/>
<path d="M24.9283 29.6381L22.3174 27.072V29.6381C23.4989 30.4333 24.8703 30.9135 26.2973 31.0316L24.9283 29.6381Z" fill="#FFCAB3"/>
<path d="M22.3174 25.3804V27.0719L24.9283 29.6379L26.3364 31.0315C26.5613 31.0315 26.7862 31.0315 27.0209 31.0315H27.4609C28.9691 30.9547 30.4268 30.4727 31.6755 29.6379V25.3804H22.3174Z" fill="#F9B59D"/>
<path d="M31.4189 12.656C29.6 12.656 27.4487 14.2226 26.3535 15.4816L27.0185 28.9365C31.8198 28.8885 35.7703 23.0836 36.3277 18.163C36.3744 17.777 36.3973 17.3887 36.3962 17V14.9338C35.9268 13.6844 32.7879 12.656 31.4189 12.656Z" fill="#F9B59D"/>
<path d="M34.4426 8.05249C30.0456 11.0569 24.8169 12.6636 19.4617 12.656C18.8066 12.656 18.171 12.656 17.506 12.5791C17.4551 12.9519 17.4289 13.3275 17.4278 13.7036V16.9616C17.4266 17.3503 17.4495 17.7386 17.4962 18.1245C18.0634 23.0644 22.0531 28.8981 26.8935 28.8981H26.9815V22.8049C27.2564 22.7805 27.5112 22.6531 27.6932 22.4492C27.8752 22.2453 27.9705 21.9804 27.9593 21.7093V15.7026C27.9593 14.5878 30.0911 13.2423 31.949 13.2423C32.7627 13.1863 33.5789 13.3091 34.3383 13.6016C35.0977 13.8942 35.7814 14.3492 36.3396 14.9338V13.6844C36.3539 11.6532 35.6872 9.67401 34.4426 8.05249Z" fill="#FFCAB3"/>
<path d="M37.1793 5.9091C35.6982 3.84638 33.6014 2.28709 31.179 1.44704C28.7567 0.606986 26.1285 0.527701 23.6583 1.22015C21.1881 1.91261 18.998 3.34255 17.391 5.31212C15.784 7.28168 14.8396 9.69347 14.6885 12.2137C14.6885 12.4348 14.6885 12.6462 14.6885 12.8672V15.3084C14.6885 16.0519 14.9876 16.7652 15.5207 17.2928C16.0538 17.8203 16.7776 18.1192 17.5341 18.1243H17.5927C17.546 17.7384 17.5231 17.3501 17.5243 16.9614V13.6842C17.5254 13.3081 17.5516 12.9325 17.6025 12.5597C18.2283 12.5597 18.8639 12.6366 19.5582 12.6366C24.9126 12.6393 30.1398 11.033 34.539 8.03306C35.8087 9.65244 36.4965 11.6398 36.4947 13.6842V16.9422C36.4959 17.3308 36.473 17.7192 36.4263 18.1051H36.661C37.4167 18.0975 38.1389 17.7978 38.6715 17.2708C39.204 16.7438 39.504 16.0319 39.5066 15.2891V12.848C39.4743 10.355 38.6617 7.93228 37.1793 5.9091Z" fill="#063B5B"/>
<path d="M22.3545 29.6379V32.3193L23.3324 34.722L27.0678 31.0603C25.3857 31.0705 23.7409 30.5741 22.3545 29.6379Z" fill="#F8F8F9"/>
<path d="M31.7044 32.3193V29.6379C30.3318 30.5648 28.7054 31.0607 27.04 31.0603L30.7363 34.6932L31.7044 32.3193Z" fill="#D5D8D8"/>
<path d="M36.7586 29.6379H31.6933V32.3193L29.0824 38.5471L27.0094 31.0603L24.907 38.672L22.3156 32.2905L18.4629 36.0675L26.2075 43.6696H45.0215V37.7302C45.0138 35.5813 44.1398 33.5231 42.5911 32.0063C41.0423 30.4896 38.945 29.6379 36.7586 29.6379Z" fill="#50048D"/>
<path d="M22.3054 29.6379H19.5869L22.3054 32.3193V29.6379Z" fill="#063B5B"/>
<path d="M18.4628 36.0963L22.3155 32.3193L19.5873 29.6379H17.2404C16.1558 29.6379 15.0818 29.8481 14.0798 30.2563C13.0779 30.6645 12.1676 31.2629 11.4011 32.0171C10.6346 32.7713 10.0269 33.6667 9.61271 34.6519C9.19852 35.6371 8.98603 36.693 8.98731 37.759V43.6984H26.2074L18.4628 36.0963Z" fill="#5D7999"/>
<path d="M26.9973 31.0409L24.876 33.1287L27.0002 35.2135L29.1215 33.1257L26.9973 31.0409Z" fill="#5D7999"/>
<path d="M23.9978 18.1244H23.2155C23.2155 17.8696 23.1125 17.6251 22.9291 17.4449C22.7457 17.2646 22.497 17.1634 22.2377 17.1634C21.9783 17.1634 21.7296 17.2646 21.5462 17.4449C21.3629 17.6251 21.2598 17.8696 21.2598 18.1244H20.4775C20.4775 17.6656 20.663 17.2256 20.9931 16.9012C21.3231 16.5768 21.7709 16.3945 22.2377 16.3945C22.7045 16.3945 23.1522 16.5768 23.4823 16.9012C23.8124 17.2256 23.9978 17.6656 23.9978 18.1244Z" fill="#012428"/>
<path d="M33.5613 18.1244H32.779C32.779 17.8696 32.676 17.6251 32.4926 17.4449C32.3092 17.2646 32.0605 17.1634 31.8011 17.1634C31.5418 17.1634 31.2931 17.2646 31.1097 17.4449C30.9263 17.6251 30.8233 17.8696 30.8233 18.1244H30.0605C30.0605 17.6656 30.246 17.2256 30.5761 16.9012C30.9062 16.5768 31.3539 16.3945 31.8207 16.3945C32.2875 16.3945 32.7352 16.5768 33.0653 16.9012C33.3954 17.2256 33.5808 17.6656 33.5808 18.1244H33.5613Z" fill="#012428"/>
<path d="M25.9344 72.5594L24.6143 71.262V72.5594C25.2136 72.9672 25.9118 73.2126 26.6384 73.2706L25.9344 72.5594Z" fill="#FFCAB3"/>
<path d="M24.6143 70.3875V71.2428L25.9344 72.5403L26.658 73.2514H27.2252C27.9882 73.2165 28.7263 72.9736 29.3569 72.5499V70.3875H24.6143Z" fill="#F9B59D"/>
<path d="M29.23 63.9482C28.2226 64.0904 27.3073 64.602 26.668 65.3802L27.0004 72.1846C29.4353 72.1846 31.4399 69.2149 31.7235 66.7257C31.7235 66.5239 31.7235 66.3221 31.7235 66.1299V65.1111C31.5084 64.4576 29.9242 63.9482 29.23 63.9482Z" fill="#F9B59D"/>
<path d="M30.7645 61.6128C28.5498 63.1306 25.9154 63.9456 23.2154 63.9482C22.883 63.9482 22.5603 63.9482 22.2376 63.9482C22.2229 64.1401 22.2229 64.3329 22.2376 64.5248V66.1683C22.2376 66.3605 22.2376 66.5623 22.2376 66.7641C22.5212 69.2725 24.5551 72.223 26.9998 72.223H27.0487V69.138C27.1905 69.1281 27.3228 69.0644 27.4177 68.9604C27.5125 68.8564 27.5626 68.7202 27.5571 68.5806V65.534C27.5571 64.9765 28.6426 64.2846 29.5813 64.2846C29.9937 64.2553 30.4074 64.3179 30.7918 64.4677C31.1761 64.6174 31.5211 64.8505 31.801 65.1495V64.5248C31.7965 63.4676 31.4316 62.4423 30.7645 61.6128Z" fill="#FFCAB3"/>
<path d="M32.1529 60.5267C31.4021 59.477 30.3375 58.6829 29.1068 58.2548C27.8762 57.8267 26.5404 57.7856 25.2849 58.1374C24.0294 58.4892 22.9164 59.2164 22.1005 60.218C21.2846 61.2197 20.8061 62.4461 20.7314 63.7271C20.7314 63.8424 20.7314 63.9481 20.7314 64.0635V65.2936C20.7314 65.6701 20.8822 66.0315 21.1513 66.2995C21.4203 66.5675 21.7859 66.7206 22.1689 66.7256C22.1689 66.5238 22.1689 66.322 22.1689 66.1298V64.4863C22.1542 64.2944 22.1542 64.1016 22.1689 63.9097C22.4818 63.9097 22.8045 63.9097 23.1468 63.9097C25.8627 63.9126 28.5144 63.0975 30.7448 61.5743C31.3846 62.4034 31.7284 63.4168 31.7226 64.4575V66.1009C31.7226 66.2931 31.7226 66.495 31.7226 66.6968H31.8302C32.2149 66.6943 32.583 66.5423 32.8541 66.274C33.1252 66.0057 33.2774 65.6429 33.2774 65.2648V64.0346C33.2754 62.78 32.883 61.5559 32.1529 60.5267Z" fill="#012428"/>
<path d="M24.6143 72.5593V73.924L25.113 75.1446L25.9246 77.1532L27.0002 73.309C26.1548 73.3132 25.3286 73.0615 24.6338 72.5882L24.6143 72.5593Z" fill="#D5D8D8"/>
<path d="M29.3655 73.924V72.5593C28.6707 73.0327 27.8444 73.2844 26.999 73.2801L28.0551 77.1244L28.8667 75.2023L29.3752 74.0009L29.3655 73.924Z" fill="#D5D8D8"/>
<path d="M31.94 72.5594H29.3682V73.9241L28.1068 77.1149L27.0507 73.2706L25.975 77.1149L24.6647 73.8857L22.709 75.8078L26.6204 79.6521H36.1546V76.644C36.1507 76.1038 36.0387 75.5696 35.8248 75.072C35.6109 74.5744 35.2994 74.1231 34.908 73.7438C34.5166 73.3645 34.0531 73.0647 33.5438 72.8615C33.0346 72.6583 32.4896 72.5556 31.94 72.5594Z" fill="#012428"/>
<path d="M24.6141 72.5691H23.2256L24.6141 73.9242V72.5691Z" fill="#012428"/>
<path d="M22.6685 75.8366L24.6242 73.9144L23.2161 72.5593H22.0427C20.9318 72.5619 19.8673 72.9974 19.0827 73.7703C18.2981 74.5432 17.8574 75.5905 17.8574 76.6823V79.6905H26.5897L22.6685 75.8366Z" fill="#063B5B"/>
<path d="M26.9849 73.2556L25.9072 74.3167L26.9868 75.3759L28.0646 74.3148L26.9849 73.2556Z" fill="#063B5B"/>
<path d="M8.54863 64.5634L7.22852 63.2563V64.5634C7.82564 64.9671 8.52041 65.209 9.2429 65.265L8.54863 64.5634Z" fill="#FFCAB3"/>
<path d="M7.2666 62.401V63.2563L8.58672 64.5634L9.30054 65.265H9.65258H9.86771C10.6347 65.2269 11.376 64.9807 12.0092 64.5538V62.3914L7.2666 62.401Z" fill="#F9B59D"/>
<path d="M11.8823 55.9714C10.8714 56.1113 9.95225 56.6231 9.31055 57.4034L9.6528 64.2078C12.0877 64.2078 14.0825 61.2381 14.3661 58.7393C14.3803 58.5442 14.3803 58.3482 14.3661 58.1531V57.1247C14.151 56.4616 12.5766 55.9714 11.8823 55.9714Z" fill="#F9B59D"/>
<path d="M13.4369 53.6167C11.1998 55.1507 8.5374 55.9726 5.80961 55.9713C5.48692 55.9713 5.16423 55.9713 4.83175 55.9713C4.82171 56.1602 4.82171 56.3495 4.83175 56.5383V58.1914C4.83175 58.3836 4.83175 58.5758 4.83175 58.7776C5.11533 61.286 7.1395 64.2461 9.59393 64.2461H9.64281V61.1515C9.78375 61.144 9.91605 61.0824 10.0112 60.9799C10.1063 60.8774 10.1567 60.7423 10.1513 60.6037V57.5475C10.1513 56.9901 11.227 56.3077 12.1657 56.3077C12.5786 56.2792 12.9927 56.3412 13.3782 56.4891C13.7638 56.637 14.1112 56.8672 14.3952 57.1631V56.5383C14.416 55.4867 14.0787 54.4584 13.4369 53.6167Z" fill="#FFCAB3"/>
<path d="M14.7954 52.5307C14.0504 51.4741 12.9877 50.673 11.7563 50.2397C10.5249 49.8064 9.1864 49.7625 7.92835 50.1143C6.6703 50.466 5.55574 51.1958 4.74079 52.2013C3.92584 53.2068 3.45135 54.4376 3.38379 55.7214C3.38379 55.8367 3.38379 55.9521 3.38379 56.0578V57.2976C3.38379 57.6748 3.53625 58.0366 3.80766 58.3033C4.07907 58.5701 4.4472 58.72 4.83103 58.72C4.83103 58.5181 4.83103 58.3259 4.83103 58.1337V56.4807C4.82098 56.2918 4.82098 56.1025 4.83103 55.9136C5.15373 55.9136 5.47642 55.9136 5.80889 55.9136C8.52791 55.9167 11.1827 55.1017 13.4166 53.5782C14.0572 54.407 14.401 55.4207 14.3945 56.4614V58.1145C14.4088 58.3096 14.4088 58.5056 14.3945 58.7007H14.5118C14.7019 58.7007 14.8901 58.6639 15.0657 58.5925C15.2413 58.521 15.4008 58.4162 15.5352 58.2841C15.6696 58.1521 15.7762 57.9952 15.8489 57.8227C15.9216 57.6501 15.9591 57.4651 15.9591 57.2783V56.0386C15.9468 54.7796 15.5406 53.5548 14.7954 52.5307Z" fill="#012428"/>
<path d="M7.2666 64.5632V65.9183L7.75553 67.1389L8.57693 69.1571L9.65258 65.3129C8.80784 65.3128 7.98287 65.0615 7.28615 64.5921L7.2666 64.5632Z" fill="white"/>
<path d="M12.0177 65.9183V64.5632C11.3246 65.0325 10.5028 65.2839 9.66113 65.284L10.7074 69.0803L11.5288 67.1581L12.0373 65.9568L12.0177 65.9183Z" fill="white"/>
<path d="M14.5904 64.5632H12.0187V65.9183L10.6888 69.0803L9.64248 65.284L8.56683 69.1283L7.2565 65.8895L5.30078 67.8117L9.21222 71.6559H18.7464V68.6478C18.7387 67.5668 18.2983 66.5323 17.5206 65.7679C16.7429 65.0035 15.6903 64.5708 14.5904 64.5632Z" fill="#A3A3A3"/>
<path d="M7.25671 64.5632H5.87793L7.25671 65.928V64.5632Z" fill="#A3A3A3"/>
<path d="M5.31108 67.8405L7.2668 65.9183L5.87823 64.5632H4.69503C3.58413 64.5632 2.51858 64.9963 1.73214 65.7674C0.945705 66.5386 0.50259 67.5848 0.5 68.6766V71.6944H9.24207L5.31108 67.8405Z" fill="#D5D8D8"/>
<path d="M9.6492 65.2753L8.57129 66.3362L9.65071 67.3956L10.7286 66.3347L9.6492 65.2753Z" fill="#D5D8D8"/>
<path d="M43.3103 64.621L41.9805 63.314V64.621C42.579 65.0219 43.273 65.2636 43.9949 65.3226L43.3103 64.621Z" fill="#FFCAB3"/>
<path d="M41.9805 62.4106V63.266L43.3103 64.5731L44.0242 65.2746H44.3762H44.5913C45.3575 65.2399 46.0988 64.9971 46.7329 64.5731V62.4106H41.9805Z" fill="#F9B59D"/>
<path d="M46.606 55.9714C45.5933 56.1128 44.6736 56.6284 44.0342 57.413L44.3764 64.2078C46.8015 64.2078 48.8061 61.2477 49.0897 58.7489C49.0897 58.5471 49.0897 58.3549 49.0897 58.1627V57.1343C48.8746 56.4616 47.3002 55.9714 46.606 55.9714Z" fill="#F9B59D"/>
<path d="M48.1324 53.6265C45.9018 55.148 43.2497 55.9598 40.5344 55.9523C40.2118 55.9523 39.8891 55.9523 39.5566 55.9523C39.5566 56.1445 39.5566 56.3367 39.5566 56.5289V58.1819C39.5423 58.3771 39.5423 58.573 39.5566 58.7682C39.8402 61.2766 41.8643 64.2271 44.3188 64.2271H44.3677V61.142C44.5086 61.1322 44.64 61.0681 44.7333 60.9638C44.8266 60.8595 44.8745 60.7233 44.8664 60.5846V57.538C44.8664 56.9806 45.9518 56.2886 46.8905 56.2886C47.3043 56.26 47.7193 56.3229 48.1051 56.4725C48.4909 56.6222 48.8377 56.8549 49.1201 57.1536V56.5289C49.1349 55.4794 48.7867 54.456 48.1324 53.6265Z" fill="#FFCAB3"/>
<path d="M49.5191 52.5402C48.7721 51.4854 47.7086 50.6861 46.4771 50.254C45.2457 49.8219 43.9076 49.7785 42.6499 50.1299C41.3921 50.4813 40.2773 51.2099 39.4612 52.214C38.6451 53.2182 38.1684 54.4477 38.0977 55.731C38.0977 55.8463 38.0977 55.952 38.0977 56.0674V57.3071C38.1002 57.6836 38.2535 58.0439 38.5244 58.3101C38.7952 58.5763 39.1619 58.727 39.5449 58.7295C39.5306 58.5344 39.5306 58.3384 39.5449 58.1433V56.4902C39.5449 56.298 39.5449 56.1058 39.5449 55.9136C39.8676 55.9136 40.1903 55.9136 40.5228 55.9136C43.2424 55.921 45.8986 55.1056 48.1305 53.5782C48.7771 54.4038 49.1216 55.4196 49.1084 56.4614V58.1144C49.1084 58.3066 49.1084 58.4989 49.1084 58.7007H49.2257C49.6087 58.6982 49.9754 58.5475 50.2462 58.2813C50.5171 58.0151 50.6704 57.6548 50.6729 57.2783V56.0674C50.6695 54.8025 50.2663 53.57 49.5191 52.5402Z" fill="#012428"/>
<path d="M41.9805 64.6211V65.9762L42.4792 67.1968L43.3006 69.2054L44.3762 65.3611C43.5315 65.3611 42.7065 65.1098 42.0098 64.6403L41.9805 64.6211Z" fill="white"/>
<path d="M46.7434 65.9282V64.6211C46.0497 65.0893 45.2282 65.3405 44.3867 65.3419L45.433 69.1862L46.2544 67.264L46.7629 66.0627L46.7434 65.9282Z" fill="white"/>
<path d="M49.3151 64.621H46.7433V65.9761L45.4134 69.138L44.3671 65.2937L43.2915 69.138L41.9713 65.9088L40.0156 67.8309L43.9271 71.6752H53.5297V68.6671C53.5116 67.5828 53.0587 66.5494 52.2695 65.7917C51.4802 65.034 50.4184 64.6132 49.3151 64.621Z" fill="#063B5B"/>
<path d="M41.9803 64.573H40.6016L41.9803 65.9281V64.573Z" fill="#063B5B"/>
<path d="M40.0347 67.8405L41.9904 65.9183L40.6019 64.6209H39.4187C38.8682 64.6196 38.3229 64.7251 37.814 64.9312C37.3051 65.1374 36.8426 65.4402 36.4529 65.8222C36.0632 66.2043 35.7541 66.6582 35.5432 67.1579C35.3322 67.6576 35.2236 68.1933 35.2236 68.7342V71.7424H43.9559L40.0347 67.8405Z" fill="#A3A3A3"/>
<path d="M44.3582 65.257L43.2812 66.3188L44.3616 67.3773L45.4386 66.3155L44.3582 65.257Z" fill="#A3A3A3"/>
</g>
<defs>
<clipPath id="clip0_64_107782">
<rect width="53" height="79" fill="white" transform="translate(0.5 0.700195)"/>
</clipPath>
</defs>
</svg>
