<svg width="229" height="720" viewBox="0 0 229 720" fill="none" xmlns="http://www.w3.org/2000/svg">
<g clip-path="url(#clip0_14_5009)">
<path d="M88.0317 589.667C88.0317 589.667 89.8025 671.475 89.8025 671.519C90.043 687.173 90.5459 700.88 91.4641 707.964V708.073C91.491 709.752 91.9182 711.401 92.7102 712.883V712.992C97.4106 716.053 222.506 717.67 226.901 716.271C231.295 714.872 227.6 702.257 222.791 698.322C217.981 694.387 170.321 672.35 170.321 672.35L167.851 590.585L88.0317 589.667Z" fill="#EB9481"/>
<path d="M89.4312 654.729C89.4312 654.729 89.8028 671.475 89.8028 671.519C90.0433 687.172 90.5461 700.88 91.4643 707.963V708.072C91.6832 709.72 92.1017 711.335 92.7105 712.882V712.991C97.4109 716.052 222.507 717.67 226.901 716.271C231.295 714.872 227.6 702.257 222.791 698.322C217.981 694.387 170.321 672.349 170.321 672.349L170.19 655.297L89.4312 654.729Z" fill="#455A64"/>
<path d="M227.01 716.271C222.638 717.692 97.52 716.075 92.8196 712.97C91.005 711.833 90.1743 693.6 89.8026 671.432V670.907L170.518 671.038V672.416C170.518 672.416 218.112 694.453 222.987 698.388C227.863 702.323 231.404 714.872 227.01 716.271Z" fill="#263238"/>
<path d="M225.654 711.395C204.579 710.608 119.47 709.406 98.5912 710.237C98.4163 710.237 98.4163 710.346 98.5912 710.368C119.47 711.614 204.579 712.117 225.676 711.745C226.092 711.745 226.092 711.417 225.654 711.395Z" fill="#263238"/>
<path d="M177.252 672.678C168.966 671.017 158.8 672.175 152.373 677.991C152.132 678.209 152.373 678.559 152.722 678.494C160.683 676.034 168.885 674.436 177.186 673.728C177.255 673.734 177.325 673.726 177.391 673.705C177.456 673.684 177.518 673.65 177.571 673.605C177.623 673.561 177.667 673.506 177.698 673.444C177.73 673.383 177.749 673.316 177.755 673.247C177.761 673.105 177.712 672.967 177.618 672.861C177.524 672.755 177.393 672.689 177.252 672.678Z" fill="#263238"/>
<path d="M183.154 676.373C174.891 674.712 164.725 675.848 158.297 681.686C158.057 681.904 158.297 682.254 158.647 682.167C166.623 679.72 174.84 678.144 183.154 677.466C183.299 677.466 183.438 677.409 183.541 677.306C183.643 677.204 183.701 677.065 183.701 676.92C183.701 676.775 183.643 676.636 183.541 676.533C183.438 676.431 183.299 676.373 183.154 676.373Z" fill="#263238"/>
<path d="M189.188 680.045C180.924 678.405 170.758 679.542 164.331 685.357C164.09 685.598 164.331 685.948 164.68 685.86C172.658 683.408 180.873 681.81 189.188 681.094C189.257 681.097 189.326 681.086 189.39 681.063C189.455 681.039 189.515 681.003 189.565 680.956C189.616 680.909 189.657 680.853 189.686 680.791C189.715 680.728 189.732 680.66 189.734 680.591C189.738 680.519 189.725 680.446 189.699 680.379C189.673 680.311 189.633 680.249 189.581 680.198C189.53 680.147 189.468 680.106 189.401 680.08C189.333 680.054 189.261 680.042 189.188 680.045Z" fill="#263238"/>
<path d="M74.4335 286.481L82.7411 530.923L87.6601 675.017L175.131 671.409L149.661 279.988L147.847 235.148L73.9525 236.723L74.4335 286.481Z" fill="#37474F"/>
<path d="M171.152 656.894C157.488 657.068 161.401 656.894 147.737 657.156C141.047 657.309 97.126 658.38 90.8953 659.626C90.8721 659.654 90.8595 659.689 90.8595 659.725C90.8595 659.761 90.8721 659.796 90.8953 659.823C97.1697 660.654 141.178 658.796 147.737 658.511C161.401 657.921 157.466 657.943 171.108 657.2C171.134 657.206 171.162 657.207 171.188 657.201C171.215 657.196 171.24 657.184 171.261 657.167C171.282 657.15 171.299 657.128 171.31 657.104C171.322 657.079 171.327 657.052 171.326 657.025C171.314 656.988 171.29 656.956 171.259 656.933C171.228 656.909 171.19 656.896 171.152 656.894Z" fill="#263238"/>
<path d="M124.563 300.518C124.563 300.518 124.563 300.343 124.563 300.321C124.576 300.307 124.591 300.296 124.608 300.288C124.625 300.28 124.643 300.276 124.662 300.276C124.68 300.276 124.699 300.28 124.716 300.288C124.733 300.296 124.748 300.307 124.76 300.321V300.43C125.285 323.298 126.465 346.166 127.493 369.034C128.52 391.902 129.679 414.748 130.794 437.594C132.98 483.286 135.822 528.956 138.49 574.604C139.947 600.227 141.674 625.828 143.671 651.406C143.671 651.441 143.657 651.475 143.632 651.499C143.608 651.524 143.575 651.538 143.54 651.538C143.505 651.538 143.472 651.524 143.447 651.499C143.422 651.475 143.409 651.441 143.409 651.406C139.036 605.824 134.97 560.219 132.171 514.505C129.373 468.791 127.099 423.165 125.919 377.429C125.35 351.85 125.154 326.271 124.563 300.518Z" fill="#263238"/>
<path d="M74.4335 286.481L82.7411 530.923L135.123 235.433L73.9525 236.722L74.4335 286.481Z" fill="#263238"/>
<path d="M70.6728 592.486C70.6728 592.486 61.9279 670.687 61.9279 670.731C62.1684 686.384 62.081 700.114 61.3814 707.197C61.4046 708.878 61.03 710.541 60.2883 712.05V712.16C55.6753 715.373 -69.311 720.905 -73.7491 719.615C-78.1871 718.325 -74.8859 705.623 -70.1855 701.535C-65.4851 697.446 -18.5032 673.879 -18.5032 673.879L-7.11291 591.896L70.6728 592.486Z" fill="#EB9481"/>
<path d="M62.9123 653.964C62.3002 663.758 61.9068 670.688 61.9068 670.732C62.1472 686.386 62.0598 700.115 61.3602 707.198C61.1937 708.854 60.8267 710.484 60.2671 712.052V712.161C55.6542 715.375 -69.3324 720.906 -73.7704 719.616C-78.2084 718.326 -74.9072 705.624 -70.2068 701.536C-65.5064 697.448 -18.5026 673.88 -18.5026 673.88L-17.3002 656.609L62.9123 653.964Z" fill="#455A64"/>
<path d="M-73.9019 719.79C-69.5295 721.058 55.5225 715.571 60.1354 712.335C61.9063 711.133 62.1687 692.878 61.8626 670.797V670.119L-18.8091 672.764V674.12C-18.8091 674.12 -65.7035 697.622 -70.4039 701.732C-75.1043 705.842 -78.3181 718.457 -73.9019 719.79Z" fill="#263238"/>
<path d="M-72.6337 714.806C-51.5804 713.363 33.4419 709.515 54.3422 709.69C54.5171 709.69 54.5171 709.822 54.3422 709.822C33.5075 711.724 -51.5366 714.872 -72.6337 715.156C-73.1584 715.156 -73.1584 714.85 -72.6337 714.806Z" fill="#263238"/>
<path d="M140.326 235.236C140.042 236.745 135.385 260.837 130.466 281.541C126.902 296.669 123.164 309.961 120.89 311.404C118.617 312.847 105.762 318.881 101.542 320.74L86.0419 506.94L63.5893 674.558L-23.8596 671.869L30.3587 290.285L39.1036 237.379L140.326 235.236Z" fill="#37474F"/>
<path d="M62.9116 658.576C49.2477 657.986 53.1829 657.964 39.519 657.527C32.9604 657.308 -11.092 655.909 -17.3228 656.806C-17.4758 656.806 -17.4758 657.046 -17.3228 657.068C-11.092 658.248 32.9604 658.882 39.519 658.97C53.1829 659.145 49.2477 658.97 62.9116 658.97C62.9455 658.93 62.9641 658.88 62.9641 658.828C62.9641 658.776 62.9455 658.725 62.9116 658.686V658.576Z" fill="#263238"/>
<path d="M11.7324 612.076C13.6125 600.095 15.5145 588.115 17.4384 576.134C21.3299 552.173 25.2651 528.227 29.244 504.295C37.2019 456.344 45.0285 408.385 52.7241 360.42C57.0965 333.31 56.9871 335.846 60.7037 308.672C60.7037 308.475 61.0316 308.497 60.9879 308.672C57.4025 332.829 59.239 327.517 55.8722 351.718C52.5054 375.92 48.9419 399.64 45.1816 423.536C37.6172 471.633 29.6375 519.555 21.5266 567.499C19.2529 580.951 16.9502 594.389 14.6182 607.813C12.2352 621.498 9.48057 635.119 6.96641 648.804C6.96641 649.11 6.44165 649.089 6.48538 648.804C8.25622 636.561 9.9178 624.297 11.7324 612.076Z" fill="#263238"/>
<path d="M43.0828 293.215C45.2691 292.581 47.8051 292.34 50.1225 291.925C52.0027 291.597 53.8828 291.225 55.7193 290.766C59.2804 290.05 62.6396 288.557 65.5573 286.394C68.4662 283.612 70.6052 280.125 71.7661 276.272C72.6624 274.085 75.1548 264.094 75.5483 262.804C75.5759 262.781 75.6107 262.769 75.6467 262.769C75.6827 262.769 75.7174 262.781 75.745 262.804C75.5045 264.466 74.8924 276.119 70.7167 284.208C67.7435 289.957 61.2722 292.1 55.1289 292.952C53.3581 293.215 51.5873 293.368 49.8164 293.499C47.5836 293.783 45.3284 293.849 43.0828 293.696C43.0468 293.677 43.0148 293.652 42.9886 293.621C42.9625 293.59 42.9426 293.554 42.9304 293.515C42.9182 293.477 42.9139 293.436 42.9175 293.396C42.9211 293.355 42.9327 293.316 42.9517 293.28C42.9517 293.28 43.061 293.237 43.0828 293.215Z" fill="#263238"/>
<path d="M127.559 307.993C118.604 311.497 109.966 315.761 101.739 320.738C101.687 320.795 101.658 320.869 101.658 320.946C101.658 321.023 101.687 321.097 101.739 321.154C101.772 321.214 101.826 321.261 101.89 321.285C101.954 321.309 102.025 321.309 102.089 321.285C110.834 317.306 119.732 313.48 128.324 309.042C128.46 308.964 128.561 308.836 128.606 308.686C128.651 308.535 128.636 308.373 128.564 308.233C128.486 308.091 128.354 307.986 128.199 307.941C128.043 307.896 127.876 307.915 127.734 307.993H127.559Z" fill="#263238"/>
<path d="M128.936 247.566C128.936 247.26 128.367 247.195 128.367 247.566C128.586 257.405 128.301 267.249 127.515 277.058C127.208 281.606 124.082 306.769 116.168 305.108C114.856 304.823 114.157 303.534 113.982 301.566C113.963 298.967 114.264 296.375 114.878 293.849C115.643 288.58 116.234 283.289 116.562 277.977C117.269 268.081 116.947 258.139 115.6 248.31C115.59 248.277 115.573 248.246 115.551 248.219C115.529 248.192 115.502 248.17 115.472 248.154C115.442 248.138 115.408 248.128 115.374 248.124C115.339 248.121 115.305 248.125 115.272 248.135C115.229 248.145 115.191 248.167 115.16 248.198C115.129 248.229 115.107 248.267 115.097 248.31C115.622 262.007 115.118 275.724 113.588 289.345C112.736 295.904 109.653 305.785 116.496 306.638C123.339 307.491 127.624 290.963 128.367 286.437C130.228 273.559 130.419 260.494 128.936 247.566Z" fill="#263238"/>
<path d="M116.409 305.808C115.775 307.491 115.256 309.214 114.857 310.968C114.377 312.374 114.155 313.855 114.201 315.34C114.208 315.38 114.224 315.419 114.247 315.452C114.271 315.486 114.301 315.514 114.336 315.535C114.372 315.555 114.411 315.568 114.452 315.572C114.493 315.577 114.534 315.572 114.572 315.559C114.608 315.556 114.643 315.545 114.674 315.526C114.704 315.507 114.729 315.481 114.747 315.449C115.536 314.145 116.126 312.73 116.496 311.252C117.065 309.634 117.655 308.016 118.18 306.377C118.244 306.161 118.226 305.93 118.128 305.728C118.029 305.526 117.859 305.368 117.65 305.285C117.441 305.203 117.209 305.202 116.999 305.282C116.79 305.363 116.618 305.519 116.518 305.721L116.409 305.808Z" fill="#263238"/>
<path d="M37.3552 248.506C37.6394 248.834 148.284 246.167 148.284 246.167C148.896 245.467 156.504 241.248 153.116 223.867C144.152 177.957 111.84 113.507 103.773 103.013C100.974 99.4056 83.5064 94.5521 73.4279 102.86C52.0248 120.481 32.3925 221.615 34.2508 235.126C35.3439 243.193 36.8743 247.981 37.3552 248.506Z" fill="#E1D172"/>
<path d="M95.8361 134.145L99.7713 123.673L109.063 131.106L106.767 140.266L99.2248 141.031L95.8361 134.145Z" fill="#263238"/>
<path d="M99.2251 141.033L92.3166 217.376L107.62 242.167L119.316 214.359L106.768 140.268L99.2251 141.033Z" fill="#263238"/>
<path d="M103.183 108.282C108.014 116.481 125.876 145.12 136.457 166.021C143.562 180.078 147.388 192.255 148.94 195.294C148.94 195.294 107.708 187.642 99.7721 188.932C87.5729 190.922 75.9204 225.573 81.2548 227.978C89.6499 231.76 128.893 239.128 158.516 239.74C174.628 240.09 200.797 215.342 195.857 199.951C188.926 178.329 139.233 126.516 121.263 112.502C111.928 105.178 97.3672 98.2695 103.183 108.282Z" fill="#EB9481"/>
<path d="M198.786 204.28C200.688 220.371 182.936 237.074 171.458 239.719C151.782 244.244 88.8846 236.68 88.8846 236.68L104.757 187.971C104.757 187.971 147.825 195.076 148.918 195.295C148.372 194.158 132.084 158.129 125.526 146.302C125.154 145.646 124.761 144.99 124.389 144.29C122.531 141.033 120.017 136.748 117.218 132.135L112.452 124.265C105.5 112.852 98.7883 102.009 98.7883 102.009C105.828 102.009 113.217 104.479 126.269 114.317C139.321 124.155 195.747 177.74 198.786 204.28Z" fill="#E1D172"/>
<path d="M102.461 223.78C103.533 220.304 104.647 216.85 105.719 213.374C106.79 209.898 107.905 206.597 108.954 203.208C110.181 199.723 111.225 196.177 112.081 192.583C110.572 195.77 109.265 199.048 108.167 202.399C106.958 205.824 105.792 209.264 104.669 212.718C103.547 216.172 102.483 219.576 101.477 222.928C100.358 226.452 99.4667 230.045 98.8102 233.684C98.8102 233.837 99.0071 233.946 99.0727 233.684C100.378 230.446 101.509 227.14 102.461 223.78Z" fill="#263238"/>
<path d="M162.494 199.841L148.94 195.294C148.393 194.157 132.106 158.128 125.547 146.301C125.175 145.645 124.782 144.989 124.41 144.289C122.552 141.032 120.038 136.747 117.239 132.134L162.494 199.841Z" fill="#263238"/>
<path d="M173.688 203.624C169.771 201.632 165.733 199.887 161.598 198.399C159.543 197.655 157.466 196.999 155.368 196.431C153.181 195.863 150.777 195.535 148.547 194.944C148.512 194.944 148.478 194.958 148.454 194.983C148.429 195.007 148.415 195.041 148.415 195.076C148.415 195.11 148.429 195.144 148.454 195.168C148.478 195.193 148.512 195.207 148.547 195.207C150.733 195.775 152.679 196.693 154.712 197.393L161.117 199.579C165.337 200.935 169.491 202.421 173.688 203.82C173.732 203.842 173.885 203.667 173.688 203.624Z" fill="#263238"/>
<path d="M158.931 241.007C153.072 241.444 147.213 241.576 141.441 241.619C135.669 241.663 129.701 241.423 123.951 241.182C118.202 240.942 112.233 240.395 106.461 239.674C100.631 238.978 94.8438 237.964 89.1248 236.635C94.962 237.356 100.777 237.968 106.615 238.427C112.452 238.887 118.267 239.302 124.104 239.564L141.594 240.351L158.931 241.007Z" fill="#263238"/>
<path d="M162.495 199.842C159.368 200.41 145.989 196.147 142.294 201.132C126.99 221.857 125.373 216.632 122.137 219.277C97.1704 239.719 57.5997 258.105 44.4605 260.4C24.544 263.855 13.8534 248.442 14.5311 231.979C15.9303 199.623 48.024 131.697 64.4207 112.349C73.1656 102.096 74.4555 115.169 72.5972 129.839C71.5041 138.475 69.2304 151.461 66.8474 164.206C64.6612 175.553 58.9988 204.652 58.9114 205.329H59.1301C59.9827 205.023 81.7356 190.026 104.45 179.969C112.474 176.449 129.373 170.503 136.085 172.252C137.218 172.519 138.281 173.023 139.205 173.732C140.128 174.44 140.89 175.337 141.441 176.362C143.7 176.055 145.997 176.476 148 177.564C149.5 178.797 150.509 180.527 150.842 182.44C152.72 182.638 154.52 183.291 156.089 184.342C158.494 186.265 157.554 190.9 157.554 190.9C163.479 192.125 162.495 199.842 162.495 199.842Z" fill="#EB9481"/>
<path d="M134.314 177.193C131.826 177.725 129.384 178.456 127.012 179.379C126.977 179.379 126.944 179.393 126.919 179.417C126.895 179.442 126.881 179.475 126.881 179.51C126.881 179.545 126.895 179.578 126.919 179.603C126.944 179.627 126.977 179.641 127.012 179.641C129.395 178.963 131.844 178.504 134.27 178.023C136.697 177.542 139.124 177.083 141.551 176.734C139.129 176.668 136.707 176.821 134.314 177.193Z" fill="#263238"/>
<path d="M150.886 182.679C146.407 182.016 141.836 182.359 137.506 183.685C137.483 183.713 137.47 183.747 137.47 183.783C137.47 183.819 137.483 183.854 137.506 183.882C141.88 182.903 146.364 182.499 150.842 182.679C150.842 182.679 150.951 182.679 150.886 182.679Z" fill="#263238"/>
<path d="M157.422 191.053C153.208 190.031 148.823 189.934 144.567 190.769C144.539 190.781 144.515 190.8 144.497 190.825C144.48 190.851 144.471 190.881 144.471 190.911C144.471 190.942 144.48 190.972 144.497 190.997C144.515 191.022 144.539 191.042 144.567 191.053C148.843 190.747 153.137 190.813 157.4 191.25L157.422 191.053Z" fill="#263238"/>
<path d="M103.336 180.712C101.322 181.406 99.3444 182.201 97.4109 183.095C95.334 183.991 93.279 184.931 91.2676 185.981C87.2843 188.098 83.4164 190.426 79.6806 192.955C79.5494 192.955 79.6806 193.283 79.8117 193.195C83.7032 191.009 87.6603 189.019 91.6174 187.008C93.5631 186.024 95.4871 184.997 97.4328 183.991C99.3786 182.985 101.521 182.089 103.445 180.952C103.576 180.887 103.489 180.668 103.336 180.712Z" fill="#263238"/>
<path d="M87.573 187.904C89.4731 186.769 91.5276 185.914 93.6725 185.368L125.438 223.19C125.438 223.19 61.1196 259.109 47.3245 262.869C43.6999 263.761 39.9351 263.93 36.2452 263.367C32.5552 262.804 29.0123 261.519 25.8188 259.586C22.6254 257.654 19.844 255.111 17.6334 252.103C15.4229 249.095 13.8264 245.681 12.9353 242.057C12.9353 241.576 12.7166 241.117 12.6292 240.636C8.25673 215.909 38.7108 149.754 55.2387 123.388C62.803 111.299 72.4005 101.854 75.4612 103.122C79.0685 104.631 75.3082 118.863 73.8215 129.357C71.045 148.574 59.2176 205.678 59.2176 205.678C59.2176 205.678 82.5884 190.527 87.573 187.904Z" fill="#E1D172"/>
<path d="M93.5187 185.369C89.6929 186.243 73.9958 194.792 66.4097 199.645C58.8338 204.447 51.7264 209.952 45.1814 216.085C41.4867 219.583 38.0543 223.3 34.6656 227.016C34.6656 227.148 34.6656 227.344 34.8623 227.213C47.7154 214.784 61.8522 203.754 77.0347 194.311C81.4071 191.731 88.9496 187.752 93.3221 185.741C94.5463 185.238 93.5187 185.347 93.5187 185.369Z" fill="#263238"/>
<path d="M71.0014 151.373C70.2363 153.231 69.4492 155.068 68.8152 156.992V157.254C69.4711 153.013 70.0614 148.793 70.586 144.53C70.586 144.472 70.563 144.417 70.522 144.376C70.481 144.335 70.4255 144.312 70.3675 144.312C70.3095 144.312 70.2538 144.335 70.2128 144.376C70.1718 144.417 70.1488 144.472 70.1488 144.53C66.7164 160.402 63.765 176.362 60.9666 192.321C60.1796 196.803 59.5893 201.285 58.9553 205.766C58.9553 205.919 59.1739 205.963 59.2177 205.766C60.2233 201.831 61.2509 197.94 62.1254 193.983C62.9999 190.025 63.7212 186.025 64.5083 182.046C65.8346 175.079 67.0662 168.098 68.203 161.102C68.7058 159.834 69.2088 158.544 69.6898 157.254C70.3675 155.374 70.8483 153.45 71.3512 151.526C71.3819 151.494 71.3991 151.451 71.3991 151.406C71.3991 151.361 71.3819 151.318 71.3512 151.286C71.3151 151.253 71.2684 151.235 71.22 151.235C71.1716 151.235 71.1249 151.253 71.0888 151.286L71.0014 151.373Z" fill="#263238"/>
<path d="M107.795 216.172L100.843 207.799L94.0655 199.535C91.8153 196.607 89.4069 193.805 86.851 191.14C88.6965 194.139 90.7339 197.017 92.9505 199.753C95.1368 202.639 97.323 205.481 99.706 208.323C102.089 211.165 104.232 213.833 106.549 216.544C108.888 219.411 111.423 222.114 114.135 224.633C114.244 224.633 114.441 224.633 114.354 224.458C112.322 221.577 110.132 218.811 107.795 216.172Z" fill="#263238"/>
<path d="M126.444 223.124C123.711 219.385 119.885 215.931 116.825 212.455C116.825 212.324 116.519 212.455 116.628 212.652C119.382 215.931 122.006 219.495 124.673 222.84C115.928 228.283 106.527 233.377 97.4984 238.362C88.4693 243.346 78.9155 248.397 69.3617 252.944C64.0273 255.502 58.693 258.169 53.293 260.574C52.9651 260.727 53.0961 261.011 53.4459 260.88C63.2377 257.164 72.7946 252.857 82.0637 247.981C91.5519 243.15 100.865 237.947 110.091 232.678C115.382 229.661 126.663 223.517 126.444 223.124Z" fill="#263238"/>
<path d="M102.724 180.842C91.5767 185.935 80.7102 191.62 70.1707 197.873L69.7116 198.135C64.2241 201.415 60.9667 203.732 60.0266 204.016H59.808C59.1809 203.709 58.5207 203.474 57.8404 203.317C56.0914 203.011 39.8697 203.645 39.4543 198.66C39.0389 193.676 45.5538 192.954 46.5158 192.867C45.4664 192.867 36.5029 192.211 38.6016 187.445C40.0883 184.056 48.702 183.072 49.5328 183.072C48.6145 182.941 40.2632 181.673 42.2745 176.82C43.6955 173.344 53.2056 172.185 54.4299 172.185C53.4898 171.988 46.2316 171.988 48.8988 167.638C50.7571 164.642 69.1431 164.358 77.7787 167.004C90.6556 170.764 102.724 180.842 102.724 180.842Z" fill="#EB9481"/>
<path d="M70.1707 197.873L69.7115 198.136C62.5312 194.88 54.7689 193.103 46.8873 192.911C46.3627 192.911 46.2971 192.648 46.8873 192.583C55.0062 191.932 63.13 193.778 70.1707 197.873Z" fill="#263238"/>
<path d="M49.9914 183.138C61.6877 183.509 67.1969 185.171 77.9532 189.696C77.9747 189.672 77.9865 189.641 77.9865 189.609C77.9865 189.577 77.9747 189.545 77.9532 189.521C67.7654 184.231 61.5783 181.804 49.9476 182.963C49.5323 182.897 49.4667 183.116 49.9914 183.138Z" fill="#263238"/>
<path d="M54.8446 172.163C66.1692 173.256 72.3344 174.808 82.1943 180.449C82.4348 180.58 82.6534 180.274 82.4347 180.121C74.5402 174.153 64.7643 171.22 54.8884 171.857C54.1669 171.879 54.1669 172.098 54.8446 172.163Z" fill="#263238"/>
<path d="M98.0667 122.646C93.6943 123.673 80.3583 116.809 74.8053 108.654C74.4336 108.086 74.5867 84.212 74.1276 79.4898C74.1276 78.506 104.516 83.8622 104.516 83.8622C103.399 89.945 103.032 96.1418 103.423 102.314C103.489 102.967 103.621 103.612 103.817 104.238V104.566C104.844 108.151 104.451 121.159 98.0667 122.646Z" fill="#EB9481"/>
<path d="M76.0299 79.4463C77.8445 86.5297 84.3814 106.184 100.844 104.981C101.861 104.917 102.87 104.764 103.86 104.522C103.882 104.414 103.882 104.303 103.86 104.194C103.703 103.56 103.579 102.918 103.489 102.27C103.098 96.0983 103.465 89.9015 104.582 83.8187C104.582 83.8187 82.7635 80.0366 76.0299 79.4463Z" fill="#263238"/>
<path d="M67.9622 42.9784C65.3388 53.7347 72.6626 83.9045 80.5549 90.2883C92.0107 99.5142 109.894 99.4486 117.524 85.9159C124.913 72.7985 114.682 33.5996 105.937 27.8935C92.9945 19.411 71.8318 27.1065 67.9622 42.9784Z" fill="#EB9481"/>
<path d="M93.1478 58.502C93.1478 58.502 93.0166 58.6331 93.0385 58.7206C93.585 60.7319 93.8692 63.093 92.2077 64.2517C94.4158 63.5302 94.0004 60.3384 93.1478 58.502Z" fill="#263238"/>
<path d="M90.8087 56.8174C87.4856 57.3421 88.7755 63.9663 91.8799 63.3761C94.9844 62.7858 93.6289 56.3583 90.8087 56.8174Z" fill="#263238"/>
<path d="M104.756 56.6875C104.756 56.6875 104.931 56.6875 104.953 56.8405C105.281 59.0267 106.024 61.213 108.014 61.5409C105.697 61.7377 104.735 58.7644 104.756 56.6875Z" fill="#263238"/>
<path d="M106.112 54.1943C109.37 53.2979 110.944 59.8566 107.927 60.753C104.91 61.6493 103.445 54.9376 106.112 54.1943Z" fill="#263238"/>
<path d="M87.5941 55.1791C88.4467 54.7638 89.1681 54.2609 89.977 53.78C90.8878 53.392 91.6529 52.7264 92.1632 51.8779C92.2704 51.5797 92.2749 51.2542 92.1759 50.9531C92.0768 50.6521 91.88 50.3927 91.6166 50.2164C91.0432 49.9501 90.4094 49.8401 89.7797 49.8977C89.1501 49.9553 88.5468 50.1784 88.0312 50.5444C86.8761 51.1343 85.9805 52.1312 85.5171 53.3427C85.4016 53.7312 85.445 54.1496 85.6376 54.5062C85.8302 54.8628 86.1564 55.1284 86.5446 55.2447C86.8902 55.3556 87.265 55.3322 87.5941 55.1791Z" fill="#263238"/>
<path d="M107.511 48.9269C106.571 48.9269 105.696 48.9269 104.756 48.752C103.771 48.8421 102.785 48.5955 101.958 48.0524C101.76 47.838 101.632 47.5675 101.593 47.278C101.554 46.9886 101.605 46.6941 101.739 46.4346C102.13 45.9371 102.645 45.5516 103.232 45.3174C103.82 45.0832 104.459 45.0086 105.084 45.101C106.376 45.0941 107.623 45.5697 108.582 46.4346C108.728 46.5771 108.843 46.7472 108.922 46.9349C109.001 47.1226 109.042 47.3241 109.042 47.5277C109.042 47.7313 109.001 47.9329 108.922 48.1206C108.843 48.3083 108.728 48.4784 108.582 48.6209C108.274 48.8501 107.893 48.9589 107.511 48.9269Z" fill="#263238"/>
<path d="M95.3122 78.1333C95.9025 78.505 96.5366 79.0734 97.2799 78.986C98.0664 78.8291 98.8112 78.5089 99.4661 78.0459C99.2492 78.5079 98.9109 78.9024 98.4874 79.1873C98.0638 79.4723 97.5709 79.6369 97.0612 79.6637C96.6217 79.6427 96.1989 79.4895 95.8478 79.2243C95.4968 78.959 95.234 78.5941 95.0937 78.1771C95.0795 78.1581 95.0718 78.1351 95.0718 78.1115C95.0718 78.0878 95.0795 78.0648 95.0937 78.0459L95.3122 78.1333Z" fill="#263238"/>
<path d="M96.2739 71.5534C96.9509 72.2653 97.7695 72.8276 98.6769 73.2041C99.5843 73.5806 100.56 73.7631 101.543 73.7397C102.402 73.7481 103.258 73.6227 104.079 73.368L104.56 73.2149L104.997 73.0619C105.105 73.0224 105.195 72.9456 105.251 72.8453C105.307 72.745 105.326 72.628 105.303 72.5153C105.325 72.4441 105.325 72.368 105.303 72.2967V72.1218C105.019 70.5478 104.407 68.1648 104.407 68.1648C105.041 68.3397 108.233 69.083 108.036 68.2741C106.462 61.1845 104.161 54.2759 101.171 47.658C101.171 47.4394 100.734 47.658 100.799 47.7673C102.22 54.326 104.8 60.6004 106.33 67.1591C105.187 66.8787 104.009 66.7609 102.833 66.8093C102.614 66.9186 104.122 71.3785 104.188 72.1C102.918 72.4773 101.585 72.5982 100.268 72.4555C98.9503 72.3129 97.6744 71.9096 96.5143 71.2692C96.252 71.2473 96.1208 71.4223 96.2739 71.5534Z" fill="#263238"/>
<path d="M111.905 36.2251C110.703 34.7166 108.014 31.8526 105.346 32.6397C101.958 33.7328 99.3779 37.7336 96.2079 38.2583C93.0378 38.7829 83.8339 35.2194 78.9368 41.9967C73.4494 49.561 82.2598 68.6905 71.0663 70.6799C68.1586 60.3391 66.6939 48.8177 68.0712 42.9805C71.9408 27.1085 93.169 19.4567 106.046 27.8518C108.651 30.1247 110.662 32.9989 111.905 36.2251Z" fill="#263238"/>
<path d="M75.8982 67.5086C75.8982 67.5086 68.2463 58.1953 63.9613 60.9499C59.6763 63.7045 65.9727 77.6308 71.3727 79.183C72.7094 79.6621 74.1814 79.5931 75.4674 78.991C76.7535 78.389 77.7492 77.3027 78.2374 75.9693V75.7506L75.8982 67.5086Z" fill="#EB9481"/>
<path d="M65.8631 64.8857V65.0388C67.6164 65.7471 69.2013 66.8156 70.5156 68.1751C71.8299 69.5346 72.8443 71.1548 73.493 72.931C73.0335 72.3009 72.3434 71.8782 71.5732 71.7553C70.8031 71.6324 70.0156 71.8193 69.3829 72.2752L69.1205 72.4719C69.1205 72.4719 69.1205 72.6906 69.1205 72.6468C69.751 72.3914 70.4453 72.3383 71.1073 72.495C71.7693 72.6517 72.3662 73.0103 72.8153 73.5213C73.578 74.3742 74.2383 75.3133 74.7828 76.3197C74.9796 76.6258 75.548 76.3197 75.395 76.0355C75.0889 71.2476 70.9351 64.9732 65.8631 64.8857Z" fill="#263238"/>
<path d="M57.4243 54.3918C58.4081 55.2881 62.7368 53.255 63.4364 53.2768L67.5029 55.0039C67.5029 55.0039 81.4946 34.519 85.561 31.83C89.6273 29.1409 106.505 25.643 106.505 25.643L106.112 15.3896C106.112 15.3896 114.856 6.44791 114.091 1.90057C113.654 -0.810349 91.7043 -2.12208 76.2914 8.76531C56.7684 22.5822 51.9806 49.4509 57.4243 54.3918Z" fill="#37474F"/>
<path d="M63.4366 53.2994L67.4812 55.0265C67.4812 55.0265 81.473 34.5416 85.5831 31.8525C89.6932 29.1635 106.505 25.6655 106.505 25.6655C106.505 25.6655 106.265 16.1991 106.134 15.4121C106.134 15.4121 85.4956 18.123 79.5491 25.5125C73.6026 32.9019 65.4261 43.7893 63.4366 53.2994Z" fill="#E1D172"/>
<path d="M67.5027 55.0258C67.5027 55.0258 77.756 43.9635 84.7519 41.2744C90.6766 39.0882 105.281 34.2348 110.09 33.1854C117.13 31.655 126.618 22.8008 123.208 21.0737C117.72 18.2098 90.6329 28.3538 85.3204 31.6769C77.2532 36.902 67.5027 55.0258 67.5027 55.0258Z" fill="#37474F"/>
<path d="M99.0284 8.48061C99.0791 7.25113 99.5948 6.08677 100.471 5.22312C100.874 4.79898 101.423 4.54296 102.007 4.50647C102.591 4.46997 103.167 4.65571 103.619 5.02637C104.274 5.7908 104.633 6.76389 104.633 7.77009C104.633 8.7763 104.274 9.74939 103.619 10.5138C103.285 10.9982 102.794 11.3535 102.229 11.5205C101.664 11.6875 101.06 11.6563 100.515 11.432C99.9927 11.1539 99.5692 10.7209 99.303 10.1924C99.0368 9.66386 98.9409 9.06587 99.0284 8.48061Z" fill="#E1D172"/>
<path d="M70.2574 50.26C70.3181 50.6365 70.2657 51.0226 70.1066 51.3691C69.9475 51.7157 69.689 52.0072 69.3639 52.2065C69.0388 52.4059 68.6617 52.5041 68.2807 52.4888C67.8996 52.4734 67.5319 52.3452 67.2238 52.1203C66.9158 51.8955 66.6815 51.5842 66.5508 51.2259C66.4201 50.8677 66.3987 50.4787 66.4895 50.1083C66.5804 49.7379 66.7792 49.4029 67.0608 49.1458C67.3424 48.8886 67.6941 48.721 68.0712 48.6641C68.5723 48.5885 69.0832 48.7137 69.4925 49.0126C69.9019 49.3114 70.1767 49.7597 70.2574 50.26Z" fill="#EBEBEB"/>
<path d="M103.597 101.637L98.6345 120.241L73.8865 100.565L68.5083 108.523C68.5083 108.523 94.3713 141.557 94.3276 139.917L99.7713 123.761L111.621 133.096L107.511 106.425L103.597 101.637Z" fill="#E1D172"/>
<path d="M110.331 119.761C109.501 115.388 108.801 111.016 107.774 106.643C107.774 106.603 107.757 106.564 107.729 106.535C107.7 106.506 107.661 106.49 107.621 106.49C107.58 106.49 107.541 106.506 107.512 106.535C107.484 106.564 107.468 106.603 107.468 106.643C107.118 111.016 110.353 127.697 110.813 131.719C110.31 131.326 99.8814 123.565 99.8814 123.718C98.5915 126.319 94.5688 138.103 94.3283 139.152C90.2401 133.905 73.0782 113.355 68.3778 108.545C68.3468 108.52 68.3083 108.507 68.2686 108.507C68.2288 108.507 68.1903 108.52 68.1593 108.545C68.1344 108.576 68.1208 108.615 68.1208 108.655C68.1208 108.694 68.1344 108.733 68.1593 108.764C71.8977 114.361 94.1535 141.557 94.394 141.448C96.58 135.855 98.4844 130.157 100.1 124.374C101.915 126.101 112.561 134.999 112.496 134.343C112.05 129.445 111.327 124.577 110.331 119.761Z" fill="#263238"/>
</g>
<defs>
<clipPath id="clip0_14_5009">
<rect width="305" height="719.901" fill="white" transform="translate(-76)"/>
</clipPath>
</defs>
</svg>
