<svg width="54" height="80" viewBox="0 0 54 80" fill="none" xmlns="http://www.w3.org/2000/svg">
<g clip-path="url(#clip0_5_1673)">
<path d="M45.023 46.8446H8.98885C8.89276 46.8333 8.79531 46.8421 8.70293 46.8705C8.61056 46.8989 8.52535 46.9462 8.45295 47.0093C8.38054 47.0724 8.32257 47.1499 8.28288 47.2367C8.24318 47.3234 8.22266 47.4175 8.22266 47.5126C8.22266 47.6077 8.24318 47.7018 8.28288 47.7885C8.32257 47.8753 8.38054 47.9527 8.45295 48.0159C8.52535 48.079 8.61056 48.1263 8.70293 48.1547C8.79531 48.1831 8.89276 48.1919 8.98885 48.1805H26.3361V68.536C26.356 68.6993 26.4362 68.8498 26.5615 68.959C26.6867 69.0682 26.8483 69.1285 27.0157 69.1285C27.1831 69.1285 27.3447 69.0682 27.4699 68.959C27.5951 68.8498 27.6753 68.6993 27.6953 68.536V48.1805H45.023C45.119 48.1919 45.2165 48.1831 45.3089 48.1547C45.4012 48.1263 45.4865 48.079 45.5589 48.0159C45.6313 47.9527 45.6892 47.8753 45.7289 47.7885C45.7686 47.7018 45.7891 47.6077 45.7891 47.5126C45.7891 47.4175 45.7686 47.3234 45.7289 47.2367C45.6892 47.1499 45.6313 47.0724 45.5589 47.0093C45.4865 46.9462 45.4012 46.8989 45.3089 46.8705C45.2165 46.8421 45.119 46.8333 45.023 46.8446Z" fill="#51048F"/>
<path d="M30.7061 34.4922L27.0195 30.8594L29.0926 38.3557L30.7061 34.4922Z" fill="white"/>
<path d="M23.2852 34.5307L24.8986 38.4999L27.0206 30.8594L23.2852 34.5307Z" fill="#D5D8D8"/>
<path d="M24.9273 29.4372L22.3164 26.8711V29.4372C23.498 30.2324 24.8693 30.7126 26.2963 30.8307L24.9273 29.4372Z" fill="#FFCAB3"/>
<path d="M22.3164 25.1797V26.8712L24.9273 29.4372L26.3354 30.8308C26.5603 30.8308 26.7853 30.8308 27.0199 30.8308H27.46C28.9681 30.754 30.4259 30.272 31.6745 29.4372V25.1797H22.3164Z" fill="#F9B59D"/>
<path d="M31.4208 12.457C29.602 12.457 27.4507 14.0236 26.3555 15.2826L27.0204 28.7376C31.8217 28.6895 35.7723 22.8847 36.3297 17.964C36.3764 17.5781 36.3992 17.1897 36.3981 16.8011V14.7348C35.9287 13.4854 32.7898 12.457 31.4208 12.457Z" fill="#F9B59D"/>
<path d="M34.4406 7.85156C30.0437 10.856 24.8149 12.4627 19.4598 12.4551C18.8046 12.4551 18.169 12.4551 17.5041 12.3782C17.4531 12.751 17.427 13.1266 17.4258 13.5027V16.7607C17.4247 17.1493 17.4476 17.5377 17.4943 17.9236C18.0614 22.8635 22.0511 28.6972 26.8915 28.6972H26.9795V22.604C27.2544 22.5796 27.5092 22.4522 27.6912 22.2483C27.8732 22.0443 27.9685 21.7794 27.9574 21.5084V15.5017C27.9574 14.3868 30.0891 13.0413 31.947 13.0413C32.7607 12.9854 33.5769 13.1081 34.3363 13.4007C35.0958 13.6933 35.7794 14.1483 36.3377 14.7328V13.4834C36.3519 11.4523 35.6852 9.47308 34.4406 7.85156Z" fill="#FFCAB3"/>
<path d="M37.1783 5.71062C35.6972 3.64789 33.6004 2.08861 31.1781 1.24855C28.7557 0.4085 26.1276 0.329215 23.6574 1.02167C21.1871 1.71412 18.997 3.14407 17.39 5.11363C15.783 7.08319 14.8386 9.49499 14.6875 12.0152C14.6875 12.2363 14.6875 12.4477 14.6875 12.6688V15.1099C14.6875 15.8534 14.9867 16.5668 15.5198 17.0943C16.0529 17.6218 16.7766 17.9207 17.5331 17.9258H17.5917C17.545 17.5399 17.5222 17.1516 17.5233 16.7629V13.4857C17.5245 13.1096 17.5506 12.734 17.6015 12.3612C18.2274 12.3612 18.863 12.4381 19.5573 12.4381C24.9116 12.4408 30.1389 10.8345 34.538 7.83458C35.8077 9.45395 36.4955 11.4413 36.4938 13.4857V16.7437C36.4949 17.1323 36.4721 17.5207 36.4253 17.9066H36.66C37.4157 17.899 38.138 17.5993 38.6705 17.0723C39.2031 16.5453 39.5031 15.8334 39.5056 15.0907V12.6495C39.4733 10.1566 38.6607 7.7338 37.1783 5.71062Z" fill="#063B5B"/>
<path d="M22.3555 29.4375V32.1189L23.3333 34.5216L27.0688 30.8599C25.3867 30.8701 23.7418 30.3737 22.3555 29.4375Z" fill="#F8F8F9"/>
<path d="M31.7034 32.1189V29.4375C30.3308 30.3643 28.7044 30.8603 27.0391 30.8599L30.7354 34.4927L31.7034 32.1189Z" fill="#D5D8D8"/>
<path d="M36.7567 29.4375H31.6914V32.1189L29.0805 38.3466L27.0074 30.8599L24.905 38.4716L22.3137 32.09L18.4609 35.867L26.2056 43.4691H45.0196V37.5297C45.0118 35.3809 44.1379 33.3227 42.5891 31.8059C41.0404 30.2891 38.9431 29.4375 36.7567 29.4375Z" fill="#50048D"/>
<path d="M22.3044 29.4375H19.5859L22.3044 32.1189V29.4375Z" fill="#063B5B"/>
<path d="M18.4637 35.8959L22.3165 32.1189L19.5883 29.4375H17.2414C16.1568 29.4375 15.0828 29.6476 14.0808 30.0559C13.0789 30.4641 12.1686 31.0624 11.4021 31.8167C10.6356 32.5709 10.0279 33.4662 9.61368 34.4515C9.1995 35.4367 8.987 36.4925 8.98829 37.5585V43.498H26.2084L18.4637 35.8959Z" fill="#5D7999"/>
<path d="M26.9963 30.8419L24.875 32.9297L26.9992 35.0145L29.1205 32.9268L26.9963 30.8419Z" fill="#5D7999"/>
<path d="M23.9968 17.9252H23.2146C23.2146 17.6703 23.1115 17.4259 22.9281 17.2456C22.7448 17.0654 22.496 16.9642 22.2367 16.9642C21.9774 16.9642 21.7286 17.0654 21.5453 17.2456C21.3619 17.4259 21.2588 17.6703 21.2588 17.9252H20.4766C20.4766 17.4664 20.662 17.0264 20.9921 16.702C21.3222 16.3776 21.7699 16.1953 22.2367 16.1953C22.7035 16.1953 23.1512 16.3776 23.4813 16.702C23.8114 17.0264 23.9968 17.4664 23.9968 17.9252Z" fill="#012428"/>
<path d="M33.5632 17.9252H32.7809C32.7809 17.6703 32.6779 17.4259 32.4946 17.2456C32.3112 17.0654 32.0624 16.9642 31.8031 16.9642C31.5437 16.9642 31.295 17.0654 31.1117 17.2456C30.9283 17.4259 30.8252 17.6703 30.8252 17.9252H30.0625C30.0625 17.4664 30.248 17.0264 30.578 16.702C30.9081 16.3776 31.3558 16.1953 31.8226 16.1953C32.2895 16.1953 32.7372 16.3776 33.0673 16.702C33.3973 17.0264 33.5828 17.4664 33.5828 17.9252H33.5632Z" fill="#012428"/>
<path d="M25.9334 72.3599L24.6133 71.0625V72.3599C25.2127 72.7678 25.9109 73.0131 26.6375 73.0711L25.9334 72.3599Z" fill="#FFCAB3"/>
<path d="M24.6133 70.1875V71.0429L25.9334 72.3403L26.657 73.0515H27.2242C27.9872 73.0165 28.7253 72.7736 29.3559 72.3499V70.1875H24.6133Z" fill="#F9B59D"/>
<path d="M29.23 63.7461C28.2226 63.8883 27.3073 64.3998 26.668 65.1781L27.0004 71.9825C29.4353 71.9825 31.4399 69.0128 31.7235 66.5236C31.7235 66.3218 31.7235 66.1199 31.7235 65.9277V64.909C31.5084 64.2555 29.9242 63.7461 29.23 63.7461Z" fill="#F9B59D"/>
<path d="M30.7645 61.4141C28.5498 62.9319 25.9154 63.7469 23.2154 63.7495C22.883 63.7495 22.5603 63.7495 22.2376 63.7495C22.2229 63.9414 22.2229 64.1342 22.2376 64.3261V65.9695C22.2376 66.1618 22.2376 66.3636 22.2376 66.5654C22.5212 69.0738 24.5551 72.0243 26.9998 72.0243H27.0487V68.9392C27.1905 68.9294 27.3228 68.8657 27.4177 68.7617C27.5125 68.6576 27.5626 68.5214 27.5571 68.3818V65.3352C27.5571 64.7778 28.6426 64.0858 29.5813 64.0858C29.9937 64.0566 30.4074 64.1192 30.7918 64.269C31.1761 64.4187 31.5211 64.6518 31.801 64.9508V64.3261C31.7965 63.2688 31.4316 62.2436 30.7645 61.4141Z" fill="#FFCAB3"/>
<path d="M32.1519 60.3253C31.4012 59.2756 30.3366 58.4815 29.1059 58.0534C27.8752 57.6253 26.5394 57.5842 25.2839 57.936C24.0284 58.2878 22.9155 59.015 22.0995 60.0166C21.2836 61.0182 20.8051 62.2447 20.7305 63.5257C20.7305 63.641 20.7305 63.7467 20.7305 63.862V65.0922C20.7304 65.4687 20.8813 65.83 21.1503 66.098C21.4193 66.3661 21.7849 66.5192 22.1679 66.5242C22.1679 66.3224 22.1679 66.1206 22.1679 65.9283V64.2849C22.1532 64.093 22.1532 63.9002 22.1679 63.7083C22.4808 63.7083 22.8035 63.7083 23.1458 63.7083C25.8618 63.7112 28.5134 62.8961 30.7438 61.3729C31.3837 62.202 31.7274 63.2154 31.7216 64.2561V65.8995C31.7216 66.0917 31.7216 66.2935 31.7216 66.4954H31.8292C32.2139 66.4928 32.582 66.3408 32.8531 66.0726C33.1243 65.8043 33.2764 65.4415 33.2764 65.0634V63.8332C33.2744 62.5785 32.882 61.3545 32.1519 60.3253Z" fill="#012428"/>
<path d="M24.6133 72.3594V73.7241L25.112 74.9447L25.9236 76.9533L26.9993 73.109C26.1539 73.1132 25.3276 72.8616 24.6329 72.3882L24.6133 72.3594Z" fill="#D5D8D8"/>
<path d="M29.3664 73.7241V72.3594C28.6716 72.8328 27.8454 73.0844 27 73.0802L28.0561 76.9245L28.8677 75.0023L29.3762 73.801L29.3664 73.7241Z" fill="#D5D8D8"/>
<path d="M31.938 72.3595H29.3663V73.7242L28.1048 76.915L27.0487 73.0707L25.9731 76.915L24.6628 73.6858L22.707 75.6079L26.6185 79.4522H36.1526V76.444C36.1488 75.9038 36.0367 75.3697 35.8228 74.8721C35.6089 74.3745 35.2974 73.9231 34.906 73.5438C34.5147 73.1646 34.0511 72.8647 33.5419 72.6615C33.0326 72.4583 32.4876 72.3557 31.938 72.3595Z" fill="#012428"/>
<path d="M24.6151 72.3672H23.2266L24.6151 73.7223V72.3672Z" fill="#012428"/>
<path d="M22.6705 75.6366L24.6262 73.7145L23.2181 72.3594H22.0446C20.9337 72.3619 19.8692 72.7974 19.0846 73.5704C18.3 74.3433 17.8594 75.3906 17.8594 76.4824V79.4905H26.5917L22.6705 75.6366Z" fill="#063B5B"/>
<path d="M26.984 73.0561L25.9062 74.1172L26.9859 75.1764L28.0636 74.1153L26.984 73.0561Z" fill="#063B5B"/>
<path d="M8.54668 64.3617L7.22656 63.0547V64.3617C7.82369 64.7654 8.51845 65.0074 9.24095 65.0633L8.54668 64.3617Z" fill="#FFCAB3"/>
<path d="M7.26562 62.201V63.0564L8.58574 64.3634L9.29956 65.065H9.65161H9.86674C10.6337 65.027 11.375 64.7808 12.0083 64.3538V62.1914L7.26562 62.201Z" fill="#F9B59D"/>
<path d="M11.8804 55.7695C10.8695 55.9094 9.95029 56.4212 9.30859 57.2015L9.65085 64.0059C12.0857 64.0059 14.0806 61.0362 14.3641 58.5374C14.3784 58.3423 14.3784 58.1463 14.3641 57.9512V56.9228C14.149 56.2597 12.5747 55.7695 11.8804 55.7695Z" fill="#F9B59D"/>
<path d="M13.4369 53.418C11.1998 54.952 8.5374 55.7739 5.80961 55.7726C5.48692 55.7726 5.16423 55.7726 4.83175 55.7726C4.82171 55.9615 4.82171 56.1507 4.83175 56.3396V57.9927C4.83175 58.1849 4.83175 58.3771 4.83175 58.5789C5.11533 61.0873 7.1395 64.0474 9.59393 64.0474H9.64281V60.9528C9.78375 60.9453 9.91605 60.8837 10.0112 60.7812C10.1063 60.6787 10.1567 60.5436 10.1513 60.405V57.3487C10.1513 56.7913 11.227 56.109 12.1657 56.109C12.5786 56.0805 12.9927 56.1425 13.3782 56.2904C13.7638 56.4383 14.1112 56.6685 14.3952 56.9643V56.3396C14.416 55.288 14.0787 54.2597 13.4369 53.418Z" fill="#FFCAB3"/>
<path d="M14.7944 52.3312C14.0494 51.2746 12.9868 50.4735 11.7553 50.0402C10.5239 49.6069 9.18543 49.5631 7.92738 49.9148C6.66933 50.2666 5.55476 50.9963 4.73981 52.0018C3.92487 53.0073 3.45037 54.2382 3.38281 55.522C3.38281 55.6373 3.38281 55.7526 3.38281 55.8583V57.0981C3.38281 57.4754 3.53528 57.8371 3.80669 58.1039C4.0781 58.3706 4.44623 58.5205 4.83006 58.5205C4.83006 58.3187 4.83006 58.1265 4.83006 57.9342V56.2812C4.82001 56.0923 4.82001 55.9031 4.83006 55.7142C5.15275 55.7142 5.47544 55.7142 5.80792 55.7142C8.52693 55.7172 11.1818 54.9022 13.4157 53.3788C14.0562 54.2075 14.4 55.2212 14.3935 56.262V57.915C14.4078 58.1102 14.4078 58.3061 14.3935 58.5013H14.5109C14.7009 58.5013 14.8891 58.4645 15.0647 58.393C15.2403 58.3215 15.3998 58.2168 15.5342 58.0847C15.6686 57.9526 15.7752 57.7958 15.8479 57.6232C15.9207 57.4506 15.9581 57.2657 15.9581 57.0789V55.8391C15.9458 54.5801 15.5396 53.3553 14.7944 52.3312Z" fill="#012428"/>
<path d="M7.26562 64.3633V65.7184L7.75455 66.9389L8.57595 68.9572L9.65161 65.1129C8.80686 65.1129 7.98189 64.8616 7.28517 64.3921L7.26562 64.3633Z" fill="white"/>
<path d="M12.0168 65.7184V64.3633C11.3236 64.8326 10.5018 65.0839 9.66016 65.0841L10.7064 68.8803L11.5278 66.9582L12.0363 65.7568L12.0168 65.7184Z" fill="white"/>
<path d="M14.5904 64.3633H12.0187V65.7184L10.6888 68.8803L9.64248 65.0841L8.56683 68.9284L7.2565 65.6896L5.30078 67.6117L9.21222 71.456H18.7464V68.4478C18.7387 67.3669 18.2983 66.3323 17.5206 65.568C16.7429 64.8036 15.6903 64.3708 14.5904 64.3633Z" fill="#A3A3A3"/>
<path d="M7.25769 64.3633H5.87891L7.25769 65.728V64.3633Z" fill="#A3A3A3"/>
<path d="M5.31108 67.6405L7.2668 65.7184L5.87823 64.3633H4.69503C3.58413 64.3633 2.51858 64.7963 1.73214 65.5675C0.945705 66.3386 0.50259 67.3848 0.5 68.4767V71.4944H9.24207L5.31108 67.6405Z" fill="#D5D8D8"/>
<path d="M9.64822 65.0758L8.57031 66.1367L9.64974 67.1961L10.7276 66.1352L9.64822 65.0758Z" fill="#D5D8D8"/>
<path d="M43.3103 64.4203L41.9805 63.1133V64.4203C42.579 64.8212 43.273 65.0629 43.9949 65.1219L43.3103 64.4203Z" fill="#FFCAB3"/>
<path d="M41.9805 62.2109V63.0663L43.3103 64.3733L44.0242 65.0749H44.3762H44.5913C45.3575 65.0402 46.0988 64.7974 46.7329 64.3733V62.2109H41.9805Z" fill="#F9B59D"/>
<path d="M46.6069 55.7695C45.5943 55.9109 44.6745 56.4265 44.0352 57.2111L44.3774 64.0059C46.8025 64.0059 48.8071 61.0458 49.0907 58.547C49.0907 58.3452 49.0907 58.153 49.0907 57.9608V56.9324C48.8755 56.2597 47.3012 55.7695 46.6069 55.7695Z" fill="#F9B59D"/>
<path d="M48.1334 53.4258C45.9028 54.9473 43.2506 55.7592 40.5354 55.7516C40.2127 55.7516 39.89 55.7516 39.5576 55.7516C39.5576 55.9438 39.5576 56.136 39.5576 56.3282V57.9813C39.5433 58.1764 39.5433 58.3723 39.5576 58.5675C39.8411 61.0759 41.8653 64.0264 44.3197 64.0264H44.3686V60.9414C44.5096 60.9315 44.641 60.8675 44.7343 60.7632C44.8276 60.6588 44.8754 60.5226 44.8674 60.3839V57.3373C44.8674 56.7799 45.9528 56.088 46.8915 56.088C47.3053 56.0593 47.7203 56.1222 48.1061 56.2718C48.4919 56.4215 48.8387 56.6542 49.121 56.9529V56.3282C49.1359 55.2787 48.7877 54.2554 48.1334 53.4258Z" fill="#FFCAB3"/>
<path d="M49.5191 52.3408C48.7721 51.2859 47.7086 50.4867 46.4771 50.0546C45.2457 49.6224 43.9076 49.579 42.6499 49.9304C41.3921 50.2818 40.2773 51.0104 39.4612 52.0146C38.6451 53.0187 38.1684 54.2482 38.0977 55.5315C38.0977 55.6468 38.0977 55.7526 38.0977 55.8679V57.1077C38.1002 57.4841 38.2535 57.8445 38.5244 58.1107C38.7952 58.3769 39.1619 58.5275 39.5449 58.5301C39.5306 58.3349 39.5306 58.139 39.5449 57.9438V56.2908C39.5449 56.0985 39.5449 55.9063 39.5449 55.7141C39.8676 55.7141 40.1903 55.7141 40.5228 55.7141C43.2424 55.7215 45.8986 54.9061 48.1305 53.3787C48.7771 54.2044 49.1216 55.2201 49.1084 56.2619V57.915C49.1084 58.1072 49.1084 58.2994 49.1084 58.5012H49.2257C49.6087 58.4987 49.9754 58.348 50.2462 58.0818C50.5171 57.8156 50.6704 57.4553 50.6729 57.0788V55.8679C50.6695 54.6031 50.2663 53.3705 49.5191 52.3408Z" fill="#012428"/>
<path d="M41.9805 64.4219V65.777L42.4792 66.9975L43.3006 69.0062L44.3762 65.1619C43.5315 65.1619 42.7065 64.9106 42.0098 64.4411L41.9805 64.4219Z" fill="white"/>
<path d="M46.7434 65.7289V64.4219C46.0497 64.8901 45.2282 65.1413 44.3867 65.1427L45.433 68.987L46.2544 67.0648L46.7629 65.8635L46.7434 65.7289Z" fill="white"/>
<path d="M49.3151 64.422H46.7433V65.7771L45.4134 68.939L44.3671 65.0947L43.2915 68.939L41.9713 65.7098L40.0156 67.632L43.9271 71.4762H53.5297V68.4681C53.5116 67.3838 53.0587 66.3505 52.2695 65.5927C51.4802 64.835 50.4184 64.4142 49.3151 64.422Z" fill="#063B5B"/>
<path d="M41.9803 64.3711H40.6016L41.9803 65.7262V64.3711Z" fill="#063B5B"/>
<path d="M40.0337 67.6415L41.9895 65.7193L40.6009 64.4219H39.4177C38.8672 64.4206 38.322 64.5261 37.8131 64.7322C37.3041 64.9384 36.8416 65.2412 36.4519 65.6233C36.0623 66.0054 35.7531 66.4592 35.5422 66.9589C35.3312 67.4586 35.2227 67.9943 35.2227 68.5353V71.5434H43.9549L40.0337 67.6415Z" fill="#A3A3A3"/>
<path d="M44.3582 65.0554L43.2812 66.1172L44.3616 67.1757L45.4386 66.1138L44.3582 65.0554Z" fill="#A3A3A3"/>
</g>
<defs>
<clipPath id="clip0_5_1673">
<rect width="53" height="79" fill="white" transform="translate(0.5 0.5)"/>
</clipPath>
</defs>
</svg>
