<svg width="626" height="595" viewBox="0 0 626 595" fill="none" xmlns="http://www.w3.org/2000/svg">
<g clip-path="url(#clip0_204_35471)">
<path d="M91.5625 286.605C-30.5256 357.084 -30.5119 471.352 91.5625 541.845C213.637 612.338 411.565 612.269 533.653 541.845C655.741 471.421 655.727 357.084 533.653 286.605C411.578 216.126 213.651 216.112 91.5625 286.605Z" fill="#FAFAFA"/>
<path d="M424.457 32.1465L431.782 64.9397L461.909 82.5733L454.419 49.4365L424.457 32.1465Z" fill="#540494"/>
<path opacity="0.2" d="M424.457 32.1465L431.782 64.9397L461.909 82.5733L454.419 49.4365L424.457 32.1465Z" fill="black"/>
<path d="M359.516 193.914L454.419 49.4372L424.457 32.1473L538.367 0L559.107 109.883L529.227 92.6347L434.325 237.098L359.516 193.914Z" fill="#540494"/>
<path opacity="0.2" d="M359.516 193.914L454.419 49.4372L424.457 32.1473L538.367 0L559.107 109.883L529.227 92.6347L434.325 237.098L359.516 193.914Z" fill="white"/>
<path d="M529.227 92.6348L434.366 237.098L451.161 256.202L536.828 125.813L566.639 143.034L559.107 109.884L529.227 92.6348Z" fill="#540494"/>
<path opacity="0.2" d="M529.227 92.6348L434.366 237.098L451.161 256.202L536.828 125.813L566.639 143.034L559.107 109.884L529.227 92.6348Z" fill="black"/>
<path d="M376.311 213.143L359.516 194.053L434.366 237.099L451.161 256.203L376.311 213.143Z" fill="#540494"/>
<path opacity="0.4" d="M376.311 213.143L359.516 194.053L434.366 237.099L451.161 256.203L376.311 213.143Z" fill="black"/>
<path opacity="0.2" d="M536.828 125.813L529.227 92.6348L559.107 109.884L566.639 143.034L536.828 125.813Z" fill="black"/>
<path d="M112.302 565.704L223.203 397.299L148.394 354.115L37.4938 522.521L112.302 565.704Z" fill="#540494"/>
<path opacity="0.2" d="M112.302 565.704L223.203 397.299L148.394 354.115L37.4938 522.521L112.302 565.704Z" fill="white"/>
<path d="M223.203 397.299L112.302 565.704L157.177 539.797L238.06 417.461L223.203 397.299Z" fill="#540494"/>
<path opacity="0.2" d="M223.203 397.299L112.302 565.704L157.177 539.797L238.06 417.461L223.203 397.299Z" fill="black"/>
<path d="M421.076 477.055V508.337C419.99 515.483 414.698 522.479 405.215 527.949C383.774 540.319 349.016 540.319 327.575 527.949C316.58 521.572 311.165 513.133 311.522 504.777C311.557 504.031 311.631 503.288 311.742 502.55V502.468C312.677 494.345 313.336 486.209 313.79 478.581C314.518 466.472 314.422 461.14 314.326 454.625C314.202 446.585 310.862 440.276 302.382 433.143C293.902 426.01 277.038 401.628 277.038 401.628L388.873 344.137L420.663 444.853C420.663 444.853 421.076 469.111 421.076 477.055Z" fill="#CD8C60"/>
<path d="M389.739 323.273C389.739 323.273 387.636 331.739 377.644 320.524C367.652 309.309 351.297 292.184 334.062 275.705C325.816 267.802 292.72 241.194 270.523 221.072C263.445 213.774 253.398 208.703 246.485 213.981C239.572 219.258 239.613 232.329 243.915 238.72C247.763 244.451 256.01 252.464 262.304 258.099C262.288 258.444 262.252 258.788 262.195 259.13C260.999 269.534 258.868 281.23 257.865 293.833C257.26 301.351 248.244 310.807 248.327 318.572C250.993 329.568 265.548 341.346 275.815 349.565C286.082 357.784 290.59 361.124 290.48 363.722C290.301 367.694 273.63 353.235 266.222 348.15C266.634 371.748 251.543 374.593 251.543 374.593C253.811 379.129 266.661 389.134 284.955 412.54C292.17 421.79 365.618 360.987 365.618 360.987L383.059 349.785L395.333 329.485L389.739 323.273Z" fill="#CD8C60"/>
<path d="M383.651 344.096C376.779 352.755 349.689 380.381 370.992 417.008C369.521 415.643 368.186 414.138 367.007 412.514C363.954 408.456 361.539 403.956 359.846 399.169C359.777 398.99 359.722 398.825 359.667 398.646C354.829 384.71 356.479 370.512 365.509 358.528C372.614 349.113 385.547 339.96 387.279 329.803C387.279 329.432 387.375 329.06 387.403 328.703C387.705 331.892 388.062 338.571 383.651 344.096Z" fill="#CD8C60"/>
<path opacity="0.5" d="M242.513 219.189C239.764 225.402 240.603 233.951 243.888 238.788C247.736 244.52 255.982 252.532 262.277 258.167L262.195 258.992C264.943 261.37 267.953 263.899 271.224 266.785C279.114 273.726 289.545 282.687 297.421 289.641C301.365 293.119 320.098 308.196 326.901 314.257C316.442 302.781 292.94 281.958 281.12 270.276C272.2 261.494 259.033 249.234 254.759 244.341C250.485 239.448 247.97 236.095 246.513 234.28C244.848 232.173 243.635 229.746 242.947 227.15C242.259 224.554 242.111 221.845 242.513 219.189Z" fill="#CD8C60"/>
<path d="M262.607 384.805C264.674 384.527 266.661 383.827 268.446 382.749C270.231 381.671 271.775 380.238 272.984 378.538C275.733 373.961 276.269 370.402 275.526 363.255C275.157 359.915 274.48 356.616 273.506 353.4C271.06 351.641 268.503 349.744 266.235 348.191C266.648 371.79 251.557 374.635 251.557 374.635C252.588 376.683 255.79 379.871 260.683 384.915C261.329 384.902 261.961 384.86 262.607 384.805Z" fill="#CD8C60"/>
<path d="M250.526 289.45C249.935 289.986 258.291 298.04 259.171 298.521C262.263 300.253 268.173 298.109 270.73 295.965C272.324 294.572 273.563 292.819 274.345 290.852C277.093 284.255 275.719 276.709 274.345 269.686C274.309 269.124 274.155 268.577 273.892 268.079C273.629 267.581 273.263 267.145 272.819 266.8C272.654 270.483 269.41 272.078 267.019 274.29L260.147 280.599L250.526 289.45Z" fill="#CD8C60"/>
<path d="M269.52 293.779L313.254 337.925L262.195 295.126L269.52 293.779Z" fill="#CD8C60"/>
<path d="M263.542 331.493C265.66 330.793 267.591 329.622 269.191 328.067C270.791 326.513 272.017 324.615 272.778 322.518C274.028 318.931 273.822 315.028 273.575 311.234C273.532 308.004 272.985 304.799 271.953 301.737L251.502 308.692C249.715 312.114 248.272 315.564 248.327 318.615C249.413 323.082 252.258 327.604 256.257 331.947C258.688 332.361 261.181 332.205 263.542 331.493Z" fill="#CD8C60"/>
<path d="M258.099 257.852C267.088 257.027 271.843 260.971 273.822 269.039C274.647 273.625 274.647 278.321 273.822 282.907C272.97 288.899 267.308 296.087 259.996 295.015H259.638C247.819 293.091 246.485 286.769 246.485 276.502C246.485 266.235 250.1 258.58 258.099 257.852Z" fill="#CD8C60"/>
<path opacity="0.5" d="M268.709 260.229C269.369 260.793 273.176 264.531 273.217 274.867C273.217 286.164 267.582 288.501 261.315 289.518C255.048 290.535 246.636 286.618 246.636 281.038C247.172 288.638 249.688 293.408 259.652 295.029H260.009C267.321 296.101 272.984 288.913 273.836 282.921C274.66 278.335 274.66 273.639 273.836 269.053C273.186 265.612 271.377 262.498 268.709 260.229Z" fill="#CD8C60"/>
<path d="M258.305 293.875C266.551 293.119 270.826 296.72 272.668 304.087C273.41 308.278 273.41 312.568 272.668 316.759C271.898 322.257 266.703 328.799 260.037 327.754H259.707C248.918 325.995 247.695 320.195 247.695 310.849C247.695 301.503 250.993 294.535 258.305 293.875Z" fill="#CD8C60"/>
<path opacity="0.5" d="M269.754 297.764C270.908 299.482 271.747 303.715 271.128 310.133C270.235 318.531 268.379 322.599 261.109 323.135C253.508 323.671 248.835 320.153 248.025 316.456C248.753 322.558 251.323 326.42 259.776 327.794H260.106C266.771 328.784 271.967 322.297 272.736 316.799C273.478 312.608 273.478 308.319 272.736 304.127C272.213 301.815 271.196 299.645 269.754 297.764Z" fill="#CD8C60"/>
<path d="M258.745 344.673C267.266 343.904 273.643 347.944 273.643 355.284V368.437C273.651 371.49 272.447 374.422 270.295 376.589C268.144 378.756 265.221 379.981 262.167 379.995C261.62 379.993 261.074 379.957 260.532 379.885H260.202C249 378.057 249.138 367.832 249 362.458C248.863 357.084 251.158 345.374 258.745 344.673Z" fill="#CD8C60"/>
<path opacity="0.5" d="M269.493 347.009C273.218 350.898 271.761 358.829 271.486 366.649C271.28 372.078 268.462 376.572 261.04 376.572C253.619 376.572 250.292 372.05 249.289 367.611C249.908 372.738 252.038 378.524 260.202 379.857H260.532C262.032 380.066 263.559 379.978 265.024 379.596C266.49 379.215 267.866 378.548 269.074 377.634C270.282 376.72 271.297 375.576 272.062 374.269C272.828 372.962 273.328 371.517 273.534 370.016C273.612 369.475 273.649 368.928 273.644 368.381V355.255C273.699 353.643 273.347 352.043 272.622 350.602C271.897 349.161 270.821 347.925 269.493 347.009Z" fill="#CD8C60"/>
<path d="M164.269 342.089L347.6 203.082L422.464 246.279L239.077 385.286L164.269 342.089Z" fill="#540494"/>
<path d="M422.464 246.279L439.259 265.37L253.934 405.435L239.077 385.286L422.464 246.279Z" fill="#540494"/>
<path opacity="0.2" d="M422.464 246.279L439.259 265.37L253.934 405.435L239.077 385.286L422.464 246.279Z" fill="black"/>
<path d="M164.269 342.089L179.126 362.251L253.935 405.435L239.077 385.286L164.269 342.089Z" fill="#540494"/>
<path opacity="0.4" d="M164.269 342.089L179.126 362.251L253.935 405.435L239.077 385.286L164.269 342.089Z" fill="black"/>
<path d="M420.677 444.825C420.721 422.016 422.268 399.234 425.309 376.627C428.539 354.073 427.906 334.777 426.931 329.32C425.955 323.864 425.652 315.947 417.241 305.887C413.283 301.145 404.583 294.246 397.326 285.724C390.069 277.203 383.183 267.582 379.308 262.36C375.432 257.137 365.825 265.534 366.292 282.178C366.677 295.771 375.913 307.66 379.555 312.745C383.939 318.944 387.045 324.936 387.389 328.674C387.691 331.836 388.049 338.543 383.623 344.095C376.751 352.74 349.676 380.366 370.979 416.939V450.543L420.677 444.825Z" fill="#CD8C60"/>
<path d="M381.067 272.545C381.067 272.545 389.313 283.746 391.966 285.189C394.618 286.632 395.36 283.347 395.36 283.347C391.567 278.015 384.489 268.311 379.335 262.388C380.808 265.558 381.406 269.065 381.067 272.545Z" fill="#CD8C60"/>
<path opacity="0.6" d="M381.067 272.545C381.067 272.545 389.313 283.746 391.966 285.189C394.618 286.632 395.36 283.347 395.36 283.347C391.567 278.015 384.489 268.311 379.335 262.388C380.808 265.558 381.406 269.065 381.067 272.545Z" fill="white"/>
<path d="M395.361 283.348C394.989 282.75 394.581 282.177 394.137 281.63C394.267 282.349 394.191 283.09 393.919 283.768C393.647 284.447 393.189 285.034 392.598 285.464C394.756 286.097 395.361 283.348 395.361 283.348Z" fill="#CD8C60"/>
<path opacity="0.2" d="M278.949 323.741C286.287 317.713 294.434 312.744 303.152 308.98C314.298 303.922 327.685 299.455 336.99 293.958C349.071 286.811 353.689 278.207 352.809 269.548C352.301 264.642 349.387 259.199 338.227 255.584C334.966 254.515 331.579 253.877 328.152 253.688C323.35 253.519 318.555 254.188 313.982 255.667C293.504 261.865 284.804 271.39 277.932 280.64C271.06 289.889 262.703 295.263 247.695 304.005C241.276 307.729 234.391 311.385 228.316 315.165L228.178 315.261C225.102 316.979 222.144 318.903 219.327 321.02C215.479 324.304 212.098 327.699 210.71 331.286C209.322 334.874 210.009 338.681 214.105 342.282C215.46 343.491 217.094 344.346 218.86 344.769C221.112 345.306 223.417 345.592 225.732 345.621C230.284 345.774 234.839 345.414 239.311 344.549C242.848 343.836 246.319 342.829 249.688 341.539C260.482 337.515 270.412 331.475 278.949 323.741Z" fill="black"/>
<path d="M216.125 141.331C214.998 144.314 211.727 150.636 211.933 151.433C212.525 153.407 212.591 155.501 212.125 157.508C211.836 159.034 198.642 164.215 198.642 164.215L198.326 162.126C198.104 160.73 198.285 159.299 198.848 158.003C201.368 152.346 203.253 146.427 204.47 140.355L216.125 141.331Z" fill="#FFA8A7"/>
<path d="M212.276 156.161L198.326 162.442L198.532 164.215C198.532 164.215 211.727 159.034 212.015 157.508C212.198 157.083 212.287 156.624 212.276 156.161Z" fill="#F28F8F"/>
<path d="M170.014 182.988L165.822 226.062C165.615 228.151 166.976 229.498 168.68 230.735L172.955 233.8C173.428 234.209 173.983 234.513 174.582 234.69C175.182 234.868 175.812 234.916 176.432 234.831C177.301 234.697 178.148 234.442 178.947 234.075H179.043L179.304 233.951L228.206 211.727C229.958 210.927 231.47 209.681 232.589 208.113C233.708 206.545 234.396 204.711 234.583 202.793L238.39 163.54C238.412 163.05 238.318 162.562 238.115 162.115C237.912 161.668 237.606 161.276 237.222 160.97L229.924 155.761C229.517 155.509 229.058 155.352 228.581 155.305C228.105 155.257 227.624 155.319 227.175 155.486L171.663 180.707C171.225 180.93 170.848 181.255 170.563 181.655C170.274 182.048 170.086 182.506 170.014 182.988Z" fill="#37474F"/>
<path d="M170.014 182.988L165.822 226.062C165.615 228.151 166.976 229.498 168.68 230.735L172.955 233.8C173.428 234.209 173.983 234.513 174.582 234.69C175.182 234.868 175.812 234.916 176.432 234.831C177.301 234.697 178.148 234.442 178.947 234.075C177.05 234.748 175.731 233.662 175.937 231.532L179.882 190.946C179.981 190.229 180.25 189.546 180.665 188.953L170.522 181.696C170.257 182.083 170.083 182.525 170.014 182.988Z" fill="#263238"/>
<path d="M179.882 190.933C179.997 190.2 180.282 189.504 180.714 188.9C181.146 188.296 181.713 187.802 182.369 187.456L234.789 163.637C236.864 162.689 238.39 163.775 238.156 166.042L234.597 202.766C234.408 204.685 233.718 206.521 232.597 208.088C231.475 209.656 229.961 210.902 228.206 211.7L179.291 233.924C177.215 234.872 175.704 233.787 175.923 231.519L179.882 190.933Z" fill="#455A64"/>
<path d="M236.15 165.355C236.136 165.515 236.136 165.676 236.15 165.836L232.576 202.56C232.422 204.118 231.863 205.609 230.954 206.885C230.045 208.16 228.818 209.176 227.395 209.83L178.494 232.054C178.336 232.125 178.169 232.176 177.999 232.205V231.724L181.943 191.138C182.004 190.758 182.152 190.398 182.376 190.085C182.601 189.773 182.895 189.517 183.235 189.338L235.641 165.506C235.799 165.435 235.965 165.384 236.136 165.355M236.136 163.293C235.659 163.309 235.19 163.426 234.762 163.637L182.328 187.455C181.672 187.801 181.105 188.296 180.673 188.899C180.241 189.503 179.956 190.199 179.841 190.932L175.937 231.56C175.772 233.264 176.583 234.308 177.889 234.308C178.366 234.292 178.835 234.175 179.263 233.965L228.164 211.741C229.919 210.943 231.434 209.697 232.555 208.129C233.677 206.561 234.367 204.726 234.555 202.807L238.115 166.083C238.294 164.379 237.469 163.334 236.164 163.334L236.136 163.293Z" fill="#37474F"/>
<path d="M232.301 157.451L176.707 183.001C175.924 183.366 175.249 183.927 174.747 184.63C174.246 185.334 173.936 186.155 173.848 187.015L169.532 231.339L170.288 231.889L174.645 187.097C174.713 186.375 174.969 185.684 175.389 185.092C175.809 184.501 176.377 184.031 177.037 183.73L233.057 157.987L232.301 157.451Z" fill="#540494"/>
<path opacity="0.2" d="M174.741 184.638C174.237 185.337 173.929 186.157 173.848 187.015L169.532 231.34L170.288 231.89L174.645 187.098C174.729 186.381 174.989 185.697 175.401 185.105L174.741 184.638Z" fill="black"/>
<path opacity="0.2" d="M175.401 185.104C175.816 184.51 176.38 184.036 177.037 183.73L233.057 157.987L232.302 157.451L176.707 183.001C175.919 183.364 175.242 183.928 174.742 184.637" fill="black"/>
<path d="M213.074 161.135L212.428 167.801L214.888 169.56L215.754 160.709C215.754 160.255 215.493 160.036 215.08 160.228L213.074 161.135Z" fill="#540494"/>
<path opacity="0.4" d="M213.074 161.135L212.428 167.801L214.888 169.56L215.754 160.709C215.754 160.255 215.493 160.036 215.08 160.228L213.074 161.135Z" fill="black"/>
<path d="M194.107 165.946L193.048 176.735L195.399 178.425L197.172 177.614L198.037 168.763C198.077 168.517 198.173 168.283 198.319 168.08C198.464 167.877 198.655 167.711 198.876 167.595L212.276 161.465L215.025 160.201C215.437 160.008 215.74 160.201 215.699 160.682L214.833 169.533L216.606 168.736L217.664 157.933V157.795C217.649 157.569 217.588 157.349 217.484 157.148C217.38 156.947 217.235 156.769 217.059 156.627L216.07 155.912C215.865 155.789 215.636 155.712 215.398 155.689C215.16 155.665 214.92 155.694 214.695 155.775L194.945 164.75C194.72 164.868 194.527 165.038 194.381 165.246C194.235 165.454 194.141 165.694 194.107 165.946Z" fill="#540494"/>
<path opacity="0.2" d="M196.457 167.623L195.399 178.426L197.172 177.615L198.038 168.764C198.077 168.517 198.174 168.283 198.319 168.081C198.465 167.878 198.655 167.712 198.876 167.595L212.277 161.466L215.025 160.201C215.438 160.009 215.74 160.201 215.699 160.682L214.833 169.533L216.606 168.736L217.664 157.933V157.796C217.664 157.439 217.362 157.287 216.991 157.452L197.241 166.427C197.025 166.551 196.842 166.724 196.706 166.931C196.57 167.139 196.485 167.376 196.457 167.623Z" fill="black"/>
<path d="M210.187 160.642C210.474 160.644 210.752 160.735 210.985 160.903C211.166 160.6 211.424 160.35 211.733 160.179C212.042 160.008 212.391 159.921 212.744 159.927C212.899 159.91 213.055 159.942 213.19 160.018C213.326 160.095 213.434 160.212 213.5 160.353C213.527 160.452 213.527 160.557 213.5 160.656C213.408 161.655 213.271 162.644 213.087 163.625C213.059 164.355 212.772 165.052 212.276 165.59C212.049 165.781 211.777 165.91 211.486 165.965C211.195 166.02 210.894 166 210.613 165.906C210.405 166.377 210.02 166.747 209.541 166.937C209.431 166.937 208.043 167.102 208.167 166.937C207.895 167.52 207.441 167.998 206.873 168.301C206.306 168.603 205.655 168.713 205.02 168.614C205.02 168.614 204.649 169.686 202.683 169.452C202.055 169.312 201.47 169.021 200.979 168.604C200.488 168.187 200.106 167.658 199.866 167.061C199.976 166.47 200.182 166.222 200.855 165.961C201.185 165.824 201.542 165.686 201.872 165.521C202.302 165.206 202.67 164.815 202.958 164.367C203.276 163.952 203.692 163.621 204.167 163.405C204.408 163.296 204.674 163.26 204.935 163.299C205.196 163.338 205.44 163.451 205.638 163.625C205.725 163.222 205.937 162.856 206.243 162.58C206.483 162.286 206.818 162.087 207.191 162.017C207.301 162.017 208.194 162.154 208.085 162.388C208.321 161.793 208.734 161.285 209.267 160.931C209.542 160.753 209.86 160.653 210.187 160.642Z" fill="#FFA8A7"/>
<path d="M218.09 140.328C217.238 144.273 215.094 147.819 216.042 151.131C216.688 153.371 216.867 153.138 216.606 155.419C216.454 156.439 216.206 157.443 215.863 158.415C215.699 158.883 215.534 159.364 215.355 159.79C215.192 160.297 214.985 160.789 214.736 161.26C214.367 161.84 213.949 162.388 213.486 162.896C212.741 163.834 211.877 164.67 210.916 165.384L210.751 165.48C210.624 165.513 210.49 165.509 210.365 165.468C210.241 165.426 210.131 165.349 210.05 165.246C209.184 164.298 209.83 162.923 210.283 161.975C210.905 160.954 211.272 159.8 211.355 158.608V157.233L210.132 156.931C210.132 156.931 206.188 155.983 206.119 154.072C206.05 152.162 207.493 150.334 208.703 148.094C209.912 145.853 210.311 144.397 211.452 138.624L218.09 140.328Z" fill="#FFA8A7"/>
<path d="M214.736 161.315C213.817 162.77 212.692 164.085 211.397 165.218C211.177 165.369 210.998 165.658 210.6 165.685C208.772 165.342 209.637 162.936 210.256 161.851C210.844 160.878 211.219 159.791 211.355 158.662C211.334 159.816 211.022 160.946 210.448 161.947C209.967 162.936 209.074 164.971 210.6 165.424C212.191 164.286 213.585 162.893 214.723 161.301L214.736 161.315Z" fill="#F28F8F"/>
<path d="M211.053 156.917C210.572 156.67 210.05 156.491 209.596 156.202C209.24 155.969 208.936 155.665 208.703 155.309C208.043 154.46 207.715 153.4 207.782 152.326C207.782 152.326 207.782 152.148 207.686 152.326C207.505 152.918 207.459 153.542 207.551 154.154C207.644 154.765 207.873 155.348 208.222 155.859C208.525 156.34 208.94 156.741 209.431 157.027C209.679 157.176 209.948 157.288 210.228 157.357C210.502 157.467 210.807 157.467 211.081 157.357C211.126 157.291 211.148 157.212 211.143 157.132C211.138 157.052 211.106 156.977 211.053 156.917Z" fill="#F28F8F"/>
<path d="M241.51 61.2037C233.003 60.544 226.199 62.2345 221.787 73.4359C216.826 86.0941 211.919 95.8523 209.418 105.047C206.916 114.242 203.315 143.365 203.315 143.365C203.315 143.365 209.748 148.973 216.826 146.417L227.546 113.321L241.469 86.5339L241.51 61.2037Z" fill="#E6E6E6"/>
<path d="M338.227 270.167C338.818 269.755 339.697 271.28 339.711 272.242C339.711 274.991 337.924 279.018 333.911 282.591C329.898 286.165 320.263 289.944 317.487 291.346C314.711 292.748 310.807 296.748 308.347 298.699C303.853 302.232 299.73 302.754 297.228 302.067C296.781 301.9 296.374 301.64 296.035 301.303C295.696 300.967 295.433 300.562 295.263 300.115C294.26 298.218 294.218 297.751 294.425 297.655L338.227 270.167Z" fill="#37474F"/>
<path d="M291.992 291.897C292.75 294.379 293.871 296.737 295.318 298.892C296.015 299.34 296.799 299.636 297.619 299.759C298.439 299.882 299.275 299.83 300.073 299.607C303.824 298.701 307.261 296.802 310.024 294.109C311.976 292.247 314.178 290.665 316.566 289.409C319.466 288.035 325.994 285.176 328.826 283.65C331.484 282.223 333.822 280.268 335.698 277.905C337.072 276.009 338.818 272.531 338.639 270.745C337.374 267.034 335.89 265.247 333.334 265.164C330.777 265.082 327.548 266.539 323.342 268.449C322.077 269.027 320.511 269.824 319.823 270.099C317.212 271.198 314.821 272.298 312.951 273.218C311.381 274.115 309.629 274.645 307.825 274.772C306.998 274.838 306.174 274.62 305.488 274.153C304.622 273.507 303.935 272.243 303.138 272.586C303.138 272.586 290.59 282.674 289.545 283.417C288.501 284.159 290.026 285.671 291.992 291.897Z" fill="#455A64"/>
<path d="M320.703 269.411C321.308 269.504 321.888 269.719 322.407 270.044C322.968 270.403 323.485 270.827 323.947 271.308C324.524 271.913 323.727 272.531 322.93 271.913C322.3 271.374 321.608 270.912 320.868 270.538C320.341 270.288 319.745 270.225 319.177 270.36L318.435 270.676C318.339 270.044 319.975 269.356 320.703 269.411Z" fill="#FAFAFA"/>
<path d="M314.051 272.161C314.268 272.003 314.516 271.893 314.779 271.836C315.042 271.779 315.313 271.777 315.577 271.831C316.249 271.968 316.872 272.287 317.377 272.752C317.998 273.3 318.572 273.897 319.095 274.539C319.397 274.965 318.325 275.542 317.927 275.102C317.418 274.544 316.882 274.011 316.319 273.508C316.016 273.261 314.807 272.381 313.996 272.67L313.652 272.835C313.615 272.743 313.614 272.641 313.65 272.549C313.685 272.457 313.755 272.382 313.845 272.34L314.051 272.161Z" fill="#FAFAFA"/>
<path d="M310.326 274.168C310.673 274.044 311.052 274.044 311.398 274.168C311.832 274.357 312.232 274.617 312.58 274.938C313.201 275.544 313.729 276.239 314.147 276.999C314.491 277.577 313.336 278.016 313.089 277.645C312.55 276.601 311.744 275.719 310.752 275.089C310.302 274.829 309.8 274.674 309.282 274.635C309.282 274.525 309.405 274.415 309.515 274.374C309.777 274.276 310.049 274.207 310.326 274.168Z" fill="#FAFAFA"/>
<path d="M280.749 269C280.749 269 287.786 281.465 289.738 284.242C290.356 285.135 292.349 284.517 293.49 284.407C294.854 284.173 296.249 284.173 297.613 284.407C301.241 285.424 303.289 284.984 302.437 280.146C302.259 279.157 302.588 278.497 303.812 278.098C304.731 277.925 305.612 277.585 306.409 277.095C306.409 276.944 306.299 276.793 306.148 276.724C305.54 276.48 304.99 276.108 304.538 275.634C304.085 275.16 303.739 274.594 303.523 273.975C301.008 268.477 298.726 257.345 298.726 257.345L280.749 269Z" fill="#FFA8A7"/>
<path d="M227.395 296.872C229.553 293.422 230.721 286.784 235.463 273.273L253.069 286.179L242.981 305.778C242.628 306.667 242.361 307.587 242.184 308.527C239.833 311.977 227.395 296.872 227.395 296.872Z" fill="#FFA8A7"/>
<path d="M220.853 304.239C220.818 303.565 220.818 302.891 220.853 302.218C221.32 300.459 222.406 299.978 223.794 299.002C225.198 298.063 226.485 296.96 227.629 295.717C228.096 295.071 228.178 294.741 228.907 294.453C229.845 294.156 230.836 294.067 231.812 294.193C232.787 294.319 233.724 294.656 234.556 295.181C238.541 297.284 239.765 299.813 239.531 302.548C239.366 304.637 239.187 307.413 241.029 308.65C241.799 309.173 243.008 305.902 243.008 305.902C244.135 307.812 242.541 310.437 241.716 314.299C241.226 316.425 241.189 318.631 241.606 320.773C242.005 324.154 242.472 324.14 244.273 324.373C245.812 324.58 250.21 324.291 252.876 326.146C253.901 326.735 254.717 327.628 255.21 328.703C255.703 329.777 255.848 330.978 255.625 332.139C255.144 333.445 251.145 339.753 236.535 337.389C232.288 336.716 223.382 330.05 223.519 329.418C223.588 328.783 223.588 328.142 223.519 327.507C223.519 326.009 223.409 324.525 223.34 323.027C223.396 321.597 223.313 320.166 223.093 318.752C222.828 317.589 222.645 316.409 222.543 315.22C222.268 312.224 221.989 309.223 221.705 306.218C221.512 305.283 220.743 305.091 220.853 304.239Z" fill="#455A64"/>
<path d="M219.025 303.647C217.65 305.022 218.448 309.145 220.399 313.942C221.265 316.099 222.859 319.81 222.392 323.755C221.925 327.699 221.829 329.555 222.846 331.41C224.44 334.296 232.934 337.994 237.964 339.162C234.94 334.914 233.181 329.896 232.893 324.689C232.398 315.989 231.724 310.382 227.752 306.52C222.667 301.654 219.025 303.647 219.025 303.647Z" fill="#263238"/>
<path d="M255.543 332.07C255.543 332.07 252.615 337.568 241.304 337.389C236.851 337.321 234.432 335.149 234.349 328.373C234.226 320.223 233.566 311.99 230.927 307.936C228.288 303.881 224.055 301.93 220.825 302.218C220.07 302.426 219.424 302.919 219.025 303.593C219.025 303.593 222.282 302.521 227.354 306.726C231.106 309.833 232.109 316.347 232.054 324.401C232.054 327.865 231.821 331.809 232.838 334.434C233.3 335.596 234.03 336.632 234.969 337.459C235.908 338.285 237.028 338.878 238.239 339.19C244.383 340.922 252.808 338.076 254.924 335.479C255.268 334.99 255.502 334.431 255.609 333.843C255.716 333.254 255.693 332.649 255.543 332.07Z" fill="#37474F"/>
<path d="M241.95 322.835C242.416 323.164 242.744 323.653 242.871 324.209C242.926 324.903 242.794 325.599 242.49 326.225C242.185 326.851 241.719 327.384 241.139 327.769C240.466 328.181 239.875 328.044 240.947 326.615C241.632 325.475 241.98 324.164 241.95 322.835Z" fill="#FAFAFA"/>
<path d="M241.345 318.615C241.345 318.615 241.702 318.835 241.799 319.99C241.629 321.429 240.898 322.743 239.765 323.646C238.569 324.223 239.215 322.848 239.765 322.175C240.546 321.119 241.086 319.903 241.345 318.615Z" fill="#FAFAFA"/>
<path d="M241.744 313.941C241.744 313.941 242.129 314.051 241.744 315.618C241.191 316.595 240.324 317.356 239.284 317.776C238.514 317.872 238.143 317.487 239.091 316.8C239.765 316.264 241.606 314.697 241.744 313.941Z" fill="#FAFAFA"/>
<path d="M270.606 139.641C270.606 139.641 277.478 147.887 281.601 163.17C285.338 177.425 288.188 191.898 290.136 206.505C291.126 213.034 292.061 219.328 294.342 231.89C296.5 243.82 301.86 269.618 301.86 269.618C301.86 269.618 300.925 273.562 295.607 275.885C292.115 277.257 288.334 277.73 284.611 277.259C284.611 277.259 280.969 271.033 273.382 256.396C269.904 250.033 267.543 243.12 266.4 235.959C265.494 231.096 264.97 226.17 264.834 221.225L236.287 172.874C233.818 169.95 231.883 166.614 230.57 163.019C226.543 152.917 231.683 138.349 231.683 138.349L270.606 139.641Z" fill="#37474F"/>
<path d="M270.606 139.641C270.606 139.641 277.478 147.887 281.601 163.17C285.338 177.425 288.188 191.898 290.136 206.505C291.126 213.034 292.061 219.328 294.342 231.89C296.5 243.82 301.86 269.618 301.86 269.618C301.86 269.618 300.925 273.562 295.607 275.885C292.115 277.257 288.334 277.73 284.611 277.259C284.611 277.259 280.969 271.033 273.382 256.396C269.904 250.033 267.543 243.12 266.4 235.959C265.494 231.096 264.97 226.17 264.834 221.225L236.287 172.874C233.818 169.95 231.883 166.614 230.57 163.019C226.543 152.917 231.683 138.349 231.683 138.349L270.606 139.641Z" fill="#37474F"/>
<path d="M289.559 202.781C287.701 189.429 285.039 176.202 281.588 163.171C280.461 159.002 279.004 154.93 277.231 150.994L241.139 150.361C238.39 156.642 236.329 164.49 242.211 174.083L243.75 185.519L264.792 221.253C264.929 226.198 265.453 231.124 266.359 235.987C267.501 243.148 269.863 250.061 273.341 256.424L274.001 257.688C276.705 253.819 279.117 249.753 281.217 245.525C283.278 240.632 284.708 231.176 286.865 219.219C287.649 214.835 288.68 208.444 289.559 202.781Z" fill="#263238"/>
<path d="M246.856 139.641C242.702 144.527 240.26 150.637 239.902 157.041C239.62 163.249 241.571 169.353 245.4 174.248C246.774 195.194 250.966 235.533 250.966 235.533C245.468 241.236 243.998 244.906 240.795 255.132C238.857 261.33 233.181 280.077 230.982 287.073C244.41 287.65 246.939 299.154 246.939 299.154C246.939 299.154 263.212 272.916 271.431 258.1C277.506 247.105 278.303 244.535 279.925 238.007C281.546 231.478 281.89 225.431 283.883 211.81C285.876 198.19 289.38 179.402 290.397 165.988C291.415 152.574 291.552 138.349 291.552 138.349L246.856 139.641Z" fill="#37474F"/>
<path d="M229.099 156.051C230.702 155.532 232.108 154.534 233.126 153.192C233.604 152.258 233.955 151.264 234.171 150.237C234.581 148.508 235.147 146.82 235.861 145.193L236.892 145.661C236.218 147.236 235.671 148.863 235.257 150.526C235.027 151.667 234.633 152.769 234.088 153.797C232.879 155.437 231.157 156.627 229.196 157.178C229.168 156.807 229.127 156.436 229.099 156.051Z" fill="#263238"/>
<path d="M256.01 168.05C255.768 168.078 255.524 168.078 255.282 168.05C253.632 167.693 252.354 166.579 249.784 163.322C247.846 160.848 248.038 159.061 248.41 156.12C248.533 155.034 249.674 149.248 249.784 147.723L250.87 148.327C250.87 149.88 249.701 155.199 249.578 156.244C249.262 159.171 249.11 160.518 250.76 162.635C253.11 165.645 254.237 166.648 255.584 166.937C258.534 167.004 261.463 166.417 264.16 165.219C265.04 164.614 266.524 156.972 267.39 150.375L268.517 150.526C268.077 153.894 266.51 164.971 264.806 166.153C263.102 167.335 258.292 168.119 256.01 168.05Z" fill="#263238"/>
<path d="M231.394 67.2775C227.56 74.6031 228.027 81.1727 229.14 91.467C230.157 100.964 230.872 106.833 231.752 118.57C232.426 125.867 232.163 133.221 230.968 140.451C230.968 140.451 231.339 146.127 248.066 150.388C277.45 157.878 291.552 149.343 291.552 149.343C291.552 149.343 292.266 132.85 291.126 111.148C289.848 86.8903 289.421 83.3443 287.552 77.5718C286.067 74.1867 283.392 71.4632 280.034 69.9164C277.107 68.542 270.125 66.3155 265.974 64.7074C259.29 62.3767 252.259 61.1963 245.179 61.2164C236.809 60.6529 233.387 63.4704 231.394 67.2775Z" fill="#F5F5F5"/>
<path d="M243.118 62.5097H245.578C252.355 62.5321 259.081 63.6841 265.479 65.9182C267.17 66.5642 269.328 67.2926 271.417 68.076C274.537 69.1756 277.767 70.3163 279.457 71.086C282.508 72.4633 284.952 74.9069 286.329 77.958C288.102 83.4556 288.514 86.4381 289.82 111.109C290.796 129.8 290.397 144.85 290.274 148.382C288.322 149.331 281.849 151.983 270.785 151.983C263.235 151.952 255.719 150.983 248.409 149.097C234.569 145.579 232.604 141.194 232.37 140.493C233.528 133.222 233.782 125.836 233.126 118.503C232.384 108.566 231.752 102.821 230.968 95.5503L230.501 91.3447C229.401 81.0779 228.962 74.9343 232.617 67.9798C233.992 65.3135 236.342 62.5922 243.118 62.5922M243.118 61.2178C236.246 61.2178 233.222 63.8704 231.394 67.3476C227.56 74.6732 228.027 81.2428 229.14 91.5371C230.157 101.034 230.872 106.903 231.752 118.64C232.426 125.937 232.163 133.291 230.968 140.521C230.968 140.521 231.339 146.197 248.066 150.458C255.458 152.422 263.067 153.456 270.716 153.536C284.748 153.536 291.552 149.413 291.552 149.413C291.552 149.413 292.266 132.92 291.126 111.219C289.848 86.9603 289.421 83.4144 287.552 77.6419C286.067 74.2567 283.392 71.5333 280.034 69.9865C277.107 68.6121 270.125 66.3855 265.974 64.7775C259.418 62.4817 252.524 61.3017 245.578 61.2865H243.118V61.2178Z" fill="#E0E0E0"/>
<path d="M266.702 56.4074L265.878 65.3272C260.985 66.3855 249.124 65.6296 246.897 62.5784L247.365 54.332L266.702 56.4074Z" fill="#FFA8A7"/>
<path d="M279.416 33.5371C279.416 33.5371 281.684 35.2551 283.402 41.1788L280.048 43.639C278.949 39.4745 277.753 35.2414 279.416 33.5371Z" fill="#F28F8F"/>
<path d="M270.757 16.9612C279.1 17.511 280.488 21.8541 279.251 36.0654C282.178 49.5621 278.138 54.9085 276.392 56.6815C272.475 58.7843 268.476 59.1416 263.047 57.726C258.924 56.6402 248.437 53.6028 244.053 47.0332C238.885 39.3915 237.538 27.7915 243.035 23.4347C250.76 17.3186 267.445 16.7413 270.757 16.9612Z" fill="#FFA8A7"/>
<path d="M276.392 56.6684C275.43 57.6442 269.864 59.4172 266.428 59.0323L266.703 56.4072C269.905 56.9405 273.166 57.0284 276.392 56.6684Z" fill="#F28F8F"/>
<path d="M271.637 26.775C271.461 27.3872 271.197 27.9705 270.853 28.5067C269.88 29.8356 268.609 30.9181 267.143 31.6679C267.76 33.4039 268.135 35.2169 268.256 37.0555C268.308 37.6498 268.173 38.2454 267.871 38.7598C267.776 38.9476 267.63 39.1053 267.451 39.2154C267.271 39.3256 267.065 39.3839 266.854 39.3839C266.643 39.3839 266.437 39.3256 266.257 39.2154C266.078 39.1053 265.932 38.9476 265.837 38.7598C265.392 37.7501 264.824 36.7992 264.146 35.9285C263.276 34.9081 262.055 34.251 260.724 34.0868C255.694 33.592 255.68 41.4261 257.687 44.0787C260.985 48.4081 263.707 45.6318 263.707 45.6318C263.707 45.6318 265.397 52.3251 260.545 55.2526C260.545 55.2526 252.739 57.1768 247.406 54.4692C244.973 49.4526 241.675 46.5252 239.063 41.1787C234.473 31.819 236.672 23.6139 239.792 21.9371C238.912 17.5665 241.579 13.2784 247.227 10.612C252.876 7.94568 260.49 9.32008 266.469 10.2684C269.999 10.8338 273.609 10.6275 277.052 9.66368C277.533 9.51013 278.032 9.41778 278.536 9.3888C278.796 9.36856 279.057 9.41178 279.296 9.51473C279.536 9.61768 279.747 9.77728 279.911 9.97979C280.073 10.2669 280.159 10.5913 280.159 10.9213C280.159 11.2512 280.073 11.5756 279.911 11.8627C279.564 12.4204 279.252 12.9987 278.976 13.5945C279.602 13.4979 280.242 13.615 280.793 13.9266C281.344 14.2383 281.774 14.7265 282.014 15.3125C282.367 16.1295 282.501 17.0247 282.402 17.9094C282.303 18.794 281.975 19.6376 281.45 20.3565C280.38 21.785 278.859 22.8115 277.134 23.2703C275.418 23.7231 273.644 23.9176 271.87 23.8475C272.034 24.8277 271.954 25.8332 271.637 26.775Z" fill="#263238"/>
<path d="M266.249 61.52C267.527 61.52 268.915 64.0902 271.403 66.6878C265.964 69.3558 259.82 70.2315 253.852 69.1892C243.338 67.6086 241.318 61.2177 241.318 61.2177C241.318 61.2177 243.723 59.3622 244.987 58.1253C246.526 56.6134 247.282 56.5859 247.282 56.5859L247.159 58.7437C247.159 58.7437 249.179 60.8328 255.584 62.1248C259.123 62.9515 262.826 62.7416 266.249 61.52Z" fill="#E6E6E6"/>
<path d="M303.454 123.409C303.454 123.409 300.444 108.29 298.259 97.7762C296.074 87.262 296.885 75.0161 280.282 70.8379C277.533 74.9611 275.746 81.462 276.667 89.4748C277.588 97.4876 281.258 110.091 282.165 114.31C283.816 120.902 286.516 127.186 290.164 132.92C295.428 140.754 305.282 154.003 309.24 158.868C311.082 161.122 312.676 163.404 314.381 165.74C316.29 168.121 318.361 170.366 320.579 172.461C321.608 173.49 322.887 174.234 324.29 174.619C325.183 174.866 326.077 174.523 326.915 174.756C327.754 174.99 328.29 175.801 329.362 175.828C330.434 175.856 331.451 175.073 332.495 175.169C333.578 175.399 334.676 175.556 335.78 175.636C336.703 175.497 337.646 175.582 338.529 175.883C339.326 176.213 340.453 177.258 341.374 176.736C342.295 176.213 342.089 175.004 341.731 174.069C340.881 172.302 339.483 170.856 337.746 169.946C336.069 168.851 334.33 167.855 332.537 166.964C330.82 166.137 329.305 164.946 328.097 163.473C327.245 162.511 326.723 161.04 328.427 161.026C330.475 161.026 333.031 161.782 334.901 160.476C336.192 159.583 335.753 158.442 334.502 157.893C332.438 156.999 330.444 155.952 328.537 154.759C326.585 153.549 324.785 152.148 322.82 150.993C321.766 150.401 320.673 149.882 319.548 149.44C316.456 148.148 315.109 145.056 313.542 142.321C311.371 138.555 305.887 128.48 303.454 123.409Z" fill="#FFA8A7"/>
<path d="M279.485 107.302C279.485 107.302 276.571 95.8529 275.815 91.0562C275.059 86.2596 274.647 73.8212 279.608 69.7393C283.182 70.6051 292.761 72.3094 295.524 81.3255C298.286 90.3415 302.396 114.05 302.396 114.05L314.875 143.503C314.875 143.503 314.875 146.252 309.694 149.784C304.512 153.317 301.805 152.121 301.805 152.121C301.805 152.121 291.511 136.535 286.522 128.852C283.196 123.698 282.371 120.235 279.485 107.302Z" fill="#E6E6E6"/>
<path d="M314.257 524.515C311.332 519.951 307.286 516.213 302.506 513.657C283.264 502.579 252.175 502.579 232.975 513.657C228.202 516.218 224.161 519.955 221.237 524.515H218.585V534.562C218.942 541.543 223.725 548.47 232.947 553.803C252.189 564.881 283.278 564.881 302.478 553.803C311.714 548.47 316.525 541.543 316.882 534.562V524.515H314.257Z" fill="#540494"/>
<path opacity="0.25" d="M314.257 524.515C311.332 519.951 307.286 516.213 302.506 513.657C283.264 502.579 252.175 502.579 232.975 513.657C228.202 516.218 224.161 519.955 221.237 524.515H218.585V534.562C218.942 541.543 223.725 548.47 232.947 553.803C252.189 564.881 283.278 564.881 302.478 553.803C311.714 548.47 316.525 541.543 316.882 534.562V524.515H314.257Z" fill="black"/>
<path opacity="0.1" d="M267.747 505.342C255.158 505.342 242.582 508.091 232.975 513.657C228.202 516.218 224.161 519.955 221.237 524.515H218.585V534.562C218.942 541.544 223.725 548.471 232.947 553.803C242.568 559.301 255.13 562.118 267.72 562.118L267.747 505.342Z" fill="black"/>
<path opacity="0.1" d="M240.891 509.959C238.157 510.975 235.509 512.211 232.975 513.656C228.202 516.217 224.161 519.954 221.237 524.514H218.585V534.561C218.942 541.543 223.725 548.47 232.947 553.802C235.482 555.247 238.129 556.484 240.864 557.5L240.891 509.959Z" fill="black"/>
<path opacity="0.5" d="M294.589 509.959C297.324 510.975 299.972 512.211 302.506 513.656C307.286 516.212 311.332 519.95 314.257 524.514H316.91V534.561C316.552 541.543 311.742 548.47 302.506 553.802C299.972 555.247 297.324 556.484 294.589 557.5V509.959Z" fill="#540494"/>
<path d="M232.975 504.448C213.733 515.539 213.733 533.517 232.975 544.594C249.784 554.298 275.705 555.507 294.823 548.236L295.579 547.934C297.973 546.986 300.297 545.87 302.533 544.594C318.545 535.344 321.211 521.312 310.505 510.482C308.129 508.123 305.448 506.094 302.533 504.448C283.305 493.37 252.134 493.37 232.975 504.448Z" fill="#540494"/>
<path opacity="0.2" d="M232.975 504.448C213.733 515.539 213.733 533.517 232.975 544.594C249.784 554.298 275.705 555.507 294.823 548.236L295.579 547.934C297.973 546.986 300.297 545.87 302.533 544.594C318.545 535.344 321.211 521.312 310.505 510.482C308.129 508.123 305.448 506.094 302.533 504.448C283.305 493.37 252.134 493.37 232.975 504.448Z" fill="black"/>
<path opacity="0.5" d="M310.477 510.48C312.567 512.843 314.112 515.636 315.002 518.662C315.893 521.688 316.108 524.872 315.631 527.99C313.927 537.749 300.266 545.968 295.551 547.933C297.945 546.985 300.269 545.869 302.506 544.593C318.518 535.302 321.184 521.311 310.477 510.48Z" fill="#F5F5F5"/>
<path opacity="0.5" d="M225.003 538.561C222.913 536.199 221.368 533.406 220.48 530.379C219.592 527.353 219.381 524.168 219.863 521.051C221.567 511.293 235.229 503.088 239.929 501.108C237.535 502.057 235.212 503.173 232.975 504.448C216.963 513.698 214.31 527.731 225.003 538.561Z" fill="#F5F5F5"/>
<path d="M300.073 543.138C317.94 532.843 317.94 516.131 300.073 505.823C282.206 495.515 253.344 495.528 235.476 505.823C217.609 516.117 217.609 532.843 235.476 543.138C253.344 553.432 282.234 553.446 300.073 543.138Z" fill="#540494"/>
<path opacity="0.4" d="M300.073 543.138C317.94 532.843 317.94 516.131 300.073 505.823C282.206 495.515 253.344 495.528 235.476 505.823C217.609 516.117 217.609 532.843 235.476 543.138C253.344 553.432 282.234 553.446 300.073 543.138Z" fill="white"/>
<path opacity="0.2" d="M311.384 532.361C315.054 525.571 313.858 518.095 307.797 511.745C306.604 510.506 305.307 509.37 303.921 508.35C302.739 507.465 301.505 506.653 300.224 505.918C299.496 505.478 298.754 505.079 297.97 504.694C299.881 507.814 299.18 511.168 288.418 511.8C267.349 513.023 294.039 533.158 294.039 533.158C294.039 533.158 307.619 526.602 311.384 532.361Z" fill="white"/>
<path opacity="0.5" d="M309.213 526.795C312.374 526.437 313.941 523.194 312.718 519.538C311.494 515.882 307.921 513.202 304.76 513.559C301.599 513.917 300.032 517.16 301.269 520.816C302.506 524.472 306.052 527.152 309.213 526.795Z" fill="white"/>
<path d="M275.897 543.549C274.853 535.729 240.671 514.068 240.671 514.068C240.671 514.068 233.085 511.031 235.6 505.726C234.337 506.443 233.116 507.232 231.944 508.09C231.147 508.653 230.418 509.244 229.717 509.849C219.547 518.659 219.533 530.245 229.717 539.069C230.422 539.686 231.161 540.264 231.93 540.8C233.02 541.595 234.154 542.329 235.325 542.999C236.492 543.708 237.699 544.351 238.94 544.924C239.943 545.405 240.974 545.844 242.018 546.298C243.063 546.751 244.135 547.095 245.234 547.452C248.562 548.542 251.972 549.36 255.432 549.899L257.728 550.242C261.11 550.673 264.516 550.884 267.926 550.875C272.106 550.873 276.28 550.533 280.405 549.858C280.405 549.858 274.921 548.717 275.897 543.549Z" fill="#540494"/>
<path opacity="0.3" d="M275.897 543.549C274.853 535.729 240.671 514.068 240.671 514.068C240.671 514.068 233.085 511.031 235.6 505.726C234.337 506.443 233.116 507.232 231.944 508.09C231.147 508.653 230.418 509.244 229.717 509.849C219.547 518.659 219.533 530.245 229.717 539.069C230.422 539.686 231.161 540.264 231.93 540.8C233.02 541.595 234.154 542.329 235.325 542.999C236.492 543.708 237.699 544.351 238.94 544.924C239.943 545.405 240.974 545.844 242.018 546.298C243.063 546.751 244.135 547.095 245.234 547.452C248.562 548.542 251.972 549.36 255.432 549.899L257.728 550.242C261.11 550.673 264.516 550.884 267.926 550.875C272.106 550.873 276.28 550.533 280.405 549.858C280.405 549.858 274.921 548.717 275.897 543.549Z" fill="white"/>
<path d="M243.668 510.564C230.913 517.931 230.391 529.682 242.114 537.406C242.609 537.736 243.131 538.052 243.668 538.368C256.972 546.051 278.522 546.051 291.772 538.368C305.021 530.686 305.076 518.247 291.772 510.564L290.095 509.671C276.777 502.923 256.422 503.225 243.668 510.564Z" fill="#540494"/>
<path opacity="0.2" d="M243.668 510.564C230.913 517.931 230.391 529.682 242.114 537.406C242.609 537.736 243.131 538.052 243.668 538.368C256.972 546.051 278.522 546.051 291.772 538.368C305.021 530.686 305.076 518.247 291.772 510.564L290.095 509.671C276.777 502.923 256.422 503.225 243.668 510.564Z" fill="black"/>
<path d="M267.761 543.274C285.736 543.274 300.307 534.863 300.307 524.486C300.307 514.11 285.736 505.698 267.761 505.698C249.786 505.698 235.215 514.11 235.215 524.486C235.215 534.863 249.786 543.274 267.761 543.274Z" fill="#540494"/>
<path opacity="0.5" d="M267.761 543.274C285.736 543.274 300.307 534.863 300.307 524.486C300.307 514.11 285.736 505.698 267.761 505.698C249.786 505.698 235.215 514.11 235.215 524.486C235.215 534.863 249.786 543.274 267.761 543.274Z" fill="black"/>
<path d="M244.754 516.432C257.453 509.093 278.069 509.093 290.769 516.432C295.978 519.442 299.015 523.208 299.991 527.098C299.042 531.001 295.978 534.767 290.769 537.763C278.069 545.102 257.453 545.102 244.754 537.763C239.558 534.767 236.507 531.001 235.531 527.098C236.48 523.208 239.558 519.442 244.754 516.432Z" fill="#540494"/>
<path opacity="0.35" d="M244.754 516.432C257.453 509.093 278.069 509.093 290.769 516.432C295.978 519.442 299.015 523.208 299.991 527.098C299.042 531.001 295.978 534.767 290.769 537.763C278.069 545.102 257.453 545.102 244.754 537.763C239.558 534.767 236.507 531.001 235.531 527.098C236.48 523.208 239.558 519.442 244.754 516.432Z" fill="black"/>
<path d="M288.253 530.15V526.26C288.253 524.666 287.154 523.126 284.79 521.738H284.707C280.337 519.209 275.815 519.539 271.788 520.556C270.084 520.996 268.448 521.546 266.964 522.054C265.272 522.685 263.547 523.222 261.796 523.662C260.99 523.849 260.163 523.928 259.336 523.896C258.629 523.856 257.937 523.674 257.302 523.36L257.467 523.236L257.975 522.934C258.415 522.67 258.874 522.44 259.349 522.247C260.484 521.744 261.707 521.471 262.948 521.443C264.188 521.414 265.422 521.631 266.579 522.082L270.702 517.876V514.014C267.023 512.759 263.055 512.616 259.294 513.602C258.054 513.921 256.84 514.34 255.666 514.852L251.543 512.447L246.636 515.32V519.182L248.34 520.171C247.887 520.838 247.635 521.62 247.612 522.425V526.274C247.612 527.868 248.767 529.407 251.158 530.796C253.246 532.022 255.609 532.703 258.03 532.775H259.404C261.926 532.583 264.409 532.047 266.785 531.18L268.159 530.686L263.954 534.891V538.753C266.544 539.734 269.306 540.177 272.073 540.057C274.84 539.936 277.553 539.254 280.048 538.052L284.171 540.43L289.146 537.558V533.696L287.442 532.706C287.965 531.955 288.248 531.064 288.253 530.15ZM277.753 529.806C277.382 530.026 276.996 530.219 276.598 530.383C274.01 531.501 271.083 531.546 268.462 530.507C272.351 529.133 275.609 527.937 278.385 529.407C278.183 529.553 277.971 529.686 277.753 529.806Z" fill="#540494"/>
<path d="M271.788 520.502C270.084 520.941 268.448 521.491 266.964 522C265.272 522.631 263.547 523.168 261.796 523.608C260.99 523.795 260.163 523.873 259.336 523.841C258.501 523.8 257.689 523.555 256.972 523.127C255.364 522.206 255.13 520.859 257.467 519.32L257.975 519.003C258.419 518.752 258.878 518.527 259.349 518.33C260.484 517.827 261.707 517.554 262.948 517.526C264.188 517.497 265.422 517.715 266.579 518.165L270.702 513.959C267.023 512.705 263.055 512.561 259.294 513.547C258.054 513.867 256.84 514.285 255.666 514.798L251.543 512.393L246.636 515.265L250.759 517.643C246.636 520.818 246.499 524.116 251.199 526.838C253.287 528.064 255.651 528.745 258.071 528.817H259.446C261.97 528.634 264.455 528.092 266.826 527.209C271.609 525.614 275.485 523.731 278.701 525.587C280.859 526.838 280.254 528.404 277.89 529.71C277.52 529.93 277.134 530.123 276.736 530.287C275.43 530.835 274.028 531.117 272.612 531.117C271.197 531.117 269.795 530.835 268.489 530.287L264.105 534.672C266.695 535.652 269.457 536.096 272.224 535.975C274.991 535.855 277.704 535.173 280.199 533.971L284.322 536.348L289.298 533.476L285.119 531.181C289.243 527.978 289.751 524.487 284.913 521.656H284.831C280.807 519.56 276.117 519.145 271.788 520.502Z" fill="#540494"/>
<g opacity="0.3">
<path d="M271.788 520.502C270.084 520.941 268.448 521.491 266.964 522C265.272 522.631 263.547 523.168 261.796 523.608C260.99 523.795 260.163 523.873 259.336 523.841C258.501 523.8 257.689 523.555 256.972 523.127C255.364 522.206 255.13 520.859 257.467 519.32L257.975 519.003C258.419 518.752 258.878 518.527 259.349 518.33C260.484 517.827 261.707 517.554 262.948 517.526C264.188 517.497 265.422 517.715 266.579 518.165L270.702 513.959C267.023 512.705 263.055 512.561 259.294 513.547C258.054 513.867 256.84 514.285 255.666 514.798L251.543 512.393L246.636 515.265L250.759 517.643C246.636 520.818 246.499 524.116 251.199 526.838C253.287 528.064 255.651 528.745 258.071 528.817H259.446C261.97 528.634 264.455 528.092 266.826 527.209C271.609 525.614 275.485 523.731 278.701 525.587C280.859 526.838 280.254 528.404 277.89 529.71C277.52 529.93 277.134 530.123 276.736 530.287C275.43 530.835 274.028 531.117 272.612 531.117C271.197 531.117 269.795 530.835 268.489 530.287L264.105 534.672C266.695 535.652 269.457 536.096 272.224 535.975C274.991 535.855 277.704 535.173 280.199 533.971L284.322 536.348L289.298 533.476L285.119 531.181C289.243 527.978 289.751 524.487 284.913 521.656H284.831C280.807 519.56 276.117 519.145 271.788 520.502Z" fill="white"/>
</g>
<path opacity="0.45" d="M246.527 515.265L251.557 512.984L255.68 514.798L251.502 512.393L246.527 515.265Z" fill="#F5F5F5"/>
<path opacity="0.45" d="M258.731 513.697C262.281 512.994 265.945 513.121 269.438 514.068L266.538 518.191L270.661 513.985C266.808 512.668 262.643 512.568 258.731 513.697Z" fill="#F5F5F5"/>
<path opacity="0.45" d="M284.707 521.683H284.79C289.628 524.514 289.147 528.005 284.996 531.207C288.679 527.208 288.006 524.418 284.02 522.123C280.249 520.199 275.938 519.608 271.788 520.446C275.815 519.484 280.337 519.154 284.707 521.683Z" fill="#F5F5F5"/>
<path opacity="0.45" d="M284.996 531.262L288.157 533.694L284.144 536.512L289.119 533.639L284.996 531.262Z" fill="#F5F5F5"/>
<path opacity="0.45" d="M276.598 530.383C274.143 531.624 271.304 531.875 268.668 531.084L263.926 534.836L268.311 530.452C269.626 530.995 271.038 531.269 272.462 531.257C273.885 531.246 275.292 530.948 276.598 530.383Z" fill="#F5F5F5"/>
<path opacity="0.45" d="M261.755 523.607C260.789 524.001 259.742 524.155 258.703 524.057C257.665 523.959 256.665 523.612 255.79 523.044C254.416 521.807 255.268 520.474 257.426 519.319C255.089 520.859 255.323 522.206 256.931 523.126C257.649 523.554 258.46 523.8 259.295 523.841C260.122 523.873 260.949 523.795 261.755 523.607Z" fill="#F5F5F5"/>
<path opacity="0.45" d="M250.608 517.684C250.265 517.986 247.269 520.79 248.588 523.58C249.907 526.37 254.388 528.473 257.934 528.857C255.514 528.778 253.153 528.098 251.062 526.878C246.348 524.157 246.43 520.858 250.608 517.684Z" fill="#F5F5F5"/>
<path d="M323.603 510.372C320.686 505.806 316.644 502.068 311.866 499.514C292.624 488.422 261.535 488.422 242.335 499.514C237.556 502.068 233.514 505.806 230.597 510.372H227.931V520.419C228.288 527.401 233.057 534.328 242.293 539.66C261.535 550.752 292.624 550.752 311.824 539.66C321.06 534.341 325.871 527.414 326.214 520.419V510.372H323.603Z" fill="#540494"/>
<path opacity="0.25" d="M323.603 510.372C320.686 505.806 316.644 502.068 311.866 499.514C292.624 488.422 261.535 488.422 242.335 499.514C237.556 502.068 233.514 505.806 230.597 510.372H227.931V520.419C228.288 527.401 233.057 534.328 242.293 539.66C261.535 550.752 292.624 550.752 311.824 539.66C321.06 534.341 325.871 527.414 326.214 520.419V510.372H323.603Z" fill="black"/>
<path opacity="0.1" d="M277.052 491.198C264.462 491.198 251.887 493.947 242.28 499.445C237.501 501.998 233.46 505.737 230.542 510.302H227.876V520.349C228.233 527.331 233.002 534.258 242.238 539.591C251.859 545.089 264.421 547.837 277.011 547.837L277.052 491.198Z" fill="black"/>
<path opacity="0.1" d="M250.196 495.802C247.461 496.822 244.814 498.063 242.28 499.513C237.501 502.066 233.46 505.805 230.542 510.37H227.876V520.417C228.233 527.399 233.002 534.326 242.238 539.659C244.77 541.114 247.418 542.355 250.155 543.37L250.196 495.802Z" fill="black"/>
<path opacity="0.5" d="M303.894 495.802C306.629 496.822 309.277 498.063 311.811 499.513C316.589 502.066 320.631 505.805 323.548 510.37H326.201V520.417C325.857 527.399 321.033 534.326 311.811 539.659C309.279 541.114 306.631 542.355 303.894 543.37V495.802Z" fill="#540494"/>
<path d="M242.279 490.305C223.038 501.383 223.038 519.36 242.279 530.451C259.075 540.072 285.01 541.364 304.128 534.08L304.884 533.791C307.277 532.843 309.601 531.727 311.838 530.451C327.85 521.202 330.502 507.169 319.81 496.339C317.433 493.985 314.752 491.96 311.838 490.319C292.61 479.214 261.48 479.214 242.279 490.305Z" fill="#540494"/>
<path opacity="0.2" d="M242.279 490.305C223.038 501.383 223.038 519.36 242.279 530.451C259.075 540.072 285.01 541.364 304.128 534.08L304.884 533.791C307.277 532.843 309.601 531.727 311.838 530.451C327.85 521.202 330.502 507.169 319.81 496.339C317.433 493.985 314.752 491.96 311.838 490.319C292.61 479.214 261.48 479.214 242.279 490.305Z" fill="black"/>
<path opacity="0.5" d="M319.782 496.339C321.881 498.696 323.435 501.488 324.333 504.514C325.231 507.541 325.451 510.728 324.977 513.849C323.273 523.607 309.625 531.812 304.911 533.791C307.305 532.843 309.629 531.727 311.866 530.452C327.822 521.202 330.475 507.169 319.782 496.339Z" fill="#F5F5F5"/>
<path opacity="0.5" d="M234.267 524.417C232.176 522.055 230.632 519.262 229.744 516.236C228.855 513.209 228.645 510.024 229.127 506.907C230.817 497.149 244.479 488.93 249.193 486.965C246.799 487.913 244.475 489.029 242.238 490.305C226.268 499.568 223.615 513.587 234.267 524.417Z" fill="#F5F5F5"/>
<path d="M309.378 528.994C327.245 518.686 327.245 501.987 309.378 491.679C291.511 481.371 262.648 481.371 244.781 491.679C226.914 501.987 226.914 518.686 244.781 528.994C262.648 539.302 291.524 539.302 309.378 528.994Z" fill="#540494"/>
<path opacity="0.4" d="M309.378 528.994C327.245 518.686 327.245 501.987 309.378 491.679C291.511 481.371 262.648 481.371 244.781 491.679C226.914 501.987 226.914 518.686 244.781 528.994C262.648 539.302 291.524 539.302 309.378 528.994Z" fill="white"/>
<path opacity="0.2" d="M320.689 518.219C324.359 511.43 323.163 503.939 317.102 497.603C315.908 496.368 314.612 495.237 313.226 494.222C312.041 493.338 310.807 492.521 309.529 491.776C308.8 491.35 308.045 490.938 307.275 490.553C309.172 493.686 308.484 497.026 297.654 497.658C276.598 498.895 303.289 519.017 303.289 519.017C303.289 519.017 316.923 512.447 320.689 518.219Z" fill="white"/>
<path opacity="0.5" d="M318.518 512.653C321.679 512.296 323.245 509.038 322.008 505.382C320.772 501.727 317.226 499.06 314.064 499.404C310.903 499.747 309.336 503.019 310.56 506.674C311.783 510.33 315.356 512.997 318.518 512.653Z" fill="white"/>
<path d="M285.202 529.42C284.158 521.6 249.963 499.953 249.963 499.953C249.963 499.953 242.39 496.902 244.905 491.61C243.639 492.322 242.418 493.112 241.249 493.974C240.477 494.522 239.733 495.109 239.022 495.734C228.838 504.543 228.824 516.116 239.022 524.94C239.71 525.544 240.452 526.135 241.249 526.713C242.338 527.503 243.466 528.237 244.63 528.912C245.803 529.581 247.012 530.213 248.258 530.808C249.248 531.276 250.292 531.729 251.337 532.183C252.381 532.636 253.454 532.98 254.539 533.337C257.874 534.419 261.288 535.237 264.751 535.784C265.507 535.907 266.277 536.017 267.033 536.113C274.575 537.092 282.219 536.963 289.724 535.729C289.724 535.729 284.213 534.574 285.202 529.42Z" fill="#540494"/>
<path opacity="0.3" d="M285.202 529.42C284.158 521.6 249.963 499.953 249.963 499.953C249.963 499.953 242.39 496.902 244.905 491.61C243.639 492.322 242.418 493.112 241.249 493.974C240.477 494.522 239.733 495.109 239.022 495.734C228.838 504.543 228.824 516.116 239.022 524.94C239.71 525.544 240.452 526.135 241.249 526.713C242.338 527.503 243.466 528.237 244.63 528.912C245.803 529.581 247.012 530.213 248.258 530.808C249.248 531.276 250.292 531.729 251.337 532.183C252.381 532.636 253.454 532.98 254.539 533.337C257.874 534.419 261.288 535.237 264.751 535.784C265.507 535.907 266.277 536.017 267.033 536.113C274.575 537.092 282.219 536.963 289.724 535.729C289.724 535.729 284.213 534.574 285.202 529.42Z" fill="white"/>
<path d="M252.972 496.435C240.218 503.802 239.695 515.553 251.419 523.277C251.914 523.594 252.436 523.923 252.972 524.24C266.276 531.909 287.827 531.909 301.076 524.24C314.326 516.57 314.38 504.118 301.076 496.435C300.54 496.119 299.977 495.817 299.413 495.528C286.082 488.766 265.727 489.069 252.972 496.435Z" fill="#540494"/>
<path opacity="0.2" d="M252.972 496.435C240.218 503.802 239.695 515.553 251.419 523.277C251.914 523.594 252.436 523.923 252.972 524.24C266.276 531.909 287.827 531.909 301.076 524.24C314.326 516.57 314.38 504.118 301.076 496.435C300.54 496.119 299.977 495.817 299.413 495.528C286.082 488.766 265.727 489.069 252.972 496.435Z" fill="black"/>
<path d="M277.066 529.118C295.04 529.118 309.612 520.706 309.612 510.33C309.612 499.954 295.04 491.542 277.066 491.542C259.091 491.542 244.52 499.954 244.52 510.33C244.52 520.706 259.091 529.118 277.066 529.118Z" fill="#540494"/>
<path opacity="0.5" d="M277.066 529.118C295.04 529.118 309.612 520.706 309.612 510.33C309.612 499.954 295.04 491.542 277.066 491.542C259.091 491.542 244.52 499.954 244.52 510.33C244.52 520.706 259.091 529.118 277.066 529.118Z" fill="black"/>
<path d="M254.045 502.317C266.758 494.978 287.36 494.978 300.073 502.317C305.269 505.313 308.32 509.079 309.296 512.982C308.347 516.886 305.269 520.651 300.073 523.648C287.36 530.987 266.758 530.987 254.045 523.648C248.849 520.651 245.798 516.886 244.836 512.982C245.784 509.052 248.849 505.286 254.045 502.317Z" fill="#540494"/>
<path opacity="0.35" d="M254.045 502.317C266.758 494.978 287.36 494.978 300.073 502.317C305.269 505.313 308.32 509.079 309.296 512.982C308.347 516.886 305.269 520.651 300.073 523.648C287.36 530.987 266.758 530.987 254.045 523.648C248.849 520.651 245.798 516.886 244.836 512.982C245.784 509.052 248.849 505.286 254.045 502.317Z" fill="black"/>
<path d="M297.558 516.061V512.186C297.558 510.591 296.458 509.038 294.081 507.65H293.998C289.627 505.135 285.119 505.465 281.092 506.482C279.374 506.908 277.753 507.471 276.268 507.98C274.579 508.615 272.854 509.147 271.101 509.574C270.298 509.755 269.476 509.834 268.654 509.808C267.943 509.757 267.248 509.57 266.606 509.258L266.771 509.148L267.28 508.832C267.724 508.58 268.183 508.355 268.654 508.159C269.788 507.653 271.011 507.378 272.252 507.35C273.493 507.321 274.728 507.54 275.883 507.994L280.007 503.788V499.926C276.33 498.695 272.373 498.57 268.627 499.569C267.384 499.887 266.17 500.31 264.998 500.833L260.875 498.414L255.9 501.3V505.066L257.604 506.042C257.139 506.703 256.885 507.488 256.875 508.296V512.158C256.875 513.752 258.016 515.292 260.421 516.68C262.512 517.9 264.874 518.58 267.293 518.659H268.668C271.189 518.467 273.673 517.931 276.048 517.065L277.423 516.57L273.217 520.776V524.651C275.809 525.621 278.57 526.058 281.336 525.938C284.101 525.818 286.813 525.142 289.311 523.95L293.435 526.328L298.41 523.456V519.47L296.706 518.48C297.211 517.77 297.506 516.932 297.558 516.061ZM287.057 515.732C286.687 515.951 286.301 516.144 285.903 516.309C283.308 517.42 280.38 517.464 277.753 516.432C281.656 515.058 284.913 513.849 287.69 515.333C287.468 515.421 287.256 515.532 287.057 515.663V515.732Z" fill="#540494"/>
<path d="M281.092 506.358C279.374 506.784 277.753 507.348 276.268 507.856C274.579 508.491 272.854 509.023 271.101 509.451C270.298 509.632 269.476 509.71 268.654 509.684C267.816 509.641 267 509.396 266.276 508.97C264.682 508.049 264.448 506.688 266.771 505.162L267.28 504.846C267.724 504.594 268.183 504.37 268.654 504.173C269.788 503.667 271.011 503.392 272.252 503.364C273.493 503.336 274.728 503.555 275.883 504.008L280.007 499.802C276.329 498.543 272.361 498.395 268.599 499.376C267.356 499.694 266.142 500.117 264.971 500.641L260.848 498.222L255.872 501.108L259.995 503.486C255.872 506.674 255.721 509.973 260.435 512.694C262.526 513.914 264.888 514.594 267.307 514.673C267.765 514.701 268.224 514.701 268.682 514.673C271.203 514.482 273.686 513.945 276.062 513.079C280.845 511.485 284.707 509.602 287.937 511.457C290.081 512.708 289.49 514.275 287.126 515.58C286.756 515.8 286.37 515.993 285.972 516.158C284.665 516.702 283.264 516.982 281.848 516.982C280.433 516.982 279.032 516.702 277.725 516.158L273.355 520.542C275.944 521.521 278.706 521.965 281.472 521.847C284.238 521.729 286.952 521.051 289.449 519.855L293.572 522.232L298.547 519.36L294.424 516.982C298.547 513.766 299.042 510.275 294.204 507.444H294.122C290.078 505.426 285.414 505.037 281.092 506.358Z" fill="#540494"/>
<g opacity="0.3">
<path d="M281.092 506.359C279.374 506.785 277.753 507.349 276.268 507.857C274.579 508.492 272.854 509.024 271.101 509.452C270.298 509.633 269.476 509.711 268.654 509.685C267.816 509.642 267 509.397 266.276 508.97C264.682 508.05 264.448 506.689 266.771 505.163L267.28 504.847C267.724 504.595 268.183 504.371 268.654 504.174C269.788 503.668 271.011 503.393 272.252 503.365C273.493 503.337 274.728 503.556 275.883 504.009L280.007 499.803C276.329 498.544 272.361 498.396 268.599 499.377C267.356 499.695 266.142 500.118 264.971 500.642L260.848 498.223L255.872 501.109L259.995 503.487C255.872 506.675 255.721 509.974 260.435 512.695C262.526 513.915 264.888 514.595 267.307 514.674C267.765 514.702 268.224 514.702 268.682 514.674C271.203 514.483 273.686 513.946 276.062 513.08C280.845 511.486 284.707 509.603 287.937 511.458C290.081 512.709 289.49 514.276 287.126 515.581C286.756 515.801 286.37 515.994 285.972 516.159C284.665 516.703 283.264 516.983 281.848 516.983C280.433 516.983 279.032 516.703 277.725 516.159L273.355 520.543C275.944 521.522 278.706 521.966 281.472 521.848C284.238 521.73 286.952 521.052 289.449 519.856L293.572 522.233L298.547 519.361L294.424 516.983C298.547 513.767 299.042 510.276 294.204 507.445H294.122C290.078 505.427 285.414 505.038 281.092 506.359Z" fill="white"/>
</g>
<path opacity="0.45" d="M255.831 501.122L260.862 498.84L264.985 500.654L260.807 498.249L255.831 501.122Z" fill="#F5F5F5"/>
<path opacity="0.45" d="M268.036 499.568C271.579 498.854 275.241 498.977 278.729 499.926L275.842 504.049L279.966 499.843C276.11 498.537 271.947 498.441 268.036 499.568Z" fill="#F5F5F5"/>
<path opacity="0.45" d="M293.998 507.526H294.081C298.919 510.358 298.451 513.849 294.301 517.065C297.97 513.065 297.311 510.275 293.325 507.966C289.55 506.053 285.241 505.467 281.093 506.303C285.39 505.013 290.02 505.452 293.998 507.526Z" fill="#F5F5F5"/>
<path opacity="0.45" d="M294.301 517.12L297.462 519.539L293.448 522.37L298.424 519.498L294.301 517.12Z" fill="#F5F5F5"/>
<path opacity="0.45" d="M285.903 516.239C283.441 517.477 280.597 517.723 277.959 516.926L273.231 520.679L277.602 516.294C278.919 516.84 280.332 517.116 281.758 517.106C283.184 517.097 284.593 516.802 285.903 516.239Z" fill="#F5F5F5"/>
<path opacity="0.45" d="M271.06 509.464C270.092 509.852 269.045 510.002 268.007 509.902C266.969 509.801 265.97 509.453 265.095 508.887C263.72 507.65 264.586 506.33 266.73 505.176C264.407 506.701 264.641 508.062 266.235 508.983C266.959 509.409 267.775 509.654 268.613 509.698C269.435 509.723 270.257 509.645 271.06 509.464Z" fill="#F5F5F5"/>
<path opacity="0.45" d="M259.913 503.526C259.556 503.842 256.559 506.632 257.893 509.436C259.226 512.24 263.693 514.329 267.239 514.7C264.819 514.621 262.457 513.941 260.367 512.721C255.639 510.014 255.735 506.715 259.913 503.526Z" fill="#F5F5F5"/>
<path d="M312.388 493.823C309.462 489.26 305.417 485.522 300.636 482.965C281.395 471.888 250.32 471.888 231.119 482.965C226.339 485.522 222.294 489.26 219.368 493.823H216.715V503.87C217.073 510.852 221.856 517.779 231.092 523.112C250.333 534.189 281.409 534.189 300.609 523.112C309.845 517.779 314.655 510.852 315.013 503.87V493.823H312.388Z" fill="#540494"/>
<path opacity="0.25" d="M312.388 493.823C309.462 489.26 305.417 485.522 300.636 482.965C281.395 471.888 250.32 471.888 231.119 482.965C226.339 485.522 222.294 489.26 219.368 493.823H216.715V503.87C217.073 510.852 221.856 517.779 231.092 523.112C250.333 534.189 281.409 534.189 300.609 523.112C309.845 517.779 314.655 510.852 315.013 503.87V493.823H312.388Z" fill="black"/>
<path opacity="0.1" d="M265.878 474.65C253.302 474.65 240.713 477.399 231.119 482.966C226.339 485.522 222.294 489.26 219.368 493.823H216.715V503.87C217.073 510.852 221.856 517.779 231.092 523.112C240.713 528.609 253.275 531.427 265.85 531.427L265.878 474.65Z" fill="black"/>
<path opacity="0.1" d="M239.022 479.254C236.292 480.275 233.649 481.516 231.119 482.965C226.339 485.521 222.294 489.259 219.368 493.823H216.715V503.869C217.073 510.851 221.856 517.778 231.092 523.111C233.621 524.556 236.264 525.792 238.995 526.808L239.022 479.254Z" fill="black"/>
<path opacity="0.5" d="M292.734 479.254C295.464 480.275 298.107 481.516 300.637 482.965C305.417 485.521 309.462 489.259 312.388 493.823H315.04V503.869C314.683 510.851 309.873 517.778 300.637 523.111C298.107 524.556 295.464 525.792 292.734 526.808V479.254Z" fill="#540494"/>
<path d="M231.119 473.757C211.878 484.848 211.878 502.811 231.119 513.903C247.914 523.606 273.849 524.816 292.967 517.545L293.737 517.243C296.104 516.294 298.4 515.178 300.609 513.903C316.621 504.653 319.287 490.62 308.594 479.79C306.222 477.428 303.541 475.398 300.623 473.757C281.45 462.679 250.32 462.679 231.119 473.757Z" fill="#540494"/>
<path opacity="0.2" d="M231.119 473.757C211.878 484.848 211.878 502.811 231.119 513.903C247.914 523.606 273.849 524.816 292.967 517.545L293.737 517.243C296.104 516.294 298.4 515.178 300.609 513.903C316.621 504.653 319.287 490.62 308.594 479.79C306.222 477.428 303.541 475.398 300.623 473.757C281.45 462.679 250.32 462.679 231.119 473.757Z" fill="black"/>
<path opacity="0.5" d="M308.622 479.79C310.712 482.152 312.257 484.945 313.145 487.972C314.033 490.998 314.244 494.183 313.762 497.3C312.058 507.058 298.396 515.263 293.696 517.242C296.063 516.294 298.359 515.178 300.568 513.903C316.648 504.653 319.315 490.62 308.622 479.79Z" fill="#F5F5F5"/>
<path opacity="0.5" d="M223.134 507.815C221.044 505.453 219.499 502.66 218.611 499.633C217.722 496.607 217.512 493.422 217.994 490.305C219.698 480.547 233.36 472.341 238.06 470.362C235.693 471.311 233.396 472.427 231.188 473.702C215.107 483.076 212.441 497.039 223.134 507.815Z" fill="#F5F5F5"/>
<path d="M265.892 520.183C291.13 520.183 311.59 508.369 311.59 493.795C311.59 479.221 291.13 467.406 265.892 467.406C240.653 467.406 220.193 479.221 220.193 493.795C220.193 508.369 240.653 520.183 265.892 520.183Z" fill="#540494"/>
<path opacity="0.4" d="M265.892 520.183C291.13 520.183 311.59 508.369 311.59 493.795C311.59 479.221 291.13 467.406 265.892 467.406C240.653 467.406 220.193 479.221 220.193 493.795C220.193 508.369 240.653 520.183 265.892 520.183Z" fill="white"/>
<path opacity="0.2" d="M222.268 501.671C218.599 494.881 219.794 487.391 225.855 481.055C227.049 479.815 228.345 478.679 229.731 477.66C230.916 476.775 232.151 475.958 233.428 475.213C234.157 474.787 234.913 474.389 235.682 474.004C233.786 477.124 234.473 480.477 245.303 481.096C266.359 482.333 239.668 502.468 239.668 502.468C239.668 502.468 226.02 495.912 222.268 501.671Z" fill="white"/>
<path opacity="0.5" d="M224.44 496.104C221.278 495.747 219.712 492.503 220.949 488.848C222.186 485.192 225.731 482.512 228.893 482.869C232.054 483.226 233.621 486.47 232.397 490.126C231.174 493.782 227.601 496.462 224.44 496.104Z" fill="white"/>
<path d="M257.755 512.886C258.8 505.052 292.995 483.405 292.995 483.405C292.995 483.405 300.568 480.354 298.053 475.062C299.316 475.779 300.536 476.569 301.709 477.426C302.481 477.974 303.224 478.561 303.935 479.186C314.119 487.996 314.133 499.582 303.935 508.405C303.229 509.036 302.485 509.623 301.709 510.165C300.62 510.955 299.491 511.689 298.328 512.364C297.155 513.051 295.945 513.683 294.699 514.26C293.71 514.741 292.665 515.181 291.62 515.635C290.576 516.088 289.504 516.432 288.418 516.789C285.085 517.877 281.67 518.696 278.206 519.236L275.925 519.579C272.538 520.01 269.127 520.221 265.713 520.212C261.532 520.21 257.359 519.87 253.233 519.195C253.233 519.195 258.745 518.026 257.755 512.886Z" fill="#540494"/>
<path opacity="0.3" d="M257.755 512.886C258.8 505.052 292.995 483.405 292.995 483.405C292.995 483.405 300.568 480.354 298.053 475.062C299.316 475.779 300.536 476.569 301.709 477.426C302.481 477.974 303.224 478.561 303.935 479.186C314.119 487.996 314.133 499.582 303.935 508.405C303.229 509.036 302.485 509.623 301.709 510.165C300.62 510.955 299.491 511.689 298.328 512.364C297.155 513.051 295.945 513.683 294.699 514.26C293.71 514.741 292.665 515.181 291.62 515.635C290.576 516.088 289.504 516.432 288.418 516.789C285.085 517.877 281.67 518.696 278.206 519.236L275.925 519.579C272.538 520.01 269.127 520.221 265.713 520.212C261.532 520.21 257.359 519.87 253.233 519.195C253.233 519.195 258.745 518.026 257.755 512.886Z" fill="white"/>
<path d="M289.985 479.887C302.739 487.254 303.262 499.005 291.538 506.729C291.043 507.059 290.521 507.375 289.985 507.691C276.681 515.374 255.13 515.374 241.881 507.691C228.632 500.008 228.577 487.57 241.881 479.887C242.417 479.585 242.98 479.282 243.544 478.994C256.876 472.232 277.23 472.534 289.985 479.887Z" fill="#540494"/>
<path opacity="0.2" d="M289.985 479.887C302.739 487.254 303.262 499.005 291.538 506.729C291.043 507.059 290.521 507.375 289.985 507.691C276.681 515.374 255.13 515.374 241.881 507.691C228.632 500.008 228.577 487.57 241.881 479.887C242.417 479.585 242.98 479.282 243.544 478.994C256.876 472.232 277.23 472.534 289.985 479.887Z" fill="black"/>
<path d="M288.913 480.505C301.612 487.844 301.612 499.747 288.913 507.072C276.213 514.398 255.597 514.412 242.884 507.072C230.171 499.733 230.171 487.831 242.884 480.505C255.597 473.18 276.2 473.166 288.913 480.505Z" fill="#540494"/>
<path opacity="0.5" d="M288.913 480.505C301.612 487.844 301.612 499.747 288.913 507.072C276.213 514.398 255.597 514.412 242.884 507.072C230.171 499.733 230.171 487.831 242.884 480.505C255.597 473.18 276.2 473.166 288.913 480.505Z" fill="black"/>
<path d="M288.913 485.741C276.2 478.402 255.597 478.402 242.884 485.741C237.689 488.751 234.638 492.503 233.676 496.406C234.61 500.309 237.689 504.075 242.884 507.072C255.597 514.411 276.2 514.411 288.913 507.072C294.108 504.075 297.159 500.309 298.121 496.406C297.173 492.503 294.108 488.751 288.913 485.741Z" fill="#540494"/>
<path opacity="0.35" d="M288.913 485.741C276.2 478.402 255.597 478.402 242.884 485.741C237.689 488.751 234.638 492.503 233.676 496.406C234.61 500.309 237.689 504.075 242.884 507.072C255.597 514.411 276.2 514.411 288.913 507.072C294.108 504.075 297.159 500.309 298.121 496.406C297.173 492.503 294.108 488.751 288.913 485.741Z" fill="black"/>
<path d="M286.384 499.444V495.569C286.384 493.974 285.271 492.435 282.907 491.047H282.824C278.454 488.518 273.932 488.848 269.919 489.865C268.214 490.305 266.593 490.854 265.108 491.363C263.419 491.998 261.694 492.53 259.941 492.957C259.135 493.144 258.307 493.223 257.48 493.191C256.773 493.151 256.081 492.969 255.446 492.655L255.611 492.531L256.12 492.215C256.564 491.963 257.023 491.738 257.494 491.542C258.631 491.039 259.856 490.766 261.099 490.738C262.342 490.71 263.578 490.927 264.737 491.377L268.86 487.171V483.309C265.181 482.054 261.213 481.911 257.453 482.897C256.212 483.216 254.999 483.635 253.824 484.147L249.701 481.742L244.712 484.615V488.477L246.43 489.466C245.967 490.129 245.709 490.913 245.688 491.72V495.569C245.688 497.163 246.829 498.702 249.234 500.09C251.325 501.31 253.687 501.991 256.106 502.07H257.48C260.008 501.891 262.498 501.355 264.875 500.475L266.249 499.98L262.057 504.2V508.062C264.645 509.043 267.405 509.487 270.169 509.366C272.934 509.246 275.645 508.563 278.138 507.361L282.261 509.739L287.25 506.866V503.004L285.532 502.015C286.083 501.271 286.382 500.37 286.384 499.444ZM275.884 499.115C275.513 499.334 275.127 499.527 274.729 499.692C272.141 500.81 269.214 500.854 266.593 499.816C270.496 498.441 273.74 497.232 276.516 498.716C276.313 498.862 276.102 498.995 275.884 499.115Z" fill="#540494"/>
<path d="M270.001 489.81C268.297 490.25 266.675 490.8 265.191 491.308C263.502 491.943 261.776 492.475 260.023 492.903C259.217 493.09 258.39 493.168 257.563 493.136C256.728 493.095 255.917 492.849 255.199 492.422C253.591 491.501 253.357 490.14 255.694 488.614L256.202 488.298C256.647 488.046 257.105 487.822 257.577 487.625C258.714 487.123 259.939 486.85 261.182 486.821C262.425 486.793 263.661 487.01 264.82 487.46L268.943 483.254C265.264 482 261.296 481.856 257.535 482.842C256.295 483.162 255.081 483.58 253.907 484.093L249.784 481.688L244.795 484.56L248.918 486.938C244.795 490.113 244.644 493.411 249.358 496.132C251.449 497.352 253.81 498.033 256.23 498.112H257.604C260.132 497.933 262.622 497.397 264.999 496.517C269.768 494.923 273.644 493.04 276.86 494.896C279.017 496.146 278.426 497.644 276.049 499.019C275.678 499.238 275.292 499.431 274.894 499.596C273.593 500.154 272.194 500.448 270.778 500.46C269.362 500.471 267.958 500.201 266.648 499.665L262.277 504.049C264.865 505.03 267.625 505.474 270.39 505.353C273.154 505.233 275.865 504.55 278.358 503.348L282.481 505.726L287.47 502.853L283.347 500.476C287.47 497.273 287.965 493.782 283.127 490.951H283.044C279.016 488.87 274.33 488.46 270.001 489.81Z" fill="#540494"/>
<g opacity="0.3">
<path d="M270.001 489.81C268.297 490.25 266.675 490.8 265.191 491.308C263.502 491.943 261.776 492.475 260.023 492.903C259.217 493.09 258.39 493.168 257.563 493.136C256.728 493.095 255.917 492.849 255.199 492.422C253.591 491.501 253.357 490.14 255.694 488.614L256.202 488.298C256.647 488.046 257.105 487.822 257.577 487.625C258.714 487.123 259.939 486.85 261.182 486.821C262.425 486.793 263.661 487.01 264.82 487.46L268.943 483.254C265.264 482 261.296 481.856 257.535 482.842C256.295 483.162 255.081 483.58 253.907 484.093L249.784 481.688L244.795 484.56L248.918 486.938C244.795 490.113 244.644 493.411 249.358 496.132C251.449 497.352 253.81 498.033 256.23 498.112H257.604C260.132 497.933 262.622 497.397 264.999 496.517C269.768 494.923 273.644 493.04 276.86 494.896C279.017 496.146 278.426 497.644 276.049 499.019C275.678 499.238 275.292 499.431 274.894 499.596C273.593 500.154 272.194 500.448 270.778 500.46C269.362 500.471 267.958 500.201 266.648 499.665L262.277 504.049C264.865 505.03 267.625 505.474 270.39 505.353C273.154 505.233 275.865 504.55 278.358 503.348L282.481 505.726L287.47 502.853L283.347 500.476C287.47 497.273 287.965 493.782 283.127 490.951H283.044C279.016 488.87 274.33 488.46 270.001 489.81Z" fill="white"/>
</g>
<path opacity="0.45" d="M244.671 484.574L249.687 482.292L253.811 484.106L249.646 481.701L244.671 484.574Z" fill="#F5F5F5"/>
<path opacity="0.45" d="M256.862 483.076C260.411 482.373 264.076 482.5 267.568 483.447L264.682 487.57L268.805 483.364C264.948 482.047 260.778 481.947 256.862 483.076Z" fill="#F5F5F5"/>
<path opacity="0.45" d="M282.838 490.991H282.92C287.758 493.823 287.277 497.314 283.14 500.516C286.81 496.516 286.15 493.726 282.164 491.417C278.39 489.504 274.081 488.918 269.932 489.754C273.946 488.792 278.467 488.462 282.838 490.991Z" fill="#F5F5F5"/>
<path opacity="0.45" d="M283.14 500.571L286.301 503.004L282.274 505.822L287.263 502.949L283.14 500.571Z" fill="#F5F5F5"/>
<path opacity="0.45" d="M274.729 499.691C272.273 500.933 269.434 501.184 266.799 500.392L262.071 504.144L266.441 499.76C267.757 500.304 269.169 500.578 270.592 500.566C272.016 500.554 273.423 500.257 274.729 499.691Z" fill="#F5F5F5"/>
<path opacity="0.45" d="M259.899 492.916C258.933 493.31 257.886 493.464 256.848 493.366C255.809 493.268 254.81 492.92 253.934 492.353C252.491 491.116 253.426 489.782 255.57 488.628C253.233 490.154 253.467 491.514 255.075 492.435C255.793 492.863 256.605 493.108 257.439 493.15C258.266 493.182 259.093 493.103 259.899 492.916Z" fill="#F5F5F5"/>
<path opacity="0.45" d="M248.753 486.992C248.395 487.295 245.399 490.098 246.719 492.888C248.038 495.678 252.519 497.781 256.065 498.166C253.645 498.087 251.284 497.407 249.193 496.187C244.478 493.466 244.561 490.167 248.753 486.992Z" fill="#F5F5F5"/>
<path d="M222.461 488.834L223.698 479.419L224.934 488.834L241.221 489.548L224.934 490.263L223.698 499.664L222.461 490.263L206.16 489.548L222.461 488.834Z" fill="white"/>
<g opacity="0.3">
<path d="M517.078 507.925H516.871L490.263 492.559C490.2 492.523 490.148 492.471 490.112 492.408C490.076 492.346 490.057 492.274 490.057 492.202C490.058 492.132 490.077 492.063 490.114 492.002C490.15 491.942 490.201 491.892 490.263 491.858L523.537 472.617C523.598 472.583 523.667 472.565 523.737 472.565C523.806 472.565 523.875 472.583 523.936 472.617L550.558 487.983C550.621 488.019 550.673 488.071 550.709 488.134C550.745 488.196 550.764 488.268 550.764 488.34C550.763 488.412 550.743 488.483 550.707 488.545C550.671 488.608 550.62 488.66 550.558 488.697L517.284 507.939C517.215 507.955 517.143 507.95 517.078 507.925ZM491.28 492.147L517.064 507.046L549.513 488.312L523.73 473.455L491.28 492.147Z" fill="#540494"/>
</g>
<path d="M517.077 503.677V365.921L497.121 354.403V492.16L517.077 503.677Z" fill="#540494"/>
<path opacity="0.2" d="M517.077 503.677V365.921L497.121 354.403V492.16L517.077 503.677Z" fill="black"/>
<path d="M517.077 503.678L543.7 488.312V350.569L517.077 365.921V503.678Z" fill="#540494"/>
<path d="M543.7 350.569L523.743 339.038L497.121 354.404L517.077 365.921L543.7 350.569Z" fill="#540494"/>
<path opacity="0.25" d="M543.7 350.569L523.743 339.038L497.121 354.404L517.077 365.921L543.7 350.569Z" fill="white"/>
<path opacity="0.3" d="M543.7 350.569L516.816 365.385L508.089 360.506L497.094 354.404L507.869 360.85L516.693 366.114C516.486 369.11 516.431 491.501 516.473 494.497C516.487 497.566 516.679 500.631 517.05 503.678C517.425 500.631 517.622 497.566 517.641 494.497C517.641 491.597 517.641 369.302 517.421 366.402L543.7 350.569Z" fill="white"/>
<g opacity="0.3">
<path d="M467.187 536.746H466.981L440.427 521.311C440.366 521.277 440.314 521.228 440.278 521.167C440.242 521.107 440.222 521.038 440.221 520.968C440.221 520.895 440.24 520.824 440.276 520.761C440.312 520.699 440.364 520.647 440.427 520.61L473.701 501.369C473.765 501.335 473.836 501.317 473.908 501.317C473.979 501.317 474.05 501.335 474.114 501.369L500.722 516.734C500.784 516.772 500.835 516.824 500.871 516.887C500.907 516.949 500.927 517.02 500.928 517.092C500.928 517.164 500.909 517.235 500.873 517.298C500.837 517.361 500.785 517.413 500.722 517.449L467.448 536.691C467.369 536.737 467.277 536.756 467.187 536.746ZM441.389 520.968L467.187 535.852L499.623 517.119L473.839 502.235L441.389 520.968Z" fill="#540494"/>
</g>
<path d="M467.187 532.485L467.173 449.842L447.216 438.311V520.967L467.187 532.485Z" fill="#540494"/>
<path opacity="0.1" d="M467.187 532.485L467.173 449.842L447.216 438.311V520.967L467.187 532.485Z" fill="white"/>
<path d="M467.187 532.485L493.795 517.119V434.477L467.173 449.842L467.187 532.485Z" fill="#540494"/>
<path opacity="0.3" d="M467.187 532.485L493.795 517.119V434.477L467.173 449.842L467.187 532.485Z" fill="white"/>
<path d="M493.795 434.477L473.839 422.945L447.216 438.311L467.173 449.842L493.795 434.477Z" fill="#540494"/>
<path opacity="0.55" d="M493.795 434.477L473.839 422.945L447.216 438.311L467.173 449.842L493.795 434.477Z" fill="white"/>
<path opacity="0.3" d="M467.53 450.337L493.795 434.477L466.912 449.306C464.012 447.657 461.098 446.049 458.184 444.427L447.189 438.311L457.964 444.757C460.906 446.535 463.851 448.294 466.802 450.035C466.706 453.141 466.609 468.136 466.582 471.242C466.554 474.348 466.582 510.289 466.582 513.463C466.582 516.638 466.582 519.799 466.76 522.974C466.939 526.149 466.967 529.324 467.173 532.485C467.365 529.324 467.498 526.154 467.571 522.974C467.681 519.799 467.736 516.638 467.75 513.463C467.764 510.289 467.75 474.403 467.75 471.242C467.75 468.081 467.626 453.333 467.53 450.337Z" fill="white"/>
<g opacity="0.3">
<path d="M417.282 565.538H417.062L390.44 550.172C390.38 550.134 390.331 550.081 390.297 550.019C390.263 549.956 390.246 549.886 390.248 549.815C390.245 549.744 390.261 549.673 390.295 549.61C390.329 549.547 390.379 549.494 390.44 549.457L423.714 530.216C423.775 530.175 423.847 530.153 423.92 530.153C423.994 530.153 424.066 530.175 424.127 530.216L450.735 545.582C450.797 545.616 450.848 545.665 450.884 545.726C450.921 545.786 450.94 545.855 450.941 545.925C450.941 545.998 450.922 546.069 450.886 546.132C450.85 546.194 450.798 546.246 450.735 546.283L417.475 565.524C417.412 565.541 417.347 565.545 417.282 565.538ZM391.485 549.76L417.282 564.658L449.732 545.912L423.934 531.041L391.485 549.76Z" fill="#540494"/>
</g>
<path d="M417.282 561.291L417.268 532.25L397.312 520.732V549.774L417.282 561.291Z" fill="#540494"/>
<path opacity="0.45" d="M417.282 561.291L417.268 532.25L397.312 520.732V549.774L417.282 561.291Z" fill="black"/>
<path d="M417.282 561.292L443.89 545.94V516.885L417.268 532.251L417.282 561.292Z" fill="#540494"/>
<path opacity="0.3" d="M417.282 561.292L443.89 545.94V516.885L417.268 532.251L417.282 561.292Z" fill="black"/>
<path d="M443.89 516.886L423.934 505.368L397.312 520.734L417.268 532.251L443.89 516.886Z" fill="#540494"/>
<path opacity="0.15" d="M443.89 516.886L423.934 505.368L397.312 520.734L417.268 532.251L443.89 516.886Z" fill="black"/>
<path opacity="0.3" d="M443.89 516.885L417.062 531.715L408.335 526.835L397.339 520.733L408.115 527.179L416.938 532.443C416.732 534.257 416.677 553.815 416.719 555.643C416.736 557.54 416.934 559.432 417.31 561.292C417.68 559.431 417.874 557.54 417.887 555.643C417.887 553.911 417.887 534.45 417.694 532.718L443.89 516.885Z" fill="white"/>
<g opacity="0.3">
<path d="M566.982 479.118H566.776L540.167 463.697C540.104 463.661 540.052 463.609 540.016 463.546C539.98 463.483 539.961 463.412 539.961 463.34C539.962 463.268 539.982 463.197 540.018 463.134C540.054 463.072 540.105 463.02 540.167 462.982L573.428 443.741C573.491 443.707 573.562 443.689 573.634 443.689C573.706 443.689 573.777 443.707 573.84 443.741L600.462 459.107C600.523 459.143 600.573 459.196 600.607 459.259C600.641 459.322 600.657 459.393 600.655 459.464C600.655 459.535 600.637 459.605 600.604 459.667C600.57 459.729 600.521 459.782 600.462 459.821L567.188 479.063C567.126 479.1 567.054 479.119 566.982 479.118ZM541.184 463.34L566.982 478.238L599.431 459.505L573.634 444.593L541.184 463.34Z" fill="#540494"/>
</g>
<path d="M566.982 474.869V284.185L547.026 272.653V463.338L566.982 474.869Z" fill="#540494"/>
<path opacity="0.3" d="M566.982 474.869V284.185L547.026 272.653V463.338L566.982 474.869Z" fill="white"/>
<path d="M566.982 474.87L593.591 459.504L593.604 268.819L566.982 284.185V474.87Z" fill="#540494"/>
<path opacity="0.55" d="M566.982 474.87L593.591 459.504L593.604 268.819L566.982 284.185V474.87Z" fill="white"/>
<path d="M593.604 268.819L573.634 257.288L547.026 272.654L566.982 284.185L593.604 268.819Z" fill="#540494"/>
<path opacity="0.75" d="M593.604 268.819L573.634 257.288L547.026 272.654L566.982 284.185L593.604 268.819Z" fill="white"/>
<path opacity="0.3" d="M567.339 284.68L593.604 268.819L566.707 283.635C563.803 282.004 560.893 280.383 557.98 278.77L546.984 272.654L557.746 279.1C560.687 280.873 563.628 282.632 566.597 284.378C566.501 287.896 566.405 332.056 566.377 335.588C566.35 339.12 566.377 449.773 566.377 453.36C566.377 456.947 566.446 460.521 566.556 464.108C566.666 467.695 566.762 471.282 566.968 474.87C567.174 471.282 567.298 467.695 567.381 464.108C567.463 460.521 567.532 456.947 567.559 453.36C567.587 449.773 567.559 339.161 567.559 335.588C567.559 332.014 567.422 288.102 567.339 284.68Z" fill="white"/>
<path opacity="0.5" d="M103.658 166.743L26.5537 211.259L65.1057 140.437L103.658 166.743Z" fill="#540494"/>
<path opacity="0.3" d="M103.658 199.122L26.5537 243.639L65.1057 172.816L103.658 199.122Z" fill="#540494"/>
<path opacity="0.15" d="M103.658 231.492L26.5537 276.008L65.1057 205.186L103.658 231.492Z" fill="#540494"/>
</g>
<defs>
<clipPath id="clip0_204_35471">
<rect width="625.215" height="594.69" fill="white"/>
</clipPath>
</defs>
</svg>
