<svg width="92" height="74" viewBox="0 0 92 74" fill="none" xmlns="http://www.w3.org/2000/svg">
<g clip-path="url(#clip0_5_1678)">
<path d="M48.9416 32.3806L54.3419 27.0013L46.7863 19.5039L41.3617 24.8832L40.9258 24.6426C44.2025 26.5207 46.9572 29.18 48.9416 32.3806Z" fill="#063B5B"/>
<path d="M35.8912 22.4997C35.5764 22.4034 35.2858 22.3071 34.971 22.2349V14.6172H24.2792V22.2349C23.9644 22.3071 23.6738 22.4034 23.3711 22.4876C25.4023 21.9064 27.5053 21.6107 29.619 21.6091C31.7417 21.6088 33.8536 21.9086 35.8912 22.4997Z" fill="#063B5B"/>
<path d="M24.2773 66.0391V73.5003H34.9691V66.0391C31.4605 66.9213 27.786 66.9213 24.2773 66.0391Z" fill="#063B5B"/>
<path d="M10.2305 55.8086L4.89062 61.1157L12.4584 68.6372L17.774 63.3541C14.6884 61.4749 12.1014 58.8873 10.2305 55.8086Z" fill="#063B5B"/>
<path d="M18.3072 24.6305L17.8713 24.8712L12.4467 19.5039L4.87891 27.0133L10.2914 32.3926C12.2677 29.1794 15.0238 26.5105 18.3072 24.6305Z" fill="#063B5B"/>
<path d="M7.60449 38.7578H-0.0117188V49.3841H7.60449C7.19045 47.6735 6.97913 45.9206 6.97484 44.1612C6.96765 42.3416 7.17903 40.5276 7.60449 38.7578Z" fill="#063B5B"/>
<path d="M51.6695 49.3721H59.2373V38.7578H51.6211C52.0732 40.524 52.305 42.3388 52.3113 44.1612C52.308 45.9174 52.0925 47.6669 51.6695 49.3721Z" fill="#063B5B"/>
<path d="M41.5078 63.3541L46.8234 68.6372L54.3791 61.1157L49.0514 55.8086C47.177 58.8847 44.5908 61.4716 41.5078 63.3541Z" fill="#063B5B"/>
<path d="M52.3082 44.1496C52.2767 39.9962 51.1135 35.9289 48.9421 32.3801C46.9593 29.1751 44.2045 26.5115 40.9263 24.63C40.6599 24.4735 40.3935 24.3171 40.115 24.1727C39.8366 24.0283 39.3522 23.7996 38.9768 23.6311L38.3351 23.3303C37.7418 23.0896 37.1243 22.873 36.5309 22.6804L35.8892 22.4999C33.8515 21.9089 31.7396 21.609 29.617 21.6094C27.5033 21.6109 25.4002 21.9066 23.3691 22.4879L22.7152 22.6804C22.0977 22.873 21.5044 23.0896 20.911 23.3303L20.2572 23.6311C19.8778 23.7996 19.5024 23.9801 19.1311 24.1727L18.3077 24.63C15.0303 26.5082 12.2786 29.1727 10.304 32.3801C9.07482 34.3532 8.16375 36.5052 7.60385 38.7582C7.16208 40.5261 6.93444 42.3401 6.92578 44.1616C6.93367 48.0295 7.93967 51.8307 9.84762 55.2018C11.7556 58.5729 14.5017 61.4013 17.8234 63.4165C21.3897 65.5865 25.4899 66.7349 29.6715 66.7349C33.8531 66.7349 37.9533 65.5865 41.5196 63.4165C44.6026 61.534 47.1889 58.9471 49.0632 55.871C51.1919 52.3472 52.3293 48.3198 52.3567 44.2098L52.3082 44.1496Z" fill="#50048D"/>
<path d="M22.6559 48.903H26.2885V50.7923L28.1289 55.4015L29.6425 49.8898L31.1318 55.3052L33.0329 50.7923V48.8548H36.6654C38.1616 48.8741 39.5945 49.4579 40.6737 50.4881C41.7529 51.5182 42.3977 52.9176 42.4775 54.4026C44.3973 51.9993 45.5964 49.1066 45.9371 46.0566C46.2778 43.0067 45.7463 39.923 44.4036 37.1597C43.0609 34.3963 40.9614 32.0652 38.3462 30.434C35.7309 28.8028 32.7059 27.9375 29.6183 27.9375C26.5307 27.9375 23.5056 28.8028 20.8904 30.434C18.2751 32.0652 16.1757 34.3963 14.833 37.1597C13.4903 39.923 12.9588 43.0067 13.2995 46.0566C13.6402 49.1066 14.8393 51.9993 16.7591 54.4026C16.8545 52.9127 17.5173 51.5148 18.6127 50.4932C19.7081 49.4716 21.1538 48.903 22.6559 48.903Z" fill="white"/>
<path d="M36.5924 48.9023H32.9598V50.7917L31.0951 55.3046L29.6058 49.8892L28.0922 55.4009L26.276 50.7917L23.5273 53.5235L30.5866 60.5395C32.892 60.4078 35.1432 59.7929 37.1925 58.7351C39.2418 57.6774 41.0428 56.2007 42.4771 54.402C42.3846 52.9132 41.7244 51.5154 40.631 50.4935C39.5376 49.4716 38.0933 48.9026 36.5924 48.9023Z" fill="#063B5B"/>
<path d="M24.3242 48.9141L26.2616 50.8396V48.9141H24.3242Z" fill="#063B5B"/>
<path d="M29.617 60.6345C29.9439 60.6345 30.2587 60.6345 30.5857 60.6345L23.5264 53.6185L26.2751 50.8867L24.3256 48.9492H22.6546C21.1446 48.95 19.6922 49.5253 18.5956 50.557C17.499 51.5887 16.8414 52.9986 16.7578 54.497C18.2976 56.4168 20.2538 57.9659 22.4806 59.0286C24.7073 60.0914 27.1468 60.6404 29.617 60.6345Z" fill="#5D7999"/>
<path d="M32.2685 52.561L29.6289 49.9375L31.1061 55.3529L32.2685 52.561Z" fill="white"/>
<path d="M26.9648 52.585L28.1151 55.4492L29.6287 49.9375L26.9648 52.585Z" fill="#DEDEE0"/>
<path d="M28.1889 48.9001L26.3242 47.0469V48.9001C27.1662 49.4811 28.148 49.8299 29.1697 49.911L28.1889 48.9001Z" fill="#FFCAB3"/>
<path d="M26.2734 45.8324V47.0358L28.1381 48.8891L29.1431 49.8999H29.6275H29.9423C31.0214 49.8433 32.0642 49.4937 32.9573 48.8891V45.8203L26.2734 45.8324Z" fill="#F9B59D"/>
<path d="M32.7771 36.6406C31.3464 36.8323 30.0452 37.5651 29.1445 38.6865L29.6047 48.3741C33.0435 48.3741 35.8526 44.138 36.2643 40.5879C36.2643 40.299 36.2643 40.0223 36.2643 39.7455V38.2893C35.9737 37.3627 33.7579 36.6406 32.7771 36.6406Z" fill="#F9B59D"/>
<path d="M34.9336 33.3164C31.7913 35.4853 28.0555 36.6446 24.2297 36.6379C23.7696 36.6379 23.3095 36.6379 22.8615 36.5777C22.843 36.8502 22.843 37.1236 22.8615 37.396V39.7427C22.8437 40.0233 22.8437 40.3046 22.8615 40.5851C23.2611 44.1954 26.1186 48.3713 29.5695 48.3713H29.6301V43.9668C29.8282 43.9543 30.0136 43.8657 30.1469 43.7197C30.2803 43.5736 30.3512 43.3816 30.3445 43.1845V38.8402L30.5988 38.5513C31.2372 37.788 32.14 37.29 33.1294 37.1553C33.7135 37.1182 34.299 37.1993 34.8506 37.3938C35.4021 37.5882 35.9082 37.892 36.3382 38.2866V37.396C36.3367 35.9192 35.8427 34.4845 34.9336 33.3164Z" fill="#FFCAB3"/>
<path d="M36.8933 31.7653C35.8403 30.261 34.3409 29.1211 32.6044 28.5047C30.868 27.8883 28.9812 27.8263 27.2076 28.3273C25.434 28.8283 23.8621 29.8673 22.7114 31.2992C21.5607 32.7311 20.8886 34.4844 20.7891 36.3143C20.7891 36.4707 20.7891 36.6392 20.7891 36.7956V38.5526C20.7891 39.09 21.003 39.6054 21.3841 39.9865C21.7653 40.3676 22.2827 40.5833 22.8233 40.5864C22.8056 40.3059 22.8056 40.0246 22.8233 39.744V37.3973C22.8049 37.1249 22.8049 36.8515 22.8233 36.579C23.2713 36.579 23.7314 36.6392 24.1915 36.6392C28.0194 36.6478 31.7569 35.4838 34.8954 33.3057C35.8045 34.4738 36.2985 35.9085 36.3 37.3853V39.732C36.3 40.0088 36.3 40.2856 36.3 40.5744H36.4574C36.998 40.5712 37.5154 40.3555 37.8965 39.9745C38.2777 39.5934 38.4916 39.0779 38.4916 38.5406V36.7836C38.4851 34.9881 37.9275 33.2374 36.8933 31.7653Z" fill="#063B5B"/>
<path d="M26.3008 48.9023V50.7917L26.991 52.5367L29.6548 49.8892C28.4616 49.9088 27.291 49.5644 26.3008 48.9023Z" fill="#F8F8F9"/>
<path d="M33.0329 50.793V48.8555C32.0551 49.5298 30.8933 49.8909 29.7031 49.8904L32.3428 52.5139L33.0329 50.793Z" fill="#DEDEE0"/>
<path d="M29.6316 49.9146L28.1172 51.4219L29.6337 52.927L31.1481 51.4198L29.6316 49.9146Z" fill="#5D7999"/>
<path d="M85.339 11.9908L88.8384 8.51293L83.9345 3.69922L80.4351 7.17713L80.1445 7.02069C82.2641 8.22352 84.0492 9.93152 85.339 11.9908Z" fill="#063B5B"/>
<path d="M76.8904 5.60253L76.2971 5.43405V0.5H69.3589V5.43405L68.7656 5.5905C70.0853 5.21839 71.4502 5.02807 72.822 5.02489C74.1988 5.02489 75.5686 5.21937 76.8904 5.60253Z" fill="#063B5B"/>
<path d="M69.3594 33.8008V38.6145H76.2854V33.8008C74.0133 34.3785 71.6315 34.3785 69.3594 33.8008Z" fill="#063B5B"/>
<path d="M60.2755 27.1797L56.8125 30.6094L61.7164 35.4833L65.1552 32.0536C63.1605 30.8394 61.4873 29.1682 60.2755 27.1797Z" fill="#063B5B"/>
<path d="M65.5064 6.9738L65.2158 7.13025L61.7164 3.65234L56.8125 8.46606L60.3118 11.944C61.6017 9.88465 63.3869 8.17662 65.5064 6.9738Z" fill="#063B5B"/>
<path d="M58.5817 16.1211H53.6172V23.0047H58.4606C58.1934 21.8969 58.0553 20.7622 58.0489 19.6231C58.083 18.4386 58.2619 17.2627 58.5817 16.1211Z" fill="#063B5B"/>
<path d="M87.1066 23.0047H92.0106V16.1211H87.0703C87.3674 17.265 87.5179 18.4417 87.5183 19.6231C87.5119 20.7622 87.3738 21.8969 87.1066 23.0047Z" fill="#063B5B"/>
<path d="M80.4961 32.0536L83.9349 35.4833L88.8388 30.6094L85.3879 27.1797C84.1716 29.1687 82.4943 30.8398 80.4961 32.0536Z" fill="#063B5B"/>
<path d="M87.5188 19.621C87.5184 18.4396 87.3679 17.263 87.0708 16.1191C86.5992 14.2081 85.7422 12.4121 84.5517 10.84C83.3612 9.26785 81.8619 7.95229 80.1448 6.97299C79.9753 6.87671 79.8057 6.76842 79.6241 6.68418C79.4425 6.59994 79.1277 6.44349 78.8855 6.32314L78.4738 6.14262C78.0863 5.98617 77.6989 5.84176 77.263 5.70938L76.8513 5.60108C75.5334 5.21905 74.1677 5.02458 72.795 5.02344C71.4232 5.02662 70.0583 5.21694 68.7386 5.58905L68.3148 5.70938C67.9193 5.84577 67.5157 5.99018 67.104 6.14262L66.6802 6.33517C66.4323 6.43932 66.1898 6.55581 65.9537 6.68418C65.7721 6.76842 65.5904 6.87671 65.4209 6.97299C63.1914 8.26202 61.3386 10.1066 60.0455 12.3246C58.7523 14.5427 58.0634 17.0576 58.0469 19.621C58.0533 20.7602 58.1914 21.8949 58.4586 23.0027C59.3698 26.7702 61.7474 30.0248 65.0698 32.0524C66.3708 32.8555 67.7937 33.4448 69.2835 33.7974C71.5556 34.3751 73.9375 34.3751 76.2095 33.7974C77.6948 33.4424 79.1133 32.8532 80.4112 32.0524C82.061 31.054 83.495 29.74 84.6299 28.1865C85.7648 26.633 86.578 24.871 87.0224 23.0027C87.3181 21.8982 87.4847 20.7635 87.5188 19.621Z" fill="#063B5B"/>
<path d="M68.3154 22.7045H70.6523V23.9079L71.8631 26.8924L72.8439 23.2821L73.8126 26.7841L75.0234 23.8718V22.6684H77.3725C78.3513 22.6704 79.2918 23.0463 79.9995 23.7183C80.7072 24.3903 81.1279 25.307 81.1745 26.2787C82.4181 24.7227 83.1951 22.8496 83.4161 20.8746C83.6371 18.8996 83.2932 16.9027 82.4239 15.1131C81.5547 13.3235 80.1953 11.8139 78.5018 10.7575C76.8083 9.70102 74.8494 9.14063 72.85 9.14062C70.8505 9.14062 68.8916 9.70102 67.1981 10.7575C65.5047 11.8139 64.1453 13.3235 63.276 15.1131C62.4068 16.9027 62.0629 18.8996 62.2839 20.8746C62.5049 22.8496 63.2818 24.7227 64.5254 26.2787C64.5809 25.3155 65.0038 24.4095 65.708 23.7454C66.4122 23.0813 67.3446 22.7091 68.3154 22.7045Z" fill="white"/>
<path d="M77.3474 22.7031H74.9984V23.9066L73.7875 26.8189L72.8188 23.3169L71.8381 26.9272L70.6272 23.9427L68.8594 25.7117L73.4243 30.2607C74.9183 30.1756 76.3772 29.7766 77.7046 29.0899C79.0321 28.4033 80.198 27.4447 81.1252 26.2773C81.0699 25.3161 80.6487 24.4119 79.9471 23.7481C79.2455 23.0843 78.3161 22.7107 77.3474 22.7031Z" fill="#7A7A7A"/>
<path d="M69.3945 22.7031L70.6538 23.9547V22.7031H69.3945Z" fill="#7A7A7A"/>
<path d="M72.833 30.3339H73.4505L68.8856 25.785L70.6535 24.0159L69.4426 22.8125H68.3649C67.3841 22.8114 66.4405 23.1859 65.7302 23.8582C65.0199 24.5306 64.5975 25.449 64.5508 26.4228C65.5484 27.6496 66.8106 28.638 68.2441 29.315C69.6776 29.992 71.2459 30.3402 72.833 30.3339Z" fill="#A3A3A3"/>
<path d="M74.5393 25.0601L72.832 23.3633L73.7886 26.8653L74.5393 25.0601Z" fill="white"/>
<path d="M71.1016 25.0842L71.8523 26.9375L72.8331 23.3633L71.1016 25.0842Z" fill="#DEDEE0"/>
<path d="M71.8632 22.7034L70.6523 21.5V22.7034C71.1999 23.0727 71.8335 23.2964 72.4928 23.3533L71.8632 22.7034Z" fill="#FFCAB3"/>
<path d="M70.6523 20.707V21.5013L71.8632 22.7047L72.517 23.3546H72.9893C73.6876 23.3244 74.3633 23.0992 74.9387 22.7047V20.707H70.6523Z" fill="#F9B59D"/>
<path d="M74.8643 14.7617C73.9436 14.8895 73.1072 15.3633 72.5273 16.0855L72.8301 22.3554C75.058 22.3554 76.8864 19.6115 77.1407 17.313C77.1527 17.1327 77.1527 16.9518 77.1407 16.7714V15.8207C76.9469 15.2311 75.506 14.7617 74.8643 14.7617Z" fill="#F9B59D"/>
<path d="M76.2725 12.6055C74.2332 14.0065 71.8134 14.7578 69.3343 14.7596H68.4504C68.4384 14.9319 68.4384 15.1048 68.4504 15.2771V16.8054C68.4384 16.9857 68.4384 17.1667 68.4504 17.347C68.7168 19.6576 70.5573 22.3893 72.7974 22.3893V19.5011C72.9248 19.4919 73.0437 19.4342 73.1294 19.3401C73.2151 19.2459 73.2609 19.1226 73.2575 18.9957V16.1797L73.427 15.9991C73.8375 15.5038 74.4216 15.1813 75.0617 15.0966C75.4398 15.0717 75.8191 15.1229 76.1769 15.2469C76.5347 15.371 76.8637 15.5654 77.1443 15.8186V15.241C77.154 14.291 76.8475 13.3644 76.2725 12.6055Z" fill="#FFCAB3"/>
<path d="M77.5311 11.5957C76.8485 10.6249 75.8782 9.88991 74.7555 9.49308C73.6327 9.09626 72.4134 9.05739 71.2673 9.38188C70.1213 9.70637 69.1056 10.3781 68.3618 11.3034C67.618 12.2287 67.1832 13.3616 67.1178 14.5441C67.1118 14.6483 67.1118 14.7528 67.1178 14.857V16.0604C67.1178 16.4083 67.2569 16.742 67.5044 16.988C67.7519 17.234 68.0876 17.3722 68.4376 17.3722C68.4256 17.1919 68.4256 17.0109 68.4376 16.8306V15.3023C68.4256 15.13 68.4256 14.9571 68.4376 14.7848H69.3216C71.801 14.7853 74.2215 14.0338 76.2597 12.6307C76.8477 13.385 77.1671 14.312 77.1678 15.2662V16.7945C77.1799 16.9748 77.1799 17.1558 77.1678 17.3361H77.2768C77.6268 17.3361 77.9625 17.1979 78.2101 16.9519C78.4576 16.7059 78.5966 16.3722 78.5966 16.0243V14.8209C78.5821 13.6628 78.2101 12.537 77.5311 11.5957Z" fill="#063B5B"/>
<path d="M70.6758 22.7031V23.9066L71.1359 25.0378L72.8553 23.3169C72.0828 23.3379 71.3223 23.1238 70.6758 22.7031Z" fill="#F8F8F9"/>
<path d="M74.9991 23.9534V22.75C74.3659 23.185 73.6135 23.4161 72.8438 23.4119L74.551 25.1087L74.9991 23.9534Z" fill="#DEDEE0"/>
<path d="M72.8364 23.3849L71.8516 24.3633L72.836 25.3421L73.8208 24.3636L72.8364 23.3849Z" fill="#A3A3A3"/>
<path d="M74.6251 60.7542V57.3846H72.2034C72.0361 56.6704 71.7539 55.9878 71.368 55.3628L73.0874 53.654L70.6657 51.2471L68.9463 52.956C68.3175 52.5724 67.6306 52.292 66.912 52.1256V49.7188H63.5217V52.1256C62.8038 52.2941 62.1173 52.5744 61.4875 52.956L59.7681 51.2471L57.3464 53.654L59.0658 55.3628C58.6798 55.9878 58.3977 56.6704 58.2303 57.3846H55.8086V60.7542H58.2303C58.3998 61.4677 58.6818 62.15 59.0658 62.776L57.3464 64.4848L59.7681 66.8917L61.4875 65.2309C62.1198 65.6076 62.8055 65.8875 63.5217 66.0613V68.4682H66.9363V66.0613C67.6528 65.8887 68.3387 65.6087 68.9705 65.2309L70.6899 66.9398L73.1116 64.533L71.3558 62.8241C71.7398 62.1981 72.0218 61.5158 72.1913 60.8023L74.6251 60.7542ZM65.2169 62.3548C64.5631 62.3548 63.924 62.1621 63.3804 61.8011C62.8368 61.4401 62.4131 60.927 62.1629 60.3266C61.9127 59.7263 61.8472 59.0657 61.9748 58.4284C62.1023 57.7911 62.4171 57.2058 62.8794 56.7463C63.3417 56.2868 63.9308 55.9739 64.572 55.8472C65.2132 55.7204 65.8778 55.7854 66.4819 56.0341C67.0859 56.2828 67.6022 56.7039 67.9654 57.2441C68.3286 57.7844 68.5225 58.4196 68.5225 59.0694C68.5225 59.9407 68.1742 60.7764 67.5543 61.3925C66.9344 62.0086 66.0936 62.3548 65.2169 62.3548Z" fill="#063B5B"/>
</g>
<defs>
<clipPath id="clip0_5_1678">
<rect width="92" height="73" fill="white" transform="translate(0 0.5)"/>
</clipPath>
</defs>
</svg>
