<svg width="84" height="78" viewBox="0 0 84 78" fill="none" xmlns="http://www.w3.org/2000/svg">
<g clip-path="url(#clip0_64_107794)">
<path d="M76.5714 34.4167C76.5738 41.0881 74.6092 47.6103 70.9261 53.1585C67.2431 58.7067 62.007 63.0316 55.8802 65.5863C49.7534 68.1409 43.011 68.8106 36.5058 67.5105C30.0005 66.2104 24.0247 62.999 19.3341 58.2825C14.6435 53.566 11.4487 47.5561 10.154 41.0131C8.85919 34.4701 9.52253 27.6878 12.0601 21.5241C14.5976 15.3603 18.8954 10.092 24.4099 6.38529C29.9243 2.67864 36.4078 0.700196 43.0401 0.700195C51.9302 0.703351 60.4554 4.25625 66.7427 10.5783C73.03 16.9004 76.5651 25.4744 76.5714 34.4167Z" fill="#50048D"/>
<path d="M25.2754 33.7377C25.2754 37.2722 26.3174 40.7274 28.2696 43.6662C30.2218 46.6051 32.9965 48.8957 36.2429 50.2483C39.4893 51.6009 43.0616 51.9548 46.5079 51.2652C49.9543 50.5757 53.12 48.8736 55.6047 46.3743C58.0894 43.875 59.7815 40.6907 60.467 37.2241C61.1525 33.7575 60.8007 30.1642 59.456 26.8987C58.1113 23.6332 55.8341 20.8422 52.9124 18.8785C49.9907 16.9148 46.5558 15.8667 43.0419 15.8667C38.3299 15.8667 33.8109 17.7495 30.479 21.101C27.1472 24.4524 25.2754 28.998 25.2754 33.7377Z" fill="#012428"/>
<path d="M35.1895 41.5056H41.8341V34.8457H33.9932C34.0935 37.1096 34.4959 39.3496 35.1895 41.5056Z" fill="white"/>
<path d="M33.9932 32.6296H41.8341V25.7791H35.2487C34.5175 27.9932 34.0949 30.2987 33.9932 32.6296Z" fill="white"/>
<path d="M36.1133 23.5512H41.8341V15.8667C39.4731 18.0521 37.5336 20.6573 36.1133 23.5512Z" fill="white"/>
<path d="M51.9834 41.5056H59.09C60.0858 39.4178 60.6729 37.1567 60.8193 34.8457H53.2863C53.1309 37.1118 52.6932 39.3493 51.9834 41.5056Z" fill="#A3A3A3"/>
<path d="M41.8339 51.6085V43.7334H36.042C37.4565 46.7054 39.4224 49.3784 41.8339 51.6085Z" fill="white"/>
<path d="M32.9257 25.7791H27.1102C26.0533 27.9171 25.4331 30.2464 25.2861 32.6296H31.765C31.8544 30.305 32.2446 28.0021 32.9257 25.7791Z" fill="white"/>
<path d="M28.2939 43.7334C30.7127 47.3295 34.3434 49.9236 38.5156 51.0367C36.618 48.8438 35.0497 46.3833 33.8608 43.7334H28.2939Z" fill="white"/>
<path d="M37.8291 16.6411C34.0034 17.7936 30.6875 20.2332 28.4365 23.5512H33.7073C34.7239 21.0504 36.1138 18.7203 37.8291 16.6411Z" fill="white"/>
<path d="M31.7777 34.8457H25.2988C25.4408 37.1574 26.0281 39.4193 27.0281 41.5056H32.9503C32.2917 39.3418 31.8979 37.1054 31.7777 34.8457Z" fill="white"/>
<path d="M53.2993 32.6296H60.785C60.6365 30.2505 60.0163 27.9254 58.961 25.791H52.3281C52.9381 28.0201 53.2644 30.318 53.2993 32.6296Z" fill="#A3A3A3"/>
<path d="M51.0253 34.8457H44.0371V41.5056H49.6158C50.3905 39.3622 50.8649 37.1207 51.0253 34.8457Z" fill="#A3A3A3"/>
<path d="M44.0371 43.7334V51.5132C46.2595 49.3345 47.957 46.6734 48.9999 43.7334H44.0371Z" fill="#A3A3A3"/>
<path d="M51.1307 43.7334C49.9452 46.5248 48.2994 49.0947 46.2627 51.3345C50.9524 50.4336 55.0963 47.7005 57.7872 43.7334H51.1307Z" fill="#A3A3A3"/>
<path d="M57.6459 23.5513C55.2421 20.0911 51.7093 17.5872 47.6611 16.4744C49.3215 18.6208 50.6511 21.0065 51.6053 23.5513H57.6459Z" fill="#A3A3A3"/>
<path d="M50.0179 25.7791H44.0957V32.6296H51.1431C51.0893 30.3043 50.7105 27.9982 50.0179 25.7791Z" fill="#A3A3A3"/>
<path d="M44.0371 15.8667V23.5512H49.2249C47.9831 20.689 46.224 18.0834 44.0371 15.8667Z" fill="#A3A3A3"/>
<path d="M18.819 34.1904C19.2578 34.1788 19.6805 34.0217 20.0212 33.7434C20.362 33.4651 20.6017 33.0813 20.703 32.6517C20.8044 32.2221 20.7617 31.7709 20.5816 31.3683C20.4015 30.9656 20.0942 30.6342 19.7073 30.4255L17.8359 33.9997C18.1438 34.1413 18.4809 34.2067 18.819 34.1904Z" fill="#FFCAA6"/>
<path d="M29.657 15.2113C30.0948 15.1973 30.5158 15.0384 30.8547 14.7592C31.1936 14.48 31.4313 14.0962 31.5312 13.6672C31.6311 13.2382 31.5875 12.788 31.4071 12.3865C31.2267 11.985 30.9196 11.6546 30.5335 11.4465L28.6621 15.0207C28.9737 15.1637 29.315 15.2291 29.657 15.2113Z" fill="#FFCAA6"/>
<path d="M8.16634 1.8503L-0.154297 16.4133L10.9231 22.8171L19.2437 8.25406L8.16634 1.8503Z" fill="#181C21"/>
<path d="M3.88441 27.1968L1.7998 19.3574L2.10776 18.8213L9.81842 5.40618L10.1382 4.87005L17.9318 2.77319L20.4191 4.2267L17.2567 9.73095L9.53415 23.1461L6.37172 28.6503L3.88441 27.1968Z" fill="#063B5B"/>
<path d="M18.8644 6.90715L17.2402 9.7334L27.1562 15.499L28.7804 12.6728L18.8644 6.90715Z" fill="#063B5B"/>
<path d="M20.1472 2.16516L18.6074 4.86011L28.5719 10.6205L30.1117 7.92557L20.1472 2.16516Z" fill="#5D7999"/>
<path d="M9.54061 23.1388L7.99805 25.8198L17.911 31.5907L19.4536 28.9097L9.54061 23.1388Z" fill="#5D7999"/>
<path d="M7.9684 25.803L6.34277 28.6284L16.2558 34.3993L17.8814 31.5739L7.9684 25.803Z" fill="#063B5B"/>
<path d="M30.0103 10.5626L28.79 12.6741L29.7423 13.2309L30.9626 11.1194L30.0103 10.5626Z" fill="white"/>
<path d="M28.7659 12.6453L27.5508 14.7598L28.5044 15.3143L29.7196 13.1998L28.7659 12.6453Z" fill="#D5D8D8"/>
<path d="M18.7443 27.2306L17.5303 29.3555L18.4886 29.9095L19.7026 27.7846L18.7443 27.2306Z" fill="white"/>
<path d="M17.9244 31.6099L16.71 33.7249L17.6638 34.279L18.8782 32.1641L17.9244 31.6099Z" fill="#D5D8D8"/>
<path d="M16.7705 14.0081C16.7391 12.4462 16.1999 10.9376 15.2354 9.71309C14.2708 8.48861 12.934 7.61569 11.4294 7.22789C9.92489 6.84008 8.33548 6.95875 6.90434 7.56571C5.47321 8.17268 4.27918 9.23454 3.50488 10.5888L15.8111 17.5108C16.4311 16.4482 16.762 15.2402 16.7705 14.0081Z" fill="#012428"/>
<path d="M3.5037 10.5889C2.91879 11.6328 2.60891 12.8099 2.60352 14.0082C2.63845 15.5585 3.17367 17.0554 4.12841 18.273C5.08315 19.4906 6.40564 20.3629 7.89638 20.7583C9.38712 21.1537 10.9653 21.0507 12.3927 20.465C13.8202 19.8792 15.0196 18.8423 15.8099 17.5109L3.5037 10.5889Z" fill="#232A32"/>
<path d="M65.2017 34.1904C64.9404 34.1857 64.6825 34.1293 64.4428 34.0244C64.2032 33.9195 63.9865 33.7681 63.805 33.5789C63.6235 33.3897 63.4809 33.1664 63.3852 32.9218C63.2895 32.6771 63.2427 32.4159 63.2474 32.1531C63.2528 31.7935 63.3561 31.4423 63.5461 31.1377C63.7362 30.8331 64.0057 30.5868 64.3252 30.4255L66.1966 33.9878C65.8866 34.1368 65.5449 34.2063 65.2017 34.1904Z" fill="#FFCAA6"/>
<path d="M54.3529 15.2113C53.9141 15.1998 53.4914 15.0427 53.1506 14.7644C52.8099 14.4861 52.5702 14.1023 52.4688 13.6727C52.3675 13.2431 52.4101 12.7919 52.5902 12.3893C52.7703 11.9866 53.0777 11.6552 53.4645 11.4465L55.3359 15.0207C55.0281 15.1623 54.691 15.2277 54.3529 15.2113Z" fill="#FFCAA6"/>
<path d="M75.6648 3.80458L64.6436 10.218L72.9768 24.7072L83.998 18.2938L75.6648 3.80458Z" fill="#181C21"/>
<path d="M80.1256 27.1968L82.2102 19.3574L81.8904 18.8213L74.1798 5.40618L73.8718 4.87005L66.0664 2.77319L63.5791 4.2267L66.7534 9.73095L74.464 23.1461L77.6383 28.6503L80.1256 27.1968Z" fill="#063B5B"/>
<path d="M67.0788 7.16954L57.1143 12.9299L58.7369 15.77L68.7014 10.0096L67.0788 7.16954Z" fill="#063B5B"/>
<path d="M63.6044 4.26064L53.6914 10.0315L55.234 12.7125L65.147 6.94164L63.6044 4.26064Z" fill="#5D7999"/>
<path d="M76.6237 23.8631L66.6592 29.6235L68.1989 32.3185L78.1635 26.5581L76.6237 23.8631Z" fill="#5D7999"/>
<path d="M75.9792 25.7759L66.0723 31.5571L67.7008 34.3808L77.6078 28.5995L75.9792 25.7759Z" fill="#063B5B"/>
<path d="M53.9985 10.5467L53.0459 11.103L54.2651 13.2152L55.2177 12.6588L53.9985 10.5467Z" fill="white"/>
<path d="M55.2193 12.7114L54.2656 13.2659L55.4808 15.3804L56.4344 14.8259L55.2193 12.7114Z" fill="#D5D8D8"/>
<path d="M64.8672 29.4474L63.9141 30.0027L65.131 32.1161L66.0842 31.5608L64.8672 29.4474Z" fill="white"/>
<path d="M66.1045 31.6197L65.1504 32.1733L66.3637 34.2889L67.3178 33.7353L66.1045 31.6197Z" fill="#D5D8D8"/>
<path d="M67.2393 14.0081C67.2706 12.4462 67.8098 10.9376 68.7744 9.71309C69.739 8.48861 71.0758 7.61569 72.5803 7.22789C74.0849 6.84008 75.6743 6.95875 77.1054 7.56571C78.5366 8.17268 79.7306 9.23454 80.5049 10.5888L68.1986 17.5108C67.5787 16.4482 67.2478 15.2402 67.2393 14.0081Z" fill="#012428"/>
<path d="M80.5045 10.5889C81.098 11.6298 81.4123 12.8082 81.4165 14.0082C81.3857 15.5622 80.8521 17.0638 79.8967 18.2854C78.9413 19.507 77.616 20.3821 76.1217 20.778C74.6275 21.174 73.0456 21.0693 71.6158 20.4797C70.186 19.8902 68.9863 18.8479 68.1982 17.5109L80.5045 10.5889Z" fill="#232A32"/>
<path d="M30.4521 52.5855C30.6793 52.204 31.0262 51.9094 31.4383 51.7483C31.8504 51.5872 32.304 51.5687 32.7277 51.6957C33.1514 51.8227 33.5209 52.0881 33.778 52.4498C34.0351 52.8116 34.1651 53.2492 34.1475 53.6935L30.1797 53.5744C30.1819 53.2263 30.2759 52.8851 30.4521 52.5855Z" fill="#FFCAA6"/>
<path d="M52.208 52.5975C52.4351 52.216 52.7821 51.9214 53.1942 51.7603C53.6062 51.5991 54.0599 51.5806 54.4836 51.7077C54.9072 51.8347 55.2768 52.1 55.5339 52.4618C55.791 52.8236 55.921 53.2612 55.9034 53.7055L51.9355 53.5864C51.945 53.2393 52.0385 52.8999 52.208 52.5975Z" fill="#FFCAA6"/>
<path d="M51.3756 64.0179L34.7344 64.0588L34.7655 76.8663L51.4067 76.8254L51.3756 64.0179Z" fill="#181C21"/>
<path d="M29.0294 69.0865L34.7502 74.8171L35.3661 74.8052L50.7756 74.7694H51.3915L57.0886 69.015L57.0768 66.1199L50.7519 66.1437L35.3425 66.1794L29.0176 66.1914L29.0294 69.0865Z" fill="#063B5B"/>
<path d="M53.9738 54.585L50.7285 54.5913L50.7505 66.1121L53.9958 66.1058L53.9738 54.585Z" fill="#063B5B"/>
<path d="M57.0385 54.6277L53.959 54.6353L53.987 66.156L57.0665 66.1485L57.0385 54.6277Z" fill="#012428"/>
<path d="M35.3256 54.6222L32.2461 54.6313L32.2801 66.1521L35.3596 66.1429L35.3256 54.6222Z" fill="#012428"/>
<path d="M32.2522 54.6458L29.0068 54.6543L29.0368 66.1751L32.2822 66.1665L32.2522 54.6458Z" fill="#063B5B"/>
<path d="M56.4017 54.599V53.491L53.9736 53.5029V54.6109L56.4017 54.599Z" fill="white"/>
<path d="M53.974 53.4898L51.5459 53.4949L51.5482 54.6029L53.9763 54.5978L53.974 53.4898Z" fill="#D5D8D8"/>
<path d="M34.6673 54.6585V53.5505H32.2393V54.6585H34.6673Z" fill="white"/>
<path d="M32.2318 53.5592L29.8037 53.5664L29.807 54.6744L32.235 54.6672L32.2318 53.5592Z" fill="#D5D8D8"/>
<path d="M46.8319 64.4281C48.1629 65.2343 49.1946 66.4571 49.769 67.9092C50.3433 69.3613 50.4288 70.9627 50.0123 72.4683C49.5958 73.9739 48.7002 75.3007 47.4627 76.2457C46.2251 77.1906 44.7138 77.7015 43.1602 77.7003L43.326 63.5107C44.5535 63.5095 45.7607 63.8253 46.8319 64.4281Z" fill="#012428"/>
<path d="M43.1596 77.7003C41.967 77.6934 40.7962 77.3774 39.7603 76.7829C38.4376 75.9821 37.4101 74.7699 36.8332 73.3295C36.2563 71.8891 36.1614 70.2989 36.5628 68.7994C36.9643 67.2999 37.8403 65.9727 39.0583 65.0185C40.2762 64.0644 41.77 63.5351 43.3136 63.5107L43.1596 77.7003Z" fill="#232A32"/>
</g>
<defs>
<clipPath id="clip0_64_107794">
<rect width="84" height="77" fill="white" transform="translate(-0.000976562 0.700195)"/>
</clipPath>
</defs>
</svg>
