<svg width="506" height="657" viewBox="0 0 506 657" fill="none" xmlns="http://www.w3.org/2000/svg">
<path d="M430.957 202.2C431.039 243.685 417.92 284.119 393.501 317.645C373.772 344.811 347.407 366.458 316.928 380.515C286.448 394.572 252.874 400.569 219.416 397.933C185.958 395.296 153.736 384.114 125.832 365.456C97.9271 346.798 75.2737 321.289 60.0382 291.367C44.8027 261.446 37.4947 228.114 38.8131 194.559C40.1316 161.004 50.0325 128.348 67.5687 99.7161C85.105 71.0839 109.69 47.4326 138.972 31.0245C168.255 14.6163 201.255 6.00009 234.816 6C240.2 6 245.53 6.21531 250.804 6.64594C277.705 8.82624 303.865 16.5437 327.645 29.3145C351.425 42.0852 372.312 59.6339 388.996 80.8602C416.215 115.428 430.998 158.165 430.957 202.173V202.2Z" fill="#455A64"/>
<path opacity="0.2" d="M430.957 202.2C431.039 243.685 417.92 284.119 393.501 317.645C373.772 344.811 347.407 366.458 316.928 380.515C286.448 394.572 252.874 400.569 219.416 397.933C185.958 395.296 153.736 384.114 125.832 365.456C97.9271 346.798 75.2737 321.289 60.0382 291.367C44.8027 261.446 37.4947 228.114 38.8131 194.559C40.1316 161.004 50.0325 128.348 67.5687 99.7161C85.105 71.0839 109.69 47.4326 138.972 31.0245C168.255 14.6163 201.255 6.00009 234.816 6C240.2 6 245.53 6.21531 250.804 6.64594C277.705 8.82624 303.865 16.5437 327.645 29.3145C351.425 42.0852 372.312 59.6339 388.996 80.8602C416.215 115.428 430.998 158.165 430.957 202.173V202.2Z" fill="white"/>
<g opacity="0.5">
<path d="M277.176 294.831C274.704 301.428 278.825 301.703 279.099 304.452C279.374 307.2 279.099 312.423 271.133 320.394C263.166 328.365 249.98 326.716 247.233 330.014C244.486 333.313 239.816 347.331 233.223 352.004C226.63 356.676 225.531 353.928 216.191 355.852C206.851 357.776 199.709 369.87 196.962 375.642C194.215 381.415 197.511 391.035 190.918 391.31C184.325 391.585 181.303 377.292 175.26 369.595C169.216 361.899 167.293 355.027 165.37 345.957C163.447 336.886 166.469 317.92 165.37 310.499C164.272 303.077 144.493 289.884 137.35 280.813C130.208 271.742 120.318 253.601 120.868 247.554C121.704 241.685 124.63 236.317 129.109 232.436C132.405 229.962 131.032 228.588 131.581 226.389C132.131 224.19 134.878 223.641 135.427 220.892C135.977 218.143 133.779 209.897 131.032 208.523C128.285 207.148 126.362 211.821 124.714 210.997C123.065 210.172 118.121 204.4 116.198 203.85C114.275 203.3 114.824 207.423 112.077 202.201C109.33 196.978 107.957 183.785 105.759 181.586C103.561 179.387 101.913 185.434 96.6935 181.586C91.4741 177.738 89.2764 170.316 87.0787 169.217C84.8811 168.117 81.8593 169.492 79.593 165.094C77.3266 160.696 81.5846 152.725 79.593 153.549C77.6013 154.374 73.3434 160.696 72.2445 154.649C71.1457 148.602 77.7387 128.261 76.6398 117.267C75.541 106.272 79.3869 94.7276 87.0787 85.3821C87.0787 85.3821 88.1776 79.335 89.2764 75.4869C90.3752 71.6387 114 56.2462 116.747 51.8483C117.887 50.0204 118.272 47.1343 118.684 44.0283C152.332 19.248 193.037 5.91923 234.817 6.00037C240.201 6.00037 245.53 6.21568 250.805 6.64631C250.983 6.90743 251.162 7.14107 251.354 7.37471C253.73 10.3982 256.299 12.3223 263.249 14.8923C270.199 17.4623 271.861 20.7608 270.391 23.5094C268.921 26.2581 266.545 26.7941 263.798 26.9865C261.051 27.1789 258.496 25.7084 255.557 27.5362C252.618 29.3641 249.706 39.2593 245.805 39.8091C241.904 40.3588 235.174 31.0133 233.718 28.2646C232.262 25.516 237.014 19.6613 234.762 16.9126C232.509 14.1639 228.581 14.7137 222.4 14.1639C216.219 13.6142 201.714 15.9368 202.264 18.3694C202.813 20.802 223.512 18.0121 224.062 22.7673C224.611 27.5225 208.857 35.5349 206.11 34.8615C203.362 34.188 199.709 29.3641 195.671 28.8144C191.632 28.2646 188.35 31.5631 185.822 31.9341C183.295 32.3052 180.328 29.1854 176.455 29.9138C172.581 30.6422 171.689 33.9407 169.67 35.2325C167.651 36.5244 162.898 36.5107 162.349 39.438C161.799 42.3654 168.392 44.0283 170.04 45.8562C171.689 47.684 168.021 53.9235 169.67 55.2017C171.318 56.4798 181.578 47.5054 184.133 45.3064C186.688 43.1075 188.899 33.5833 194.393 33.762C199.887 33.9407 201.714 43.2862 203.555 44.207C205.395 45.1278 209.406 42.008 215.45 43.2862C221.493 44.5643 225.71 57.7717 226.809 61.7985C227.908 65.8253 230.476 69.8658 228.278 71.5151C226.081 73.1643 216.191 70.4156 214.9 67.8456C213.609 65.2756 221.493 61.4274 220.944 60.5203C220.394 59.6133 215.82 58.3214 213.444 59.7507C211.068 61.18 209.955 64.1761 207.401 64.9182C204.846 65.6604 198.061 57.9503 196.22 60.1493C194.38 62.3482 198.061 69.3161 199.887 70.9653C201.714 72.6145 208.5 73.5216 209.049 75.3632C209.598 77.2048 204.461 81.2179 198.239 80.8606C192.017 80.5032 186.88 75.7205 184.504 77.7408C182.128 79.7611 183.405 85.066 181.757 86.9076C180.108 88.7493 171.139 87.4574 166.744 92.2126C162.349 96.9678 160.33 104.128 155.934 108.155C151.539 112.182 149.534 107.055 143.669 112.745C137.804 118.435 136.897 131.065 136.705 135.463C136.512 139.861 136.705 143.338 135.249 142.788C133.793 142.238 131.76 138.39 131.211 136.013C130.661 133.635 132.502 129.595 132.502 128.138C132.502 126.681 124.068 119.15 119.123 118.421C114.179 117.693 109.783 121.72 106.13 124.647C102.476 127.574 95.8694 127.038 93.4932 129.416C91.1169 131.794 89.2764 152.876 91.1032 157.823C92.93 162.771 95.32 162.771 101.185 160.201C107.05 157.631 103.74 152.683 107.229 153.783C108.787 154.378 110.128 155.433 111.075 156.807C112.021 158.181 112.529 159.81 112.53 161.479C112.53 164.42 105.58 171.374 106.487 173.395C107.393 175.415 113.451 173.024 116.376 173.944C119.302 174.865 120.772 176.693 119.865 184.211C118.959 191.728 119.494 197.583 123.89 200.057C128.285 202.531 130.757 196.484 132.68 197.308C134.603 198.133 137.35 202.531 140.097 202.256C142.844 201.981 141.471 199.507 146.69 197.858C151.91 196.209 149.987 195.109 151.086 191.811C152.184 188.512 155.481 185.764 159.052 187.413C162.623 189.062 160.151 191.536 160.426 194.285C160.7 197.033 167.019 197.308 171.963 198.957C176.908 200.607 179.655 198.957 189.545 202.256C199.434 205.554 199.984 215.449 204.104 217.099C208.225 218.748 221.96 215.999 231.85 223.146C241.739 230.292 238.992 243.486 243.937 247.334C248.882 251.182 267.287 256.405 274.429 257.779C281.572 259.153 282.671 254.206 288.439 255.58C294.208 256.954 297.505 258.604 299.428 266.575C301.117 273.529 279.649 288.234 277.176 294.831Z" fill="#455A64"/>
<path d="M129.562 154.277C129.741 155.844 134.328 156.476 139.822 159.596C145.317 162.716 147.322 171.869 150.261 171.69C153.201 171.511 152.267 167.292 153.365 166.193C154.464 165.093 156.305 162.716 153.365 160.324C150.426 157.933 147.583 152.82 142.24 152.078C136.897 151.336 135.976 149.151 133.586 149.33C132.494 149.33 131.446 149.764 130.673 150.537C129.9 151.311 129.466 152.359 129.466 153.453C129.469 153.73 129.501 154.007 129.562 154.277Z" fill="#455A64"/>
<path d="M159.78 169.67C158.969 171.924 159.78 173.519 165.645 174.989C171.51 176.46 176.99 173.519 175.163 172.337C173.337 171.155 170.59 171.691 171.688 169.67C172.787 167.65 172.403 164.723 167.65 165.273C162.898 165.822 160.508 167.664 159.78 169.67Z" fill="#455A64"/>
<path d="M180.287 170.303C178.295 170.591 177.183 174.068 179.188 176.267C181.193 178.466 181.207 178.109 183.583 176.267C185.96 174.426 189.627 173.519 188.72 171.691C187.814 169.863 182.306 170.014 180.287 170.303Z" fill="#455A64"/>
<path d="M196.22 177.793C197.126 175.044 201.714 177.793 203.733 180.665C205.752 183.537 204.832 187.812 203.733 190.931C202.634 194.051 201.906 197.707 199.338 196.25C196.769 194.793 199.516 190.382 199.159 187.812C198.802 185.242 195.492 180.033 196.22 177.793Z" fill="#455A64"/>
<path d="M275.157 24.9115C274.196 27.2204 278.632 28.0312 281.201 29.5018C283.769 30.9723 285.775 31.8794 287.244 29.5018C288.714 27.1242 286.695 24.3617 284.676 23.812C282.657 23.2623 276.023 22.7125 275.157 24.9115Z" fill="#455A64"/>
<path d="M309.77 46.3508C311.46 48.1374 314.344 47.8213 316.363 50.3913C318.382 52.9614 317.641 57.3455 320.209 58.6374C322.778 59.9293 324.604 58.6374 324.783 56.7958C324.962 54.9542 321.116 50.3914 321.487 49.4705C321.857 48.5497 326.802 50.7487 327.901 53.4974C329 56.246 326.802 60.0942 329.357 60.8363C331.912 61.5785 331.376 58.2663 332.475 57.5379C333.574 56.8095 335.95 57.1668 335.771 54.9679C335.593 52.769 332.653 48 330.277 46.3508C327.901 44.7016 326.06 42.8737 322.036 41.9529C318.011 41.0321 314.166 41.7743 312.146 43.4235C310.127 45.0727 308.726 45.2513 309.77 46.3508Z" fill="#455A64"/>
<path d="M388.996 80.8882C388.882 81.6283 388.518 82.3072 387.966 82.8123C384.12 85.561 379.546 76.0368 374.23 74.2089C368.915 72.3811 366.538 65.5919 365.44 67.0624C364.341 68.5329 364.712 70.5395 363.063 72.9171C361.415 75.2947 359.025 74.7587 357.926 79.3352C356.828 83.9118 363.063 92.3502 361.594 95.0989C360.124 97.8476 358.297 96.9268 355.372 96.7481C352.446 96.5694 352.982 99.1257 349.149 98.0262C345.317 96.9268 348.586 92.1578 342.543 86.4818C336.499 80.8058 334.494 79.7063 335.785 77.1363C337.076 74.5663 335.222 70.9105 337.969 70.5395C340.716 70.1684 342.914 74.209 344.74 75.3084C346.567 76.4079 348.957 73.1095 349.136 70.1684C349.314 67.2273 342.735 63.2143 340.345 60.9328C337.955 58.6514 337.79 50.3779 338.697 48.7287C339.603 47.0795 342.364 47.6293 343.092 43.6025C343.532 41.2386 339.782 37.2805 336.609 34.4219C356.706 46.6535 374.449 62.3912 388.996 80.8882Z" fill="#455A64"/>
<path d="M416.343 245.135C416.893 239.267 413.967 238.896 416.893 228.094C419.818 217.291 413.788 205.733 411.591 203.356C409.393 200.978 404.627 201.706 400.781 204.084C396.935 206.462 399.682 208.303 397.127 209.21C394.573 210.117 391.99 208.661 389.614 208.853C387.238 209.045 385.04 215.079 379.903 214.9C374.766 214.721 371.483 207.382 367.638 202.16C363.792 196.937 355.921 193.639 353.353 187.221C350.784 180.803 355.729 170.921 354.63 163.404C353.531 155.886 348.587 157.535 347.68 153.33C346.773 149.124 348.408 151.131 349.685 147.09C350.963 143.05 348.229 140.864 350.784 133.897C353.339 126.929 357.927 123.452 356.828 120.346C355.729 117.24 352.254 112.1 352.075 108.444C351.897 104.788 355.55 104.953 362.555 99.8542C369.56 94.7554 371.346 95.099 376.648 96.9269C380.463 98.3406 384.386 99.4436 388.378 100.225C391.482 100.775 395.699 108.842 396.976 108.471C398.254 108.1 398.446 105.723 398.995 102.246C399.347 100.733 400.141 99.3604 401.275 98.3012C421.948 131.469 432.256 170.056 430.878 209.121C429.5 248.185 416.5 285.95 393.542 317.577C412.168 289.114 415.794 251.031 416.343 245.135Z" fill="#455A64"/>
</g>
<path opacity="0.1" d="M386.771 326.289C365.853 351.954 338.784 371.905 308.085 384.284C277.386 396.664 244.056 401.068 211.197 397.089C178.339 393.109 147.021 380.874 120.161 361.523C93.301 342.172 71.7716 316.335 57.5778 286.417C43.384 256.5 36.9875 223.475 38.9839 190.418C40.9803 157.36 51.3047 125.346 68.9957 97.3567C86.6867 69.3669 111.169 46.3117 140.163 30.3381C169.156 14.3644 201.718 5.99185 234.816 6.00001C240.201 6.00001 245.53 6.21532 250.804 6.64594C252.26 6.75589 253.716 6.89333 255.172 7.05825C227.455 10.081 200.821 19.5151 177.376 34.6145C153.932 49.7138 134.32 70.0641 120.092 94.0559C105.864 118.048 97.4099 145.023 95.3989 172.848C93.3878 200.673 97.8747 228.584 108.505 254.375C119.135 280.165 135.616 303.127 156.645 321.445C177.675 339.762 202.675 352.933 229.669 359.914C256.663 366.896 284.911 367.497 312.177 361.671C339.444 355.845 364.982 343.75 386.771 326.344V326.289Z" fill="black"/>
<path opacity="0.3" d="M430.957 202.201C431.024 243.66 417.9 284.064 393.487 317.563C375.078 342.837 350.933 363.374 323.039 377.484C347.323 363.572 368.388 344.672 384.848 322.029C405.43 293.687 418.103 260.375 421.565 225.513C425.028 190.651 419.155 155.494 404.55 123.654C389.945 91.8131 367.134 64.4354 338.459 44.3315C309.784 24.2276 276.278 12.122 241.382 9.25743C236.094 8.83138 230.723 8.61149 225.311 8.61149C209.351 8.59742 193.448 10.5218 177.952 14.3425C196.394 8.78075 215.555 5.96978 234.816 6.00024C240.2 6.00024 245.53 6.21556 250.804 6.64618C277.705 8.82649 303.865 16.5439 327.645 29.3147C351.425 42.0855 372.312 59.6341 388.996 80.8604C416.215 115.428 430.998 158.166 430.957 202.173V202.201Z" fill="white"/>
<path d="M53.9626 109.53L52.7676 108.843C53.5505 107.468 54.3471 106.094 55.1713 104.72L56.3525 105.434C55.5421 106.809 54.7455 108.169 53.9626 109.53Z" fill="#455A64"/>
<path d="M223.828 403.266C115.319 403.266 27 314.91 27 206.324C26.9996 174.757 34.5691 143.651 49.0728 115.617L50.2952 116.25C35.8773 144.079 28.341 174.963 28.3186 206.31C28.3186 314.14 116.005 401.878 223.773 401.878C331.541 401.878 419.228 314.14 419.228 206.31C419.228 98.4794 331.596 10.7554 223.828 10.7554C191.219 10.7147 159.121 18.8552 130.468 34.4323C101.816 50.0094 77.5236 72.5259 59.8138 99.9224L58.6601 99.1803C76.4884 71.585 100.95 48.905 129.805 33.2168C158.661 17.5286 190.988 9.33328 223.828 9.38107C332.338 9.38107 420.656 97.7372 420.656 206.324C420.656 314.91 332.338 403.266 223.828 403.266Z" fill="#455A64"/>
<path d="M223.828 403.266C164.766 403.266 116.788 314.91 116.788 206.323C116.788 97.737 164.766 9.38086 223.828 9.38086C282.89 9.38086 330.868 97.737 330.868 206.323C330.868 314.91 282.89 403.266 223.828 403.266ZM223.828 10.7552C165.563 10.7552 118.162 98.4929 118.162 206.323C118.162 314.154 165.563 401.892 223.828 401.892C282.094 401.892 329.494 314.154 329.494 206.323C329.494 98.4929 282.094 10.7552 223.828 10.7552Z" fill="#455A64"/>
<path d="M219.707 111.577C199.158 111.592 178.632 110.214 158.269 107.454C103.849 100.06 70.3626 85.1207 69.9918 84.9695L70.5549 83.7189C70.8846 83.8701 104.275 98.7267 158.461 106.107C208.513 112.979 287.079 114.545 377.101 83.6914L377.541 85.0657C326.75 102.549 273.419 111.507 219.707 111.577Z" fill="#455A64"/>
<path d="M70.5 328.97L69.9918 327.595C160.288 296.645 239.102 298.294 289.318 305.125C343.738 312.478 377.225 327.472 377.664 327.595L377.101 328.846C376.771 328.695 343.395 313.838 289.195 306.458C239.074 299.71 160.508 298.074 70.5 328.97Z" fill="#455A64"/>
<path d="M224.515 10.0684H223.141V402.566H224.515V10.0684Z" fill="#455A64"/>
<path d="M419.969 205.637H377.376V207.011H419.969V205.637Z" fill="#455A64"/>
<path d="M370.151 205.637H361.896V207.011H370.151V205.637Z" fill="#455A64"/>
<path d="M354.191 205.637H27.6869V207.011H354.191V205.637Z" fill="#455A64"/>
<path d="M197.148 244.096L196.04 243.933C196.04 243.933 196.187 242.898 196.365 240.977L197.458 241.08C197.31 243.046 197.148 244.096 197.148 244.096Z" fill="#E1D172"/>
<path d="M197.872 235.211H196.764C196.852 233.29 196.926 231.309 196.941 229.299H198.049C198.034 231.279 197.96 233.275 197.872 235.211ZM196.926 223.386C196.926 221.42 196.808 219.424 196.704 217.473H197.812C197.916 219.439 197.99 221.435 198.034 223.386H196.926ZM196.291 211.56C196.114 209.594 195.907 207.613 195.67 205.647L196.764 205.514C197 207.466 197.207 209.446 197.384 211.427L196.291 211.56ZM194.813 199.838C194.488 197.872 194.149 195.921 193.765 194.029L194.843 193.807C195.227 195.714 195.582 197.695 195.907 199.72L194.813 199.838ZM192.494 188.264C192.036 186.342 191.519 184.421 191.017 182.558L192.08 182.248C192.627 184.125 193.129 186.061 193.558 187.998L192.494 188.264ZM189.244 176.926C188.623 175.049 187.944 173.186 187.25 171.383L188.284 170.984C188.978 172.802 189.658 174.679 190.293 176.571L189.244 176.926ZM184.974 165.943C184.177 164.14 183.32 162.351 182.448 160.622L183.423 160.119C184.324 161.863 185.181 163.667 185.994 165.485L184.974 165.943ZM179.626 155.448C178.637 153.763 177.602 152.078 176.524 150.452L177.455 149.845C178.533 151.486 179.597 153.186 180.587 154.901L179.626 155.448ZM173.141 145.647C171.959 144.066 170.733 142.528 169.477 141.05L170.319 140.326C171.59 141.804 172.845 143.386 174.027 144.982L173.141 145.647ZM165.533 136.689C164.188 135.211 162.77 133.91 161.322 132.58L162.076 131.767C163.553 133.097 165.03 134.502 166.33 135.921L165.533 136.689ZM156.875 128.752C155.398 127.539 153.773 126.342 152.177 125.219L152.813 124.317C154.438 125.455 156.033 126.653 157.57 127.894L156.875 128.752ZM147.288 121.967C145.633 120.961 143.919 119.971 142.191 119.01L142.723 118.035C144.466 118.981 146.194 119.986 147.864 120.991L147.288 121.967ZM136.946 116.394C135.188 115.566 133.371 114.783 131.554 114.043L131.968 113.024C133.814 113.763 135.646 114.502 137.419 115.389L136.946 116.394ZM126.043 111.959C124.211 111.338 122.335 110.732 120.43 110.185L120.74 109.121C122.66 109.683 124.566 110.274 126.398 110.91L126.043 111.959Z" fill="#E1D172"/>
<path d="M114.712 108.693L111.846 108.042L112.083 106.948L114.963 107.613L114.712 108.693Z" fill="#E1D172"/>
<path d="M196.394 244.524C196.394 244.524 195.39 244.139 193.632 243.592L193.971 242.543C195.759 243.105 196.749 243.474 196.793 243.504L196.394 244.524Z" fill="#E1D172"/>
<path d="M114.106 257.887L113.353 257.059C114.83 255.684 116.441 254.354 118.036 253.112L118.716 253.999C117.135 255.211 115.584 256.512 114.106 257.887ZM123.65 250.496L123.044 249.564C124.773 248.471 126.56 247.436 128.363 246.49L128.865 247.465C127.092 248.411 125.334 249.431 123.65 250.51V250.496ZM134.331 244.908L133.903 243.888C135.779 243.119 137.714 242.41 139.664 241.789L140.004 242.839C138.084 243.459 136.178 244.169 134.331 244.923V244.908ZM187.811 241.952C185.861 241.479 183.866 241.065 181.902 240.71L182.094 239.631C184.103 239.986 186.112 240.4 188.077 240.873L187.811 241.952ZM145.825 241.213L145.574 240.134C147.539 239.69 149.563 239.306 151.601 238.995L151.764 240.089C149.755 240.429 147.76 240.814 145.854 241.257L145.825 241.213ZM175.889 239.838C173.88 239.601 171.856 239.424 169.861 239.306V238.197C171.87 238.315 173.924 238.493 175.963 238.729L175.889 239.838ZM157.777 239.468L157.688 238.36C159.682 238.212 161.751 238.123 163.804 238.108V239.217C161.854 239.217 159.741 239.306 157.777 239.468Z" fill="#E1D172"/>
<path d="M107.843 264.362L107 263.637C107.665 262.869 108.315 262.159 108.995 261.42L109.807 262.159C109.143 262.869 108.493 263.608 107.843 264.362Z" fill="#E1D172"/>
<path d="M197.059 244.317L196.128 243.711C196.128 243.711 196.704 242.838 197.842 241.271L198.743 241.937C197.62 243.459 197.059 244.317 197.059 244.317Z" fill="#E1D172"/>
<path d="M202.318 237.266L201.461 236.571C202.673 235.093 203.943 233.511 205.243 231.989L206.086 232.713C204.786 234.221 203.53 235.743 202.318 237.266ZM209.986 228.264L209.158 227.525C210.414 226.135 211.773 224.687 213.206 223.179L214.004 223.947C212.571 225.44 211.227 226.889 209.986 228.264ZM218.155 219.764L217.387 218.966C218.746 217.621 220.179 216.261 221.671 214.871L222.425 215.684C220.948 217.059 219.47 218.419 218.155 219.764ZM226.813 211.738L226.089 210.895C227.566 209.624 229.043 208.338 230.609 207.066L231.318 207.924C229.841 209.195 228.364 210.466 226.886 211.738H226.813ZM235.928 204.243L235.248 203.356C236.829 202.129 238.439 200.947 240.005 199.808L240.655 200.695C239.089 201.834 237.509 203.016 235.928 204.243ZM245.486 197.31L244.866 196.394C246.52 195.285 248.19 194.191 249.83 193.157L250.421 194.088C248.781 195.123 247.126 196.202 245.486 197.31ZM255.458 191.043L254.912 190.082C256.611 189.077 258.354 188.101 260.082 187.126L260.599 188.101C258.886 189.077 257.157 190.038 255.458 191.058V191.043ZM265.8 185.455L265.312 184.465C267.085 183.593 268.902 182.735 270.69 181.952L271.133 182.957C269.404 183.755 267.617 184.598 265.844 185.455H265.8ZM276.555 180.651L276.141 179.631C277.988 178.892 279.849 178.153 281.696 177.532L282.065 178.567C280.277 179.217 278.431 179.927 276.599 180.651H276.555ZM287.649 176.704L287.324 175.64C289.215 175.049 291.136 174.487 293.027 173.984L293.308 175.049C291.476 175.566 289.57 176.113 287.694 176.704H287.649ZM363.245 174.073C361.324 173.644 359.389 173.23 357.483 172.861L357.69 171.782C359.611 172.151 361.561 172.551 363.496 172.994L363.245 174.073ZM299.025 173.644L298.789 172.565C300.709 172.137 302.659 171.738 304.594 171.383L304.801 172.477C302.925 172.817 300.975 173.216 299.069 173.644H299.025ZM351.677 171.871C349.742 171.59 347.777 171.324 345.842 171.117L345.96 170.008C347.925 170.23 349.89 170.481 351.869 170.777L351.677 171.871ZM310.607 171.545L310.46 170.437C312.41 170.171 314.389 169.934 316.369 169.757L316.487 170.851C314.552 171.043 312.543 171.279 310.652 171.545H310.607ZM339.977 170.57C338.027 170.437 336.047 170.333 334.067 170.274V169.165C336.032 169.165 338.027 169.328 339.977 169.476V170.57ZM322.249 170.422V169.313C324.214 169.21 326.208 169.136 328.158 169.121V170.23C326.297 170.23 324.361 170.318 322.367 170.422H322.249Z" fill="#E1D172"/>
<path d="M371.843 176.29C370.897 176.009 369.952 175.758 369.006 175.507L369.302 174.428C370.247 174.679 371.208 174.945 372.153 175.226L371.843 176.29Z" fill="#E1D172"/>
<path d="M199.467 244.776C198.517 244.647 197.56 244.578 196.601 244.569V243.46C197.59 243.474 198.576 243.549 199.556 243.682L199.467 244.776Z" fill="#E1D172"/>
<path d="M254.129 299.927C253.493 298.035 252.814 296.187 252.134 294.398L253.168 293.999C253.863 295.803 254.528 297.665 255.178 299.572L254.129 299.927ZM249.889 288.988C249.091 287.17 248.249 285.396 247.392 283.696L248.382 283.193C249.253 284.908 250.095 286.712 250.908 288.545L249.889 288.988ZM244.585 278.537C243.595 276.837 242.546 275.167 241.497 273.57L242.413 272.964C243.477 274.561 244.541 276.261 245.545 277.99L244.585 278.537ZM238.07 268.825C236.873 267.273 235.603 265.766 234.332 264.391L235.145 263.652C236.445 265.13 237.73 266.608 238.956 268.19L238.07 268.825ZM230.255 260.163C228.777 258.818 227.3 257.532 225.823 256.349L226.517 255.477C227.994 256.675 229.56 257.99 230.949 259.35L230.255 260.163ZM221.081 252.964C219.441 251.9 217.757 250.91 216.028 250.008L216.53 249.018C218.274 249.904 220.002 250.91 221.686 251.974L221.081 252.964ZM210.739 247.658C208.925 246.966 207.075 246.369 205.199 245.869L205.48 244.805C207.398 245.306 209.287 245.913 211.138 246.623L210.739 247.658Z" fill="#E1D172"/>
<path d="M256.699 308.411L255.901 305.573L256.965 305.263C257.231 306.209 257.512 307.155 257.763 308.116L256.699 308.411Z" fill="#E1D172"/>
<path d="M194.799 246.401L194.03 245.603C195.404 244.288 196.202 243.622 196.232 243.593L196.956 244.435C196.956 244.435 196.143 245.115 194.799 246.401Z" fill="#E1D172"/>
<path d="M161.928 391.354C161.248 389.432 160.613 387.481 160.022 385.589L161.086 385.249C161.677 387.141 162.312 389.077 162.977 390.984L161.928 391.354ZM158.338 379.765C157.806 377.813 157.304 375.833 156.861 373.852L157.939 373.615C158.382 375.567 158.885 377.533 159.416 379.454L158.338 379.765ZM155.62 367.939C155.236 365.944 154.911 363.933 154.615 361.952L155.708 361.79C156.004 363.756 156.329 365.751 156.698 367.703L155.62 367.939ZM153.862 355.921C153.655 353.911 153.492 351.871 153.374 349.876L154.482 349.802C154.6 351.797 154.763 353.808 154.97 355.818L153.862 355.921ZM153.153 343.8V341.893C153.153 340.504 153.153 339.114 153.153 337.74H154.261C154.261 339.099 154.261 340.474 154.261 341.864V343.756L153.153 343.8ZM154.63 331.753L153.522 331.664C153.67 329.654 153.876 327.629 154.128 325.633L155.221 325.766C154.999 327.747 154.792 329.757 154.645 331.753H154.63ZM156.107 319.809L155.014 319.632C155.354 317.636 155.753 315.64 156.181 313.719L157.26 313.97C156.846 315.862 156.462 317.813 156.122 319.809H156.107ZM158.693 308.057L157.629 307.762C158.146 305.825 158.722 303.859 159.343 301.938L160.392 302.278C159.801 304.184 159.224 306.121 158.707 308.057H158.693ZM162.356 296.587L161.322 296.202C162.017 294.31 162.8 292.418 163.553 290.555L164.572 290.984C163.804 292.832 163.095 294.709 162.371 296.587H162.356ZM167.04 285.485L166.035 285.012C166.892 283.194 167.808 281.376 168.753 279.587L169.743 280.105C168.812 281.878 167.911 283.682 167.054 285.485H167.04ZM172.668 274.842L171.708 274.28C172.727 272.551 173.806 270.807 174.899 269.107L175.83 269.713C174.751 271.398 173.673 273.127 172.683 274.842H172.668ZM179.198 264.717L178.297 264.081C179.464 262.44 180.675 260.785 181.902 259.203L182.773 259.883C181.577 261.45 180.365 263.12 179.213 264.717H179.198ZM186.585 255.197L185.743 254.473C187.057 252.906 188.417 251.383 189.776 249.935L190.588 250.688C189.244 252.122 187.9 253.645 186.585 255.197Z" fill="#E1D172"/>
<path d="M165.134 399.809C164.75 398.892 164.395 397.976 164.041 397.059L165.075 396.66C165.429 397.562 165.784 398.478 166.153 399.395L165.134 399.809Z" fill="#E1D172"/>
<path d="M203.22 232.077C203.171 230.341 202.459 228.69 201.231 227.464C200.002 226.238 198.351 225.529 196.616 225.484C192.627 225.484 190.352 228.766 190.027 232.077C189.525 237.162 192.982 241.789 196.616 246.002C200.265 241.774 203.692 237.147 203.22 232.077ZM196.616 235.743C195.903 235.737 195.208 235.521 194.618 235.121C194.027 234.722 193.568 234.157 193.297 233.497C193.027 232.837 192.957 232.112 193.096 231.413C193.236 230.714 193.578 230.071 194.081 229.566C194.584 229.061 195.225 228.715 195.923 228.573C196.622 228.431 197.346 228.498 198.007 228.766C198.667 229.034 199.234 229.491 199.635 230.08C200.037 230.669 200.256 231.364 200.265 232.077C200.271 232.559 200.181 233.037 199.999 233.484C199.818 233.93 199.55 234.336 199.21 234.677C198.87 235.019 198.466 235.289 198.02 235.472C197.575 235.655 197.097 235.747 196.616 235.743Z" fill="#E1D172"/>
<path d="M107.429 268.841C110.105 268.841 112.275 266.67 112.275 263.992C112.275 261.314 110.105 259.144 107.429 259.144C104.753 259.144 102.583 261.314 102.583 263.992C102.583 266.67 104.753 268.841 107.429 268.841Z" fill="#E1D172"/>
<path d="M171.93 401.376C171.93 402.335 171.645 403.272 171.113 404.07C170.58 404.867 169.824 405.488 168.938 405.855C168.053 406.222 167.078 406.318 166.138 406.131C165.199 405.944 164.335 405.482 163.657 404.804C162.98 404.126 162.518 403.262 162.331 402.322C162.144 401.381 162.24 400.406 162.607 399.52C162.974 398.634 163.595 397.877 164.392 397.344C165.189 396.812 166.125 396.527 167.084 396.527C168.369 396.527 169.601 397.038 170.51 397.947C171.419 398.857 171.93 400.09 171.93 401.376Z" fill="#E1D172"/>
<path d="M257.231 315.522C259.907 315.522 262.077 313.351 262.077 310.674C262.077 307.996 259.907 305.825 257.231 305.825C254.555 305.825 252.385 307.996 252.385 310.674C252.385 313.351 254.555 315.522 257.231 315.522Z" fill="#E1D172"/>
<path d="M378.328 176.719C378.328 177.678 378.044 178.615 377.512 179.412C376.979 180.21 376.223 180.831 375.337 181.198C374.452 181.565 373.477 181.661 372.537 181.474C371.597 181.287 370.734 180.825 370.056 180.147C369.379 179.469 368.917 178.605 368.73 177.664C368.543 176.724 368.639 175.749 369.006 174.863C369.373 173.977 369.994 173.22 370.791 172.687C371.588 172.154 372.524 171.87 373.483 171.87C374.768 171.87 376 172.381 376.909 173.29C377.818 174.199 378.328 175.433 378.328 176.719Z" fill="#E1D172"/>
<path d="M108.832 112.343C111.509 112.343 113.678 110.173 113.678 107.495C113.678 104.817 111.509 102.646 108.832 102.646C106.156 102.646 103.987 104.817 103.987 107.495C103.987 110.173 106.156 112.343 108.832 112.343Z" fill="#E1D172"/>
<path d="M215.014 327.791C257.34 339.542 239.996 402.292 197.611 390.511C155.226 378.729 172.615 316.009 215.014 327.791Z" fill="#E1D172"/>
<path opacity="0.1" d="M215.014 327.791C257.34 339.542 239.996 402.292 197.611 390.511C155.226 378.729 172.615 316.009 215.014 327.791Z" fill="black"/>
<path d="M211.04 326.682C251.371 337.887 234.042 400.592 193.637 389.402C153.232 378.212 170.635 315.462 211.04 326.682Z" fill="#E1D172"/>
<path opacity="0.1" d="M176.175 357.118C175.333 368.5 180.917 380.134 195.114 384.08C228.65 393.393 243.039 341.316 209.563 332.018L208.898 331.841C240.232 341.227 226.39 390.496 194.42 381.612C181.39 377.99 175.909 367.584 176.175 357.118Z" fill="black"/>
<g opacity="0.1">
<path d="M207.731 338.507C208 338.607 208.219 338.808 208.344 339.068C208.468 339.327 208.486 339.624 208.395 339.897L207.804 341.597C210.502 342.788 212.781 344.76 214.349 347.258C214.488 347.42 214.585 347.615 214.632 347.823C214.678 348.032 214.672 348.249 214.615 348.455C214.505 348.739 214.29 348.968 214.014 349.095C213.738 349.222 213.424 349.237 213.138 349.135C212.85 349.044 212.611 348.842 212.473 348.574C211.202 346.406 209.328 344.655 207.08 343.533L202.885 355.506C208.898 359.158 210.774 362.557 209.311 366.756C207.716 371.279 202.781 373.156 197.389 371.441L196.207 374.782C196.16 374.916 196.086 375.039 195.991 375.145C195.896 375.25 195.781 375.336 195.653 375.397C195.525 375.458 195.385 375.494 195.244 375.501C195.102 375.508 194.96 375.488 194.826 375.44C194.692 375.392 194.569 375.319 194.463 375.224C194.358 375.129 194.272 375.013 194.211 374.885C194.15 374.757 194.115 374.618 194.108 374.476C194.1 374.334 194.121 374.192 194.169 374.058L195.35 370.688C191.864 369.16 188.992 366.505 187.196 363.149C187.086 363 187.015 362.827 186.986 362.644C186.958 362.461 186.974 362.274 187.033 362.099C187.14 361.813 187.354 361.58 187.63 361.45C187.906 361.321 188.222 361.304 188.51 361.404C188.798 361.496 189.037 361.698 189.175 361.966C190.656 364.965 193.109 367.372 196.133 368.795L200.418 356.6C194.508 352.934 192.676 349.653 194.169 345.381C195.661 341.109 200.61 339.084 205.869 340.798L206.43 339.172C206.53 338.923 206.716 338.718 206.955 338.595C207.195 338.473 207.47 338.442 207.731 338.507ZM201.171 354.442L205.263 342.764C201.082 341.39 197.478 342.912 196.399 345.987C195.321 349.062 196.045 351.175 201.171 354.442ZM202.131 357.709L197.995 369.535C202.294 371.013 205.943 369.446 207.08 366.194C208.041 363.237 207.169 360.902 202.058 357.724L202.131 357.709Z" fill="black"/>
</g>
<path d="M413.415 203.711C382.879 227.82 418.512 273.097 449.108 248.958C479.703 224.82 444.026 179.557 413.415 203.711Z" fill="#E1D172"/>
<path opacity="0.1" d="M413.415 203.711C382.879 227.82 418.512 273.097 449.108 248.958C479.703 224.82 444.026 179.557 413.415 203.711Z" fill="black"/>
<path d="M416.281 201.449C387.178 224.42 422.826 269.712 451.974 246.697C481.122 223.681 445.503 178.433 416.281 201.449Z" fill="#E1D172"/>
<path opacity="0.1" d="M418.911 242.588C426.475 249.299 437.658 251.605 448.059 243.726C472.612 225.115 443.715 187.007 419.192 205.588C419.028 205.703 418.87 205.827 418.719 205.958C442.149 188.929 469.362 225.174 445.946 242.913C442.12 246.046 437.313 247.731 432.369 247.671C427.426 247.612 422.661 245.812 418.911 242.588Z" fill="black"/>
<g opacity="0.1">
<path d="M422.737 210.362C422.952 210.227 423.211 210.181 423.459 210.233C423.707 210.285 423.925 210.433 424.067 210.643L424.953 211.974C427.244 210.717 429.856 210.172 432.458 210.407C432.646 210.398 432.832 210.435 433.002 210.515C433.172 210.595 433.32 210.715 433.433 210.865C433.514 210.98 433.57 211.11 433.6 211.247C433.629 211.384 433.631 211.526 433.605 211.663C433.579 211.801 433.525 211.932 433.447 212.049C433.37 212.166 433.269 212.266 433.152 212.343C432.926 212.492 432.652 212.55 432.384 212.506C430.168 212.229 427.92 212.62 425.928 213.629L432.089 223.016C437.895 220.739 441.293 221.242 443.449 224.494C445.784 228.042 444.454 232.521 440.347 235.403L442.076 238.02C442.207 238.235 442.252 238.493 442.199 238.741C442.147 238.988 442.002 239.206 441.795 239.35C441.583 239.491 441.324 239.542 441.075 239.492C440.826 239.442 440.607 239.295 440.465 239.084L438.722 236.423C435.775 238.051 432.372 238.654 429.045 238.138C428.911 238.134 428.78 238.104 428.657 238.049C428.535 237.994 428.425 237.916 428.333 237.818C428.241 237.721 428.169 237.606 428.122 237.481C428.074 237.356 428.052 237.222 428.056 237.088C428.058 236.927 428.099 236.768 428.176 236.627C428.254 236.485 428.364 236.364 428.499 236.275C428.72 236.127 428.99 236.069 429.252 236.113C432.157 236.687 435.17 236.249 437.791 234.871L431.527 225.322C425.766 227.51 422.471 227.037 420.27 223.681C418.069 220.326 419.31 215.773 423.328 212.994L422.501 211.708C422.356 211.497 422.3 211.238 422.345 210.987C422.389 210.735 422.53 210.511 422.737 210.362ZM430.375 223.592L424.362 214.442C421.156 216.645 420.285 220 421.866 222.41C423.446 224.819 425.367 225.396 430.375 223.592ZM433.182 224.671L439.269 233.925C442.578 231.649 443.479 228.278 441.795 225.736C440.111 223.193 438.19 222.779 433.182 224.686V224.671Z" fill="black"/>
</g>
<path d="M0.824176 53.4665L0.248015 53.8804L-3.94763 46.7851C-3.77035 46.6372 -3.57829 46.5042 -3.38624 46.3712L-2.02709 45.4251C2.56328 42.2334 7.64302 39.8119 13.0122 38.2559L17.2226 45.366C11.8512 46.916 6.77049 49.338 2.18332 52.5353L0.824176 53.4665Z" fill="#E1D172"/>
<path d="M35.5564 49.0319C33.0154 44.7452 26.1901 42.9418 17.1931 45.366L12.9827 38.2559C21.9797 35.8316 28.8197 37.6498 31.346 41.9218C32.6165 44.0504 34.2859 46.9033 35.5564 49.0319Z" fill="#E1D172"/>
<path d="M28.8936 42.8678L33.104 49.9631C29.4402 43.7842 16.4396 42.9712 1.06054 53.3334L0.292315 53.8508L-3.90332 46.7554L-3.13511 46.2233C12.1553 35.8907 25.1707 36.7185 28.8936 42.8678Z" fill="#E1D172"/>
<path d="M0.632151 48.4551L4.84256 55.5652C4.63574 55.3435 4.01525 55.4469 3.51296 55.7721L-0.653137 48.6768C-0.180389 48.3368 0.425324 48.2333 0.632151 48.4551Z" fill="#E1D172"/>
<path d="M-0.667918 50.3623L3.5425 57.4577L2.93679 56.8073L-1.25885 49.7119L-0.667918 50.3623Z" fill="#E1D172"/>
<path d="M3.49814 55.7877C3.01062 56.1129 2.77425 56.5268 2.90721 56.7633L-1.30321 49.6532C-1.43617 49.4315 -1.18502 49.0176 -0.712275 48.6924L3.49814 55.7877Z" fill="#E1D172"/>
<path d="M2.9072 56.7625L-1.30322 49.6523L2.89242 56.7477L2.9072 56.7625Z" fill="#E1D172"/>
<path d="M1.25262 49.1498L5.46304 56.2452L4.84255 55.5652L0.632141 48.4551L1.25262 49.1498Z" fill="#E1D172"/>
<path d="M3.5425 57.4577C2.17308 58.363 0.90945 59.4191 -0.224708 60.6062L-4.43512 53.4961C-3.29547 52.3134 -2.02688 51.2622 -0.653137 50.3623L3.5425 57.4577Z" fill="#E1D172"/>
<path d="M9.39276 45.7061L13.5884 52.8014C10.7202 53.528 7.98004 54.6895 5.46304 56.2456L1.25262 49.1503C3.77182 47.5882 6.5178 46.4263 9.39276 45.7061Z" fill="#E1D172"/>
<path d="M14.5044 52.8312C14.3566 52.6686 14.0611 52.6834 13.5884 52.8312L9.39276 45.7358C9.85074 45.6176 10.1462 45.588 10.2939 45.7358L14.5044 52.8312Z" fill="#E1D172"/>
<path d="M8.84613 47.1846L13.0565 54.2799C10.6168 54.8701 8.27726 55.8164 6.11306 57.0885L1.90265 49.9931C4.06384 48.715 6.40435 47.7683 8.84613 47.1846Z" fill="#E1D172"/>
<path d="M10.3382 45.8242L14.5339 52.9196C14.6816 53.1709 14.4009 53.6291 13.8986 53.9691C13.6467 54.1466 13.3595 54.2676 13.0565 54.3239L8.84613 47.3024C9.14828 47.2436 9.43499 47.1228 9.68821 46.9476C10.2053 46.4746 10.486 46.0312 10.3382 45.8242Z" fill="#E1D172"/>
<path d="M-0.106539 64.4203L-4.31696 57.3249C-5.09995 56.0093 -3.46011 53.5112 0.115053 51.0869L4.3107 58.1823C0.824181 60.6065 -0.889528 63.1194 -0.106539 64.4203Z" fill="#E1D172"/>
<path d="M0.129791 51.0869L4.42885 55.7728C-1.15549 58.6109 -3.07604 58.7292 -4.15449 57.5466C-5.23295 56.3641 -3.60787 53.6442 0.129791 51.0869Z" fill="#E1D172"/>
<path d="M4.42888 55.7728L8.62452 62.8682L4.32546 58.1823L0.129822 51.0869L4.42888 55.7728Z" fill="#E1D172"/>
<path d="M-0.106532 64.4199L-4.31696 57.3246L-4.15445 57.5463C-3.07599 58.7141 -1.19976 58.6106 4.4289 55.7725L8.62453 62.8678C3.04019 65.706 1.11966 65.8242 0.0559758 64.6564C-0.00646813 64.5836 -0.0609481 64.5043 -0.106532 64.4199Z" fill="#E1D172"/>
<path d="M6.31989 54.7973L10.5155 61.8927L6.11306 57.0885L1.90265 49.9932L6.31989 54.7973Z" fill="#E1D172"/>
<path d="M17.592 58.8918C15.1319 59.6146 12.7588 60.606 10.5155 61.8482L6.31989 54.6937C8.55804 53.4516 10.9262 52.4601 13.3816 51.7373L17.592 58.8918Z" fill="#E1D172"/>
<path d="M-2.13048 65.7355L-6.32611 58.6253C-6.26967 58.7483 -6.18932 58.8589 -6.08974 58.9505C-4.52376 60.6652 -1.19976 60 5.24144 56.6445L9.45185 63.7399C2.99588 67.0954 -0.313344 67.7754 -1.8941 66.0607C-1.98111 65.9585 -2.06014 65.8498 -2.13048 65.7355Z" fill="#E1D172"/>
<path d="M17.7988 58.8327H17.5919L13.3815 51.7373H13.5884L17.7988 58.8327Z" fill="#E1D172"/>
<path d="M16.026 55.8313L13.5884 51.7366C14.2454 51.5713 14.9201 51.4869 15.5976 51.4854L19.7932 58.5807C19.1206 58.5823 18.4508 58.6667 17.7988 58.832L16.026 55.8313Z" fill="#E1D172"/>
<path d="M15.8487 53.7618L20.0443 60.8572C18.9659 59.6746 16.9124 59.8816 11.328 62.764L7.11761 55.6687C12.6429 52.7714 14.7554 52.5793 15.8487 53.7618Z" fill="#E1D172"/>
<path d="M19.7932 58.5811L15.5975 51.4857C16.0023 51.4734 16.4052 51.5445 16.7813 51.6945C17.1574 51.8446 17.4987 52.0704 17.784 52.3579C17.8805 52.4611 17.9648 52.5752 18.0351 52.6979L22.2456 59.808C22.1752 59.6853 22.091 59.5713 21.9944 59.468C21.7087 59.176 21.3656 58.9464 20.9867 58.7937C20.6078 58.6411 20.2014 58.5687 19.7932 58.5811Z" fill="#E1D172"/>
<path d="M16.026 53.9992L20.2216 61.0946C20.1759 61.0065 20.116 60.9266 20.0443 60.858L15.8487 53.7627L16.026 53.9992Z" fill="#E1D172"/>
<path d="M0.587804 65.041L4.79823 72.1511C4.50356 72.2115 4.22288 72.3268 3.97091 72.4911L-0.239502 65.3958C0.00848091 65.221 0.290299 65.1002 0.587804 65.041Z" fill="#E1D172"/>
<path d="M3.9709 72.5058C3.48338 72.8458 3.20268 73.3188 3.35042 73.5553L-0.859994 66.5191C-0.992954 66.2826 -0.727036 65.8244 -0.239514 65.4844L3.9709 72.5058Z" fill="#E1D172"/>
<path d="M16.026 53.999L20.2216 61.0944C21.0341 62.4839 19.3648 65.0116 15.6714 67.5098L11.4758 60.3996C15.1543 57.9163 16.8385 55.3737 16.026 53.999Z" fill="#E1D172"/>
<path d="M11.4758 60.3992L15.6714 67.5093L11.328 62.7643L7.11761 55.6689L11.4758 60.3992Z" fill="#E1D172"/>
<path d="M9.71773 61.5374L13.9134 68.6327L9.43704 63.7399L5.22662 56.6445L9.71773 61.5374Z" fill="#E1D172"/>
<path d="M9.68818 61.5371L13.8838 68.6325C11.0821 70.3483 7.99444 71.5451 4.76864 72.1654L0.587769 65.0404C3.8073 64.4304 6.89025 63.2436 9.68818 61.5371Z" fill="#E1D172"/>
<path d="M18.0352 52.6982L22.2456 59.8084C23.3831 61.7152 21.049 65.0855 16.4544 68.2193L12.244 61.124C16.8385 57.9902 19.1727 54.6051 18.0352 52.6982Z" fill="#E1D172"/>
<path d="M3.35043 73.5556L-0.859985 66.5194C-0.712252 66.682 -0.461109 66.6672 -0.0917744 66.5194C3.57025 65.7231 7.06828 64.3031 10.2496 62.3213L14.46 69.4166C11.2848 71.4105 7.78465 72.8314 4.11865 73.6147C3.87101 73.7077 3.59807 73.7077 3.35043 73.6147V73.5556Z" fill="#E1D172"/>
<path d="M13.485 62.4544L17.6954 69.5645L16.4544 68.2342L12.244 61.124L13.485 62.4544Z" fill="#E1D172"/>
<path d="M11.594 63.7104L15.8044 70.8205L14.5487 69.4606L10.3383 62.3652L11.594 63.7104Z" fill="#E1D172"/>
<path d="M13.5145 62.498L17.7249 69.6082C17.8579 69.8447 17.6067 70.2734 17.1192 70.5986L12.9236 63.5624C13.3963 63.178 13.6622 62.7346 13.5145 62.498Z" fill="#E1D172"/>
<path d="M12.9235 63.5625L17.0749 70.6579C16.5578 70.9978 15.9669 71.1013 15.76 70.8796L11.5496 63.7694C11.8008 63.932 12.4065 63.8434 12.9235 63.5625Z" fill="#E1D172"/>
<path d="M36.2803 39.1279L40.4759 46.2381C44.1249 52.3726 40.402 62.7348 24.9639 73.6882C24.4172 74.0725 23.8706 74.4569 23.324 74.8116C3.97089 87.8346 -12.3833 86.7998 -16.9039 79.0393L-21.1143 71.9439C-16.5198 79.7045 -0.165661 80.7244 19.1432 67.7163L20.783 66.5781C36.1473 55.6246 39.8702 45.2772 36.2803 39.1279Z" fill="#E1D172"/>
<g opacity="0.1">
<path d="M36.2803 39.1279L40.4759 46.2381C44.1249 52.3726 40.402 62.7348 24.9639 73.6882C24.4172 74.0725 23.8706 74.4569 23.324 74.8116C3.97089 87.8346 -12.3833 86.7998 -16.9039 79.0393L-21.1143 71.9439C-16.5198 79.7045 -0.165661 80.7244 19.1432 67.7163L20.783 66.5781C36.1473 55.6246 39.8702 45.2772 36.2803 39.1279Z" fill="black"/>
</g>
<path d="M-4.0215 43.3557C30.5778 20.0445 55.6482 41.7888 20.7091 66.5782L19.0693 67.7164C-15.53 91.0276 -40.5413 69.2833 -5.66134 44.4939L-4.0215 43.3557ZM18.5522 64.7009C47.5376 44.1391 26.7219 26.0903 -1.98277 45.4843L-3.34192 46.4303C-3.53398 46.5634 -3.72603 46.6964 -3.90331 46.8442L-3.1351 46.3121C24.3877 27.7607 44.3613 45.0704 16.5431 64.8043L15.243 65.706C4.31069 73.097 -5.43974 74.797 -11.4673 72.9492C-5.27724 75.3143 5.27096 73.7327 17.1783 65.706L18.5522 64.76M-0.165642 65.4695C-0.682711 65.8243 -0.963407 66.3269 -0.75658 66.5486C-0.549753 66.7704 -0.357703 66.6964 0.0116311 66.5486C3.67365 65.7524 7.17169 64.3323 10.353 62.3505L11.6087 63.6957C11.8156 63.9174 12.4213 63.8287 12.9383 63.4888C13.4554 63.1488 13.7066 62.661 13.4997 62.4392L12.2588 61.1089C17.134 57.7681 19.4682 54.1761 17.7988 52.3431C16.1294 50.5102 12.8349 51.3528 6.33465 54.7822L1.90264 49.978C4.06383 48.6999 6.40434 47.7531 8.84612 47.1694C9.14363 47.1103 9.42544 46.9894 9.67343 46.8147C10.2348 46.4451 10.5155 45.9573 10.2939 45.7208C10.0723 45.4843 9.85071 45.573 9.39274 45.7208C6.51778 46.4411 3.77179 47.6029 1.2526 49.165L0.632122 48.4703C0.425294 48.2485 -0.180417 48.352 -0.697485 48.692C-1.21455 49.032 -1.48048 49.505 -1.25888 49.7267L-0.667943 50.3771C-5.43975 53.6144 -7.70007 57.236 -6.10455 58.9655C-4.50902 60.695 -1.21455 60.015 5.22665 56.6595L9.65866 61.5523C6.8693 63.2515 3.79647 64.4332 0.587792 65.0409C0.290288 65.1 0.00846915 65.2209 -0.239514 65.3956" fill="#E1D172"/>
<path d="M15.8487 53.7618C17.0306 55.0626 15.376 57.753 11.4167 60.3989L6.98468 55.6687C12.6429 52.7714 14.7555 52.5793 15.8487 53.7618Z" fill="#E1D172"/>
<path d="M6.31986 54.7965C12.8201 51.3671 16.2476 50.6723 17.784 52.3574C19.3204 54.0426 17.1192 57.7824 12.244 61.1232L13.4849 62.4535C13.6918 62.6753 13.485 63.1631 12.9236 63.5031C12.3622 63.843 11.8008 63.9317 11.594 63.71L10.3382 62.3649C7.15691 64.3467 3.65888 65.7667 -0.00314733 66.5629C-0.372482 66.5629 -0.623636 66.6516 -0.77137 66.5629C-0.919103 66.4742 -0.77137 65.8386 -0.195209 65.4986C0.0556759 65.3163 0.342896 65.1903 0.646874 65.1291C3.85062 64.4808 6.91262 63.2643 9.68819 61.5371L5.25617 56.6442C-1.18502 59.9997 -4.50903 60.6649 -6.07501 58.9502C-7.64099 57.2355 -5.41021 53.5991 -0.638403 50.3619L-1.22934 49.7115C-1.45094 49.4897 -1.22934 49.0315 -0.682722 48.6915C-0.136106 48.3515 0.454823 48.2333 0.66165 48.455L1.28213 49.1498C3.80132 47.5877 6.54731 46.4258 9.42227 45.7056C9.88024 45.5873 10.1757 45.5577 10.3234 45.7056C10.4712 45.8534 10.3234 46.4299 9.71773 46.7994C9.4645 46.9745 9.1778 47.0953 8.87565 47.1542C6.43387 47.7379 4.09336 48.6846 1.93216 49.9628L6.31986 54.7965ZM15.8487 53.7617C14.7555 52.5792 12.702 52.7713 7.11762 55.6686L11.4758 60.3988C15.3759 57.7529 17.0306 55.0626 15.9078 53.7617M4.48796 55.7721L0.188903 51.0862C-3.62263 53.6435 -5.23293 56.319 -4.09538 57.5459C-2.95783 58.7728 -1.1407 58.6102 4.48796 55.7721Z" fill="#E1D172"/>
<g opacity="0.1">
<path d="M6.31986 54.7965C12.8201 51.3671 16.2476 50.6723 17.784 52.3574C19.3204 54.0426 17.1192 57.7824 12.244 61.1232L13.4849 62.4535C13.6918 62.6753 13.485 63.1631 12.9236 63.5031C12.3622 63.843 11.8008 63.9317 11.594 63.71L10.3382 62.3649C7.15691 64.3467 3.65888 65.7667 -0.00314733 66.5629C-0.372482 66.5629 -0.623636 66.6516 -0.77137 66.5629C-0.919103 66.4742 -0.77137 65.8386 -0.195209 65.4986C0.0556759 65.3163 0.342896 65.1903 0.646874 65.1291C3.85062 64.4808 6.91262 63.2643 9.68819 61.5371L5.25617 56.6442C-1.18502 59.9997 -4.50903 60.6649 -6.07501 58.9502C-7.64099 57.2355 -5.41021 53.5991 -0.638403 50.3619L-1.22934 49.7115C-1.45094 49.4897 -1.22934 49.0315 -0.682722 48.6915C-0.136106 48.3515 0.454823 48.2333 0.66165 48.455L1.28213 49.1498C3.80132 47.5877 6.54731 46.4258 9.42227 45.7056C9.88024 45.5873 10.1757 45.5577 10.3234 45.7056C10.4712 45.8534 10.3234 46.4299 9.71773 46.7994C9.4645 46.9745 9.1778 47.0953 8.87565 47.1542C6.43387 47.7379 4.09336 48.6846 1.93216 49.9628L6.31986 54.7965ZM15.8487 53.7617C14.7555 52.5792 12.702 52.7713 7.11762 55.6686L11.4758 60.3988C15.3759 57.7529 17.0306 55.0626 15.9078 53.7617M4.48796 55.7721L0.188903 51.0862C-3.62263 53.6435 -5.23293 56.319 -4.09538 57.5459C-2.95783 58.7728 -1.1407 58.6102 4.48796 55.7721Z" fill="black"/>
</g>
<path d="M-2.05662 45.4248C26.6481 26.0899 47.4638 44.1387 18.4784 64.6413L17.1044 65.5874C5.1971 73.614 -5.35109 75.1957 -11.5411 72.8306C-5.52837 74.6783 4.23684 72.9636 15.1691 65.5874L16.4692 64.6857C44.2875 44.9517 24.3139 27.642 -3.20895 46.1934L-3.97716 46.7256C-3.79988 46.5778 -3.60783 46.4447 -3.41578 46.3117L-2.05662 45.4248Z" fill="#E1D172"/>
<g opacity="0.1">
<path d="M-2.05662 45.4248C26.6481 26.0899 47.4638 44.1387 18.4784 64.6413L17.1044 65.5874C5.1971 73.614 -5.35109 75.1957 -11.5411 72.8306C-5.52837 74.6783 4.23684 72.9636 15.1691 65.5874L16.4692 64.6857C44.2875 44.9517 24.3139 27.642 -3.20895 46.1934L-3.97716 46.7256C-3.79988 46.5778 -3.60783 46.4447 -3.41578 46.3117L-2.05662 45.4248Z" fill="black"/>
</g>
<path d="M468.86 176.349L468.106 176.083L471.947 167.583C472.211 167.632 472.465 167.721 472.701 167.849L474.459 168.5C480.384 170.681 485.913 173.817 490.828 177.783L486.987 186.282C482.078 182.308 476.547 179.171 470.618 176.999L468.86 176.349Z" fill="#E1D172"/>
<path d="M495.496 205.662C497.816 200.547 495.053 193.038 486.987 186.283L490.828 177.783C498.909 184.539 501.657 192.048 499.337 197.162L495.496 205.662Z" fill="#E1D172"/>
<path d="M496.811 195.447L492.97 203.947C496.309 196.556 488.626 183.976 469.081 176.452L468.106 176.083L471.947 167.583L472.937 167.953C492.482 175.477 500.165 188.056 496.811 195.447Z" fill="#E1D172"/>
<path d="M468.476 180.34C469.761 177.517 471.031 174.679 472.317 171.855L468.476 180.34Z" fill="#E1D172"/>
<path d="M473.38 172.949L469.539 181.449C469.613 181.109 469.126 180.606 468.476 180.355L472.317 171.855C472.967 172.107 473.469 172.609 473.38 172.949Z" fill="#E1D172"/>
<path d="M470.78 172.979L466.939 181.478L467.161 180.503L471.002 172.003L470.78 172.979Z" fill="#E1D172"/>
<path d="M468.461 180.34C467.855 180.118 467.308 180.163 467.176 180.429L471.031 171.929C471.15 171.663 471.696 171.619 472.302 171.855C471.017 174.679 469.746 177.517 468.461 180.34Z" fill="#E1D172"/>
<path d="M467.176 180.429L471.031 171.93V172.004L467.19 180.503C467.182 180.479 467.177 180.454 467.176 180.429Z" fill="#E1D172"/>
<path d="M473.159 173.969L469.318 182.469L469.539 181.449L473.395 172.949L473.159 173.969Z" fill="#E1D172"/>
<path d="M466.939 181.479C465.215 180.796 463.422 180.3 461.591 180.001L465.432 171.501C467.264 171.793 469.058 172.289 470.78 172.979L466.939 181.479Z" fill="#E1D172"/>
<path d="M461.828 179.321L465.358 171.516H465.432L461.591 180.015H461.517V179.853L461.591 179.675L461.828 179.321Z" fill="#E1D172"/>
<path d="M481.609 179.276L477.768 187.761C475.237 185.577 472.388 183.792 469.318 182.469L473.159 173.97C476.235 175.287 479.086 177.077 481.609 179.276Z" fill="#E1D172"/>
<path d="M478.329 188.633C478.329 188.382 478.182 188.131 477.768 187.761L481.609 179.276C482.023 179.631 482.23 179.882 482.171 180.134L478.329 188.633Z" fill="#E1D172"/>
<path d="M479.895 179.734L476.054 188.234C473.94 186.343 471.549 184.787 468.963 183.622L472.804 175.122C475.39 176.288 477.781 177.843 479.895 179.734Z" fill="#E1D172"/>
<path d="M482.156 180.193L478.315 188.692C478.167 188.988 477.576 189.017 476.926 188.781C476.601 188.66 476.305 188.474 476.054 188.234L479.895 179.734C480.146 179.974 480.442 180.16 480.767 180.281C481.417 180.533 482.023 180.488 482.156 180.193Z" fill="#E1D172"/>
<path d="M461.517 180.015C460.038 179.743 458.515 179.844 457.085 180.311L460.941 171.811C462.369 171.338 463.895 171.236 465.373 171.515L461.517 180.015Z" fill="#E1D172"/>
<path d="M457.085 180.178C458.341 177.384 459.612 174.605 460.867 171.812L457.041 180.341L457.085 180.178Z" fill="#E1D172"/>
<path d="M458.134 182.602L461.975 174.102C462.684 172.535 466.068 172.432 470.633 174.176L466.791 182.676C462.226 180.931 458.799 181.035 458.134 182.602Z" fill="#E1D172"/>
<path d="M457.026 180.34C456.389 180.552 455.86 181.002 455.549 181.597L459.39 173.112C459.539 172.812 459.747 172.546 460 172.327C460.254 172.109 460.549 171.944 460.867 171.841C460.055 173.659 459.227 175.462 458.415 177.281C457.972 178.271 457.514 179.247 457.071 180.237C457.056 180.237 457.056 180.34 457.026 180.34Z" fill="#E1D172"/>
<path d="M470.618 174.176L469.14 181.197C462.891 177.857 461.547 176.157 461.946 174.412C462.345 172.668 465.802 172.328 470.618 174.176Z" fill="#E1D172"/>
<path d="M469.081 181.197L465.24 189.697L466.791 182.675L470.632 174.176L469.081 181.197Z" fill="#E1D172"/>
<path d="M458.134 182.602L461.975 174.103C461.932 174.202 461.902 174.306 461.887 174.413C461.488 176.157 462.832 177.857 469.081 181.198L465.24 189.698C458.991 186.357 457.647 184.657 458.031 182.898C458.059 182.797 458.093 182.698 458.134 182.602Z" fill="#E1D172"/>
<path d="M471.209 182.321L467.368 190.821L468.963 183.622L472.804 175.122L471.209 182.321Z" fill="#E1D172"/>
<path d="M474.725 195.418C472.446 193.604 469.968 192.057 467.338 190.806L471.179 182.321C473.802 183.579 476.279 185.121 478.566 186.918L474.725 195.418Z" fill="#E1D172"/>
<path d="M455.608 181.567L459.449 173.082C459.389 173.22 459.345 173.363 459.316 173.511C458.755 176.068 461.517 178.714 468.801 182.513L464.96 191.013C457.676 187.214 454.899 184.568 455.475 181.996C455.504 181.848 455.548 181.705 455.608 181.567Z" fill="#E1D172"/>
<path d="M474.917 195.565L474.725 195.418L478.581 186.918L478.758 187.081C477.473 189.904 476.202 192.742 474.917 195.565Z" fill="#E1D172"/>
<path d="M476.527 191.989L478.743 187.081C479.308 187.575 479.805 188.141 480.22 188.766L476.379 197.266C475.964 196.636 475.467 196.065 474.902 195.566L476.527 191.989Z" fill="#E1D172"/>
<path d="M478.344 190.466L474.503 198.966C474.887 197.192 473.38 195.418 467.116 192.122L470.958 183.622C477.221 186.918 478.728 188.692 478.344 190.466Z" fill="#E1D172"/>
<path d="M476.438 197.265L480.28 188.766C480.556 189.133 480.755 189.554 480.861 190.002C480.968 190.449 480.981 190.914 480.9 191.367C480.861 191.525 480.807 191.679 480.738 191.826L476.896 200.325C476.968 200.18 477.017 200.026 477.044 199.867C477.132 199.415 477.124 198.95 477.019 198.501C476.915 198.053 476.717 197.632 476.438 197.265Z" fill="#E1D172"/>
<path d="M478.241 190.791L474.385 199.291C474.433 199.186 474.473 199.077 474.503 198.965L478.344 190.466C478.319 190.577 478.284 190.686 478.241 190.791Z" fill="#E1D172"/>
<path d="M458.001 183.666L454.16 192.166C453.914 191.931 453.623 191.75 453.303 191.633L457.144 183.134C457.462 183.254 457.753 183.434 458.001 183.666Z" fill="#E1D172"/>
<path d="M453.303 191.633C452.683 191.382 452.062 191.441 451.929 191.722L455.844 183.296C455.977 183.016 456.583 182.956 457.218 183.193C455.933 186.016 454.648 188.84 453.392 191.663C454.662 188.845 455.938 186.021 457.218 183.193L453.303 191.633Z" fill="#E1D172"/>
<path d="M478.241 190.791L474.385 199.291C473.646 200.931 470.219 201.02 465.521 199.291L469.362 190.806C474.06 192.52 477.487 192.432 478.241 190.791Z" fill="#E1D172"/>
<path d="M469.362 190.732L465.521 199.232L467.072 192.122L470.913 183.622L469.362 190.732Z" fill="#E1D172"/>
<path d="M467.176 189.831L463.334 198.33L464.96 191.013L468.801 182.514L467.176 189.831Z" fill="#E1D172"/>
<path d="M467.176 189.83L463.334 198.33C459.925 196.854 456.816 194.765 454.16 192.166L458.001 183.666C460.663 186.257 463.771 188.345 467.176 189.83Z" fill="#E1D172"/>
<path d="M480.737 191.826L476.896 200.326C475.862 202.602 471.238 202.632 465.358 200.415L469.199 191.915C475.05 194.132 479.718 194.103 480.737 191.826Z" fill="#E1D172"/>
<path d="M451.929 191.723L455.844 183.297C455.859 183.447 455.906 183.593 455.982 183.723C456.059 183.853 456.163 183.965 456.288 184.051C459.399 186.958 462.993 189.299 466.91 190.969L463.069 199.468C459.148 197.799 455.548 195.458 452.432 192.55C452.121 192.255 451.944 192.018 452.003 191.797C452.062 191.575 451.929 191.737 451.929 191.723Z" fill="#E1D172"/>
<path d="M468.771 193.925L464.915 202.425L465.358 200.415L469.199 191.915L468.771 193.925Z" fill="#E1D172"/>
<path d="M468.742 193.984L464.9 202.484L468.756 193.984H468.742Z" fill="#E1D172"/>
<path d="M466.378 192.979L462.537 201.479L462.98 199.454L466.821 190.954L466.378 192.979Z" fill="#E1D172"/>
<path d="M468.742 193.984L464.9 202.484C464.767 202.765 464.206 202.809 463.586 202.573L467.441 194.073C468.047 194.31 468.623 194.265 468.742 193.984Z" fill="#E1D172"/>
<path d="M467.441 194.073L463.586 202.513C462.95 202.247 462.463 201.76 462.537 201.42L466.378 192.92C466.304 193.319 466.791 193.822 467.441 194.073Z" fill="#E1D172"/>
<path d="M505.084 199.867L501.243 208.367C497.919 215.758 485.923 218.98 465.787 211.782L463.689 210.998C439.121 201.552 429.489 185.75 433.684 176.453L437.525 167.968C433.33 177.251 442.962 193.097 467.53 202.513L469.643 203.282C489.823 210.481 501.76 207.229 505.084 199.867Z" fill="#E1D172"/>
<g opacity="0.1">
<path d="M505.084 199.867L501.243 208.367C497.919 215.758 485.923 218.98 465.787 211.782L463.689 210.998C439.121 201.552 429.489 185.75 433.684 176.453L437.525 167.968C433.33 177.251 442.962 193.097 467.53 202.513L469.643 203.282C489.823 210.481 501.76 207.229 505.084 199.867Z" fill="black"/>
</g>
<path d="M475.05 165.337C519.045 182.262 515.159 219.587 469.598 203.282L467.486 202.514C423.491 185.574 427.361 148.249 472.937 164.554L475.05 165.337ZM469.879 200.001C507.684 213.511 510.905 182.543 474.414 168.5L472.656 167.85C472.405 167.761 472.154 167.658 471.903 167.584L472.893 167.953C507.906 181.435 504.818 211.146 468.461 198.168L466.791 197.547C452.89 192.196 444.971 184.243 442.785 177.503C444.587 184.775 452.89 193.511 468.032 199.336L469.805 200.001M457.026 183.134C456.361 182.883 455.711 182.942 455.637 183.282C455.564 183.622 455.756 183.741 456.081 184.036C459.192 186.943 462.787 189.284 466.703 190.954L466.26 192.979C466.186 193.319 466.673 193.822 467.323 194.073C467.973 194.324 468.579 194.251 468.653 193.925L469.081 191.915C475.33 194.265 480.176 194.088 480.782 191.368C481.388 188.648 478.477 186.12 471.09 182.321L472.686 175.123C475.271 176.288 477.663 177.844 479.777 179.735C480.021 179.972 480.313 180.154 480.634 180.267C481.343 180.548 481.978 180.489 482.111 180.134C482.244 179.779 481.964 179.631 481.55 179.276C479.027 177.077 476.176 175.286 473.1 173.97L473.321 172.95C473.41 172.61 472.908 172.107 472.258 171.856C471.608 171.605 471.002 171.664 470.943 172.004L470.721 172.979C464.635 170.658 459.818 170.91 459.257 173.511C458.696 176.113 461.458 178.715 468.742 182.514L467.116 189.831C463.712 188.346 460.604 186.258 457.942 183.667C457.694 183.435 457.403 183.254 457.085 183.134" fill="#E1D172"/>
<path d="M478.344 190.466C477.901 192.417 474.341 192.639 469.362 190.732L470.913 183.622C477.221 186.918 478.728 188.692 478.344 190.466Z" fill="#E1D172"/>
<path d="M471.209 182.321C478.595 186.12 481.447 188.84 480.9 191.367C480.353 193.895 475.449 194.324 469.199 191.914L468.771 193.925C468.697 194.25 468.077 194.324 467.441 194.073C466.806 193.821 466.304 193.319 466.378 192.979L466.821 190.954C462.905 189.284 459.31 186.943 456.199 184.036C455.874 183.74 455.697 183.518 455.756 183.282C455.815 183.045 456.48 182.883 457.13 183.119C457.451 183.246 457.747 183.432 458.001 183.666C460.663 186.257 463.771 188.345 467.176 189.83L468.801 182.513C461.517 178.714 458.755 176.068 459.316 173.511C459.877 170.954 464.694 170.658 470.78 172.979L471.002 172.003C471.002 171.663 471.667 171.604 472.302 171.84C472.937 172.077 473.469 172.609 473.38 172.949L473.159 173.969C476.235 175.286 479.086 177.076 481.609 179.276C482.023 179.631 482.23 179.882 482.17 180.133C482.111 180.384 481.461 180.547 480.767 180.281C480.442 180.16 480.146 179.974 479.895 179.734C477.781 177.843 475.39 176.288 472.804 175.122L471.209 182.321ZM478.344 190.466C478.728 188.692 477.221 186.918 470.957 183.622L469.362 190.687C474.341 192.594 477.901 192.373 478.344 190.421M469.14 181.197L470.692 174.176C465.861 172.328 462.345 172.55 461.946 174.413C461.547 176.275 462.891 177.857 469.14 181.197Z" fill="#E1D172"/>
<g opacity="0.1">
<path d="M471.209 182.321C478.595 186.12 481.447 188.84 480.9 191.367C480.353 193.895 475.449 194.324 469.199 191.914L468.771 193.925C468.697 194.25 468.077 194.324 467.441 194.073C466.806 193.821 466.304 193.319 466.378 192.979L466.821 190.954C462.905 189.284 459.31 186.943 456.199 184.036C455.874 183.74 455.697 183.518 455.756 183.282C455.815 183.045 456.48 182.883 457.13 183.119C457.451 183.246 457.747 183.432 458.001 183.666C460.663 186.257 463.771 188.345 467.176 189.83L468.801 182.513C461.517 178.714 458.755 176.068 459.316 173.511C459.877 170.954 464.694 170.658 470.78 172.979L471.002 172.003C471.002 171.663 471.667 171.604 472.302 171.84C472.937 172.077 473.469 172.609 473.38 172.949L473.159 173.969C476.235 175.286 479.086 177.076 481.609 179.276C482.023 179.631 482.23 179.882 482.17 180.133C482.111 180.384 481.461 180.547 480.767 180.281C480.442 180.16 480.146 179.974 479.895 179.734C477.781 177.843 475.39 176.288 472.804 175.122L471.209 182.321ZM478.344 190.466C478.728 188.692 477.221 186.918 470.957 183.622L469.362 190.687C474.341 192.594 477.901 192.373 478.344 190.421M469.14 181.197L470.692 174.176C465.861 172.328 462.345 172.55 461.946 174.413C461.547 176.275 462.891 177.857 469.14 181.197Z" fill="black"/>
</g>
<path d="M474.459 168.515C510.949 182.558 507.728 213.526 469.923 200.016L468.151 199.35C453.008 193.526 444.705 184.79 442.903 177.517C445.089 184.287 453.008 192.211 466.91 197.562L468.579 198.183C504.862 211.161 507.95 181.449 472.937 167.968L471.947 167.599C472.211 167.647 472.465 167.737 472.701 167.865L474.459 168.515Z" fill="#E1D172"/>
<g opacity="0.1">
<path d="M474.459 168.515C510.949 182.558 507.728 213.526 469.923 200.016L468.151 199.35C453.008 193.526 444.705 184.79 442.903 177.517C445.089 184.287 453.008 192.211 466.91 197.562L468.579 198.183C504.862 211.161 507.95 181.449 472.937 167.968L471.947 167.599C472.211 167.647 472.465 167.737 472.701 167.865L474.459 168.515Z" fill="black"/>
</g>
</svg>
