<svg width="48" height="62" viewBox="0 0 48 62" fill="none" xmlns="http://www.w3.org/2000/svg">
<g clip-path="url(#clip0_1_135553)">
<path d="M24.3062 5.21752C24.2255 5.21761 24.1455 5.20178 24.071 5.17096C23.9964 5.14013 23.9286 5.09491 23.8715 5.03787C23.8144 4.98084 23.7691 4.91311 23.7382 4.83856C23.7073 4.76401 23.6914 4.6841 23.6914 4.6034V1.56886C23.6914 1.40582 23.7562 1.24945 23.8715 1.13416C23.9868 1.01887 24.1431 0.954102 24.3062 0.954102C24.4692 0.954102 24.6256 1.01887 24.7409 1.13416C24.8562 1.24945 24.9209 1.40582 24.9209 1.56886V4.6034C24.9209 4.6841 24.905 4.76401 24.8741 4.83856C24.8432 4.91311 24.7979 4.98084 24.7408 5.03787C24.6837 5.09491 24.616 5.14013 24.5414 5.17096C24.4668 5.20178 24.3869 5.21761 24.3062 5.21752Z" fill="white"/>
<path d="M38.4682 11.0841C38.3468 11.0839 38.2281 11.0478 38.1271 10.9802C38.0261 10.9127 37.9475 10.8167 37.901 10.7045C37.8545 10.5923 37.8424 10.4688 37.866 10.3496C37.8897 10.2305 37.9481 10.121 38.0339 10.035L40.1802 7.88938C40.2967 7.7802 40.4511 7.72062 40.6107 7.72323C40.7703 7.72584 40.9226 7.79044 41.0355 7.90336C41.1483 8.01629 41.2128 8.16868 41.2153 8.3283C41.2178 8.48793 41.1581 8.64226 41.0488 8.75865L38.9026 10.903C38.8456 10.9602 38.7779 11.0057 38.7034 11.0368C38.6289 11.0678 38.549 11.0839 38.4682 11.0841Z" fill="white"/>
<path d="M7.99754 41.5553C7.87607 41.5551 7.75736 41.519 7.6564 41.4514C7.55544 41.3839 7.47677 41.2879 7.4303 41.1757C7.38383 41.0634 7.37166 40.9399 7.39531 40.8208C7.41897 40.7016 7.4774 40.5922 7.56322 40.5062L9.70887 38.3606C9.82406 38.2454 9.98029 38.1807 10.1432 38.1807C10.3061 38.1807 10.4623 38.2454 10.5775 38.3606C10.6927 38.4758 10.7574 38.632 10.7574 38.7949C10.7574 38.9578 10.6927 39.114 10.5775 39.2292L8.43186 41.3755C8.37484 41.4325 8.30713 41.4778 8.23261 41.5086C8.15808 41.5395 8.0782 41.5553 7.99754 41.5553Z" fill="white"/>
<path d="M47.3701 25.247H44.3349C44.2526 25.2497 44.1705 25.2357 44.0937 25.206C44.0168 25.1764 43.9467 25.1315 43.8875 25.0742C43.8283 25.0169 43.7813 24.9482 43.7491 24.8724C43.717 24.7965 43.7004 24.715 43.7004 24.6326C43.7004 24.5502 43.717 24.4686 43.7491 24.3928C43.7813 24.3169 43.8283 24.2483 43.8875 24.191C43.9467 24.1336 44.0168 24.0888 44.0937 24.0591C44.1705 24.0294 44.2526 24.0155 44.3349 24.0181H47.3701C47.5296 24.0233 47.6809 24.0902 47.792 24.2049C47.903 24.3196 47.9651 24.4729 47.9651 24.6326C47.9651 24.7922 47.903 24.9456 47.792 25.0602C47.6809 25.1749 47.5296 25.2419 47.3701 25.247Z" fill="white"/>
<path d="M4.27679 25.247H1.24225C1.0827 25.2419 0.9314 25.1749 0.820351 25.0602C0.709302 24.9456 0.647217 24.7922 0.647217 24.6326C0.647217 24.4729 0.709302 24.3196 0.820351 24.2049C0.9314 24.0902 1.0827 24.0233 1.24225 24.0181H4.27679C4.35914 24.0155 4.44118 24.0294 4.51804 24.0591C4.59489 24.0888 4.665 24.1336 4.72419 24.191C4.78337 24.2483 4.83043 24.3169 4.86257 24.3928C4.89471 24.4686 4.91128 24.5502 4.91128 24.6326C4.91128 24.715 4.89471 24.7965 4.86257 24.8724C4.83043 24.9482 4.78337 25.0169 4.72419 25.0742C4.665 25.1315 4.59489 25.1764 4.51804 25.206C4.44118 25.2357 4.35914 25.2497 4.27679 25.247Z" fill="white"/>
<path d="M40.6122 41.5554C40.5315 41.5555 40.4516 41.5396 40.3771 41.5088C40.3026 41.4779 40.2349 41.4327 40.1779 41.3756L38.0316 39.2294C37.9164 39.1138 37.8518 38.9573 37.8521 38.7942C37.8523 38.631 37.9173 38.4747 38.0329 38.3595C38.1484 38.2443 38.3049 38.1797 38.4681 38.1799C38.6312 38.1802 38.7876 38.2452 38.9028 38.3607L41.0484 40.5064C41.1342 40.5923 41.1927 40.7018 41.2163 40.821C41.24 40.9401 41.2278 41.0636 41.1813 41.1758C41.1349 41.2881 41.0562 41.384 40.9552 41.4516C40.8543 41.5192 40.7356 41.5553 40.6141 41.5554H40.6122Z" fill="white"/>
<path d="M10.1432 11.0841C10.0626 11.0841 9.98271 11.0682 9.90819 11.0374C9.83367 11.0065 9.76596 10.9613 9.70892 10.9043L7.56328 8.75865C7.45401 8.64226 7.39431 8.48793 7.3968 8.3283C7.3993 8.16868 7.46379 8.01629 7.57663 7.90336C7.68947 7.79044 7.84182 7.72584 8.00144 7.72323C8.16107 7.72062 8.31544 7.7802 8.43191 7.88938L10.5776 10.035C10.6634 10.121 10.7218 10.2305 10.7455 10.3496C10.7691 10.4688 10.757 10.5923 10.7105 10.7045C10.664 10.8167 10.5853 10.9127 10.4844 10.9802C10.3834 11.0478 10.2647 11.0839 10.1432 11.0841Z" fill="white"/>
<path d="M32.0409 6.77191C31.9396 6.77184 31.8399 6.74676 31.7507 6.69889C31.6615 6.65103 31.5854 6.58186 31.5294 6.49754C31.4733 6.41322 31.4389 6.31636 31.4293 6.21555C31.4197 6.11475 31.4351 6.01313 31.4742 5.91973L32.6461 3.12071C32.711 2.97319 32.8312 2.85704 32.9809 2.79726C33.1305 2.73749 33.2977 2.73888 33.4463 2.80113C33.595 2.86338 33.7132 2.98151 33.7757 3.13009C33.8381 3.27867 33.8396 3.44582 33.78 3.59555L32.6081 6.39457C32.5613 6.50639 32.4825 6.60187 32.3815 6.66901C32.2806 6.73615 32.1621 6.77195 32.0409 6.77191Z" fill="white"/>
<path d="M42.8395 17.6527C42.6972 17.6525 42.5594 17.6029 42.4496 17.5125C42.3397 17.422 42.2647 17.2963 42.2372 17.1567C42.2097 17.0171 42.2315 16.8722 42.2988 16.7469C42.3662 16.6216 42.4749 16.5235 42.6065 16.4694L45.4144 15.319C45.5655 15.2572 45.735 15.258 45.8855 15.3211C46.0361 15.3843 46.1554 15.5047 46.2172 15.6558C46.279 15.8069 46.2782 15.9764 46.215 16.127C46.1519 16.2775 46.0315 16.3968 45.8804 16.4586L43.0725 17.609C42.9984 17.6388 42.9193 17.6536 42.8395 17.6527Z" fill="white"/>
<path d="M2.96486 33.9922C2.82253 33.9921 2.68462 33.9427 2.57467 33.8523C2.46473 33.7619 2.38955 33.6361 2.36199 33.4965C2.33442 33.3568 2.35615 33.212 2.4235 33.0866C2.49084 32.9612 2.59961 32.863 2.73125 32.8089L5.53723 31.6579C5.61206 31.6273 5.69218 31.6117 5.77302 31.6121C5.85386 31.6124 5.93384 31.6287 6.00838 31.66C6.08293 31.6913 6.15059 31.7369 6.20749 31.7944C6.2644 31.8518 6.30943 31.9198 6.34003 31.9947C6.37063 32.0695 6.38618 32.1496 6.38581 32.2305C6.38545 32.3113 6.36916 32.3913 6.33788 32.4658C6.3066 32.5404 6.26095 32.608 6.20353 32.6649C6.14611 32.7218 6.07803 32.7669 6.00321 32.7975L3.19469 33.9485C3.12158 33.9776 3.04356 33.9924 2.96486 33.9922Z" fill="white"/>
<path d="M45.5801 34.1542C45.4988 34.154 45.4183 34.1376 45.3433 34.106L42.5437 32.9354C42.3976 32.8697 42.2829 32.7495 42.2241 32.6005C42.1653 32.4515 42.1669 32.2854 42.2288 32.1376C42.2906 31.9898 42.4076 31.8719 42.555 31.8092C42.7024 31.7464 42.8685 31.7436 43.0179 31.8015L45.8175 32.9734C45.9487 33.0282 46.0568 33.1267 46.1235 33.2522C46.1902 33.3777 46.2113 33.5224 46.1834 33.6617C46.1554 33.8011 46.08 33.9264 45.97 34.0164C45.86 34.1064 45.7222 34.1555 45.5801 34.1554V34.1542Z" fill="white"/>
<path d="M5.83047 17.5121C5.74913 17.5119 5.66864 17.4956 5.59369 17.464L2.79466 16.2921C2.64856 16.2264 2.53389 16.1062 2.47507 15.9572C2.41624 15.8082 2.41792 15.6421 2.47973 15.4943C2.54154 15.3465 2.65861 15.2286 2.806 15.1659C2.9534 15.1031 3.11947 15.1003 3.26887 15.1582L6.06789 16.3301C6.19903 16.3848 6.30715 16.4834 6.37384 16.6089C6.44053 16.7343 6.46168 16.8791 6.4337 17.0184C6.40571 17.1577 6.33032 17.2831 6.22034 17.3731C6.11036 17.4631 5.97259 17.5122 5.83047 17.5121Z" fill="white"/>
<path d="M16.7118 6.71358C16.5898 6.71392 16.4705 6.67798 16.3691 6.61034C16.2676 6.5427 16.1886 6.4464 16.142 6.33371L14.9916 3.52583C14.961 3.45101 14.9454 3.37088 14.9458 3.29004C14.9462 3.2092 14.9625 3.12922 14.9937 3.05468C15.025 2.98013 15.0707 2.91248 15.1281 2.85557C15.1855 2.79867 15.2536 2.75363 15.3284 2.72304C15.4032 2.69244 15.4834 2.67688 15.5642 2.67725C15.645 2.67762 15.725 2.69391 15.7996 2.72518C15.8741 2.75646 15.9418 2.80211 15.9987 2.85954C16.0556 2.91696 16.1006 2.98503 16.1312 3.05986L17.2816 5.86774C17.32 5.96117 17.3348 6.06263 17.3246 6.16314C17.3145 6.26365 17.2797 6.3601 17.2233 6.44395C17.167 6.52779 17.0908 6.59644 17.0016 6.6438C16.9123 6.69117 16.8128 6.71579 16.7118 6.71548V6.71358Z" fill="white"/>
<path d="M29.6895 53.8714H19.3063C19.0251 53.8714 18.7553 53.7597 18.5565 53.5608C18.3576 53.3619 18.2458 53.0922 18.2458 52.811C18.2458 52.5297 18.3576 52.26 18.5565 52.0611C18.7553 51.8622 19.0251 51.7505 19.3063 51.7505H29.6895C29.9707 51.7505 30.2405 51.8622 30.4394 52.0611C30.6382 52.26 30.75 52.5297 30.75 52.811C30.75 53.0922 30.6382 53.3619 30.4394 53.5608C30.2405 53.7597 29.9707 53.8714 29.6895 53.8714Z" fill="white"/>
<path d="M29.6895 57.2022H19.3063C19.0251 57.2022 18.7553 57.0905 18.5565 56.8916C18.3576 56.6928 18.2458 56.423 18.2458 56.1418C18.2458 55.8605 18.3576 55.5908 18.5565 55.3919C18.7553 55.193 19.0251 55.0813 19.3063 55.0813H29.6895C29.9707 55.0813 30.2405 55.193 30.4394 55.3919C30.6382 55.5908 30.75 55.8605 30.75 56.1418C30.75 56.423 30.6382 56.6928 30.4394 56.8916C30.2405 57.0905 29.9707 57.2022 29.6895 57.2022Z" fill="white"/>
<path d="M21.9805 58.457C21.9201 58.457 21.8605 58.4703 21.8059 58.496C21.7512 58.5216 21.7029 58.5589 21.6643 58.6053C21.6257 58.6517 21.5977 58.7061 21.5825 58.7645C21.5672 58.8229 21.565 58.8839 21.5759 58.9433C21.7027 59.6179 22.0613 60.2271 22.5896 60.6653C23.1179 61.1036 23.7828 61.3435 24.4693 61.3435C25.1558 61.3435 25.8206 61.1036 26.349 60.6653C26.8773 60.2271 27.2359 59.6179 27.3626 58.9433C27.3735 58.8839 27.3712 58.8229 27.3559 58.7646C27.3405 58.7062 27.3126 58.6519 27.274 58.6056C27.2354 58.5592 27.1872 58.5219 27.1326 58.4962C27.078 58.4705 27.0184 58.4572 26.9581 58.457H21.9805Z" fill="white"/>
<path d="M28.5911 50.4141H20.2567C19.5569 50.4118 18.8836 50.1461 18.3707 49.6699C17.8578 49.1938 17.543 48.542 17.4887 47.8443C17.1355 43.1453 15.2184 40.1677 13.188 37.018C10.972 33.5801 8.68457 30.0258 8.68457 24.2777C8.68457 16.5157 14.2364 9.9838 21.8864 8.74606C23.6938 8.45644 25.5374 8.47785 27.3375 8.80937C34.7697 10.1991 40.1639 16.7037 40.1639 24.2758C40.1639 30.0239 37.8746 33.5782 35.6605 37.0161C33.6295 40.1684 31.7124 43.1459 31.3591 47.8424C31.3046 48.5402 30.9898 49.192 30.477 49.6684C29.9642 50.1448 29.2911 50.411 28.5911 50.4141ZM24.4214 10.591C23.682 10.5904 22.9437 10.649 22.2137 10.7663C15.5615 11.8426 10.7327 17.5242 10.7327 24.2758C10.7327 29.4212 12.7587 32.5697 14.9113 35.9068C16.9905 39.1357 19.1406 42.4742 19.5331 47.6917C19.5474 47.8746 19.6299 48.0455 19.7643 48.1704C19.8987 48.2953 20.0752 48.3651 20.2586 48.366H28.593C28.777 48.3672 28.9546 48.2981 29.0893 48.1727C29.2241 48.0474 29.3058 47.8753 29.318 47.6917C29.7105 42.4742 31.8606 39.1357 33.9397 35.9068C36.0885 32.5716 38.1183 29.4212 38.1183 24.2758C38.1183 17.6914 33.4269 12.0313 26.964 10.8233C26.1255 10.6676 25.2743 10.5896 24.4214 10.5903V10.591Z" fill="white"/>
<path d="M16.7972 34.1384C16.6356 34.1385 16.4763 34.1004 16.3322 34.0271C16.1882 33.9538 16.0635 33.8474 15.9685 33.7167C10.2824 25.9066 14.4737 18.5757 14.6554 18.2686C14.7949 18.0385 15.0194 17.8726 15.2802 17.8066C15.5411 17.7407 15.8175 17.78 16.0496 17.9162C16.2817 18.0523 16.4509 18.2743 16.5207 18.5342C16.5904 18.7941 16.5552 19.071 16.4224 19.305C16.2654 19.5754 12.7503 25.8179 17.6254 32.5125C17.7365 32.6653 17.8033 32.8458 17.8182 33.0341C17.8332 33.2224 17.7958 33.4112 17.7101 33.5796C17.6245 33.748 17.494 33.8894 17.333 33.9883C17.172 34.0871 16.9868 34.1395 16.7979 34.1396L16.7972 34.1384Z" fill="white"/>
</g>
<defs>
<clipPath id="clip0_1_135553">
<rect width="47.3567" height="60.39" fill="white" transform="translate(0.628174 0.954102)"/>
</clipPath>
</defs>
</svg>
