<svg width="76" height="74" viewBox="0 0 76 74" fill="none" xmlns="http://www.w3.org/2000/svg">
<g clip-path="url(#clip0_225_37060)">
<path d="M75.0261 35.8106C74.9829 34.4009 74.8547 32.9951 74.642 31.6009L67.3094 30.3858L64.8237 23.4484L69.71 17.8471C68.2325 15.392 66.4746 13.1169 64.4717 11.0677L57.8232 14.4018L51.728 10.2564L52.3862 2.84721C49.825 1.76547 47.1492 0.978344 44.4102 0.500977L40.9526 7.09883L33.5805 7.27172L29.7981 0.855381C27.0017 1.48983 24.2889 2.44839 21.7147 3.71161L22.8001 11.0751L16.942 15.5564L10.1144 12.61C8.22826 14.7655 6.60038 17.134 5.2639 19.6672L10.459 24.9771L8.3597 32.0418L1.10983 33.678C0.974264 35.1647 0.927667 36.6583 0.970295 38.1506C1.02164 39.5172 1.14322 40.8802 1.33458 42.2343L8.66965 43.4692L11.1332 50.4153L6.21351 56.0042C7.69285 58.4654 9.45005 60.7484 11.4506 62.8083L18.1114 59.4915L24.1955 63.6542L23.5053 71.0819C26.1428 72.2041 28.9013 73.0175 31.7257 73.5059L35.1599 66.8834L42.5307 66.6796L46.3292 73.0861C49.1233 72.4371 51.8332 71.4679 54.4052 70.1977L53.2938 62.838L59.1322 58.3307L65.9671 61.2598C67.8485 59.098 69.4713 56.7242 70.8029 54.1865L65.5782 48.8952L67.649 41.8157L74.91 40.1696C75.0331 38.7201 75.0719 37.2646 75.0261 35.8106ZM48.9533 49.4533C47.3153 50.8937 45.4094 51.9972 43.3447 52.7006C41.28 53.404 39.0968 53.6936 36.9201 53.5528C34.7434 53.4119 32.6158 52.8434 30.659 51.8798C28.7021 50.9162 26.9543 49.5764 25.5156 47.9369C19.4771 41.0303 20.1489 30.5538 27.0493 24.5165C28.6867 23.0783 30.5913 21.9767 32.6544 21.2745C34.7175 20.5723 36.8988 20.2834 39.0735 20.4242C41.2483 20.565 43.3741 21.1328 45.3294 22.0952C47.2848 23.0575 49.0314 24.3956 50.4697 26.0329C51.9079 27.6703 53.0095 29.5749 53.7117 31.6381C54.4139 33.7012 54.7028 35.8824 54.562 38.0572C54.4212 40.232 53.8534 42.3577 52.891 44.3131C51.9287 46.2684 50.5906 48.0151 48.9533 49.4533Z" fill="#063B5B"/>
<path d="M56.255 20.947C47.4023 10.8668 32.0283 9.86288 21.9469 18.7156C19.5494 20.8237 17.5908 23.3835 16.1828 26.2487C14.7748 29.1139 13.9451 32.2284 13.741 35.4143C13.5368 38.6003 13.9624 41.7952 14.9932 44.8167C16.024 47.8381 17.64 50.6269 19.7488 53.0237C28.6003 63.1014 43.9632 64.093 54.0384 55.2465C64.1136 46.3999 65.1114 31.0234 56.255 20.947ZM52.4652 53.451C43.3779 61.4356 29.5203 60.5415 21.5369 51.4505C19.6344 49.2891 18.1764 46.7741 17.246 44.0491C16.3157 41.3242 15.9313 38.4426 16.1147 35.569C16.2982 32.6955 17.046 29.8862 18.3153 27.3017C19.5847 24.7172 21.3508 22.408 23.5127 20.5061C32.6086 12.5203 46.4811 13.4255 54.462 22.519C62.4429 31.6125 61.5612 45.4651 52.4652 53.451Z" fill="#9532FF"/>
<path d="M23.9523 63.4941L24.1992 63.6596L23.6337 71.0132L23.5102 71.0762C26.1477 72.1984 28.9062 73.0118 31.7307 73.5002L31.664 73.3767L35.1599 66.8838L42.5307 66.6801L46.402 72.9593L46.3292 73.0828C49.1233 72.4338 51.8332 71.4646 54.4052 70.1945L54.2817 70.1414L53.2938 62.8347L59.1322 58.3275L65.9597 61.1318L65.9671 61.2553C67.8485 59.0935 69.4713 56.7197 70.8029 54.182L70.6794 54.2154L65.5819 48.8907L67.649 41.8161L74.8112 40.0787L74.9051 40.1701C75.028 38.7218 75.0668 37.2675 75.0211 35.8147C74.978 34.4051 74.8497 32.9993 74.6371 31.6051L74.5593 31.7113L72.502 31.3408C58.7346 51.1937 39.3349 59.8019 23.9523 63.4941Z" fill="#063B5B"/>
<path d="M54.0384 55.2413C57.3749 52.3198 59.8436 48.537 61.1747 44.3066C59.8262 45.5366 58.4571 46.699 57.0675 47.7939C55.1642 51.1518 52.407 53.947 49.0754 55.8961C45.7438 57.8452 41.9562 58.879 38.0964 58.8928C36.4342 59.5893 34.7878 60.2219 33.1569 60.7908C36.8297 61.5416 40.6265 61.4313 44.2494 60.4685C47.8724 59.5056 51.223 57.7165 54.0384 55.2413Z" fill="#7371F3"/>
<path d="M23.0582 9.46842L22.3519 3.50281C22.3519 3.50281 25.8799 1.64188 28.5743 1.19239C28.5756 1.18868 24.214 2.794 23.0582 9.46842Z" fill="#6E7E8D"/>
</g>
<defs>
<clipPath id="clip0_225_37060">
<rect width="74.0916" height="73" fill="white" transform="translate(0.954224 0.5)"/>
</clipPath>
</defs>
</svg>
