<svg width="84" height="74" viewBox="0 0 84 74" fill="none" xmlns="http://www.w3.org/2000/svg">
<g clip-path="url(#clip0_262_38736)">
<path d="M83.3692 20.1298L83.2161 19.9003L78.0271 14.4932C77.9533 14.3824 77.9063 14.2559 77.8897 14.1238C77.8731 13.9916 77.8875 13.8575 77.9316 13.7318C77.9757 13.6062 78.0485 13.4925 78.1441 13.3998C78.2396 13.3071 78.3555 13.2378 78.4824 13.1975C79.2977 12.9476 80.0435 12.511 80.6605 11.9223C82.8284 9.85766 82.9203 6.46294 80.8544 4.3983C78.8866 2.24058 75.4983 2.18574 73.3304 4.25548C72.7156 4.84618 72.2489 5.57367 71.9684 6.37877C71.9224 6.50355 71.848 6.61595 71.7512 6.70712C71.6544 6.79829 71.5377 6.86576 71.4104 6.9042C71.2831 6.94264 71.1486 6.95102 71.0175 6.92866C70.8864 6.90631 70.7623 6.85383 70.6549 6.77537L65.4838 1.3479L65.2593 1.18594C65.0979 1.03464 64.8842 0.951826 64.663 0.954918C64.4418 0.958009 64.2304 1.04677 64.0733 1.20252L58.0682 6.95518C57.881 6.97276 57.6936 6.92457 57.5381 6.81891C57.3826 6.71324 57.2688 6.5567 57.2163 6.37622C56.7062 4.61382 55.2397 3.09245 52.7529 2.61168C52.4941 2.56384 52.2287 2.56384 51.9699 2.61168C46.8778 3.50435 45.5669 8.7992 48.3036 11.666C48.8631 12.2544 49.5578 12.6974 50.3274 12.9565C50.5115 13.0229 50.665 13.1543 50.7589 13.326C50.8529 13.4977 50.8808 13.6979 50.8375 13.8887L44.8068 19.6758C44.7238 19.7524 44.6567 19.8446 44.6095 19.9472C44.5623 20.0498 44.5358 20.1607 44.5317 20.2736C44.5275 20.3864 44.5458 20.499 44.5853 20.6047C44.6249 20.7105 44.685 20.8074 44.7622 20.8899L50.2164 26.5762L50.3134 26.6515L50.3465 26.6859C50.8094 27.1705 51.6218 26.9142 51.7875 26.2485C52.2874 24.3267 53.8751 22.6115 56.5277 22.0899C57.0233 22.0536 57.5217 22.0866 58.0082 22.1881C59.0248 22.4189 59.9509 22.944 60.671 23.6979C61.391 24.4517 61.8731 25.4009 62.0572 26.427C62.1398 26.9167 62.1519 27.4157 62.0929 27.9089C61.4489 30.5346 59.6699 32.0445 57.7226 32.4551C57.0518 32.598 56.7585 33.3937 57.2214 33.8758L57.2546 33.9102L57.326 34.0122L62.7598 39.7151C62.8388 39.7958 62.9329 39.8601 63.0368 39.9044C63.1406 39.9487 63.2522 39.972 63.3651 39.9731C63.478 39.9741 63.59 39.9529 63.6947 39.9106C63.7993 39.8683 63.8947 39.8058 63.9751 39.7266L70.0262 33.9574C70.2193 33.9237 70.418 33.9614 70.5853 34.0635C70.7526 34.1656 70.8771 34.325 70.9355 34.5121C71.1607 35.2929 71.5725 36.0072 72.1355 36.5933C74.8824 39.4563 80.2244 38.3787 81.3504 33.3389C81.4077 33.0813 81.4167 32.8154 81.3772 32.5546C81.0087 30.05 79.5536 28.5146 77.8193 27.9267C77.6412 27.8666 77.4898 27.7462 77.3912 27.5861C77.2927 27.4261 77.2533 27.2367 77.2798 27.0506L83.2939 21.312C83.4554 21.162 83.5532 20.9558 83.5672 20.7359C83.5812 20.516 83.5103 20.299 83.3692 20.1298Z" fill="#B571FF"/>
<path d="M55.8122 72.9928H55.8569L55.9844 73.0106L63.8604 73.0451C63.9734 73.0439 64.0851 73.0205 64.1891 72.9761C64.2931 72.9318 64.3873 72.8674 64.4664 72.7866C64.5455 72.7059 64.608 72.6103 64.6501 72.5054C64.6923 72.4005 64.7134 72.2884 64.7122 72.1753L64.7454 63.8148C64.8546 63.6522 65.0193 63.5349 65.2087 63.4849C65.3981 63.4349 65.5993 63.4556 65.7745 63.5431C66.4932 63.9217 67.2933 64.1196 68.1057 64.1196C72.0717 64.1196 75.001 59.5287 72.1418 55.2196C71.9955 55.001 71.811 54.8105 71.5973 54.6572C69.534 53.1881 67.4221 53.1741 65.7949 54.0196C65.6276 54.1048 65.4358 54.1294 65.2524 54.0891C65.0689 54.0489 64.9051 53.9464 64.7887 53.7989L64.8219 45.4894C64.8259 45.2684 64.7442 45.0544 64.594 44.8923C64.4437 44.7302 64.2366 44.6325 64.0159 44.6197L63.743 44.5674H56.2497C56.1187 44.5438 55.995 44.49 55.8883 44.4105C55.7816 44.3309 55.6949 44.2276 55.6349 44.1088C55.575 43.99 55.5434 43.8589 55.5428 43.7258C55.5421 43.5927 55.5724 43.4613 55.6312 43.3419C56.0156 42.5819 56.2174 41.7426 56.2203 40.8908C56.2344 37.9004 53.8522 35.4774 50.9344 35.5348C48.0128 35.457 45.6217 37.8698 45.6179 40.8602C45.6165 41.7128 45.8157 42.5537 46.1994 43.3151C46.2572 43.4351 46.2863 43.5668 46.2846 43.7C46.283 43.8331 46.2504 43.9641 46.1897 44.0825C46.1289 44.201 46.0415 44.3038 45.9343 44.3828C45.8271 44.4619 45.7031 44.515 45.572 44.5381L38.076 44.5036L37.8057 44.5534C37.6504 44.5622 37.5005 44.6136 37.3725 44.702C37.2445 44.7905 37.1433 44.9124 37.0801 45.0545C37.1281 45.1884 37.1531 45.3294 37.154 45.4716L37.14 54.0515L36.6707 53.9584C36.5624 54.0092 36.4438 54.0345 36.3241 54.032C36.2045 54.0296 36.087 53.9996 35.9808 53.9443L35.8354 53.8806C35.5738 53.8823 35.3126 53.9019 35.0537 53.9392L34.9861 53.9482L34.9172 53.9367C34.6492 53.8782 34.3765 53.8441 34.1024 53.8347C31.6985 53.8347 29.7091 55.6952 29.4082 58.1068C29.3791 58.3181 29.3637 58.5311 29.3622 58.7444C29.3777 59.6997 29.6292 60.6363 30.0942 61.4709C30.2026 61.6736 30.3098 61.8777 30.4449 62.083C30.5621 62.2581 30.7103 62.4102 30.8823 62.5319C31.9854 63.3123 33.0694 63.6273 34.0781 63.6299C34.3438 63.6272 34.6089 63.605 34.8713 63.5636L34.9402 63.5495L35.0091 63.561C35.2271 63.598 35.398 63.6311 35.5561 63.6503C35.6913 63.5976 35.8237 63.538 35.9527 63.4717C36.0779 63.4083 36.218 63.3801 36.358 63.3902C36.4979 63.4003 36.6325 63.4483 36.7472 63.5291L37.1298 63.4539L37.1158 72.1626C37.114 72.2728 37.099 72.3824 37.0711 72.489C37.1367 72.6345 37.2425 72.7583 37.376 72.8457C37.5095 72.9332 37.6652 72.9806 37.8248 72.9826H45.7033L45.8232 72.966H45.8717C46.5424 72.966 46.9148 72.2085 46.5539 71.6231C45.5146 69.9334 45.3794 67.601 46.8421 65.326C47.1576 64.942 47.5265 64.6053 47.9376 64.3262C48.8086 63.752 49.8295 63.4471 50.8728 63.4496C51.916 63.4521 52.9354 63.7619 53.8037 64.3402C54.213 64.6227 54.5804 64.9614 54.8953 65.3464C56.3453 67.6278 56.1961 69.9602 55.1504 71.6461C54.7729 72.2302 55.1415 72.9928 55.8122 72.9928Z" fill="#7371F3"/>
<path d="M27.9314 43.4746L27.9136 43.5193L27.9059 43.5359L27.8613 43.7157C27.8648 43.8134 27.9001 43.9074 27.9617 43.9833C28.0234 44.0592 28.1081 44.113 28.2031 44.1365L35.6416 44.1237C35.7399 44.1287 35.8372 44.1463 35.9311 44.176C36.1838 44.1879 36.4268 44.2769 36.6274 44.4311L36.6758 44.1964L36.709 35.8359C36.8186 35.6737 36.9833 35.5568 37.1725 35.5068C37.3618 35.4569 37.5628 35.4773 37.7381 35.5643C38.4567 35.9433 39.2569 36.1412 40.0693 36.1407C44.0366 36.1407 46.9646 31.5498 44.1054 27.2407C43.9594 27.0218 43.7749 26.8313 43.5609 26.6783C41.4988 25.2079 39.3857 25.1952 37.7585 26.0407C37.5913 26.1264 37.3994 26.1512 37.2158 26.111C37.0323 26.0707 36.8684 25.9679 36.7523 25.8201L36.788 17.5118C36.7907 17.2907 36.7083 17.0771 36.5578 16.9152C36.4073 16.7533 36.2002 16.6555 35.9795 16.6421L35.7066 16.5898H28.2133C28.0822 16.5665 27.9584 16.5131 27.8515 16.4337C27.7447 16.3543 27.6578 16.2512 27.5977 16.1324C27.5376 16.0137 27.5059 15.8826 27.5052 15.7495C27.5044 15.6164 27.5347 15.4849 27.5935 15.3655C27.9818 14.6009 28.1845 13.7555 28.1852 12.8979C28.1992 9.90491 25.8171 7.48448 22.8967 7.54187C19.9777 7.46408 17.5853 9.87558 17.5815 12.866C17.58 13.719 17.7792 14.5604 18.163 15.3222C18.2211 15.4419 18.2505 15.5734 18.249 15.7064C18.2476 15.8394 18.2152 15.9703 18.1545 16.0886C18.0937 16.207 18.0063 16.3096 17.8991 16.3884C17.792 16.4672 17.6679 16.52 17.5368 16.5426L10.0409 16.5107L9.76929 16.5605C9.54806 16.5723 9.34001 16.6694 9.18879 16.8313C9.03758 16.9932 8.95494 17.2074 8.95823 17.4289V25.7372C8.84122 25.8842 8.67665 25.9859 8.49279 26.0248C8.30894 26.0636 8.11728 26.0372 7.95078 25.9501C6.32738 25.0983 4.21429 25.1008 2.14456 26.561C1.92976 26.7133 1.74403 26.9029 1.5962 27.1208C-1.28587 31.4146 1.6217 36.0246 5.58901 36.0399C6.40133 36.0446 7.20247 35.8506 7.92272 35.475C8.09762 35.39 8.2974 35.3714 8.48501 35.4225C8.67261 35.4736 8.83531 35.591 8.94292 35.753L8.93527 44.1136C8.93719 44.2147 8.95661 44.3148 8.99266 44.4094C9.19423 44.2614 9.43526 44.1766 9.68512 44.1658C9.77897 44.1361 9.87626 44.1185 9.9746 44.1136L17.4144 44.1263C17.509 44.1033 17.5935 44.0499 17.655 43.9744C17.7165 43.8989 17.7516 43.8053 17.7549 43.708L17.7103 43.5257L17.7026 43.5053L17.6924 43.4848L17.6822 43.4593C17.2905 42.6659 17.0842 41.7937 17.079 40.9088V40.8655C17.0876 40.3142 17.1735 39.7669 17.3341 39.2395C18.0176 36.8688 20.1396 35.1103 22.6901 35.1103H22.8253H22.9375C25.488 35.1103 27.6075 36.8688 28.2936 39.2395C28.4544 39.7678 28.5403 40.3159 28.5486 40.868V40.8795C28.5465 41.7807 28.3353 42.669 27.9314 43.4746Z" fill="#540494"/>
<path d="M30.5151 54.3129C31.5196 53.4074 32.8226 52.9038 34.175 52.8987C34.4829 52.9067 34.7893 52.9426 35.0907 53.0058C35.3714 52.9674 35.6542 52.9462 35.9375 52.942C36.0765 52.942 36.2155 52.942 36.3557 52.9624L36.3659 45.3964C36.3691 45.2909 36.333 45.1881 36.2647 45.1078C36.1963 45.0275 36.1006 44.9753 35.9961 44.9615H35.9681H35.9043L35.8418 44.9385L35.7143 44.9143L28.1826 44.9271L28.1457 44.9207C27.8679 44.8691 27.6147 44.7278 27.4251 44.5184C27.2355 44.3089 27.1199 44.043 27.0961 43.7615L27.0744 43.648C27.0761 43.4621 27.1197 43.279 27.202 43.1124L27.2198 43.069L27.2288 43.055C27.5759 42.3614 27.7567 41.5964 27.7567 40.8207V40.8093C27.7492 40.3383 27.6754 39.8708 27.5374 39.4205C26.952 37.3827 25.1501 35.9021 23.0089 35.9021H22.7615C21.7903 35.9042 20.8451 36.217 20.0644 36.7948C19.1805 37.4394 18.5366 38.3602 18.2344 39.4116C18.1602 39.6692 18.1039 39.9317 18.0661 40.1971C18.0335 40.3953 18.0156 40.5957 18.0125 40.7965V40.8105C18.0125 41.5857 18.1942 42.35 18.543 43.0422L18.5532 43.0614L18.5609 43.0818L18.5711 43.106C18.6514 43.2716 18.6949 43.4525 18.6986 43.6365L18.6795 43.7398C18.6576 44.0229 18.5428 44.2909 18.3531 44.5021C18.1633 44.7133 17.9091 44.856 17.6299 44.9079L17.5942 44.9143L10.0626 44.9016L10.0014 44.913L9.93506 44.9258L9.87385 44.9487H9.80754C9.69727 44.9569 9.59436 45.0071 9.52007 45.089C9.44578 45.1709 9.40579 45.2782 9.40838 45.3887L9.42241 53.8513L9.32421 53.9724C9.20679 54.1155 9.05933 54.2311 8.89228 54.3108C8.72524 54.3906 8.54269 54.4327 8.35758 54.4341C8.15887 54.434 7.96319 54.3854 7.78754 54.2925C7.12871 53.9514 6.39719 53.7747 5.65532 53.7773C4.63512 53.7773 3.5384 54.1063 2.42638 54.8957C2.25407 55.017 2.10576 55.1692 1.98897 55.3446C1.22382 56.4859 0.906281 57.6273 0.906281 58.6819C0.906281 61.3957 3.03595 63.5827 5.64256 63.5865H5.65021C6.3919 63.588 7.1228 63.409 7.77989 63.065C7.95044 62.9761 8.13976 62.9293 8.33207 62.9285C8.53256 62.9319 8.72942 62.9825 8.90668 63.0762C9.08394 63.17 9.2366 63.3042 9.35227 63.4679L9.43389 63.5827L9.44664 72.0797C9.44355 72.1935 9.48572 72.3039 9.5639 72.3866C9.64208 72.4693 9.74988 72.5176 9.86365 72.521L17.7103 72.5082L17.8378 72.4891H17.9156C17.9676 72.4906 18.0194 72.4809 18.0673 72.4606C18.1153 72.4404 18.1584 72.4101 18.1936 72.3718C18.2668 72.2857 18.3067 72.1762 18.3058 72.0632L18.2318 71.8017C17.6615 70.8778 17.3603 69.8129 17.3621 68.7271C17.3621 67.5411 17.7154 66.2735 18.5022 65.0442L18.5175 65.0212L18.5328 65.0034C18.8753 64.5881 19.2745 64.2232 19.7188 63.9194L19.729 63.913L19.7379 63.9054C20.6847 63.318 21.7702 62.9919 22.884 62.9604H22.8967C24.0086 62.9934 25.0919 63.3203 26.0364 63.9079H26.0466L26.0581 63.9168C26.5019 64.2207 26.9008 64.5856 27.2428 65.0008L27.2581 65.0212L27.2734 65.0416C28.0589 66.271 28.4135 67.5386 28.4109 68.7271C28.4138 69.8129 28.113 70.8779 27.5425 71.8017L27.4672 72.0568C27.4663 72.17 27.5066 72.2798 27.5807 72.3654C27.6161 72.4038 27.6594 72.4342 27.7076 72.4544C27.7558 72.4747 27.8078 72.4843 27.86 72.4827H27.9352H27.9646L28.0589 72.4967L35.9081 72.5095C36.0219 72.5062 36.1297 72.4578 36.2079 72.3751C36.286 72.2924 36.3282 72.182 36.3251 72.0682L36.3391 64.3951C36.1566 64.4202 35.9725 64.4334 35.7882 64.4346C35.5206 64.422 35.2547 64.3853 34.9938 64.3249C34.7162 64.3691 34.4357 64.3925 34.1546 64.3951C33.0069 64.3951 31.7865 64.0303 30.5954 63.2218L30.4602 63.1402C30.2039 62.9563 29.9827 62.7278 29.8073 62.4656C29.3857 61.8382 29.0623 61.1502 28.8483 60.4252C28.7871 60.2135 28.7412 60.0018 28.7017 59.7876C28.6257 59.4096 28.5856 59.0253 28.5818 58.6398C28.5818 57.8232 28.754 57.0158 29.0871 56.2703C29.4202 55.5247 29.9068 54.8577 30.5151 54.3129Z" fill="#F0F0F0"/>
</g>
<defs>
<clipPath id="clip0_262_38736">
<rect width="83.1464" height="72.09" fill="white" transform="translate(0.426788 0.955078)"/>
</clipPath>
</defs>
</svg>
