<svg width="80" height="74" viewBox="0 0 80 74" fill="none" xmlns="http://www.w3.org/2000/svg">
<g clip-path="url(#clip0_225_37070)">
<path d="M20.217 51.1367L20.2294 51.1242L20.353 51.2505L31.3667 40.4006C30.6198 39.4215 29.9563 38.3815 29.3833 37.2915L17.8102 48.6952L20.217 51.1367Z" fill="#9532FF"/>
<path d="M33.1864 49.8223L34.6965 51.3491L39.2227 46.8881C38.1094 46.3371 37.0443 45.6936 36.0387 44.9644L31.0031 49.925C31.7331 49.925 32.4604 49.9001 33.1864 49.8223Z" fill="#9532FF"/>
<path d="M43.9363 51.4255L39.2799 56.0142L41.811 58.5826L46.4674 53.9939L43.9363 51.4255Z" fill="#9532FF"/>
<path d="M49.0372 51.4601L51.4662 49.0672C49.8674 49.2324 48.2555 49.2254 46.6582 49.0464L49.0372 51.4601Z" fill="#9532FF"/>
<path d="M34.5911 65.698L39.245 61.1093L36.7119 58.5415L32.058 63.1274L34.5911 65.698Z" fill="#9532FF"/>
<path d="M27.472 58.4737L32.1259 53.8864L29.5956 51.3186L24.9403 55.9045L27.472 58.4737Z" fill="#9532FF"/>
<path d="M71.005 49.9972L65.5141 44.4258L60.8616 49.0062L66.2942 54.5192L66.3969 54.6372L66.5093 54.7413C67.1309 55.3228 67.9548 55.6389 68.8058 55.6226C69.6569 55.6063 70.468 55.2588 71.0669 54.654C71.6658 54.0491 72.0052 53.2346 72.0131 52.3834C72.021 51.5323 71.6967 50.7116 71.1091 50.0957L71.0619 50.0416L71.005 49.9972Z" fill="#9532FF"/>
<path d="M45.9379 67.9036L43.8323 65.7661L39.177 70.3465L41.0855 72.2897L41.2951 72.5229L41.5269 72.738C42.1707 73.2696 42.9933 73.5352 43.8265 73.4807C44.6596 73.4261 45.4405 73.0554 46.0095 72.4444C46.5786 71.8334 46.8928 71.0281 46.888 70.1932C46.8832 69.3582 46.5597 68.5566 45.9837 67.9522L45.9629 67.9258L45.9379 67.9036Z" fill="#9532FF"/>
<path d="M9.9972 40.7671C10.2915 41.1099 10.5913 41.4513 10.9147 41.7761C11.1534 42.019 11.4019 42.2411 11.6517 42.4701C11.7377 42.5492 11.821 42.6339 11.9085 42.7103L13.2229 44.0455L27.1028 30.3669L35.6584 21.9334L35.6667 21.9404L39.3491 18.3108L39.4879 18.172C39.5597 18.0788 39.6199 17.9772 39.6669 17.8694C39.7946 17.7778 39.9223 17.6876 40.0472 17.5918L40.2943 17.4974C40.3897 17.283 40.5361 17.0951 40.7207 16.9502C40.9053 16.8053 41.1225 16.7076 41.3535 16.6657C41.5844 16.6239 41.8221 16.6391 42.0458 16.71C42.2695 16.7809 42.4726 16.9054 42.6372 17.0727L42.6747 17.1115L53.036 27.7005L55.118 29.8255C55.3954 30.158 55.7379 30.4302 56.1244 30.6254C56.5108 30.8205 56.9332 30.9346 57.3654 30.9605C57.7976 30.9864 58.2305 30.9237 58.6375 30.7761C59.0446 30.6285 59.4171 30.3991 59.7322 30.1022C60.0473 29.8053 60.2984 29.4471 60.4699 29.0495C60.6415 28.652 60.7299 28.2235 60.7297 27.7906C60.7295 27.3576 60.6408 26.9292 60.4689 26.5318C60.297 26.1344 60.0457 25.7764 59.7303 25.4797L59.6581 25.4034L46.6776 12.1314L46.6429 12.0967C44.3117 9.73901 41.4844 7.93042 38.3665 6.80246C35.2487 5.67449 31.9186 5.2555 28.6185 5.57595C27.7908 5.65741 26.9683 5.78484 26.1548 5.95764C24.4894 5.89882 22.9101 5.2033 21.7424 4.01446L18.8429 1.07886L0.213257 19.4378L2.84211 22.1083L4.47994 23.7739C5.24243 24.8887 5.64011 26.2127 5.61809 27.5631L5.59866 27.8726C5.54742 29.0019 5.59712 30.1334 5.74718 31.2538C6.19433 34.5764 7.53786 37.7145 9.63355 40.3312L9.60163 40.3632L9.9972 40.7671Z" fill="#9532FF"/>
<path d="M51.0554 58.6526L46.4015 63.233L51.9132 68.8307L52.0201 68.9459L52.1367 69.0528C52.763 69.633 53.5916 69.9447 54.445 69.9213C55.2985 69.8978 56.1087 69.5409 56.7021 68.9271C57.2956 68.3134 57.625 67.4916 57.6197 66.6378C57.6144 65.7841 57.275 64.9664 56.674 64.36L56.5588 64.2545L56.5713 64.2448L51.0554 58.6526Z" fill="#9532FF"/>
<path d="M56.5588 64.2574L56.5574 64.2546L56.5588 64.2574Z" fill="#9532FF"/>
<path d="M65.3212 58.6761L58.2813 51.5308L53.6232 56.1111L60.6894 63.2815L60.7658 63.3689C61.3756 63.9877 62.2062 64.339 63.0749 64.3453C63.9437 64.3517 64.7794 64.0127 65.3982 63.4029C66.017 62.7932 66.3682 61.9625 66.3746 61.0938C66.381 60.225 66.042 59.3893 65.4322 58.7705L65.3212 58.6761Z" fill="#9532FF"/>
<path d="M77.1149 21.764L79.7868 19.1269L61.4251 0.49585L58.4839 3.39536C57.2972 4.56435 55.7078 5.23438 54.0424 5.26776C53.2316 5.08241 52.4109 4.94338 51.5842 4.85137C47.2916 4.37081 42.9517 5.14764 39.0923 7.08742C41.9241 8.21942 44.4914 9.92436 46.6333 12.0953L46.668 12.13L59.6485 25.402L59.7206 25.4783C60.024 25.7777 60.264 26.1351 60.4263 26.5293C60.5886 26.9234 60.6699 27.3462 60.6652 27.7724C60.6606 28.1986 60.5701 28.6196 60.3993 29.0101C60.2285 29.4006 59.9807 29.7527 59.6709 30.0454C59.361 30.3381 58.9954 30.5654 58.5958 30.7137C58.1962 30.8621 57.7708 30.9284 57.345 30.9088C56.9192 30.8892 56.5017 30.784 56.1174 30.5996C55.7332 30.4151 55.39 30.1552 55.1083 29.8352L53.0263 27.7102L42.6705 17.1157L42.6331 17.0768C42.4682 16.9099 42.2651 16.7858 42.0414 16.7153C41.8177 16.6447 41.5801 16.6299 41.3494 16.672C41.1186 16.7141 40.9016 16.812 40.7173 16.957C40.5329 17.1021 40.3868 17.2899 40.2915 17.5043L40.0445 17.5987C39.9196 17.6903 39.7919 17.7805 39.6642 17.8763C39.6171 17.9841 39.557 18.0857 39.4851 18.1789L39.3463 18.3177L35.664 21.9472L35.6556 21.9403L27.1001 30.3737L13.2201 44.0524L8.54956 48.6453L8.49404 48.6952L8.44407 48.748C7.8285 49.3507 7.47565 50.172 7.46219 51.0334C7.44873 51.8948 7.77575 52.7268 8.37219 53.3484C8.96863 53.9701 9.78631 54.3313 10.6475 54.3535C11.5088 54.3758 12.344 54.0572 12.9717 53.4671L13.0869 53.3617L13.1952 53.2464L17.8102 48.6994L29.3833 37.2957C29.9563 38.3857 30.6198 39.4257 31.3667 40.4048L20.353 51.2547L14.1071 57.4118L13.9933 57.5117C13.6786 57.8118 13.4269 58.1714 13.2527 58.5697C13.0785 58.968 12.9853 59.397 12.9786 59.8317C12.9718 60.2663 13.0517 60.698 13.2135 61.1015C13.3753 61.505 13.6158 61.8723 13.921 62.1819C14.2262 62.4915 14.5899 62.7372 14.9911 62.9048C15.3922 63.0724 15.8227 63.1585 16.2574 63.158C16.6921 63.1575 17.1224 63.0705 17.5232 62.9021C17.9239 62.7336 18.2872 62.4871 18.5917 62.1768L18.6694 62.0893L24.9403 55.9045L29.5957 51.3241L31.0031 49.9361L36.0387 44.9754C37.0444 45.7046 38.1095 46.3481 39.2228 46.8992L34.6965 51.3602L32.126 53.8905L27.472 58.4778L22.7723 63.1067L22.7848 63.1178L22.6668 63.2261C22.0549 63.8233 21.7016 64.6367 21.683 65.4915C21.6644 66.3464 21.982 67.1744 22.5674 67.7976C23.1528 68.4208 23.9593 68.7895 24.8136 68.8244C25.668 68.8593 26.5019 68.5576 27.1362 67.9841L27.2514 67.88L27.3582 67.7635L32.058 63.1317L36.7119 58.5514L39.2811 56.0155L43.9378 51.4268L46.3695 49.0339C46.4653 49.045 46.5625 49.0339 46.6582 49.0506C48.2555 49.2296 49.8675 49.2366 51.4662 49.0714L49.0373 51.4643L46.4695 53.996L41.8128 58.5847L39.2464 61.1094L34.5869 65.6981L33.3446 66.9182L33.321 66.9404L33.2974 66.9654C32.6932 67.5572 32.3413 68.3598 32.3154 69.2052C32.2895 70.0506 32.5917 70.8733 33.1586 71.501C33.7255 72.1287 34.5132 72.5128 35.3569 72.5729C36.2005 72.633 37.0348 72.3644 37.6849 71.8233L37.9208 71.6137L38.1332 71.3819L39.1728 70.3576L43.8281 65.7772L46.4015 63.233L51.0554 58.6527L53.6232 56.1238L58.2813 51.5434L59.3015 50.5329L59.3153 50.5468L60.8616 49.02L65.5141 44.4396L67.746 42.2425C68.0916 41.9496 68.4275 41.6456 68.7578 41.325C69.0882 41.0044 69.3894 40.6699 69.6878 40.3284L70.0917 39.9148L70.0612 39.8829C72.1928 37.295 73.5812 34.1766 74.078 30.8609C74.2442 29.7425 74.3101 28.6114 74.2751 27.4812L74.2612 27.1716C74.2562 25.8202 74.673 24.501 75.4535 23.3977L77.1149 21.764Z" fill="#F0F0F0"/>
</g>
<defs>
<clipPath id="clip0_225_37070">
<rect width="79.5735" height="73" fill="white" transform="translate(0.213257 0.5)"/>
</clipPath>
</defs>
</svg>
