<svg width="52" height="74" viewBox="0 0 52 74" fill="none" xmlns="http://www.w3.org/2000/svg">
<g clip-path="url(#clip0_225_37048)">
<rect width="51.523" height="73" transform="translate(0.238525 0.5)" fill="white"/>
<path d="M12.8654 8.88232V3.91797H3.94075C3.45417 3.91783 2.97233 4.01367 2.52277 4.2C2.07322 4.38633 1.66476 4.6595 1.32074 5.0039C0.976725 5.3483 0.703896 5.75718 0.517847 6.20716C0.331798 6.65714 0.236177 7.13941 0.236451 7.62639V69.7917C0.236451 70.775 0.626691 71.7181 1.32135 72.4136C2.01601 73.109 2.95821 73.4998 3.94075 73.5001H48.0593C49.0416 73.499 49.9833 73.1079 50.6778 72.4126C51.3723 71.7174 51.7628 70.7748 51.7636 69.7917V7.62639C51.7631 6.64321 51.3727 5.70043 50.6781 5.00512C49.9836 4.3098 49.0417 3.9188 48.0593 3.91797H39.6633V8.88232H48.0593V67.8672H3.94075V8.88232H12.8654Z" fill="#063B5B"/>
<path d="M37.3908 3.91797H15.1379V8.88024H37.3908V3.91797Z" fill="#063B5B"/>
<path d="M3.9408 8.88184V67.8667H48.0594V8.88184H39.6633V12.4132C39.6633 12.5625 39.6339 12.7103 39.5768 12.8483C39.5197 12.9862 39.436 13.1115 39.3305 13.217C39.2249 13.3225 39.0997 13.4062 38.9618 13.4632C38.824 13.5202 38.6762 13.5495 38.5271 13.5494H14.0017C13.8525 13.5495 13.7048 13.5202 13.567 13.4632C13.4291 13.4062 13.3038 13.3225 13.1983 13.217C13.0928 13.1115 13.0091 12.9862 12.952 12.8483C12.8948 12.7103 12.8654 12.5625 12.8654 12.4132V8.88184H3.9408ZM44.3499 56.9143H7.64822V52.9695H44.3499V56.9143ZM44.3499 47.9853H7.64822V44.0405H44.3499V47.9853ZM44.3499 39.0564H7.64822V35.1116H44.3499V39.0564ZM44.3499 30.1274H7.64822V26.1805H44.3499V30.1274ZM44.3499 17.2516V21.1974H7.64822V17.2516H44.3499Z" fill="white"/>
<path d="M37.3908 8.87988H15.1379V11.2741H37.3908V8.87988Z" fill="white"/>
<path d="M14.0016 0.500004C13.8524 0.499593 13.7045 0.528693 13.5665 0.585632C13.4286 0.642571 13.3032 0.726228 13.1976 0.831799C13.092 0.937371 13.0083 1.06278 12.9513 1.20081C12.8943 1.33885 12.8651 1.4868 12.8654 1.63617V12.4115C12.8654 12.5608 12.8948 12.7086 12.9519 12.8466C13.009 12.9845 13.0927 13.1098 13.1982 13.2153C13.3038 13.3208 13.429 13.4045 13.5669 13.4615C13.7047 13.5185 13.8525 13.5478 14.0016 13.5477H38.527C38.6762 13.5478 38.8239 13.5185 38.9617 13.4615C39.0996 13.4045 39.2249 13.3208 39.3304 13.2153C39.4359 13.1098 39.5196 12.9845 39.5767 12.8466C39.6339 12.7086 39.6632 12.5608 39.6632 12.4115V1.63617C39.6635 1.4868 39.6343 1.33885 39.5773 1.20081C39.5203 1.06278 39.4366 0.937371 39.331 0.831799C39.2254 0.726228 39.1 0.642571 38.9621 0.585632C38.8241 0.528693 38.6762 0.499593 38.527 0.500004H14.0016ZM37.3907 3.91788V11.2774H15.1379V2.77338H37.3907V3.91788Z" fill="#9532FF"/>
<path d="M44.3499 17.252H7.64819V21.1978H44.3499V17.252Z" fill="#540494"/>
<path d="M44.3499 26.1816H7.64819V30.1285H44.3499V26.1816Z" fill="#540494"/>
<path d="M44.3499 35.1123H7.64819V39.0571H44.3499V35.1123Z" fill="#540494"/>
<path d="M44.3499 44.041H7.64819V47.9858H44.3499V44.041Z" fill="#540494"/>
<path d="M44.3499 52.9697H7.64819V56.9156H44.3499V52.9697Z" fill="#540494"/>
</g>
<defs>
<clipPath id="clip0_225_37048">
<rect width="51.523" height="73" fill="white" transform="translate(0.238525 0.5)"/>
</clipPath>
</defs>
</svg>
