<svg width="74" height="74" viewBox="0 0 74 74" fill="none" xmlns="http://www.w3.org/2000/svg">
<g clip-path="url(#clip0_225_37066)">
<path d="M0.689922 0.5V71.5136C0.689035 71.7749 0.739884 72.0338 0.839537 72.2753C0.939191 72.5169 1.08568 72.7363 1.27055 72.921C1.45542 73.1056 1.67502 73.2519 1.91669 73.3512C2.15835 73.4506 2.4173 73.5012 2.6786 73.5H72.1549V69.5271H4.66392V0.5H0.689922Z" fill="#063B5B"/>
<path d="M70.317 25.6218C70.7098 25.6224 71.0988 25.5456 71.4618 25.3957C71.8248 25.2459 72.1548 25.0259 72.4328 24.7485C72.7107 24.471 72.9313 24.1415 73.0818 23.7787C73.2324 23.416 73.3099 23.0271 73.3101 22.6344V10.3146C73.3099 9.92216 73.2325 9.53356 73.0822 9.17103C72.9318 8.80849 72.7116 8.47911 72.4339 8.2017C72.1563 7.92429 71.8268 7.70427 71.4641 7.55421C71.1015 7.40416 70.7128 7.327 70.3204 7.32715H58.8978C58.5053 7.32715 58.1167 7.40445 57.7541 7.55464C57.3915 7.70483 57.062 7.92497 56.7845 8.20249C56.507 8.48001 56.2868 8.80947 56.1367 9.17206C55.9865 9.53465 55.9092 9.92328 55.9092 10.3157C55.9092 10.7082 55.9865 11.0968 56.1367 11.4594C56.2868 11.822 56.507 12.1515 56.7845 12.429C57.062 12.7065 57.3915 12.9267 57.7541 13.0769C58.1167 13.227 58.5053 13.3043 58.8978 13.3043H62.8438L41.7549 38.203L41.6432 30.7175C41.6343 30.1091 41.4399 29.5178 41.086 29.0228C40.7321 28.5278 40.2356 28.1525 39.6627 27.9472C39.0899 27.7418 38.4681 27.7161 37.8803 27.8736C37.2925 28.031 36.7667 28.3641 36.3732 28.8283L8.75746 61.4403C8.48786 61.7372 8.28077 62.0854 8.14854 62.464C8.01632 62.8427 7.96165 63.2441 7.98781 63.6443C8.01396 64.0445 8.12041 64.4353 8.30079 64.7935C8.48118 65.1517 8.73182 65.47 9.03778 65.7293C9.34374 65.9886 9.69876 66.1837 10.0817 66.3029C10.4646 66.4221 10.8676 66.463 11.2667 66.4232C11.6658 66.3834 12.0528 66.2636 12.4046 66.0711C12.7565 65.8786 13.066 65.6172 13.3147 65.3026L35.7822 38.7784L35.8939 46.2638C35.9028 46.8722 36.0971 47.4634 36.4509 47.9584C36.8047 48.4534 37.3012 48.8286 37.874 49.0339C38.4468 49.2391 39.0686 49.2647 39.6563 49.1071C40.244 48.9495 40.7696 48.6163 41.1628 48.152L67.3295 17.2549V22.6344C67.3298 23.4266 67.6447 24.1863 68.2049 24.7465C68.7651 25.3067 69.5248 25.6215 70.317 25.6218Z" fill="#540494"/>
</g>
<defs>
<clipPath id="clip0_225_37066">
<rect width="72.6134" height="73" fill="white" transform="translate(0.693268 0.5)"/>
</clipPath>
</defs>
</svg>
