<svg width="73" height="73" viewBox="0 0 73 73" fill="none" xmlns="http://www.w3.org/2000/svg">
<path opacity="0.1" fill-rule="evenodd" clip-rule="evenodd" d="M36.0697 10.4612C21.7389 10.4612 10.1214 22.0787 10.1214 36.4097C10.1214 50.7406 21.7389 62.3581 36.0697 62.3581C50.4006 62.3581 62.0181 50.7406 62.0181 36.4097C62.0181 22.0787 50.4006 10.4612 36.0697 10.4612ZM7.56885 36.4097C7.56885 20.669 20.3291 7.90869 36.0697 7.90869C51.8103 7.90869 64.5706 20.669 64.5706 36.4097C64.5706 52.1503 51.8103 64.9107 36.0697 64.9107C20.3291 64.9107 7.56885 52.1503 7.56885 36.4097Z" fill="white"/>
<path fill-rule="evenodd" clip-rule="evenodd" d="M36.0696 2.79884C17.5058 2.79884 2.45679 17.8479 2.45679 36.4118C2.45679 54.9757 17.5058 70.0248 36.0696 70.0248C54.6335 70.0248 69.6825 54.9757 69.6825 36.4118C69.6825 17.8479 54.6335 2.79884 36.0696 2.79884ZM1.60596 36.4118C1.60596 17.378 17.0359 1.948 36.0696 1.948C55.1034 1.948 70.5333 17.378 70.5333 36.4118C70.5333 55.4457 55.1034 70.8756 36.0696 70.8756C17.0359 70.8756 1.60596 55.4457 1.60596 36.4118Z" fill="white" stroke="white" stroke-width="1.00219" stroke-miterlimit="10" stroke-linecap="round" stroke-linejoin="round"/>
<path fill-rule="evenodd" clip-rule="evenodd" d="M25.8644 41.0876C26.0993 41.0876 26.2898 41.2781 26.2898 41.5131C26.2898 46.9212 30.6618 51.2932 36.0699 51.2932C41.4779 51.2932 45.8499 46.9212 45.8499 41.5131C45.8499 41.2781 46.0404 41.0876 46.2753 41.0876C46.5103 41.0876 46.7008 41.2781 46.7008 41.5131C46.7008 47.3911 41.9478 52.144 36.0699 52.144C30.1919 52.144 25.439 47.3911 25.439 41.5131C25.439 41.2781 25.6294 41.0876 25.8644 41.0876Z" fill="white"/>
<path fill-rule="evenodd" clip-rule="evenodd" d="M46.2452 29.9934C44.6216 29.9934 43.2788 31.3313 43.2788 32.9899C43.2788 33.2248 43.0883 33.4153 42.8534 33.4153C42.6184 33.4153 42.428 33.2248 42.428 32.9899C42.428 30.8663 44.1468 29.1426 46.2452 29.1426C48.3761 29.1426 50.0625 30.8688 50.0625 32.9899C50.0625 33.2248 49.872 33.4153 49.637 33.4153C49.4021 33.4153 49.2116 33.2248 49.2116 32.9899C49.2116 31.3289 47.8964 29.9934 46.2452 29.9934Z" fill="white"/>
<path fill-rule="evenodd" clip-rule="evenodd" d="M25.8341 29.9934C24.2105 29.9934 22.8677 31.3313 22.8677 32.9899C22.8677 33.2248 22.6772 33.4153 22.4423 33.4153C22.2073 33.4153 22.0168 33.2248 22.0168 32.9899C22.0168 30.8663 23.7357 29.1426 25.8341 29.1426C27.9649 29.1426 29.6513 30.8688 29.6513 32.9899C29.6513 33.2248 29.4609 33.4153 29.2259 33.4153C28.991 33.4153 28.8005 33.2248 28.8005 32.9899C28.8005 31.3289 27.4853 29.9934 25.8341 29.9934Z" fill="white"/>
<path opacity="0.4" fill-rule="evenodd" clip-rule="evenodd" d="M18.3036 18.6767C8.50861 28.4717 8.50861 44.3842 18.3036 54.1793C28.0986 63.9743 44.0111 63.9743 53.8061 54.1793C63.6011 44.3842 63.6011 28.4717 53.8061 18.6767L56.8143 15.6685C68.2707 27.1249 68.2707 45.7311 56.8143 57.1875C45.3579 68.6439 26.7518 68.6439 15.2954 57.1875C3.83903 45.7311 3.83903 27.1249 15.2954 15.6685L18.3036 18.6767Z" fill="white"/>
</svg>
