<svg width="75" height="69" viewBox="0 0 75 69" fill="none" xmlns="http://www.w3.org/2000/svg">
<path opacity="0.1" fill-rule="evenodd" clip-rule="evenodd" d="M37.5599 31.1632C35.4172 31.1632 33.6803 32.7812 33.6803 34.7771C33.6803 36.773 35.4172 38.391 37.5599 38.391C39.7025 38.391 41.4395 36.773 41.4395 34.7771C41.4395 32.7812 39.7025 31.1632 37.5599 31.1632ZM31.0923 34.7771C31.0923 31.4498 33.9879 28.7524 37.5599 28.7524C41.1319 28.7524 44.0275 31.4498 44.0275 34.7771C44.0275 38.1044 41.1319 40.8017 37.5599 40.8017C33.9879 40.8017 31.0923 38.1044 31.0923 34.7771Z" fill="white"/>
<path fill-rule="evenodd" clip-rule="evenodd" d="M16.8654 12.7001C15.2043 12.7001 13.8578 13.9544 13.8578 15.5017C13.8578 17.049 15.2043 18.3033 16.8654 18.3033C18.5264 18.3033 19.873 17.049 19.873 15.5017C19.873 13.9544 18.5264 12.7001 16.8654 12.7001ZM12.9951 15.5017C12.9951 13.5106 14.7279 11.8965 16.8654 11.8965C19.0029 11.8965 20.7356 13.5106 20.7356 15.5017C20.7356 17.4928 19.0029 19.1069 16.8654 19.1069C14.7279 19.1069 12.9951 17.4928 12.9951 15.5017Z" fill="white" stroke="white" stroke-width="1.00219" stroke-miterlimit="10" stroke-linecap="round" stroke-linejoin="round"/>
<path fill-rule="evenodd" clip-rule="evenodd" d="M58.2848 51.2828C56.6238 51.2828 55.2772 52.5372 55.2772 54.0844C55.2772 55.6317 56.6238 56.8861 58.2848 56.8861C59.9459 56.8861 61.2924 55.6317 61.2924 54.0844C61.2924 52.5372 59.9459 51.2828 58.2848 51.2828ZM54.4146 54.0844C54.4146 52.0934 56.1473 50.4792 58.2848 50.4792C60.4223 50.4792 62.1551 52.0934 62.1551 54.0844C62.1551 56.0755 60.4223 57.6896 58.2848 57.6896C56.1473 57.6896 54.4146 56.0755 54.4146 54.0844Z" fill="white" stroke="white" stroke-width="1.00219" stroke-miterlimit="10" stroke-linecap="round" stroke-linejoin="round"/>
<path fill-rule="evenodd" clip-rule="evenodd" d="M37.56 27.1581C33.0416 27.1581 29.3788 30.5701 29.3788 34.779C29.3788 38.9879 33.0416 42.3999 37.56 42.3999C42.0783 42.3999 45.7412 38.9879 45.7412 34.779C45.7412 30.5701 42.0783 27.1581 37.56 27.1581ZM28.5161 34.779C28.5161 30.1263 32.5652 26.3545 37.56 26.3545C42.5548 26.3545 46.6038 30.1263 46.6038 34.779C46.6038 39.4317 42.5548 43.2034 37.56 43.2034C32.5652 43.2034 28.5161 39.4317 28.5161 34.779Z" fill="white" stroke="white" stroke-width="1.00219" stroke-miterlimit="10" stroke-linecap="round" stroke-linejoin="round"/>
<path fill-rule="evenodd" clip-rule="evenodd" d="M43.4025 40.2207C43.5709 40.0638 43.844 40.0638 44.0124 40.2207L53.4162 48.9805C53.5847 49.1374 53.5847 49.3918 53.4162 49.5487C53.2478 49.7056 52.9747 49.7056 52.8063 49.5487L43.4025 40.7889C43.234 40.632 43.234 40.3776 43.4025 40.2207Z" fill="white" stroke="white" stroke-width="1.00219" stroke-miterlimit="10" stroke-linecap="round" stroke-linejoin="round"/>
<path fill-rule="evenodd" clip-rule="evenodd" d="M21.7343 20.034C21.903 19.8773 22.1761 19.8777 22.3442 20.0349L31.7176 28.7947C31.8857 28.9518 31.8853 29.2062 31.7166 29.3629C31.5479 29.5195 31.2748 29.5191 31.1066 29.362L21.7333 20.6022C21.5651 20.445 21.5655 20.1906 21.7343 20.034Z" fill="white" stroke="white" stroke-width="1.00219" stroke-miterlimit="10" stroke-linecap="round" stroke-linejoin="round"/>
<path fill-rule="evenodd" clip-rule="evenodd" d="M16.8654 51.2828C15.2043 51.2828 13.8578 52.5372 13.8578 54.0844C13.8578 55.6317 15.2043 56.8861 16.8654 56.8861C18.5264 56.8861 19.873 55.6317 19.873 54.0844C19.873 52.5372 18.5264 51.2828 16.8654 51.2828ZM12.9951 54.0844C12.9951 52.0934 14.7279 50.4792 16.8654 50.4792C19.0029 50.4792 20.7356 52.0934 20.7356 54.0844C20.7356 56.0755 19.0029 57.6896 16.8654 57.6896C14.7279 57.6896 12.9951 56.0755 12.9951 54.0844Z" fill="white" stroke="white" stroke-width="1.00219" stroke-miterlimit="10" stroke-linecap="round" stroke-linejoin="round"/>
<path fill-rule="evenodd" clip-rule="evenodd" d="M58.2848 12.7001C56.6238 12.7001 55.2772 13.9544 55.2772 15.5017C55.2772 17.049 56.6238 18.3033 58.2848 18.3033C59.9459 18.3033 61.2924 17.049 61.2924 15.5017C61.2924 13.9544 59.9459 12.7001 58.2848 12.7001ZM54.4146 15.5017C54.4146 13.5106 56.1473 11.8965 58.2848 11.8965C60.4223 11.8965 62.1551 13.5106 62.1551 15.5017C62.1551 17.4928 60.4223 19.1069 58.2848 19.1069C56.1473 19.1069 54.4146 17.4928 54.4146 15.5017Z" fill="white" stroke="white" stroke-width="1.00219" stroke-miterlimit="10" stroke-linecap="round" stroke-linejoin="round"/>
<path fill-rule="evenodd" clip-rule="evenodd" d="M53.4162 20.0344C53.5847 20.1913 53.5847 20.4457 53.4162 20.6026L44.0124 29.3624C43.844 29.5193 43.5709 29.5193 43.4025 29.3624C43.234 29.2055 43.234 28.9511 43.4025 28.7942L52.8063 20.0344C52.9747 19.8775 53.2478 19.8775 53.4162 20.0344Z" fill="white" stroke="white" stroke-width="1.00219" stroke-miterlimit="10" stroke-linecap="round" stroke-linejoin="round"/>
<path fill-rule="evenodd" clip-rule="evenodd" d="M31.7166 40.2202C31.8853 40.3769 31.8857 40.6313 31.7176 40.7885L22.3442 49.5482C22.1761 49.7054 21.903 49.7058 21.7343 49.5492C21.5655 49.3925 21.5651 49.1381 21.7333 48.9809L31.1066 40.2212C31.2748 40.064 31.5479 40.0636 31.7166 40.2202Z" fill="white" stroke="white" stroke-width="1.00219" stroke-miterlimit="10" stroke-linecap="round" stroke-linejoin="round"/>
<path opacity="0.4" fill-rule="evenodd" clip-rule="evenodd" d="M37.5597 11.1029C36.8515 11.1029 36.2774 11.6376 36.2774 12.2973C36.2774 12.9569 36.8515 13.4917 37.5597 13.4917C38.2679 13.4917 38.842 12.957 38.842 12.2973C38.842 11.6376 38.2679 11.1029 37.5597 11.1029ZM31.9641 12.2973C31.9641 9.4185 34.4694 7.08496 37.5597 7.08496C40.65 7.08496 43.1553 9.41853 43.1553 12.2973C43.1553 15.1759 40.6501 17.5096 37.5597 17.5096C34.4694 17.5096 31.9641 15.176 31.9641 12.2973Z" fill="white"/>
<path opacity="0.4" fill-rule="evenodd" clip-rule="evenodd" d="M37.5597 56.0938C36.8515 56.0938 36.2774 56.6286 36.2774 57.2883C36.2774 57.9479 36.8515 58.4827 37.5597 58.4827C38.2679 58.4827 38.842 57.9479 38.842 57.2883C38.842 56.6286 38.2679 56.0938 37.5597 56.0938ZM31.9641 57.2883C31.9641 54.4096 34.4694 52.0759 37.5597 52.0759C40.6501 52.0759 43.1553 54.4096 43.1553 57.2883C43.1553 60.167 40.65 62.5006 37.5597 62.5006C34.4694 62.5006 31.9641 60.1671 31.9641 57.2883Z" fill="white"/>
<path opacity="0.4" fill-rule="evenodd" clip-rule="evenodd" d="M61.7235 33.5833C61.0154 33.5833 60.4413 34.1181 60.4413 34.7778C60.4413 35.4375 61.0154 35.9723 61.7235 35.9723C62.4317 35.9723 63.0058 35.4375 63.0058 34.7778C63.0058 34.1181 62.4317 33.5833 61.7235 33.5833ZM56.1279 34.7778C56.1279 31.8991 58.6332 29.5654 61.7235 29.5654C64.8139 29.5654 67.3191 31.8991 67.3191 34.7778C67.3191 37.6565 64.8139 39.9902 61.7235 39.9902C58.6332 39.9902 56.1279 37.6565 56.1279 34.7778Z" fill="white"/>
<path opacity="0.4" fill-rule="evenodd" clip-rule="evenodd" d="M13.4264 33.5833C12.7182 33.5833 12.1441 34.1181 12.1441 34.7778C12.1441 35.4375 12.7182 35.9723 13.4264 35.9723C14.1346 35.9723 14.7087 35.4375 14.7087 34.7778C14.7087 34.1181 14.1346 33.5833 13.4264 33.5833ZM7.83081 34.7778C7.83081 31.8991 10.336 29.5654 13.4264 29.5654C16.5167 29.5654 19.022 31.8991 19.022 34.7778C19.022 37.6565 16.5167 39.9902 13.4264 39.9902C10.336 39.9902 7.83081 37.6565 7.83081 34.7778Z" fill="white"/>
</svg>
