<svg width="3" height="3" viewBox="0 0 3 3" fill="none" xmlns="http://www.w3.org/2000/svg">
<path d="M2.08984 1.25043C2.08984 1.43178 2.03616 1.60906 1.93556 1.75985C1.83496 1.91064 1.69196 2.02816 1.52467 2.09756C1.35738 2.16696 1.17329 2.18512 0.995693 2.14974C0.818098 2.11436 0.654958 2.02703 0.526919 1.8988C0.39888 1.77056 0.311707 1.60718 0.276381 1.42931C0.241056 1.25144 0.259185 1.06708 0.328479 0.899533C0.397773 0.731986 0.515106 0.588781 0.665663 0.488027C0.816221 0.387273 0.993228 0.333496 1.1743 0.333496C1.41712 0.333496 1.64999 0.430102 1.82169 0.602061C1.99338 0.774019 2.08984 1.00724 2.08984 1.25043Z" fill="white"/>
</svg>
