<svg width="77" height="77" viewBox="0 0 77 77" fill="none" xmlns="http://www.w3.org/2000/svg">
<path d="M38.7759 76.1334C31.2835 76.139 23.9577 73.9225 17.7252 69.764C11.4928 65.6056 6.63364 59.6921 3.76249 52.7717C0.89134 45.8512 0.137179 38.2347 1.5954 30.8856C3.05362 23.5364 6.65871 16.7849 11.9546 11.4849C17.2506 6.18498 23.9994 2.57479 31.3474 1.111C38.6954 -0.352781 46.3125 0.395605 53.2351 3.26151C60.1578 6.12743 66.0749 10.9821 70.2381 17.2114C74.4012 23.4407 76.6234 30.7648 76.6234 38.2572C76.6082 48.293 72.6168 57.9138 65.5231 65.0129C58.4294 72.1119 48.8117 76.1106 38.7759 76.1334ZM38.7759 3.9078C31.9709 3.9078 25.3187 5.92573 19.6605 9.7064C14.0023 13.4871 9.59234 18.8607 6.98817 25.1477C4.384 31.4347 3.70266 38.3528 5.03025 45.027C6.35784 51.7013 9.63475 57.832 14.4466 62.6439C19.2585 67.4557 25.3892 70.7327 32.0635 72.0602C38.7377 73.3878 45.6558 72.7065 51.9428 70.1023C58.2298 67.4981 63.6034 63.0881 67.3841 57.43C71.1648 51.7718 73.1827 45.1196 73.1827 38.3146C73.1827 33.7962 72.2927 29.3221 70.5636 25.1477C68.8345 20.9733 66.3001 17.1803 63.1052 13.9853C59.9102 10.7903 56.1172 8.25596 51.9428 6.52685C47.7684 4.79775 43.2943 3.9078 38.7759 3.9078Z" fill="white"/>
</svg>
