<svg width="13" height="23" viewBox="0 0 13 23" fill="none" xmlns="http://www.w3.org/2000/svg">
<path d="M6.812 8.98431V16.3971C6.79126 16.9403 6.9619 17.4736 7.29414 17.9038C7.43879 18.0742 7.61893 18.2111 7.8219 18.3048C8.02487 18.3985 8.24584 18.4467 8.46939 18.4462C8.90382 18.4431 9.33098 18.3346 9.71416 18.1299C10.0973 17.9251 10.425 17.6304 10.6691 17.271L12.3867 20.4953C11.1831 21.7201 9.55292 22.4326 7.83652 22.4841C7.0546 22.5089 6.27641 22.367 5.55352 22.0679C4.83064 21.7688 4.17961 21.3193 3.64379 20.7493C3.10798 20.1793 2.69959 19.5018 2.44574 18.7618C2.19189 18.0218 2.09836 17.2363 2.17142 16.4574V8.98431H0.212769V5.60936H2.17142V0.66748H6.812V5.60936H10.8198V8.98431H6.812Z" fill="#B571FF"/>
</svg>
