<svg width="18" height="23" viewBox="0 0 18 23" fill="none" xmlns="http://www.w3.org/2000/svg">
<path d="M10.2513 0.337852C11.2318 0.352252 12.1981 0.574564 13.0864 0.990124C13.9746 1.40568 14.7646 2.00501 15.404 2.74851C16.9102 4.38847 17.7205 6.54929 17.6641 8.7752C17.6989 10.9974 16.8915 13.1505 15.404 14.8019C14.7484 15.5693 13.9357 16.1871 13.0207 16.6134C12.1058 17.0397 11.1099 17.2646 10.1005 17.2728C9.14968 17.2938 8.20813 17.0824 7.35746 16.6571C6.50678 16.2317 5.77268 15.6053 5.21893 14.832V22.9982H0.608521V0.609042H5.21893V2.44718C5.8692 1.77054 6.65124 1.2343 7.51673 0.871518C8.38223 0.508736 9.31286 0.327117 10.2513 0.337852ZM5.1587 8.92587C5.10412 10.122 5.50219 11.2947 6.27362 12.2104C6.60688 12.6152 7.02556 12.9413 7.49963 13.1653C7.9737 13.3893 8.49144 13.5057 9.01577 13.5062C9.54726 13.4967 10.0709 13.3765 10.5534 13.1534C11.0359 12.9303 11.4667 12.6092 11.8182 12.2104C12.6331 11.3148 13.0656 10.136 13.0235 8.92587C13.0589 7.70396 12.6403 6.51228 11.8483 5.58106C11.5131 5.15895 11.0871 4.81783 10.6019 4.58307C10.1167 4.3483 9.58493 4.22594 9.04593 4.22507C8.5141 4.22467 7.98889 4.34358 7.5091 4.57304C7.02932 4.80251 6.60714 5.13666 6.27362 5.55092C5.50628 6.50417 5.11022 7.70311 5.1587 8.92587Z" fill="#B571FF"/>
</svg>
