<svg width="14" height="23" viewBox="0 0 14 23" fill="none" xmlns="http://www.w3.org/2000/svg">
<path d="M7.59508 8.98431V16.3971C7.56044 16.9421 7.73262 17.4802 8.07722 17.9038C8.22187 18.0742 8.40196 18.2111 8.60494 18.3048C8.80791 18.3985 9.02888 18.4467 9.25243 18.4462C9.68274 18.4434 10.1058 18.3348 10.4841 18.1298C10.8625 17.9249 11.1846 17.6299 11.422 17.271L13.1698 20.4953C11.9662 21.7201 10.336 22.4326 8.6196 22.4841C7.83781 22.5036 7.06068 22.3584 6.33868 22.0579C5.61667 21.7574 4.96598 21.3084 4.42885 20.74C3.89172 20.1716 3.4802 19.4966 3.221 18.7588C2.96181 18.0209 2.86074 17.2368 2.92439 16.4574V8.98431H0.99585V5.60936H2.92439V0.66748H7.59508V5.60936H11.5124V8.98431H7.59508Z" fill="#FFD786"/>
</svg>
