<svg width="34" height="34" viewBox="0 0 34 34" fill="none" xmlns="http://www.w3.org/2000/svg">
<path d="M10.28 1H23.72C28.84 1 33 5.16 33 10.28V23.72C33 26.1812 32.0223 28.5416 30.282 30.282C28.5416 32.0223 26.1812 33 23.72 33H10.28C5.16 33 1 28.84 1 23.72V10.28C1 7.81879 1.97771 5.45839 3.71805 3.71805C5.45839 1.97771 7.81879 1 10.28 1ZM9.96 4.2C8.43235 4.2 6.96727 4.80686 5.88707 5.88707C4.80686 6.96727 4.2 8.43235 4.2 9.96V24.04C4.2 27.224 6.776 29.8 9.96 29.8H24.04C25.5676 29.8 27.0327 29.1931 28.1129 28.1129C29.1931 27.0327 29.8 25.5676 29.8 24.04V9.96C29.8 6.776 27.224 4.2 24.04 4.2H9.96ZM25.4 6.6C25.9304 6.6 26.4391 6.81071 26.8142 7.18579C27.1893 7.56086 27.4 8.06957 27.4 8.6C27.4 9.13043 27.1893 9.63914 26.8142 10.0142C26.4391 10.3893 25.9304 10.6 25.4 10.6C24.8696 10.6 24.3609 10.3893 23.9858 10.0142C23.6107 9.63914 23.4 9.13043 23.4 8.6C23.4 8.06957 23.6107 7.56086 23.9858 7.18579C24.3609 6.81071 24.8696 6.6 25.4 6.6ZM17 9C19.1217 9 21.1566 9.84285 22.6569 11.3431C24.1571 12.8434 25 14.8783 25 17C25 19.1217 24.1571 21.1566 22.6569 22.6569C21.1566 24.1571 19.1217 25 17 25C14.8783 25 12.8434 24.1571 11.3431 22.6569C9.84285 21.1566 9 19.1217 9 17C9 14.8783 9.84285 12.8434 11.3431 11.3431C12.8434 9.84285 14.8783 9 17 9ZM17 12.2C15.727 12.2 14.5061 12.7057 13.6059 13.6059C12.7057 14.5061 12.2 15.727 12.2 17C12.2 18.273 12.7057 19.4939 13.6059 20.3941C14.5061 21.2943 15.727 21.8 17 21.8C18.273 21.8 19.4939 21.2943 20.3941 20.3941C21.2943 19.4939 21.8 18.273 21.8 17C21.8 15.727 21.2943 14.5061 20.3941 13.6059C19.4939 12.7057 18.273 12.2 17 12.2Z" fill="white" stroke="white"/>
</svg>
