<svg width="77" height="77" viewBox="0 0 77 77" fill="none" xmlns="http://www.w3.org/2000/svg">
<path d="M38.5824 76.3414C31.0912 76.3414 23.7682 74.12 17.5395 69.9581C11.3108 65.7962 6.45619 59.8808 3.58943 52.9598C0.722676 46.0389 -0.027352 38.4232 1.43411 31.076C2.89557 23.7287 6.50284 16.9799 11.7999 11.6828C17.097 6.38573 23.8459 2.77837 31.1932 1.31691C38.5404 -0.144551 46.156 0.605521 53.077 3.47228C59.998 6.33903 65.9134 11.1937 70.0753 17.4224C74.2372 23.6511 76.4586 30.9741 76.4586 38.4653C76.451 48.5083 72.458 58.1378 65.3565 65.2393C58.255 72.3409 48.6254 76.3338 38.5824 76.3414ZM38.5824 4.11582C31.7774 4.11582 25.1252 6.13376 19.467 9.91443C13.8088 13.6951 9.39885 19.0687 6.79468 25.3557C4.19051 31.6427 3.50916 38.5608 4.83676 45.235C6.16435 51.9093 9.4413 58.04 14.2532 62.8519C19.0651 67.6637 25.1957 70.9407 31.87 72.2683C38.5443 73.5959 45.4623 72.9145 51.7494 70.3103C58.0364 67.7062 63.41 63.2962 67.1907 57.638C70.9713 51.9798 72.9892 45.3276 72.9892 38.5226C72.9892 34.0042 72.0993 29.5301 70.3702 25.3557C68.6411 21.1813 66.1066 17.3883 62.9117 14.1933C59.7167 10.9984 55.9238 8.46398 51.7494 6.73488C47.5749 5.00578 43.1007 4.11582 38.5824 4.11582Z" fill="white"/>
</svg>
