<svg width="17" height="23" viewBox="0 0 17 23" fill="none" xmlns="http://www.w3.org/2000/svg">
<path d="M2.17468 4.76563V0.66748H15.3731V3.98215L10.9737 8.98431C12.4654 9.13422 13.8477 9.83476 14.8506 10.9492C15.8536 12.0635 16.4052 13.5118 16.3977 15.011C16.441 16.0149 16.2577 17.0158 15.8613 17.9391C15.4648 18.8625 14.8653 19.6847 14.1075 20.3446C12.4365 21.6583 10.356 22.3411 8.23153 22.2732C5.60937 22.1895 3.07542 21.3063 0.96936 19.7419L2.95818 15.915C4.51235 17.1731 6.41725 17.9204 8.41232 18.0545C9.26131 18.0987 10.1003 17.8544 10.7929 17.3614C11.1056 17.1235 11.3545 16.8118 11.5175 16.4543C11.6805 16.0968 11.7525 15.7044 11.727 15.3123C11.738 14.8969 11.6477 14.4851 11.4639 14.1123C11.2802 13.7396 11.0085 13.4172 10.6723 13.1729C9.77349 12.6054 8.72039 12.3316 7.65898 12.3894C6.68134 12.4559 5.71776 12.6588 4.79627 12.9921V9.61711L8.92454 4.76563H2.17468Z" fill="#B571FF"/>
</svg>
