<svg width="19" height="23" viewBox="0 0 19 23" fill="none" xmlns="http://www.w3.org/2000/svg">
<path d="M9.25946 22.4537C7.9822 22.5436 6.70259 22.3153 5.53515 21.7895C4.36771 21.2636 3.34888 20.4565 2.56984 19.4403C1.1106 16.9883 0.340332 14.1878 0.340332 11.3344C0.340332 8.48105 1.1106 5.68056 2.56984 3.22854C3.40147 2.27071 4.42908 1.50265 5.58319 0.976277C6.73729 0.449903 7.99098 0.17749 9.25946 0.17749C10.5279 0.17749 11.7816 0.449903 12.9357 0.976277C14.0898 1.50265 15.1175 2.27071 15.9491 3.22854C17.3899 5.68693 18.1494 8.48494 18.1494 11.3344C18.1494 14.1839 17.3899 16.9819 15.9491 19.4403C15.17 20.4565 14.1512 21.2636 12.9838 21.7895C11.8163 22.3153 10.5367 22.5436 9.25946 22.4537ZM6.24611 6.12137C4.88139 9.45234 4.88139 13.1864 6.24611 16.5174C6.53674 17.1086 6.98722 17.6066 7.54646 17.9549C8.1057 18.3031 8.75133 18.4877 9.41013 18.4877C10.0689 18.4877 10.7146 18.3031 11.2738 17.9549C11.833 17.6066 12.2835 17.1086 12.5741 16.5174C13.9389 13.1864 13.9389 9.45234 12.5741 6.12137C12.2835 5.53013 11.833 5.03215 11.2738 4.68389C10.7146 4.33564 10.0689 4.15106 9.41013 4.15106C8.75133 4.15106 8.1057 4.33564 7.54646 4.68389C6.98722 5.03215 6.53674 5.53013 6.24611 6.12137Z" fill="#7707D0"/>
</svg>
