<svg width="6" height="6" viewBox="0 0 6 6" fill="none" xmlns="http://www.w3.org/2000/svg">
<path d="M5.54877 2.96525C5.54877 3.49382 5.39226 4.01053 5.09905 4.45002C4.80584 4.88952 4.38911 5.23207 3.90152 5.43434C3.41393 5.63662 2.87739 5.68954 2.35976 5.58642C1.84214 5.4833 1.36666 5.22877 0.993476 4.85501C0.62029 4.48125 0.366156 4.00506 0.263194 3.48664C0.160232 2.96822 0.213055 2.43086 0.415022 1.94252C0.616989 1.45418 0.959031 1.03679 1.39785 0.743125C1.83667 0.449464 2.35256 0.292725 2.88033 0.292725C3.58804 0.292725 4.26678 0.574299 4.76721 1.07549C5.26764 1.57669 5.54877 2.25645 5.54877 2.96525Z" fill="white"/>
</svg>
