<svg width="16" height="23" viewBox="0 0 16 23" fill="none" xmlns="http://www.w3.org/2000/svg">
<path d="M9.48524 8.98434C9.98593 8.34607 10.2709 7.56521 10.2989 6.75448C10.3071 6.41982 10.2473 6.08695 10.123 5.77612C9.99871 5.46528 9.81258 5.18294 9.57587 4.94622C9.33916 4.70951 9.05682 4.52336 8.74598 4.39908C8.43514 4.27481 8.10228 4.21499 7.76762 4.22326C6.41161 4.22326 5.11588 5.18753 3.91054 7.2366L0.0534668 4.97659C0.910045 3.58205 2.03709 2.37306 3.36816 1.42085C4.74874 0.564471 6.35551 0.144395 7.97857 0.215506C9.7665 0.202553 11.4993 0.833662 12.8602 1.99339C13.5535 2.58519 14.1036 3.32655 14.4689 4.16167C14.8343 4.99679 15.0054 5.9039 14.9695 6.81473C14.9718 7.93483 14.6809 9.03602 14.1258 10.0089C13.2863 11.4245 12.2741 12.7302 11.1124 13.8961L7.10468 18.0244H15.6324V22.3335H0.565729V18.627L6.86365 12.1484C7.81508 11.1604 8.69138 10.1028 9.48524 8.98434Z" fill="#FFD786"/>
</svg>
