<svg width="19" height="23" viewBox="0 0 19 23" fill="none" xmlns="http://www.w3.org/2000/svg">
<path d="M7.50181 4.94616C7.27446 5.12378 7.09293 5.35322 6.97236 5.61533C6.85178 5.87744 6.79569 6.16462 6.80876 6.45283C6.80067 6.75668 6.87479 7.05707 7.0233 7.32227C7.17181 7.58747 7.3892 7.80764 7.65249 7.95951C8.89119 8.57263 10.2099 9.00878 11.5698 9.25522C13.3174 9.62613 14.9503 10.4116 16.3309 11.5454C16.9147 12.1122 17.368 12.7994 17.6594 13.5592C17.9508 14.3189 18.0733 15.133 18.0184 15.9448C18.0443 16.8427 17.862 17.7344 17.4855 18.55C17.1091 19.3656 16.5489 20.0829 15.8488 20.6457C14.2162 21.9103 12.1862 22.5514 10.1235 22.4537C6.67288 22.4362 3.36503 21.0741 0.902588 18.6569L3.91593 15.1313C5.6315 16.8808 7.92181 17.951 10.3645 18.1446C11.1018 18.1885 11.8328 17.9872 12.4437 17.5721C12.6905 17.402 12.8894 17.1713 13.0213 16.9022C13.1533 16.633 13.2138 16.3345 13.197 16.0352C13.1996 15.735 13.1297 15.4385 12.9933 15.171C12.8569 14.9035 12.6581 14.6728 12.4136 14.4985C11.4131 13.9569 10.3361 13.5708 9.21944 13.3534C7.24676 12.98 5.37678 12.1889 3.73514 11.0331C3.11885 10.4625 2.64102 9.75873 2.33813 8.97539C2.03524 8.19204 1.91527 7.34985 1.98739 6.51309C1.94297 5.60526 2.12002 4.70023 2.50324 3.87605C2.88646 3.05186 3.46438 2.33325 4.18717 1.78214C5.79553 0.64341 7.73189 0.0614204 9.70154 0.124795C11.1704 0.128114 12.6278 0.382908 14.0106 0.878131C15.3835 1.33351 16.6604 2.03839 17.7773 2.95734L15.3365 6.48295C13.6907 5.1413 11.6437 4.38825 9.52075 4.34348C8.79717 4.29488 8.08035 4.50887 7.50181 4.94616Z" fill="#FFD786"/>
</svg>
