<svg width="17" height="22" viewBox="0 0 17 22" fill="none" xmlns="http://www.w3.org/2000/svg">
<path d="M8.45964 21.1674C7.24432 21.2529 6.02677 21.0358 4.91594 20.5354C3.8051 20.035 2.83564 19.267 2.09438 18.3001C0.723051 15.9663 0 13.3085 0 10.6016C0 7.89473 0.723051 5.23697 2.09438 2.90313C2.88568 1.99174 3.86346 1.26091 4.96161 0.760055C6.05976 0.259204 7.25267 0 8.45964 0C9.66661 0 10.8595 0.259204 11.9577 0.760055C13.0558 1.26091 14.0336 1.99174 14.8249 2.90313C16.1962 5.23697 16.9193 7.89473 16.9193 10.6016C16.9193 13.3085 16.1962 15.9663 14.8249 18.3001C14.0802 19.2632 13.1102 20.0284 12.0002 20.5284C10.8902 21.0284 9.67436 21.2478 8.45964 21.1674ZM5.59241 5.62699C4.29219 8.80606 4.29219 12.3685 5.59241 15.5476C5.86894 16.1102 6.29759 16.584 6.82971 16.9154C7.36183 17.2467 7.97615 17.4224 8.60301 17.4224C9.22987 17.4224 9.84418 17.2467 10.3763 16.9154C10.9084 16.584 11.3371 16.1102 11.6136 15.5476C12.9138 12.3685 12.9138 8.80606 11.6136 5.62699C11.3371 5.06442 10.9084 4.59058 10.3763 4.25922C9.84418 3.92785 9.22987 3.75222 8.60301 3.75222C7.97615 3.75222 7.36183 3.92785 6.82971 4.25922C6.29759 4.59058 5.86894 5.06442 5.59241 5.62699Z" fill="white"/>
</svg>
