<svg width="17" height="22" viewBox="0 0 17 22" fill="none" xmlns="http://www.w3.org/2000/svg">
<path d="M8.45964 21.1659C7.24432 21.2515 6.02675 21.0343 4.91591 20.534C3.80508 20.0336 2.83564 19.2656 2.09438 18.2987C0.723051 15.9649 0 13.3071 0 10.6002C0 7.89329 0.723051 5.23552 2.09438 2.90168C2.88301 1.99093 3.85831 1.26043 4.95411 0.759771C6.0499 0.259113 7.24056 0 8.44531 0C9.65006 0 10.8407 0.259113 11.9365 0.759771C13.0323 1.26043 14.0076 1.99093 14.7962 2.90168C16.1852 5.22943 16.9185 7.88956 16.9185 10.6002C16.9185 13.3108 16.1852 15.971 14.7962 18.2987C14.0577 19.2614 13.0929 20.0268 11.9875 20.527C10.8821 21.0271 9.67026 21.2466 8.45964 21.1659ZM5.59241 5.62555C4.29219 8.80461 4.29219 12.3671 5.59241 15.5462C5.84342 16.0975 6.24654 16.5657 6.75444 16.8958C7.26234 17.226 7.8539 17.4043 8.45964 17.4099C9.08817 17.4248 9.70746 17.2566 10.242 16.9256C10.7766 16.5947 11.2034 16.1154 11.4702 15.5462C12.7705 12.3671 12.7705 8.80461 11.4702 5.62555C11.2034 5.0563 10.7766 4.577 10.242 4.24607C9.70746 3.91515 9.08817 3.74689 8.45964 3.76184C7.82488 3.73362 7.19621 3.89605 6.65456 4.2282C6.1129 4.56035 5.68306 5.04701 5.42038 5.62555H5.59241Z" fill="white"/>
</svg>
