<svg width="6" height="6" viewBox="0 0 6 6" fill="none" xmlns="http://www.w3.org/2000/svg">
<path d="M5.55024 2.7653C5.55024 3.29387 5.39372 3.81058 5.10051 4.25007C4.8073 4.68957 4.39058 5.03212 3.90299 5.23439C3.4154 5.43667 2.87885 5.48959 2.36123 5.38647C1.8436 5.28335 1.36813 5.02882 0.994941 4.65506C0.621754 4.2813 0.36762 3.8051 0.264659 3.28669C0.161697 2.76827 0.21452 2.23091 0.416487 1.74257C0.618454 1.25423 0.960496 0.836834 1.39932 0.543173C1.83814 0.249513 2.35403 0.0927734 2.88179 0.0927734C3.5895 0.0927734 4.26825 0.374348 4.76867 0.875543C5.2691 1.37674 5.55024 2.0565 5.55024 2.7653Z" fill="white"/>
</svg>
