<svg width="18" height="23" viewBox="0 0 18 23" fill="none" xmlns="http://www.w3.org/2000/svg">
<path d="M6.56909 4.94667C6.3471 5.12901 6.16938 5.35932 6.04933 5.6203C5.92928 5.88129 5.87002 6.16614 5.87602 6.45335C5.87414 6.75958 5.95416 7.06074 6.10781 7.32565C6.26145 7.59056 6.48314 7.80959 6.74989 7.96002C7.97956 8.56941 9.28773 9.00544 10.6371 9.25573C12.389 9.61389 14.0248 10.4007 15.3982 11.5459C15.9924 12.1062 16.4548 12.7916 16.7518 13.5524C17.0489 14.3133 17.1732 15.1306 17.1158 15.9454C17.1417 16.8432 16.9593 17.7349 16.5829 18.5505C16.2065 19.3661 15.6463 20.0834 14.9462 20.6462C13.3136 21.9109 11.2836 22.5519 9.22083 22.4542C5.77026 22.4367 2.46244 21.0746 0 18.6574L2.86268 15.0112C4.57825 16.7608 6.86856 17.831 9.31123 18.0246C10.0485 18.0685 10.7796 17.8672 11.3904 17.452C11.6372 17.282 11.8362 17.0513 11.9681 16.7821C12.1 16.513 12.1605 16.2145 12.1438 15.9152C12.1483 15.6113 12.0761 15.3112 11.9339 15.0426C11.7917 14.774 11.584 14.5456 11.3302 14.3784C10.3436 13.8299 9.27531 13.4433 8.16616 13.2334C6.19348 12.86 4.32352 12.0689 2.68187 10.9131C2.06558 10.3425 1.58776 9.63871 1.28487 8.85536C0.981977 8.07202 0.862013 7.22983 0.934135 6.39307C0.889712 5.48523 1.06674 4.58021 1.44996 3.75602C1.83318 2.93184 2.41109 2.21323 3.13388 1.66212C4.73393 0.529673 6.65873 -0.0520054 8.61816 0.00477106C10.0971 0.00523896 11.5649 0.260065 12.9574 0.758107C14.3866 1.22542 15.7081 1.97329 16.8446 2.95786L14.4339 6.48346C12.7858 5.14586 10.7402 4.39334 8.61816 4.34399C7.88446 4.28796 7.15562 4.50234 6.56909 4.94667Z" fill="#7707D0"/>
</svg>
