<svg width="18" height="23" viewBox="0 0 18 23" fill="none" xmlns="http://www.w3.org/2000/svg">
<path d="M10.004 0.338339C10.9846 0.352739 11.9509 0.575052 12.8391 0.990611C13.7274 1.40617 14.5174 2.0055 15.1569 2.749C16.6823 4.37907 17.5049 6.54395 17.447 8.77569C17.4858 11.0041 16.6658 13.1621 15.1569 14.8024C14.5071 15.5691 13.6997 16.1867 12.7897 16.6131C11.8797 17.0395 10.8884 17.2647 9.8835 17.2733C8.92761 17.2992 7.97994 17.0903 7.1236 16.6647C6.26726 16.2392 5.52838 15.61 4.97174 14.8325V22.9987H0.361328V0.609529H4.97174V2.44767C5.62417 1.77387 6.40657 1.23952 7.27156 0.876948C8.13656 0.514377 9.06614 0.331136 10.004 0.338339ZM4.91146 8.92636C4.86821 10.126 5.27687 11.2982 6.05654 12.2109C6.38656 12.6118 6.80037 12.9356 7.2689 13.1594C7.73743 13.3833 8.2493 13.5018 8.76853 13.5067C9.301 13.5028 9.82651 13.3852 10.3098 13.1618C10.7931 12.9383 11.2231 12.6141 11.571 12.2109C11.9801 11.771 12.2974 11.254 12.5043 10.69C12.7113 10.126 12.8037 9.52647 12.7763 8.92636C12.8117 7.70445 12.393 6.51276 11.6011 5.58155C11.2659 5.15944 10.8399 4.81832 10.3547 4.58355C9.86952 4.34879 9.33769 4.22643 8.7987 4.22555C8.27121 4.22533 7.7505 4.34449 7.27561 4.57411C6.80072 4.80372 6.38395 5.13783 6.05654 5.55141C5.28082 6.50175 4.8742 7.70018 4.91146 8.92636Z" fill="#FFD786"/>
</svg>
