<svg width="13" height="23" viewBox="0 0 13 23" fill="none" xmlns="http://www.w3.org/2000/svg">
<path d="M6.66235 8.98431V16.3971C6.63611 16.9461 6.81918 17.4846 7.17461 17.9038C7.31926 18.0742 7.49936 18.2111 7.70234 18.3048C7.90531 18.3985 8.12628 18.4467 8.34983 18.4462C8.77913 18.4383 9.20025 18.3274 9.5778 18.1229C9.95535 17.9184 10.2783 17.6263 10.5194 17.271L12.2672 20.4953C11.0636 21.7201 9.43342 22.4326 7.71701 22.4841C6.93523 22.5036 6.15809 22.3584 5.43609 22.0579C4.71408 21.7574 4.06337 21.3084 3.52624 20.74C2.98911 20.1716 2.57758 19.4966 2.31839 18.7588C2.0592 18.0209 1.95815 17.2368 2.0218 16.4574V8.98431H0.0932617V5.60936H2.0218V0.66748H6.66235V5.60936H10.6701V8.98431H6.66235Z" fill="#7707D0"/>
</svg>
