<svg width="3" height="2" viewBox="0 0 3 2" fill="none" xmlns="http://www.w3.org/2000/svg">
<path d="M2.09008 1.04975C2.09008 1.2311 2.0364 1.40838 1.9358 1.55916C1.8352 1.70995 1.69221 1.82748 1.52492 1.89688C1.35763 1.96628 1.17353 1.98444 0.995937 1.94906C0.818342 1.91368 0.655202 1.82635 0.527163 1.69811C0.399124 1.56988 0.311951 1.4065 0.276626 1.22863C0.2413 1.05076 0.259429 0.866397 0.328723 0.69885C0.398017 0.531302 0.51535 0.388098 0.665907 0.287344C0.816465 0.18659 0.993472 0.132812 1.17455 0.132812C1.41736 0.132812 1.65023 0.229419 1.82193 0.401377C1.99362 0.573335 2.09008 0.806559 2.09008 1.04975Z" fill="white"/>
</svg>
