<svg width="7" height="7" viewBox="0 0 7 7" fill="none" xmlns="http://www.w3.org/2000/svg">
<path d="M3.59154 6.1023C3.00636 6.1023 2.43432 5.92851 1.94776 5.6029C1.46121 5.27729 1.08199 4.8145 0.858048 4.27304C0.634109 3.73157 0.575497 3.13575 0.68966 2.56094C0.803823 1.98612 1.08562 1.45812 1.4994 1.0437C1.91318 0.629284 2.44038 0.347058 3.01431 0.23272C3.58825 0.118382 4.18314 0.177067 4.72378 0.401349C5.26441 0.625631 5.72652 1.00544 6.05163 1.49275C6.37674 1.98005 6.55025 2.55297 6.55025 3.13904C6.55025 3.92495 6.23854 4.67866 5.68368 5.23438C5.12881 5.7901 4.37624 6.1023 3.59154 6.1023ZM3.59154 0.813162C3.13223 0.813162 2.68324 0.949578 2.30134 1.20515C1.91943 1.46072 1.62178 1.82397 1.44601 2.24897C1.27024 2.67397 1.22423 3.14162 1.31384 3.5928C1.40345 4.04397 1.62462 4.4584 1.9494 4.78368C2.27418 5.10896 2.68799 5.33048 3.13847 5.42023C3.58896 5.50997 4.05591 5.46391 4.48026 5.28787C4.90461 5.11183 5.2673 4.81372 5.52248 4.43123C5.77766 4.04874 5.91384 3.59906 5.91384 3.13904C5.91384 2.52218 5.6692 1.93059 5.23368 1.4944C4.79816 1.05821 4.20745 0.813162 3.59154 0.813162Z" fill="white"/>
</svg>
