<svg width="266" height="198" viewBox="0 0 266 198" fill="none" xmlns="http://www.w3.org/2000/svg">
<path d="M233.077 197.687H32.6864C23.9967 197.642 15.6788 194.156 9.55302 187.993C3.4272 181.829 -0.00768893 173.49 1.29241e-05 164.8V32.9075C0.0452716 24.2551 3.50445 15.9704 9.62538 9.85489C15.7463 3.73933 24.034 0.287421 32.6864 0.249756H76.1824C76.6462 0.249756 77.0911 0.434027 77.4191 0.76203C77.7471 1.09003 77.9314 1.5349 77.9314 1.99877C77.9314 2.46264 77.7471 2.9075 77.4191 3.23551C77.0911 3.56351 76.6462 3.74778 76.1824 3.74778H32.6864C24.9095 3.75537 17.4533 6.84811 11.9541 12.3472C6.455 17.8464 3.3623 25.3026 3.35471 33.0795V164.972C3.3623 172.749 6.455 180.205 11.9541 185.705C17.4533 191.204 24.9095 194.296 32.6864 194.304H233.077C236.943 194.3 240.769 193.533 244.337 192.047C247.906 190.561 251.145 188.385 253.871 185.644C256.596 182.903 258.753 179.65 260.218 176.073C261.683 172.496 262.428 168.665 262.409 164.8V115.885C262.409 115.421 262.593 114.976 262.921 114.648C263.249 114.32 263.694 114.136 264.158 114.136C264.622 114.136 265.067 114.32 265.395 114.648C265.723 114.976 265.907 115.421 265.907 115.885V164.8C265.907 173.512 262.45 181.869 256.295 188.035C250.14 194.201 241.79 197.672 233.077 197.687Z" fill="#540494"/>
</svg>
