<svg width="7" height="7" viewBox="0 0 7 7" fill="none" xmlns="http://www.w3.org/2000/svg">
<path d="M3.59056 6.30299C3.00538 6.30299 2.43335 6.12919 1.94679 5.80358C1.46023 5.47798 1.08101 5.01518 0.857071 4.47372C0.633133 3.93226 0.57452 3.33644 0.688683 2.76162C0.802846 2.18681 1.08464 1.65881 1.49842 1.24439C1.91221 0.829967 2.4394 0.547742 3.01333 0.433404C3.58727 0.319066 4.18217 0.377751 4.7228 0.602033C5.26344 0.826315 5.72555 1.20612 6.05065 1.69343C6.37576 2.18074 6.54928 2.75365 6.54928 3.33973C6.54928 4.12563 6.23757 4.87935 5.6827 5.43507C5.12783 5.99079 4.37526 6.30299 3.59056 6.30299ZM3.59056 1.01385C3.13125 1.01385 2.68226 1.15026 2.30036 1.40583C1.91846 1.6614 1.6208 2.02465 1.44503 2.44965C1.26926 2.87465 1.22326 3.3423 1.31286 3.79348C1.40247 4.24466 1.62364 4.65909 1.94842 4.98437C2.2732 5.30965 2.68701 5.53117 3.1375 5.62091C3.58798 5.71066 4.05494 5.6646 4.47928 5.48856C4.90363 5.31252 5.26632 5.0144 5.5215 4.63192C5.77668 4.24943 5.91286 3.79974 5.91286 3.33973C5.91286 2.72286 5.66822 2.13127 5.2327 1.69508C4.79718 1.2589 4.20648 1.01385 3.59056 1.01385Z" fill="white"/>
</svg>
