<svg width="17" height="22" viewBox="0 0 17 22" fill="none" xmlns="http://www.w3.org/2000/svg">
<path d="M8.45881 21.5939C7.24788 21.6772 6.03521 21.4588 4.92937 20.9585C3.82352 20.4581 2.85904 19.6913 2.12225 18.7267C0.733307 16.3989 0 13.7388 0 11.0282C0 8.31754 0.733307 5.6574 2.12225 3.32966C2.91088 2.41891 3.88616 1.68841 4.98196 1.18775C6.07775 0.687092 7.26841 0.427979 8.47316 0.427979C9.67791 0.427979 10.8686 0.687092 11.9644 1.18775C13.0602 1.68841 14.0354 2.41891 14.8241 3.32966C16.1954 5.6635 16.9185 8.32127 16.9185 11.0282C16.9185 13.7351 16.1954 16.3928 14.8241 18.7267C14.0828 19.6936 13.1134 20.4616 12.0026 20.9619C10.8918 21.4623 9.67413 21.6794 8.45881 21.5939ZM5.59157 6.05352C4.29136 9.23259 4.29136 12.7951 5.59157 15.9741C5.86811 16.5367 6.2968 17.0105 6.82893 17.3419C7.36105 17.6733 7.97536 17.8489 8.60222 17.8489C9.22908 17.8489 9.84339 17.6733 10.3755 17.3419C10.9076 17.0105 11.3362 16.5367 11.6128 15.9741C12.913 12.7951 12.913 9.23259 11.6128 6.05352C11.3362 5.49096 10.9076 5.01712 10.3755 4.68575C9.84339 4.35439 9.22908 4.17875 8.60222 4.17875C7.97536 4.17875 7.36105 4.35439 6.82893 4.68575C6.2968 5.01712 5.86811 5.49096 5.59157 6.05352Z" fill="white"/>
</svg>
