<svg width="334" height="199" viewBox="0 0 334 199" fill="none" xmlns="http://www.w3.org/2000/svg">
<path d="M233.242 198.479H32.8513C24.139 198.464 15.7887 194.992 9.6336 188.827C3.47846 182.661 0.0214711 174.304 0.0214844 165.592V33.6994C0.0366453 24.9971 3.50035 16.6555 9.65385 10.502C15.8074 4.3485 24.1489 0.88479 32.8513 0.869629H76.3758C76.8397 0.869629 77.2846 1.0539 77.6126 1.3819C77.9406 1.70991 78.1248 2.15478 78.1248 2.61864C78.1248 3.08251 77.9406 3.52736 77.6126 3.85536C77.2846 4.18336 76.8397 4.36763 76.3758 4.36763H32.8513C25.0743 4.37522 17.6181 7.46797 12.1189 12.9671C6.6198 18.4662 3.52706 25.9225 3.51947 33.6994V165.592C3.52706 173.369 6.6198 180.825 12.1189 186.324C17.6181 191.824 25.0743 194.916 32.8513 194.924H233.242C241.004 194.894 248.438 191.791 253.919 186.294C259.399 180.797 262.48 173.354 262.488 165.592V116.677C262.484 116.445 262.526 116.215 262.613 115.999C262.699 115.783 262.827 115.587 262.99 115.422C263.153 115.256 263.347 115.125 263.561 115.035C263.775 114.946 264.005 114.899 264.237 114.899H332.047C332.476 114.954 332.87 115.164 333.156 115.488C333.442 115.813 333.599 116.23 333.599 116.663C333.599 117.095 333.442 117.513 333.156 117.837C332.87 118.162 332.476 118.371 332.047 118.426H266.101V165.592C266.104 169.91 265.257 174.185 263.608 178.175C261.958 182.165 259.538 185.791 256.487 188.845C253.435 191.899 249.812 194.322 245.823 195.975C241.835 197.628 237.56 198.479 233.242 198.479Z" fill="#540494"/>
</svg>
