<svg width="1440" height="1024" viewBox="0 0 1440 1024" fill="none" xmlns="http://www.w3.org/2000/svg">
<path d="M-1261 -668V1675H2701V-668H-1261ZM2316.11 555.256C2289.29 1014.88 1907.25 1379.39 1439.95 1379.39C1161.12 1379.39 912.648 1249.63 751.897 1047.31C748.086 1042.52 743.24 1038.65 737.72 1035.99C732.201 1033.33 726.151 1031.95 720.021 1031.95C713.892 1031.95 707.842 1033.33 702.322 1035.99C696.803 1038.65 691.957 1042.52 688.145 1047.31C527.48 1249.63 278.985 1379.39 0.0919189 1379.39C-467.229 1379.39 -849.269 1014.9 -876.068 555.256C-906.637 31.7148 -469.05 -403.173 55.3392 -370.678C311.568 -354.795 538.02 -229.201 688.102 -40.4138C691.912 -35.6002 696.765 -31.7102 702.297 -29.0358C707.829 -26.3615 713.896 -24.9721 720.043 -24.9721C726.189 -24.9721 732.256 -26.3615 737.788 -29.0358C743.32 -31.7102 748.173 -35.6002 751.983 -40.4138C902.066 -229.201 1128.52 -354.795 1384.75 -370.678C1909.2 -403.173 2346.68 31.7148 2316.11 555.256Z" fill="white"/>
</svg>
