<svg width="18" height="23" viewBox="0 0 18 23" fill="none" xmlns="http://www.w3.org/2000/svg">
<path d="M10.0713 0.338308C11.0519 0.352707 12.0182 0.57502 12.9064 0.990579C13.7947 1.40614 14.5847 2.00547 15.2241 2.74897C16.7385 4.38591 17.5593 6.54612 17.5143 8.77565C17.5379 11.0014 16.7199 13.1539 15.2241 14.8023C14.5698 15.5713 13.7573 16.1901 12.842 16.6166C11.9268 17.043 10.9303 17.267 9.92063 17.2733C8.96978 17.2943 8.02817 17.0829 7.17749 16.6575C6.32682 16.2322 5.59277 15.6057 5.03902 14.8325V22.9986H0.45874V0.609497H5.06915V2.44764C5.71593 1.77471 6.49304 1.24063 7.35306 0.877974C8.21307 0.515316 9.13797 0.331689 10.0713 0.338308ZM4.97875 8.92633C4.9355 10.126 5.34414 11.2981 6.12382 12.2109C6.45383 12.6118 6.86765 12.9355 7.33618 13.1594C7.80471 13.3832 8.31659 13.5018 8.83583 13.5066C9.3683 13.5028 9.8938 13.3852 10.3771 13.1617C10.8604 12.9383 11.2904 12.6141 11.6382 12.2109C12.0473 11.771 12.3646 11.2539 12.5716 10.69C12.7786 10.126 12.871 9.52644 12.8436 8.92633C12.879 7.70442 12.4603 6.51273 11.6684 5.58152C11.3332 5.15941 10.9072 4.81829 10.422 4.58352C9.93682 4.34876 9.40495 4.2264 8.86596 4.22552C8.33847 4.2253 7.81777 4.34446 7.34288 4.57407C6.86799 4.80369 6.45122 5.1378 6.12382 5.55138C5.3589 6.50594 4.96314 7.70395 5.00888 8.92633H4.97875Z" fill="#7707D0"/>
</svg>
