<svg width="130" height="131" viewBox="0 0 130 131" fill="none" xmlns="http://www.w3.org/2000/svg">
<path id="Vector" d="M129.519 104.585C126.629 47.1252 81.6866 2.5965 24.1655 0.132216C19.0377 -0.0870021 14.6574 1.10594 11.1681 5.08955C9.44482 7.05742 7.43647 8.7733 5.59015 10.6364C-3.43729 19.7516 -0.491891 34.0748 11.6359 38.569C17.819 40.8629 24.276 42.5588 30.7381 43.9127C36.9035 45.2033 42.3284 42.8576 46.1941 38.0253C49.2556 34.1981 52.2253 34.0909 56.4846 35.8702C75.2562 43.7153 88.1503 57.0122 95.043 76.1617C96.04 78.9345 96.3357 81.1688 93.5345 83.3533C85.9586 89.259 84.2474 96.9047 87.3535 105.915C88.7424 109.948 89.4568 114.21 90.7546 118.28C94.8612 131.164 109.477 134.889 119.13 125.573C120.322 124.422 121.495 123.253 122.676 122.088C129.561 115.339 130.004 114.208 129.519 104.585Z" fill="#430376"/>
</svg>
