<svg width="18" height="18" viewBox="0 0 18 18" fill="none" xmlns="http://www.w3.org/2000/svg">
<path d="M15.9198 14.8018C14.1632 16.514 11.8036 17.4664 9.35067 17.4536C8.20698 17.4956 7.06637 17.3094 5.99542 16.9058C4.92446 16.5023 3.94461 15.8895 3.11305 15.1032C1.51917 13.4235 0.630615 11.1962 0.630615 8.88062C0.630615 6.56505 1.51917 4.33776 3.11305 2.65806C4.74184 1.12726 6.90491 0.294487 9.13974 0.337799C11.2638 0.285876 13.3331 1.01496 14.9555 2.38687C15.753 3.09768 16.3809 3.97835 16.7928 4.964C17.2048 5.94966 17.3905 7.01518 17.336 8.08209V10.5229H5.28266C5.35829 10.9702 5.52254 11.3978 5.76575 11.7808C6.00896 12.1637 6.32623 12.4942 6.69894 12.7528C7.48799 13.3231 8.43734 13.629 9.41094 13.6266C10.1558 13.6522 10.8977 13.5206 11.5882 13.2402C12.2788 12.9598 12.9025 12.5371 13.4187 11.9994L15.9198 14.8018ZM11.4901 4.94821C10.8326 4.42286 10.0113 4.14551 9.16988 4.16473C8.26147 4.16235 7.37555 4.44712 6.63867 4.97835C6.27816 5.24764 5.97515 5.58629 5.74745 5.97441C5.51975 6.36253 5.37197 6.79228 5.31279 7.23836H12.6051C12.5437 6.35949 12.1441 5.53861 11.4901 4.94821Z" fill="#7707D0"/>
</svg>
