<svg width="18" height="23" viewBox="0 0 18 23" fill="none" xmlns="http://www.w3.org/2000/svg">
<path d="M6.71872 4.94674C6.49673 5.12908 6.31902 5.35939 6.19897 5.62037C6.07891 5.88136 6.01971 6.16621 6.02571 6.45341C6.01762 6.75726 6.09174 7.05765 6.24026 7.32285C6.38877 7.58805 6.60615 7.80822 6.86945 7.96009C8.10963 8.5696 9.42773 9.00558 10.7868 9.2558C12.5387 9.61396 14.1744 10.4008 15.5478 11.5459C16.1366 12.1091 16.5934 12.7957 16.8852 13.5564C17.1769 14.3171 17.2966 15.133 17.2354 15.9454C17.2613 16.8433 17.0789 17.735 16.7024 18.5506C16.326 19.3662 15.7658 20.0835 15.0657 20.6463C13.4437 21.9088 11.4238 22.5501 9.37048 22.4543C5.91799 22.4464 2.60669 21.0829 0.149658 18.6574L3.01237 15.1318C4.72472 16.8859 7.01679 17.957 9.46088 18.1452C10.1981 18.1891 10.9292 17.9878 11.5401 17.5726C11.7809 17.3968 11.9753 17.165 12.1066 16.8973C12.2378 16.6295 12.3019 16.3339 12.2934 16.0358C12.2979 15.7319 12.2257 15.4318 12.0835 15.1632C11.9413 14.8946 11.7337 14.6662 11.4799 14.499C10.4882 13.9616 9.4217 13.5756 8.31579 13.3539C6.33578 12.9741 4.45733 12.1837 2.80141 11.0337C2.20504 10.405 1.74276 9.66153 1.4428 8.84856C1.14283 8.03558 1.01147 7.17007 1.05657 6.30469C1.10167 5.43932 1.32231 4.59218 1.70516 3.81479C2.08801 3.03739 2.62507 2.34602 3.28356 1.78272C4.88361 0.650279 6.80834 0.0686001 8.76777 0.125377C10.2371 0.123238 11.6955 0.378194 13.0769 0.878712C14.4556 1.32066 15.7349 2.02688 16.8436 2.95793L14.4028 6.48353C12.7662 5.14614 10.7301 4.39321 8.61714 4.34406C7.93432 4.32396 7.26492 4.53648 6.71872 4.94674Z" fill="#B571FF"/>
</svg>
