<svg width="17" height="22" viewBox="0 0 17 22" fill="none" xmlns="http://www.w3.org/2000/svg">
<path d="M8.45889 21.1659C7.24827 21.2466 6.03644 21.0271 4.93103 20.527C3.82562 20.0268 2.86077 19.2614 2.12225 18.2987C0.733307 15.971 0 13.3108 0 10.6002C0 7.88956 0.733307 5.22943 2.12225 2.90168C2.91088 1.99093 3.88625 1.26043 4.98204 0.759771C6.07784 0.259113 7.2685 0 8.47324 0C9.67799 0 10.8686 0.259113 11.9644 0.759771C13.0602 1.26043 14.0355 1.99093 14.8242 2.90168C16.1955 5.23552 16.9185 7.89329 16.9185 10.6002C16.9185 13.3071 16.1955 15.9649 14.8242 18.2987C14.0829 19.2656 13.1134 20.0336 12.0026 20.534C10.8918 21.0343 9.67422 21.2515 8.45889 21.1659ZM5.44825 5.62555C4.14803 8.80461 4.14803 12.3671 5.44825 15.5462C5.71513 16.1154 6.14193 16.5947 6.6765 16.9256C7.21107 17.2566 7.83036 17.4248 8.45889 17.4099C9.08887 17.4323 9.71126 17.2671 10.2472 16.9353C10.7832 16.6035 11.2086 16.12 11.4695 15.5462C12.7697 12.3671 12.7697 8.80461 11.4695 5.62555C11.2086 5.05167 10.7832 4.56818 10.2472 4.23638C9.71126 3.90458 9.08887 3.73942 8.45889 3.76184C7.83036 3.74689 7.21107 3.91515 6.6765 4.24607C6.14193 4.577 5.71513 5.0563 5.44825 5.62555Z" fill="white"/>
</svg>
