<svg width="3" height="2" viewBox="0 0 3 2" fill="none" xmlns="http://www.w3.org/2000/svg">
<path d="M2.08886 1.04975C2.08886 1.2311 2.03518 1.40838 1.93458 1.55916C1.83398 1.70995 1.69099 1.82748 1.5237 1.89688C1.35641 1.96628 1.17231 1.98444 0.994716 1.94906C0.817121 1.91368 0.653981 1.82635 0.525942 1.69811C0.397903 1.56988 0.310731 1.4065 0.275405 1.22863C0.240079 1.05076 0.258208 0.866397 0.327502 0.69885C0.396796 0.531302 0.514129 0.388098 0.664687 0.287344C0.815245 0.18659 0.992251 0.132812 1.17333 0.132812C1.41614 0.132812 1.64901 0.229419 1.82071 0.401377C1.9924 0.573335 2.08886 0.806559 2.08886 1.04975Z" fill="white"/>
</svg>
