<svg width="18" height="18" viewBox="0 0 18 18" fill="none" xmlns="http://www.w3.org/2000/svg">
<path d="M16.2201 14.8023C14.4635 16.5144 12.1039 17.4669 9.65102 17.4541C8.50308 17.4934 7.35865 17.3061 6.28317 16.9028C5.20769 16.4995 4.22221 15.8881 3.38321 15.1037C2.55853 14.2956 1.91463 13.3218 1.4939 12.2466C1.07316 11.1714 0.885174 10.0192 0.942413 8.86606C0.885386 7.71203 1.07947 6.55937 1.51128 5.48766C1.94308 4.41594 2.60238 3.45069 3.44354 2.65856C5.06882 1.12218 7.23426 0.28849 9.47022 0.338291C11.5934 0.291955 13.6608 1.02036 15.286 2.38737C16.0784 3.10221 16.7028 3.98358 17.1144 4.96824C17.526 5.9529 17.7145 7.01644 17.6665 8.08258V10.5234H5.61315C5.68201 10.9729 5.84341 11.4031 6.0872 11.787C6.33099 12.1708 6.65186 12.4999 7.02942 12.7533C7.81848 13.3236 8.76782 13.6295 9.74141 13.6271C10.486 13.6508 11.2274 13.5183 11.9176 13.238C12.6079 12.9578 13.2318 12.536 13.7491 11.9999L16.2201 14.8023ZM11.7905 4.9487C11.1212 4.42346 10.2906 4.14656 9.44006 4.16523C8.54097 4.16298 7.66472 4.44805 6.93903 4.97884C6.57477 5.2444 6.26905 5.58209 6.04095 5.97091C5.81284 6.35972 5.66723 6.79132 5.61315 7.23885H12.8753C12.838 6.79267 12.7089 6.35898 12.4963 5.96493C12.2838 5.57087 11.9922 5.22491 11.6398 4.9487H11.7905Z" fill="#B571FF"/>
</svg>
