<svg width="7" height="7" viewBox="0 0 7 7" fill="none" xmlns="http://www.w3.org/2000/svg">
<path d="M3.59081 6.1023C3.00563 6.1023 2.43359 5.92851 1.94703 5.6029C1.46047 5.27729 1.08125 4.8145 0.857315 4.27304C0.633377 3.73157 0.574764 3.13575 0.688927 2.56094C0.80309 1.98612 1.08488 1.45812 1.49867 1.0437C1.91245 0.629284 2.43964 0.347058 3.01358 0.23272C3.58751 0.118382 4.18241 0.177067 4.72305 0.401349C5.26368 0.625631 5.72579 1.00544 6.0509 1.49275C6.37601 1.98005 6.54952 2.55297 6.54952 3.13904C6.54952 3.92495 6.23781 4.67866 5.68294 5.23438C5.12808 5.7901 4.37551 6.1023 3.59081 6.1023ZM3.59081 0.813162C3.1315 0.813162 2.68251 0.949578 2.30061 1.20515C1.9187 1.46072 1.62105 1.82397 1.44528 2.24897C1.2695 2.67397 1.2235 3.14162 1.31311 3.5928C1.40271 4.04397 1.62389 4.4584 1.94867 4.78368C2.27345 5.10896 2.68725 5.33048 3.13774 5.42023C3.58823 5.50997 4.05518 5.46391 4.47953 5.28787C4.90387 5.11183 5.26657 4.81372 5.52175 4.43123C5.77693 4.04874 5.91311 3.59906 5.91311 3.13904C5.91311 2.52218 5.66846 1.93059 5.23295 1.4944C4.79743 1.05821 4.20672 0.813162 3.59081 0.813162Z" fill="white"/>
</svg>
