<svg width="147" height="95" viewBox="0 0 147 95" fill="none" xmlns="http://www.w3.org/2000/svg">
<path id="Vector" d="M175.615 94.9887L184.362 77.059C184.708 76.3521 184.831 75.5571 184.716 74.7787C184.601 74.0003 184.253 73.2749 183.718 72.698C183.183 72.121 182.486 71.7195 181.719 71.5462C180.951 71.373 180.149 71.4361 179.418 71.7272L173.157 74.217C173.034 74.266 172.898 74.2722 172.77 74.2346C172.643 74.1971 172.532 74.1179 172.454 74.0098C172.377 73.9017 172.338 73.7708 172.344 73.6381C172.35 73.5054 172.4 73.3784 172.487 73.2775L174.038 71.4719C174.598 70.8209 174.927 70.0031 174.975 69.1457C175.022 68.2883 174.785 67.4392 174.3 66.7304C173.816 66.0215 173.11 65.4926 172.294 65.2258C171.478 64.9591 170.596 64.9693 169.787 65.2551L167.403 66.0955C167.287 66.136 167.162 66.1399 167.044 66.1067C166.927 66.0735 166.822 66.0048 166.745 65.9099C166.668 65.8151 166.621 65.6987 166.613 65.5767C166.604 65.4546 166.633 65.3329 166.696 65.228L168.567 62.1196C168.983 61.4282 169.175 60.6246 169.115 59.8197C169.055 59.0148 168.747 58.2484 168.233 57.626C167.719 57.0037 167.025 56.5561 166.246 56.3452C165.467 56.1342 164.642 56.1703 163.884 56.4483L158.724 58.3441C158.608 58.3865 158.481 58.3916 158.362 58.3586C158.242 58.3256 158.136 58.2561 158.058 58.16C157.98 58.0638 157.934 57.9457 157.927 57.8221C157.919 57.6985 157.95 57.5756 158.016 57.4706L160.371 53.7244C160.79 53.0572 160.997 52.2786 160.965 51.4914C160.933 50.7041 160.663 49.945 160.191 49.3142C159.719 48.6833 159.066 48.2103 158.32 47.9575C157.574 47.7047 156.769 47.684 156.01 47.898L151.332 49.2191C151.21 49.2533 151.079 49.2474 150.96 49.2021C150.842 49.1568 150.74 49.0746 150.672 48.9675C150.603 48.8604 150.57 48.7341 150.579 48.6072C150.587 48.4802 150.636 48.3593 150.718 48.2622L151.892 46.8892C152.42 46.2704 152.742 45.5018 152.811 44.6911C152.881 43.8805 152.695 43.0684 152.28 42.3687C151.864 41.6689 151.241 41.1166 150.496 40.7891C149.751 40.4616 148.923 40.3753 148.126 40.5423L140.287 42.1888C140.16 42.216 140.027 42.2008 139.91 42.1456C139.793 42.0904 139.696 41.9982 139.636 41.8831C139.576 41.7681 139.556 41.6365 139.578 41.5086C139.6 41.3808 139.663 41.2636 139.758 41.1751C140.394 40.5744 140.809 39.7773 140.938 38.9118C141.066 38.0464 140.899 37.1629 140.465 36.4035C140.03 35.6442 139.353 35.0531 138.542 34.7253C137.731 34.3976 136.833 34.3522 135.993 34.5964L129.112 36.6115C128.989 36.6478 128.857 36.6433 128.737 36.5986C128.617 36.5539 128.514 36.4714 128.445 36.3636C128.376 36.2557 128.343 36.1283 128.352 36.0004C128.361 35.8724 128.412 35.7509 128.496 35.6541L132.873 30.5635C133.422 29.9247 133.749 29.1253 133.805 28.2849C133.862 27.4446 133.645 26.6086 133.186 25.902C132.728 25.1955 132.053 24.6564 131.262 24.3657C130.472 24.0749 129.608 24.0481 128.801 24.2891L121.242 26.5521C121.124 26.5884 120.997 26.5867 120.88 26.5472C120.763 26.5078 120.66 26.4326 120.588 26.3322C120.516 26.2318 120.476 26.1113 120.476 25.9875C120.475 25.8637 120.513 25.7428 120.585 25.6418L123.086 22.0801C123.549 21.4212 123.797 20.6352 123.795 19.8301C123.793 19.025 123.542 18.2401 123.076 17.5834C122.61 16.9267 121.952 16.4304 121.193 16.1625C120.434 15.8946 119.61 15.8684 118.835 16.0874L112.317 17.9278C112.207 17.958 112.091 17.956 111.982 17.922C111.873 17.8879 111.776 17.8232 111.703 17.7356C111.63 17.6481 111.583 17.5413 111.569 17.4281C111.555 17.3148 111.574 17.1999 111.623 17.097L113.718 12.8013C114.075 12.0701 114.195 11.2455 114.059 10.4432C113.924 9.64089 113.541 8.90107 112.964 8.32748C112.386 7.75389 111.644 7.3753 110.841 7.24482C110.038 7.11433 109.214 7.23848 108.485 7.59986L102.491 10.5731C102.385 10.6256 102.265 10.6451 102.148 10.6291C102.03 10.6132 101.92 10.5625 101.832 10.4836C101.744 10.4047 101.681 10.3012 101.652 10.1863C101.622 10.0715 101.628 9.95051 101.668 9.83897L102.479 7.56717C102.761 6.78558 102.787 5.93424 102.551 5.13734C102.315 4.34044 101.831 3.63966 101.169 3.13725C100.507 2.63484 99.7023 2.35708 98.8714 2.34447C98.0404 2.33187 97.2272 2.58508 96.5504 3.06718L93.3092 5.37815C93.2319 5.43308 93.1426 5.46872 93.0487 5.4821C92.9548 5.49549 92.8591 5.48624 92.7695 5.45511C92.68 5.42398 92.5991 5.37188 92.5338 5.30316C92.4685 5.23443 92.4205 5.15107 92.3939 5.06005L91.9343 3.4849C91.6933 2.65691 91.1845 1.93223 90.4876 1.42436C89.7906 0.91649 88.945 0.654116 88.083 0.678315C87.2209 0.702514 86.3913 1.01192 85.724 1.55809C85.0566 2.10425 84.5893 2.85634 84.3951 3.69654L84.0596 5.14118C84.0322 5.25912 83.9694 5.36588 83.8796 5.44717C83.7898 5.52845 83.6774 5.58038 83.5573 5.59603C83.4372 5.61167 83.3152 5.59027 83.2076 5.53471C83.1 5.47914 83.012 5.39206 82.9552 5.28508L82.1546 3.77321C81.7582 3.02405 81.1283 2.42456 80.3605 2.0656C79.5926 1.70665 78.7287 1.60779 77.8996 1.78402C77.0706 1.96025 76.3216 2.40195 75.7661 3.04218C75.2107 3.68241 74.8791 4.48628 74.8216 5.33192L74.5534 9.24862C74.545 9.37746 74.4947 9.50002 74.4103 9.59771C74.3259 9.69541 74.2119 9.7629 74.0857 9.78993C73.9594 9.81696 73.8278 9.80207 73.7108 9.7475C73.5938 9.69293 73.4978 9.60168 73.4374 9.48758L71.9713 6.74336C71.5984 6.04418 71.0213 5.47527 70.3168 5.1125C69.6123 4.74974 68.814 4.61035 68.0282 4.7129C67.2425 4.81545 66.5067 5.15507 65.9189 5.6865C65.3311 6.21793 64.9193 6.91589 64.7383 7.68736L63.5516 12.7342C63.5226 12.8554 63.4563 12.9643 63.362 13.0458C63.2677 13.1272 63.1502 13.177 63.0261 13.188C62.902 13.1991 62.7775 13.1709 62.6703 13.1074C62.5631 13.0439 62.4786 12.9483 62.4286 12.8342L60.7839 9.04997C60.4765 8.34166 59.9657 7.74062 59.3161 7.32311C58.6666 6.9056 57.9077 6.69044 57.1357 6.70492C56.3637 6.71941 55.6134 6.9629 54.98 7.40448C54.3466 7.84606 53.8586 8.46584 53.578 9.18519L50.8452 16.1828C50.7993 16.2995 50.7177 16.3987 50.6121 16.4662C50.5064 16.5337 50.3821 16.5661 50.257 16.5587C50.1318 16.5514 50.0122 16.5046 49.9152 16.4252C49.8181 16.3458 49.7487 16.2377 49.7168 16.1165L48.3515 10.8974C48.1677 10.1937 47.7907 9.55551 47.263 9.05496C46.7354 8.55441 46.0782 8.21148 45.3658 8.06499C44.6534 7.91849 43.9142 7.97426 43.2319 8.22598C42.5495 8.47771 41.9512 8.91534 41.5047 9.4894L36.3293 16.1361C36.2503 16.2415 36.1386 16.3176 36.0116 16.3524C35.8846 16.3873 35.7497 16.3789 35.628 16.3286C35.5063 16.2783 35.4048 16.1889 35.3395 16.0746C35.2743 15.9603 35.2489 15.8275 35.2674 15.6971L35.529 13.425C35.6181 12.6406 35.467 11.8476 35.0957 11.151C34.7244 10.4543 34.1504 9.88681 33.4496 9.52346C32.7488 9.16012 31.9541 9.01809 31.1708 9.11613C30.3875 9.21418 29.6524 9.54769 29.0628 10.0726L22.2803 16.1662C22.1851 16.2511 22.0651 16.3031 21.9381 16.3146C21.8111 16.3261 21.6838 16.2964 21.5749 16.23C21.466 16.1636 21.3814 16.064 21.3335 15.9458C21.2856 15.8276 21.2769 15.6972 21.3088 15.5737L21.4784 14.9271C21.7073 14.0566 21.6278 13.1337 21.2534 12.3151C20.8791 11.4965 20.2329 10.8328 19.4247 10.4366C18.6165 10.0404 17.6961 9.93614 16.8197 10.1416C15.9434 10.347 15.1651 10.8495 14.6172 11.5636L11.7554 15.2882C11.698 15.3628 11.6238 15.4227 11.5388 15.463C11.4538 15.5033 11.3604 15.5228 11.2664 15.52C11.1724 15.5172 11.0803 15.4922 10.9979 15.4469C10.9154 15.4016 10.8449 15.3374 10.7921 15.2596L2.78436 3.42506L0.0474628 5.2753L8.05593 17.1112C8.40168 17.623 8.86412 18.0453 9.40513 18.3432C9.94614 18.6412 10.5502 18.8063 11.1676 18.825C11.7849 18.8437 12.3979 18.7154 12.9559 18.4506C13.5139 18.1859 14.001 17.7923 14.3771 17.3023L17.2376 13.5784C17.3213 13.4703 17.4398 13.3943 17.5731 13.3634C17.7063 13.3324 17.8462 13.3483 17.969 13.4084C18.0919 13.4685 18.1903 13.5692 18.2476 13.6934C18.305 13.8176 18.3177 13.9577 18.2837 14.0903L18.1141 14.7368C17.9018 15.5478 17.9566 16.4056 18.2702 17.183C18.5839 17.9604 19.1398 18.616 19.8554 19.0526C20.5711 19.4892 21.4084 19.6835 22.2431 19.6066C23.0779 19.5298 23.8657 19.186 24.4896 18.6261L31.2722 12.5325C31.3619 12.4521 31.4739 12.4008 31.5934 12.3855C31.7129 12.3702 31.8342 12.3915 31.9413 12.4466C32.0484 12.5018 32.1363 12.5882 32.1932 12.6944C32.2501 12.8006 32.2734 12.9215 32.26 13.0413L31.9985 15.3134C31.9021 16.1579 32.0843 17.0107 32.5174 17.742C32.9504 18.4734 33.6106 19.0432 34.3974 19.3646C35.1843 19.6861 36.0546 19.7417 36.8759 19.5229C37.6972 19.3041 38.4244 18.8229 38.947 18.1525L44.1211 11.5065C44.1892 11.4194 44.2803 11.353 44.3841 11.3148C44.4879 11.2766 44.6003 11.2681 44.7087 11.2903C44.8171 11.3125 44.9171 11.3644 44.9975 11.4403C45.078 11.5162 45.1357 11.6131 45.1641 11.72L46.5302 16.9403C46.7391 17.7363 47.1946 18.4458 47.8314 18.9671C48.4681 19.4885 49.2535 19.795 50.0751 19.8427C50.8967 19.8904 51.7123 19.677 52.4051 19.2329C53.098 18.7888 53.6326 18.1369 53.9323 17.3704L56.665 10.3728C56.7077 10.2631 56.782 10.1685 56.8785 10.1012C56.9751 10.0339 57.0895 9.9968 57.2072 9.99468C57.3248 9.99256 57.4405 10.0255 57.5394 10.0893C57.6383 10.1531 57.716 10.2449 57.7626 10.353L59.4059 14.138C59.7321 14.8894 60.2868 15.5189 60.9911 15.9372C61.6954 16.3556 62.5135 16.5414 63.3294 16.4685C64.1453 16.3955 64.9175 16.0674 65.5364 15.5308C66.1553 14.9941 66.5894 14.2761 66.7772 13.4788L67.963 8.43066C67.9909 8.31315 68.0538 8.20692 68.1435 8.12606C68.2332 8.04521 68.3454 7.99356 68.4652 7.97802C68.5849 7.96248 68.7066 7.98377 68.8139 8.03906C68.9213 8.09435 69.0093 8.18103 69.0662 8.28754L70.5309 11.0325C70.93 11.7786 71.561 12.3746 72.3286 12.7305C73.0963 13.0864 73.9588 13.1829 74.7862 13.0055C75.6135 12.8281 76.3606 12.3864 76.9148 11.747C77.469 11.1076 77.8001 10.3053 77.8583 9.46119L78.1273 5.5458C78.1357 5.41682 78.186 5.29411 78.2706 5.19634C78.3551 5.09858 78.4693 5.03111 78.5957 5.0042C78.7222 4.9773 78.8539 4.99244 78.9709 5.04731C79.088 5.10217 79.1839 5.19377 79.2441 5.30816L80.0446 6.82003C80.4164 7.52208 80.9938 8.09378 81.6995 8.4585C82.4053 8.82323 83.2056 8.96357 83.9933 8.86074C84.781 8.75792 85.5185 8.41684 86.107 7.88317C86.6954 7.34951 87.1067 6.64877 87.2858 5.87482L87.6213 4.43017C87.6514 4.30242 87.723 4.18823 87.8248 4.1054C87.9266 4.02257 88.053 3.97576 88.1842 3.97226C88.3154 3.96876 88.4441 4.00877 88.5502 4.08605C88.6563 4.16333 88.7338 4.27354 88.7707 4.3995L89.2303 5.97467C89.4048 6.57193 89.7196 7.11876 90.1486 7.56947C90.5776 8.02018 91.1082 8.36167 91.6961 8.56541C92.284 8.76916 92.9121 8.82923 93.528 8.74062C94.1439 8.652 94.7296 8.41726 95.2362 8.05603L98.4774 5.74506C98.5805 5.67126 98.7044 5.63242 98.8312 5.63422C98.9579 5.63602 99.0807 5.67838 99.1817 5.75508C99.2826 5.83178 99.3563 5.9388 99.3919 6.06043C99.4276 6.18206 99.4233 6.31191 99.3798 6.43096L98.5549 8.70915C98.2915 9.44009 98.2526 10.2331 98.4431 10.9863C98.6337 11.7395 99.0451 12.4186 99.6244 12.9363C100.204 13.454 100.925 13.7868 101.694 13.8918C102.464 13.9969 103.248 13.8695 103.945 13.5259L109.939 10.5526C110.05 10.497 110.176 10.4776 110.299 10.4973C110.421 10.517 110.535 10.5748 110.623 10.6624C110.711 10.7501 110.769 10.8632 110.79 10.9859C110.81 11.1085 110.791 11.2344 110.736 11.3458L108.641 15.6416C108.312 16.3174 108.186 17.0739 108.277 17.8199C108.368 18.5659 108.673 19.2696 109.155 19.8464C109.637 20.4231 110.275 20.8483 110.993 21.0707C111.711 21.2932 112.478 21.3034 113.201 21.1002L119.721 19.2611C119.839 19.2273 119.964 19.2309 120.08 19.2715C120.196 19.3121 120.297 19.3877 120.368 19.4878C120.439 19.588 120.477 19.7077 120.477 19.8305C120.477 19.9533 120.439 20.0731 120.369 20.1734L117.868 23.7364C117.401 24.3999 117.152 25.1926 117.157 26.004C117.162 26.8155 117.42 27.6052 117.895 28.2629C118.37 28.9207 119.039 29.4137 119.808 29.6732C120.577 29.9327 121.407 29.9458 122.184 29.7105L129.744 27.4468C129.867 27.4104 129.999 27.4148 130.119 27.4592C130.239 27.5037 130.342 27.5858 130.412 27.6933C130.482 27.8008 130.515 27.9281 130.506 28.056C130.498 28.184 130.448 28.3058 130.365 28.4032L125.986 33.4878C125.436 34.1245 125.106 34.9225 125.047 35.7623C124.987 36.6021 125.201 37.4385 125.657 38.1464C126.113 38.8543 126.785 39.3956 127.574 39.6894C128.363 39.9831 129.226 40.0135 130.034 39.776L136.917 37.7683C137.047 37.7274 137.186 37.732 137.312 37.7813C137.439 37.8306 137.545 37.9217 137.612 38.0393C137.68 38.157 137.705 38.2942 137.684 38.4282C137.662 38.5622 137.596 38.6849 137.496 38.776C136.877 39.3587 136.466 40.1276 136.324 40.9656C136.183 41.8037 136.32 42.665 136.713 43.4183C137.107 44.1715 137.736 44.7754 138.505 45.1381C139.273 45.5007 140.139 45.6021 140.971 45.4269L148.811 43.7804C148.932 43.7546 149.058 43.7674 149.172 43.8172C149.286 43.867 149.381 43.9511 149.444 44.0578C149.508 44.1644 149.536 44.2883 149.525 44.4119C149.514 44.5355 149.465 44.6526 149.384 44.7467L148.212 46.119C147.668 46.7549 147.344 47.5489 147.286 48.3836C147.229 49.2183 147.441 50.0493 147.893 50.7538C148.344 51.4582 149.01 51.9988 149.792 52.2955C150.574 52.5921 151.431 52.6292 152.236 52.4011L156.914 51.0801C157.03 51.0471 157.153 51.0499 157.267 51.0882C157.38 51.1265 157.48 51.1985 157.552 51.2946C157.624 51.3907 157.665 51.5064 157.67 51.6264C157.675 51.7464 157.643 51.8651 157.579 51.9667L155.225 55.7142C154.792 56.4029 154.585 57.2098 154.634 58.0219C154.682 58.834 154.984 59.6106 155.496 60.2427C156.008 60.8748 156.705 61.3308 157.49 61.5467C158.274 61.7626 159.106 61.7277 159.87 61.4468L165.03 59.551C165.145 59.5083 165.271 59.5025 165.39 59.5346C165.509 59.5666 165.615 59.6347 165.693 59.7296C165.771 59.8245 165.818 59.9414 165.827 60.0642C165.836 60.1869 165.807 60.3094 165.743 60.4146L163.871 63.5218C163.457 64.2094 163.265 65.0081 163.322 65.8088C163.378 66.6095 163.681 67.3732 164.188 67.9956C164.695 68.618 165.381 69.0688 166.154 69.2864C166.927 69.504 167.748 69.4778 168.505 69.2113L170.889 68.3709C171.012 68.3264 171.147 68.324 171.272 68.3643C171.397 68.4046 171.505 68.4853 171.579 68.5936C171.654 68.7019 171.69 68.8318 171.682 68.9629C171.675 69.094 171.624 69.2189 171.538 69.318L169.986 71.1236C169.418 71.7847 169.087 72.6173 169.048 73.4883C169.008 74.3593 169.262 75.2184 169.768 75.9282C170.275 76.638 171.004 77.1575 171.841 77.4036C172.677 77.6498 173.572 77.6083 174.382 77.2859L180.644 74.7953C180.756 74.7513 180.878 74.7419 180.995 74.7686C181.112 74.7952 181.218 74.8565 181.299 74.9446C181.381 75.0326 181.434 75.1431 181.451 75.2617C181.469 75.3803 181.45 75.5015 181.397 75.6092L172.65 93.539L175.615 94.9887Z" fill="#384955"/>
</svg>
