<svg width="18" height="18" viewBox="0 0 18 18" fill="none" xmlns="http://www.w3.org/2000/svg">
<path d="M15.8224 14.8018C14.0676 16.5167 11.7068 17.4697 9.25326 17.4536C8.10995 17.4923 6.97029 17.3045 5.8998 16.9011C4.82931 16.4978 3.84915 15.8867 3.01566 15.1032C1.42178 13.4235 0.533203 11.1962 0.533203 8.88062C0.533203 6.56505 1.42178 4.33776 3.01566 2.65806C4.64445 1.12726 6.80752 0.294487 9.04235 0.337799C11.1664 0.285876 13.2357 1.01496 14.8581 2.38687C15.6556 3.09768 16.2834 3.97835 16.6954 4.964C17.1074 5.94966 17.2931 7.01518 17.2386 8.08209V10.5229H5.18527C5.26119 10.9737 5.42867 11.4041 5.67744 11.7877C5.92621 12.1712 6.25099 12.4997 6.63166 12.7528C7.41681 13.3308 8.36875 13.6375 9.34365 13.6266C10.0837 13.6499 10.8204 13.517 11.5058 13.2366C12.1911 12.9563 12.8097 12.5347 13.3213 11.9994L15.8224 14.8018ZM11.3927 4.94821C10.7352 4.42286 9.91386 4.14551 9.07246 4.16473C8.17337 4.16249 7.29708 4.44756 6.57138 4.97835C6.20179 5.2385 5.89221 5.5748 5.66351 5.96464C5.4348 6.35448 5.29226 6.78881 5.24551 7.23836H12.5077C12.4463 6.35949 12.0467 5.53861 11.3927 4.94821Z" fill="#FFD786"/>
</svg>
