<svg width="77" height="77" viewBox="0 0 77 77" fill="none" xmlns="http://www.w3.org/2000/svg">
<path d="M38.7547 76.1334C31.2623 76.139 23.9365 73.9225 17.704 69.764C11.4716 65.6056 6.6124 59.6921 3.74125 52.7717C0.8701 45.8512 0.115939 38.2347 1.57416 30.8856C3.03238 23.5364 6.63747 16.7849 11.9334 11.4849C17.2293 6.18498 23.9782 2.57479 31.3262 1.111C38.6742 -0.352781 46.2913 0.395605 53.2139 3.26151C60.1366 6.12743 66.0537 10.9821 70.2169 17.2114C74.38 23.4407 76.6021 30.7648 76.6021 38.2572C76.5946 48.2953 72.6056 57.9205 65.5102 65.0212C58.4149 72.1219 48.7928 76.1182 38.7547 76.1334ZM38.7547 3.9078C31.9497 3.9078 25.2975 5.92573 19.6393 9.7064C13.9811 13.4871 9.57112 18.8607 6.96695 25.1477C4.36278 31.4347 3.68142 38.3528 5.00901 45.027C6.3366 51.7013 9.61353 57.832 14.4254 62.6439C19.2373 67.4557 25.368 70.7327 32.0422 72.0602C38.7165 73.3878 45.6346 72.7065 51.9216 70.1023C58.2086 67.4981 63.5822 63.0881 67.3629 57.43C71.1435 51.7718 73.1615 45.1196 73.1615 38.3146C73.1615 33.7962 72.2715 29.3221 70.5424 25.1477C68.8133 20.9733 66.2789 17.1803 63.0839 13.9853C59.889 10.7903 56.096 8.25596 51.9216 6.52685C47.7472 4.79775 43.273 3.9078 38.7547 3.9078Z" fill="white"/>
</svg>
