<svg width="77" height="77" viewBox="0 0 77 77" fill="none" xmlns="http://www.w3.org/2000/svg">
<path d="M38.7975 76.1334C31.3063 76.1334 23.9834 73.912 17.7547 69.7501C11.526 65.5882 6.67134 59.6728 3.80458 52.7518C0.937829 45.8309 0.187713 38.2152 1.64917 30.868C3.11063 23.5207 6.71799 16.7719 12.0151 11.4748C17.3121 6.17772 24.061 2.57036 31.4083 1.1089C38.7555 -0.352559 46.3711 0.397513 53.2921 3.26427C60.213 6.13102 66.1285 10.9857 70.2904 17.2144C74.4522 23.4431 76.6736 30.7661 76.6736 38.2573C76.6585 48.298 72.6632 57.9231 65.5633 65.023C58.4634 72.1228 48.8383 76.1182 38.7975 76.1334ZM38.7975 3.90782C31.9925 3.90782 25.3403 5.92575 19.6822 9.70642C14.024 13.4871 9.614 18.8607 7.00983 25.1477C4.40566 31.4347 3.72432 38.3528 5.05191 45.027C6.3795 51.7013 9.65637 57.832 14.4682 62.6439C19.2801 67.4557 25.4108 70.7327 32.0851 72.0603C38.7593 73.3879 45.6774 72.7065 51.9644 70.1023C58.2514 67.4982 63.6251 63.0882 67.4057 57.43C71.1864 51.7718 73.2043 45.1196 73.2043 38.3146C73.2043 33.7962 72.3143 29.3221 70.5852 25.1477C68.8561 20.9733 66.3218 17.1803 63.1268 13.9853C59.9319 10.7904 56.1388 8.25598 51.9644 6.52687C47.79 4.79777 43.3159 3.90782 38.7975 3.90782Z" fill="white"/>
</svg>
