<svg width="20" height="28" viewBox="0 0 20 28" fill="none" xmlns="http://www.w3.org/2000/svg">
<path d="M10 5.25C10.2652 5.25 10.5196 5.34219 10.7071 5.50628C10.8946 5.67038 11 5.89294 11 6.125V9.625C11 9.85706 10.8946 10.0796 10.7071 10.2437C10.5196 10.4078 10.2652 10.5 10 10.5C9.73478 10.5 9.48043 10.4078 9.29289 10.2437C9.10536 10.0796 9 9.85706 9 9.625V6.125C9 5.89294 9.10536 5.67038 9.29289 5.50628C9.48043 5.34219 9.73478 5.25 10 5.25ZM18 19.25C18 21.1065 17.1571 22.887 15.6569 24.1997C14.1566 25.5125 12.1217 26.25 10 26.25C7.87827 26.25 5.84344 25.5125 4.34315 24.1997C2.84285 22.887 2 21.1065 2 19.25V8.75C2 6.89348 2.84285 5.11301 4.34315 3.80025C5.84344 2.4875 7.87827 1.75 10 1.75C12.1217 1.75 14.1566 2.4875 15.6569 3.80025C17.1571 5.11301 18 6.89348 18 8.75V19.25ZM10 0C7.34784 0 4.8043 0.921872 2.92893 2.56282C1.05357 4.20376 0 6.42936 0 8.75V19.25C0 21.5706 1.05357 23.7962 2.92893 25.4372C4.8043 27.0781 7.34784 28 10 28C12.6522 28 15.1957 27.0781 17.0711 25.4372C18.9464 23.7962 20 21.5706 20 19.25V8.75C20 6.42936 18.9464 4.20376 17.0711 2.56282C15.1957 0.921872 12.6522 0 10 0Z" fill="white"/>
</svg>
