<svg width="16" height="22" viewBox="0 0 16 22" fill="none" xmlns="http://www.w3.org/2000/svg">
<path d="M1.5084 4.36282V0.463379H14.0669V3.61735L9.88067 8.37695C11.3606 8.57379 12.712 9.32116 13.6654 10.47C14.5629 11.5353 15.0419 12.8908 15.013 14.2835C15.0606 15.2353 14.8888 16.1854 14.511 17.0603C14.1331 17.9352 13.5594 18.7117 12.8339 19.3298C11.2587 20.5867 9.28544 21.2377 7.27156 21.1648C4.78436 21.0904 2.38086 20.2492 0.390137 18.7563L2.25391 15.1149C3.73109 16.3191 5.54289 17.0398 7.44359 17.1793C8.25448 17.2109 9.05232 16.9685 9.70864 16.4912C10.0081 16.2666 10.2465 15.9704 10.4018 15.6297C10.5571 15.2891 10.6243 14.9149 10.5975 14.5415C10.6076 14.1472 10.5183 13.7568 10.3379 13.406C10.1576 13.0553 9.8919 12.7556 9.56531 12.5344C8.71083 11.9927 7.70821 11.732 6.69808 11.789C5.72037 11.8252 4.75373 12.0089 3.83085 12.3337V8.97906L7.75894 4.36282H1.5084Z" fill="white"/>
</svg>
