<svg width="334" height="198" viewBox="0 0 334 198" fill="none" xmlns="http://www.w3.org/2000/svg">
<path d="M233.221 197.479H32.8298C28.5148 197.476 24.2427 196.622 20.2576 194.967C16.2725 193.312 12.6523 190.889 9.60376 187.835C6.55523 184.781 4.13805 181.157 2.49024 177.169C0.842427 173.181 -0.00375442 168.907 1.25218e-05 164.592V32.6995C0.0529979 24.0247 3.53431 15.7228 9.68454 9.60479C15.8348 3.48679 24.1548 0.049156 32.8298 0.041748H76.3257C76.7896 0.041748 77.2345 0.226019 77.5625 0.554022C77.8905 0.882026 78.0747 1.32689 78.0747 1.79076C78.0747 2.25463 77.8905 2.6995 77.5625 3.0275C77.2345 3.3555 76.7896 3.53977 76.3257 3.53977H32.8298C25.0529 3.54737 17.5966 6.64011 12.0975 12.1392C6.59837 17.6384 3.50563 25.0946 3.49804 32.8715V164.764C3.50563 172.541 6.59837 179.997 12.0975 185.497C17.5966 190.996 25.0529 194.088 32.8298 194.096H233.221C237.086 194.092 240.913 193.325 244.481 191.839C248.049 190.353 251.289 188.177 254.014 185.436C256.739 182.695 258.896 179.442 260.361 175.865C261.827 172.288 262.571 168.457 262.552 164.592V115.677C262.549 115.445 262.591 115.215 262.677 114.999C262.763 114.784 262.892 114.587 263.054 114.422C263.217 114.256 263.411 114.125 263.625 114.035C263.84 113.946 264.069 113.899 264.301 113.9H332.111C332.54 113.954 332.935 114.164 333.22 114.488C333.506 114.813 333.664 115.23 333.664 115.663C333.664 116.095 333.506 116.513 333.22 116.838C332.935 117.162 332.54 117.371 332.111 117.426H266.022V164.592C266.022 173.299 262.569 181.651 256.42 187.817C250.271 193.982 241.928 197.457 233.221 197.479Z" fill="#540494"/>
</svg>
