<svg width="19" height="23" viewBox="0 0 19 23" fill="none" xmlns="http://www.w3.org/2000/svg">
<path d="M9.16192 22.4537C7.88467 22.5436 6.60508 22.3153 5.43764 21.7895C4.2702 21.2636 3.25134 20.4565 2.4723 19.4403C1.03148 16.9819 0.271973 14.1839 0.271973 11.3344C0.271973 8.48494 1.03148 5.68693 2.4723 3.22854C3.30392 2.27071 4.33153 1.50265 5.48564 0.976277C6.63975 0.449903 7.89344 0.17749 9.16192 0.17749C10.4304 0.17749 11.6841 0.449903 12.8382 0.976277C13.9923 1.50265 15.0199 2.27071 15.8515 3.22854C17.3108 5.68056 18.0811 8.48105 18.0811 11.3344C18.0811 14.1878 17.3108 16.9883 15.8515 19.4403C15.0725 20.4565 14.0537 21.2636 12.8863 21.7895C11.7188 22.3153 10.4392 22.5436 9.16192 22.4537ZM6.14858 6.12137C4.78385 9.45234 4.78385 13.1864 6.14858 16.5174C6.43921 17.1086 6.8897 17.6066 7.44894 17.9549C8.00818 18.3031 8.65379 18.4877 9.3126 18.4877C9.97141 18.4877 10.617 18.3031 11.1763 17.9549C11.7355 17.6066 12.186 17.1086 12.4766 16.5174C13.8413 13.1864 13.8413 9.45234 12.4766 6.12137C12.186 5.53013 11.7355 5.03215 11.1763 4.68389C10.617 4.33564 9.97141 4.15106 9.3126 4.15106C8.65379 4.15106 8.00818 4.33564 7.44894 4.68389C6.8897 5.03215 6.43921 5.53013 6.14858 6.12137Z" fill="#FFD786"/>
</svg>
