<svg width="16" height="22" viewBox="0 0 16 22" fill="none" xmlns="http://www.w3.org/2000/svg">
<path d="M9.59468 8.43742C10.0779 7.83172 10.3587 7.08953 10.3975 6.31565C10.4054 5.99722 10.3484 5.68051 10.2302 5.38475C10.1119 5.08898 9.93484 4.82033 9.70961 4.5951C9.48437 4.36986 9.21572 4.19274 8.91996 4.07449C8.62419 3.95623 8.30746 3.89932 7.98903 3.90719C6.69878 3.90719 5.46587 4.8247 4.31898 6.77442L0.648926 4.62399C1.46397 3.29707 2.53632 2.1467 3.80285 1.24066C5.11307 0.442511 6.62769 0.0439265 8.16106 0.0937619C9.87169 0.077101 11.531 0.677719 12.8347 1.78544C13.4944 2.34854 14.0177 3.05393 14.3654 3.84856C14.713 4.64319 14.8759 5.50633 14.8417 6.37301C14.83 7.43696 14.5541 8.48132 14.0389 9.41227C13.2164 10.7429 12.2553 11.9827 11.1717 13.111L7.47291 16.9531H15.5585V21.0532H1.22236V17.4118L6.95683 11.3907C7.9117 10.4765 8.79366 9.48904 9.59468 8.43742Z" fill="white"/>
</svg>
