<svg width="6" height="6" viewBox="0 0 6 6" fill="none" xmlns="http://www.w3.org/2000/svg">
<path d="M5.5517 2.76627C5.5517 3.29485 5.39519 3.81155 5.10197 4.25105C4.80876 4.69054 4.39204 5.03309 3.90445 5.23537C3.41686 5.43765 2.88032 5.49057 2.36269 5.38745C1.84507 5.28433 1.36959 5.02979 0.996406 4.65604C0.623219 4.28228 0.369085 3.80608 0.266123 3.28766C0.163161 2.76924 0.215985 2.23188 0.417952 1.74354C0.619919 1.2552 0.961961 0.837811 1.40078 0.54415C1.8396 0.250489 2.35549 0.09375 2.88326 0.09375C3.59097 0.09375 4.26971 0.375324 4.77014 0.87652C5.27057 1.37772 5.5517 2.05748 5.5517 2.76627Z" fill="white"/>
</svg>
