<svg width="19" height="23" viewBox="0 0 19 23" fill="none" xmlns="http://www.w3.org/2000/svg">
<path d="M9.40921 22.4536C8.13196 22.5435 6.85237 22.3153 5.68493 21.7894C4.51749 21.2635 3.49863 20.4564 2.71959 19.4403C1.26035 16.9883 0.490112 14.1878 0.490112 11.3344C0.490112 8.48099 1.26035 5.68051 2.71959 3.22848C3.54841 2.27132 4.57339 1.50361 5.72502 0.977443C6.87666 0.451273 8.12799 0.178955 9.39413 0.178955C10.6603 0.178955 11.9116 0.451273 13.0632 0.977443C14.2149 1.50361 15.2399 2.27132 16.0687 3.22848C17.5279 5.68051 18.2982 8.48099 18.2982 11.3344C18.2982 14.1878 17.5279 16.9883 16.0687 19.4403C15.2925 20.452 14.2786 21.2564 13.1169 21.7821C11.9551 22.3077 10.6815 22.5384 9.40921 22.4536ZM6.21508 6.12131C4.85035 9.45229 4.85035 13.1864 6.21508 16.5173C6.50244 17.1167 6.95336 17.6226 7.51585 17.9767C8.07834 18.3308 8.72946 18.5187 9.39413 18.5187C10.0588 18.5187 10.7099 18.3308 11.2724 17.9767C11.8349 17.6226 12.2858 17.1167 12.5732 16.5173C13.9379 13.1864 13.9379 9.45229 12.5732 6.12131C12.2858 5.52198 11.8349 5.01606 11.2724 4.66196C10.7099 4.30785 10.0588 4.11997 9.39413 4.11997C8.72946 4.11997 8.07834 4.30785 7.51585 4.66196C6.95336 5.01606 6.50244 5.52198 6.21508 6.12131Z" fill="#B571FF"/>
</svg>
