<svg width="334" height="199" viewBox="0 0 334 199" fill="none" xmlns="http://www.w3.org/2000/svg">
<path d="M233.292 198.479H32.8727C24.1604 198.464 15.8102 194.992 9.65504 188.827C3.4999 182.661 0.0429555 174.304 0.0429688 165.592V33.6994C0.0581297 24.9971 3.52184 16.6555 9.67534 10.502C15.8288 4.3485 24.1704 0.88479 32.8727 0.869629H76.3973C76.8611 0.869629 77.306 1.0539 77.634 1.3819C77.962 1.70991 78.1463 2.15478 78.1463 2.61864C78.1463 3.08251 77.962 3.52736 77.634 3.85536C77.306 4.18336 76.8611 4.36763 76.3973 4.36763H32.8727C25.0984 4.37523 17.6451 7.4689 12.1506 12.9688C6.65599 18.4688 3.5696 25.9251 3.56961 33.6994V165.592C3.5696 173.366 6.65599 180.823 12.1506 186.323C17.6451 191.823 25.0984 194.916 32.8727 194.924H233.292C241.066 194.916 248.52 191.823 254.014 186.323C259.509 180.823 262.595 173.366 262.595 165.592V116.677C262.595 116.206 262.783 115.754 263.116 115.42C263.449 115.087 263.902 114.899 264.373 114.899H332.154C332.583 114.954 332.978 115.164 333.263 115.488C333.549 115.813 333.707 116.23 333.707 116.663C333.707 117.095 333.549 117.513 333.263 117.837C332.978 118.162 332.583 118.371 332.154 118.426H266.208V165.592C266.208 169.913 265.356 174.192 263.702 178.184C262.047 182.176 259.622 185.803 256.566 188.857C253.509 191.911 249.88 194.333 245.886 195.984C241.893 197.635 237.613 198.483 233.292 198.479Z" fill="#540494"/>
</svg>
